G75*
G70*
%OFA0B0*%
%FSLAX25Y25*%
%IPPOS*%
%LPD*%
%AMOC8*
5,1,8,0,0,1.08239X$1,22.5*
%
%ADD11C,0.01600*%
%ADD15C,0.00200*%
%ADD27C,0.00100*%
X0010000Y0010000D02*
D15*
G01*
X0011720Y0020999D02*
G01*
X0011720Y0022467D01*
G01*
X0010986Y0021733D02*
G01*
X0012454Y0021733D01*
G01*
X0014726Y0027048D02*
G01*
X0016194Y0027048D01*
G01*
X0015827Y0028899D02*
G01*
X0015093Y0028899D01*
G01*
X0015093Y0028899D02*
G01*
X0014726Y0029266D01*
G01*
X0014726Y0029266D02*
G01*
X0014726Y0030734D01*
G01*
X0014726Y0030734D02*
G01*
X0015093Y0031101D01*
G01*
X0015093Y0031101D02*
G01*
X0015827Y0031101D01*
G01*
X0015827Y0031101D02*
G01*
X0016194Y0030734D01*
G01*
X0016194Y0030000D02*
G01*
X0015460Y0030000D01*
G01*
X0016194Y0030000D02*
G01*
X0016194Y0029266D01*
G01*
X0016194Y0029266D02*
G01*
X0015827Y0028899D01*
G01*
X0021222Y0032586D02*
G01*
X0021956Y0031852D01*
G01*
X0021956Y0031852D02*
G01*
X0022690Y0032586D01*
G01*
X0022690Y0032586D02*
G01*
X0022690Y0034054D01*
G01*
X0023432Y0033320D02*
G01*
X0023799Y0033320D01*
G01*
X0023799Y0033320D02*
G01*
X0023799Y0031852D01*
G01*
X0023432Y0031852D02*
G01*
X0024166Y0031852D01*
G01*
X0023799Y0034054D02*
G01*
X0023799Y0034421D01*
G01*
X0021222Y0034054D02*
G01*
X0021222Y0032586D01*
D11*
G01*
X0031120Y0022500D02*
G01*
X0031361Y0022500D01*
D27*
G01*
X0028406Y0011949D02*
G01*
X0016595Y0011949D01*
G01*
X0016595Y0011949D02*
G01*
X0016595Y0027697D01*
G01*
X0016595Y0027697D02*
G01*
X0028406Y0027697D01*
G01*
X0028406Y0027697D02*
G01*
X0028406Y0011949D01*
X0010000Y0045000D02*
D15*
G01*
X0011720Y0055999D02*
G01*
X0011720Y0057467D01*
G01*
X0010986Y0056733D02*
G01*
X0012454Y0056733D01*
G01*
X0014726Y0062048D02*
G01*
X0016194Y0062048D01*
G01*
X0015827Y0063899D02*
G01*
X0015093Y0063899D01*
G01*
X0015093Y0063899D02*
G01*
X0014726Y0064266D01*
G01*
X0014726Y0064266D02*
G01*
X0014726Y0065734D01*
G01*
X0014726Y0065734D02*
G01*
X0015093Y0066101D01*
G01*
X0015093Y0066101D02*
G01*
X0015827Y0066101D01*
G01*
X0015827Y0066101D02*
G01*
X0016194Y0065734D01*
G01*
X0016194Y0065000D02*
G01*
X0015460Y0065000D01*
G01*
X0016194Y0065000D02*
G01*
X0016194Y0064266D01*
G01*
X0016194Y0064266D02*
G01*
X0015827Y0063899D01*
G01*
X0021222Y0067586D02*
G01*
X0021956Y0066852D01*
G01*
X0021956Y0066852D02*
G01*
X0022690Y0067586D01*
G01*
X0022690Y0067586D02*
G01*
X0022690Y0069054D01*
G01*
X0023432Y0068320D02*
G01*
X0023799Y0068320D01*
G01*
X0023799Y0068320D02*
G01*
X0023799Y0066852D01*
G01*
X0023432Y0066852D02*
G01*
X0024166Y0066852D01*
G01*
X0023799Y0069054D02*
G01*
X0023799Y0069421D01*
G01*
X0021222Y0069054D02*
G01*
X0021222Y0067586D01*
D11*
G01*
X0031120Y0057500D02*
G01*
X0031361Y0057500D01*
D27*
G01*
X0028406Y0046949D02*
G01*
X0016595Y0046949D01*
G01*
X0016595Y0046949D02*
G01*
X0016595Y0062697D01*
G01*
X0016595Y0062697D02*
G01*
X0028406Y0062697D01*
G01*
X0028406Y0062697D02*
G01*
X0028406Y0046949D01*
X0010000Y0080000D02*
D15*
G01*
X0011720Y0090999D02*
G01*
X0011720Y0092467D01*
G01*
X0010986Y0091733D02*
G01*
X0012454Y0091733D01*
G01*
X0014726Y0097048D02*
G01*
X0016194Y0097048D01*
G01*
X0015827Y0098899D02*
G01*
X0015093Y0098899D01*
G01*
X0015093Y0098899D02*
G01*
X0014726Y0099266D01*
G01*
X0014726Y0099266D02*
G01*
X0014726Y0100734D01*
G01*
X0014726Y0100734D02*
G01*
X0015093Y0101101D01*
G01*
X0015093Y0101101D02*
G01*
X0015827Y0101101D01*
G01*
X0015827Y0101101D02*
G01*
X0016194Y0100734D01*
G01*
X0016194Y0100000D02*
G01*
X0015460Y0100000D01*
G01*
X0016194Y0100000D02*
G01*
X0016194Y0099266D01*
G01*
X0016194Y0099266D02*
G01*
X0015827Y0098899D01*
G01*
X0021222Y0102586D02*
G01*
X0021956Y0101852D01*
G01*
X0021956Y0101852D02*
G01*
X0022690Y0102586D01*
G01*
X0022690Y0102586D02*
G01*
X0022690Y0104054D01*
G01*
X0023432Y0103320D02*
G01*
X0023799Y0103320D01*
G01*
X0023799Y0103320D02*
G01*
X0023799Y0101852D01*
G01*
X0023432Y0101852D02*
G01*
X0024166Y0101852D01*
G01*
X0023799Y0104054D02*
G01*
X0023799Y0104421D01*
G01*
X0021222Y0104054D02*
G01*
X0021222Y0102586D01*
D11*
G01*
X0031120Y0092500D02*
G01*
X0031361Y0092500D01*
D27*
G01*
X0028406Y0081949D02*
G01*
X0016595Y0081949D01*
G01*
X0016595Y0081949D02*
G01*
X0016595Y0097697D01*
G01*
X0016595Y0097697D02*
G01*
X0028406Y0097697D01*
G01*
X0028406Y0097697D02*
G01*
X0028406Y0081949D01*
X0045000Y0010000D02*
D15*
G01*
X0046720Y0020999D02*
G01*
X0046720Y0022467D01*
G01*
X0045986Y0021733D02*
G01*
X0047454Y0021733D01*
G01*
X0049726Y0027048D02*
G01*
X0051194Y0027048D01*
G01*
X0050827Y0028899D02*
G01*
X0050093Y0028899D01*
G01*
X0050093Y0028899D02*
G01*
X0049726Y0029266D01*
G01*
X0049726Y0029266D02*
G01*
X0049726Y0030734D01*
G01*
X0049726Y0030734D02*
G01*
X0050093Y0031101D01*
G01*
X0050093Y0031101D02*
G01*
X0050827Y0031101D01*
G01*
X0050827Y0031101D02*
G01*
X0051194Y0030734D01*
G01*
X0051194Y0030000D02*
G01*
X0050460Y0030000D01*
G01*
X0051194Y0030000D02*
G01*
X0051194Y0029266D01*
G01*
X0051194Y0029266D02*
G01*
X0050827Y0028899D01*
G01*
X0056222Y0032586D02*
G01*
X0056956Y0031852D01*
G01*
X0056956Y0031852D02*
G01*
X0057690Y0032586D01*
G01*
X0057690Y0032586D02*
G01*
X0057690Y0034054D01*
G01*
X0058432Y0033320D02*
G01*
X0058799Y0033320D01*
G01*
X0058799Y0033320D02*
G01*
X0058799Y0031852D01*
G01*
X0058432Y0031852D02*
G01*
X0059166Y0031852D01*
G01*
X0058799Y0034054D02*
G01*
X0058799Y0034421D01*
G01*
X0056222Y0034054D02*
G01*
X0056222Y0032586D01*
D11*
G01*
X0066120Y0022500D02*
G01*
X0066361Y0022500D01*
D27*
G01*
X0063406Y0011949D02*
G01*
X0051595Y0011949D01*
G01*
X0051595Y0011949D02*
G01*
X0051595Y0027697D01*
G01*
X0051595Y0027697D02*
G01*
X0063406Y0027697D01*
G01*
X0063406Y0027697D02*
G01*
X0063406Y0011949D01*
X0045000Y0045000D02*
D15*
G01*
X0046720Y0055999D02*
G01*
X0046720Y0057467D01*
G01*
X0045986Y0056733D02*
G01*
X0047454Y0056733D01*
G01*
X0049726Y0062048D02*
G01*
X0051194Y0062048D01*
G01*
X0050827Y0063899D02*
G01*
X0050093Y0063899D01*
G01*
X0050093Y0063899D02*
G01*
X0049726Y0064266D01*
G01*
X0049726Y0064266D02*
G01*
X0049726Y0065734D01*
G01*
X0049726Y0065734D02*
G01*
X0050093Y0066101D01*
G01*
X0050093Y0066101D02*
G01*
X0050827Y0066101D01*
G01*
X0050827Y0066101D02*
G01*
X0051194Y0065734D01*
G01*
X0051194Y0065000D02*
G01*
X0050460Y0065000D01*
G01*
X0051194Y0065000D02*
G01*
X0051194Y0064266D01*
G01*
X0051194Y0064266D02*
G01*
X0050827Y0063899D01*
G01*
X0056222Y0067586D02*
G01*
X0056956Y0066852D01*
G01*
X0056956Y0066852D02*
G01*
X0057690Y0067586D01*
G01*
X0057690Y0067586D02*
G01*
X0057690Y0069054D01*
G01*
X0058432Y0068320D02*
G01*
X0058799Y0068320D01*
G01*
X0058799Y0068320D02*
G01*
X0058799Y0066852D01*
G01*
X0058432Y0066852D02*
G01*
X0059166Y0066852D01*
G01*
X0058799Y0069054D02*
G01*
X0058799Y0069421D01*
G01*
X0056222Y0069054D02*
G01*
X0056222Y0067586D01*
D11*
G01*
X0066120Y0057500D02*
G01*
X0066361Y0057500D01*
D27*
G01*
X0063406Y0046949D02*
G01*
X0051595Y0046949D01*
G01*
X0051595Y0046949D02*
G01*
X0051595Y0062697D01*
G01*
X0051595Y0062697D02*
G01*
X0063406Y0062697D01*
G01*
X0063406Y0062697D02*
G01*
X0063406Y0046949D01*
X0045000Y0080000D02*
D15*
G01*
X0046720Y0090999D02*
G01*
X0046720Y0092467D01*
G01*
X0045986Y0091733D02*
G01*
X0047454Y0091733D01*
G01*
X0049726Y0097048D02*
G01*
X0051194Y0097048D01*
G01*
X0050827Y0098899D02*
G01*
X0050093Y0098899D01*
G01*
X0050093Y0098899D02*
G01*
X0049726Y0099266D01*
G01*
X0049726Y0099266D02*
G01*
X0049726Y0100734D01*
G01*
X0049726Y0100734D02*
G01*
X0050093Y0101101D01*
G01*
X0050093Y0101101D02*
G01*
X0050827Y0101101D01*
G01*
X0050827Y0101101D02*
G01*
X0051194Y0100734D01*
G01*
X0051194Y0100000D02*
G01*
X0050460Y0100000D01*
G01*
X0051194Y0100000D02*
G01*
X0051194Y0099266D01*
G01*
X0051194Y0099266D02*
G01*
X0050827Y0098899D01*
G01*
X0056222Y0102586D02*
G01*
X0056956Y0101852D01*
G01*
X0056956Y0101852D02*
G01*
X0057690Y0102586D01*
G01*
X0057690Y0102586D02*
G01*
X0057690Y0104054D01*
G01*
X0058432Y0103320D02*
G01*
X0058799Y0103320D01*
G01*
X0058799Y0103320D02*
G01*
X0058799Y0101852D01*
G01*
X0058432Y0101852D02*
G01*
X0059166Y0101852D01*
G01*
X0058799Y0104054D02*
G01*
X0058799Y0104421D01*
G01*
X0056222Y0104054D02*
G01*
X0056222Y0102586D01*
D11*
G01*
X0066120Y0092500D02*
G01*
X0066361Y0092500D01*
D27*
G01*
X0063406Y0081949D02*
G01*
X0051595Y0081949D01*
G01*
X0051595Y0081949D02*
G01*
X0051595Y0097697D01*
G01*
X0051595Y0097697D02*
G01*
X0063406Y0097697D01*
G01*
X0063406Y0097697D02*
G01*
X0063406Y0081949D01*
X0080000Y0010000D02*
D15*
G01*
X0081720Y0020999D02*
G01*
X0081720Y0022467D01*
G01*
X0080986Y0021733D02*
G01*
X0082454Y0021733D01*
G01*
X0084726Y0027048D02*
G01*
X0086194Y0027048D01*
G01*
X0085827Y0028899D02*
G01*
X0085093Y0028899D01*
G01*
X0085093Y0028899D02*
G01*
X0084726Y0029266D01*
G01*
X0084726Y0029266D02*
G01*
X0084726Y0030734D01*
G01*
X0084726Y0030734D02*
G01*
X0085093Y0031101D01*
G01*
X0085093Y0031101D02*
G01*
X0085827Y0031101D01*
G01*
X0085827Y0031101D02*
G01*
X0086194Y0030734D01*
G01*
X0086194Y0030000D02*
G01*
X0085460Y0030000D01*
G01*
X0086194Y0030000D02*
G01*
X0086194Y0029266D01*
G01*
X0086194Y0029266D02*
G01*
X0085827Y0028899D01*
G01*
X0091222Y0032586D02*
G01*
X0091956Y0031852D01*
G01*
X0091956Y0031852D02*
G01*
X0092690Y0032586D01*
G01*
X0092690Y0032586D02*
G01*
X0092690Y0034054D01*
G01*
X0093432Y0033320D02*
G01*
X0093799Y0033320D01*
G01*
X0093799Y0033320D02*
G01*
X0093799Y0031852D01*
G01*
X0093432Y0031852D02*
G01*
X0094166Y0031852D01*
G01*
X0093799Y0034054D02*
G01*
X0093799Y0034421D01*
G01*
X0091222Y0034054D02*
G01*
X0091222Y0032586D01*
D11*
G01*
X0101120Y0022500D02*
G01*
X0101361Y0022500D01*
D27*
G01*
X0098406Y0011949D02*
G01*
X0086595Y0011949D01*
G01*
X0086595Y0011949D02*
G01*
X0086595Y0027697D01*
G01*
X0086595Y0027697D02*
G01*
X0098406Y0027697D01*
G01*
X0098406Y0027697D02*
G01*
X0098406Y0011949D01*
X0080000Y0045000D02*
D15*
G01*
X0081720Y0055999D02*
G01*
X0081720Y0057467D01*
G01*
X0080986Y0056733D02*
G01*
X0082454Y0056733D01*
G01*
X0084726Y0062048D02*
G01*
X0086194Y0062048D01*
G01*
X0085827Y0063899D02*
G01*
X0085093Y0063899D01*
G01*
X0085093Y0063899D02*
G01*
X0084726Y0064266D01*
G01*
X0084726Y0064266D02*
G01*
X0084726Y0065734D01*
G01*
X0084726Y0065734D02*
G01*
X0085093Y0066101D01*
G01*
X0085093Y0066101D02*
G01*
X0085827Y0066101D01*
G01*
X0085827Y0066101D02*
G01*
X0086194Y0065734D01*
G01*
X0086194Y0065000D02*
G01*
X0085460Y0065000D01*
G01*
X0086194Y0065000D02*
G01*
X0086194Y0064266D01*
G01*
X0086194Y0064266D02*
G01*
X0085827Y0063899D01*
G01*
X0091222Y0067586D02*
G01*
X0091956Y0066852D01*
G01*
X0091956Y0066852D02*
G01*
X0092690Y0067586D01*
G01*
X0092690Y0067586D02*
G01*
X0092690Y0069054D01*
G01*
X0093432Y0068320D02*
G01*
X0093799Y0068320D01*
G01*
X0093799Y0068320D02*
G01*
X0093799Y0066852D01*
G01*
X0093432Y0066852D02*
G01*
X0094166Y0066852D01*
G01*
X0093799Y0069054D02*
G01*
X0093799Y0069421D01*
G01*
X0091222Y0069054D02*
G01*
X0091222Y0067586D01*
D11*
G01*
X0101120Y0057500D02*
G01*
X0101361Y0057500D01*
D27*
G01*
X0098406Y0046949D02*
G01*
X0086595Y0046949D01*
G01*
X0086595Y0046949D02*
G01*
X0086595Y0062697D01*
G01*
X0086595Y0062697D02*
G01*
X0098406Y0062697D01*
G01*
X0098406Y0062697D02*
G01*
X0098406Y0046949D01*
X0080000Y0080000D02*
D15*
G01*
X0081720Y0090999D02*
G01*
X0081720Y0092467D01*
G01*
X0080986Y0091733D02*
G01*
X0082454Y0091733D01*
G01*
X0084726Y0097048D02*
G01*
X0086194Y0097048D01*
G01*
X0085827Y0098899D02*
G01*
X0085093Y0098899D01*
G01*
X0085093Y0098899D02*
G01*
X0084726Y0099266D01*
G01*
X0084726Y0099266D02*
G01*
X0084726Y0100734D01*
G01*
X0084726Y0100734D02*
G01*
X0085093Y0101101D01*
G01*
X0085093Y0101101D02*
G01*
X0085827Y0101101D01*
G01*
X0085827Y0101101D02*
G01*
X0086194Y0100734D01*
G01*
X0086194Y0100000D02*
G01*
X0085460Y0100000D01*
G01*
X0086194Y0100000D02*
G01*
X0086194Y0099266D01*
G01*
X0086194Y0099266D02*
G01*
X0085827Y0098899D01*
G01*
X0091222Y0102586D02*
G01*
X0091956Y0101852D01*
G01*
X0091956Y0101852D02*
G01*
X0092690Y0102586D01*
G01*
X0092690Y0102586D02*
G01*
X0092690Y0104054D01*
G01*
X0093432Y0103320D02*
G01*
X0093799Y0103320D01*
G01*
X0093799Y0103320D02*
G01*
X0093799Y0101852D01*
G01*
X0093432Y0101852D02*
G01*
X0094166Y0101852D01*
G01*
X0093799Y0104054D02*
G01*
X0093799Y0104421D01*
G01*
X0091222Y0104054D02*
G01*
X0091222Y0102586D01*
D11*
G01*
X0101120Y0092500D02*
G01*
X0101361Y0092500D01*
D27*
G01*
X0098406Y0081949D02*
G01*
X0086595Y0081949D01*
G01*
X0086595Y0081949D02*
G01*
X0086595Y0097697D01*
G01*
X0086595Y0097697D02*
G01*
X0098406Y0097697D01*
G01*
X0098406Y0097697D02*
G01*
X0098406Y0081949D01*
X0115000Y0010000D02*
D15*
G01*
X0116720Y0020999D02*
G01*
X0116720Y0022467D01*
G01*
X0115986Y0021733D02*
G01*
X0117454Y0021733D01*
G01*
X0119726Y0027048D02*
G01*
X0121194Y0027048D01*
G01*
X0120827Y0028899D02*
G01*
X0120093Y0028899D01*
G01*
X0120093Y0028899D02*
G01*
X0119726Y0029266D01*
G01*
X0119726Y0029266D02*
G01*
X0119726Y0030734D01*
G01*
X0119726Y0030734D02*
G01*
X0120093Y0031101D01*
G01*
X0120093Y0031101D02*
G01*
X0120827Y0031101D01*
G01*
X0120827Y0031101D02*
G01*
X0121194Y0030734D01*
G01*
X0121194Y0030000D02*
G01*
X0120460Y0030000D01*
G01*
X0121194Y0030000D02*
G01*
X0121194Y0029266D01*
G01*
X0121194Y0029266D02*
G01*
X0120827Y0028899D01*
G01*
X0126222Y0032586D02*
G01*
X0126956Y0031852D01*
G01*
X0126956Y0031852D02*
G01*
X0127690Y0032586D01*
G01*
X0127690Y0032586D02*
G01*
X0127690Y0034054D01*
G01*
X0128432Y0033320D02*
G01*
X0128799Y0033320D01*
G01*
X0128799Y0033320D02*
G01*
X0128799Y0031852D01*
G01*
X0128432Y0031852D02*
G01*
X0129166Y0031852D01*
G01*
X0128799Y0034054D02*
G01*
X0128799Y0034421D01*
G01*
X0126222Y0034054D02*
G01*
X0126222Y0032586D01*
D11*
G01*
X0136120Y0022500D02*
G01*
X0136361Y0022500D01*
D27*
G01*
X0133406Y0011949D02*
G01*
X0121595Y0011949D01*
G01*
X0121595Y0011949D02*
G01*
X0121595Y0027697D01*
G01*
X0121595Y0027697D02*
G01*
X0133406Y0027697D01*
G01*
X0133406Y0027697D02*
G01*
X0133406Y0011949D01*
X0115000Y0045000D02*
D15*
G01*
X0116720Y0055999D02*
G01*
X0116720Y0057467D01*
G01*
X0115986Y0056733D02*
G01*
X0117454Y0056733D01*
G01*
X0119726Y0062048D02*
G01*
X0121194Y0062048D01*
G01*
X0120827Y0063899D02*
G01*
X0120093Y0063899D01*
G01*
X0120093Y0063899D02*
G01*
X0119726Y0064266D01*
G01*
X0119726Y0064266D02*
G01*
X0119726Y0065734D01*
G01*
X0119726Y0065734D02*
G01*
X0120093Y0066101D01*
G01*
X0120093Y0066101D02*
G01*
X0120827Y0066101D01*
G01*
X0120827Y0066101D02*
G01*
X0121194Y0065734D01*
G01*
X0121194Y0065000D02*
G01*
X0120460Y0065000D01*
G01*
X0121194Y0065000D02*
G01*
X0121194Y0064266D01*
G01*
X0121194Y0064266D02*
G01*
X0120827Y0063899D01*
G01*
X0126222Y0067586D02*
G01*
X0126956Y0066852D01*
G01*
X0126956Y0066852D02*
G01*
X0127690Y0067586D01*
G01*
X0127690Y0067586D02*
G01*
X0127690Y0069054D01*
G01*
X0128432Y0068320D02*
G01*
X0128799Y0068320D01*
G01*
X0128799Y0068320D02*
G01*
X0128799Y0066852D01*
G01*
X0128432Y0066852D02*
G01*
X0129166Y0066852D01*
G01*
X0128799Y0069054D02*
G01*
X0128799Y0069421D01*
G01*
X0126222Y0069054D02*
G01*
X0126222Y0067586D01*
D11*
G01*
X0136120Y0057500D02*
G01*
X0136361Y0057500D01*
D27*
G01*
X0133406Y0046949D02*
G01*
X0121595Y0046949D01*
G01*
X0121595Y0046949D02*
G01*
X0121595Y0062697D01*
G01*
X0121595Y0062697D02*
G01*
X0133406Y0062697D01*
G01*
X0133406Y0062697D02*
G01*
X0133406Y0046949D01*
X0115000Y0080000D02*
D15*
G01*
X0116720Y0090999D02*
G01*
X0116720Y0092467D01*
G01*
X0115986Y0091733D02*
G01*
X0117454Y0091733D01*
G01*
X0119726Y0097048D02*
G01*
X0121194Y0097048D01*
G01*
X0120827Y0098899D02*
G01*
X0120093Y0098899D01*
G01*
X0120093Y0098899D02*
G01*
X0119726Y0099266D01*
G01*
X0119726Y0099266D02*
G01*
X0119726Y0100734D01*
G01*
X0119726Y0100734D02*
G01*
X0120093Y0101101D01*
G01*
X0120093Y0101101D02*
G01*
X0120827Y0101101D01*
G01*
X0120827Y0101101D02*
G01*
X0121194Y0100734D01*
G01*
X0121194Y0100000D02*
G01*
X0120460Y0100000D01*
G01*
X0121194Y0100000D02*
G01*
X0121194Y0099266D01*
G01*
X0121194Y0099266D02*
G01*
X0120827Y0098899D01*
G01*
X0126222Y0102586D02*
G01*
X0126956Y0101852D01*
G01*
X0126956Y0101852D02*
G01*
X0127690Y0102586D01*
G01*
X0127690Y0102586D02*
G01*
X0127690Y0104054D01*
G01*
X0128432Y0103320D02*
G01*
X0128799Y0103320D01*
G01*
X0128799Y0103320D02*
G01*
X0128799Y0101852D01*
G01*
X0128432Y0101852D02*
G01*
X0129166Y0101852D01*
G01*
X0128799Y0104054D02*
G01*
X0128799Y0104421D01*
G01*
X0126222Y0104054D02*
G01*
X0126222Y0102586D01*
D11*
G01*
X0136120Y0092500D02*
G01*
X0136361Y0092500D01*
D27*
G01*
X0133406Y0081949D02*
G01*
X0121595Y0081949D01*
G01*
X0121595Y0081949D02*
G01*
X0121595Y0097697D01*
G01*
X0121595Y0097697D02*
G01*
X0133406Y0097697D01*
G01*
X0133406Y0097697D02*
G01*
X0133406Y0081949D01*
X0150000Y0010000D02*
D15*
G01*
X0151720Y0020999D02*
G01*
X0151720Y0022467D01*
G01*
X0150986Y0021733D02*
G01*
X0152454Y0021733D01*
G01*
X0154726Y0027048D02*
G01*
X0156194Y0027048D01*
G01*
X0155827Y0028899D02*
G01*
X0155093Y0028899D01*
G01*
X0155093Y0028899D02*
G01*
X0154726Y0029266D01*
G01*
X0154726Y0029266D02*
G01*
X0154726Y0030734D01*
G01*
X0154726Y0030734D02*
G01*
X0155093Y0031101D01*
G01*
X0155093Y0031101D02*
G01*
X0155827Y0031101D01*
G01*
X0155827Y0031101D02*
G01*
X0156194Y0030734D01*
G01*
X0156194Y0030000D02*
G01*
X0155460Y0030000D01*
G01*
X0156194Y0030000D02*
G01*
X0156194Y0029266D01*
G01*
X0156194Y0029266D02*
G01*
X0155827Y0028899D01*
G01*
X0161222Y0032586D02*
G01*
X0161956Y0031852D01*
G01*
X0161956Y0031852D02*
G01*
X0162690Y0032586D01*
G01*
X0162690Y0032586D02*
G01*
X0162690Y0034054D01*
G01*
X0163432Y0033320D02*
G01*
X0163799Y0033320D01*
G01*
X0163799Y0033320D02*
G01*
X0163799Y0031852D01*
G01*
X0163432Y0031852D02*
G01*
X0164166Y0031852D01*
G01*
X0163799Y0034054D02*
G01*
X0163799Y0034421D01*
G01*
X0161222Y0034054D02*
G01*
X0161222Y0032586D01*
D11*
G01*
X0171120Y0022500D02*
G01*
X0171361Y0022500D01*
D27*
G01*
X0168406Y0011949D02*
G01*
X0156595Y0011949D01*
G01*
X0156595Y0011949D02*
G01*
X0156595Y0027697D01*
G01*
X0156595Y0027697D02*
G01*
X0168406Y0027697D01*
G01*
X0168406Y0027697D02*
G01*
X0168406Y0011949D01*
X0150000Y0045000D02*
D15*
G01*
X0151720Y0055999D02*
G01*
X0151720Y0057467D01*
G01*
X0150986Y0056733D02*
G01*
X0152454Y0056733D01*
G01*
X0154726Y0062048D02*
G01*
X0156194Y0062048D01*
G01*
X0155827Y0063899D02*
G01*
X0155093Y0063899D01*
G01*
X0155093Y0063899D02*
G01*
X0154726Y0064266D01*
G01*
X0154726Y0064266D02*
G01*
X0154726Y0065734D01*
G01*
X0154726Y0065734D02*
G01*
X0155093Y0066101D01*
G01*
X0155093Y0066101D02*
G01*
X0155827Y0066101D01*
G01*
X0155827Y0066101D02*
G01*
X0156194Y0065734D01*
G01*
X0156194Y0065000D02*
G01*
X0155460Y0065000D01*
G01*
X0156194Y0065000D02*
G01*
X0156194Y0064266D01*
G01*
X0156194Y0064266D02*
G01*
X0155827Y0063899D01*
G01*
X0161222Y0067586D02*
G01*
X0161956Y0066852D01*
G01*
X0161956Y0066852D02*
G01*
X0162690Y0067586D01*
G01*
X0162690Y0067586D02*
G01*
X0162690Y0069054D01*
G01*
X0163432Y0068320D02*
G01*
X0163799Y0068320D01*
G01*
X0163799Y0068320D02*
G01*
X0163799Y0066852D01*
G01*
X0163432Y0066852D02*
G01*
X0164166Y0066852D01*
G01*
X0163799Y0069054D02*
G01*
X0163799Y0069421D01*
G01*
X0161222Y0069054D02*
G01*
X0161222Y0067586D01*
D11*
G01*
X0171120Y0057500D02*
G01*
X0171361Y0057500D01*
D27*
G01*
X0168406Y0046949D02*
G01*
X0156595Y0046949D01*
G01*
X0156595Y0046949D02*
G01*
X0156595Y0062697D01*
G01*
X0156595Y0062697D02*
G01*
X0168406Y0062697D01*
G01*
X0168406Y0062697D02*
G01*
X0168406Y0046949D01*
X0150000Y0080000D02*
D15*
G01*
X0151720Y0090999D02*
G01*
X0151720Y0092467D01*
G01*
X0150986Y0091733D02*
G01*
X0152454Y0091733D01*
G01*
X0154726Y0097048D02*
G01*
X0156194Y0097048D01*
G01*
X0155827Y0098899D02*
G01*
X0155093Y0098899D01*
G01*
X0155093Y0098899D02*
G01*
X0154726Y0099266D01*
G01*
X0154726Y0099266D02*
G01*
X0154726Y0100734D01*
G01*
X0154726Y0100734D02*
G01*
X0155093Y0101101D01*
G01*
X0155093Y0101101D02*
G01*
X0155827Y0101101D01*
G01*
X0155827Y0101101D02*
G01*
X0156194Y0100734D01*
G01*
X0156194Y0100000D02*
G01*
X0155460Y0100000D01*
G01*
X0156194Y0100000D02*
G01*
X0156194Y0099266D01*
G01*
X0156194Y0099266D02*
G01*
X0155827Y0098899D01*
G01*
X0161222Y0102586D02*
G01*
X0161956Y0101852D01*
G01*
X0161956Y0101852D02*
G01*
X0162690Y0102586D01*
G01*
X0162690Y0102586D02*
G01*
X0162690Y0104054D01*
G01*
X0163432Y0103320D02*
G01*
X0163799Y0103320D01*
G01*
X0163799Y0103320D02*
G01*
X0163799Y0101852D01*
G01*
X0163432Y0101852D02*
G01*
X0164166Y0101852D01*
G01*
X0163799Y0104054D02*
G01*
X0163799Y0104421D01*
G01*
X0161222Y0104054D02*
G01*
X0161222Y0102586D01*
D11*
G01*
X0171120Y0092500D02*
G01*
X0171361Y0092500D01*
D27*
G01*
X0168406Y0081949D02*
G01*
X0156595Y0081949D01*
G01*
X0156595Y0081949D02*
G01*
X0156595Y0097697D01*
G01*
X0156595Y0097697D02*
G01*
X0168406Y0097697D01*
G01*
X0168406Y0097697D02*
G01*
X0168406Y0081949D01*
M02*
