G75*
G70*
%OFA0B0*%
%FSLAX25Y25*%
%IPPOS*%
%LPD*%
%AMOC8*
5,1,8,0,0,1.08239X$1,22.5*
%
%ADD12C,0.01200*%
%ADD14C,0.02190*%
%ADD18C,0.00600*%
%ADD26C,0.03940*%
%ADD29C,0.08560*%
X0010000Y0010000D02*
D26*
G01*
X0013642Y0018760D03*
G01*
X0013642Y0024469D03*
G01*
X0019351Y0030768D03*
G01*
X0025847Y0030768D03*
D29*
G01*
X0022500Y0022500D03*
D18*
G01*
X0015231Y0014851D02*
G01*
X0029770Y0014851D01*
G01*
X0030368Y0015450D02*
G01*
X0014632Y0015450D01*
G01*
X0014356Y0015727D02*
G01*
X0015384Y0016153D01*
G01*
X0015384Y0016153D02*
G01*
X0016249Y0017018D01*
G01*
X0016249Y0017018D02*
G01*
X0016718Y0018148D01*
G01*
X0016718Y0018148D02*
G01*
X0016718Y0019372D01*
G01*
X0016718Y0019372D02*
G01*
X0016249Y0020502D01*
G01*
X0016249Y0020502D02*
G01*
X0015384Y0021367D01*
G01*
X0015384Y0021367D02*
G01*
X0014788Y0021614D01*
G01*
X0014788Y0021614D02*
G01*
X0015384Y0021861D01*
G01*
X0015384Y0021861D02*
G01*
X0016249Y0022726D01*
G01*
X0016249Y0022726D02*
G01*
X0016718Y0023857D01*
G01*
X0016718Y0023857D02*
G01*
X0016718Y0025080D01*
G01*
X0016718Y0025080D02*
G01*
X0016249Y0026211D01*
G01*
X0016249Y0026211D02*
G01*
X0015384Y0027076D01*
G01*
X0015384Y0027076D02*
G01*
X0014254Y0027544D01*
G01*
X0014254Y0027544D02*
G01*
X0013231Y0027544D01*
G01*
X0013231Y0027544D02*
G01*
X0013860Y0028778D01*
G01*
X0013860Y0028778D02*
G01*
X0016140Y0031058D01*
G01*
X0016140Y0031058D02*
G01*
X0019060Y0031058D01*
G01*
X0019060Y0031058D02*
G01*
X0019060Y0030477D01*
G01*
X0019060Y0030477D02*
G01*
X0019641Y0030477D01*
G01*
X0019641Y0030477D02*
G01*
X0019641Y0027499D01*
G01*
X0019641Y0027499D02*
G01*
X0019673Y0027499D01*
G01*
X0019673Y0027499D02*
G01*
X0020238Y0027612D01*
G01*
X0020238Y0027612D02*
G01*
X0019575Y0027274D01*
G01*
X0019575Y0027274D02*
G01*
X0018864Y0026758D01*
G01*
X0018864Y0026758D02*
G01*
X0018243Y0026136D01*
G01*
X0018243Y0026136D02*
G01*
X0017727Y0025426D01*
G01*
X0017727Y0025426D02*
G01*
X0017328Y0024643D01*
G01*
X0017328Y0024643D02*
G01*
X0017056Y0023807D01*
G01*
X0017056Y0023807D02*
G01*
X0016919Y0022939D01*
G01*
X0016919Y0022939D02*
G01*
X0016919Y0022800D01*
G01*
X0016919Y0022800D02*
G01*
X0022200Y0022800D01*
G01*
X0022200Y0022800D02*
G01*
X0022200Y0022200D01*
G01*
X0022200Y0022200D02*
G01*
X0016919Y0022200D01*
G01*
X0016919Y0022200D02*
G01*
X0016919Y0022061D01*
G01*
X0016919Y0022061D02*
G01*
X0017056Y0021193D01*
G01*
X0017056Y0021193D02*
G01*
X0017328Y0020358D01*
G01*
X0017328Y0020358D02*
G01*
X0017727Y0019575D01*
G01*
X0017727Y0019575D02*
G01*
X0018243Y0018864D01*
G01*
X0018243Y0018864D02*
G01*
X0018864Y0018243D01*
G01*
X0018864Y0018243D02*
G01*
X0019575Y0017726D01*
G01*
X0019575Y0017726D02*
G01*
X0020358Y0017328D01*
G01*
X0020358Y0017328D02*
G01*
X0021193Y0017056D01*
G01*
X0021193Y0017056D02*
G01*
X0022061Y0016919D01*
G01*
X0022061Y0016919D02*
G01*
X0022200Y0016919D01*
G01*
X0022200Y0016919D02*
G01*
X0022200Y0022200D01*
G01*
X0022200Y0022200D02*
G01*
X0022800Y0022200D01*
G01*
X0022800Y0022200D02*
G01*
X0022800Y0016919D01*
G01*
X0022800Y0016919D02*
G01*
X0022940Y0016919D01*
G01*
X0022940Y0016919D02*
G01*
X0023807Y0017056D01*
G01*
X0023807Y0017056D02*
G01*
X0024643Y0017328D01*
G01*
X0024643Y0017328D02*
G01*
X0025426Y0017726D01*
G01*
X0025426Y0017726D02*
G01*
X0026136Y0018243D01*
G01*
X0026136Y0018243D02*
G01*
X0026758Y0018864D01*
G01*
X0026758Y0018864D02*
G01*
X0027274Y0019575D01*
G01*
X0027274Y0019575D02*
G01*
X0027673Y0020358D01*
G01*
X0027673Y0020358D02*
G01*
X0027944Y0021193D01*
G01*
X0027944Y0021193D02*
G01*
X0028082Y0022061D01*
G01*
X0028082Y0022061D02*
G01*
X0028082Y0022200D01*
G01*
X0028082Y0022200D02*
G01*
X0022800Y0022200D01*
G01*
X0022800Y0022200D02*
G01*
X0022800Y0022800D01*
G01*
X0022800Y0022800D02*
G01*
X0022200Y0022800D01*
G01*
X0022200Y0022800D02*
G01*
X0022200Y0028082D01*
G01*
X0022200Y0028082D02*
G01*
X0022061Y0028082D01*
G01*
X0022061Y0028082D02*
G01*
X0021193Y0027944D01*
G01*
X0021193Y0027944D02*
G01*
X0020643Y0027766D01*
G01*
X0020643Y0027766D02*
G01*
X0020899Y0027871D01*
G01*
X0020899Y0027871D02*
G01*
X0021434Y0028229D01*
G01*
X0021434Y0028229D02*
G01*
X0021889Y0028684D01*
G01*
X0021889Y0028684D02*
G01*
X0022247Y0029220D01*
G01*
X0022247Y0029220D02*
G01*
X0022494Y0029815D01*
G01*
X0022494Y0029815D02*
G01*
X0022619Y0030446D01*
G01*
X0022619Y0030446D02*
G01*
X0022619Y0030477D01*
G01*
X0022619Y0030477D02*
G01*
X0019641Y0030477D01*
G01*
X0019641Y0030477D02*
G01*
X0019641Y0031058D01*
G01*
X0019641Y0031058D02*
G01*
X0022619Y0031058D01*
G01*
X0022619Y0031058D02*
G01*
X0022619Y0031090D01*
G01*
X0022619Y0031090D02*
G01*
X0022494Y0031721D01*
G01*
X0022494Y0031721D02*
G01*
X0022247Y0032316D01*
G01*
X0022247Y0032316D02*
G01*
X0021889Y0032851D01*
G01*
X0021889Y0032851D02*
G01*
X0021689Y0033052D01*
G01*
X0021689Y0033052D02*
G01*
X0022500Y0033180D01*
G01*
X0022500Y0033180D02*
G01*
X0023717Y0032988D01*
G01*
X0023717Y0032988D02*
G01*
X0023239Y0032510D01*
G01*
X0023239Y0032510D02*
G01*
X0022771Y0031380D01*
G01*
X0022771Y0031380D02*
G01*
X0022771Y0030156D01*
G01*
X0022771Y0030156D02*
G01*
X0023239Y0029026D01*
G01*
X0023239Y0029026D02*
G01*
X0024105Y0028161D01*
G01*
X0024105Y0028161D02*
G01*
X0025235Y0027692D01*
G01*
X0025235Y0027692D02*
G01*
X0026459Y0027692D01*
G01*
X0026459Y0027692D02*
G01*
X0027589Y0028161D01*
G01*
X0027589Y0028161D02*
G01*
X0028454Y0029026D01*
G01*
X0028454Y0029026D02*
G01*
X0028922Y0030156D01*
G01*
X0028922Y0030156D02*
G01*
X0028922Y0030996D01*
G01*
X0028922Y0030996D02*
G01*
X0031141Y0028778D01*
G01*
X0031141Y0028778D02*
G01*
X0032658Y0025801D01*
G01*
X0032658Y0025801D02*
G01*
X0033181Y0022500D01*
G01*
X0033181Y0022500D02*
G01*
X0032658Y0019200D01*
G01*
X0032658Y0019200D02*
G01*
X0031141Y0016222D01*
G01*
X0031141Y0016222D02*
G01*
X0031141Y0016222D01*
G01*
X0031141Y0016222D02*
G01*
X0028778Y0013860D01*
G01*
X0028778Y0013860D02*
G01*
X0025801Y0012343D01*
G01*
X0025801Y0012343D02*
G01*
X0022500Y0011820D01*
G01*
X0022500Y0011820D02*
G01*
X0019200Y0012343D01*
G01*
X0019200Y0012343D02*
G01*
X0016223Y0013860D01*
G01*
X0016223Y0013860D02*
G01*
X0014356Y0015727D01*
G01*
X0015132Y0016048D02*
G01*
X0030967Y0016048D01*
G01*
X0031357Y0016647D02*
G01*
X0015878Y0016647D01*
G01*
X0016344Y0017245D02*
G01*
X0020611Y0017245D01*
G01*
X0019413Y0017844D02*
G01*
X0016591Y0017844D01*
G01*
X0016718Y0018442D02*
G01*
X0018665Y0018442D01*
G01*
X0018115Y0019041D02*
G01*
X0016718Y0019041D01*
G01*
X0016607Y0019639D02*
G01*
X0017694Y0019639D01*
G01*
X0017389Y0020238D02*
G01*
X0016359Y0020238D01*
G01*
X0015915Y0020836D02*
G01*
X0017172Y0020836D01*
G01*
X0017018Y0021435D02*
G01*
X0015221Y0021435D01*
G01*
X0015556Y0022033D02*
G01*
X0016923Y0022033D01*
G01*
X0016155Y0022632D02*
G01*
X0022200Y0022632D01*
G01*
X0022200Y0023230D02*
G01*
X0022800Y0023230D01*
G01*
X0022800Y0022800D02*
G01*
X0022800Y0028082D01*
G01*
X0022800Y0028082D02*
G01*
X0022940Y0028082D01*
G01*
X0022940Y0028082D02*
G01*
X0023807Y0027944D01*
G01*
X0023807Y0027944D02*
G01*
X0024643Y0027673D01*
G01*
X0024643Y0027673D02*
G01*
X0025426Y0027274D01*
G01*
X0025426Y0027274D02*
G01*
X0026136Y0026758D01*
G01*
X0026136Y0026758D02*
G01*
X0026758Y0026136D01*
G01*
X0026758Y0026136D02*
G01*
X0027274Y0025426D01*
G01*
X0027274Y0025426D02*
G01*
X0027673Y0024643D01*
G01*
X0027673Y0024643D02*
G01*
X0027944Y0023807D01*
G01*
X0027944Y0023807D02*
G01*
X0028082Y0022939D01*
G01*
X0028082Y0022939D02*
G01*
X0028082Y0022800D01*
G01*
X0028082Y0022800D02*
G01*
X0022800Y0022800D01*
G01*
X0022800Y0022632D02*
G01*
X0033160Y0022632D01*
G01*
X0033107Y0022033D02*
G01*
X0028077Y0022033D01*
G01*
X0027983Y0021435D02*
G01*
X0033012Y0021435D01*
G01*
X0032917Y0020836D02*
G01*
X0027828Y0020836D01*
G01*
X0027612Y0020238D02*
G01*
X0032822Y0020238D01*
G01*
X0032728Y0019639D02*
G01*
X0027307Y0019639D01*
G01*
X0026886Y0019041D02*
G01*
X0032577Y0019041D01*
G01*
X0032658Y0019200D02*
G01*
X0032658Y0019200D01*
G01*
X0032272Y0018442D02*
G01*
X0026336Y0018442D01*
G01*
X0025587Y0017844D02*
G01*
X0031967Y0017844D01*
G01*
X0031662Y0017245D02*
G01*
X0024389Y0017245D01*
G01*
X0022800Y0017245D02*
G01*
X0022200Y0017245D01*
G01*
X0022200Y0017844D02*
G01*
X0022800Y0017844D01*
G01*
X0022800Y0018442D02*
G01*
X0022200Y0018442D01*
G01*
X0022200Y0019041D02*
G01*
X0022800Y0019041D01*
G01*
X0022800Y0019639D02*
G01*
X0022200Y0019639D01*
G01*
X0022200Y0020238D02*
G01*
X0022800Y0020238D01*
G01*
X0022800Y0020836D02*
G01*
X0022200Y0020836D01*
G01*
X0022200Y0021435D02*
G01*
X0022800Y0021435D01*
G01*
X0022800Y0022033D02*
G01*
X0022200Y0022033D01*
G01*
X0022200Y0023829D02*
G01*
X0022800Y0023829D01*
G01*
X0022800Y0024427D02*
G01*
X0022200Y0024427D01*
G01*
X0022200Y0025026D02*
G01*
X0022800Y0025026D01*
G01*
X0022800Y0025624D02*
G01*
X0022200Y0025624D01*
G01*
X0022200Y0026223D02*
G01*
X0022800Y0026223D01*
G01*
X0022800Y0026821D02*
G01*
X0022200Y0026821D01*
G01*
X0022200Y0027420D02*
G01*
X0022800Y0027420D01*
G01*
X0022800Y0028018D02*
G01*
X0022200Y0028018D01*
G01*
X0021662Y0028018D02*
G01*
X0021119Y0028018D01*
G01*
X0021822Y0028617D02*
G01*
X0023648Y0028617D01*
G01*
X0023339Y0028018D02*
G01*
X0024448Y0028018D01*
G01*
X0025139Y0027420D02*
G01*
X0031833Y0027420D01*
G01*
X0032138Y0026821D02*
G01*
X0026048Y0026821D01*
G01*
X0026671Y0026223D02*
G01*
X0032443Y0026223D01*
G01*
X0032686Y0025624D02*
G01*
X0027130Y0025624D01*
G01*
X0027478Y0025026D02*
G01*
X0032781Y0025026D01*
G01*
X0032875Y0024427D02*
G01*
X0027743Y0024427D01*
G01*
X0027937Y0023829D02*
G01*
X0032970Y0023829D01*
G01*
X0033065Y0023230D02*
G01*
X0028036Y0023230D01*
G01*
X0027246Y0028018D02*
G01*
X0031528Y0028018D01*
G01*
X0031223Y0028617D02*
G01*
X0028045Y0028617D01*
G01*
X0028533Y0029215D02*
G01*
X0030703Y0029215D01*
G01*
X0030105Y0029814D02*
G01*
X0028781Y0029814D01*
G01*
X0028922Y0030412D02*
G01*
X0029506Y0030412D01*
G01*
X0023536Y0032807D02*
G01*
X0021919Y0032807D01*
G01*
X0022292Y0032208D02*
G01*
X0023114Y0032208D01*
G01*
X0022866Y0031610D02*
G01*
X0022516Y0031610D01*
G01*
X0022771Y0031011D02*
G01*
X0019641Y0031011D01*
G01*
X0019060Y0031011D02*
G01*
X0016093Y0031011D01*
G01*
X0016082Y0030477D02*
G01*
X0016082Y0030446D01*
G01*
X0016082Y0030446D02*
G01*
X0016208Y0029815D01*
G01*
X0016208Y0029815D02*
G01*
X0016454Y0029220D01*
G01*
X0016454Y0029220D02*
G01*
X0016812Y0028684D01*
G01*
X0016812Y0028684D02*
G01*
X0017267Y0028229D01*
G01*
X0017267Y0028229D02*
G01*
X0017802Y0027871D01*
G01*
X0017802Y0027871D02*
G01*
X0018397Y0027625D01*
G01*
X0018397Y0027625D02*
G01*
X0019029Y0027499D01*
G01*
X0019029Y0027499D02*
G01*
X0019060Y0027499D01*
G01*
X0019060Y0027499D02*
G01*
X0019060Y0030477D01*
G01*
X0019060Y0030477D02*
G01*
X0016082Y0030477D01*
G01*
X0016089Y0030412D02*
G01*
X0015494Y0030412D01*
G01*
X0014896Y0029814D02*
G01*
X0016208Y0029814D01*
G01*
X0016457Y0029215D02*
G01*
X0014297Y0029215D01*
G01*
X0013778Y0028617D02*
G01*
X0016879Y0028617D01*
G01*
X0017582Y0028018D02*
G01*
X0013473Y0028018D01*
G01*
X0014554Y0027420D02*
G01*
X0019862Y0027420D01*
G01*
X0019641Y0028018D02*
G01*
X0019060Y0028018D01*
G01*
X0019060Y0028617D02*
G01*
X0019641Y0028617D01*
G01*
X0019641Y0029215D02*
G01*
X0019060Y0029215D01*
G01*
X0019060Y0029814D02*
G01*
X0019641Y0029814D01*
G01*
X0019641Y0030412D02*
G01*
X0019060Y0030412D01*
G01*
X0022244Y0029215D02*
G01*
X0023161Y0029215D01*
G01*
X0022913Y0029814D02*
G01*
X0022493Y0029814D01*
G01*
X0022613Y0030412D02*
G01*
X0022771Y0030412D01*
G01*
X0018952Y0026821D02*
G01*
X0015639Y0026821D01*
G01*
X0016237Y0026223D02*
G01*
X0018330Y0026223D01*
G01*
X0017871Y0025624D02*
G01*
X0016492Y0025624D01*
G01*
X0016718Y0025026D02*
G01*
X0017523Y0025026D01*
G01*
X0017258Y0024427D02*
G01*
X0016718Y0024427D01*
G01*
X0016706Y0023829D02*
G01*
X0017063Y0023829D01*
G01*
X0016965Y0023230D02*
G01*
X0016458Y0023230D01*
G01*
X0015829Y0014253D02*
G01*
X0029171Y0014253D01*
G01*
X0028375Y0013654D02*
G01*
X0016626Y0013654D01*
G01*
X0017800Y0013056D02*
G01*
X0027200Y0013056D01*
G01*
X0026026Y0012457D02*
G01*
X0018975Y0012457D01*
G01*
X0022255Y0011859D02*
G01*
X0022745Y0011859D01*
D14*
G01*
X0031162Y0027618D03*
D12*
G01*
X0031162Y0027618D02*
G01*
X0031162Y0022500D01*
G01*
X0031162Y0022500D02*
G01*
X0022500Y0022500D01*
X0010000Y0045000D02*
D26*
G01*
X0013642Y0053760D03*
G01*
X0013642Y0059469D03*
G01*
X0019351Y0065768D03*
G01*
X0025847Y0065768D03*
D29*
G01*
X0022500Y0057500D03*
D18*
G01*
X0015231Y0049851D02*
G01*
X0029770Y0049851D01*
G01*
X0030368Y0050450D02*
G01*
X0014632Y0050450D01*
G01*
X0014356Y0050727D02*
G01*
X0015384Y0051153D01*
G01*
X0015384Y0051153D02*
G01*
X0016249Y0052018D01*
G01*
X0016249Y0052018D02*
G01*
X0016718Y0053148D01*
G01*
X0016718Y0053148D02*
G01*
X0016718Y0054372D01*
G01*
X0016718Y0054372D02*
G01*
X0016249Y0055502D01*
G01*
X0016249Y0055502D02*
G01*
X0015384Y0056367D01*
G01*
X0015384Y0056367D02*
G01*
X0014788Y0056614D01*
G01*
X0014788Y0056614D02*
G01*
X0015384Y0056861D01*
G01*
X0015384Y0056861D02*
G01*
X0016249Y0057726D01*
G01*
X0016249Y0057726D02*
G01*
X0016718Y0058857D01*
G01*
X0016718Y0058857D02*
G01*
X0016718Y0060080D01*
G01*
X0016718Y0060080D02*
G01*
X0016249Y0061211D01*
G01*
X0016249Y0061211D02*
G01*
X0015384Y0062076D01*
G01*
X0015384Y0062076D02*
G01*
X0014254Y0062544D01*
G01*
X0014254Y0062544D02*
G01*
X0013231Y0062544D01*
G01*
X0013231Y0062544D02*
G01*
X0013860Y0063778D01*
G01*
X0013860Y0063778D02*
G01*
X0016140Y0066058D01*
G01*
X0016140Y0066058D02*
G01*
X0019060Y0066058D01*
G01*
X0019060Y0066058D02*
G01*
X0019060Y0065477D01*
G01*
X0019060Y0065477D02*
G01*
X0019641Y0065477D01*
G01*
X0019641Y0065477D02*
G01*
X0019641Y0062499D01*
G01*
X0019641Y0062499D02*
G01*
X0019673Y0062499D01*
G01*
X0019673Y0062499D02*
G01*
X0020238Y0062612D01*
G01*
X0020238Y0062612D02*
G01*
X0019575Y0062274D01*
G01*
X0019575Y0062274D02*
G01*
X0018864Y0061758D01*
G01*
X0018864Y0061758D02*
G01*
X0018243Y0061136D01*
G01*
X0018243Y0061136D02*
G01*
X0017727Y0060426D01*
G01*
X0017727Y0060426D02*
G01*
X0017328Y0059643D01*
G01*
X0017328Y0059643D02*
G01*
X0017056Y0058807D01*
G01*
X0017056Y0058807D02*
G01*
X0016919Y0057939D01*
G01*
X0016919Y0057939D02*
G01*
X0016919Y0057800D01*
G01*
X0016919Y0057800D02*
G01*
X0022200Y0057800D01*
G01*
X0022200Y0057800D02*
G01*
X0022200Y0057200D01*
G01*
X0022200Y0057200D02*
G01*
X0016919Y0057200D01*
G01*
X0016919Y0057200D02*
G01*
X0016919Y0057061D01*
G01*
X0016919Y0057061D02*
G01*
X0017056Y0056193D01*
G01*
X0017056Y0056193D02*
G01*
X0017328Y0055358D01*
G01*
X0017328Y0055358D02*
G01*
X0017727Y0054575D01*
G01*
X0017727Y0054575D02*
G01*
X0018243Y0053864D01*
G01*
X0018243Y0053864D02*
G01*
X0018864Y0053243D01*
G01*
X0018864Y0053243D02*
G01*
X0019575Y0052726D01*
G01*
X0019575Y0052726D02*
G01*
X0020358Y0052328D01*
G01*
X0020358Y0052328D02*
G01*
X0021193Y0052056D01*
G01*
X0021193Y0052056D02*
G01*
X0022061Y0051919D01*
G01*
X0022061Y0051919D02*
G01*
X0022200Y0051919D01*
G01*
X0022200Y0051919D02*
G01*
X0022200Y0057200D01*
G01*
X0022200Y0057200D02*
G01*
X0022800Y0057200D01*
G01*
X0022800Y0057200D02*
G01*
X0022800Y0051919D01*
G01*
X0022800Y0051919D02*
G01*
X0022940Y0051919D01*
G01*
X0022940Y0051919D02*
G01*
X0023807Y0052056D01*
G01*
X0023807Y0052056D02*
G01*
X0024643Y0052328D01*
G01*
X0024643Y0052328D02*
G01*
X0025426Y0052726D01*
G01*
X0025426Y0052726D02*
G01*
X0026136Y0053243D01*
G01*
X0026136Y0053243D02*
G01*
X0026758Y0053864D01*
G01*
X0026758Y0053864D02*
G01*
X0027274Y0054575D01*
G01*
X0027274Y0054575D02*
G01*
X0027673Y0055358D01*
G01*
X0027673Y0055358D02*
G01*
X0027944Y0056193D01*
G01*
X0027944Y0056193D02*
G01*
X0028082Y0057061D01*
G01*
X0028082Y0057061D02*
G01*
X0028082Y0057200D01*
G01*
X0028082Y0057200D02*
G01*
X0022800Y0057200D01*
G01*
X0022800Y0057200D02*
G01*
X0022800Y0057800D01*
G01*
X0022800Y0057800D02*
G01*
X0022200Y0057800D01*
G01*
X0022200Y0057800D02*
G01*
X0022200Y0063082D01*
G01*
X0022200Y0063082D02*
G01*
X0022061Y0063082D01*
G01*
X0022061Y0063082D02*
G01*
X0021193Y0062944D01*
G01*
X0021193Y0062944D02*
G01*
X0020643Y0062766D01*
G01*
X0020643Y0062766D02*
G01*
X0020899Y0062871D01*
G01*
X0020899Y0062871D02*
G01*
X0021434Y0063229D01*
G01*
X0021434Y0063229D02*
G01*
X0021889Y0063684D01*
G01*
X0021889Y0063684D02*
G01*
X0022247Y0064220D01*
G01*
X0022247Y0064220D02*
G01*
X0022494Y0064815D01*
G01*
X0022494Y0064815D02*
G01*
X0022619Y0065446D01*
G01*
X0022619Y0065446D02*
G01*
X0022619Y0065477D01*
G01*
X0022619Y0065477D02*
G01*
X0019641Y0065477D01*
G01*
X0019641Y0065477D02*
G01*
X0019641Y0066058D01*
G01*
X0019641Y0066058D02*
G01*
X0022619Y0066058D01*
G01*
X0022619Y0066058D02*
G01*
X0022619Y0066090D01*
G01*
X0022619Y0066090D02*
G01*
X0022494Y0066721D01*
G01*
X0022494Y0066721D02*
G01*
X0022247Y0067316D01*
G01*
X0022247Y0067316D02*
G01*
X0021889Y0067851D01*
G01*
X0021889Y0067851D02*
G01*
X0021689Y0068052D01*
G01*
X0021689Y0068052D02*
G01*
X0022500Y0068180D01*
G01*
X0022500Y0068180D02*
G01*
X0023717Y0067988D01*
G01*
X0023717Y0067988D02*
G01*
X0023239Y0067510D01*
G01*
X0023239Y0067510D02*
G01*
X0022771Y0066380D01*
G01*
X0022771Y0066380D02*
G01*
X0022771Y0065156D01*
G01*
X0022771Y0065156D02*
G01*
X0023239Y0064026D01*
G01*
X0023239Y0064026D02*
G01*
X0024105Y0063161D01*
G01*
X0024105Y0063161D02*
G01*
X0025235Y0062692D01*
G01*
X0025235Y0062692D02*
G01*
X0026459Y0062692D01*
G01*
X0026459Y0062692D02*
G01*
X0027589Y0063161D01*
G01*
X0027589Y0063161D02*
G01*
X0028454Y0064026D01*
G01*
X0028454Y0064026D02*
G01*
X0028922Y0065156D01*
G01*
X0028922Y0065156D02*
G01*
X0028922Y0065996D01*
G01*
X0028922Y0065996D02*
G01*
X0031141Y0063778D01*
G01*
X0031141Y0063778D02*
G01*
X0032658Y0060801D01*
G01*
X0032658Y0060801D02*
G01*
X0033181Y0057500D01*
G01*
X0033181Y0057500D02*
G01*
X0032658Y0054200D01*
G01*
X0032658Y0054200D02*
G01*
X0031141Y0051222D01*
G01*
X0031141Y0051222D02*
G01*
X0031141Y0051222D01*
G01*
X0031141Y0051222D02*
G01*
X0028778Y0048860D01*
G01*
X0028778Y0048860D02*
G01*
X0025801Y0047343D01*
G01*
X0025801Y0047343D02*
G01*
X0022500Y0046820D01*
G01*
X0022500Y0046820D02*
G01*
X0019200Y0047343D01*
G01*
X0019200Y0047343D02*
G01*
X0016223Y0048860D01*
G01*
X0016223Y0048860D02*
G01*
X0014356Y0050727D01*
G01*
X0015132Y0051048D02*
G01*
X0030967Y0051048D01*
G01*
X0031357Y0051647D02*
G01*
X0015878Y0051647D01*
G01*
X0016344Y0052245D02*
G01*
X0020611Y0052245D01*
G01*
X0019413Y0052844D02*
G01*
X0016591Y0052844D01*
G01*
X0016718Y0053442D02*
G01*
X0018665Y0053442D01*
G01*
X0018115Y0054041D02*
G01*
X0016718Y0054041D01*
G01*
X0016607Y0054639D02*
G01*
X0017694Y0054639D01*
G01*
X0017389Y0055238D02*
G01*
X0016359Y0055238D01*
G01*
X0015915Y0055836D02*
G01*
X0017172Y0055836D01*
G01*
X0017018Y0056435D02*
G01*
X0015221Y0056435D01*
G01*
X0015556Y0057033D02*
G01*
X0016923Y0057033D01*
G01*
X0016155Y0057632D02*
G01*
X0022200Y0057632D01*
G01*
X0022200Y0058230D02*
G01*
X0022800Y0058230D01*
G01*
X0022800Y0057800D02*
G01*
X0022800Y0063082D01*
G01*
X0022800Y0063082D02*
G01*
X0022940Y0063082D01*
G01*
X0022940Y0063082D02*
G01*
X0023807Y0062944D01*
G01*
X0023807Y0062944D02*
G01*
X0024643Y0062673D01*
G01*
X0024643Y0062673D02*
G01*
X0025426Y0062274D01*
G01*
X0025426Y0062274D02*
G01*
X0026136Y0061758D01*
G01*
X0026136Y0061758D02*
G01*
X0026758Y0061136D01*
G01*
X0026758Y0061136D02*
G01*
X0027274Y0060426D01*
G01*
X0027274Y0060426D02*
G01*
X0027673Y0059643D01*
G01*
X0027673Y0059643D02*
G01*
X0027944Y0058807D01*
G01*
X0027944Y0058807D02*
G01*
X0028082Y0057939D01*
G01*
X0028082Y0057939D02*
G01*
X0028082Y0057800D01*
G01*
X0028082Y0057800D02*
G01*
X0022800Y0057800D01*
G01*
X0022800Y0057632D02*
G01*
X0033160Y0057632D01*
G01*
X0033107Y0057033D02*
G01*
X0028077Y0057033D01*
G01*
X0027983Y0056435D02*
G01*
X0033012Y0056435D01*
G01*
X0032917Y0055836D02*
G01*
X0027828Y0055836D01*
G01*
X0027612Y0055238D02*
G01*
X0032822Y0055238D01*
G01*
X0032728Y0054639D02*
G01*
X0027307Y0054639D01*
G01*
X0026886Y0054041D02*
G01*
X0032577Y0054041D01*
G01*
X0032658Y0054200D02*
G01*
X0032658Y0054200D01*
G01*
X0032272Y0053442D02*
G01*
X0026336Y0053442D01*
G01*
X0025587Y0052844D02*
G01*
X0031967Y0052844D01*
G01*
X0031662Y0052245D02*
G01*
X0024389Y0052245D01*
G01*
X0022800Y0052245D02*
G01*
X0022200Y0052245D01*
G01*
X0022200Y0052844D02*
G01*
X0022800Y0052844D01*
G01*
X0022800Y0053442D02*
G01*
X0022200Y0053442D01*
G01*
X0022200Y0054041D02*
G01*
X0022800Y0054041D01*
G01*
X0022800Y0054639D02*
G01*
X0022200Y0054639D01*
G01*
X0022200Y0055238D02*
G01*
X0022800Y0055238D01*
G01*
X0022800Y0055836D02*
G01*
X0022200Y0055836D01*
G01*
X0022200Y0056435D02*
G01*
X0022800Y0056435D01*
G01*
X0022800Y0057033D02*
G01*
X0022200Y0057033D01*
G01*
X0022200Y0058829D02*
G01*
X0022800Y0058829D01*
G01*
X0022800Y0059427D02*
G01*
X0022200Y0059427D01*
G01*
X0022200Y0060026D02*
G01*
X0022800Y0060026D01*
G01*
X0022800Y0060624D02*
G01*
X0022200Y0060624D01*
G01*
X0022200Y0061223D02*
G01*
X0022800Y0061223D01*
G01*
X0022800Y0061821D02*
G01*
X0022200Y0061821D01*
G01*
X0022200Y0062420D02*
G01*
X0022800Y0062420D01*
G01*
X0022800Y0063018D02*
G01*
X0022200Y0063018D01*
G01*
X0021662Y0063018D02*
G01*
X0021119Y0063018D01*
G01*
X0021822Y0063617D02*
G01*
X0023648Y0063617D01*
G01*
X0023339Y0063018D02*
G01*
X0024448Y0063018D01*
G01*
X0025139Y0062420D02*
G01*
X0031833Y0062420D01*
G01*
X0032138Y0061821D02*
G01*
X0026048Y0061821D01*
G01*
X0026671Y0061223D02*
G01*
X0032443Y0061223D01*
G01*
X0032686Y0060624D02*
G01*
X0027130Y0060624D01*
G01*
X0027478Y0060026D02*
G01*
X0032781Y0060026D01*
G01*
X0032875Y0059427D02*
G01*
X0027743Y0059427D01*
G01*
X0027937Y0058829D02*
G01*
X0032970Y0058829D01*
G01*
X0033065Y0058230D02*
G01*
X0028036Y0058230D01*
G01*
X0027246Y0063018D02*
G01*
X0031528Y0063018D01*
G01*
X0031223Y0063617D02*
G01*
X0028045Y0063617D01*
G01*
X0028533Y0064215D02*
G01*
X0030703Y0064215D01*
G01*
X0030105Y0064814D02*
G01*
X0028781Y0064814D01*
G01*
X0028922Y0065412D02*
G01*
X0029506Y0065412D01*
G01*
X0023536Y0067807D02*
G01*
X0021919Y0067807D01*
G01*
X0022292Y0067208D02*
G01*
X0023114Y0067208D01*
G01*
X0022866Y0066610D02*
G01*
X0022516Y0066610D01*
G01*
X0022771Y0066011D02*
G01*
X0019641Y0066011D01*
G01*
X0019060Y0066011D02*
G01*
X0016093Y0066011D01*
G01*
X0016082Y0065477D02*
G01*
X0016082Y0065446D01*
G01*
X0016082Y0065446D02*
G01*
X0016208Y0064815D01*
G01*
X0016208Y0064815D02*
G01*
X0016454Y0064220D01*
G01*
X0016454Y0064220D02*
G01*
X0016812Y0063684D01*
G01*
X0016812Y0063684D02*
G01*
X0017267Y0063229D01*
G01*
X0017267Y0063229D02*
G01*
X0017802Y0062871D01*
G01*
X0017802Y0062871D02*
G01*
X0018397Y0062625D01*
G01*
X0018397Y0062625D02*
G01*
X0019029Y0062499D01*
G01*
X0019029Y0062499D02*
G01*
X0019060Y0062499D01*
G01*
X0019060Y0062499D02*
G01*
X0019060Y0065477D01*
G01*
X0019060Y0065477D02*
G01*
X0016082Y0065477D01*
G01*
X0016089Y0065412D02*
G01*
X0015494Y0065412D01*
G01*
X0014896Y0064814D02*
G01*
X0016208Y0064814D01*
G01*
X0016457Y0064215D02*
G01*
X0014297Y0064215D01*
G01*
X0013778Y0063617D02*
G01*
X0016879Y0063617D01*
G01*
X0017582Y0063018D02*
G01*
X0013473Y0063018D01*
G01*
X0014554Y0062420D02*
G01*
X0019862Y0062420D01*
G01*
X0019641Y0063018D02*
G01*
X0019060Y0063018D01*
G01*
X0019060Y0063617D02*
G01*
X0019641Y0063617D01*
G01*
X0019641Y0064215D02*
G01*
X0019060Y0064215D01*
G01*
X0019060Y0064814D02*
G01*
X0019641Y0064814D01*
G01*
X0019641Y0065412D02*
G01*
X0019060Y0065412D01*
G01*
X0022244Y0064215D02*
G01*
X0023161Y0064215D01*
G01*
X0022913Y0064814D02*
G01*
X0022493Y0064814D01*
G01*
X0022613Y0065412D02*
G01*
X0022771Y0065412D01*
G01*
X0018952Y0061821D02*
G01*
X0015639Y0061821D01*
G01*
X0016237Y0061223D02*
G01*
X0018330Y0061223D01*
G01*
X0017871Y0060624D02*
G01*
X0016492Y0060624D01*
G01*
X0016718Y0060026D02*
G01*
X0017523Y0060026D01*
G01*
X0017258Y0059427D02*
G01*
X0016718Y0059427D01*
G01*
X0016706Y0058829D02*
G01*
X0017063Y0058829D01*
G01*
X0016965Y0058230D02*
G01*
X0016458Y0058230D01*
G01*
X0015829Y0049253D02*
G01*
X0029171Y0049253D01*
G01*
X0028375Y0048654D02*
G01*
X0016626Y0048654D01*
G01*
X0017800Y0048056D02*
G01*
X0027200Y0048056D01*
G01*
X0026026Y0047457D02*
G01*
X0018975Y0047457D01*
G01*
X0022255Y0046859D02*
G01*
X0022745Y0046859D01*
D14*
G01*
X0031162Y0062618D03*
D12*
G01*
X0031162Y0062618D02*
G01*
X0031162Y0057500D01*
G01*
X0031162Y0057500D02*
G01*
X0022500Y0057500D01*
X0010000Y0080000D02*
D26*
G01*
X0013642Y0088760D03*
G01*
X0013642Y0094469D03*
G01*
X0019351Y0100768D03*
G01*
X0025847Y0100768D03*
D29*
G01*
X0022500Y0092500D03*
D18*
G01*
X0015231Y0084851D02*
G01*
X0029770Y0084851D01*
G01*
X0030368Y0085450D02*
G01*
X0014632Y0085450D01*
G01*
X0014356Y0085727D02*
G01*
X0015384Y0086153D01*
G01*
X0015384Y0086153D02*
G01*
X0016249Y0087018D01*
G01*
X0016249Y0087018D02*
G01*
X0016718Y0088148D01*
G01*
X0016718Y0088148D02*
G01*
X0016718Y0089372D01*
G01*
X0016718Y0089372D02*
G01*
X0016249Y0090502D01*
G01*
X0016249Y0090502D02*
G01*
X0015384Y0091367D01*
G01*
X0015384Y0091367D02*
G01*
X0014788Y0091614D01*
G01*
X0014788Y0091614D02*
G01*
X0015384Y0091861D01*
G01*
X0015384Y0091861D02*
G01*
X0016249Y0092726D01*
G01*
X0016249Y0092726D02*
G01*
X0016718Y0093857D01*
G01*
X0016718Y0093857D02*
G01*
X0016718Y0095080D01*
G01*
X0016718Y0095080D02*
G01*
X0016249Y0096211D01*
G01*
X0016249Y0096211D02*
G01*
X0015384Y0097076D01*
G01*
X0015384Y0097076D02*
G01*
X0014254Y0097544D01*
G01*
X0014254Y0097544D02*
G01*
X0013231Y0097544D01*
G01*
X0013231Y0097544D02*
G01*
X0013860Y0098778D01*
G01*
X0013860Y0098778D02*
G01*
X0016140Y0101058D01*
G01*
X0016140Y0101058D02*
G01*
X0019060Y0101058D01*
G01*
X0019060Y0101058D02*
G01*
X0019060Y0100477D01*
G01*
X0019060Y0100477D02*
G01*
X0019641Y0100477D01*
G01*
X0019641Y0100477D02*
G01*
X0019641Y0097499D01*
G01*
X0019641Y0097499D02*
G01*
X0019673Y0097499D01*
G01*
X0019673Y0097499D02*
G01*
X0020238Y0097612D01*
G01*
X0020238Y0097612D02*
G01*
X0019575Y0097274D01*
G01*
X0019575Y0097274D02*
G01*
X0018864Y0096758D01*
G01*
X0018864Y0096758D02*
G01*
X0018243Y0096136D01*
G01*
X0018243Y0096136D02*
G01*
X0017727Y0095426D01*
G01*
X0017727Y0095426D02*
G01*
X0017328Y0094643D01*
G01*
X0017328Y0094643D02*
G01*
X0017056Y0093807D01*
G01*
X0017056Y0093807D02*
G01*
X0016919Y0092939D01*
G01*
X0016919Y0092939D02*
G01*
X0016919Y0092800D01*
G01*
X0016919Y0092800D02*
G01*
X0022200Y0092800D01*
G01*
X0022200Y0092800D02*
G01*
X0022200Y0092200D01*
G01*
X0022200Y0092200D02*
G01*
X0016919Y0092200D01*
G01*
X0016919Y0092200D02*
G01*
X0016919Y0092061D01*
G01*
X0016919Y0092061D02*
G01*
X0017056Y0091193D01*
G01*
X0017056Y0091193D02*
G01*
X0017328Y0090358D01*
G01*
X0017328Y0090358D02*
G01*
X0017727Y0089575D01*
G01*
X0017727Y0089575D02*
G01*
X0018243Y0088864D01*
G01*
X0018243Y0088864D02*
G01*
X0018864Y0088243D01*
G01*
X0018864Y0088243D02*
G01*
X0019575Y0087726D01*
G01*
X0019575Y0087726D02*
G01*
X0020358Y0087328D01*
G01*
X0020358Y0087328D02*
G01*
X0021193Y0087056D01*
G01*
X0021193Y0087056D02*
G01*
X0022061Y0086919D01*
G01*
X0022061Y0086919D02*
G01*
X0022200Y0086919D01*
G01*
X0022200Y0086919D02*
G01*
X0022200Y0092200D01*
G01*
X0022200Y0092200D02*
G01*
X0022800Y0092200D01*
G01*
X0022800Y0092200D02*
G01*
X0022800Y0086919D01*
G01*
X0022800Y0086919D02*
G01*
X0022940Y0086919D01*
G01*
X0022940Y0086919D02*
G01*
X0023807Y0087056D01*
G01*
X0023807Y0087056D02*
G01*
X0024643Y0087328D01*
G01*
X0024643Y0087328D02*
G01*
X0025426Y0087726D01*
G01*
X0025426Y0087726D02*
G01*
X0026136Y0088243D01*
G01*
X0026136Y0088243D02*
G01*
X0026758Y0088864D01*
G01*
X0026758Y0088864D02*
G01*
X0027274Y0089575D01*
G01*
X0027274Y0089575D02*
G01*
X0027673Y0090358D01*
G01*
X0027673Y0090358D02*
G01*
X0027944Y0091193D01*
G01*
X0027944Y0091193D02*
G01*
X0028082Y0092061D01*
G01*
X0028082Y0092061D02*
G01*
X0028082Y0092200D01*
G01*
X0028082Y0092200D02*
G01*
X0022800Y0092200D01*
G01*
X0022800Y0092200D02*
G01*
X0022800Y0092800D01*
G01*
X0022800Y0092800D02*
G01*
X0022200Y0092800D01*
G01*
X0022200Y0092800D02*
G01*
X0022200Y0098082D01*
G01*
X0022200Y0098082D02*
G01*
X0022061Y0098082D01*
G01*
X0022061Y0098082D02*
G01*
X0021193Y0097944D01*
G01*
X0021193Y0097944D02*
G01*
X0020643Y0097766D01*
G01*
X0020643Y0097766D02*
G01*
X0020899Y0097871D01*
G01*
X0020899Y0097871D02*
G01*
X0021434Y0098229D01*
G01*
X0021434Y0098229D02*
G01*
X0021889Y0098684D01*
G01*
X0021889Y0098684D02*
G01*
X0022247Y0099220D01*
G01*
X0022247Y0099220D02*
G01*
X0022494Y0099815D01*
G01*
X0022494Y0099815D02*
G01*
X0022619Y0100446D01*
G01*
X0022619Y0100446D02*
G01*
X0022619Y0100477D01*
G01*
X0022619Y0100477D02*
G01*
X0019641Y0100477D01*
G01*
X0019641Y0100477D02*
G01*
X0019641Y0101058D01*
G01*
X0019641Y0101058D02*
G01*
X0022619Y0101058D01*
G01*
X0022619Y0101058D02*
G01*
X0022619Y0101090D01*
G01*
X0022619Y0101090D02*
G01*
X0022494Y0101721D01*
G01*
X0022494Y0101721D02*
G01*
X0022247Y0102316D01*
G01*
X0022247Y0102316D02*
G01*
X0021889Y0102851D01*
G01*
X0021889Y0102851D02*
G01*
X0021689Y0103052D01*
G01*
X0021689Y0103052D02*
G01*
X0022500Y0103180D01*
G01*
X0022500Y0103180D02*
G01*
X0023717Y0102988D01*
G01*
X0023717Y0102988D02*
G01*
X0023239Y0102510D01*
G01*
X0023239Y0102510D02*
G01*
X0022771Y0101380D01*
G01*
X0022771Y0101380D02*
G01*
X0022771Y0100156D01*
G01*
X0022771Y0100156D02*
G01*
X0023239Y0099026D01*
G01*
X0023239Y0099026D02*
G01*
X0024105Y0098161D01*
G01*
X0024105Y0098161D02*
G01*
X0025235Y0097692D01*
G01*
X0025235Y0097692D02*
G01*
X0026459Y0097692D01*
G01*
X0026459Y0097692D02*
G01*
X0027589Y0098161D01*
G01*
X0027589Y0098161D02*
G01*
X0028454Y0099026D01*
G01*
X0028454Y0099026D02*
G01*
X0028922Y0100156D01*
G01*
X0028922Y0100156D02*
G01*
X0028922Y0100996D01*
G01*
X0028922Y0100996D02*
G01*
X0031141Y0098778D01*
G01*
X0031141Y0098778D02*
G01*
X0032658Y0095801D01*
G01*
X0032658Y0095801D02*
G01*
X0033181Y0092500D01*
G01*
X0033181Y0092500D02*
G01*
X0032658Y0089200D01*
G01*
X0032658Y0089200D02*
G01*
X0031141Y0086222D01*
G01*
X0031141Y0086222D02*
G01*
X0031141Y0086222D01*
G01*
X0031141Y0086222D02*
G01*
X0028778Y0083860D01*
G01*
X0028778Y0083860D02*
G01*
X0025801Y0082343D01*
G01*
X0025801Y0082343D02*
G01*
X0022500Y0081820D01*
G01*
X0022500Y0081820D02*
G01*
X0019200Y0082343D01*
G01*
X0019200Y0082343D02*
G01*
X0016223Y0083860D01*
G01*
X0016223Y0083860D02*
G01*
X0014356Y0085727D01*
G01*
X0015132Y0086048D02*
G01*
X0030967Y0086048D01*
G01*
X0031357Y0086647D02*
G01*
X0015878Y0086647D01*
G01*
X0016344Y0087245D02*
G01*
X0020611Y0087245D01*
G01*
X0019413Y0087844D02*
G01*
X0016591Y0087844D01*
G01*
X0016718Y0088442D02*
G01*
X0018665Y0088442D01*
G01*
X0018115Y0089041D02*
G01*
X0016718Y0089041D01*
G01*
X0016607Y0089639D02*
G01*
X0017694Y0089639D01*
G01*
X0017389Y0090238D02*
G01*
X0016359Y0090238D01*
G01*
X0015915Y0090836D02*
G01*
X0017172Y0090836D01*
G01*
X0017018Y0091435D02*
G01*
X0015221Y0091435D01*
G01*
X0015556Y0092033D02*
G01*
X0016923Y0092033D01*
G01*
X0016155Y0092632D02*
G01*
X0022200Y0092632D01*
G01*
X0022200Y0093230D02*
G01*
X0022800Y0093230D01*
G01*
X0022800Y0092800D02*
G01*
X0022800Y0098082D01*
G01*
X0022800Y0098082D02*
G01*
X0022940Y0098082D01*
G01*
X0022940Y0098082D02*
G01*
X0023807Y0097944D01*
G01*
X0023807Y0097944D02*
G01*
X0024643Y0097673D01*
G01*
X0024643Y0097673D02*
G01*
X0025426Y0097274D01*
G01*
X0025426Y0097274D02*
G01*
X0026136Y0096758D01*
G01*
X0026136Y0096758D02*
G01*
X0026758Y0096136D01*
G01*
X0026758Y0096136D02*
G01*
X0027274Y0095426D01*
G01*
X0027274Y0095426D02*
G01*
X0027673Y0094643D01*
G01*
X0027673Y0094643D02*
G01*
X0027944Y0093807D01*
G01*
X0027944Y0093807D02*
G01*
X0028082Y0092939D01*
G01*
X0028082Y0092939D02*
G01*
X0028082Y0092800D01*
G01*
X0028082Y0092800D02*
G01*
X0022800Y0092800D01*
G01*
X0022800Y0092632D02*
G01*
X0033160Y0092632D01*
G01*
X0033107Y0092033D02*
G01*
X0028077Y0092033D01*
G01*
X0027983Y0091435D02*
G01*
X0033012Y0091435D01*
G01*
X0032917Y0090836D02*
G01*
X0027828Y0090836D01*
G01*
X0027612Y0090238D02*
G01*
X0032822Y0090238D01*
G01*
X0032728Y0089639D02*
G01*
X0027307Y0089639D01*
G01*
X0026886Y0089041D02*
G01*
X0032577Y0089041D01*
G01*
X0032658Y0089200D02*
G01*
X0032658Y0089200D01*
G01*
X0032272Y0088442D02*
G01*
X0026336Y0088442D01*
G01*
X0025587Y0087844D02*
G01*
X0031967Y0087844D01*
G01*
X0031662Y0087245D02*
G01*
X0024389Y0087245D01*
G01*
X0022800Y0087245D02*
G01*
X0022200Y0087245D01*
G01*
X0022200Y0087844D02*
G01*
X0022800Y0087844D01*
G01*
X0022800Y0088442D02*
G01*
X0022200Y0088442D01*
G01*
X0022200Y0089041D02*
G01*
X0022800Y0089041D01*
G01*
X0022800Y0089639D02*
G01*
X0022200Y0089639D01*
G01*
X0022200Y0090238D02*
G01*
X0022800Y0090238D01*
G01*
X0022800Y0090836D02*
G01*
X0022200Y0090836D01*
G01*
X0022200Y0091435D02*
G01*
X0022800Y0091435D01*
G01*
X0022800Y0092033D02*
G01*
X0022200Y0092033D01*
G01*
X0022200Y0093829D02*
G01*
X0022800Y0093829D01*
G01*
X0022800Y0094427D02*
G01*
X0022200Y0094427D01*
G01*
X0022200Y0095026D02*
G01*
X0022800Y0095026D01*
G01*
X0022800Y0095624D02*
G01*
X0022200Y0095624D01*
G01*
X0022200Y0096223D02*
G01*
X0022800Y0096223D01*
G01*
X0022800Y0096821D02*
G01*
X0022200Y0096821D01*
G01*
X0022200Y0097420D02*
G01*
X0022800Y0097420D01*
G01*
X0022800Y0098018D02*
G01*
X0022200Y0098018D01*
G01*
X0021662Y0098018D02*
G01*
X0021119Y0098018D01*
G01*
X0021822Y0098617D02*
G01*
X0023648Y0098617D01*
G01*
X0023339Y0098018D02*
G01*
X0024448Y0098018D01*
G01*
X0025139Y0097420D02*
G01*
X0031833Y0097420D01*
G01*
X0032138Y0096821D02*
G01*
X0026048Y0096821D01*
G01*
X0026671Y0096223D02*
G01*
X0032443Y0096223D01*
G01*
X0032686Y0095624D02*
G01*
X0027130Y0095624D01*
G01*
X0027478Y0095026D02*
G01*
X0032781Y0095026D01*
G01*
X0032875Y0094427D02*
G01*
X0027743Y0094427D01*
G01*
X0027937Y0093829D02*
G01*
X0032970Y0093829D01*
G01*
X0033065Y0093230D02*
G01*
X0028036Y0093230D01*
G01*
X0027246Y0098018D02*
G01*
X0031528Y0098018D01*
G01*
X0031223Y0098617D02*
G01*
X0028045Y0098617D01*
G01*
X0028533Y0099215D02*
G01*
X0030703Y0099215D01*
G01*
X0030105Y0099814D02*
G01*
X0028781Y0099814D01*
G01*
X0028922Y0100412D02*
G01*
X0029506Y0100412D01*
G01*
X0023536Y0102807D02*
G01*
X0021919Y0102807D01*
G01*
X0022292Y0102208D02*
G01*
X0023114Y0102208D01*
G01*
X0022866Y0101610D02*
G01*
X0022516Y0101610D01*
G01*
X0022771Y0101011D02*
G01*
X0019641Y0101011D01*
G01*
X0019060Y0101011D02*
G01*
X0016093Y0101011D01*
G01*
X0016082Y0100477D02*
G01*
X0016082Y0100446D01*
G01*
X0016082Y0100446D02*
G01*
X0016208Y0099815D01*
G01*
X0016208Y0099815D02*
G01*
X0016454Y0099220D01*
G01*
X0016454Y0099220D02*
G01*
X0016812Y0098684D01*
G01*
X0016812Y0098684D02*
G01*
X0017267Y0098229D01*
G01*
X0017267Y0098229D02*
G01*
X0017802Y0097871D01*
G01*
X0017802Y0097871D02*
G01*
X0018397Y0097625D01*
G01*
X0018397Y0097625D02*
G01*
X0019029Y0097499D01*
G01*
X0019029Y0097499D02*
G01*
X0019060Y0097499D01*
G01*
X0019060Y0097499D02*
G01*
X0019060Y0100477D01*
G01*
X0019060Y0100477D02*
G01*
X0016082Y0100477D01*
G01*
X0016089Y0100412D02*
G01*
X0015494Y0100412D01*
G01*
X0014896Y0099814D02*
G01*
X0016208Y0099814D01*
G01*
X0016457Y0099215D02*
G01*
X0014297Y0099215D01*
G01*
X0013778Y0098617D02*
G01*
X0016879Y0098617D01*
G01*
X0017582Y0098018D02*
G01*
X0013473Y0098018D01*
G01*
X0014554Y0097420D02*
G01*
X0019862Y0097420D01*
G01*
X0019641Y0098018D02*
G01*
X0019060Y0098018D01*
G01*
X0019060Y0098617D02*
G01*
X0019641Y0098617D01*
G01*
X0019641Y0099215D02*
G01*
X0019060Y0099215D01*
G01*
X0019060Y0099814D02*
G01*
X0019641Y0099814D01*
G01*
X0019641Y0100412D02*
G01*
X0019060Y0100412D01*
G01*
X0022244Y0099215D02*
G01*
X0023161Y0099215D01*
G01*
X0022913Y0099814D02*
G01*
X0022493Y0099814D01*
G01*
X0022613Y0100412D02*
G01*
X0022771Y0100412D01*
G01*
X0018952Y0096821D02*
G01*
X0015639Y0096821D01*
G01*
X0016237Y0096223D02*
G01*
X0018330Y0096223D01*
G01*
X0017871Y0095624D02*
G01*
X0016492Y0095624D01*
G01*
X0016718Y0095026D02*
G01*
X0017523Y0095026D01*
G01*
X0017258Y0094427D02*
G01*
X0016718Y0094427D01*
G01*
X0016706Y0093829D02*
G01*
X0017063Y0093829D01*
G01*
X0016965Y0093230D02*
G01*
X0016458Y0093230D01*
G01*
X0015829Y0084253D02*
G01*
X0029171Y0084253D01*
G01*
X0028375Y0083654D02*
G01*
X0016626Y0083654D01*
G01*
X0017800Y0083056D02*
G01*
X0027200Y0083056D01*
G01*
X0026026Y0082457D02*
G01*
X0018975Y0082457D01*
G01*
X0022255Y0081859D02*
G01*
X0022745Y0081859D01*
D14*
G01*
X0031162Y0097618D03*
D12*
G01*
X0031162Y0097618D02*
G01*
X0031162Y0092500D01*
G01*
X0031162Y0092500D02*
G01*
X0022500Y0092500D01*
X0045000Y0010000D02*
D26*
G01*
X0048642Y0018760D03*
G01*
X0048642Y0024469D03*
G01*
X0054351Y0030768D03*
G01*
X0060847Y0030768D03*
D29*
G01*
X0057500Y0022500D03*
D18*
G01*
X0050231Y0014851D02*
G01*
X0064770Y0014851D01*
G01*
X0065368Y0015450D02*
G01*
X0049632Y0015450D01*
G01*
X0049356Y0015727D02*
G01*
X0050384Y0016153D01*
G01*
X0050384Y0016153D02*
G01*
X0051249Y0017018D01*
G01*
X0051249Y0017018D02*
G01*
X0051718Y0018148D01*
G01*
X0051718Y0018148D02*
G01*
X0051718Y0019372D01*
G01*
X0051718Y0019372D02*
G01*
X0051249Y0020502D01*
G01*
X0051249Y0020502D02*
G01*
X0050384Y0021367D01*
G01*
X0050384Y0021367D02*
G01*
X0049788Y0021614D01*
G01*
X0049788Y0021614D02*
G01*
X0050384Y0021861D01*
G01*
X0050384Y0021861D02*
G01*
X0051249Y0022726D01*
G01*
X0051249Y0022726D02*
G01*
X0051718Y0023857D01*
G01*
X0051718Y0023857D02*
G01*
X0051718Y0025080D01*
G01*
X0051718Y0025080D02*
G01*
X0051249Y0026211D01*
G01*
X0051249Y0026211D02*
G01*
X0050384Y0027076D01*
G01*
X0050384Y0027076D02*
G01*
X0049254Y0027544D01*
G01*
X0049254Y0027544D02*
G01*
X0048231Y0027544D01*
G01*
X0048231Y0027544D02*
G01*
X0048860Y0028778D01*
G01*
X0048860Y0028778D02*
G01*
X0051140Y0031058D01*
G01*
X0051140Y0031058D02*
G01*
X0054060Y0031058D01*
G01*
X0054060Y0031058D02*
G01*
X0054060Y0030477D01*
G01*
X0054060Y0030477D02*
G01*
X0054641Y0030477D01*
G01*
X0054641Y0030477D02*
G01*
X0054641Y0027499D01*
G01*
X0054641Y0027499D02*
G01*
X0054673Y0027499D01*
G01*
X0054673Y0027499D02*
G01*
X0055238Y0027612D01*
G01*
X0055238Y0027612D02*
G01*
X0054575Y0027274D01*
G01*
X0054575Y0027274D02*
G01*
X0053864Y0026758D01*
G01*
X0053864Y0026758D02*
G01*
X0053243Y0026136D01*
G01*
X0053243Y0026136D02*
G01*
X0052727Y0025426D01*
G01*
X0052727Y0025426D02*
G01*
X0052328Y0024643D01*
G01*
X0052328Y0024643D02*
G01*
X0052056Y0023807D01*
G01*
X0052056Y0023807D02*
G01*
X0051919Y0022939D01*
G01*
X0051919Y0022939D02*
G01*
X0051919Y0022800D01*
G01*
X0051919Y0022800D02*
G01*
X0057200Y0022800D01*
G01*
X0057200Y0022800D02*
G01*
X0057200Y0022200D01*
G01*
X0057200Y0022200D02*
G01*
X0051919Y0022200D01*
G01*
X0051919Y0022200D02*
G01*
X0051919Y0022061D01*
G01*
X0051919Y0022061D02*
G01*
X0052056Y0021193D01*
G01*
X0052056Y0021193D02*
G01*
X0052328Y0020358D01*
G01*
X0052328Y0020358D02*
G01*
X0052727Y0019575D01*
G01*
X0052727Y0019575D02*
G01*
X0053243Y0018864D01*
G01*
X0053243Y0018864D02*
G01*
X0053864Y0018243D01*
G01*
X0053864Y0018243D02*
G01*
X0054575Y0017726D01*
G01*
X0054575Y0017726D02*
G01*
X0055358Y0017328D01*
G01*
X0055358Y0017328D02*
G01*
X0056193Y0017056D01*
G01*
X0056193Y0017056D02*
G01*
X0057061Y0016919D01*
G01*
X0057061Y0016919D02*
G01*
X0057200Y0016919D01*
G01*
X0057200Y0016919D02*
G01*
X0057200Y0022200D01*
G01*
X0057200Y0022200D02*
G01*
X0057800Y0022200D01*
G01*
X0057800Y0022200D02*
G01*
X0057800Y0016919D01*
G01*
X0057800Y0016919D02*
G01*
X0057940Y0016919D01*
G01*
X0057940Y0016919D02*
G01*
X0058807Y0017056D01*
G01*
X0058807Y0017056D02*
G01*
X0059643Y0017328D01*
G01*
X0059643Y0017328D02*
G01*
X0060426Y0017726D01*
G01*
X0060426Y0017726D02*
G01*
X0061136Y0018243D01*
G01*
X0061136Y0018243D02*
G01*
X0061758Y0018864D01*
G01*
X0061758Y0018864D02*
G01*
X0062274Y0019575D01*
G01*
X0062274Y0019575D02*
G01*
X0062673Y0020358D01*
G01*
X0062673Y0020358D02*
G01*
X0062944Y0021193D01*
G01*
X0062944Y0021193D02*
G01*
X0063082Y0022061D01*
G01*
X0063082Y0022061D02*
G01*
X0063082Y0022200D01*
G01*
X0063082Y0022200D02*
G01*
X0057800Y0022200D01*
G01*
X0057800Y0022200D02*
G01*
X0057800Y0022800D01*
G01*
X0057800Y0022800D02*
G01*
X0057200Y0022800D01*
G01*
X0057200Y0022800D02*
G01*
X0057200Y0028082D01*
G01*
X0057200Y0028082D02*
G01*
X0057061Y0028082D01*
G01*
X0057061Y0028082D02*
G01*
X0056193Y0027944D01*
G01*
X0056193Y0027944D02*
G01*
X0055643Y0027766D01*
G01*
X0055643Y0027766D02*
G01*
X0055899Y0027871D01*
G01*
X0055899Y0027871D02*
G01*
X0056434Y0028229D01*
G01*
X0056434Y0028229D02*
G01*
X0056889Y0028684D01*
G01*
X0056889Y0028684D02*
G01*
X0057247Y0029220D01*
G01*
X0057247Y0029220D02*
G01*
X0057494Y0029815D01*
G01*
X0057494Y0029815D02*
G01*
X0057619Y0030446D01*
G01*
X0057619Y0030446D02*
G01*
X0057619Y0030477D01*
G01*
X0057619Y0030477D02*
G01*
X0054641Y0030477D01*
G01*
X0054641Y0030477D02*
G01*
X0054641Y0031058D01*
G01*
X0054641Y0031058D02*
G01*
X0057619Y0031058D01*
G01*
X0057619Y0031058D02*
G01*
X0057619Y0031090D01*
G01*
X0057619Y0031090D02*
G01*
X0057494Y0031721D01*
G01*
X0057494Y0031721D02*
G01*
X0057247Y0032316D01*
G01*
X0057247Y0032316D02*
G01*
X0056889Y0032851D01*
G01*
X0056889Y0032851D02*
G01*
X0056689Y0033052D01*
G01*
X0056689Y0033052D02*
G01*
X0057500Y0033180D01*
G01*
X0057500Y0033180D02*
G01*
X0058717Y0032988D01*
G01*
X0058717Y0032988D02*
G01*
X0058239Y0032510D01*
G01*
X0058239Y0032510D02*
G01*
X0057771Y0031380D01*
G01*
X0057771Y0031380D02*
G01*
X0057771Y0030156D01*
G01*
X0057771Y0030156D02*
G01*
X0058239Y0029026D01*
G01*
X0058239Y0029026D02*
G01*
X0059105Y0028161D01*
G01*
X0059105Y0028161D02*
G01*
X0060235Y0027692D01*
G01*
X0060235Y0027692D02*
G01*
X0061459Y0027692D01*
G01*
X0061459Y0027692D02*
G01*
X0062589Y0028161D01*
G01*
X0062589Y0028161D02*
G01*
X0063454Y0029026D01*
G01*
X0063454Y0029026D02*
G01*
X0063922Y0030156D01*
G01*
X0063922Y0030156D02*
G01*
X0063922Y0030996D01*
G01*
X0063922Y0030996D02*
G01*
X0066141Y0028778D01*
G01*
X0066141Y0028778D02*
G01*
X0067658Y0025801D01*
G01*
X0067658Y0025801D02*
G01*
X0068181Y0022500D01*
G01*
X0068181Y0022500D02*
G01*
X0067658Y0019200D01*
G01*
X0067658Y0019200D02*
G01*
X0066141Y0016222D01*
G01*
X0066141Y0016222D02*
G01*
X0066141Y0016222D01*
G01*
X0066141Y0016222D02*
G01*
X0063778Y0013860D01*
G01*
X0063778Y0013860D02*
G01*
X0060801Y0012343D01*
G01*
X0060801Y0012343D02*
G01*
X0057500Y0011820D01*
G01*
X0057500Y0011820D02*
G01*
X0054200Y0012343D01*
G01*
X0054200Y0012343D02*
G01*
X0051223Y0013860D01*
G01*
X0051223Y0013860D02*
G01*
X0049356Y0015727D01*
G01*
X0050132Y0016048D02*
G01*
X0065967Y0016048D01*
G01*
X0066357Y0016647D02*
G01*
X0050878Y0016647D01*
G01*
X0051344Y0017245D02*
G01*
X0055611Y0017245D01*
G01*
X0054413Y0017844D02*
G01*
X0051591Y0017844D01*
G01*
X0051718Y0018442D02*
G01*
X0053665Y0018442D01*
G01*
X0053115Y0019041D02*
G01*
X0051718Y0019041D01*
G01*
X0051607Y0019639D02*
G01*
X0052694Y0019639D01*
G01*
X0052389Y0020238D02*
G01*
X0051359Y0020238D01*
G01*
X0050915Y0020836D02*
G01*
X0052172Y0020836D01*
G01*
X0052018Y0021435D02*
G01*
X0050221Y0021435D01*
G01*
X0050556Y0022033D02*
G01*
X0051923Y0022033D01*
G01*
X0051155Y0022632D02*
G01*
X0057200Y0022632D01*
G01*
X0057200Y0023230D02*
G01*
X0057800Y0023230D01*
G01*
X0057800Y0022800D02*
G01*
X0057800Y0028082D01*
G01*
X0057800Y0028082D02*
G01*
X0057940Y0028082D01*
G01*
X0057940Y0028082D02*
G01*
X0058807Y0027944D01*
G01*
X0058807Y0027944D02*
G01*
X0059643Y0027673D01*
G01*
X0059643Y0027673D02*
G01*
X0060426Y0027274D01*
G01*
X0060426Y0027274D02*
G01*
X0061136Y0026758D01*
G01*
X0061136Y0026758D02*
G01*
X0061758Y0026136D01*
G01*
X0061758Y0026136D02*
G01*
X0062274Y0025426D01*
G01*
X0062274Y0025426D02*
G01*
X0062673Y0024643D01*
G01*
X0062673Y0024643D02*
G01*
X0062944Y0023807D01*
G01*
X0062944Y0023807D02*
G01*
X0063082Y0022939D01*
G01*
X0063082Y0022939D02*
G01*
X0063082Y0022800D01*
G01*
X0063082Y0022800D02*
G01*
X0057800Y0022800D01*
G01*
X0057800Y0022632D02*
G01*
X0068160Y0022632D01*
G01*
X0068107Y0022033D02*
G01*
X0063077Y0022033D01*
G01*
X0062983Y0021435D02*
G01*
X0068012Y0021435D01*
G01*
X0067917Y0020836D02*
G01*
X0062828Y0020836D01*
G01*
X0062612Y0020238D02*
G01*
X0067822Y0020238D01*
G01*
X0067728Y0019639D02*
G01*
X0062307Y0019639D01*
G01*
X0061886Y0019041D02*
G01*
X0067577Y0019041D01*
G01*
X0067658Y0019200D02*
G01*
X0067658Y0019200D01*
G01*
X0067272Y0018442D02*
G01*
X0061336Y0018442D01*
G01*
X0060587Y0017844D02*
G01*
X0066967Y0017844D01*
G01*
X0066662Y0017245D02*
G01*
X0059389Y0017245D01*
G01*
X0057800Y0017245D02*
G01*
X0057200Y0017245D01*
G01*
X0057200Y0017844D02*
G01*
X0057800Y0017844D01*
G01*
X0057800Y0018442D02*
G01*
X0057200Y0018442D01*
G01*
X0057200Y0019041D02*
G01*
X0057800Y0019041D01*
G01*
X0057800Y0019639D02*
G01*
X0057200Y0019639D01*
G01*
X0057200Y0020238D02*
G01*
X0057800Y0020238D01*
G01*
X0057800Y0020836D02*
G01*
X0057200Y0020836D01*
G01*
X0057200Y0021435D02*
G01*
X0057800Y0021435D01*
G01*
X0057800Y0022033D02*
G01*
X0057200Y0022033D01*
G01*
X0057200Y0023829D02*
G01*
X0057800Y0023829D01*
G01*
X0057800Y0024427D02*
G01*
X0057200Y0024427D01*
G01*
X0057200Y0025026D02*
G01*
X0057800Y0025026D01*
G01*
X0057800Y0025624D02*
G01*
X0057200Y0025624D01*
G01*
X0057200Y0026223D02*
G01*
X0057800Y0026223D01*
G01*
X0057800Y0026821D02*
G01*
X0057200Y0026821D01*
G01*
X0057200Y0027420D02*
G01*
X0057800Y0027420D01*
G01*
X0057800Y0028018D02*
G01*
X0057200Y0028018D01*
G01*
X0056662Y0028018D02*
G01*
X0056119Y0028018D01*
G01*
X0056822Y0028617D02*
G01*
X0058648Y0028617D01*
G01*
X0058339Y0028018D02*
G01*
X0059448Y0028018D01*
G01*
X0060139Y0027420D02*
G01*
X0066833Y0027420D01*
G01*
X0067138Y0026821D02*
G01*
X0061048Y0026821D01*
G01*
X0061671Y0026223D02*
G01*
X0067443Y0026223D01*
G01*
X0067686Y0025624D02*
G01*
X0062130Y0025624D01*
G01*
X0062478Y0025026D02*
G01*
X0067781Y0025026D01*
G01*
X0067875Y0024427D02*
G01*
X0062743Y0024427D01*
G01*
X0062937Y0023829D02*
G01*
X0067970Y0023829D01*
G01*
X0068065Y0023230D02*
G01*
X0063036Y0023230D01*
G01*
X0062246Y0028018D02*
G01*
X0066528Y0028018D01*
G01*
X0066223Y0028617D02*
G01*
X0063045Y0028617D01*
G01*
X0063533Y0029215D02*
G01*
X0065703Y0029215D01*
G01*
X0065105Y0029814D02*
G01*
X0063781Y0029814D01*
G01*
X0063922Y0030412D02*
G01*
X0064506Y0030412D01*
G01*
X0058536Y0032807D02*
G01*
X0056919Y0032807D01*
G01*
X0057292Y0032208D02*
G01*
X0058114Y0032208D01*
G01*
X0057866Y0031610D02*
G01*
X0057516Y0031610D01*
G01*
X0057771Y0031011D02*
G01*
X0054641Y0031011D01*
G01*
X0054060Y0031011D02*
G01*
X0051093Y0031011D01*
G01*
X0051082Y0030477D02*
G01*
X0051082Y0030446D01*
G01*
X0051082Y0030446D02*
G01*
X0051208Y0029815D01*
G01*
X0051208Y0029815D02*
G01*
X0051454Y0029220D01*
G01*
X0051454Y0029220D02*
G01*
X0051812Y0028684D01*
G01*
X0051812Y0028684D02*
G01*
X0052267Y0028229D01*
G01*
X0052267Y0028229D02*
G01*
X0052802Y0027871D01*
G01*
X0052802Y0027871D02*
G01*
X0053397Y0027625D01*
G01*
X0053397Y0027625D02*
G01*
X0054029Y0027499D01*
G01*
X0054029Y0027499D02*
G01*
X0054060Y0027499D01*
G01*
X0054060Y0027499D02*
G01*
X0054060Y0030477D01*
G01*
X0054060Y0030477D02*
G01*
X0051082Y0030477D01*
G01*
X0051089Y0030412D02*
G01*
X0050494Y0030412D01*
G01*
X0049896Y0029814D02*
G01*
X0051208Y0029814D01*
G01*
X0051457Y0029215D02*
G01*
X0049297Y0029215D01*
G01*
X0048778Y0028617D02*
G01*
X0051879Y0028617D01*
G01*
X0052582Y0028018D02*
G01*
X0048473Y0028018D01*
G01*
X0049554Y0027420D02*
G01*
X0054862Y0027420D01*
G01*
X0054641Y0028018D02*
G01*
X0054060Y0028018D01*
G01*
X0054060Y0028617D02*
G01*
X0054641Y0028617D01*
G01*
X0054641Y0029215D02*
G01*
X0054060Y0029215D01*
G01*
X0054060Y0029814D02*
G01*
X0054641Y0029814D01*
G01*
X0054641Y0030412D02*
G01*
X0054060Y0030412D01*
G01*
X0057244Y0029215D02*
G01*
X0058161Y0029215D01*
G01*
X0057913Y0029814D02*
G01*
X0057493Y0029814D01*
G01*
X0057613Y0030412D02*
G01*
X0057771Y0030412D01*
G01*
X0053952Y0026821D02*
G01*
X0050639Y0026821D01*
G01*
X0051237Y0026223D02*
G01*
X0053330Y0026223D01*
G01*
X0052871Y0025624D02*
G01*
X0051492Y0025624D01*
G01*
X0051718Y0025026D02*
G01*
X0052523Y0025026D01*
G01*
X0052258Y0024427D02*
G01*
X0051718Y0024427D01*
G01*
X0051706Y0023829D02*
G01*
X0052063Y0023829D01*
G01*
X0051965Y0023230D02*
G01*
X0051458Y0023230D01*
G01*
X0050829Y0014253D02*
G01*
X0064171Y0014253D01*
G01*
X0063375Y0013654D02*
G01*
X0051626Y0013654D01*
G01*
X0052800Y0013056D02*
G01*
X0062200Y0013056D01*
G01*
X0061026Y0012457D02*
G01*
X0053975Y0012457D01*
G01*
X0057255Y0011859D02*
G01*
X0057745Y0011859D01*
D14*
G01*
X0066162Y0027618D03*
D12*
G01*
X0066162Y0027618D02*
G01*
X0066162Y0022500D01*
G01*
X0066162Y0022500D02*
G01*
X0057500Y0022500D01*
X0045000Y0045000D02*
D26*
G01*
X0048642Y0053760D03*
G01*
X0048642Y0059469D03*
G01*
X0054351Y0065768D03*
G01*
X0060847Y0065768D03*
D29*
G01*
X0057500Y0057500D03*
D18*
G01*
X0050231Y0049851D02*
G01*
X0064770Y0049851D01*
G01*
X0065368Y0050450D02*
G01*
X0049632Y0050450D01*
G01*
X0049356Y0050727D02*
G01*
X0050384Y0051153D01*
G01*
X0050384Y0051153D02*
G01*
X0051249Y0052018D01*
G01*
X0051249Y0052018D02*
G01*
X0051718Y0053148D01*
G01*
X0051718Y0053148D02*
G01*
X0051718Y0054372D01*
G01*
X0051718Y0054372D02*
G01*
X0051249Y0055502D01*
G01*
X0051249Y0055502D02*
G01*
X0050384Y0056367D01*
G01*
X0050384Y0056367D02*
G01*
X0049788Y0056614D01*
G01*
X0049788Y0056614D02*
G01*
X0050384Y0056861D01*
G01*
X0050384Y0056861D02*
G01*
X0051249Y0057726D01*
G01*
X0051249Y0057726D02*
G01*
X0051718Y0058857D01*
G01*
X0051718Y0058857D02*
G01*
X0051718Y0060080D01*
G01*
X0051718Y0060080D02*
G01*
X0051249Y0061211D01*
G01*
X0051249Y0061211D02*
G01*
X0050384Y0062076D01*
G01*
X0050384Y0062076D02*
G01*
X0049254Y0062544D01*
G01*
X0049254Y0062544D02*
G01*
X0048231Y0062544D01*
G01*
X0048231Y0062544D02*
G01*
X0048860Y0063778D01*
G01*
X0048860Y0063778D02*
G01*
X0051140Y0066058D01*
G01*
X0051140Y0066058D02*
G01*
X0054060Y0066058D01*
G01*
X0054060Y0066058D02*
G01*
X0054060Y0065477D01*
G01*
X0054060Y0065477D02*
G01*
X0054641Y0065477D01*
G01*
X0054641Y0065477D02*
G01*
X0054641Y0062499D01*
G01*
X0054641Y0062499D02*
G01*
X0054673Y0062499D01*
G01*
X0054673Y0062499D02*
G01*
X0055238Y0062612D01*
G01*
X0055238Y0062612D02*
G01*
X0054575Y0062274D01*
G01*
X0054575Y0062274D02*
G01*
X0053864Y0061758D01*
G01*
X0053864Y0061758D02*
G01*
X0053243Y0061136D01*
G01*
X0053243Y0061136D02*
G01*
X0052727Y0060426D01*
G01*
X0052727Y0060426D02*
G01*
X0052328Y0059643D01*
G01*
X0052328Y0059643D02*
G01*
X0052056Y0058807D01*
G01*
X0052056Y0058807D02*
G01*
X0051919Y0057939D01*
G01*
X0051919Y0057939D02*
G01*
X0051919Y0057800D01*
G01*
X0051919Y0057800D02*
G01*
X0057200Y0057800D01*
G01*
X0057200Y0057800D02*
G01*
X0057200Y0057200D01*
G01*
X0057200Y0057200D02*
G01*
X0051919Y0057200D01*
G01*
X0051919Y0057200D02*
G01*
X0051919Y0057061D01*
G01*
X0051919Y0057061D02*
G01*
X0052056Y0056193D01*
G01*
X0052056Y0056193D02*
G01*
X0052328Y0055358D01*
G01*
X0052328Y0055358D02*
G01*
X0052727Y0054575D01*
G01*
X0052727Y0054575D02*
G01*
X0053243Y0053864D01*
G01*
X0053243Y0053864D02*
G01*
X0053864Y0053243D01*
G01*
X0053864Y0053243D02*
G01*
X0054575Y0052726D01*
G01*
X0054575Y0052726D02*
G01*
X0055358Y0052328D01*
G01*
X0055358Y0052328D02*
G01*
X0056193Y0052056D01*
G01*
X0056193Y0052056D02*
G01*
X0057061Y0051919D01*
G01*
X0057061Y0051919D02*
G01*
X0057200Y0051919D01*
G01*
X0057200Y0051919D02*
G01*
X0057200Y0057200D01*
G01*
X0057200Y0057200D02*
G01*
X0057800Y0057200D01*
G01*
X0057800Y0057200D02*
G01*
X0057800Y0051919D01*
G01*
X0057800Y0051919D02*
G01*
X0057940Y0051919D01*
G01*
X0057940Y0051919D02*
G01*
X0058807Y0052056D01*
G01*
X0058807Y0052056D02*
G01*
X0059643Y0052328D01*
G01*
X0059643Y0052328D02*
G01*
X0060426Y0052726D01*
G01*
X0060426Y0052726D02*
G01*
X0061136Y0053243D01*
G01*
X0061136Y0053243D02*
G01*
X0061758Y0053864D01*
G01*
X0061758Y0053864D02*
G01*
X0062274Y0054575D01*
G01*
X0062274Y0054575D02*
G01*
X0062673Y0055358D01*
G01*
X0062673Y0055358D02*
G01*
X0062944Y0056193D01*
G01*
X0062944Y0056193D02*
G01*
X0063082Y0057061D01*
G01*
X0063082Y0057061D02*
G01*
X0063082Y0057200D01*
G01*
X0063082Y0057200D02*
G01*
X0057800Y0057200D01*
G01*
X0057800Y0057200D02*
G01*
X0057800Y0057800D01*
G01*
X0057800Y0057800D02*
G01*
X0057200Y0057800D01*
G01*
X0057200Y0057800D02*
G01*
X0057200Y0063082D01*
G01*
X0057200Y0063082D02*
G01*
X0057061Y0063082D01*
G01*
X0057061Y0063082D02*
G01*
X0056193Y0062944D01*
G01*
X0056193Y0062944D02*
G01*
X0055643Y0062766D01*
G01*
X0055643Y0062766D02*
G01*
X0055899Y0062871D01*
G01*
X0055899Y0062871D02*
G01*
X0056434Y0063229D01*
G01*
X0056434Y0063229D02*
G01*
X0056889Y0063684D01*
G01*
X0056889Y0063684D02*
G01*
X0057247Y0064220D01*
G01*
X0057247Y0064220D02*
G01*
X0057494Y0064815D01*
G01*
X0057494Y0064815D02*
G01*
X0057619Y0065446D01*
G01*
X0057619Y0065446D02*
G01*
X0057619Y0065477D01*
G01*
X0057619Y0065477D02*
G01*
X0054641Y0065477D01*
G01*
X0054641Y0065477D02*
G01*
X0054641Y0066058D01*
G01*
X0054641Y0066058D02*
G01*
X0057619Y0066058D01*
G01*
X0057619Y0066058D02*
G01*
X0057619Y0066090D01*
G01*
X0057619Y0066090D02*
G01*
X0057494Y0066721D01*
G01*
X0057494Y0066721D02*
G01*
X0057247Y0067316D01*
G01*
X0057247Y0067316D02*
G01*
X0056889Y0067851D01*
G01*
X0056889Y0067851D02*
G01*
X0056689Y0068052D01*
G01*
X0056689Y0068052D02*
G01*
X0057500Y0068180D01*
G01*
X0057500Y0068180D02*
G01*
X0058717Y0067988D01*
G01*
X0058717Y0067988D02*
G01*
X0058239Y0067510D01*
G01*
X0058239Y0067510D02*
G01*
X0057771Y0066380D01*
G01*
X0057771Y0066380D02*
G01*
X0057771Y0065156D01*
G01*
X0057771Y0065156D02*
G01*
X0058239Y0064026D01*
G01*
X0058239Y0064026D02*
G01*
X0059105Y0063161D01*
G01*
X0059105Y0063161D02*
G01*
X0060235Y0062692D01*
G01*
X0060235Y0062692D02*
G01*
X0061459Y0062692D01*
G01*
X0061459Y0062692D02*
G01*
X0062589Y0063161D01*
G01*
X0062589Y0063161D02*
G01*
X0063454Y0064026D01*
G01*
X0063454Y0064026D02*
G01*
X0063922Y0065156D01*
G01*
X0063922Y0065156D02*
G01*
X0063922Y0065996D01*
G01*
X0063922Y0065996D02*
G01*
X0066141Y0063778D01*
G01*
X0066141Y0063778D02*
G01*
X0067658Y0060801D01*
G01*
X0067658Y0060801D02*
G01*
X0068181Y0057500D01*
G01*
X0068181Y0057500D02*
G01*
X0067658Y0054200D01*
G01*
X0067658Y0054200D02*
G01*
X0066141Y0051222D01*
G01*
X0066141Y0051222D02*
G01*
X0066141Y0051222D01*
G01*
X0066141Y0051222D02*
G01*
X0063778Y0048860D01*
G01*
X0063778Y0048860D02*
G01*
X0060801Y0047343D01*
G01*
X0060801Y0047343D02*
G01*
X0057500Y0046820D01*
G01*
X0057500Y0046820D02*
G01*
X0054200Y0047343D01*
G01*
X0054200Y0047343D02*
G01*
X0051223Y0048860D01*
G01*
X0051223Y0048860D02*
G01*
X0049356Y0050727D01*
G01*
X0050132Y0051048D02*
G01*
X0065967Y0051048D01*
G01*
X0066357Y0051647D02*
G01*
X0050878Y0051647D01*
G01*
X0051344Y0052245D02*
G01*
X0055611Y0052245D01*
G01*
X0054413Y0052844D02*
G01*
X0051591Y0052844D01*
G01*
X0051718Y0053442D02*
G01*
X0053665Y0053442D01*
G01*
X0053115Y0054041D02*
G01*
X0051718Y0054041D01*
G01*
X0051607Y0054639D02*
G01*
X0052694Y0054639D01*
G01*
X0052389Y0055238D02*
G01*
X0051359Y0055238D01*
G01*
X0050915Y0055836D02*
G01*
X0052172Y0055836D01*
G01*
X0052018Y0056435D02*
G01*
X0050221Y0056435D01*
G01*
X0050556Y0057033D02*
G01*
X0051923Y0057033D01*
G01*
X0051155Y0057632D02*
G01*
X0057200Y0057632D01*
G01*
X0057200Y0058230D02*
G01*
X0057800Y0058230D01*
G01*
X0057800Y0057800D02*
G01*
X0057800Y0063082D01*
G01*
X0057800Y0063082D02*
G01*
X0057940Y0063082D01*
G01*
X0057940Y0063082D02*
G01*
X0058807Y0062944D01*
G01*
X0058807Y0062944D02*
G01*
X0059643Y0062673D01*
G01*
X0059643Y0062673D02*
G01*
X0060426Y0062274D01*
G01*
X0060426Y0062274D02*
G01*
X0061136Y0061758D01*
G01*
X0061136Y0061758D02*
G01*
X0061758Y0061136D01*
G01*
X0061758Y0061136D02*
G01*
X0062274Y0060426D01*
G01*
X0062274Y0060426D02*
G01*
X0062673Y0059643D01*
G01*
X0062673Y0059643D02*
G01*
X0062944Y0058807D01*
G01*
X0062944Y0058807D02*
G01*
X0063082Y0057939D01*
G01*
X0063082Y0057939D02*
G01*
X0063082Y0057800D01*
G01*
X0063082Y0057800D02*
G01*
X0057800Y0057800D01*
G01*
X0057800Y0057632D02*
G01*
X0068160Y0057632D01*
G01*
X0068107Y0057033D02*
G01*
X0063077Y0057033D01*
G01*
X0062983Y0056435D02*
G01*
X0068012Y0056435D01*
G01*
X0067917Y0055836D02*
G01*
X0062828Y0055836D01*
G01*
X0062612Y0055238D02*
G01*
X0067822Y0055238D01*
G01*
X0067728Y0054639D02*
G01*
X0062307Y0054639D01*
G01*
X0061886Y0054041D02*
G01*
X0067577Y0054041D01*
G01*
X0067658Y0054200D02*
G01*
X0067658Y0054200D01*
G01*
X0067272Y0053442D02*
G01*
X0061336Y0053442D01*
G01*
X0060587Y0052844D02*
G01*
X0066967Y0052844D01*
G01*
X0066662Y0052245D02*
G01*
X0059389Y0052245D01*
G01*
X0057800Y0052245D02*
G01*
X0057200Y0052245D01*
G01*
X0057200Y0052844D02*
G01*
X0057800Y0052844D01*
G01*
X0057800Y0053442D02*
G01*
X0057200Y0053442D01*
G01*
X0057200Y0054041D02*
G01*
X0057800Y0054041D01*
G01*
X0057800Y0054639D02*
G01*
X0057200Y0054639D01*
G01*
X0057200Y0055238D02*
G01*
X0057800Y0055238D01*
G01*
X0057800Y0055836D02*
G01*
X0057200Y0055836D01*
G01*
X0057200Y0056435D02*
G01*
X0057800Y0056435D01*
G01*
X0057800Y0057033D02*
G01*
X0057200Y0057033D01*
G01*
X0057200Y0058829D02*
G01*
X0057800Y0058829D01*
G01*
X0057800Y0059427D02*
G01*
X0057200Y0059427D01*
G01*
X0057200Y0060026D02*
G01*
X0057800Y0060026D01*
G01*
X0057800Y0060624D02*
G01*
X0057200Y0060624D01*
G01*
X0057200Y0061223D02*
G01*
X0057800Y0061223D01*
G01*
X0057800Y0061821D02*
G01*
X0057200Y0061821D01*
G01*
X0057200Y0062420D02*
G01*
X0057800Y0062420D01*
G01*
X0057800Y0063018D02*
G01*
X0057200Y0063018D01*
G01*
X0056662Y0063018D02*
G01*
X0056119Y0063018D01*
G01*
X0056822Y0063617D02*
G01*
X0058648Y0063617D01*
G01*
X0058339Y0063018D02*
G01*
X0059448Y0063018D01*
G01*
X0060139Y0062420D02*
G01*
X0066833Y0062420D01*
G01*
X0067138Y0061821D02*
G01*
X0061048Y0061821D01*
G01*
X0061671Y0061223D02*
G01*
X0067443Y0061223D01*
G01*
X0067686Y0060624D02*
G01*
X0062130Y0060624D01*
G01*
X0062478Y0060026D02*
G01*
X0067781Y0060026D01*
G01*
X0067875Y0059427D02*
G01*
X0062743Y0059427D01*
G01*
X0062937Y0058829D02*
G01*
X0067970Y0058829D01*
G01*
X0068065Y0058230D02*
G01*
X0063036Y0058230D01*
G01*
X0062246Y0063018D02*
G01*
X0066528Y0063018D01*
G01*
X0066223Y0063617D02*
G01*
X0063045Y0063617D01*
G01*
X0063533Y0064215D02*
G01*
X0065703Y0064215D01*
G01*
X0065105Y0064814D02*
G01*
X0063781Y0064814D01*
G01*
X0063922Y0065412D02*
G01*
X0064506Y0065412D01*
G01*
X0058536Y0067807D02*
G01*
X0056919Y0067807D01*
G01*
X0057292Y0067208D02*
G01*
X0058114Y0067208D01*
G01*
X0057866Y0066610D02*
G01*
X0057516Y0066610D01*
G01*
X0057771Y0066011D02*
G01*
X0054641Y0066011D01*
G01*
X0054060Y0066011D02*
G01*
X0051093Y0066011D01*
G01*
X0051082Y0065477D02*
G01*
X0051082Y0065446D01*
G01*
X0051082Y0065446D02*
G01*
X0051208Y0064815D01*
G01*
X0051208Y0064815D02*
G01*
X0051454Y0064220D01*
G01*
X0051454Y0064220D02*
G01*
X0051812Y0063684D01*
G01*
X0051812Y0063684D02*
G01*
X0052267Y0063229D01*
G01*
X0052267Y0063229D02*
G01*
X0052802Y0062871D01*
G01*
X0052802Y0062871D02*
G01*
X0053397Y0062625D01*
G01*
X0053397Y0062625D02*
G01*
X0054029Y0062499D01*
G01*
X0054029Y0062499D02*
G01*
X0054060Y0062499D01*
G01*
X0054060Y0062499D02*
G01*
X0054060Y0065477D01*
G01*
X0054060Y0065477D02*
G01*
X0051082Y0065477D01*
G01*
X0051089Y0065412D02*
G01*
X0050494Y0065412D01*
G01*
X0049896Y0064814D02*
G01*
X0051208Y0064814D01*
G01*
X0051457Y0064215D02*
G01*
X0049297Y0064215D01*
G01*
X0048778Y0063617D02*
G01*
X0051879Y0063617D01*
G01*
X0052582Y0063018D02*
G01*
X0048473Y0063018D01*
G01*
X0049554Y0062420D02*
G01*
X0054862Y0062420D01*
G01*
X0054641Y0063018D02*
G01*
X0054060Y0063018D01*
G01*
X0054060Y0063617D02*
G01*
X0054641Y0063617D01*
G01*
X0054641Y0064215D02*
G01*
X0054060Y0064215D01*
G01*
X0054060Y0064814D02*
G01*
X0054641Y0064814D01*
G01*
X0054641Y0065412D02*
G01*
X0054060Y0065412D01*
G01*
X0057244Y0064215D02*
G01*
X0058161Y0064215D01*
G01*
X0057913Y0064814D02*
G01*
X0057493Y0064814D01*
G01*
X0057613Y0065412D02*
G01*
X0057771Y0065412D01*
G01*
X0053952Y0061821D02*
G01*
X0050639Y0061821D01*
G01*
X0051237Y0061223D02*
G01*
X0053330Y0061223D01*
G01*
X0052871Y0060624D02*
G01*
X0051492Y0060624D01*
G01*
X0051718Y0060026D02*
G01*
X0052523Y0060026D01*
G01*
X0052258Y0059427D02*
G01*
X0051718Y0059427D01*
G01*
X0051706Y0058829D02*
G01*
X0052063Y0058829D01*
G01*
X0051965Y0058230D02*
G01*
X0051458Y0058230D01*
G01*
X0050829Y0049253D02*
G01*
X0064171Y0049253D01*
G01*
X0063375Y0048654D02*
G01*
X0051626Y0048654D01*
G01*
X0052800Y0048056D02*
G01*
X0062200Y0048056D01*
G01*
X0061026Y0047457D02*
G01*
X0053975Y0047457D01*
G01*
X0057255Y0046859D02*
G01*
X0057745Y0046859D01*
D14*
G01*
X0066162Y0062618D03*
D12*
G01*
X0066162Y0062618D02*
G01*
X0066162Y0057500D01*
G01*
X0066162Y0057500D02*
G01*
X0057500Y0057500D01*
X0045000Y0080000D02*
D26*
G01*
X0048642Y0088760D03*
G01*
X0048642Y0094469D03*
G01*
X0054351Y0100768D03*
G01*
X0060847Y0100768D03*
D29*
G01*
X0057500Y0092500D03*
D18*
G01*
X0050231Y0084851D02*
G01*
X0064770Y0084851D01*
G01*
X0065368Y0085450D02*
G01*
X0049632Y0085450D01*
G01*
X0049356Y0085727D02*
G01*
X0050384Y0086153D01*
G01*
X0050384Y0086153D02*
G01*
X0051249Y0087018D01*
G01*
X0051249Y0087018D02*
G01*
X0051718Y0088148D01*
G01*
X0051718Y0088148D02*
G01*
X0051718Y0089372D01*
G01*
X0051718Y0089372D02*
G01*
X0051249Y0090502D01*
G01*
X0051249Y0090502D02*
G01*
X0050384Y0091367D01*
G01*
X0050384Y0091367D02*
G01*
X0049788Y0091614D01*
G01*
X0049788Y0091614D02*
G01*
X0050384Y0091861D01*
G01*
X0050384Y0091861D02*
G01*
X0051249Y0092726D01*
G01*
X0051249Y0092726D02*
G01*
X0051718Y0093857D01*
G01*
X0051718Y0093857D02*
G01*
X0051718Y0095080D01*
G01*
X0051718Y0095080D02*
G01*
X0051249Y0096211D01*
G01*
X0051249Y0096211D02*
G01*
X0050384Y0097076D01*
G01*
X0050384Y0097076D02*
G01*
X0049254Y0097544D01*
G01*
X0049254Y0097544D02*
G01*
X0048231Y0097544D01*
G01*
X0048231Y0097544D02*
G01*
X0048860Y0098778D01*
G01*
X0048860Y0098778D02*
G01*
X0051140Y0101058D01*
G01*
X0051140Y0101058D02*
G01*
X0054060Y0101058D01*
G01*
X0054060Y0101058D02*
G01*
X0054060Y0100477D01*
G01*
X0054060Y0100477D02*
G01*
X0054641Y0100477D01*
G01*
X0054641Y0100477D02*
G01*
X0054641Y0097499D01*
G01*
X0054641Y0097499D02*
G01*
X0054673Y0097499D01*
G01*
X0054673Y0097499D02*
G01*
X0055238Y0097612D01*
G01*
X0055238Y0097612D02*
G01*
X0054575Y0097274D01*
G01*
X0054575Y0097274D02*
G01*
X0053864Y0096758D01*
G01*
X0053864Y0096758D02*
G01*
X0053243Y0096136D01*
G01*
X0053243Y0096136D02*
G01*
X0052727Y0095426D01*
G01*
X0052727Y0095426D02*
G01*
X0052328Y0094643D01*
G01*
X0052328Y0094643D02*
G01*
X0052056Y0093807D01*
G01*
X0052056Y0093807D02*
G01*
X0051919Y0092939D01*
G01*
X0051919Y0092939D02*
G01*
X0051919Y0092800D01*
G01*
X0051919Y0092800D02*
G01*
X0057200Y0092800D01*
G01*
X0057200Y0092800D02*
G01*
X0057200Y0092200D01*
G01*
X0057200Y0092200D02*
G01*
X0051919Y0092200D01*
G01*
X0051919Y0092200D02*
G01*
X0051919Y0092061D01*
G01*
X0051919Y0092061D02*
G01*
X0052056Y0091193D01*
G01*
X0052056Y0091193D02*
G01*
X0052328Y0090358D01*
G01*
X0052328Y0090358D02*
G01*
X0052727Y0089575D01*
G01*
X0052727Y0089575D02*
G01*
X0053243Y0088864D01*
G01*
X0053243Y0088864D02*
G01*
X0053864Y0088243D01*
G01*
X0053864Y0088243D02*
G01*
X0054575Y0087726D01*
G01*
X0054575Y0087726D02*
G01*
X0055358Y0087328D01*
G01*
X0055358Y0087328D02*
G01*
X0056193Y0087056D01*
G01*
X0056193Y0087056D02*
G01*
X0057061Y0086919D01*
G01*
X0057061Y0086919D02*
G01*
X0057200Y0086919D01*
G01*
X0057200Y0086919D02*
G01*
X0057200Y0092200D01*
G01*
X0057200Y0092200D02*
G01*
X0057800Y0092200D01*
G01*
X0057800Y0092200D02*
G01*
X0057800Y0086919D01*
G01*
X0057800Y0086919D02*
G01*
X0057940Y0086919D01*
G01*
X0057940Y0086919D02*
G01*
X0058807Y0087056D01*
G01*
X0058807Y0087056D02*
G01*
X0059643Y0087328D01*
G01*
X0059643Y0087328D02*
G01*
X0060426Y0087726D01*
G01*
X0060426Y0087726D02*
G01*
X0061136Y0088243D01*
G01*
X0061136Y0088243D02*
G01*
X0061758Y0088864D01*
G01*
X0061758Y0088864D02*
G01*
X0062274Y0089575D01*
G01*
X0062274Y0089575D02*
G01*
X0062673Y0090358D01*
G01*
X0062673Y0090358D02*
G01*
X0062944Y0091193D01*
G01*
X0062944Y0091193D02*
G01*
X0063082Y0092061D01*
G01*
X0063082Y0092061D02*
G01*
X0063082Y0092200D01*
G01*
X0063082Y0092200D02*
G01*
X0057800Y0092200D01*
G01*
X0057800Y0092200D02*
G01*
X0057800Y0092800D01*
G01*
X0057800Y0092800D02*
G01*
X0057200Y0092800D01*
G01*
X0057200Y0092800D02*
G01*
X0057200Y0098082D01*
G01*
X0057200Y0098082D02*
G01*
X0057061Y0098082D01*
G01*
X0057061Y0098082D02*
G01*
X0056193Y0097944D01*
G01*
X0056193Y0097944D02*
G01*
X0055643Y0097766D01*
G01*
X0055643Y0097766D02*
G01*
X0055899Y0097871D01*
G01*
X0055899Y0097871D02*
G01*
X0056434Y0098229D01*
G01*
X0056434Y0098229D02*
G01*
X0056889Y0098684D01*
G01*
X0056889Y0098684D02*
G01*
X0057247Y0099220D01*
G01*
X0057247Y0099220D02*
G01*
X0057494Y0099815D01*
G01*
X0057494Y0099815D02*
G01*
X0057619Y0100446D01*
G01*
X0057619Y0100446D02*
G01*
X0057619Y0100477D01*
G01*
X0057619Y0100477D02*
G01*
X0054641Y0100477D01*
G01*
X0054641Y0100477D02*
G01*
X0054641Y0101058D01*
G01*
X0054641Y0101058D02*
G01*
X0057619Y0101058D01*
G01*
X0057619Y0101058D02*
G01*
X0057619Y0101090D01*
G01*
X0057619Y0101090D02*
G01*
X0057494Y0101721D01*
G01*
X0057494Y0101721D02*
G01*
X0057247Y0102316D01*
G01*
X0057247Y0102316D02*
G01*
X0056889Y0102851D01*
G01*
X0056889Y0102851D02*
G01*
X0056689Y0103052D01*
G01*
X0056689Y0103052D02*
G01*
X0057500Y0103180D01*
G01*
X0057500Y0103180D02*
G01*
X0058717Y0102988D01*
G01*
X0058717Y0102988D02*
G01*
X0058239Y0102510D01*
G01*
X0058239Y0102510D02*
G01*
X0057771Y0101380D01*
G01*
X0057771Y0101380D02*
G01*
X0057771Y0100156D01*
G01*
X0057771Y0100156D02*
G01*
X0058239Y0099026D01*
G01*
X0058239Y0099026D02*
G01*
X0059105Y0098161D01*
G01*
X0059105Y0098161D02*
G01*
X0060235Y0097692D01*
G01*
X0060235Y0097692D02*
G01*
X0061459Y0097692D01*
G01*
X0061459Y0097692D02*
G01*
X0062589Y0098161D01*
G01*
X0062589Y0098161D02*
G01*
X0063454Y0099026D01*
G01*
X0063454Y0099026D02*
G01*
X0063922Y0100156D01*
G01*
X0063922Y0100156D02*
G01*
X0063922Y0100996D01*
G01*
X0063922Y0100996D02*
G01*
X0066141Y0098778D01*
G01*
X0066141Y0098778D02*
G01*
X0067658Y0095801D01*
G01*
X0067658Y0095801D02*
G01*
X0068181Y0092500D01*
G01*
X0068181Y0092500D02*
G01*
X0067658Y0089200D01*
G01*
X0067658Y0089200D02*
G01*
X0066141Y0086222D01*
G01*
X0066141Y0086222D02*
G01*
X0066141Y0086222D01*
G01*
X0066141Y0086222D02*
G01*
X0063778Y0083860D01*
G01*
X0063778Y0083860D02*
G01*
X0060801Y0082343D01*
G01*
X0060801Y0082343D02*
G01*
X0057500Y0081820D01*
G01*
X0057500Y0081820D02*
G01*
X0054200Y0082343D01*
G01*
X0054200Y0082343D02*
G01*
X0051223Y0083860D01*
G01*
X0051223Y0083860D02*
G01*
X0049356Y0085727D01*
G01*
X0050132Y0086048D02*
G01*
X0065967Y0086048D01*
G01*
X0066357Y0086647D02*
G01*
X0050878Y0086647D01*
G01*
X0051344Y0087245D02*
G01*
X0055611Y0087245D01*
G01*
X0054413Y0087844D02*
G01*
X0051591Y0087844D01*
G01*
X0051718Y0088442D02*
G01*
X0053665Y0088442D01*
G01*
X0053115Y0089041D02*
G01*
X0051718Y0089041D01*
G01*
X0051607Y0089639D02*
G01*
X0052694Y0089639D01*
G01*
X0052389Y0090238D02*
G01*
X0051359Y0090238D01*
G01*
X0050915Y0090836D02*
G01*
X0052172Y0090836D01*
G01*
X0052018Y0091435D02*
G01*
X0050221Y0091435D01*
G01*
X0050556Y0092033D02*
G01*
X0051923Y0092033D01*
G01*
X0051155Y0092632D02*
G01*
X0057200Y0092632D01*
G01*
X0057200Y0093230D02*
G01*
X0057800Y0093230D01*
G01*
X0057800Y0092800D02*
G01*
X0057800Y0098082D01*
G01*
X0057800Y0098082D02*
G01*
X0057940Y0098082D01*
G01*
X0057940Y0098082D02*
G01*
X0058807Y0097944D01*
G01*
X0058807Y0097944D02*
G01*
X0059643Y0097673D01*
G01*
X0059643Y0097673D02*
G01*
X0060426Y0097274D01*
G01*
X0060426Y0097274D02*
G01*
X0061136Y0096758D01*
G01*
X0061136Y0096758D02*
G01*
X0061758Y0096136D01*
G01*
X0061758Y0096136D02*
G01*
X0062274Y0095426D01*
G01*
X0062274Y0095426D02*
G01*
X0062673Y0094643D01*
G01*
X0062673Y0094643D02*
G01*
X0062944Y0093807D01*
G01*
X0062944Y0093807D02*
G01*
X0063082Y0092939D01*
G01*
X0063082Y0092939D02*
G01*
X0063082Y0092800D01*
G01*
X0063082Y0092800D02*
G01*
X0057800Y0092800D01*
G01*
X0057800Y0092632D02*
G01*
X0068160Y0092632D01*
G01*
X0068107Y0092033D02*
G01*
X0063077Y0092033D01*
G01*
X0062983Y0091435D02*
G01*
X0068012Y0091435D01*
G01*
X0067917Y0090836D02*
G01*
X0062828Y0090836D01*
G01*
X0062612Y0090238D02*
G01*
X0067822Y0090238D01*
G01*
X0067728Y0089639D02*
G01*
X0062307Y0089639D01*
G01*
X0061886Y0089041D02*
G01*
X0067577Y0089041D01*
G01*
X0067658Y0089200D02*
G01*
X0067658Y0089200D01*
G01*
X0067272Y0088442D02*
G01*
X0061336Y0088442D01*
G01*
X0060587Y0087844D02*
G01*
X0066967Y0087844D01*
G01*
X0066662Y0087245D02*
G01*
X0059389Y0087245D01*
G01*
X0057800Y0087245D02*
G01*
X0057200Y0087245D01*
G01*
X0057200Y0087844D02*
G01*
X0057800Y0087844D01*
G01*
X0057800Y0088442D02*
G01*
X0057200Y0088442D01*
G01*
X0057200Y0089041D02*
G01*
X0057800Y0089041D01*
G01*
X0057800Y0089639D02*
G01*
X0057200Y0089639D01*
G01*
X0057200Y0090238D02*
G01*
X0057800Y0090238D01*
G01*
X0057800Y0090836D02*
G01*
X0057200Y0090836D01*
G01*
X0057200Y0091435D02*
G01*
X0057800Y0091435D01*
G01*
X0057800Y0092033D02*
G01*
X0057200Y0092033D01*
G01*
X0057200Y0093829D02*
G01*
X0057800Y0093829D01*
G01*
X0057800Y0094427D02*
G01*
X0057200Y0094427D01*
G01*
X0057200Y0095026D02*
G01*
X0057800Y0095026D01*
G01*
X0057800Y0095624D02*
G01*
X0057200Y0095624D01*
G01*
X0057200Y0096223D02*
G01*
X0057800Y0096223D01*
G01*
X0057800Y0096821D02*
G01*
X0057200Y0096821D01*
G01*
X0057200Y0097420D02*
G01*
X0057800Y0097420D01*
G01*
X0057800Y0098018D02*
G01*
X0057200Y0098018D01*
G01*
X0056662Y0098018D02*
G01*
X0056119Y0098018D01*
G01*
X0056822Y0098617D02*
G01*
X0058648Y0098617D01*
G01*
X0058339Y0098018D02*
G01*
X0059448Y0098018D01*
G01*
X0060139Y0097420D02*
G01*
X0066833Y0097420D01*
G01*
X0067138Y0096821D02*
G01*
X0061048Y0096821D01*
G01*
X0061671Y0096223D02*
G01*
X0067443Y0096223D01*
G01*
X0067686Y0095624D02*
G01*
X0062130Y0095624D01*
G01*
X0062478Y0095026D02*
G01*
X0067781Y0095026D01*
G01*
X0067875Y0094427D02*
G01*
X0062743Y0094427D01*
G01*
X0062937Y0093829D02*
G01*
X0067970Y0093829D01*
G01*
X0068065Y0093230D02*
G01*
X0063036Y0093230D01*
G01*
X0062246Y0098018D02*
G01*
X0066528Y0098018D01*
G01*
X0066223Y0098617D02*
G01*
X0063045Y0098617D01*
G01*
X0063533Y0099215D02*
G01*
X0065703Y0099215D01*
G01*
X0065105Y0099814D02*
G01*
X0063781Y0099814D01*
G01*
X0063922Y0100412D02*
G01*
X0064506Y0100412D01*
G01*
X0058536Y0102807D02*
G01*
X0056919Y0102807D01*
G01*
X0057292Y0102208D02*
G01*
X0058114Y0102208D01*
G01*
X0057866Y0101610D02*
G01*
X0057516Y0101610D01*
G01*
X0057771Y0101011D02*
G01*
X0054641Y0101011D01*
G01*
X0054060Y0101011D02*
G01*
X0051093Y0101011D01*
G01*
X0051082Y0100477D02*
G01*
X0051082Y0100446D01*
G01*
X0051082Y0100446D02*
G01*
X0051208Y0099815D01*
G01*
X0051208Y0099815D02*
G01*
X0051454Y0099220D01*
G01*
X0051454Y0099220D02*
G01*
X0051812Y0098684D01*
G01*
X0051812Y0098684D02*
G01*
X0052267Y0098229D01*
G01*
X0052267Y0098229D02*
G01*
X0052802Y0097871D01*
G01*
X0052802Y0097871D02*
G01*
X0053397Y0097625D01*
G01*
X0053397Y0097625D02*
G01*
X0054029Y0097499D01*
G01*
X0054029Y0097499D02*
G01*
X0054060Y0097499D01*
G01*
X0054060Y0097499D02*
G01*
X0054060Y0100477D01*
G01*
X0054060Y0100477D02*
G01*
X0051082Y0100477D01*
G01*
X0051089Y0100412D02*
G01*
X0050494Y0100412D01*
G01*
X0049896Y0099814D02*
G01*
X0051208Y0099814D01*
G01*
X0051457Y0099215D02*
G01*
X0049297Y0099215D01*
G01*
X0048778Y0098617D02*
G01*
X0051879Y0098617D01*
G01*
X0052582Y0098018D02*
G01*
X0048473Y0098018D01*
G01*
X0049554Y0097420D02*
G01*
X0054862Y0097420D01*
G01*
X0054641Y0098018D02*
G01*
X0054060Y0098018D01*
G01*
X0054060Y0098617D02*
G01*
X0054641Y0098617D01*
G01*
X0054641Y0099215D02*
G01*
X0054060Y0099215D01*
G01*
X0054060Y0099814D02*
G01*
X0054641Y0099814D01*
G01*
X0054641Y0100412D02*
G01*
X0054060Y0100412D01*
G01*
X0057244Y0099215D02*
G01*
X0058161Y0099215D01*
G01*
X0057913Y0099814D02*
G01*
X0057493Y0099814D01*
G01*
X0057613Y0100412D02*
G01*
X0057771Y0100412D01*
G01*
X0053952Y0096821D02*
G01*
X0050639Y0096821D01*
G01*
X0051237Y0096223D02*
G01*
X0053330Y0096223D01*
G01*
X0052871Y0095624D02*
G01*
X0051492Y0095624D01*
G01*
X0051718Y0095026D02*
G01*
X0052523Y0095026D01*
G01*
X0052258Y0094427D02*
G01*
X0051718Y0094427D01*
G01*
X0051706Y0093829D02*
G01*
X0052063Y0093829D01*
G01*
X0051965Y0093230D02*
G01*
X0051458Y0093230D01*
G01*
X0050829Y0084253D02*
G01*
X0064171Y0084253D01*
G01*
X0063375Y0083654D02*
G01*
X0051626Y0083654D01*
G01*
X0052800Y0083056D02*
G01*
X0062200Y0083056D01*
G01*
X0061026Y0082457D02*
G01*
X0053975Y0082457D01*
G01*
X0057255Y0081859D02*
G01*
X0057745Y0081859D01*
D14*
G01*
X0066162Y0097618D03*
D12*
G01*
X0066162Y0097618D02*
G01*
X0066162Y0092500D01*
G01*
X0066162Y0092500D02*
G01*
X0057500Y0092500D01*
X0080000Y0010000D02*
D26*
G01*
X0083642Y0018760D03*
G01*
X0083642Y0024469D03*
G01*
X0089351Y0030768D03*
G01*
X0095847Y0030768D03*
D29*
G01*
X0092500Y0022500D03*
D18*
G01*
X0085231Y0014851D02*
G01*
X0099770Y0014851D01*
G01*
X0100368Y0015450D02*
G01*
X0084632Y0015450D01*
G01*
X0084356Y0015727D02*
G01*
X0085384Y0016153D01*
G01*
X0085384Y0016153D02*
G01*
X0086249Y0017018D01*
G01*
X0086249Y0017018D02*
G01*
X0086718Y0018148D01*
G01*
X0086718Y0018148D02*
G01*
X0086718Y0019372D01*
G01*
X0086718Y0019372D02*
G01*
X0086249Y0020502D01*
G01*
X0086249Y0020502D02*
G01*
X0085384Y0021367D01*
G01*
X0085384Y0021367D02*
G01*
X0084788Y0021614D01*
G01*
X0084788Y0021614D02*
G01*
X0085384Y0021861D01*
G01*
X0085384Y0021861D02*
G01*
X0086249Y0022726D01*
G01*
X0086249Y0022726D02*
G01*
X0086718Y0023857D01*
G01*
X0086718Y0023857D02*
G01*
X0086718Y0025080D01*
G01*
X0086718Y0025080D02*
G01*
X0086249Y0026211D01*
G01*
X0086249Y0026211D02*
G01*
X0085384Y0027076D01*
G01*
X0085384Y0027076D02*
G01*
X0084254Y0027544D01*
G01*
X0084254Y0027544D02*
G01*
X0083231Y0027544D01*
G01*
X0083231Y0027544D02*
G01*
X0083860Y0028778D01*
G01*
X0083860Y0028778D02*
G01*
X0086140Y0031058D01*
G01*
X0086140Y0031058D02*
G01*
X0089060Y0031058D01*
G01*
X0089060Y0031058D02*
G01*
X0089060Y0030477D01*
G01*
X0089060Y0030477D02*
G01*
X0089641Y0030477D01*
G01*
X0089641Y0030477D02*
G01*
X0089641Y0027499D01*
G01*
X0089641Y0027499D02*
G01*
X0089673Y0027499D01*
G01*
X0089673Y0027499D02*
G01*
X0090238Y0027612D01*
G01*
X0090238Y0027612D02*
G01*
X0089575Y0027274D01*
G01*
X0089575Y0027274D02*
G01*
X0088864Y0026758D01*
G01*
X0088864Y0026758D02*
G01*
X0088243Y0026136D01*
G01*
X0088243Y0026136D02*
G01*
X0087727Y0025426D01*
G01*
X0087727Y0025426D02*
G01*
X0087328Y0024643D01*
G01*
X0087328Y0024643D02*
G01*
X0087056Y0023807D01*
G01*
X0087056Y0023807D02*
G01*
X0086919Y0022939D01*
G01*
X0086919Y0022939D02*
G01*
X0086919Y0022800D01*
G01*
X0086919Y0022800D02*
G01*
X0092200Y0022800D01*
G01*
X0092200Y0022800D02*
G01*
X0092200Y0022200D01*
G01*
X0092200Y0022200D02*
G01*
X0086919Y0022200D01*
G01*
X0086919Y0022200D02*
G01*
X0086919Y0022061D01*
G01*
X0086919Y0022061D02*
G01*
X0087056Y0021193D01*
G01*
X0087056Y0021193D02*
G01*
X0087328Y0020358D01*
G01*
X0087328Y0020358D02*
G01*
X0087727Y0019575D01*
G01*
X0087727Y0019575D02*
G01*
X0088243Y0018864D01*
G01*
X0088243Y0018864D02*
G01*
X0088864Y0018243D01*
G01*
X0088864Y0018243D02*
G01*
X0089575Y0017726D01*
G01*
X0089575Y0017726D02*
G01*
X0090358Y0017328D01*
G01*
X0090358Y0017328D02*
G01*
X0091193Y0017056D01*
G01*
X0091193Y0017056D02*
G01*
X0092061Y0016919D01*
G01*
X0092061Y0016919D02*
G01*
X0092200Y0016919D01*
G01*
X0092200Y0016919D02*
G01*
X0092200Y0022200D01*
G01*
X0092200Y0022200D02*
G01*
X0092800Y0022200D01*
G01*
X0092800Y0022200D02*
G01*
X0092800Y0016919D01*
G01*
X0092800Y0016919D02*
G01*
X0092940Y0016919D01*
G01*
X0092940Y0016919D02*
G01*
X0093807Y0017056D01*
G01*
X0093807Y0017056D02*
G01*
X0094643Y0017328D01*
G01*
X0094643Y0017328D02*
G01*
X0095426Y0017726D01*
G01*
X0095426Y0017726D02*
G01*
X0096136Y0018243D01*
G01*
X0096136Y0018243D02*
G01*
X0096758Y0018864D01*
G01*
X0096758Y0018864D02*
G01*
X0097274Y0019575D01*
G01*
X0097274Y0019575D02*
G01*
X0097673Y0020358D01*
G01*
X0097673Y0020358D02*
G01*
X0097944Y0021193D01*
G01*
X0097944Y0021193D02*
G01*
X0098082Y0022061D01*
G01*
X0098082Y0022061D02*
G01*
X0098082Y0022200D01*
G01*
X0098082Y0022200D02*
G01*
X0092800Y0022200D01*
G01*
X0092800Y0022200D02*
G01*
X0092800Y0022800D01*
G01*
X0092800Y0022800D02*
G01*
X0092200Y0022800D01*
G01*
X0092200Y0022800D02*
G01*
X0092200Y0028082D01*
G01*
X0092200Y0028082D02*
G01*
X0092061Y0028082D01*
G01*
X0092061Y0028082D02*
G01*
X0091193Y0027944D01*
G01*
X0091193Y0027944D02*
G01*
X0090643Y0027766D01*
G01*
X0090643Y0027766D02*
G01*
X0090899Y0027871D01*
G01*
X0090899Y0027871D02*
G01*
X0091434Y0028229D01*
G01*
X0091434Y0028229D02*
G01*
X0091889Y0028684D01*
G01*
X0091889Y0028684D02*
G01*
X0092247Y0029220D01*
G01*
X0092247Y0029220D02*
G01*
X0092494Y0029815D01*
G01*
X0092494Y0029815D02*
G01*
X0092619Y0030446D01*
G01*
X0092619Y0030446D02*
G01*
X0092619Y0030477D01*
G01*
X0092619Y0030477D02*
G01*
X0089641Y0030477D01*
G01*
X0089641Y0030477D02*
G01*
X0089641Y0031058D01*
G01*
X0089641Y0031058D02*
G01*
X0092619Y0031058D01*
G01*
X0092619Y0031058D02*
G01*
X0092619Y0031090D01*
G01*
X0092619Y0031090D02*
G01*
X0092494Y0031721D01*
G01*
X0092494Y0031721D02*
G01*
X0092247Y0032316D01*
G01*
X0092247Y0032316D02*
G01*
X0091889Y0032851D01*
G01*
X0091889Y0032851D02*
G01*
X0091689Y0033052D01*
G01*
X0091689Y0033052D02*
G01*
X0092500Y0033180D01*
G01*
X0092500Y0033180D02*
G01*
X0093717Y0032988D01*
G01*
X0093717Y0032988D02*
G01*
X0093239Y0032510D01*
G01*
X0093239Y0032510D02*
G01*
X0092771Y0031380D01*
G01*
X0092771Y0031380D02*
G01*
X0092771Y0030156D01*
G01*
X0092771Y0030156D02*
G01*
X0093239Y0029026D01*
G01*
X0093239Y0029026D02*
G01*
X0094105Y0028161D01*
G01*
X0094105Y0028161D02*
G01*
X0095235Y0027692D01*
G01*
X0095235Y0027692D02*
G01*
X0096459Y0027692D01*
G01*
X0096459Y0027692D02*
G01*
X0097589Y0028161D01*
G01*
X0097589Y0028161D02*
G01*
X0098454Y0029026D01*
G01*
X0098454Y0029026D02*
G01*
X0098922Y0030156D01*
G01*
X0098922Y0030156D02*
G01*
X0098922Y0030996D01*
G01*
X0098922Y0030996D02*
G01*
X0101141Y0028778D01*
G01*
X0101141Y0028778D02*
G01*
X0102658Y0025801D01*
G01*
X0102658Y0025801D02*
G01*
X0103181Y0022500D01*
G01*
X0103181Y0022500D02*
G01*
X0102658Y0019200D01*
G01*
X0102658Y0019200D02*
G01*
X0101141Y0016222D01*
G01*
X0101141Y0016222D02*
G01*
X0101141Y0016222D01*
G01*
X0101141Y0016222D02*
G01*
X0098778Y0013860D01*
G01*
X0098778Y0013860D02*
G01*
X0095801Y0012343D01*
G01*
X0095801Y0012343D02*
G01*
X0092500Y0011820D01*
G01*
X0092500Y0011820D02*
G01*
X0089200Y0012343D01*
G01*
X0089200Y0012343D02*
G01*
X0086223Y0013860D01*
G01*
X0086223Y0013860D02*
G01*
X0084356Y0015727D01*
G01*
X0085132Y0016048D02*
G01*
X0100967Y0016048D01*
G01*
X0101357Y0016647D02*
G01*
X0085878Y0016647D01*
G01*
X0086344Y0017245D02*
G01*
X0090611Y0017245D01*
G01*
X0089413Y0017844D02*
G01*
X0086591Y0017844D01*
G01*
X0086718Y0018442D02*
G01*
X0088665Y0018442D01*
G01*
X0088115Y0019041D02*
G01*
X0086718Y0019041D01*
G01*
X0086607Y0019639D02*
G01*
X0087694Y0019639D01*
G01*
X0087389Y0020238D02*
G01*
X0086359Y0020238D01*
G01*
X0085915Y0020836D02*
G01*
X0087172Y0020836D01*
G01*
X0087018Y0021435D02*
G01*
X0085221Y0021435D01*
G01*
X0085556Y0022033D02*
G01*
X0086923Y0022033D01*
G01*
X0086155Y0022632D02*
G01*
X0092200Y0022632D01*
G01*
X0092200Y0023230D02*
G01*
X0092800Y0023230D01*
G01*
X0092800Y0022800D02*
G01*
X0092800Y0028082D01*
G01*
X0092800Y0028082D02*
G01*
X0092940Y0028082D01*
G01*
X0092940Y0028082D02*
G01*
X0093807Y0027944D01*
G01*
X0093807Y0027944D02*
G01*
X0094643Y0027673D01*
G01*
X0094643Y0027673D02*
G01*
X0095426Y0027274D01*
G01*
X0095426Y0027274D02*
G01*
X0096136Y0026758D01*
G01*
X0096136Y0026758D02*
G01*
X0096758Y0026136D01*
G01*
X0096758Y0026136D02*
G01*
X0097274Y0025426D01*
G01*
X0097274Y0025426D02*
G01*
X0097673Y0024643D01*
G01*
X0097673Y0024643D02*
G01*
X0097944Y0023807D01*
G01*
X0097944Y0023807D02*
G01*
X0098082Y0022939D01*
G01*
X0098082Y0022939D02*
G01*
X0098082Y0022800D01*
G01*
X0098082Y0022800D02*
G01*
X0092800Y0022800D01*
G01*
X0092800Y0022632D02*
G01*
X0103160Y0022632D01*
G01*
X0103107Y0022033D02*
G01*
X0098077Y0022033D01*
G01*
X0097983Y0021435D02*
G01*
X0103012Y0021435D01*
G01*
X0102917Y0020836D02*
G01*
X0097828Y0020836D01*
G01*
X0097612Y0020238D02*
G01*
X0102822Y0020238D01*
G01*
X0102728Y0019639D02*
G01*
X0097307Y0019639D01*
G01*
X0096886Y0019041D02*
G01*
X0102577Y0019041D01*
G01*
X0102658Y0019200D02*
G01*
X0102658Y0019200D01*
G01*
X0102272Y0018442D02*
G01*
X0096336Y0018442D01*
G01*
X0095587Y0017844D02*
G01*
X0101967Y0017844D01*
G01*
X0101662Y0017245D02*
G01*
X0094389Y0017245D01*
G01*
X0092800Y0017245D02*
G01*
X0092200Y0017245D01*
G01*
X0092200Y0017844D02*
G01*
X0092800Y0017844D01*
G01*
X0092800Y0018442D02*
G01*
X0092200Y0018442D01*
G01*
X0092200Y0019041D02*
G01*
X0092800Y0019041D01*
G01*
X0092800Y0019639D02*
G01*
X0092200Y0019639D01*
G01*
X0092200Y0020238D02*
G01*
X0092800Y0020238D01*
G01*
X0092800Y0020836D02*
G01*
X0092200Y0020836D01*
G01*
X0092200Y0021435D02*
G01*
X0092800Y0021435D01*
G01*
X0092800Y0022033D02*
G01*
X0092200Y0022033D01*
G01*
X0092200Y0023829D02*
G01*
X0092800Y0023829D01*
G01*
X0092800Y0024427D02*
G01*
X0092200Y0024427D01*
G01*
X0092200Y0025026D02*
G01*
X0092800Y0025026D01*
G01*
X0092800Y0025624D02*
G01*
X0092200Y0025624D01*
G01*
X0092200Y0026223D02*
G01*
X0092800Y0026223D01*
G01*
X0092800Y0026821D02*
G01*
X0092200Y0026821D01*
G01*
X0092200Y0027420D02*
G01*
X0092800Y0027420D01*
G01*
X0092800Y0028018D02*
G01*
X0092200Y0028018D01*
G01*
X0091662Y0028018D02*
G01*
X0091119Y0028018D01*
G01*
X0091822Y0028617D02*
G01*
X0093648Y0028617D01*
G01*
X0093339Y0028018D02*
G01*
X0094448Y0028018D01*
G01*
X0095139Y0027420D02*
G01*
X0101833Y0027420D01*
G01*
X0102138Y0026821D02*
G01*
X0096048Y0026821D01*
G01*
X0096671Y0026223D02*
G01*
X0102443Y0026223D01*
G01*
X0102686Y0025624D02*
G01*
X0097130Y0025624D01*
G01*
X0097478Y0025026D02*
G01*
X0102781Y0025026D01*
G01*
X0102875Y0024427D02*
G01*
X0097743Y0024427D01*
G01*
X0097937Y0023829D02*
G01*
X0102970Y0023829D01*
G01*
X0103065Y0023230D02*
G01*
X0098036Y0023230D01*
G01*
X0097246Y0028018D02*
G01*
X0101528Y0028018D01*
G01*
X0101223Y0028617D02*
G01*
X0098045Y0028617D01*
G01*
X0098533Y0029215D02*
G01*
X0100703Y0029215D01*
G01*
X0100105Y0029814D02*
G01*
X0098781Y0029814D01*
G01*
X0098922Y0030412D02*
G01*
X0099506Y0030412D01*
G01*
X0093536Y0032807D02*
G01*
X0091919Y0032807D01*
G01*
X0092292Y0032208D02*
G01*
X0093114Y0032208D01*
G01*
X0092866Y0031610D02*
G01*
X0092516Y0031610D01*
G01*
X0092771Y0031011D02*
G01*
X0089641Y0031011D01*
G01*
X0089060Y0031011D02*
G01*
X0086093Y0031011D01*
G01*
X0086082Y0030477D02*
G01*
X0086082Y0030446D01*
G01*
X0086082Y0030446D02*
G01*
X0086208Y0029815D01*
G01*
X0086208Y0029815D02*
G01*
X0086454Y0029220D01*
G01*
X0086454Y0029220D02*
G01*
X0086812Y0028684D01*
G01*
X0086812Y0028684D02*
G01*
X0087267Y0028229D01*
G01*
X0087267Y0028229D02*
G01*
X0087802Y0027871D01*
G01*
X0087802Y0027871D02*
G01*
X0088397Y0027625D01*
G01*
X0088397Y0027625D02*
G01*
X0089029Y0027499D01*
G01*
X0089029Y0027499D02*
G01*
X0089060Y0027499D01*
G01*
X0089060Y0027499D02*
G01*
X0089060Y0030477D01*
G01*
X0089060Y0030477D02*
G01*
X0086082Y0030477D01*
G01*
X0086089Y0030412D02*
G01*
X0085494Y0030412D01*
G01*
X0084896Y0029814D02*
G01*
X0086208Y0029814D01*
G01*
X0086457Y0029215D02*
G01*
X0084297Y0029215D01*
G01*
X0083778Y0028617D02*
G01*
X0086879Y0028617D01*
G01*
X0087582Y0028018D02*
G01*
X0083473Y0028018D01*
G01*
X0084554Y0027420D02*
G01*
X0089862Y0027420D01*
G01*
X0089641Y0028018D02*
G01*
X0089060Y0028018D01*
G01*
X0089060Y0028617D02*
G01*
X0089641Y0028617D01*
G01*
X0089641Y0029215D02*
G01*
X0089060Y0029215D01*
G01*
X0089060Y0029814D02*
G01*
X0089641Y0029814D01*
G01*
X0089641Y0030412D02*
G01*
X0089060Y0030412D01*
G01*
X0092244Y0029215D02*
G01*
X0093161Y0029215D01*
G01*
X0092913Y0029814D02*
G01*
X0092493Y0029814D01*
G01*
X0092613Y0030412D02*
G01*
X0092771Y0030412D01*
G01*
X0088952Y0026821D02*
G01*
X0085639Y0026821D01*
G01*
X0086237Y0026223D02*
G01*
X0088330Y0026223D01*
G01*
X0087871Y0025624D02*
G01*
X0086492Y0025624D01*
G01*
X0086718Y0025026D02*
G01*
X0087523Y0025026D01*
G01*
X0087258Y0024427D02*
G01*
X0086718Y0024427D01*
G01*
X0086706Y0023829D02*
G01*
X0087063Y0023829D01*
G01*
X0086965Y0023230D02*
G01*
X0086458Y0023230D01*
G01*
X0085829Y0014253D02*
G01*
X0099171Y0014253D01*
G01*
X0098375Y0013654D02*
G01*
X0086626Y0013654D01*
G01*
X0087800Y0013056D02*
G01*
X0097200Y0013056D01*
G01*
X0096026Y0012457D02*
G01*
X0088975Y0012457D01*
G01*
X0092255Y0011859D02*
G01*
X0092745Y0011859D01*
D14*
G01*
X0101162Y0027618D03*
D12*
G01*
X0101162Y0027618D02*
G01*
X0101162Y0022500D01*
G01*
X0101162Y0022500D02*
G01*
X0092500Y0022500D01*
X0080000Y0045000D02*
D26*
G01*
X0083642Y0053760D03*
G01*
X0083642Y0059469D03*
G01*
X0089351Y0065768D03*
G01*
X0095847Y0065768D03*
D29*
G01*
X0092500Y0057500D03*
D18*
G01*
X0085231Y0049851D02*
G01*
X0099770Y0049851D01*
G01*
X0100368Y0050450D02*
G01*
X0084632Y0050450D01*
G01*
X0084356Y0050727D02*
G01*
X0085384Y0051153D01*
G01*
X0085384Y0051153D02*
G01*
X0086249Y0052018D01*
G01*
X0086249Y0052018D02*
G01*
X0086718Y0053148D01*
G01*
X0086718Y0053148D02*
G01*
X0086718Y0054372D01*
G01*
X0086718Y0054372D02*
G01*
X0086249Y0055502D01*
G01*
X0086249Y0055502D02*
G01*
X0085384Y0056367D01*
G01*
X0085384Y0056367D02*
G01*
X0084788Y0056614D01*
G01*
X0084788Y0056614D02*
G01*
X0085384Y0056861D01*
G01*
X0085384Y0056861D02*
G01*
X0086249Y0057726D01*
G01*
X0086249Y0057726D02*
G01*
X0086718Y0058857D01*
G01*
X0086718Y0058857D02*
G01*
X0086718Y0060080D01*
G01*
X0086718Y0060080D02*
G01*
X0086249Y0061211D01*
G01*
X0086249Y0061211D02*
G01*
X0085384Y0062076D01*
G01*
X0085384Y0062076D02*
G01*
X0084254Y0062544D01*
G01*
X0084254Y0062544D02*
G01*
X0083231Y0062544D01*
G01*
X0083231Y0062544D02*
G01*
X0083860Y0063778D01*
G01*
X0083860Y0063778D02*
G01*
X0086140Y0066058D01*
G01*
X0086140Y0066058D02*
G01*
X0089060Y0066058D01*
G01*
X0089060Y0066058D02*
G01*
X0089060Y0065477D01*
G01*
X0089060Y0065477D02*
G01*
X0089641Y0065477D01*
G01*
X0089641Y0065477D02*
G01*
X0089641Y0062499D01*
G01*
X0089641Y0062499D02*
G01*
X0089673Y0062499D01*
G01*
X0089673Y0062499D02*
G01*
X0090238Y0062612D01*
G01*
X0090238Y0062612D02*
G01*
X0089575Y0062274D01*
G01*
X0089575Y0062274D02*
G01*
X0088864Y0061758D01*
G01*
X0088864Y0061758D02*
G01*
X0088243Y0061136D01*
G01*
X0088243Y0061136D02*
G01*
X0087727Y0060426D01*
G01*
X0087727Y0060426D02*
G01*
X0087328Y0059643D01*
G01*
X0087328Y0059643D02*
G01*
X0087056Y0058807D01*
G01*
X0087056Y0058807D02*
G01*
X0086919Y0057939D01*
G01*
X0086919Y0057939D02*
G01*
X0086919Y0057800D01*
G01*
X0086919Y0057800D02*
G01*
X0092200Y0057800D01*
G01*
X0092200Y0057800D02*
G01*
X0092200Y0057200D01*
G01*
X0092200Y0057200D02*
G01*
X0086919Y0057200D01*
G01*
X0086919Y0057200D02*
G01*
X0086919Y0057061D01*
G01*
X0086919Y0057061D02*
G01*
X0087056Y0056193D01*
G01*
X0087056Y0056193D02*
G01*
X0087328Y0055358D01*
G01*
X0087328Y0055358D02*
G01*
X0087727Y0054575D01*
G01*
X0087727Y0054575D02*
G01*
X0088243Y0053864D01*
G01*
X0088243Y0053864D02*
G01*
X0088864Y0053243D01*
G01*
X0088864Y0053243D02*
G01*
X0089575Y0052726D01*
G01*
X0089575Y0052726D02*
G01*
X0090358Y0052328D01*
G01*
X0090358Y0052328D02*
G01*
X0091193Y0052056D01*
G01*
X0091193Y0052056D02*
G01*
X0092061Y0051919D01*
G01*
X0092061Y0051919D02*
G01*
X0092200Y0051919D01*
G01*
X0092200Y0051919D02*
G01*
X0092200Y0057200D01*
G01*
X0092200Y0057200D02*
G01*
X0092800Y0057200D01*
G01*
X0092800Y0057200D02*
G01*
X0092800Y0051919D01*
G01*
X0092800Y0051919D02*
G01*
X0092940Y0051919D01*
G01*
X0092940Y0051919D02*
G01*
X0093807Y0052056D01*
G01*
X0093807Y0052056D02*
G01*
X0094643Y0052328D01*
G01*
X0094643Y0052328D02*
G01*
X0095426Y0052726D01*
G01*
X0095426Y0052726D02*
G01*
X0096136Y0053243D01*
G01*
X0096136Y0053243D02*
G01*
X0096758Y0053864D01*
G01*
X0096758Y0053864D02*
G01*
X0097274Y0054575D01*
G01*
X0097274Y0054575D02*
G01*
X0097673Y0055358D01*
G01*
X0097673Y0055358D02*
G01*
X0097944Y0056193D01*
G01*
X0097944Y0056193D02*
G01*
X0098082Y0057061D01*
G01*
X0098082Y0057061D02*
G01*
X0098082Y0057200D01*
G01*
X0098082Y0057200D02*
G01*
X0092800Y0057200D01*
G01*
X0092800Y0057200D02*
G01*
X0092800Y0057800D01*
G01*
X0092800Y0057800D02*
G01*
X0092200Y0057800D01*
G01*
X0092200Y0057800D02*
G01*
X0092200Y0063082D01*
G01*
X0092200Y0063082D02*
G01*
X0092061Y0063082D01*
G01*
X0092061Y0063082D02*
G01*
X0091193Y0062944D01*
G01*
X0091193Y0062944D02*
G01*
X0090643Y0062766D01*
G01*
X0090643Y0062766D02*
G01*
X0090899Y0062871D01*
G01*
X0090899Y0062871D02*
G01*
X0091434Y0063229D01*
G01*
X0091434Y0063229D02*
G01*
X0091889Y0063684D01*
G01*
X0091889Y0063684D02*
G01*
X0092247Y0064220D01*
G01*
X0092247Y0064220D02*
G01*
X0092494Y0064815D01*
G01*
X0092494Y0064815D02*
G01*
X0092619Y0065446D01*
G01*
X0092619Y0065446D02*
G01*
X0092619Y0065477D01*
G01*
X0092619Y0065477D02*
G01*
X0089641Y0065477D01*
G01*
X0089641Y0065477D02*
G01*
X0089641Y0066058D01*
G01*
X0089641Y0066058D02*
G01*
X0092619Y0066058D01*
G01*
X0092619Y0066058D02*
G01*
X0092619Y0066090D01*
G01*
X0092619Y0066090D02*
G01*
X0092494Y0066721D01*
G01*
X0092494Y0066721D02*
G01*
X0092247Y0067316D01*
G01*
X0092247Y0067316D02*
G01*
X0091889Y0067851D01*
G01*
X0091889Y0067851D02*
G01*
X0091689Y0068052D01*
G01*
X0091689Y0068052D02*
G01*
X0092500Y0068180D01*
G01*
X0092500Y0068180D02*
G01*
X0093717Y0067988D01*
G01*
X0093717Y0067988D02*
G01*
X0093239Y0067510D01*
G01*
X0093239Y0067510D02*
G01*
X0092771Y0066380D01*
G01*
X0092771Y0066380D02*
G01*
X0092771Y0065156D01*
G01*
X0092771Y0065156D02*
G01*
X0093239Y0064026D01*
G01*
X0093239Y0064026D02*
G01*
X0094105Y0063161D01*
G01*
X0094105Y0063161D02*
G01*
X0095235Y0062692D01*
G01*
X0095235Y0062692D02*
G01*
X0096459Y0062692D01*
G01*
X0096459Y0062692D02*
G01*
X0097589Y0063161D01*
G01*
X0097589Y0063161D02*
G01*
X0098454Y0064026D01*
G01*
X0098454Y0064026D02*
G01*
X0098922Y0065156D01*
G01*
X0098922Y0065156D02*
G01*
X0098922Y0065996D01*
G01*
X0098922Y0065996D02*
G01*
X0101141Y0063778D01*
G01*
X0101141Y0063778D02*
G01*
X0102658Y0060801D01*
G01*
X0102658Y0060801D02*
G01*
X0103181Y0057500D01*
G01*
X0103181Y0057500D02*
G01*
X0102658Y0054200D01*
G01*
X0102658Y0054200D02*
G01*
X0101141Y0051222D01*
G01*
X0101141Y0051222D02*
G01*
X0101141Y0051222D01*
G01*
X0101141Y0051222D02*
G01*
X0098778Y0048860D01*
G01*
X0098778Y0048860D02*
G01*
X0095801Y0047343D01*
G01*
X0095801Y0047343D02*
G01*
X0092500Y0046820D01*
G01*
X0092500Y0046820D02*
G01*
X0089200Y0047343D01*
G01*
X0089200Y0047343D02*
G01*
X0086223Y0048860D01*
G01*
X0086223Y0048860D02*
G01*
X0084356Y0050727D01*
G01*
X0085132Y0051048D02*
G01*
X0100967Y0051048D01*
G01*
X0101357Y0051647D02*
G01*
X0085878Y0051647D01*
G01*
X0086344Y0052245D02*
G01*
X0090611Y0052245D01*
G01*
X0089413Y0052844D02*
G01*
X0086591Y0052844D01*
G01*
X0086718Y0053442D02*
G01*
X0088665Y0053442D01*
G01*
X0088115Y0054041D02*
G01*
X0086718Y0054041D01*
G01*
X0086607Y0054639D02*
G01*
X0087694Y0054639D01*
G01*
X0087389Y0055238D02*
G01*
X0086359Y0055238D01*
G01*
X0085915Y0055836D02*
G01*
X0087172Y0055836D01*
G01*
X0087018Y0056435D02*
G01*
X0085221Y0056435D01*
G01*
X0085556Y0057033D02*
G01*
X0086923Y0057033D01*
G01*
X0086155Y0057632D02*
G01*
X0092200Y0057632D01*
G01*
X0092200Y0058230D02*
G01*
X0092800Y0058230D01*
G01*
X0092800Y0057800D02*
G01*
X0092800Y0063082D01*
G01*
X0092800Y0063082D02*
G01*
X0092940Y0063082D01*
G01*
X0092940Y0063082D02*
G01*
X0093807Y0062944D01*
G01*
X0093807Y0062944D02*
G01*
X0094643Y0062673D01*
G01*
X0094643Y0062673D02*
G01*
X0095426Y0062274D01*
G01*
X0095426Y0062274D02*
G01*
X0096136Y0061758D01*
G01*
X0096136Y0061758D02*
G01*
X0096758Y0061136D01*
G01*
X0096758Y0061136D02*
G01*
X0097274Y0060426D01*
G01*
X0097274Y0060426D02*
G01*
X0097673Y0059643D01*
G01*
X0097673Y0059643D02*
G01*
X0097944Y0058807D01*
G01*
X0097944Y0058807D02*
G01*
X0098082Y0057939D01*
G01*
X0098082Y0057939D02*
G01*
X0098082Y0057800D01*
G01*
X0098082Y0057800D02*
G01*
X0092800Y0057800D01*
G01*
X0092800Y0057632D02*
G01*
X0103160Y0057632D01*
G01*
X0103107Y0057033D02*
G01*
X0098077Y0057033D01*
G01*
X0097983Y0056435D02*
G01*
X0103012Y0056435D01*
G01*
X0102917Y0055836D02*
G01*
X0097828Y0055836D01*
G01*
X0097612Y0055238D02*
G01*
X0102822Y0055238D01*
G01*
X0102728Y0054639D02*
G01*
X0097307Y0054639D01*
G01*
X0096886Y0054041D02*
G01*
X0102577Y0054041D01*
G01*
X0102658Y0054200D02*
G01*
X0102658Y0054200D01*
G01*
X0102272Y0053442D02*
G01*
X0096336Y0053442D01*
G01*
X0095587Y0052844D02*
G01*
X0101967Y0052844D01*
G01*
X0101662Y0052245D02*
G01*
X0094389Y0052245D01*
G01*
X0092800Y0052245D02*
G01*
X0092200Y0052245D01*
G01*
X0092200Y0052844D02*
G01*
X0092800Y0052844D01*
G01*
X0092800Y0053442D02*
G01*
X0092200Y0053442D01*
G01*
X0092200Y0054041D02*
G01*
X0092800Y0054041D01*
G01*
X0092800Y0054639D02*
G01*
X0092200Y0054639D01*
G01*
X0092200Y0055238D02*
G01*
X0092800Y0055238D01*
G01*
X0092800Y0055836D02*
G01*
X0092200Y0055836D01*
G01*
X0092200Y0056435D02*
G01*
X0092800Y0056435D01*
G01*
X0092800Y0057033D02*
G01*
X0092200Y0057033D01*
G01*
X0092200Y0058829D02*
G01*
X0092800Y0058829D01*
G01*
X0092800Y0059427D02*
G01*
X0092200Y0059427D01*
G01*
X0092200Y0060026D02*
G01*
X0092800Y0060026D01*
G01*
X0092800Y0060624D02*
G01*
X0092200Y0060624D01*
G01*
X0092200Y0061223D02*
G01*
X0092800Y0061223D01*
G01*
X0092800Y0061821D02*
G01*
X0092200Y0061821D01*
G01*
X0092200Y0062420D02*
G01*
X0092800Y0062420D01*
G01*
X0092800Y0063018D02*
G01*
X0092200Y0063018D01*
G01*
X0091662Y0063018D02*
G01*
X0091119Y0063018D01*
G01*
X0091822Y0063617D02*
G01*
X0093648Y0063617D01*
G01*
X0093339Y0063018D02*
G01*
X0094448Y0063018D01*
G01*
X0095139Y0062420D02*
G01*
X0101833Y0062420D01*
G01*
X0102138Y0061821D02*
G01*
X0096048Y0061821D01*
G01*
X0096671Y0061223D02*
G01*
X0102443Y0061223D01*
G01*
X0102686Y0060624D02*
G01*
X0097130Y0060624D01*
G01*
X0097478Y0060026D02*
G01*
X0102781Y0060026D01*
G01*
X0102875Y0059427D02*
G01*
X0097743Y0059427D01*
G01*
X0097937Y0058829D02*
G01*
X0102970Y0058829D01*
G01*
X0103065Y0058230D02*
G01*
X0098036Y0058230D01*
G01*
X0097246Y0063018D02*
G01*
X0101528Y0063018D01*
G01*
X0101223Y0063617D02*
G01*
X0098045Y0063617D01*
G01*
X0098533Y0064215D02*
G01*
X0100703Y0064215D01*
G01*
X0100105Y0064814D02*
G01*
X0098781Y0064814D01*
G01*
X0098922Y0065412D02*
G01*
X0099506Y0065412D01*
G01*
X0093536Y0067807D02*
G01*
X0091919Y0067807D01*
G01*
X0092292Y0067208D02*
G01*
X0093114Y0067208D01*
G01*
X0092866Y0066610D02*
G01*
X0092516Y0066610D01*
G01*
X0092771Y0066011D02*
G01*
X0089641Y0066011D01*
G01*
X0089060Y0066011D02*
G01*
X0086093Y0066011D01*
G01*
X0086082Y0065477D02*
G01*
X0086082Y0065446D01*
G01*
X0086082Y0065446D02*
G01*
X0086208Y0064815D01*
G01*
X0086208Y0064815D02*
G01*
X0086454Y0064220D01*
G01*
X0086454Y0064220D02*
G01*
X0086812Y0063684D01*
G01*
X0086812Y0063684D02*
G01*
X0087267Y0063229D01*
G01*
X0087267Y0063229D02*
G01*
X0087802Y0062871D01*
G01*
X0087802Y0062871D02*
G01*
X0088397Y0062625D01*
G01*
X0088397Y0062625D02*
G01*
X0089029Y0062499D01*
G01*
X0089029Y0062499D02*
G01*
X0089060Y0062499D01*
G01*
X0089060Y0062499D02*
G01*
X0089060Y0065477D01*
G01*
X0089060Y0065477D02*
G01*
X0086082Y0065477D01*
G01*
X0086089Y0065412D02*
G01*
X0085494Y0065412D01*
G01*
X0084896Y0064814D02*
G01*
X0086208Y0064814D01*
G01*
X0086457Y0064215D02*
G01*
X0084297Y0064215D01*
G01*
X0083778Y0063617D02*
G01*
X0086879Y0063617D01*
G01*
X0087582Y0063018D02*
G01*
X0083473Y0063018D01*
G01*
X0084554Y0062420D02*
G01*
X0089862Y0062420D01*
G01*
X0089641Y0063018D02*
G01*
X0089060Y0063018D01*
G01*
X0089060Y0063617D02*
G01*
X0089641Y0063617D01*
G01*
X0089641Y0064215D02*
G01*
X0089060Y0064215D01*
G01*
X0089060Y0064814D02*
G01*
X0089641Y0064814D01*
G01*
X0089641Y0065412D02*
G01*
X0089060Y0065412D01*
G01*
X0092244Y0064215D02*
G01*
X0093161Y0064215D01*
G01*
X0092913Y0064814D02*
G01*
X0092493Y0064814D01*
G01*
X0092613Y0065412D02*
G01*
X0092771Y0065412D01*
G01*
X0088952Y0061821D02*
G01*
X0085639Y0061821D01*
G01*
X0086237Y0061223D02*
G01*
X0088330Y0061223D01*
G01*
X0087871Y0060624D02*
G01*
X0086492Y0060624D01*
G01*
X0086718Y0060026D02*
G01*
X0087523Y0060026D01*
G01*
X0087258Y0059427D02*
G01*
X0086718Y0059427D01*
G01*
X0086706Y0058829D02*
G01*
X0087063Y0058829D01*
G01*
X0086965Y0058230D02*
G01*
X0086458Y0058230D01*
G01*
X0085829Y0049253D02*
G01*
X0099171Y0049253D01*
G01*
X0098375Y0048654D02*
G01*
X0086626Y0048654D01*
G01*
X0087800Y0048056D02*
G01*
X0097200Y0048056D01*
G01*
X0096026Y0047457D02*
G01*
X0088975Y0047457D01*
G01*
X0092255Y0046859D02*
G01*
X0092745Y0046859D01*
D14*
G01*
X0101162Y0062618D03*
D12*
G01*
X0101162Y0062618D02*
G01*
X0101162Y0057500D01*
G01*
X0101162Y0057500D02*
G01*
X0092500Y0057500D01*
X0080000Y0080000D02*
D26*
G01*
X0083642Y0088760D03*
G01*
X0083642Y0094469D03*
G01*
X0089351Y0100768D03*
G01*
X0095847Y0100768D03*
D29*
G01*
X0092500Y0092500D03*
D18*
G01*
X0085231Y0084851D02*
G01*
X0099770Y0084851D01*
G01*
X0100368Y0085450D02*
G01*
X0084632Y0085450D01*
G01*
X0084356Y0085727D02*
G01*
X0085384Y0086153D01*
G01*
X0085384Y0086153D02*
G01*
X0086249Y0087018D01*
G01*
X0086249Y0087018D02*
G01*
X0086718Y0088148D01*
G01*
X0086718Y0088148D02*
G01*
X0086718Y0089372D01*
G01*
X0086718Y0089372D02*
G01*
X0086249Y0090502D01*
G01*
X0086249Y0090502D02*
G01*
X0085384Y0091367D01*
G01*
X0085384Y0091367D02*
G01*
X0084788Y0091614D01*
G01*
X0084788Y0091614D02*
G01*
X0085384Y0091861D01*
G01*
X0085384Y0091861D02*
G01*
X0086249Y0092726D01*
G01*
X0086249Y0092726D02*
G01*
X0086718Y0093857D01*
G01*
X0086718Y0093857D02*
G01*
X0086718Y0095080D01*
G01*
X0086718Y0095080D02*
G01*
X0086249Y0096211D01*
G01*
X0086249Y0096211D02*
G01*
X0085384Y0097076D01*
G01*
X0085384Y0097076D02*
G01*
X0084254Y0097544D01*
G01*
X0084254Y0097544D02*
G01*
X0083231Y0097544D01*
G01*
X0083231Y0097544D02*
G01*
X0083860Y0098778D01*
G01*
X0083860Y0098778D02*
G01*
X0086140Y0101058D01*
G01*
X0086140Y0101058D02*
G01*
X0089060Y0101058D01*
G01*
X0089060Y0101058D02*
G01*
X0089060Y0100477D01*
G01*
X0089060Y0100477D02*
G01*
X0089641Y0100477D01*
G01*
X0089641Y0100477D02*
G01*
X0089641Y0097499D01*
G01*
X0089641Y0097499D02*
G01*
X0089673Y0097499D01*
G01*
X0089673Y0097499D02*
G01*
X0090238Y0097612D01*
G01*
X0090238Y0097612D02*
G01*
X0089575Y0097274D01*
G01*
X0089575Y0097274D02*
G01*
X0088864Y0096758D01*
G01*
X0088864Y0096758D02*
G01*
X0088243Y0096136D01*
G01*
X0088243Y0096136D02*
G01*
X0087727Y0095426D01*
G01*
X0087727Y0095426D02*
G01*
X0087328Y0094643D01*
G01*
X0087328Y0094643D02*
G01*
X0087056Y0093807D01*
G01*
X0087056Y0093807D02*
G01*
X0086919Y0092939D01*
G01*
X0086919Y0092939D02*
G01*
X0086919Y0092800D01*
G01*
X0086919Y0092800D02*
G01*
X0092200Y0092800D01*
G01*
X0092200Y0092800D02*
G01*
X0092200Y0092200D01*
G01*
X0092200Y0092200D02*
G01*
X0086919Y0092200D01*
G01*
X0086919Y0092200D02*
G01*
X0086919Y0092061D01*
G01*
X0086919Y0092061D02*
G01*
X0087056Y0091193D01*
G01*
X0087056Y0091193D02*
G01*
X0087328Y0090358D01*
G01*
X0087328Y0090358D02*
G01*
X0087727Y0089575D01*
G01*
X0087727Y0089575D02*
G01*
X0088243Y0088864D01*
G01*
X0088243Y0088864D02*
G01*
X0088864Y0088243D01*
G01*
X0088864Y0088243D02*
G01*
X0089575Y0087726D01*
G01*
X0089575Y0087726D02*
G01*
X0090358Y0087328D01*
G01*
X0090358Y0087328D02*
G01*
X0091193Y0087056D01*
G01*
X0091193Y0087056D02*
G01*
X0092061Y0086919D01*
G01*
X0092061Y0086919D02*
G01*
X0092200Y0086919D01*
G01*
X0092200Y0086919D02*
G01*
X0092200Y0092200D01*
G01*
X0092200Y0092200D02*
G01*
X0092800Y0092200D01*
G01*
X0092800Y0092200D02*
G01*
X0092800Y0086919D01*
G01*
X0092800Y0086919D02*
G01*
X0092940Y0086919D01*
G01*
X0092940Y0086919D02*
G01*
X0093807Y0087056D01*
G01*
X0093807Y0087056D02*
G01*
X0094643Y0087328D01*
G01*
X0094643Y0087328D02*
G01*
X0095426Y0087726D01*
G01*
X0095426Y0087726D02*
G01*
X0096136Y0088243D01*
G01*
X0096136Y0088243D02*
G01*
X0096758Y0088864D01*
G01*
X0096758Y0088864D02*
G01*
X0097274Y0089575D01*
G01*
X0097274Y0089575D02*
G01*
X0097673Y0090358D01*
G01*
X0097673Y0090358D02*
G01*
X0097944Y0091193D01*
G01*
X0097944Y0091193D02*
G01*
X0098082Y0092061D01*
G01*
X0098082Y0092061D02*
G01*
X0098082Y0092200D01*
G01*
X0098082Y0092200D02*
G01*
X0092800Y0092200D01*
G01*
X0092800Y0092200D02*
G01*
X0092800Y0092800D01*
G01*
X0092800Y0092800D02*
G01*
X0092200Y0092800D01*
G01*
X0092200Y0092800D02*
G01*
X0092200Y0098082D01*
G01*
X0092200Y0098082D02*
G01*
X0092061Y0098082D01*
G01*
X0092061Y0098082D02*
G01*
X0091193Y0097944D01*
G01*
X0091193Y0097944D02*
G01*
X0090643Y0097766D01*
G01*
X0090643Y0097766D02*
G01*
X0090899Y0097871D01*
G01*
X0090899Y0097871D02*
G01*
X0091434Y0098229D01*
G01*
X0091434Y0098229D02*
G01*
X0091889Y0098684D01*
G01*
X0091889Y0098684D02*
G01*
X0092247Y0099220D01*
G01*
X0092247Y0099220D02*
G01*
X0092494Y0099815D01*
G01*
X0092494Y0099815D02*
G01*
X0092619Y0100446D01*
G01*
X0092619Y0100446D02*
G01*
X0092619Y0100477D01*
G01*
X0092619Y0100477D02*
G01*
X0089641Y0100477D01*
G01*
X0089641Y0100477D02*
G01*
X0089641Y0101058D01*
G01*
X0089641Y0101058D02*
G01*
X0092619Y0101058D01*
G01*
X0092619Y0101058D02*
G01*
X0092619Y0101090D01*
G01*
X0092619Y0101090D02*
G01*
X0092494Y0101721D01*
G01*
X0092494Y0101721D02*
G01*
X0092247Y0102316D01*
G01*
X0092247Y0102316D02*
G01*
X0091889Y0102851D01*
G01*
X0091889Y0102851D02*
G01*
X0091689Y0103052D01*
G01*
X0091689Y0103052D02*
G01*
X0092500Y0103180D01*
G01*
X0092500Y0103180D02*
G01*
X0093717Y0102988D01*
G01*
X0093717Y0102988D02*
G01*
X0093239Y0102510D01*
G01*
X0093239Y0102510D02*
G01*
X0092771Y0101380D01*
G01*
X0092771Y0101380D02*
G01*
X0092771Y0100156D01*
G01*
X0092771Y0100156D02*
G01*
X0093239Y0099026D01*
G01*
X0093239Y0099026D02*
G01*
X0094105Y0098161D01*
G01*
X0094105Y0098161D02*
G01*
X0095235Y0097692D01*
G01*
X0095235Y0097692D02*
G01*
X0096459Y0097692D01*
G01*
X0096459Y0097692D02*
G01*
X0097589Y0098161D01*
G01*
X0097589Y0098161D02*
G01*
X0098454Y0099026D01*
G01*
X0098454Y0099026D02*
G01*
X0098922Y0100156D01*
G01*
X0098922Y0100156D02*
G01*
X0098922Y0100996D01*
G01*
X0098922Y0100996D02*
G01*
X0101141Y0098778D01*
G01*
X0101141Y0098778D02*
G01*
X0102658Y0095801D01*
G01*
X0102658Y0095801D02*
G01*
X0103181Y0092500D01*
G01*
X0103181Y0092500D02*
G01*
X0102658Y0089200D01*
G01*
X0102658Y0089200D02*
G01*
X0101141Y0086222D01*
G01*
X0101141Y0086222D02*
G01*
X0101141Y0086222D01*
G01*
X0101141Y0086222D02*
G01*
X0098778Y0083860D01*
G01*
X0098778Y0083860D02*
G01*
X0095801Y0082343D01*
G01*
X0095801Y0082343D02*
G01*
X0092500Y0081820D01*
G01*
X0092500Y0081820D02*
G01*
X0089200Y0082343D01*
G01*
X0089200Y0082343D02*
G01*
X0086223Y0083860D01*
G01*
X0086223Y0083860D02*
G01*
X0084356Y0085727D01*
G01*
X0085132Y0086048D02*
G01*
X0100967Y0086048D01*
G01*
X0101357Y0086647D02*
G01*
X0085878Y0086647D01*
G01*
X0086344Y0087245D02*
G01*
X0090611Y0087245D01*
G01*
X0089413Y0087844D02*
G01*
X0086591Y0087844D01*
G01*
X0086718Y0088442D02*
G01*
X0088665Y0088442D01*
G01*
X0088115Y0089041D02*
G01*
X0086718Y0089041D01*
G01*
X0086607Y0089639D02*
G01*
X0087694Y0089639D01*
G01*
X0087389Y0090238D02*
G01*
X0086359Y0090238D01*
G01*
X0085915Y0090836D02*
G01*
X0087172Y0090836D01*
G01*
X0087018Y0091435D02*
G01*
X0085221Y0091435D01*
G01*
X0085556Y0092033D02*
G01*
X0086923Y0092033D01*
G01*
X0086155Y0092632D02*
G01*
X0092200Y0092632D01*
G01*
X0092200Y0093230D02*
G01*
X0092800Y0093230D01*
G01*
X0092800Y0092800D02*
G01*
X0092800Y0098082D01*
G01*
X0092800Y0098082D02*
G01*
X0092940Y0098082D01*
G01*
X0092940Y0098082D02*
G01*
X0093807Y0097944D01*
G01*
X0093807Y0097944D02*
G01*
X0094643Y0097673D01*
G01*
X0094643Y0097673D02*
G01*
X0095426Y0097274D01*
G01*
X0095426Y0097274D02*
G01*
X0096136Y0096758D01*
G01*
X0096136Y0096758D02*
G01*
X0096758Y0096136D01*
G01*
X0096758Y0096136D02*
G01*
X0097274Y0095426D01*
G01*
X0097274Y0095426D02*
G01*
X0097673Y0094643D01*
G01*
X0097673Y0094643D02*
G01*
X0097944Y0093807D01*
G01*
X0097944Y0093807D02*
G01*
X0098082Y0092939D01*
G01*
X0098082Y0092939D02*
G01*
X0098082Y0092800D01*
G01*
X0098082Y0092800D02*
G01*
X0092800Y0092800D01*
G01*
X0092800Y0092632D02*
G01*
X0103160Y0092632D01*
G01*
X0103107Y0092033D02*
G01*
X0098077Y0092033D01*
G01*
X0097983Y0091435D02*
G01*
X0103012Y0091435D01*
G01*
X0102917Y0090836D02*
G01*
X0097828Y0090836D01*
G01*
X0097612Y0090238D02*
G01*
X0102822Y0090238D01*
G01*
X0102728Y0089639D02*
G01*
X0097307Y0089639D01*
G01*
X0096886Y0089041D02*
G01*
X0102577Y0089041D01*
G01*
X0102658Y0089200D02*
G01*
X0102658Y0089200D01*
G01*
X0102272Y0088442D02*
G01*
X0096336Y0088442D01*
G01*
X0095587Y0087844D02*
G01*
X0101967Y0087844D01*
G01*
X0101662Y0087245D02*
G01*
X0094389Y0087245D01*
G01*
X0092800Y0087245D02*
G01*
X0092200Y0087245D01*
G01*
X0092200Y0087844D02*
G01*
X0092800Y0087844D01*
G01*
X0092800Y0088442D02*
G01*
X0092200Y0088442D01*
G01*
X0092200Y0089041D02*
G01*
X0092800Y0089041D01*
G01*
X0092800Y0089639D02*
G01*
X0092200Y0089639D01*
G01*
X0092200Y0090238D02*
G01*
X0092800Y0090238D01*
G01*
X0092800Y0090836D02*
G01*
X0092200Y0090836D01*
G01*
X0092200Y0091435D02*
G01*
X0092800Y0091435D01*
G01*
X0092800Y0092033D02*
G01*
X0092200Y0092033D01*
G01*
X0092200Y0093829D02*
G01*
X0092800Y0093829D01*
G01*
X0092800Y0094427D02*
G01*
X0092200Y0094427D01*
G01*
X0092200Y0095026D02*
G01*
X0092800Y0095026D01*
G01*
X0092800Y0095624D02*
G01*
X0092200Y0095624D01*
G01*
X0092200Y0096223D02*
G01*
X0092800Y0096223D01*
G01*
X0092800Y0096821D02*
G01*
X0092200Y0096821D01*
G01*
X0092200Y0097420D02*
G01*
X0092800Y0097420D01*
G01*
X0092800Y0098018D02*
G01*
X0092200Y0098018D01*
G01*
X0091662Y0098018D02*
G01*
X0091119Y0098018D01*
G01*
X0091822Y0098617D02*
G01*
X0093648Y0098617D01*
G01*
X0093339Y0098018D02*
G01*
X0094448Y0098018D01*
G01*
X0095139Y0097420D02*
G01*
X0101833Y0097420D01*
G01*
X0102138Y0096821D02*
G01*
X0096048Y0096821D01*
G01*
X0096671Y0096223D02*
G01*
X0102443Y0096223D01*
G01*
X0102686Y0095624D02*
G01*
X0097130Y0095624D01*
G01*
X0097478Y0095026D02*
G01*
X0102781Y0095026D01*
G01*
X0102875Y0094427D02*
G01*
X0097743Y0094427D01*
G01*
X0097937Y0093829D02*
G01*
X0102970Y0093829D01*
G01*
X0103065Y0093230D02*
G01*
X0098036Y0093230D01*
G01*
X0097246Y0098018D02*
G01*
X0101528Y0098018D01*
G01*
X0101223Y0098617D02*
G01*
X0098045Y0098617D01*
G01*
X0098533Y0099215D02*
G01*
X0100703Y0099215D01*
G01*
X0100105Y0099814D02*
G01*
X0098781Y0099814D01*
G01*
X0098922Y0100412D02*
G01*
X0099506Y0100412D01*
G01*
X0093536Y0102807D02*
G01*
X0091919Y0102807D01*
G01*
X0092292Y0102208D02*
G01*
X0093114Y0102208D01*
G01*
X0092866Y0101610D02*
G01*
X0092516Y0101610D01*
G01*
X0092771Y0101011D02*
G01*
X0089641Y0101011D01*
G01*
X0089060Y0101011D02*
G01*
X0086093Y0101011D01*
G01*
X0086082Y0100477D02*
G01*
X0086082Y0100446D01*
G01*
X0086082Y0100446D02*
G01*
X0086208Y0099815D01*
G01*
X0086208Y0099815D02*
G01*
X0086454Y0099220D01*
G01*
X0086454Y0099220D02*
G01*
X0086812Y0098684D01*
G01*
X0086812Y0098684D02*
G01*
X0087267Y0098229D01*
G01*
X0087267Y0098229D02*
G01*
X0087802Y0097871D01*
G01*
X0087802Y0097871D02*
G01*
X0088397Y0097625D01*
G01*
X0088397Y0097625D02*
G01*
X0089029Y0097499D01*
G01*
X0089029Y0097499D02*
G01*
X0089060Y0097499D01*
G01*
X0089060Y0097499D02*
G01*
X0089060Y0100477D01*
G01*
X0089060Y0100477D02*
G01*
X0086082Y0100477D01*
G01*
X0086089Y0100412D02*
G01*
X0085494Y0100412D01*
G01*
X0084896Y0099814D02*
G01*
X0086208Y0099814D01*
G01*
X0086457Y0099215D02*
G01*
X0084297Y0099215D01*
G01*
X0083778Y0098617D02*
G01*
X0086879Y0098617D01*
G01*
X0087582Y0098018D02*
G01*
X0083473Y0098018D01*
G01*
X0084554Y0097420D02*
G01*
X0089862Y0097420D01*
G01*
X0089641Y0098018D02*
G01*
X0089060Y0098018D01*
G01*
X0089060Y0098617D02*
G01*
X0089641Y0098617D01*
G01*
X0089641Y0099215D02*
G01*
X0089060Y0099215D01*
G01*
X0089060Y0099814D02*
G01*
X0089641Y0099814D01*
G01*
X0089641Y0100412D02*
G01*
X0089060Y0100412D01*
G01*
X0092244Y0099215D02*
G01*
X0093161Y0099215D01*
G01*
X0092913Y0099814D02*
G01*
X0092493Y0099814D01*
G01*
X0092613Y0100412D02*
G01*
X0092771Y0100412D01*
G01*
X0088952Y0096821D02*
G01*
X0085639Y0096821D01*
G01*
X0086237Y0096223D02*
G01*
X0088330Y0096223D01*
G01*
X0087871Y0095624D02*
G01*
X0086492Y0095624D01*
G01*
X0086718Y0095026D02*
G01*
X0087523Y0095026D01*
G01*
X0087258Y0094427D02*
G01*
X0086718Y0094427D01*
G01*
X0086706Y0093829D02*
G01*
X0087063Y0093829D01*
G01*
X0086965Y0093230D02*
G01*
X0086458Y0093230D01*
G01*
X0085829Y0084253D02*
G01*
X0099171Y0084253D01*
G01*
X0098375Y0083654D02*
G01*
X0086626Y0083654D01*
G01*
X0087800Y0083056D02*
G01*
X0097200Y0083056D01*
G01*
X0096026Y0082457D02*
G01*
X0088975Y0082457D01*
G01*
X0092255Y0081859D02*
G01*
X0092745Y0081859D01*
D14*
G01*
X0101162Y0097618D03*
D12*
G01*
X0101162Y0097618D02*
G01*
X0101162Y0092500D01*
G01*
X0101162Y0092500D02*
G01*
X0092500Y0092500D01*
X0115000Y0010000D02*
D26*
G01*
X0118642Y0018760D03*
G01*
X0118642Y0024469D03*
G01*
X0124351Y0030768D03*
G01*
X0130847Y0030768D03*
D29*
G01*
X0127500Y0022500D03*
D18*
G01*
X0120231Y0014851D02*
G01*
X0134770Y0014851D01*
G01*
X0135368Y0015450D02*
G01*
X0119632Y0015450D01*
G01*
X0119356Y0015727D02*
G01*
X0120384Y0016153D01*
G01*
X0120384Y0016153D02*
G01*
X0121249Y0017018D01*
G01*
X0121249Y0017018D02*
G01*
X0121718Y0018148D01*
G01*
X0121718Y0018148D02*
G01*
X0121718Y0019372D01*
G01*
X0121718Y0019372D02*
G01*
X0121249Y0020502D01*
G01*
X0121249Y0020502D02*
G01*
X0120384Y0021367D01*
G01*
X0120384Y0021367D02*
G01*
X0119788Y0021614D01*
G01*
X0119788Y0021614D02*
G01*
X0120384Y0021861D01*
G01*
X0120384Y0021861D02*
G01*
X0121249Y0022726D01*
G01*
X0121249Y0022726D02*
G01*
X0121718Y0023857D01*
G01*
X0121718Y0023857D02*
G01*
X0121718Y0025080D01*
G01*
X0121718Y0025080D02*
G01*
X0121249Y0026211D01*
G01*
X0121249Y0026211D02*
G01*
X0120384Y0027076D01*
G01*
X0120384Y0027076D02*
G01*
X0119254Y0027544D01*
G01*
X0119254Y0027544D02*
G01*
X0118231Y0027544D01*
G01*
X0118231Y0027544D02*
G01*
X0118860Y0028778D01*
G01*
X0118860Y0028778D02*
G01*
X0121140Y0031058D01*
G01*
X0121140Y0031058D02*
G01*
X0124060Y0031058D01*
G01*
X0124060Y0031058D02*
G01*
X0124060Y0030477D01*
G01*
X0124060Y0030477D02*
G01*
X0124641Y0030477D01*
G01*
X0124641Y0030477D02*
G01*
X0124641Y0027499D01*
G01*
X0124641Y0027499D02*
G01*
X0124673Y0027499D01*
G01*
X0124673Y0027499D02*
G01*
X0125238Y0027612D01*
G01*
X0125238Y0027612D02*
G01*
X0124575Y0027274D01*
G01*
X0124575Y0027274D02*
G01*
X0123864Y0026758D01*
G01*
X0123864Y0026758D02*
G01*
X0123243Y0026136D01*
G01*
X0123243Y0026136D02*
G01*
X0122727Y0025426D01*
G01*
X0122727Y0025426D02*
G01*
X0122328Y0024643D01*
G01*
X0122328Y0024643D02*
G01*
X0122056Y0023807D01*
G01*
X0122056Y0023807D02*
G01*
X0121919Y0022939D01*
G01*
X0121919Y0022939D02*
G01*
X0121919Y0022800D01*
G01*
X0121919Y0022800D02*
G01*
X0127200Y0022800D01*
G01*
X0127200Y0022800D02*
G01*
X0127200Y0022200D01*
G01*
X0127200Y0022200D02*
G01*
X0121919Y0022200D01*
G01*
X0121919Y0022200D02*
G01*
X0121919Y0022061D01*
G01*
X0121919Y0022061D02*
G01*
X0122056Y0021193D01*
G01*
X0122056Y0021193D02*
G01*
X0122328Y0020358D01*
G01*
X0122328Y0020358D02*
G01*
X0122727Y0019575D01*
G01*
X0122727Y0019575D02*
G01*
X0123243Y0018864D01*
G01*
X0123243Y0018864D02*
G01*
X0123864Y0018243D01*
G01*
X0123864Y0018243D02*
G01*
X0124575Y0017726D01*
G01*
X0124575Y0017726D02*
G01*
X0125358Y0017328D01*
G01*
X0125358Y0017328D02*
G01*
X0126193Y0017056D01*
G01*
X0126193Y0017056D02*
G01*
X0127061Y0016919D01*
G01*
X0127061Y0016919D02*
G01*
X0127200Y0016919D01*
G01*
X0127200Y0016919D02*
G01*
X0127200Y0022200D01*
G01*
X0127200Y0022200D02*
G01*
X0127800Y0022200D01*
G01*
X0127800Y0022200D02*
G01*
X0127800Y0016919D01*
G01*
X0127800Y0016919D02*
G01*
X0127940Y0016919D01*
G01*
X0127940Y0016919D02*
G01*
X0128807Y0017056D01*
G01*
X0128807Y0017056D02*
G01*
X0129643Y0017328D01*
G01*
X0129643Y0017328D02*
G01*
X0130426Y0017726D01*
G01*
X0130426Y0017726D02*
G01*
X0131136Y0018243D01*
G01*
X0131136Y0018243D02*
G01*
X0131758Y0018864D01*
G01*
X0131758Y0018864D02*
G01*
X0132274Y0019575D01*
G01*
X0132274Y0019575D02*
G01*
X0132673Y0020358D01*
G01*
X0132673Y0020358D02*
G01*
X0132944Y0021193D01*
G01*
X0132944Y0021193D02*
G01*
X0133082Y0022061D01*
G01*
X0133082Y0022061D02*
G01*
X0133082Y0022200D01*
G01*
X0133082Y0022200D02*
G01*
X0127800Y0022200D01*
G01*
X0127800Y0022200D02*
G01*
X0127800Y0022800D01*
G01*
X0127800Y0022800D02*
G01*
X0127200Y0022800D01*
G01*
X0127200Y0022800D02*
G01*
X0127200Y0028082D01*
G01*
X0127200Y0028082D02*
G01*
X0127061Y0028082D01*
G01*
X0127061Y0028082D02*
G01*
X0126193Y0027944D01*
G01*
X0126193Y0027944D02*
G01*
X0125643Y0027766D01*
G01*
X0125643Y0027766D02*
G01*
X0125899Y0027871D01*
G01*
X0125899Y0027871D02*
G01*
X0126434Y0028229D01*
G01*
X0126434Y0028229D02*
G01*
X0126889Y0028684D01*
G01*
X0126889Y0028684D02*
G01*
X0127247Y0029220D01*
G01*
X0127247Y0029220D02*
G01*
X0127494Y0029815D01*
G01*
X0127494Y0029815D02*
G01*
X0127619Y0030446D01*
G01*
X0127619Y0030446D02*
G01*
X0127619Y0030477D01*
G01*
X0127619Y0030477D02*
G01*
X0124641Y0030477D01*
G01*
X0124641Y0030477D02*
G01*
X0124641Y0031058D01*
G01*
X0124641Y0031058D02*
G01*
X0127619Y0031058D01*
G01*
X0127619Y0031058D02*
G01*
X0127619Y0031090D01*
G01*
X0127619Y0031090D02*
G01*
X0127494Y0031721D01*
G01*
X0127494Y0031721D02*
G01*
X0127247Y0032316D01*
G01*
X0127247Y0032316D02*
G01*
X0126889Y0032851D01*
G01*
X0126889Y0032851D02*
G01*
X0126689Y0033052D01*
G01*
X0126689Y0033052D02*
G01*
X0127500Y0033180D01*
G01*
X0127500Y0033180D02*
G01*
X0128717Y0032988D01*
G01*
X0128717Y0032988D02*
G01*
X0128239Y0032510D01*
G01*
X0128239Y0032510D02*
G01*
X0127771Y0031380D01*
G01*
X0127771Y0031380D02*
G01*
X0127771Y0030156D01*
G01*
X0127771Y0030156D02*
G01*
X0128239Y0029026D01*
G01*
X0128239Y0029026D02*
G01*
X0129105Y0028161D01*
G01*
X0129105Y0028161D02*
G01*
X0130235Y0027692D01*
G01*
X0130235Y0027692D02*
G01*
X0131459Y0027692D01*
G01*
X0131459Y0027692D02*
G01*
X0132589Y0028161D01*
G01*
X0132589Y0028161D02*
G01*
X0133454Y0029026D01*
G01*
X0133454Y0029026D02*
G01*
X0133922Y0030156D01*
G01*
X0133922Y0030156D02*
G01*
X0133922Y0030996D01*
G01*
X0133922Y0030996D02*
G01*
X0136141Y0028778D01*
G01*
X0136141Y0028778D02*
G01*
X0137658Y0025801D01*
G01*
X0137658Y0025801D02*
G01*
X0138181Y0022500D01*
G01*
X0138181Y0022500D02*
G01*
X0137658Y0019200D01*
G01*
X0137658Y0019200D02*
G01*
X0136141Y0016222D01*
G01*
X0136141Y0016222D02*
G01*
X0136141Y0016222D01*
G01*
X0136141Y0016222D02*
G01*
X0133778Y0013860D01*
G01*
X0133778Y0013860D02*
G01*
X0130801Y0012343D01*
G01*
X0130801Y0012343D02*
G01*
X0127500Y0011820D01*
G01*
X0127500Y0011820D02*
G01*
X0124200Y0012343D01*
G01*
X0124200Y0012343D02*
G01*
X0121223Y0013860D01*
G01*
X0121223Y0013860D02*
G01*
X0119356Y0015727D01*
G01*
X0120132Y0016048D02*
G01*
X0135967Y0016048D01*
G01*
X0136357Y0016647D02*
G01*
X0120878Y0016647D01*
G01*
X0121344Y0017245D02*
G01*
X0125611Y0017245D01*
G01*
X0124413Y0017844D02*
G01*
X0121591Y0017844D01*
G01*
X0121718Y0018442D02*
G01*
X0123665Y0018442D01*
G01*
X0123115Y0019041D02*
G01*
X0121718Y0019041D01*
G01*
X0121607Y0019639D02*
G01*
X0122694Y0019639D01*
G01*
X0122389Y0020238D02*
G01*
X0121359Y0020238D01*
G01*
X0120915Y0020836D02*
G01*
X0122172Y0020836D01*
G01*
X0122018Y0021435D02*
G01*
X0120221Y0021435D01*
G01*
X0120556Y0022033D02*
G01*
X0121923Y0022033D01*
G01*
X0121155Y0022632D02*
G01*
X0127200Y0022632D01*
G01*
X0127200Y0023230D02*
G01*
X0127800Y0023230D01*
G01*
X0127800Y0022800D02*
G01*
X0127800Y0028082D01*
G01*
X0127800Y0028082D02*
G01*
X0127940Y0028082D01*
G01*
X0127940Y0028082D02*
G01*
X0128807Y0027944D01*
G01*
X0128807Y0027944D02*
G01*
X0129643Y0027673D01*
G01*
X0129643Y0027673D02*
G01*
X0130426Y0027274D01*
G01*
X0130426Y0027274D02*
G01*
X0131136Y0026758D01*
G01*
X0131136Y0026758D02*
G01*
X0131758Y0026136D01*
G01*
X0131758Y0026136D02*
G01*
X0132274Y0025426D01*
G01*
X0132274Y0025426D02*
G01*
X0132673Y0024643D01*
G01*
X0132673Y0024643D02*
G01*
X0132944Y0023807D01*
G01*
X0132944Y0023807D02*
G01*
X0133082Y0022939D01*
G01*
X0133082Y0022939D02*
G01*
X0133082Y0022800D01*
G01*
X0133082Y0022800D02*
G01*
X0127800Y0022800D01*
G01*
X0127800Y0022632D02*
G01*
X0138160Y0022632D01*
G01*
X0138107Y0022033D02*
G01*
X0133077Y0022033D01*
G01*
X0132983Y0021435D02*
G01*
X0138012Y0021435D01*
G01*
X0137917Y0020836D02*
G01*
X0132828Y0020836D01*
G01*
X0132612Y0020238D02*
G01*
X0137822Y0020238D01*
G01*
X0137728Y0019639D02*
G01*
X0132307Y0019639D01*
G01*
X0131886Y0019041D02*
G01*
X0137577Y0019041D01*
G01*
X0137658Y0019200D02*
G01*
X0137658Y0019200D01*
G01*
X0137272Y0018442D02*
G01*
X0131336Y0018442D01*
G01*
X0130587Y0017844D02*
G01*
X0136967Y0017844D01*
G01*
X0136662Y0017245D02*
G01*
X0129389Y0017245D01*
G01*
X0127800Y0017245D02*
G01*
X0127200Y0017245D01*
G01*
X0127200Y0017844D02*
G01*
X0127800Y0017844D01*
G01*
X0127800Y0018442D02*
G01*
X0127200Y0018442D01*
G01*
X0127200Y0019041D02*
G01*
X0127800Y0019041D01*
G01*
X0127800Y0019639D02*
G01*
X0127200Y0019639D01*
G01*
X0127200Y0020238D02*
G01*
X0127800Y0020238D01*
G01*
X0127800Y0020836D02*
G01*
X0127200Y0020836D01*
G01*
X0127200Y0021435D02*
G01*
X0127800Y0021435D01*
G01*
X0127800Y0022033D02*
G01*
X0127200Y0022033D01*
G01*
X0127200Y0023829D02*
G01*
X0127800Y0023829D01*
G01*
X0127800Y0024427D02*
G01*
X0127200Y0024427D01*
G01*
X0127200Y0025026D02*
G01*
X0127800Y0025026D01*
G01*
X0127800Y0025624D02*
G01*
X0127200Y0025624D01*
G01*
X0127200Y0026223D02*
G01*
X0127800Y0026223D01*
G01*
X0127800Y0026821D02*
G01*
X0127200Y0026821D01*
G01*
X0127200Y0027420D02*
G01*
X0127800Y0027420D01*
G01*
X0127800Y0028018D02*
G01*
X0127200Y0028018D01*
G01*
X0126662Y0028018D02*
G01*
X0126119Y0028018D01*
G01*
X0126822Y0028617D02*
G01*
X0128648Y0028617D01*
G01*
X0128339Y0028018D02*
G01*
X0129448Y0028018D01*
G01*
X0130139Y0027420D02*
G01*
X0136833Y0027420D01*
G01*
X0137138Y0026821D02*
G01*
X0131048Y0026821D01*
G01*
X0131671Y0026223D02*
G01*
X0137443Y0026223D01*
G01*
X0137686Y0025624D02*
G01*
X0132130Y0025624D01*
G01*
X0132478Y0025026D02*
G01*
X0137781Y0025026D01*
G01*
X0137875Y0024427D02*
G01*
X0132743Y0024427D01*
G01*
X0132937Y0023829D02*
G01*
X0137970Y0023829D01*
G01*
X0138065Y0023230D02*
G01*
X0133036Y0023230D01*
G01*
X0132246Y0028018D02*
G01*
X0136528Y0028018D01*
G01*
X0136223Y0028617D02*
G01*
X0133045Y0028617D01*
G01*
X0133533Y0029215D02*
G01*
X0135703Y0029215D01*
G01*
X0135105Y0029814D02*
G01*
X0133781Y0029814D01*
G01*
X0133922Y0030412D02*
G01*
X0134506Y0030412D01*
G01*
X0128536Y0032807D02*
G01*
X0126919Y0032807D01*
G01*
X0127292Y0032208D02*
G01*
X0128114Y0032208D01*
G01*
X0127866Y0031610D02*
G01*
X0127516Y0031610D01*
G01*
X0127771Y0031011D02*
G01*
X0124641Y0031011D01*
G01*
X0124060Y0031011D02*
G01*
X0121093Y0031011D01*
G01*
X0121082Y0030477D02*
G01*
X0121082Y0030446D01*
G01*
X0121082Y0030446D02*
G01*
X0121208Y0029815D01*
G01*
X0121208Y0029815D02*
G01*
X0121454Y0029220D01*
G01*
X0121454Y0029220D02*
G01*
X0121812Y0028684D01*
G01*
X0121812Y0028684D02*
G01*
X0122267Y0028229D01*
G01*
X0122267Y0028229D02*
G01*
X0122802Y0027871D01*
G01*
X0122802Y0027871D02*
G01*
X0123397Y0027625D01*
G01*
X0123397Y0027625D02*
G01*
X0124029Y0027499D01*
G01*
X0124029Y0027499D02*
G01*
X0124060Y0027499D01*
G01*
X0124060Y0027499D02*
G01*
X0124060Y0030477D01*
G01*
X0124060Y0030477D02*
G01*
X0121082Y0030477D01*
G01*
X0121089Y0030412D02*
G01*
X0120494Y0030412D01*
G01*
X0119896Y0029814D02*
G01*
X0121208Y0029814D01*
G01*
X0121457Y0029215D02*
G01*
X0119297Y0029215D01*
G01*
X0118778Y0028617D02*
G01*
X0121879Y0028617D01*
G01*
X0122582Y0028018D02*
G01*
X0118473Y0028018D01*
G01*
X0119554Y0027420D02*
G01*
X0124862Y0027420D01*
G01*
X0124641Y0028018D02*
G01*
X0124060Y0028018D01*
G01*
X0124060Y0028617D02*
G01*
X0124641Y0028617D01*
G01*
X0124641Y0029215D02*
G01*
X0124060Y0029215D01*
G01*
X0124060Y0029814D02*
G01*
X0124641Y0029814D01*
G01*
X0124641Y0030412D02*
G01*
X0124060Y0030412D01*
G01*
X0127244Y0029215D02*
G01*
X0128161Y0029215D01*
G01*
X0127913Y0029814D02*
G01*
X0127493Y0029814D01*
G01*
X0127613Y0030412D02*
G01*
X0127771Y0030412D01*
G01*
X0123952Y0026821D02*
G01*
X0120639Y0026821D01*
G01*
X0121237Y0026223D02*
G01*
X0123330Y0026223D01*
G01*
X0122871Y0025624D02*
G01*
X0121492Y0025624D01*
G01*
X0121718Y0025026D02*
G01*
X0122523Y0025026D01*
G01*
X0122258Y0024427D02*
G01*
X0121718Y0024427D01*
G01*
X0121706Y0023829D02*
G01*
X0122063Y0023829D01*
G01*
X0121965Y0023230D02*
G01*
X0121458Y0023230D01*
G01*
X0120829Y0014253D02*
G01*
X0134171Y0014253D01*
G01*
X0133375Y0013654D02*
G01*
X0121626Y0013654D01*
G01*
X0122800Y0013056D02*
G01*
X0132200Y0013056D01*
G01*
X0131026Y0012457D02*
G01*
X0123975Y0012457D01*
G01*
X0127255Y0011859D02*
G01*
X0127745Y0011859D01*
D14*
G01*
X0136162Y0027618D03*
D12*
G01*
X0136162Y0027618D02*
G01*
X0136162Y0022500D01*
G01*
X0136162Y0022500D02*
G01*
X0127500Y0022500D01*
X0115000Y0045000D02*
D26*
G01*
X0118642Y0053760D03*
G01*
X0118642Y0059469D03*
G01*
X0124351Y0065768D03*
G01*
X0130847Y0065768D03*
D29*
G01*
X0127500Y0057500D03*
D18*
G01*
X0120231Y0049851D02*
G01*
X0134770Y0049851D01*
G01*
X0135368Y0050450D02*
G01*
X0119632Y0050450D01*
G01*
X0119356Y0050727D02*
G01*
X0120384Y0051153D01*
G01*
X0120384Y0051153D02*
G01*
X0121249Y0052018D01*
G01*
X0121249Y0052018D02*
G01*
X0121718Y0053148D01*
G01*
X0121718Y0053148D02*
G01*
X0121718Y0054372D01*
G01*
X0121718Y0054372D02*
G01*
X0121249Y0055502D01*
G01*
X0121249Y0055502D02*
G01*
X0120384Y0056367D01*
G01*
X0120384Y0056367D02*
G01*
X0119788Y0056614D01*
G01*
X0119788Y0056614D02*
G01*
X0120384Y0056861D01*
G01*
X0120384Y0056861D02*
G01*
X0121249Y0057726D01*
G01*
X0121249Y0057726D02*
G01*
X0121718Y0058857D01*
G01*
X0121718Y0058857D02*
G01*
X0121718Y0060080D01*
G01*
X0121718Y0060080D02*
G01*
X0121249Y0061211D01*
G01*
X0121249Y0061211D02*
G01*
X0120384Y0062076D01*
G01*
X0120384Y0062076D02*
G01*
X0119254Y0062544D01*
G01*
X0119254Y0062544D02*
G01*
X0118231Y0062544D01*
G01*
X0118231Y0062544D02*
G01*
X0118860Y0063778D01*
G01*
X0118860Y0063778D02*
G01*
X0121140Y0066058D01*
G01*
X0121140Y0066058D02*
G01*
X0124060Y0066058D01*
G01*
X0124060Y0066058D02*
G01*
X0124060Y0065477D01*
G01*
X0124060Y0065477D02*
G01*
X0124641Y0065477D01*
G01*
X0124641Y0065477D02*
G01*
X0124641Y0062499D01*
G01*
X0124641Y0062499D02*
G01*
X0124673Y0062499D01*
G01*
X0124673Y0062499D02*
G01*
X0125238Y0062612D01*
G01*
X0125238Y0062612D02*
G01*
X0124575Y0062274D01*
G01*
X0124575Y0062274D02*
G01*
X0123864Y0061758D01*
G01*
X0123864Y0061758D02*
G01*
X0123243Y0061136D01*
G01*
X0123243Y0061136D02*
G01*
X0122727Y0060426D01*
G01*
X0122727Y0060426D02*
G01*
X0122328Y0059643D01*
G01*
X0122328Y0059643D02*
G01*
X0122056Y0058807D01*
G01*
X0122056Y0058807D02*
G01*
X0121919Y0057939D01*
G01*
X0121919Y0057939D02*
G01*
X0121919Y0057800D01*
G01*
X0121919Y0057800D02*
G01*
X0127200Y0057800D01*
G01*
X0127200Y0057800D02*
G01*
X0127200Y0057200D01*
G01*
X0127200Y0057200D02*
G01*
X0121919Y0057200D01*
G01*
X0121919Y0057200D02*
G01*
X0121919Y0057061D01*
G01*
X0121919Y0057061D02*
G01*
X0122056Y0056193D01*
G01*
X0122056Y0056193D02*
G01*
X0122328Y0055358D01*
G01*
X0122328Y0055358D02*
G01*
X0122727Y0054575D01*
G01*
X0122727Y0054575D02*
G01*
X0123243Y0053864D01*
G01*
X0123243Y0053864D02*
G01*
X0123864Y0053243D01*
G01*
X0123864Y0053243D02*
G01*
X0124575Y0052726D01*
G01*
X0124575Y0052726D02*
G01*
X0125358Y0052328D01*
G01*
X0125358Y0052328D02*
G01*
X0126193Y0052056D01*
G01*
X0126193Y0052056D02*
G01*
X0127061Y0051919D01*
G01*
X0127061Y0051919D02*
G01*
X0127200Y0051919D01*
G01*
X0127200Y0051919D02*
G01*
X0127200Y0057200D01*
G01*
X0127200Y0057200D02*
G01*
X0127800Y0057200D01*
G01*
X0127800Y0057200D02*
G01*
X0127800Y0051919D01*
G01*
X0127800Y0051919D02*
G01*
X0127940Y0051919D01*
G01*
X0127940Y0051919D02*
G01*
X0128807Y0052056D01*
G01*
X0128807Y0052056D02*
G01*
X0129643Y0052328D01*
G01*
X0129643Y0052328D02*
G01*
X0130426Y0052726D01*
G01*
X0130426Y0052726D02*
G01*
X0131136Y0053243D01*
G01*
X0131136Y0053243D02*
G01*
X0131758Y0053864D01*
G01*
X0131758Y0053864D02*
G01*
X0132274Y0054575D01*
G01*
X0132274Y0054575D02*
G01*
X0132673Y0055358D01*
G01*
X0132673Y0055358D02*
G01*
X0132944Y0056193D01*
G01*
X0132944Y0056193D02*
G01*
X0133082Y0057061D01*
G01*
X0133082Y0057061D02*
G01*
X0133082Y0057200D01*
G01*
X0133082Y0057200D02*
G01*
X0127800Y0057200D01*
G01*
X0127800Y0057200D02*
G01*
X0127800Y0057800D01*
G01*
X0127800Y0057800D02*
G01*
X0127200Y0057800D01*
G01*
X0127200Y0057800D02*
G01*
X0127200Y0063082D01*
G01*
X0127200Y0063082D02*
G01*
X0127061Y0063082D01*
G01*
X0127061Y0063082D02*
G01*
X0126193Y0062944D01*
G01*
X0126193Y0062944D02*
G01*
X0125643Y0062766D01*
G01*
X0125643Y0062766D02*
G01*
X0125899Y0062871D01*
G01*
X0125899Y0062871D02*
G01*
X0126434Y0063229D01*
G01*
X0126434Y0063229D02*
G01*
X0126889Y0063684D01*
G01*
X0126889Y0063684D02*
G01*
X0127247Y0064220D01*
G01*
X0127247Y0064220D02*
G01*
X0127494Y0064815D01*
G01*
X0127494Y0064815D02*
G01*
X0127619Y0065446D01*
G01*
X0127619Y0065446D02*
G01*
X0127619Y0065477D01*
G01*
X0127619Y0065477D02*
G01*
X0124641Y0065477D01*
G01*
X0124641Y0065477D02*
G01*
X0124641Y0066058D01*
G01*
X0124641Y0066058D02*
G01*
X0127619Y0066058D01*
G01*
X0127619Y0066058D02*
G01*
X0127619Y0066090D01*
G01*
X0127619Y0066090D02*
G01*
X0127494Y0066721D01*
G01*
X0127494Y0066721D02*
G01*
X0127247Y0067316D01*
G01*
X0127247Y0067316D02*
G01*
X0126889Y0067851D01*
G01*
X0126889Y0067851D02*
G01*
X0126689Y0068052D01*
G01*
X0126689Y0068052D02*
G01*
X0127500Y0068180D01*
G01*
X0127500Y0068180D02*
G01*
X0128717Y0067988D01*
G01*
X0128717Y0067988D02*
G01*
X0128239Y0067510D01*
G01*
X0128239Y0067510D02*
G01*
X0127771Y0066380D01*
G01*
X0127771Y0066380D02*
G01*
X0127771Y0065156D01*
G01*
X0127771Y0065156D02*
G01*
X0128239Y0064026D01*
G01*
X0128239Y0064026D02*
G01*
X0129105Y0063161D01*
G01*
X0129105Y0063161D02*
G01*
X0130235Y0062692D01*
G01*
X0130235Y0062692D02*
G01*
X0131459Y0062692D01*
G01*
X0131459Y0062692D02*
G01*
X0132589Y0063161D01*
G01*
X0132589Y0063161D02*
G01*
X0133454Y0064026D01*
G01*
X0133454Y0064026D02*
G01*
X0133922Y0065156D01*
G01*
X0133922Y0065156D02*
G01*
X0133922Y0065996D01*
G01*
X0133922Y0065996D02*
G01*
X0136141Y0063778D01*
G01*
X0136141Y0063778D02*
G01*
X0137658Y0060801D01*
G01*
X0137658Y0060801D02*
G01*
X0138181Y0057500D01*
G01*
X0138181Y0057500D02*
G01*
X0137658Y0054200D01*
G01*
X0137658Y0054200D02*
G01*
X0136141Y0051222D01*
G01*
X0136141Y0051222D02*
G01*
X0136141Y0051222D01*
G01*
X0136141Y0051222D02*
G01*
X0133778Y0048860D01*
G01*
X0133778Y0048860D02*
G01*
X0130801Y0047343D01*
G01*
X0130801Y0047343D02*
G01*
X0127500Y0046820D01*
G01*
X0127500Y0046820D02*
G01*
X0124200Y0047343D01*
G01*
X0124200Y0047343D02*
G01*
X0121223Y0048860D01*
G01*
X0121223Y0048860D02*
G01*
X0119356Y0050727D01*
G01*
X0120132Y0051048D02*
G01*
X0135967Y0051048D01*
G01*
X0136357Y0051647D02*
G01*
X0120878Y0051647D01*
G01*
X0121344Y0052245D02*
G01*
X0125611Y0052245D01*
G01*
X0124413Y0052844D02*
G01*
X0121591Y0052844D01*
G01*
X0121718Y0053442D02*
G01*
X0123665Y0053442D01*
G01*
X0123115Y0054041D02*
G01*
X0121718Y0054041D01*
G01*
X0121607Y0054639D02*
G01*
X0122694Y0054639D01*
G01*
X0122389Y0055238D02*
G01*
X0121359Y0055238D01*
G01*
X0120915Y0055836D02*
G01*
X0122172Y0055836D01*
G01*
X0122018Y0056435D02*
G01*
X0120221Y0056435D01*
G01*
X0120556Y0057033D02*
G01*
X0121923Y0057033D01*
G01*
X0121155Y0057632D02*
G01*
X0127200Y0057632D01*
G01*
X0127200Y0058230D02*
G01*
X0127800Y0058230D01*
G01*
X0127800Y0057800D02*
G01*
X0127800Y0063082D01*
G01*
X0127800Y0063082D02*
G01*
X0127940Y0063082D01*
G01*
X0127940Y0063082D02*
G01*
X0128807Y0062944D01*
G01*
X0128807Y0062944D02*
G01*
X0129643Y0062673D01*
G01*
X0129643Y0062673D02*
G01*
X0130426Y0062274D01*
G01*
X0130426Y0062274D02*
G01*
X0131136Y0061758D01*
G01*
X0131136Y0061758D02*
G01*
X0131758Y0061136D01*
G01*
X0131758Y0061136D02*
G01*
X0132274Y0060426D01*
G01*
X0132274Y0060426D02*
G01*
X0132673Y0059643D01*
G01*
X0132673Y0059643D02*
G01*
X0132944Y0058807D01*
G01*
X0132944Y0058807D02*
G01*
X0133082Y0057939D01*
G01*
X0133082Y0057939D02*
G01*
X0133082Y0057800D01*
G01*
X0133082Y0057800D02*
G01*
X0127800Y0057800D01*
G01*
X0127800Y0057632D02*
G01*
X0138160Y0057632D01*
G01*
X0138107Y0057033D02*
G01*
X0133077Y0057033D01*
G01*
X0132983Y0056435D02*
G01*
X0138012Y0056435D01*
G01*
X0137917Y0055836D02*
G01*
X0132828Y0055836D01*
G01*
X0132612Y0055238D02*
G01*
X0137822Y0055238D01*
G01*
X0137728Y0054639D02*
G01*
X0132307Y0054639D01*
G01*
X0131886Y0054041D02*
G01*
X0137577Y0054041D01*
G01*
X0137658Y0054200D02*
G01*
X0137658Y0054200D01*
G01*
X0137272Y0053442D02*
G01*
X0131336Y0053442D01*
G01*
X0130587Y0052844D02*
G01*
X0136967Y0052844D01*
G01*
X0136662Y0052245D02*
G01*
X0129389Y0052245D01*
G01*
X0127800Y0052245D02*
G01*
X0127200Y0052245D01*
G01*
X0127200Y0052844D02*
G01*
X0127800Y0052844D01*
G01*
X0127800Y0053442D02*
G01*
X0127200Y0053442D01*
G01*
X0127200Y0054041D02*
G01*
X0127800Y0054041D01*
G01*
X0127800Y0054639D02*
G01*
X0127200Y0054639D01*
G01*
X0127200Y0055238D02*
G01*
X0127800Y0055238D01*
G01*
X0127800Y0055836D02*
G01*
X0127200Y0055836D01*
G01*
X0127200Y0056435D02*
G01*
X0127800Y0056435D01*
G01*
X0127800Y0057033D02*
G01*
X0127200Y0057033D01*
G01*
X0127200Y0058829D02*
G01*
X0127800Y0058829D01*
G01*
X0127800Y0059427D02*
G01*
X0127200Y0059427D01*
G01*
X0127200Y0060026D02*
G01*
X0127800Y0060026D01*
G01*
X0127800Y0060624D02*
G01*
X0127200Y0060624D01*
G01*
X0127200Y0061223D02*
G01*
X0127800Y0061223D01*
G01*
X0127800Y0061821D02*
G01*
X0127200Y0061821D01*
G01*
X0127200Y0062420D02*
G01*
X0127800Y0062420D01*
G01*
X0127800Y0063018D02*
G01*
X0127200Y0063018D01*
G01*
X0126662Y0063018D02*
G01*
X0126119Y0063018D01*
G01*
X0126822Y0063617D02*
G01*
X0128648Y0063617D01*
G01*
X0128339Y0063018D02*
G01*
X0129448Y0063018D01*
G01*
X0130139Y0062420D02*
G01*
X0136833Y0062420D01*
G01*
X0137138Y0061821D02*
G01*
X0131048Y0061821D01*
G01*
X0131671Y0061223D02*
G01*
X0137443Y0061223D01*
G01*
X0137686Y0060624D02*
G01*
X0132130Y0060624D01*
G01*
X0132478Y0060026D02*
G01*
X0137781Y0060026D01*
G01*
X0137875Y0059427D02*
G01*
X0132743Y0059427D01*
G01*
X0132937Y0058829D02*
G01*
X0137970Y0058829D01*
G01*
X0138065Y0058230D02*
G01*
X0133036Y0058230D01*
G01*
X0132246Y0063018D02*
G01*
X0136528Y0063018D01*
G01*
X0136223Y0063617D02*
G01*
X0133045Y0063617D01*
G01*
X0133533Y0064215D02*
G01*
X0135703Y0064215D01*
G01*
X0135105Y0064814D02*
G01*
X0133781Y0064814D01*
G01*
X0133922Y0065412D02*
G01*
X0134506Y0065412D01*
G01*
X0128536Y0067807D02*
G01*
X0126919Y0067807D01*
G01*
X0127292Y0067208D02*
G01*
X0128114Y0067208D01*
G01*
X0127866Y0066610D02*
G01*
X0127516Y0066610D01*
G01*
X0127771Y0066011D02*
G01*
X0124641Y0066011D01*
G01*
X0124060Y0066011D02*
G01*
X0121093Y0066011D01*
G01*
X0121082Y0065477D02*
G01*
X0121082Y0065446D01*
G01*
X0121082Y0065446D02*
G01*
X0121208Y0064815D01*
G01*
X0121208Y0064815D02*
G01*
X0121454Y0064220D01*
G01*
X0121454Y0064220D02*
G01*
X0121812Y0063684D01*
G01*
X0121812Y0063684D02*
G01*
X0122267Y0063229D01*
G01*
X0122267Y0063229D02*
G01*
X0122802Y0062871D01*
G01*
X0122802Y0062871D02*
G01*
X0123397Y0062625D01*
G01*
X0123397Y0062625D02*
G01*
X0124029Y0062499D01*
G01*
X0124029Y0062499D02*
G01*
X0124060Y0062499D01*
G01*
X0124060Y0062499D02*
G01*
X0124060Y0065477D01*
G01*
X0124060Y0065477D02*
G01*
X0121082Y0065477D01*
G01*
X0121089Y0065412D02*
G01*
X0120494Y0065412D01*
G01*
X0119896Y0064814D02*
G01*
X0121208Y0064814D01*
G01*
X0121457Y0064215D02*
G01*
X0119297Y0064215D01*
G01*
X0118778Y0063617D02*
G01*
X0121879Y0063617D01*
G01*
X0122582Y0063018D02*
G01*
X0118473Y0063018D01*
G01*
X0119554Y0062420D02*
G01*
X0124862Y0062420D01*
G01*
X0124641Y0063018D02*
G01*
X0124060Y0063018D01*
G01*
X0124060Y0063617D02*
G01*
X0124641Y0063617D01*
G01*
X0124641Y0064215D02*
G01*
X0124060Y0064215D01*
G01*
X0124060Y0064814D02*
G01*
X0124641Y0064814D01*
G01*
X0124641Y0065412D02*
G01*
X0124060Y0065412D01*
G01*
X0127244Y0064215D02*
G01*
X0128161Y0064215D01*
G01*
X0127913Y0064814D02*
G01*
X0127493Y0064814D01*
G01*
X0127613Y0065412D02*
G01*
X0127771Y0065412D01*
G01*
X0123952Y0061821D02*
G01*
X0120639Y0061821D01*
G01*
X0121237Y0061223D02*
G01*
X0123330Y0061223D01*
G01*
X0122871Y0060624D02*
G01*
X0121492Y0060624D01*
G01*
X0121718Y0060026D02*
G01*
X0122523Y0060026D01*
G01*
X0122258Y0059427D02*
G01*
X0121718Y0059427D01*
G01*
X0121706Y0058829D02*
G01*
X0122063Y0058829D01*
G01*
X0121965Y0058230D02*
G01*
X0121458Y0058230D01*
G01*
X0120829Y0049253D02*
G01*
X0134171Y0049253D01*
G01*
X0133375Y0048654D02*
G01*
X0121626Y0048654D01*
G01*
X0122800Y0048056D02*
G01*
X0132200Y0048056D01*
G01*
X0131026Y0047457D02*
G01*
X0123975Y0047457D01*
G01*
X0127255Y0046859D02*
G01*
X0127745Y0046859D01*
D14*
G01*
X0136162Y0062618D03*
D12*
G01*
X0136162Y0062618D02*
G01*
X0136162Y0057500D01*
G01*
X0136162Y0057500D02*
G01*
X0127500Y0057500D01*
X0115000Y0080000D02*
D26*
G01*
X0118642Y0088760D03*
G01*
X0118642Y0094469D03*
G01*
X0124351Y0100768D03*
G01*
X0130847Y0100768D03*
D29*
G01*
X0127500Y0092500D03*
D18*
G01*
X0120231Y0084851D02*
G01*
X0134770Y0084851D01*
G01*
X0135368Y0085450D02*
G01*
X0119632Y0085450D01*
G01*
X0119356Y0085727D02*
G01*
X0120384Y0086153D01*
G01*
X0120384Y0086153D02*
G01*
X0121249Y0087018D01*
G01*
X0121249Y0087018D02*
G01*
X0121718Y0088148D01*
G01*
X0121718Y0088148D02*
G01*
X0121718Y0089372D01*
G01*
X0121718Y0089372D02*
G01*
X0121249Y0090502D01*
G01*
X0121249Y0090502D02*
G01*
X0120384Y0091367D01*
G01*
X0120384Y0091367D02*
G01*
X0119788Y0091614D01*
G01*
X0119788Y0091614D02*
G01*
X0120384Y0091861D01*
G01*
X0120384Y0091861D02*
G01*
X0121249Y0092726D01*
G01*
X0121249Y0092726D02*
G01*
X0121718Y0093857D01*
G01*
X0121718Y0093857D02*
G01*
X0121718Y0095080D01*
G01*
X0121718Y0095080D02*
G01*
X0121249Y0096211D01*
G01*
X0121249Y0096211D02*
G01*
X0120384Y0097076D01*
G01*
X0120384Y0097076D02*
G01*
X0119254Y0097544D01*
G01*
X0119254Y0097544D02*
G01*
X0118231Y0097544D01*
G01*
X0118231Y0097544D02*
G01*
X0118860Y0098778D01*
G01*
X0118860Y0098778D02*
G01*
X0121140Y0101058D01*
G01*
X0121140Y0101058D02*
G01*
X0124060Y0101058D01*
G01*
X0124060Y0101058D02*
G01*
X0124060Y0100477D01*
G01*
X0124060Y0100477D02*
G01*
X0124641Y0100477D01*
G01*
X0124641Y0100477D02*
G01*
X0124641Y0097499D01*
G01*
X0124641Y0097499D02*
G01*
X0124673Y0097499D01*
G01*
X0124673Y0097499D02*
G01*
X0125238Y0097612D01*
G01*
X0125238Y0097612D02*
G01*
X0124575Y0097274D01*
G01*
X0124575Y0097274D02*
G01*
X0123864Y0096758D01*
G01*
X0123864Y0096758D02*
G01*
X0123243Y0096136D01*
G01*
X0123243Y0096136D02*
G01*
X0122727Y0095426D01*
G01*
X0122727Y0095426D02*
G01*
X0122328Y0094643D01*
G01*
X0122328Y0094643D02*
G01*
X0122056Y0093807D01*
G01*
X0122056Y0093807D02*
G01*
X0121919Y0092939D01*
G01*
X0121919Y0092939D02*
G01*
X0121919Y0092800D01*
G01*
X0121919Y0092800D02*
G01*
X0127200Y0092800D01*
G01*
X0127200Y0092800D02*
G01*
X0127200Y0092200D01*
G01*
X0127200Y0092200D02*
G01*
X0121919Y0092200D01*
G01*
X0121919Y0092200D02*
G01*
X0121919Y0092061D01*
G01*
X0121919Y0092061D02*
G01*
X0122056Y0091193D01*
G01*
X0122056Y0091193D02*
G01*
X0122328Y0090358D01*
G01*
X0122328Y0090358D02*
G01*
X0122727Y0089575D01*
G01*
X0122727Y0089575D02*
G01*
X0123243Y0088864D01*
G01*
X0123243Y0088864D02*
G01*
X0123864Y0088243D01*
G01*
X0123864Y0088243D02*
G01*
X0124575Y0087726D01*
G01*
X0124575Y0087726D02*
G01*
X0125358Y0087328D01*
G01*
X0125358Y0087328D02*
G01*
X0126193Y0087056D01*
G01*
X0126193Y0087056D02*
G01*
X0127061Y0086919D01*
G01*
X0127061Y0086919D02*
G01*
X0127200Y0086919D01*
G01*
X0127200Y0086919D02*
G01*
X0127200Y0092200D01*
G01*
X0127200Y0092200D02*
G01*
X0127800Y0092200D01*
G01*
X0127800Y0092200D02*
G01*
X0127800Y0086919D01*
G01*
X0127800Y0086919D02*
G01*
X0127940Y0086919D01*
G01*
X0127940Y0086919D02*
G01*
X0128807Y0087056D01*
G01*
X0128807Y0087056D02*
G01*
X0129643Y0087328D01*
G01*
X0129643Y0087328D02*
G01*
X0130426Y0087726D01*
G01*
X0130426Y0087726D02*
G01*
X0131136Y0088243D01*
G01*
X0131136Y0088243D02*
G01*
X0131758Y0088864D01*
G01*
X0131758Y0088864D02*
G01*
X0132274Y0089575D01*
G01*
X0132274Y0089575D02*
G01*
X0132673Y0090358D01*
G01*
X0132673Y0090358D02*
G01*
X0132944Y0091193D01*
G01*
X0132944Y0091193D02*
G01*
X0133082Y0092061D01*
G01*
X0133082Y0092061D02*
G01*
X0133082Y0092200D01*
G01*
X0133082Y0092200D02*
G01*
X0127800Y0092200D01*
G01*
X0127800Y0092200D02*
G01*
X0127800Y0092800D01*
G01*
X0127800Y0092800D02*
G01*
X0127200Y0092800D01*
G01*
X0127200Y0092800D02*
G01*
X0127200Y0098082D01*
G01*
X0127200Y0098082D02*
G01*
X0127061Y0098082D01*
G01*
X0127061Y0098082D02*
G01*
X0126193Y0097944D01*
G01*
X0126193Y0097944D02*
G01*
X0125643Y0097766D01*
G01*
X0125643Y0097766D02*
G01*
X0125899Y0097871D01*
G01*
X0125899Y0097871D02*
G01*
X0126434Y0098229D01*
G01*
X0126434Y0098229D02*
G01*
X0126889Y0098684D01*
G01*
X0126889Y0098684D02*
G01*
X0127247Y0099220D01*
G01*
X0127247Y0099220D02*
G01*
X0127494Y0099815D01*
G01*
X0127494Y0099815D02*
G01*
X0127619Y0100446D01*
G01*
X0127619Y0100446D02*
G01*
X0127619Y0100477D01*
G01*
X0127619Y0100477D02*
G01*
X0124641Y0100477D01*
G01*
X0124641Y0100477D02*
G01*
X0124641Y0101058D01*
G01*
X0124641Y0101058D02*
G01*
X0127619Y0101058D01*
G01*
X0127619Y0101058D02*
G01*
X0127619Y0101090D01*
G01*
X0127619Y0101090D02*
G01*
X0127494Y0101721D01*
G01*
X0127494Y0101721D02*
G01*
X0127247Y0102316D01*
G01*
X0127247Y0102316D02*
G01*
X0126889Y0102851D01*
G01*
X0126889Y0102851D02*
G01*
X0126689Y0103052D01*
G01*
X0126689Y0103052D02*
G01*
X0127500Y0103180D01*
G01*
X0127500Y0103180D02*
G01*
X0128717Y0102988D01*
G01*
X0128717Y0102988D02*
G01*
X0128239Y0102510D01*
G01*
X0128239Y0102510D02*
G01*
X0127771Y0101380D01*
G01*
X0127771Y0101380D02*
G01*
X0127771Y0100156D01*
G01*
X0127771Y0100156D02*
G01*
X0128239Y0099026D01*
G01*
X0128239Y0099026D02*
G01*
X0129105Y0098161D01*
G01*
X0129105Y0098161D02*
G01*
X0130235Y0097692D01*
G01*
X0130235Y0097692D02*
G01*
X0131459Y0097692D01*
G01*
X0131459Y0097692D02*
G01*
X0132589Y0098161D01*
G01*
X0132589Y0098161D02*
G01*
X0133454Y0099026D01*
G01*
X0133454Y0099026D02*
G01*
X0133922Y0100156D01*
G01*
X0133922Y0100156D02*
G01*
X0133922Y0100996D01*
G01*
X0133922Y0100996D02*
G01*
X0136141Y0098778D01*
G01*
X0136141Y0098778D02*
G01*
X0137658Y0095801D01*
G01*
X0137658Y0095801D02*
G01*
X0138181Y0092500D01*
G01*
X0138181Y0092500D02*
G01*
X0137658Y0089200D01*
G01*
X0137658Y0089200D02*
G01*
X0136141Y0086222D01*
G01*
X0136141Y0086222D02*
G01*
X0136141Y0086222D01*
G01*
X0136141Y0086222D02*
G01*
X0133778Y0083860D01*
G01*
X0133778Y0083860D02*
G01*
X0130801Y0082343D01*
G01*
X0130801Y0082343D02*
G01*
X0127500Y0081820D01*
G01*
X0127500Y0081820D02*
G01*
X0124200Y0082343D01*
G01*
X0124200Y0082343D02*
G01*
X0121223Y0083860D01*
G01*
X0121223Y0083860D02*
G01*
X0119356Y0085727D01*
G01*
X0120132Y0086048D02*
G01*
X0135967Y0086048D01*
G01*
X0136357Y0086647D02*
G01*
X0120878Y0086647D01*
G01*
X0121344Y0087245D02*
G01*
X0125611Y0087245D01*
G01*
X0124413Y0087844D02*
G01*
X0121591Y0087844D01*
G01*
X0121718Y0088442D02*
G01*
X0123665Y0088442D01*
G01*
X0123115Y0089041D02*
G01*
X0121718Y0089041D01*
G01*
X0121607Y0089639D02*
G01*
X0122694Y0089639D01*
G01*
X0122389Y0090238D02*
G01*
X0121359Y0090238D01*
G01*
X0120915Y0090836D02*
G01*
X0122172Y0090836D01*
G01*
X0122018Y0091435D02*
G01*
X0120221Y0091435D01*
G01*
X0120556Y0092033D02*
G01*
X0121923Y0092033D01*
G01*
X0121155Y0092632D02*
G01*
X0127200Y0092632D01*
G01*
X0127200Y0093230D02*
G01*
X0127800Y0093230D01*
G01*
X0127800Y0092800D02*
G01*
X0127800Y0098082D01*
G01*
X0127800Y0098082D02*
G01*
X0127940Y0098082D01*
G01*
X0127940Y0098082D02*
G01*
X0128807Y0097944D01*
G01*
X0128807Y0097944D02*
G01*
X0129643Y0097673D01*
G01*
X0129643Y0097673D02*
G01*
X0130426Y0097274D01*
G01*
X0130426Y0097274D02*
G01*
X0131136Y0096758D01*
G01*
X0131136Y0096758D02*
G01*
X0131758Y0096136D01*
G01*
X0131758Y0096136D02*
G01*
X0132274Y0095426D01*
G01*
X0132274Y0095426D02*
G01*
X0132673Y0094643D01*
G01*
X0132673Y0094643D02*
G01*
X0132944Y0093807D01*
G01*
X0132944Y0093807D02*
G01*
X0133082Y0092939D01*
G01*
X0133082Y0092939D02*
G01*
X0133082Y0092800D01*
G01*
X0133082Y0092800D02*
G01*
X0127800Y0092800D01*
G01*
X0127800Y0092632D02*
G01*
X0138160Y0092632D01*
G01*
X0138107Y0092033D02*
G01*
X0133077Y0092033D01*
G01*
X0132983Y0091435D02*
G01*
X0138012Y0091435D01*
G01*
X0137917Y0090836D02*
G01*
X0132828Y0090836D01*
G01*
X0132612Y0090238D02*
G01*
X0137822Y0090238D01*
G01*
X0137728Y0089639D02*
G01*
X0132307Y0089639D01*
G01*
X0131886Y0089041D02*
G01*
X0137577Y0089041D01*
G01*
X0137658Y0089200D02*
G01*
X0137658Y0089200D01*
G01*
X0137272Y0088442D02*
G01*
X0131336Y0088442D01*
G01*
X0130587Y0087844D02*
G01*
X0136967Y0087844D01*
G01*
X0136662Y0087245D02*
G01*
X0129389Y0087245D01*
G01*
X0127800Y0087245D02*
G01*
X0127200Y0087245D01*
G01*
X0127200Y0087844D02*
G01*
X0127800Y0087844D01*
G01*
X0127800Y0088442D02*
G01*
X0127200Y0088442D01*
G01*
X0127200Y0089041D02*
G01*
X0127800Y0089041D01*
G01*
X0127800Y0089639D02*
G01*
X0127200Y0089639D01*
G01*
X0127200Y0090238D02*
G01*
X0127800Y0090238D01*
G01*
X0127800Y0090836D02*
G01*
X0127200Y0090836D01*
G01*
X0127200Y0091435D02*
G01*
X0127800Y0091435D01*
G01*
X0127800Y0092033D02*
G01*
X0127200Y0092033D01*
G01*
X0127200Y0093829D02*
G01*
X0127800Y0093829D01*
G01*
X0127800Y0094427D02*
G01*
X0127200Y0094427D01*
G01*
X0127200Y0095026D02*
G01*
X0127800Y0095026D01*
G01*
X0127800Y0095624D02*
G01*
X0127200Y0095624D01*
G01*
X0127200Y0096223D02*
G01*
X0127800Y0096223D01*
G01*
X0127800Y0096821D02*
G01*
X0127200Y0096821D01*
G01*
X0127200Y0097420D02*
G01*
X0127800Y0097420D01*
G01*
X0127800Y0098018D02*
G01*
X0127200Y0098018D01*
G01*
X0126662Y0098018D02*
G01*
X0126119Y0098018D01*
G01*
X0126822Y0098617D02*
G01*
X0128648Y0098617D01*
G01*
X0128339Y0098018D02*
G01*
X0129448Y0098018D01*
G01*
X0130139Y0097420D02*
G01*
X0136833Y0097420D01*
G01*
X0137138Y0096821D02*
G01*
X0131048Y0096821D01*
G01*
X0131671Y0096223D02*
G01*
X0137443Y0096223D01*
G01*
X0137686Y0095624D02*
G01*
X0132130Y0095624D01*
G01*
X0132478Y0095026D02*
G01*
X0137781Y0095026D01*
G01*
X0137875Y0094427D02*
G01*
X0132743Y0094427D01*
G01*
X0132937Y0093829D02*
G01*
X0137970Y0093829D01*
G01*
X0138065Y0093230D02*
G01*
X0133036Y0093230D01*
G01*
X0132246Y0098018D02*
G01*
X0136528Y0098018D01*
G01*
X0136223Y0098617D02*
G01*
X0133045Y0098617D01*
G01*
X0133533Y0099215D02*
G01*
X0135703Y0099215D01*
G01*
X0135105Y0099814D02*
G01*
X0133781Y0099814D01*
G01*
X0133922Y0100412D02*
G01*
X0134506Y0100412D01*
G01*
X0128536Y0102807D02*
G01*
X0126919Y0102807D01*
G01*
X0127292Y0102208D02*
G01*
X0128114Y0102208D01*
G01*
X0127866Y0101610D02*
G01*
X0127516Y0101610D01*
G01*
X0127771Y0101011D02*
G01*
X0124641Y0101011D01*
G01*
X0124060Y0101011D02*
G01*
X0121093Y0101011D01*
G01*
X0121082Y0100477D02*
G01*
X0121082Y0100446D01*
G01*
X0121082Y0100446D02*
G01*
X0121208Y0099815D01*
G01*
X0121208Y0099815D02*
G01*
X0121454Y0099220D01*
G01*
X0121454Y0099220D02*
G01*
X0121812Y0098684D01*
G01*
X0121812Y0098684D02*
G01*
X0122267Y0098229D01*
G01*
X0122267Y0098229D02*
G01*
X0122802Y0097871D01*
G01*
X0122802Y0097871D02*
G01*
X0123397Y0097625D01*
G01*
X0123397Y0097625D02*
G01*
X0124029Y0097499D01*
G01*
X0124029Y0097499D02*
G01*
X0124060Y0097499D01*
G01*
X0124060Y0097499D02*
G01*
X0124060Y0100477D01*
G01*
X0124060Y0100477D02*
G01*
X0121082Y0100477D01*
G01*
X0121089Y0100412D02*
G01*
X0120494Y0100412D01*
G01*
X0119896Y0099814D02*
G01*
X0121208Y0099814D01*
G01*
X0121457Y0099215D02*
G01*
X0119297Y0099215D01*
G01*
X0118778Y0098617D02*
G01*
X0121879Y0098617D01*
G01*
X0122582Y0098018D02*
G01*
X0118473Y0098018D01*
G01*
X0119554Y0097420D02*
G01*
X0124862Y0097420D01*
G01*
X0124641Y0098018D02*
G01*
X0124060Y0098018D01*
G01*
X0124060Y0098617D02*
G01*
X0124641Y0098617D01*
G01*
X0124641Y0099215D02*
G01*
X0124060Y0099215D01*
G01*
X0124060Y0099814D02*
G01*
X0124641Y0099814D01*
G01*
X0124641Y0100412D02*
G01*
X0124060Y0100412D01*
G01*
X0127244Y0099215D02*
G01*
X0128161Y0099215D01*
G01*
X0127913Y0099814D02*
G01*
X0127493Y0099814D01*
G01*
X0127613Y0100412D02*
G01*
X0127771Y0100412D01*
G01*
X0123952Y0096821D02*
G01*
X0120639Y0096821D01*
G01*
X0121237Y0096223D02*
G01*
X0123330Y0096223D01*
G01*
X0122871Y0095624D02*
G01*
X0121492Y0095624D01*
G01*
X0121718Y0095026D02*
G01*
X0122523Y0095026D01*
G01*
X0122258Y0094427D02*
G01*
X0121718Y0094427D01*
G01*
X0121706Y0093829D02*
G01*
X0122063Y0093829D01*
G01*
X0121965Y0093230D02*
G01*
X0121458Y0093230D01*
G01*
X0120829Y0084253D02*
G01*
X0134171Y0084253D01*
G01*
X0133375Y0083654D02*
G01*
X0121626Y0083654D01*
G01*
X0122800Y0083056D02*
G01*
X0132200Y0083056D01*
G01*
X0131026Y0082457D02*
G01*
X0123975Y0082457D01*
G01*
X0127255Y0081859D02*
G01*
X0127745Y0081859D01*
D14*
G01*
X0136162Y0097618D03*
D12*
G01*
X0136162Y0097618D02*
G01*
X0136162Y0092500D01*
G01*
X0136162Y0092500D02*
G01*
X0127500Y0092500D01*
X0150000Y0010000D02*
D26*
G01*
X0153642Y0018760D03*
G01*
X0153642Y0024469D03*
G01*
X0159351Y0030768D03*
G01*
X0165847Y0030768D03*
D29*
G01*
X0162500Y0022500D03*
D18*
G01*
X0155231Y0014851D02*
G01*
X0169770Y0014851D01*
G01*
X0170368Y0015450D02*
G01*
X0154632Y0015450D01*
G01*
X0154356Y0015727D02*
G01*
X0155384Y0016153D01*
G01*
X0155384Y0016153D02*
G01*
X0156249Y0017018D01*
G01*
X0156249Y0017018D02*
G01*
X0156718Y0018148D01*
G01*
X0156718Y0018148D02*
G01*
X0156718Y0019372D01*
G01*
X0156718Y0019372D02*
G01*
X0156249Y0020502D01*
G01*
X0156249Y0020502D02*
G01*
X0155384Y0021367D01*
G01*
X0155384Y0021367D02*
G01*
X0154788Y0021614D01*
G01*
X0154788Y0021614D02*
G01*
X0155384Y0021861D01*
G01*
X0155384Y0021861D02*
G01*
X0156249Y0022726D01*
G01*
X0156249Y0022726D02*
G01*
X0156718Y0023857D01*
G01*
X0156718Y0023857D02*
G01*
X0156718Y0025080D01*
G01*
X0156718Y0025080D02*
G01*
X0156249Y0026211D01*
G01*
X0156249Y0026211D02*
G01*
X0155384Y0027076D01*
G01*
X0155384Y0027076D02*
G01*
X0154254Y0027544D01*
G01*
X0154254Y0027544D02*
G01*
X0153231Y0027544D01*
G01*
X0153231Y0027544D02*
G01*
X0153860Y0028778D01*
G01*
X0153860Y0028778D02*
G01*
X0156140Y0031058D01*
G01*
X0156140Y0031058D02*
G01*
X0159060Y0031058D01*
G01*
X0159060Y0031058D02*
G01*
X0159060Y0030477D01*
G01*
X0159060Y0030477D02*
G01*
X0159641Y0030477D01*
G01*
X0159641Y0030477D02*
G01*
X0159641Y0027499D01*
G01*
X0159641Y0027499D02*
G01*
X0159673Y0027499D01*
G01*
X0159673Y0027499D02*
G01*
X0160238Y0027612D01*
G01*
X0160238Y0027612D02*
G01*
X0159575Y0027274D01*
G01*
X0159575Y0027274D02*
G01*
X0158864Y0026758D01*
G01*
X0158864Y0026758D02*
G01*
X0158243Y0026136D01*
G01*
X0158243Y0026136D02*
G01*
X0157727Y0025426D01*
G01*
X0157727Y0025426D02*
G01*
X0157328Y0024643D01*
G01*
X0157328Y0024643D02*
G01*
X0157056Y0023807D01*
G01*
X0157056Y0023807D02*
G01*
X0156919Y0022939D01*
G01*
X0156919Y0022939D02*
G01*
X0156919Y0022800D01*
G01*
X0156919Y0022800D02*
G01*
X0162200Y0022800D01*
G01*
X0162200Y0022800D02*
G01*
X0162200Y0022200D01*
G01*
X0162200Y0022200D02*
G01*
X0156919Y0022200D01*
G01*
X0156919Y0022200D02*
G01*
X0156919Y0022061D01*
G01*
X0156919Y0022061D02*
G01*
X0157056Y0021193D01*
G01*
X0157056Y0021193D02*
G01*
X0157328Y0020358D01*
G01*
X0157328Y0020358D02*
G01*
X0157727Y0019575D01*
G01*
X0157727Y0019575D02*
G01*
X0158243Y0018864D01*
G01*
X0158243Y0018864D02*
G01*
X0158864Y0018243D01*
G01*
X0158864Y0018243D02*
G01*
X0159575Y0017726D01*
G01*
X0159575Y0017726D02*
G01*
X0160358Y0017328D01*
G01*
X0160358Y0017328D02*
G01*
X0161193Y0017056D01*
G01*
X0161193Y0017056D02*
G01*
X0162061Y0016919D01*
G01*
X0162061Y0016919D02*
G01*
X0162200Y0016919D01*
G01*
X0162200Y0016919D02*
G01*
X0162200Y0022200D01*
G01*
X0162200Y0022200D02*
G01*
X0162800Y0022200D01*
G01*
X0162800Y0022200D02*
G01*
X0162800Y0016919D01*
G01*
X0162800Y0016919D02*
G01*
X0162940Y0016919D01*
G01*
X0162940Y0016919D02*
G01*
X0163807Y0017056D01*
G01*
X0163807Y0017056D02*
G01*
X0164643Y0017328D01*
G01*
X0164643Y0017328D02*
G01*
X0165426Y0017726D01*
G01*
X0165426Y0017726D02*
G01*
X0166136Y0018243D01*
G01*
X0166136Y0018243D02*
G01*
X0166758Y0018864D01*
G01*
X0166758Y0018864D02*
G01*
X0167274Y0019575D01*
G01*
X0167274Y0019575D02*
G01*
X0167673Y0020358D01*
G01*
X0167673Y0020358D02*
G01*
X0167944Y0021193D01*
G01*
X0167944Y0021193D02*
G01*
X0168082Y0022061D01*
G01*
X0168082Y0022061D02*
G01*
X0168082Y0022200D01*
G01*
X0168082Y0022200D02*
G01*
X0162800Y0022200D01*
G01*
X0162800Y0022200D02*
G01*
X0162800Y0022800D01*
G01*
X0162800Y0022800D02*
G01*
X0162200Y0022800D01*
G01*
X0162200Y0022800D02*
G01*
X0162200Y0028082D01*
G01*
X0162200Y0028082D02*
G01*
X0162061Y0028082D01*
G01*
X0162061Y0028082D02*
G01*
X0161193Y0027944D01*
G01*
X0161193Y0027944D02*
G01*
X0160643Y0027766D01*
G01*
X0160643Y0027766D02*
G01*
X0160899Y0027871D01*
G01*
X0160899Y0027871D02*
G01*
X0161434Y0028229D01*
G01*
X0161434Y0028229D02*
G01*
X0161889Y0028684D01*
G01*
X0161889Y0028684D02*
G01*
X0162247Y0029220D01*
G01*
X0162247Y0029220D02*
G01*
X0162494Y0029815D01*
G01*
X0162494Y0029815D02*
G01*
X0162619Y0030446D01*
G01*
X0162619Y0030446D02*
G01*
X0162619Y0030477D01*
G01*
X0162619Y0030477D02*
G01*
X0159641Y0030477D01*
G01*
X0159641Y0030477D02*
G01*
X0159641Y0031058D01*
G01*
X0159641Y0031058D02*
G01*
X0162619Y0031058D01*
G01*
X0162619Y0031058D02*
G01*
X0162619Y0031090D01*
G01*
X0162619Y0031090D02*
G01*
X0162494Y0031721D01*
G01*
X0162494Y0031721D02*
G01*
X0162247Y0032316D01*
G01*
X0162247Y0032316D02*
G01*
X0161889Y0032851D01*
G01*
X0161889Y0032851D02*
G01*
X0161689Y0033052D01*
G01*
X0161689Y0033052D02*
G01*
X0162500Y0033180D01*
G01*
X0162500Y0033180D02*
G01*
X0163717Y0032988D01*
G01*
X0163717Y0032988D02*
G01*
X0163239Y0032510D01*
G01*
X0163239Y0032510D02*
G01*
X0162771Y0031380D01*
G01*
X0162771Y0031380D02*
G01*
X0162771Y0030156D01*
G01*
X0162771Y0030156D02*
G01*
X0163239Y0029026D01*
G01*
X0163239Y0029026D02*
G01*
X0164105Y0028161D01*
G01*
X0164105Y0028161D02*
G01*
X0165235Y0027692D01*
G01*
X0165235Y0027692D02*
G01*
X0166459Y0027692D01*
G01*
X0166459Y0027692D02*
G01*
X0167589Y0028161D01*
G01*
X0167589Y0028161D02*
G01*
X0168454Y0029026D01*
G01*
X0168454Y0029026D02*
G01*
X0168922Y0030156D01*
G01*
X0168922Y0030156D02*
G01*
X0168922Y0030996D01*
G01*
X0168922Y0030996D02*
G01*
X0171141Y0028778D01*
G01*
X0171141Y0028778D02*
G01*
X0172658Y0025801D01*
G01*
X0172658Y0025801D02*
G01*
X0173181Y0022500D01*
G01*
X0173181Y0022500D02*
G01*
X0172658Y0019200D01*
G01*
X0172658Y0019200D02*
G01*
X0171141Y0016222D01*
G01*
X0171141Y0016222D02*
G01*
X0171141Y0016222D01*
G01*
X0171141Y0016222D02*
G01*
X0168778Y0013860D01*
G01*
X0168778Y0013860D02*
G01*
X0165801Y0012343D01*
G01*
X0165801Y0012343D02*
G01*
X0162500Y0011820D01*
G01*
X0162500Y0011820D02*
G01*
X0159200Y0012343D01*
G01*
X0159200Y0012343D02*
G01*
X0156223Y0013860D01*
G01*
X0156223Y0013860D02*
G01*
X0154356Y0015727D01*
G01*
X0155132Y0016048D02*
G01*
X0170967Y0016048D01*
G01*
X0171357Y0016647D02*
G01*
X0155878Y0016647D01*
G01*
X0156344Y0017245D02*
G01*
X0160611Y0017245D01*
G01*
X0159413Y0017844D02*
G01*
X0156591Y0017844D01*
G01*
X0156718Y0018442D02*
G01*
X0158665Y0018442D01*
G01*
X0158115Y0019041D02*
G01*
X0156718Y0019041D01*
G01*
X0156607Y0019639D02*
G01*
X0157694Y0019639D01*
G01*
X0157389Y0020238D02*
G01*
X0156359Y0020238D01*
G01*
X0155915Y0020836D02*
G01*
X0157172Y0020836D01*
G01*
X0157018Y0021435D02*
G01*
X0155221Y0021435D01*
G01*
X0155556Y0022033D02*
G01*
X0156923Y0022033D01*
G01*
X0156155Y0022632D02*
G01*
X0162200Y0022632D01*
G01*
X0162200Y0023230D02*
G01*
X0162800Y0023230D01*
G01*
X0162800Y0022800D02*
G01*
X0162800Y0028082D01*
G01*
X0162800Y0028082D02*
G01*
X0162940Y0028082D01*
G01*
X0162940Y0028082D02*
G01*
X0163807Y0027944D01*
G01*
X0163807Y0027944D02*
G01*
X0164643Y0027673D01*
G01*
X0164643Y0027673D02*
G01*
X0165426Y0027274D01*
G01*
X0165426Y0027274D02*
G01*
X0166136Y0026758D01*
G01*
X0166136Y0026758D02*
G01*
X0166758Y0026136D01*
G01*
X0166758Y0026136D02*
G01*
X0167274Y0025426D01*
G01*
X0167274Y0025426D02*
G01*
X0167673Y0024643D01*
G01*
X0167673Y0024643D02*
G01*
X0167944Y0023807D01*
G01*
X0167944Y0023807D02*
G01*
X0168082Y0022939D01*
G01*
X0168082Y0022939D02*
G01*
X0168082Y0022800D01*
G01*
X0168082Y0022800D02*
G01*
X0162800Y0022800D01*
G01*
X0162800Y0022632D02*
G01*
X0173160Y0022632D01*
G01*
X0173107Y0022033D02*
G01*
X0168077Y0022033D01*
G01*
X0167983Y0021435D02*
G01*
X0173012Y0021435D01*
G01*
X0172917Y0020836D02*
G01*
X0167828Y0020836D01*
G01*
X0167612Y0020238D02*
G01*
X0172822Y0020238D01*
G01*
X0172728Y0019639D02*
G01*
X0167307Y0019639D01*
G01*
X0166886Y0019041D02*
G01*
X0172577Y0019041D01*
G01*
X0172658Y0019200D02*
G01*
X0172658Y0019200D01*
G01*
X0172272Y0018442D02*
G01*
X0166336Y0018442D01*
G01*
X0165587Y0017844D02*
G01*
X0171967Y0017844D01*
G01*
X0171662Y0017245D02*
G01*
X0164389Y0017245D01*
G01*
X0162800Y0017245D02*
G01*
X0162200Y0017245D01*
G01*
X0162200Y0017844D02*
G01*
X0162800Y0017844D01*
G01*
X0162800Y0018442D02*
G01*
X0162200Y0018442D01*
G01*
X0162200Y0019041D02*
G01*
X0162800Y0019041D01*
G01*
X0162800Y0019639D02*
G01*
X0162200Y0019639D01*
G01*
X0162200Y0020238D02*
G01*
X0162800Y0020238D01*
G01*
X0162800Y0020836D02*
G01*
X0162200Y0020836D01*
G01*
X0162200Y0021435D02*
G01*
X0162800Y0021435D01*
G01*
X0162800Y0022033D02*
G01*
X0162200Y0022033D01*
G01*
X0162200Y0023829D02*
G01*
X0162800Y0023829D01*
G01*
X0162800Y0024427D02*
G01*
X0162200Y0024427D01*
G01*
X0162200Y0025026D02*
G01*
X0162800Y0025026D01*
G01*
X0162800Y0025624D02*
G01*
X0162200Y0025624D01*
G01*
X0162200Y0026223D02*
G01*
X0162800Y0026223D01*
G01*
X0162800Y0026821D02*
G01*
X0162200Y0026821D01*
G01*
X0162200Y0027420D02*
G01*
X0162800Y0027420D01*
G01*
X0162800Y0028018D02*
G01*
X0162200Y0028018D01*
G01*
X0161662Y0028018D02*
G01*
X0161119Y0028018D01*
G01*
X0161822Y0028617D02*
G01*
X0163648Y0028617D01*
G01*
X0163339Y0028018D02*
G01*
X0164448Y0028018D01*
G01*
X0165139Y0027420D02*
G01*
X0171833Y0027420D01*
G01*
X0172138Y0026821D02*
G01*
X0166048Y0026821D01*
G01*
X0166671Y0026223D02*
G01*
X0172443Y0026223D01*
G01*
X0172686Y0025624D02*
G01*
X0167130Y0025624D01*
G01*
X0167478Y0025026D02*
G01*
X0172781Y0025026D01*
G01*
X0172875Y0024427D02*
G01*
X0167743Y0024427D01*
G01*
X0167937Y0023829D02*
G01*
X0172970Y0023829D01*
G01*
X0173065Y0023230D02*
G01*
X0168036Y0023230D01*
G01*
X0167246Y0028018D02*
G01*
X0171528Y0028018D01*
G01*
X0171223Y0028617D02*
G01*
X0168045Y0028617D01*
G01*
X0168533Y0029215D02*
G01*
X0170703Y0029215D01*
G01*
X0170105Y0029814D02*
G01*
X0168781Y0029814D01*
G01*
X0168922Y0030412D02*
G01*
X0169506Y0030412D01*
G01*
X0163536Y0032807D02*
G01*
X0161919Y0032807D01*
G01*
X0162292Y0032208D02*
G01*
X0163114Y0032208D01*
G01*
X0162866Y0031610D02*
G01*
X0162516Y0031610D01*
G01*
X0162771Y0031011D02*
G01*
X0159641Y0031011D01*
G01*
X0159060Y0031011D02*
G01*
X0156093Y0031011D01*
G01*
X0156082Y0030477D02*
G01*
X0156082Y0030446D01*
G01*
X0156082Y0030446D02*
G01*
X0156208Y0029815D01*
G01*
X0156208Y0029815D02*
G01*
X0156454Y0029220D01*
G01*
X0156454Y0029220D02*
G01*
X0156812Y0028684D01*
G01*
X0156812Y0028684D02*
G01*
X0157267Y0028229D01*
G01*
X0157267Y0028229D02*
G01*
X0157802Y0027871D01*
G01*
X0157802Y0027871D02*
G01*
X0158397Y0027625D01*
G01*
X0158397Y0027625D02*
G01*
X0159029Y0027499D01*
G01*
X0159029Y0027499D02*
G01*
X0159060Y0027499D01*
G01*
X0159060Y0027499D02*
G01*
X0159060Y0030477D01*
G01*
X0159060Y0030477D02*
G01*
X0156082Y0030477D01*
G01*
X0156089Y0030412D02*
G01*
X0155494Y0030412D01*
G01*
X0154896Y0029814D02*
G01*
X0156208Y0029814D01*
G01*
X0156457Y0029215D02*
G01*
X0154297Y0029215D01*
G01*
X0153778Y0028617D02*
G01*
X0156879Y0028617D01*
G01*
X0157582Y0028018D02*
G01*
X0153473Y0028018D01*
G01*
X0154554Y0027420D02*
G01*
X0159862Y0027420D01*
G01*
X0159641Y0028018D02*
G01*
X0159060Y0028018D01*
G01*
X0159060Y0028617D02*
G01*
X0159641Y0028617D01*
G01*
X0159641Y0029215D02*
G01*
X0159060Y0029215D01*
G01*
X0159060Y0029814D02*
G01*
X0159641Y0029814D01*
G01*
X0159641Y0030412D02*
G01*
X0159060Y0030412D01*
G01*
X0162244Y0029215D02*
G01*
X0163161Y0029215D01*
G01*
X0162913Y0029814D02*
G01*
X0162493Y0029814D01*
G01*
X0162613Y0030412D02*
G01*
X0162771Y0030412D01*
G01*
X0158952Y0026821D02*
G01*
X0155639Y0026821D01*
G01*
X0156237Y0026223D02*
G01*
X0158330Y0026223D01*
G01*
X0157871Y0025624D02*
G01*
X0156492Y0025624D01*
G01*
X0156718Y0025026D02*
G01*
X0157523Y0025026D01*
G01*
X0157258Y0024427D02*
G01*
X0156718Y0024427D01*
G01*
X0156706Y0023829D02*
G01*
X0157063Y0023829D01*
G01*
X0156965Y0023230D02*
G01*
X0156458Y0023230D01*
G01*
X0155829Y0014253D02*
G01*
X0169171Y0014253D01*
G01*
X0168375Y0013654D02*
G01*
X0156626Y0013654D01*
G01*
X0157800Y0013056D02*
G01*
X0167200Y0013056D01*
G01*
X0166026Y0012457D02*
G01*
X0158975Y0012457D01*
G01*
X0162255Y0011859D02*
G01*
X0162745Y0011859D01*
D14*
G01*
X0171162Y0027618D03*
D12*
G01*
X0171162Y0027618D02*
G01*
X0171162Y0022500D01*
G01*
X0171162Y0022500D02*
G01*
X0162500Y0022500D01*
X0150000Y0045000D02*
D26*
G01*
X0153642Y0053760D03*
G01*
X0153642Y0059469D03*
G01*
X0159351Y0065768D03*
G01*
X0165847Y0065768D03*
D29*
G01*
X0162500Y0057500D03*
D18*
G01*
X0155231Y0049851D02*
G01*
X0169770Y0049851D01*
G01*
X0170368Y0050450D02*
G01*
X0154632Y0050450D01*
G01*
X0154356Y0050727D02*
G01*
X0155384Y0051153D01*
G01*
X0155384Y0051153D02*
G01*
X0156249Y0052018D01*
G01*
X0156249Y0052018D02*
G01*
X0156718Y0053148D01*
G01*
X0156718Y0053148D02*
G01*
X0156718Y0054372D01*
G01*
X0156718Y0054372D02*
G01*
X0156249Y0055502D01*
G01*
X0156249Y0055502D02*
G01*
X0155384Y0056367D01*
G01*
X0155384Y0056367D02*
G01*
X0154788Y0056614D01*
G01*
X0154788Y0056614D02*
G01*
X0155384Y0056861D01*
G01*
X0155384Y0056861D02*
G01*
X0156249Y0057726D01*
G01*
X0156249Y0057726D02*
G01*
X0156718Y0058857D01*
G01*
X0156718Y0058857D02*
G01*
X0156718Y0060080D01*
G01*
X0156718Y0060080D02*
G01*
X0156249Y0061211D01*
G01*
X0156249Y0061211D02*
G01*
X0155384Y0062076D01*
G01*
X0155384Y0062076D02*
G01*
X0154254Y0062544D01*
G01*
X0154254Y0062544D02*
G01*
X0153231Y0062544D01*
G01*
X0153231Y0062544D02*
G01*
X0153860Y0063778D01*
G01*
X0153860Y0063778D02*
G01*
X0156140Y0066058D01*
G01*
X0156140Y0066058D02*
G01*
X0159060Y0066058D01*
G01*
X0159060Y0066058D02*
G01*
X0159060Y0065477D01*
G01*
X0159060Y0065477D02*
G01*
X0159641Y0065477D01*
G01*
X0159641Y0065477D02*
G01*
X0159641Y0062499D01*
G01*
X0159641Y0062499D02*
G01*
X0159673Y0062499D01*
G01*
X0159673Y0062499D02*
G01*
X0160238Y0062612D01*
G01*
X0160238Y0062612D02*
G01*
X0159575Y0062274D01*
G01*
X0159575Y0062274D02*
G01*
X0158864Y0061758D01*
G01*
X0158864Y0061758D02*
G01*
X0158243Y0061136D01*
G01*
X0158243Y0061136D02*
G01*
X0157727Y0060426D01*
G01*
X0157727Y0060426D02*
G01*
X0157328Y0059643D01*
G01*
X0157328Y0059643D02*
G01*
X0157056Y0058807D01*
G01*
X0157056Y0058807D02*
G01*
X0156919Y0057939D01*
G01*
X0156919Y0057939D02*
G01*
X0156919Y0057800D01*
G01*
X0156919Y0057800D02*
G01*
X0162200Y0057800D01*
G01*
X0162200Y0057800D02*
G01*
X0162200Y0057200D01*
G01*
X0162200Y0057200D02*
G01*
X0156919Y0057200D01*
G01*
X0156919Y0057200D02*
G01*
X0156919Y0057061D01*
G01*
X0156919Y0057061D02*
G01*
X0157056Y0056193D01*
G01*
X0157056Y0056193D02*
G01*
X0157328Y0055358D01*
G01*
X0157328Y0055358D02*
G01*
X0157727Y0054575D01*
G01*
X0157727Y0054575D02*
G01*
X0158243Y0053864D01*
G01*
X0158243Y0053864D02*
G01*
X0158864Y0053243D01*
G01*
X0158864Y0053243D02*
G01*
X0159575Y0052726D01*
G01*
X0159575Y0052726D02*
G01*
X0160358Y0052328D01*
G01*
X0160358Y0052328D02*
G01*
X0161193Y0052056D01*
G01*
X0161193Y0052056D02*
G01*
X0162061Y0051919D01*
G01*
X0162061Y0051919D02*
G01*
X0162200Y0051919D01*
G01*
X0162200Y0051919D02*
G01*
X0162200Y0057200D01*
G01*
X0162200Y0057200D02*
G01*
X0162800Y0057200D01*
G01*
X0162800Y0057200D02*
G01*
X0162800Y0051919D01*
G01*
X0162800Y0051919D02*
G01*
X0162940Y0051919D01*
G01*
X0162940Y0051919D02*
G01*
X0163807Y0052056D01*
G01*
X0163807Y0052056D02*
G01*
X0164643Y0052328D01*
G01*
X0164643Y0052328D02*
G01*
X0165426Y0052726D01*
G01*
X0165426Y0052726D02*
G01*
X0166136Y0053243D01*
G01*
X0166136Y0053243D02*
G01*
X0166758Y0053864D01*
G01*
X0166758Y0053864D02*
G01*
X0167274Y0054575D01*
G01*
X0167274Y0054575D02*
G01*
X0167673Y0055358D01*
G01*
X0167673Y0055358D02*
G01*
X0167944Y0056193D01*
G01*
X0167944Y0056193D02*
G01*
X0168082Y0057061D01*
G01*
X0168082Y0057061D02*
G01*
X0168082Y0057200D01*
G01*
X0168082Y0057200D02*
G01*
X0162800Y0057200D01*
G01*
X0162800Y0057200D02*
G01*
X0162800Y0057800D01*
G01*
X0162800Y0057800D02*
G01*
X0162200Y0057800D01*
G01*
X0162200Y0057800D02*
G01*
X0162200Y0063082D01*
G01*
X0162200Y0063082D02*
G01*
X0162061Y0063082D01*
G01*
X0162061Y0063082D02*
G01*
X0161193Y0062944D01*
G01*
X0161193Y0062944D02*
G01*
X0160643Y0062766D01*
G01*
X0160643Y0062766D02*
G01*
X0160899Y0062871D01*
G01*
X0160899Y0062871D02*
G01*
X0161434Y0063229D01*
G01*
X0161434Y0063229D02*
G01*
X0161889Y0063684D01*
G01*
X0161889Y0063684D02*
G01*
X0162247Y0064220D01*
G01*
X0162247Y0064220D02*
G01*
X0162494Y0064815D01*
G01*
X0162494Y0064815D02*
G01*
X0162619Y0065446D01*
G01*
X0162619Y0065446D02*
G01*
X0162619Y0065477D01*
G01*
X0162619Y0065477D02*
G01*
X0159641Y0065477D01*
G01*
X0159641Y0065477D02*
G01*
X0159641Y0066058D01*
G01*
X0159641Y0066058D02*
G01*
X0162619Y0066058D01*
G01*
X0162619Y0066058D02*
G01*
X0162619Y0066090D01*
G01*
X0162619Y0066090D02*
G01*
X0162494Y0066721D01*
G01*
X0162494Y0066721D02*
G01*
X0162247Y0067316D01*
G01*
X0162247Y0067316D02*
G01*
X0161889Y0067851D01*
G01*
X0161889Y0067851D02*
G01*
X0161689Y0068052D01*
G01*
X0161689Y0068052D02*
G01*
X0162500Y0068180D01*
G01*
X0162500Y0068180D02*
G01*
X0163717Y0067988D01*
G01*
X0163717Y0067988D02*
G01*
X0163239Y0067510D01*
G01*
X0163239Y0067510D02*
G01*
X0162771Y0066380D01*
G01*
X0162771Y0066380D02*
G01*
X0162771Y0065156D01*
G01*
X0162771Y0065156D02*
G01*
X0163239Y0064026D01*
G01*
X0163239Y0064026D02*
G01*
X0164105Y0063161D01*
G01*
X0164105Y0063161D02*
G01*
X0165235Y0062692D01*
G01*
X0165235Y0062692D02*
G01*
X0166459Y0062692D01*
G01*
X0166459Y0062692D02*
G01*
X0167589Y0063161D01*
G01*
X0167589Y0063161D02*
G01*
X0168454Y0064026D01*
G01*
X0168454Y0064026D02*
G01*
X0168922Y0065156D01*
G01*
X0168922Y0065156D02*
G01*
X0168922Y0065996D01*
G01*
X0168922Y0065996D02*
G01*
X0171141Y0063778D01*
G01*
X0171141Y0063778D02*
G01*
X0172658Y0060801D01*
G01*
X0172658Y0060801D02*
G01*
X0173181Y0057500D01*
G01*
X0173181Y0057500D02*
G01*
X0172658Y0054200D01*
G01*
X0172658Y0054200D02*
G01*
X0171141Y0051222D01*
G01*
X0171141Y0051222D02*
G01*
X0171141Y0051222D01*
G01*
X0171141Y0051222D02*
G01*
X0168778Y0048860D01*
G01*
X0168778Y0048860D02*
G01*
X0165801Y0047343D01*
G01*
X0165801Y0047343D02*
G01*
X0162500Y0046820D01*
G01*
X0162500Y0046820D02*
G01*
X0159200Y0047343D01*
G01*
X0159200Y0047343D02*
G01*
X0156223Y0048860D01*
G01*
X0156223Y0048860D02*
G01*
X0154356Y0050727D01*
G01*
X0155132Y0051048D02*
G01*
X0170967Y0051048D01*
G01*
X0171357Y0051647D02*
G01*
X0155878Y0051647D01*
G01*
X0156344Y0052245D02*
G01*
X0160611Y0052245D01*
G01*
X0159413Y0052844D02*
G01*
X0156591Y0052844D01*
G01*
X0156718Y0053442D02*
G01*
X0158665Y0053442D01*
G01*
X0158115Y0054041D02*
G01*
X0156718Y0054041D01*
G01*
X0156607Y0054639D02*
G01*
X0157694Y0054639D01*
G01*
X0157389Y0055238D02*
G01*
X0156359Y0055238D01*
G01*
X0155915Y0055836D02*
G01*
X0157172Y0055836D01*
G01*
X0157018Y0056435D02*
G01*
X0155221Y0056435D01*
G01*
X0155556Y0057033D02*
G01*
X0156923Y0057033D01*
G01*
X0156155Y0057632D02*
G01*
X0162200Y0057632D01*
G01*
X0162200Y0058230D02*
G01*
X0162800Y0058230D01*
G01*
X0162800Y0057800D02*
G01*
X0162800Y0063082D01*
G01*
X0162800Y0063082D02*
G01*
X0162940Y0063082D01*
G01*
X0162940Y0063082D02*
G01*
X0163807Y0062944D01*
G01*
X0163807Y0062944D02*
G01*
X0164643Y0062673D01*
G01*
X0164643Y0062673D02*
G01*
X0165426Y0062274D01*
G01*
X0165426Y0062274D02*
G01*
X0166136Y0061758D01*
G01*
X0166136Y0061758D02*
G01*
X0166758Y0061136D01*
G01*
X0166758Y0061136D02*
G01*
X0167274Y0060426D01*
G01*
X0167274Y0060426D02*
G01*
X0167673Y0059643D01*
G01*
X0167673Y0059643D02*
G01*
X0167944Y0058807D01*
G01*
X0167944Y0058807D02*
G01*
X0168082Y0057939D01*
G01*
X0168082Y0057939D02*
G01*
X0168082Y0057800D01*
G01*
X0168082Y0057800D02*
G01*
X0162800Y0057800D01*
G01*
X0162800Y0057632D02*
G01*
X0173160Y0057632D01*
G01*
X0173107Y0057033D02*
G01*
X0168077Y0057033D01*
G01*
X0167983Y0056435D02*
G01*
X0173012Y0056435D01*
G01*
X0172917Y0055836D02*
G01*
X0167828Y0055836D01*
G01*
X0167612Y0055238D02*
G01*
X0172822Y0055238D01*
G01*
X0172728Y0054639D02*
G01*
X0167307Y0054639D01*
G01*
X0166886Y0054041D02*
G01*
X0172577Y0054041D01*
G01*
X0172658Y0054200D02*
G01*
X0172658Y0054200D01*
G01*
X0172272Y0053442D02*
G01*
X0166336Y0053442D01*
G01*
X0165587Y0052844D02*
G01*
X0171967Y0052844D01*
G01*
X0171662Y0052245D02*
G01*
X0164389Y0052245D01*
G01*
X0162800Y0052245D02*
G01*
X0162200Y0052245D01*
G01*
X0162200Y0052844D02*
G01*
X0162800Y0052844D01*
G01*
X0162800Y0053442D02*
G01*
X0162200Y0053442D01*
G01*
X0162200Y0054041D02*
G01*
X0162800Y0054041D01*
G01*
X0162800Y0054639D02*
G01*
X0162200Y0054639D01*
G01*
X0162200Y0055238D02*
G01*
X0162800Y0055238D01*
G01*
X0162800Y0055836D02*
G01*
X0162200Y0055836D01*
G01*
X0162200Y0056435D02*
G01*
X0162800Y0056435D01*
G01*
X0162800Y0057033D02*
G01*
X0162200Y0057033D01*
G01*
X0162200Y0058829D02*
G01*
X0162800Y0058829D01*
G01*
X0162800Y0059427D02*
G01*
X0162200Y0059427D01*
G01*
X0162200Y0060026D02*
G01*
X0162800Y0060026D01*
G01*
X0162800Y0060624D02*
G01*
X0162200Y0060624D01*
G01*
X0162200Y0061223D02*
G01*
X0162800Y0061223D01*
G01*
X0162800Y0061821D02*
G01*
X0162200Y0061821D01*
G01*
X0162200Y0062420D02*
G01*
X0162800Y0062420D01*
G01*
X0162800Y0063018D02*
G01*
X0162200Y0063018D01*
G01*
X0161662Y0063018D02*
G01*
X0161119Y0063018D01*
G01*
X0161822Y0063617D02*
G01*
X0163648Y0063617D01*
G01*
X0163339Y0063018D02*
G01*
X0164448Y0063018D01*
G01*
X0165139Y0062420D02*
G01*
X0171833Y0062420D01*
G01*
X0172138Y0061821D02*
G01*
X0166048Y0061821D01*
G01*
X0166671Y0061223D02*
G01*
X0172443Y0061223D01*
G01*
X0172686Y0060624D02*
G01*
X0167130Y0060624D01*
G01*
X0167478Y0060026D02*
G01*
X0172781Y0060026D01*
G01*
X0172875Y0059427D02*
G01*
X0167743Y0059427D01*
G01*
X0167937Y0058829D02*
G01*
X0172970Y0058829D01*
G01*
X0173065Y0058230D02*
G01*
X0168036Y0058230D01*
G01*
X0167246Y0063018D02*
G01*
X0171528Y0063018D01*
G01*
X0171223Y0063617D02*
G01*
X0168045Y0063617D01*
G01*
X0168533Y0064215D02*
G01*
X0170703Y0064215D01*
G01*
X0170105Y0064814D02*
G01*
X0168781Y0064814D01*
G01*
X0168922Y0065412D02*
G01*
X0169506Y0065412D01*
G01*
X0163536Y0067807D02*
G01*
X0161919Y0067807D01*
G01*
X0162292Y0067208D02*
G01*
X0163114Y0067208D01*
G01*
X0162866Y0066610D02*
G01*
X0162516Y0066610D01*
G01*
X0162771Y0066011D02*
G01*
X0159641Y0066011D01*
G01*
X0159060Y0066011D02*
G01*
X0156093Y0066011D01*
G01*
X0156082Y0065477D02*
G01*
X0156082Y0065446D01*
G01*
X0156082Y0065446D02*
G01*
X0156208Y0064815D01*
G01*
X0156208Y0064815D02*
G01*
X0156454Y0064220D01*
G01*
X0156454Y0064220D02*
G01*
X0156812Y0063684D01*
G01*
X0156812Y0063684D02*
G01*
X0157267Y0063229D01*
G01*
X0157267Y0063229D02*
G01*
X0157802Y0062871D01*
G01*
X0157802Y0062871D02*
G01*
X0158397Y0062625D01*
G01*
X0158397Y0062625D02*
G01*
X0159029Y0062499D01*
G01*
X0159029Y0062499D02*
G01*
X0159060Y0062499D01*
G01*
X0159060Y0062499D02*
G01*
X0159060Y0065477D01*
G01*
X0159060Y0065477D02*
G01*
X0156082Y0065477D01*
G01*
X0156089Y0065412D02*
G01*
X0155494Y0065412D01*
G01*
X0154896Y0064814D02*
G01*
X0156208Y0064814D01*
G01*
X0156457Y0064215D02*
G01*
X0154297Y0064215D01*
G01*
X0153778Y0063617D02*
G01*
X0156879Y0063617D01*
G01*
X0157582Y0063018D02*
G01*
X0153473Y0063018D01*
G01*
X0154554Y0062420D02*
G01*
X0159862Y0062420D01*
G01*
X0159641Y0063018D02*
G01*
X0159060Y0063018D01*
G01*
X0159060Y0063617D02*
G01*
X0159641Y0063617D01*
G01*
X0159641Y0064215D02*
G01*
X0159060Y0064215D01*
G01*
X0159060Y0064814D02*
G01*
X0159641Y0064814D01*
G01*
X0159641Y0065412D02*
G01*
X0159060Y0065412D01*
G01*
X0162244Y0064215D02*
G01*
X0163161Y0064215D01*
G01*
X0162913Y0064814D02*
G01*
X0162493Y0064814D01*
G01*
X0162613Y0065412D02*
G01*
X0162771Y0065412D01*
G01*
X0158952Y0061821D02*
G01*
X0155639Y0061821D01*
G01*
X0156237Y0061223D02*
G01*
X0158330Y0061223D01*
G01*
X0157871Y0060624D02*
G01*
X0156492Y0060624D01*
G01*
X0156718Y0060026D02*
G01*
X0157523Y0060026D01*
G01*
X0157258Y0059427D02*
G01*
X0156718Y0059427D01*
G01*
X0156706Y0058829D02*
G01*
X0157063Y0058829D01*
G01*
X0156965Y0058230D02*
G01*
X0156458Y0058230D01*
G01*
X0155829Y0049253D02*
G01*
X0169171Y0049253D01*
G01*
X0168375Y0048654D02*
G01*
X0156626Y0048654D01*
G01*
X0157800Y0048056D02*
G01*
X0167200Y0048056D01*
G01*
X0166026Y0047457D02*
G01*
X0158975Y0047457D01*
G01*
X0162255Y0046859D02*
G01*
X0162745Y0046859D01*
D14*
G01*
X0171162Y0062618D03*
D12*
G01*
X0171162Y0062618D02*
G01*
X0171162Y0057500D01*
G01*
X0171162Y0057500D02*
G01*
X0162500Y0057500D01*
X0150000Y0080000D02*
D26*
G01*
X0153642Y0088760D03*
G01*
X0153642Y0094469D03*
G01*
X0159351Y0100768D03*
G01*
X0165847Y0100768D03*
D29*
G01*
X0162500Y0092500D03*
D18*
G01*
X0155231Y0084851D02*
G01*
X0169770Y0084851D01*
G01*
X0170368Y0085450D02*
G01*
X0154632Y0085450D01*
G01*
X0154356Y0085727D02*
G01*
X0155384Y0086153D01*
G01*
X0155384Y0086153D02*
G01*
X0156249Y0087018D01*
G01*
X0156249Y0087018D02*
G01*
X0156718Y0088148D01*
G01*
X0156718Y0088148D02*
G01*
X0156718Y0089372D01*
G01*
X0156718Y0089372D02*
G01*
X0156249Y0090502D01*
G01*
X0156249Y0090502D02*
G01*
X0155384Y0091367D01*
G01*
X0155384Y0091367D02*
G01*
X0154788Y0091614D01*
G01*
X0154788Y0091614D02*
G01*
X0155384Y0091861D01*
G01*
X0155384Y0091861D02*
G01*
X0156249Y0092726D01*
G01*
X0156249Y0092726D02*
G01*
X0156718Y0093857D01*
G01*
X0156718Y0093857D02*
G01*
X0156718Y0095080D01*
G01*
X0156718Y0095080D02*
G01*
X0156249Y0096211D01*
G01*
X0156249Y0096211D02*
G01*
X0155384Y0097076D01*
G01*
X0155384Y0097076D02*
G01*
X0154254Y0097544D01*
G01*
X0154254Y0097544D02*
G01*
X0153231Y0097544D01*
G01*
X0153231Y0097544D02*
G01*
X0153860Y0098778D01*
G01*
X0153860Y0098778D02*
G01*
X0156140Y0101058D01*
G01*
X0156140Y0101058D02*
G01*
X0159060Y0101058D01*
G01*
X0159060Y0101058D02*
G01*
X0159060Y0100477D01*
G01*
X0159060Y0100477D02*
G01*
X0159641Y0100477D01*
G01*
X0159641Y0100477D02*
G01*
X0159641Y0097499D01*
G01*
X0159641Y0097499D02*
G01*
X0159673Y0097499D01*
G01*
X0159673Y0097499D02*
G01*
X0160238Y0097612D01*
G01*
X0160238Y0097612D02*
G01*
X0159575Y0097274D01*
G01*
X0159575Y0097274D02*
G01*
X0158864Y0096758D01*
G01*
X0158864Y0096758D02*
G01*
X0158243Y0096136D01*
G01*
X0158243Y0096136D02*
G01*
X0157727Y0095426D01*
G01*
X0157727Y0095426D02*
G01*
X0157328Y0094643D01*
G01*
X0157328Y0094643D02*
G01*
X0157056Y0093807D01*
G01*
X0157056Y0093807D02*
G01*
X0156919Y0092939D01*
G01*
X0156919Y0092939D02*
G01*
X0156919Y0092800D01*
G01*
X0156919Y0092800D02*
G01*
X0162200Y0092800D01*
G01*
X0162200Y0092800D02*
G01*
X0162200Y0092200D01*
G01*
X0162200Y0092200D02*
G01*
X0156919Y0092200D01*
G01*
X0156919Y0092200D02*
G01*
X0156919Y0092061D01*
G01*
X0156919Y0092061D02*
G01*
X0157056Y0091193D01*
G01*
X0157056Y0091193D02*
G01*
X0157328Y0090358D01*
G01*
X0157328Y0090358D02*
G01*
X0157727Y0089575D01*
G01*
X0157727Y0089575D02*
G01*
X0158243Y0088864D01*
G01*
X0158243Y0088864D02*
G01*
X0158864Y0088243D01*
G01*
X0158864Y0088243D02*
G01*
X0159575Y0087726D01*
G01*
X0159575Y0087726D02*
G01*
X0160358Y0087328D01*
G01*
X0160358Y0087328D02*
G01*
X0161193Y0087056D01*
G01*
X0161193Y0087056D02*
G01*
X0162061Y0086919D01*
G01*
X0162061Y0086919D02*
G01*
X0162200Y0086919D01*
G01*
X0162200Y0086919D02*
G01*
X0162200Y0092200D01*
G01*
X0162200Y0092200D02*
G01*
X0162800Y0092200D01*
G01*
X0162800Y0092200D02*
G01*
X0162800Y0086919D01*
G01*
X0162800Y0086919D02*
G01*
X0162940Y0086919D01*
G01*
X0162940Y0086919D02*
G01*
X0163807Y0087056D01*
G01*
X0163807Y0087056D02*
G01*
X0164643Y0087328D01*
G01*
X0164643Y0087328D02*
G01*
X0165426Y0087726D01*
G01*
X0165426Y0087726D02*
G01*
X0166136Y0088243D01*
G01*
X0166136Y0088243D02*
G01*
X0166758Y0088864D01*
G01*
X0166758Y0088864D02*
G01*
X0167274Y0089575D01*
G01*
X0167274Y0089575D02*
G01*
X0167673Y0090358D01*
G01*
X0167673Y0090358D02*
G01*
X0167944Y0091193D01*
G01*
X0167944Y0091193D02*
G01*
X0168082Y0092061D01*
G01*
X0168082Y0092061D02*
G01*
X0168082Y0092200D01*
G01*
X0168082Y0092200D02*
G01*
X0162800Y0092200D01*
G01*
X0162800Y0092200D02*
G01*
X0162800Y0092800D01*
G01*
X0162800Y0092800D02*
G01*
X0162200Y0092800D01*
G01*
X0162200Y0092800D02*
G01*
X0162200Y0098082D01*
G01*
X0162200Y0098082D02*
G01*
X0162061Y0098082D01*
G01*
X0162061Y0098082D02*
G01*
X0161193Y0097944D01*
G01*
X0161193Y0097944D02*
G01*
X0160643Y0097766D01*
G01*
X0160643Y0097766D02*
G01*
X0160899Y0097871D01*
G01*
X0160899Y0097871D02*
G01*
X0161434Y0098229D01*
G01*
X0161434Y0098229D02*
G01*
X0161889Y0098684D01*
G01*
X0161889Y0098684D02*
G01*
X0162247Y0099220D01*
G01*
X0162247Y0099220D02*
G01*
X0162494Y0099815D01*
G01*
X0162494Y0099815D02*
G01*
X0162619Y0100446D01*
G01*
X0162619Y0100446D02*
G01*
X0162619Y0100477D01*
G01*
X0162619Y0100477D02*
G01*
X0159641Y0100477D01*
G01*
X0159641Y0100477D02*
G01*
X0159641Y0101058D01*
G01*
X0159641Y0101058D02*
G01*
X0162619Y0101058D01*
G01*
X0162619Y0101058D02*
G01*
X0162619Y0101090D01*
G01*
X0162619Y0101090D02*
G01*
X0162494Y0101721D01*
G01*
X0162494Y0101721D02*
G01*
X0162247Y0102316D01*
G01*
X0162247Y0102316D02*
G01*
X0161889Y0102851D01*
G01*
X0161889Y0102851D02*
G01*
X0161689Y0103052D01*
G01*
X0161689Y0103052D02*
G01*
X0162500Y0103180D01*
G01*
X0162500Y0103180D02*
G01*
X0163717Y0102988D01*
G01*
X0163717Y0102988D02*
G01*
X0163239Y0102510D01*
G01*
X0163239Y0102510D02*
G01*
X0162771Y0101380D01*
G01*
X0162771Y0101380D02*
G01*
X0162771Y0100156D01*
G01*
X0162771Y0100156D02*
G01*
X0163239Y0099026D01*
G01*
X0163239Y0099026D02*
G01*
X0164105Y0098161D01*
G01*
X0164105Y0098161D02*
G01*
X0165235Y0097692D01*
G01*
X0165235Y0097692D02*
G01*
X0166459Y0097692D01*
G01*
X0166459Y0097692D02*
G01*
X0167589Y0098161D01*
G01*
X0167589Y0098161D02*
G01*
X0168454Y0099026D01*
G01*
X0168454Y0099026D02*
G01*
X0168922Y0100156D01*
G01*
X0168922Y0100156D02*
G01*
X0168922Y0100996D01*
G01*
X0168922Y0100996D02*
G01*
X0171141Y0098778D01*
G01*
X0171141Y0098778D02*
G01*
X0172658Y0095801D01*
G01*
X0172658Y0095801D02*
G01*
X0173181Y0092500D01*
G01*
X0173181Y0092500D02*
G01*
X0172658Y0089200D01*
G01*
X0172658Y0089200D02*
G01*
X0171141Y0086222D01*
G01*
X0171141Y0086222D02*
G01*
X0171141Y0086222D01*
G01*
X0171141Y0086222D02*
G01*
X0168778Y0083860D01*
G01*
X0168778Y0083860D02*
G01*
X0165801Y0082343D01*
G01*
X0165801Y0082343D02*
G01*
X0162500Y0081820D01*
G01*
X0162500Y0081820D02*
G01*
X0159200Y0082343D01*
G01*
X0159200Y0082343D02*
G01*
X0156223Y0083860D01*
G01*
X0156223Y0083860D02*
G01*
X0154356Y0085727D01*
G01*
X0155132Y0086048D02*
G01*
X0170967Y0086048D01*
G01*
X0171357Y0086647D02*
G01*
X0155878Y0086647D01*
G01*
X0156344Y0087245D02*
G01*
X0160611Y0087245D01*
G01*
X0159413Y0087844D02*
G01*
X0156591Y0087844D01*
G01*
X0156718Y0088442D02*
G01*
X0158665Y0088442D01*
G01*
X0158115Y0089041D02*
G01*
X0156718Y0089041D01*
G01*
X0156607Y0089639D02*
G01*
X0157694Y0089639D01*
G01*
X0157389Y0090238D02*
G01*
X0156359Y0090238D01*
G01*
X0155915Y0090836D02*
G01*
X0157172Y0090836D01*
G01*
X0157018Y0091435D02*
G01*
X0155221Y0091435D01*
G01*
X0155556Y0092033D02*
G01*
X0156923Y0092033D01*
G01*
X0156155Y0092632D02*
G01*
X0162200Y0092632D01*
G01*
X0162200Y0093230D02*
G01*
X0162800Y0093230D01*
G01*
X0162800Y0092800D02*
G01*
X0162800Y0098082D01*
G01*
X0162800Y0098082D02*
G01*
X0162940Y0098082D01*
G01*
X0162940Y0098082D02*
G01*
X0163807Y0097944D01*
G01*
X0163807Y0097944D02*
G01*
X0164643Y0097673D01*
G01*
X0164643Y0097673D02*
G01*
X0165426Y0097274D01*
G01*
X0165426Y0097274D02*
G01*
X0166136Y0096758D01*
G01*
X0166136Y0096758D02*
G01*
X0166758Y0096136D01*
G01*
X0166758Y0096136D02*
G01*
X0167274Y0095426D01*
G01*
X0167274Y0095426D02*
G01*
X0167673Y0094643D01*
G01*
X0167673Y0094643D02*
G01*
X0167944Y0093807D01*
G01*
X0167944Y0093807D02*
G01*
X0168082Y0092939D01*
G01*
X0168082Y0092939D02*
G01*
X0168082Y0092800D01*
G01*
X0168082Y0092800D02*
G01*
X0162800Y0092800D01*
G01*
X0162800Y0092632D02*
G01*
X0173160Y0092632D01*
G01*
X0173107Y0092033D02*
G01*
X0168077Y0092033D01*
G01*
X0167983Y0091435D02*
G01*
X0173012Y0091435D01*
G01*
X0172917Y0090836D02*
G01*
X0167828Y0090836D01*
G01*
X0167612Y0090238D02*
G01*
X0172822Y0090238D01*
G01*
X0172728Y0089639D02*
G01*
X0167307Y0089639D01*
G01*
X0166886Y0089041D02*
G01*
X0172577Y0089041D01*
G01*
X0172658Y0089200D02*
G01*
X0172658Y0089200D01*
G01*
X0172272Y0088442D02*
G01*
X0166336Y0088442D01*
G01*
X0165587Y0087844D02*
G01*
X0171967Y0087844D01*
G01*
X0171662Y0087245D02*
G01*
X0164389Y0087245D01*
G01*
X0162800Y0087245D02*
G01*
X0162200Y0087245D01*
G01*
X0162200Y0087844D02*
G01*
X0162800Y0087844D01*
G01*
X0162800Y0088442D02*
G01*
X0162200Y0088442D01*
G01*
X0162200Y0089041D02*
G01*
X0162800Y0089041D01*
G01*
X0162800Y0089639D02*
G01*
X0162200Y0089639D01*
G01*
X0162200Y0090238D02*
G01*
X0162800Y0090238D01*
G01*
X0162800Y0090836D02*
G01*
X0162200Y0090836D01*
G01*
X0162200Y0091435D02*
G01*
X0162800Y0091435D01*
G01*
X0162800Y0092033D02*
G01*
X0162200Y0092033D01*
G01*
X0162200Y0093829D02*
G01*
X0162800Y0093829D01*
G01*
X0162800Y0094427D02*
G01*
X0162200Y0094427D01*
G01*
X0162200Y0095026D02*
G01*
X0162800Y0095026D01*
G01*
X0162800Y0095624D02*
G01*
X0162200Y0095624D01*
G01*
X0162200Y0096223D02*
G01*
X0162800Y0096223D01*
G01*
X0162800Y0096821D02*
G01*
X0162200Y0096821D01*
G01*
X0162200Y0097420D02*
G01*
X0162800Y0097420D01*
G01*
X0162800Y0098018D02*
G01*
X0162200Y0098018D01*
G01*
X0161662Y0098018D02*
G01*
X0161119Y0098018D01*
G01*
X0161822Y0098617D02*
G01*
X0163648Y0098617D01*
G01*
X0163339Y0098018D02*
G01*
X0164448Y0098018D01*
G01*
X0165139Y0097420D02*
G01*
X0171833Y0097420D01*
G01*
X0172138Y0096821D02*
G01*
X0166048Y0096821D01*
G01*
X0166671Y0096223D02*
G01*
X0172443Y0096223D01*
G01*
X0172686Y0095624D02*
G01*
X0167130Y0095624D01*
G01*
X0167478Y0095026D02*
G01*
X0172781Y0095026D01*
G01*
X0172875Y0094427D02*
G01*
X0167743Y0094427D01*
G01*
X0167937Y0093829D02*
G01*
X0172970Y0093829D01*
G01*
X0173065Y0093230D02*
G01*
X0168036Y0093230D01*
G01*
X0167246Y0098018D02*
G01*
X0171528Y0098018D01*
G01*
X0171223Y0098617D02*
G01*
X0168045Y0098617D01*
G01*
X0168533Y0099215D02*
G01*
X0170703Y0099215D01*
G01*
X0170105Y0099814D02*
G01*
X0168781Y0099814D01*
G01*
X0168922Y0100412D02*
G01*
X0169506Y0100412D01*
G01*
X0163536Y0102807D02*
G01*
X0161919Y0102807D01*
G01*
X0162292Y0102208D02*
G01*
X0163114Y0102208D01*
G01*
X0162866Y0101610D02*
G01*
X0162516Y0101610D01*
G01*
X0162771Y0101011D02*
G01*
X0159641Y0101011D01*
G01*
X0159060Y0101011D02*
G01*
X0156093Y0101011D01*
G01*
X0156082Y0100477D02*
G01*
X0156082Y0100446D01*
G01*
X0156082Y0100446D02*
G01*
X0156208Y0099815D01*
G01*
X0156208Y0099815D02*
G01*
X0156454Y0099220D01*
G01*
X0156454Y0099220D02*
G01*
X0156812Y0098684D01*
G01*
X0156812Y0098684D02*
G01*
X0157267Y0098229D01*
G01*
X0157267Y0098229D02*
G01*
X0157802Y0097871D01*
G01*
X0157802Y0097871D02*
G01*
X0158397Y0097625D01*
G01*
X0158397Y0097625D02*
G01*
X0159029Y0097499D01*
G01*
X0159029Y0097499D02*
G01*
X0159060Y0097499D01*
G01*
X0159060Y0097499D02*
G01*
X0159060Y0100477D01*
G01*
X0159060Y0100477D02*
G01*
X0156082Y0100477D01*
G01*
X0156089Y0100412D02*
G01*
X0155494Y0100412D01*
G01*
X0154896Y0099814D02*
G01*
X0156208Y0099814D01*
G01*
X0156457Y0099215D02*
G01*
X0154297Y0099215D01*
G01*
X0153778Y0098617D02*
G01*
X0156879Y0098617D01*
G01*
X0157582Y0098018D02*
G01*
X0153473Y0098018D01*
G01*
X0154554Y0097420D02*
G01*
X0159862Y0097420D01*
G01*
X0159641Y0098018D02*
G01*
X0159060Y0098018D01*
G01*
X0159060Y0098617D02*
G01*
X0159641Y0098617D01*
G01*
X0159641Y0099215D02*
G01*
X0159060Y0099215D01*
G01*
X0159060Y0099814D02*
G01*
X0159641Y0099814D01*
G01*
X0159641Y0100412D02*
G01*
X0159060Y0100412D01*
G01*
X0162244Y0099215D02*
G01*
X0163161Y0099215D01*
G01*
X0162913Y0099814D02*
G01*
X0162493Y0099814D01*
G01*
X0162613Y0100412D02*
G01*
X0162771Y0100412D01*
G01*
X0158952Y0096821D02*
G01*
X0155639Y0096821D01*
G01*
X0156237Y0096223D02*
G01*
X0158330Y0096223D01*
G01*
X0157871Y0095624D02*
G01*
X0156492Y0095624D01*
G01*
X0156718Y0095026D02*
G01*
X0157523Y0095026D01*
G01*
X0157258Y0094427D02*
G01*
X0156718Y0094427D01*
G01*
X0156706Y0093829D02*
G01*
X0157063Y0093829D01*
G01*
X0156965Y0093230D02*
G01*
X0156458Y0093230D01*
G01*
X0155829Y0084253D02*
G01*
X0169171Y0084253D01*
G01*
X0168375Y0083654D02*
G01*
X0156626Y0083654D01*
G01*
X0157800Y0083056D02*
G01*
X0167200Y0083056D01*
G01*
X0166026Y0082457D02*
G01*
X0158975Y0082457D01*
G01*
X0162255Y0081859D02*
G01*
X0162745Y0081859D01*
D14*
G01*
X0171162Y0097618D03*
D12*
G01*
X0171162Y0097618D02*
G01*
X0171162Y0092500D01*
G01*
X0171162Y0092500D02*
G01*
X0162500Y0092500D01*
M02*
