G75*
G70*
%OFA0B0*%
%FSLAX25Y25*%
%IPPOS*%
%LPD*%
%AMOC8*
5,1,8,0,0,1.08239X$1,22.5*
%
%ADD21C,0.08430*%
%ADD24R,0.03540X0.03350*%
%ADD28R,0.02090X0.02870*%
X0010000Y0010000D02*
D24*
G01*
X0031240Y0020217D03*
G01*
X0031240Y0024784D03*
D28*
G01*
X0019055Y0014292D03*
G01*
X0022520Y0014292D03*
G01*
X0025985Y0014292D03*
D21*
G01*
X0022500Y0022500D03*
X0010000Y0045000D02*
D24*
G01*
X0031240Y0055217D03*
G01*
X0031240Y0059784D03*
D28*
G01*
X0019055Y0049292D03*
G01*
X0022520Y0049292D03*
G01*
X0025985Y0049292D03*
D21*
G01*
X0022500Y0057500D03*
X0010000Y0080000D02*
D24*
G01*
X0031240Y0090217D03*
G01*
X0031240Y0094784D03*
D28*
G01*
X0019055Y0084292D03*
G01*
X0022520Y0084292D03*
G01*
X0025985Y0084292D03*
D21*
G01*
X0022500Y0092500D03*
X0045000Y0010000D02*
D24*
G01*
X0066240Y0020217D03*
G01*
X0066240Y0024784D03*
D28*
G01*
X0054055Y0014292D03*
G01*
X0057520Y0014292D03*
G01*
X0060985Y0014292D03*
D21*
G01*
X0057500Y0022500D03*
X0045000Y0045000D02*
D24*
G01*
X0066240Y0055217D03*
G01*
X0066240Y0059784D03*
D28*
G01*
X0054055Y0049292D03*
G01*
X0057520Y0049292D03*
G01*
X0060985Y0049292D03*
D21*
G01*
X0057500Y0057500D03*
X0045000Y0080000D02*
D24*
G01*
X0066240Y0090217D03*
G01*
X0066240Y0094784D03*
D28*
G01*
X0054055Y0084292D03*
G01*
X0057520Y0084292D03*
G01*
X0060985Y0084292D03*
D21*
G01*
X0057500Y0092500D03*
X0080000Y0010000D02*
D24*
G01*
X0101240Y0020217D03*
G01*
X0101240Y0024784D03*
D28*
G01*
X0089055Y0014292D03*
G01*
X0092520Y0014292D03*
G01*
X0095985Y0014292D03*
D21*
G01*
X0092500Y0022500D03*
X0080000Y0045000D02*
D24*
G01*
X0101240Y0055217D03*
G01*
X0101240Y0059784D03*
D28*
G01*
X0089055Y0049292D03*
G01*
X0092520Y0049292D03*
G01*
X0095985Y0049292D03*
D21*
G01*
X0092500Y0057500D03*
X0080000Y0080000D02*
D24*
G01*
X0101240Y0090217D03*
G01*
X0101240Y0094784D03*
D28*
G01*
X0089055Y0084292D03*
G01*
X0092520Y0084292D03*
G01*
X0095985Y0084292D03*
D21*
G01*
X0092500Y0092500D03*
X0115000Y0010000D02*
D24*
G01*
X0136240Y0020217D03*
G01*
X0136240Y0024784D03*
D28*
G01*
X0124055Y0014292D03*
G01*
X0127520Y0014292D03*
G01*
X0130985Y0014292D03*
D21*
G01*
X0127500Y0022500D03*
X0115000Y0045000D02*
D24*
G01*
X0136240Y0055217D03*
G01*
X0136240Y0059784D03*
D28*
G01*
X0124055Y0049292D03*
G01*
X0127520Y0049292D03*
G01*
X0130985Y0049292D03*
D21*
G01*
X0127500Y0057500D03*
X0115000Y0080000D02*
D24*
G01*
X0136240Y0090217D03*
G01*
X0136240Y0094784D03*
D28*
G01*
X0124055Y0084292D03*
G01*
X0127520Y0084292D03*
G01*
X0130985Y0084292D03*
D21*
G01*
X0127500Y0092500D03*
X0150000Y0010000D02*
D24*
G01*
X0171240Y0020217D03*
G01*
X0171240Y0024784D03*
D28*
G01*
X0159055Y0014292D03*
G01*
X0162520Y0014292D03*
G01*
X0165985Y0014292D03*
D21*
G01*
X0162500Y0022500D03*
X0150000Y0045000D02*
D24*
G01*
X0171240Y0055217D03*
G01*
X0171240Y0059784D03*
D28*
G01*
X0159055Y0049292D03*
G01*
X0162520Y0049292D03*
G01*
X0165985Y0049292D03*
D21*
G01*
X0162500Y0057500D03*
X0150000Y0080000D02*
D24*
G01*
X0171240Y0090217D03*
G01*
X0171240Y0094784D03*
D28*
G01*
X0159055Y0084292D03*
G01*
X0162520Y0084292D03*
G01*
X0165985Y0084292D03*
D21*
G01*
X0162500Y0092500D03*
M02*
