%
T01C0.010000
X3116Y2762
X3116Y6262
X3116Y9762
X6616Y2762
X6616Y6262
X6616Y9762
X10116Y2762
X10116Y6262
X10116Y9762
X13616Y2762
X13616Y6262
X13616Y9762
X17116Y2762
X17116Y6262
X17116Y9762
T02C0.024000
X1364Y1876
X1364Y2447
X1935Y3077
X2585Y3077
X1364Y5376
X1364Y5947
X1935Y6577
X2585Y6577
X1364Y8876
X1364Y9447
X1935Y10077
X2585Y10077
X4864Y1876
X4864Y2447
X5435Y3077
X6085Y3077
X4864Y5376
X4864Y5947
X5435Y6577
X6085Y6577
X4864Y8876
X4864Y9447
X5435Y10077
X6085Y10077
X8364Y1876
X8364Y2447
X8935Y3077
X9585Y3077
X8364Y5376
X8364Y5947
X8935Y6577
X9585Y6577
X8364Y8876
X8364Y9447
X8935Y10077
X9585Y10077
X11864Y1876
X11864Y2447
X12435Y3077
X13085Y3077
X11864Y5376
X11864Y5947
X12435Y6577
X13085Y6577
X11864Y8876
X11864Y9447
X12435Y10077
X13085Y10077
X15364Y1876
X15364Y2447
X15935Y3077
X16585Y3077
X15364Y5376
X15364Y5947
X15935Y6577
X16585Y6577
X15364Y8876
X15364Y9447
X15935Y10077
X16585Y10077
T03C0.057000
X2250Y2250
X2250Y5750
X2250Y9250
X5750Y2250
X5750Y5750
X5750Y9250
X9250Y2250
X9250Y5750
X9250Y9250
X12750Y2250
X12750Y5750
X12750Y9250
X16250Y2250
X16250Y5750
X16250Y9250
M30
