G75*
G70*
%OFA0B0*%
%FSLAX25Y25*%
%IPPOS*%
%LPD*%
%AMOC8*
5,1,8,0,0,1.08239X$1,22.5*
%
%ADD10C,0.04330*%
%ADD13C,0.09060*%
X0010000Y0010000D02*
D10*
G01*
X0013642Y0018760D03*
G01*
X0013642Y0024469D03*
G01*
X0019351Y0030768D03*
G01*
X0025847Y0030768D03*
D13*
G01*
X0022500Y0022500D03*
X0010000Y0045000D02*
D10*
G01*
X0013642Y0053760D03*
G01*
X0013642Y0059469D03*
G01*
X0019351Y0065768D03*
G01*
X0025847Y0065768D03*
D13*
G01*
X0022500Y0057500D03*
X0010000Y0080000D02*
D10*
G01*
X0013642Y0088760D03*
G01*
X0013642Y0094469D03*
G01*
X0019351Y0100768D03*
G01*
X0025847Y0100768D03*
D13*
G01*
X0022500Y0092500D03*
X0045000Y0010000D02*
D10*
G01*
X0048642Y0018760D03*
G01*
X0048642Y0024469D03*
G01*
X0054351Y0030768D03*
G01*
X0060847Y0030768D03*
D13*
G01*
X0057500Y0022500D03*
X0045000Y0045000D02*
D10*
G01*
X0048642Y0053760D03*
G01*
X0048642Y0059469D03*
G01*
X0054351Y0065768D03*
G01*
X0060847Y0065768D03*
D13*
G01*
X0057500Y0057500D03*
X0045000Y0080000D02*
D10*
G01*
X0048642Y0088760D03*
G01*
X0048642Y0094469D03*
G01*
X0054351Y0100768D03*
G01*
X0060847Y0100768D03*
D13*
G01*
X0057500Y0092500D03*
X0080000Y0010000D02*
D10*
G01*
X0083642Y0018760D03*
G01*
X0083642Y0024469D03*
G01*
X0089351Y0030768D03*
G01*
X0095847Y0030768D03*
D13*
G01*
X0092500Y0022500D03*
X0080000Y0045000D02*
D10*
G01*
X0083642Y0053760D03*
G01*
X0083642Y0059469D03*
G01*
X0089351Y0065768D03*
G01*
X0095847Y0065768D03*
D13*
G01*
X0092500Y0057500D03*
X0080000Y0080000D02*
D10*
G01*
X0083642Y0088760D03*
G01*
X0083642Y0094469D03*
G01*
X0089351Y0100768D03*
G01*
X0095847Y0100768D03*
D13*
G01*
X0092500Y0092500D03*
X0115000Y0010000D02*
D10*
G01*
X0118642Y0018760D03*
G01*
X0118642Y0024469D03*
G01*
X0124351Y0030768D03*
G01*
X0130847Y0030768D03*
D13*
G01*
X0127500Y0022500D03*
X0115000Y0045000D02*
D10*
G01*
X0118642Y0053760D03*
G01*
X0118642Y0059469D03*
G01*
X0124351Y0065768D03*
G01*
X0130847Y0065768D03*
D13*
G01*
X0127500Y0057500D03*
X0115000Y0080000D02*
D10*
G01*
X0118642Y0088760D03*
G01*
X0118642Y0094469D03*
G01*
X0124351Y0100768D03*
G01*
X0130847Y0100768D03*
D13*
G01*
X0127500Y0092500D03*
X0150000Y0010000D02*
D10*
G01*
X0153642Y0018760D03*
G01*
X0153642Y0024469D03*
G01*
X0159351Y0030768D03*
G01*
X0165847Y0030768D03*
D13*
G01*
X0162500Y0022500D03*
X0150000Y0045000D02*
D10*
G01*
X0153642Y0053760D03*
G01*
X0153642Y0059469D03*
G01*
X0159351Y0065768D03*
G01*
X0165847Y0065768D03*
D13*
G01*
X0162500Y0057500D03*
X0150000Y0080000D02*
D10*
G01*
X0153642Y0088760D03*
G01*
X0153642Y0094469D03*
G01*
X0159351Y0100768D03*
G01*
X0165847Y0100768D03*
D13*
G01*
X0162500Y0092500D03*
M02*
