G75*
%MOIN*%
%OFA0B0*%
%FSLAX25Y25*%
%IPPOS*%
%LPD*%
%AMOC8*
5,1,8,0,0,1.08239X$1,22.5*
%
%ADD10R,0.03543X0.03346*%
%ADD11C,0.03937*%
%ADD12R,0.02087X0.02874*%
%ADD13C,0.00118*%
%ADD14C,0.00120*%
%ADD15C,0.08425*%
%ADD16C,0.08563*%
%ADD17C,0.01200*%
%ADD18C,0.02187*%
%ADD19C,0.01600*%
D10*
X0024030Y0013268D03*
X0024030Y0017835D03*
D11*
X0018637Y0023819D03*
X0012141Y0023819D03*
X0006432Y0017520D03*
X0006432Y0011811D03*
D12*
X0011845Y0007343D03*
X0015310Y0007343D03*
X0018775Y0007343D03*
D13*
X0015348Y0011398D02*
X0015348Y0012461D01*
X0015349Y0012461D02*
X0015459Y0012465D01*
X0015569Y0012473D01*
X0015679Y0012485D01*
X0015788Y0012500D01*
X0015896Y0012520D01*
X0016004Y0012544D01*
X0016111Y0012571D01*
X0016217Y0012602D01*
X0016321Y0012637D01*
X0016425Y0012676D01*
X0016527Y0012718D01*
X0016627Y0012764D01*
X0016725Y0012814D01*
X0016822Y0012866D01*
X0016917Y0012923D01*
X0017010Y0012983D01*
X0017100Y0013046D01*
X0017188Y0013112D01*
X0017274Y0013181D01*
X0017358Y0013253D01*
X0017438Y0013328D01*
X0017516Y0013407D01*
X0017591Y0013487D01*
X0017663Y0013571D01*
X0017732Y0013657D01*
X0017798Y0013745D01*
X0017861Y0013836D01*
X0017921Y0013928D01*
X0017977Y0014023D01*
X0018030Y0014120D01*
X0018079Y0014219D01*
X0018125Y0014319D01*
X0018167Y0014421D01*
X0018206Y0014524D01*
X0018240Y0014629D01*
X0018271Y0014735D01*
X0018299Y0014842D01*
X0018322Y0014950D01*
X0018341Y0015058D01*
X0018357Y0015167D01*
X0018369Y0015277D01*
X0018377Y0015387D01*
X0018381Y0015497D01*
X0018380Y0015607D01*
X0018377Y0015718D01*
X0018369Y0015828D01*
X0018357Y0015937D01*
X0018341Y0016046D01*
X0018321Y0016155D01*
X0018298Y0016263D01*
X0018271Y0016370D01*
X0018240Y0016475D01*
X0018205Y0016580D01*
X0018166Y0016683D01*
X0018124Y0016785D01*
X0018078Y0016886D01*
X0018029Y0016984D01*
X0017976Y0017081D01*
X0017920Y0017176D01*
X0017860Y0017269D01*
X0017797Y0017359D01*
X0017731Y0017447D01*
X0017662Y0017533D01*
X0017589Y0017617D01*
X0017514Y0017697D01*
X0017436Y0017775D01*
X0017356Y0017850D01*
X0017272Y0017923D01*
X0017186Y0017992D01*
X0017098Y0018058D01*
X0017008Y0018121D01*
X0016915Y0018181D01*
X0016820Y0018237D01*
X0016723Y0018290D01*
X0016625Y0018339D01*
X0016524Y0018385D01*
X0016422Y0018427D01*
X0016319Y0018466D01*
X0016214Y0018501D01*
X0016109Y0018532D01*
X0016002Y0018559D01*
X0015894Y0018582D01*
X0015785Y0018602D01*
X0015676Y0018618D01*
X0015567Y0018630D01*
X0015457Y0018638D01*
X0015346Y0018641D01*
X0015236Y0018642D01*
X0015126Y0018638D01*
X0015016Y0018630D01*
X0014906Y0018618D01*
X0014797Y0018602D01*
X0014689Y0018583D01*
X0014581Y0018560D01*
X0014474Y0018532D01*
X0014368Y0018501D01*
X0014263Y0018467D01*
X0014160Y0018428D01*
X0014058Y0018386D01*
X0013958Y0018340D01*
X0013859Y0018291D01*
X0013762Y0018238D01*
X0013667Y0018182D01*
X0013575Y0018122D01*
X0013484Y0018059D01*
X0013396Y0017993D01*
X0013310Y0017924D01*
X0013226Y0017852D01*
X0013146Y0017777D01*
X0013067Y0017699D01*
X0012992Y0017619D01*
X0012920Y0017535D01*
X0012851Y0017449D01*
X0012785Y0017361D01*
X0012722Y0017271D01*
X0012662Y0017178D01*
X0012605Y0017083D01*
X0012553Y0016986D01*
X0012503Y0016888D01*
X0012457Y0016788D01*
X0012415Y0016686D01*
X0012376Y0016582D01*
X0012341Y0016478D01*
X0012310Y0016372D01*
X0012283Y0016265D01*
X0012259Y0016157D01*
X0012239Y0016049D01*
X0012224Y0015940D01*
X0012212Y0015830D01*
X0012204Y0015720D01*
X0012200Y0015610D01*
X0011137Y0015609D01*
X0011136Y0015610D01*
X0011140Y0015738D01*
X0011148Y0015866D01*
X0011160Y0015993D01*
X0011175Y0016120D01*
X0011195Y0016247D01*
X0011218Y0016373D01*
X0011245Y0016498D01*
X0011276Y0016622D01*
X0011311Y0016745D01*
X0011350Y0016867D01*
X0011392Y0016988D01*
X0011439Y0017107D01*
X0011488Y0017225D01*
X0011542Y0017341D01*
X0011599Y0017456D01*
X0011659Y0017569D01*
X0011723Y0017680D01*
X0011790Y0017789D01*
X0011861Y0017895D01*
X0011935Y0018000D01*
X0012012Y0018102D01*
X0012092Y0018202D01*
X0012175Y0018299D01*
X0012261Y0018394D01*
X0012350Y0018486D01*
X0012442Y0018575D01*
X0012537Y0018661D01*
X0012634Y0018745D01*
X0012733Y0018825D01*
X0012836Y0018902D01*
X0012940Y0018976D01*
X0013047Y0019047D01*
X0013155Y0019115D01*
X0013266Y0019179D01*
X0013379Y0019239D01*
X0013494Y0019296D01*
X0013610Y0019350D01*
X0013728Y0019400D01*
X0013847Y0019446D01*
X0013968Y0019489D01*
X0014090Y0019528D01*
X0014213Y0019563D01*
X0014337Y0019594D01*
X0014462Y0019622D01*
X0014588Y0019645D01*
X0014714Y0019665D01*
X0014841Y0019681D01*
X0014969Y0019693D01*
X0015096Y0019700D01*
X0015224Y0019704D01*
X0015352Y0019705D01*
X0015480Y0019701D01*
X0015608Y0019693D01*
X0015736Y0019681D01*
X0015863Y0019665D01*
X0015989Y0019646D01*
X0016115Y0019622D01*
X0016240Y0019595D01*
X0016364Y0019564D01*
X0016487Y0019529D01*
X0016609Y0019490D01*
X0016730Y0019447D01*
X0016849Y0019401D01*
X0016967Y0019351D01*
X0017083Y0019298D01*
X0017198Y0019241D01*
X0017311Y0019180D01*
X0017422Y0019116D01*
X0017531Y0019049D01*
X0017637Y0018978D01*
X0017742Y0018904D01*
X0017844Y0018827D01*
X0017944Y0018747D01*
X0018041Y0018664D01*
X0018135Y0018577D01*
X0018227Y0018488D01*
X0018316Y0018396D01*
X0018403Y0018302D01*
X0018486Y0018205D01*
X0018566Y0018105D01*
X0018643Y0018003D01*
X0018717Y0017898D01*
X0018788Y0017792D01*
X0018855Y0017683D01*
X0018919Y0017572D01*
X0018980Y0017459D01*
X0019037Y0017344D01*
X0019090Y0017228D01*
X0019140Y0017110D01*
X0019186Y0016991D01*
X0019229Y0016870D01*
X0019268Y0016748D01*
X0019303Y0016625D01*
X0019334Y0016501D01*
X0019361Y0016376D01*
X0019385Y0016250D01*
X0019404Y0016124D01*
X0019420Y0015997D01*
X0019432Y0015869D01*
X0019440Y0015741D01*
X0019444Y0015613D01*
X0019443Y0015485D01*
X0019439Y0015357D01*
X0019432Y0015230D01*
X0019420Y0015102D01*
X0019404Y0014975D01*
X0019384Y0014849D01*
X0019361Y0014723D01*
X0019333Y0014598D01*
X0019302Y0014474D01*
X0019267Y0014351D01*
X0019228Y0014229D01*
X0019185Y0014108D01*
X0019139Y0013989D01*
X0019089Y0013871D01*
X0019035Y0013755D01*
X0018978Y0013640D01*
X0018918Y0013527D01*
X0018854Y0013416D01*
X0018786Y0013308D01*
X0018715Y0013201D01*
X0018641Y0013097D01*
X0018564Y0012994D01*
X0018484Y0012895D01*
X0018400Y0012798D01*
X0018314Y0012703D01*
X0018225Y0012611D01*
X0018133Y0012522D01*
X0018038Y0012436D01*
X0017941Y0012353D01*
X0017841Y0012273D01*
X0017739Y0012196D01*
X0017634Y0012122D01*
X0017528Y0012051D01*
X0017419Y0011984D01*
X0017308Y0011920D01*
X0017195Y0011860D01*
X0017080Y0011803D01*
X0016964Y0011749D01*
X0016846Y0011700D01*
X0016727Y0011653D01*
X0016606Y0011611D01*
X0016484Y0011572D01*
X0016361Y0011537D01*
X0016237Y0011506D01*
X0016112Y0011479D01*
X0015986Y0011456D01*
X0015859Y0011436D01*
X0015732Y0011421D01*
X0015605Y0011409D01*
X0015477Y0011401D01*
X0015349Y0011397D01*
X0015349Y0011508D01*
X0015475Y0011512D01*
X0015601Y0011520D01*
X0015727Y0011532D01*
X0015852Y0011547D01*
X0015977Y0011567D01*
X0016101Y0011590D01*
X0016224Y0011617D01*
X0016346Y0011648D01*
X0016468Y0011683D01*
X0016588Y0011722D01*
X0016707Y0011764D01*
X0016824Y0011810D01*
X0016940Y0011860D01*
X0017055Y0011913D01*
X0017167Y0011970D01*
X0017278Y0012031D01*
X0017387Y0012094D01*
X0017494Y0012162D01*
X0017599Y0012232D01*
X0017701Y0012306D01*
X0017801Y0012383D01*
X0017899Y0012463D01*
X0017994Y0012546D01*
X0018087Y0012631D01*
X0018177Y0012720D01*
X0018263Y0012812D01*
X0018348Y0012906D01*
X0018429Y0013002D01*
X0018507Y0013102D01*
X0018582Y0013203D01*
X0018653Y0013307D01*
X0018722Y0013413D01*
X0018787Y0013521D01*
X0018848Y0013632D01*
X0018907Y0013744D01*
X0018961Y0013857D01*
X0019012Y0013973D01*
X0019060Y0014090D01*
X0019103Y0014208D01*
X0019144Y0014328D01*
X0019180Y0014449D01*
X0019212Y0014571D01*
X0019241Y0014694D01*
X0019266Y0014817D01*
X0019287Y0014942D01*
X0019304Y0015067D01*
X0019317Y0015192D01*
X0019326Y0015318D01*
X0019332Y0015444D01*
X0019333Y0015571D01*
X0019330Y0015697D01*
X0019324Y0015823D01*
X0019313Y0015949D01*
X0019299Y0016074D01*
X0019281Y0016199D01*
X0019259Y0016323D01*
X0019233Y0016447D01*
X0019203Y0016569D01*
X0019169Y0016691D01*
X0019131Y0016812D01*
X0019090Y0016931D01*
X0019045Y0017049D01*
X0018997Y0017165D01*
X0018945Y0017280D01*
X0018889Y0017393D01*
X0018829Y0017505D01*
X0018767Y0017614D01*
X0018701Y0017722D01*
X0018631Y0017827D01*
X0018559Y0017931D01*
X0018483Y0018031D01*
X0018404Y0018130D01*
X0018322Y0018226D01*
X0018237Y0018319D01*
X0018149Y0018410D01*
X0018058Y0018498D01*
X0017965Y0018583D01*
X0017869Y0018665D01*
X0017770Y0018744D01*
X0017670Y0018820D01*
X0017566Y0018892D01*
X0017461Y0018962D01*
X0017353Y0019028D01*
X0017244Y0019090D01*
X0017132Y0019150D01*
X0017019Y0019206D01*
X0016904Y0019258D01*
X0016788Y0019306D01*
X0016670Y0019351D01*
X0016551Y0019392D01*
X0016430Y0019430D01*
X0016308Y0019464D01*
X0016186Y0019494D01*
X0016062Y0019520D01*
X0015938Y0019542D01*
X0015813Y0019560D01*
X0015688Y0019574D01*
X0015562Y0019585D01*
X0015436Y0019591D01*
X0015310Y0019594D01*
X0015183Y0019593D01*
X0015057Y0019587D01*
X0014931Y0019578D01*
X0014806Y0019565D01*
X0014681Y0019548D01*
X0014556Y0019527D01*
X0014433Y0019502D01*
X0014310Y0019473D01*
X0014188Y0019441D01*
X0014067Y0019405D01*
X0013947Y0019364D01*
X0013829Y0019321D01*
X0013712Y0019273D01*
X0013596Y0019222D01*
X0013483Y0019168D01*
X0013371Y0019109D01*
X0013260Y0019048D01*
X0013152Y0018983D01*
X0013046Y0018914D01*
X0012942Y0018843D01*
X0012841Y0018768D01*
X0012741Y0018690D01*
X0012645Y0018609D01*
X0012551Y0018524D01*
X0012459Y0018438D01*
X0012370Y0018348D01*
X0012285Y0018255D01*
X0012202Y0018160D01*
X0012122Y0018062D01*
X0012045Y0017962D01*
X0011971Y0017860D01*
X0011901Y0017755D01*
X0011833Y0017648D01*
X0011770Y0017539D01*
X0011709Y0017428D01*
X0011652Y0017316D01*
X0011599Y0017201D01*
X0011549Y0017085D01*
X0011503Y0016968D01*
X0011461Y0016849D01*
X0011422Y0016729D01*
X0011387Y0016607D01*
X0011356Y0016485D01*
X0011329Y0016362D01*
X0011306Y0016238D01*
X0011286Y0016113D01*
X0011271Y0015988D01*
X0011259Y0015862D01*
X0011251Y0015736D01*
X0011247Y0015610D01*
X0011358Y0015610D01*
X0011362Y0015734D01*
X0011370Y0015858D01*
X0011382Y0015982D01*
X0011397Y0016106D01*
X0011417Y0016229D01*
X0011440Y0016351D01*
X0011467Y0016472D01*
X0011498Y0016593D01*
X0011533Y0016712D01*
X0011572Y0016830D01*
X0011614Y0016947D01*
X0011660Y0017063D01*
X0011710Y0017177D01*
X0011763Y0017289D01*
X0011820Y0017400D01*
X0011880Y0017509D01*
X0011944Y0017616D01*
X0012011Y0017721D01*
X0012081Y0017823D01*
X0012154Y0017924D01*
X0012231Y0018022D01*
X0012311Y0018117D01*
X0012393Y0018210D01*
X0012479Y0018300D01*
X0012567Y0018388D01*
X0012658Y0018473D01*
X0012752Y0018554D01*
X0012848Y0018633D01*
X0012947Y0018709D01*
X0013048Y0018781D01*
X0013152Y0018851D01*
X0013257Y0018917D01*
X0013364Y0018979D01*
X0013474Y0019038D01*
X0013585Y0019094D01*
X0013698Y0019146D01*
X0013813Y0019195D01*
X0013929Y0019240D01*
X0014046Y0019281D01*
X0014165Y0019318D01*
X0014284Y0019352D01*
X0014405Y0019382D01*
X0014527Y0019408D01*
X0014649Y0019430D01*
X0014772Y0019449D01*
X0014896Y0019463D01*
X0015020Y0019474D01*
X0015144Y0019480D01*
X0015268Y0019483D01*
X0015393Y0019482D01*
X0015517Y0019476D01*
X0015641Y0019467D01*
X0015765Y0019454D01*
X0015888Y0019437D01*
X0016011Y0019416D01*
X0016132Y0019392D01*
X0016253Y0019363D01*
X0016374Y0019331D01*
X0016493Y0019295D01*
X0016610Y0019255D01*
X0016727Y0019211D01*
X0016842Y0019164D01*
X0016955Y0019113D01*
X0017067Y0019058D01*
X0017177Y0019000D01*
X0017286Y0018939D01*
X0017392Y0018874D01*
X0017496Y0018806D01*
X0017598Y0018735D01*
X0017697Y0018660D01*
X0017794Y0018582D01*
X0017889Y0018502D01*
X0017981Y0018418D01*
X0018070Y0018331D01*
X0018157Y0018242D01*
X0018241Y0018150D01*
X0018321Y0018055D01*
X0018399Y0017958D01*
X0018474Y0017859D01*
X0018545Y0017757D01*
X0018613Y0017653D01*
X0018678Y0017547D01*
X0018739Y0017438D01*
X0018797Y0017328D01*
X0018852Y0017216D01*
X0018903Y0017103D01*
X0018950Y0016988D01*
X0018994Y0016871D01*
X0019034Y0016754D01*
X0019070Y0016635D01*
X0019102Y0016514D01*
X0019131Y0016393D01*
X0019155Y0016272D01*
X0019176Y0016149D01*
X0019193Y0016026D01*
X0019206Y0015902D01*
X0019215Y0015778D01*
X0019221Y0015654D01*
X0019222Y0015529D01*
X0019219Y0015405D01*
X0019213Y0015281D01*
X0019202Y0015157D01*
X0019188Y0015033D01*
X0019169Y0014910D01*
X0019147Y0014788D01*
X0019121Y0014666D01*
X0019091Y0014545D01*
X0019057Y0014426D01*
X0019020Y0014307D01*
X0018979Y0014190D01*
X0018934Y0014074D01*
X0018885Y0013959D01*
X0018833Y0013846D01*
X0018777Y0013735D01*
X0018718Y0013625D01*
X0018656Y0013518D01*
X0018590Y0013413D01*
X0018520Y0013309D01*
X0018448Y0013208D01*
X0018372Y0013109D01*
X0018293Y0013013D01*
X0018212Y0012919D01*
X0018127Y0012828D01*
X0018039Y0012740D01*
X0017949Y0012654D01*
X0017856Y0012572D01*
X0017761Y0012492D01*
X0017663Y0012415D01*
X0017562Y0012342D01*
X0017460Y0012272D01*
X0017355Y0012205D01*
X0017248Y0012141D01*
X0017139Y0012081D01*
X0017028Y0012024D01*
X0016916Y0011971D01*
X0016802Y0011921D01*
X0016686Y0011875D01*
X0016569Y0011833D01*
X0016451Y0011794D01*
X0016332Y0011759D01*
X0016211Y0011728D01*
X0016090Y0011701D01*
X0015968Y0011678D01*
X0015845Y0011658D01*
X0015721Y0011643D01*
X0015597Y0011631D01*
X0015473Y0011623D01*
X0015349Y0011619D01*
X0015349Y0011730D01*
X0015471Y0011734D01*
X0015594Y0011742D01*
X0015716Y0011754D01*
X0015837Y0011769D01*
X0015958Y0011789D01*
X0016078Y0011812D01*
X0016198Y0011839D01*
X0016316Y0011870D01*
X0016434Y0011905D01*
X0016550Y0011944D01*
X0016665Y0011986D01*
X0016779Y0012032D01*
X0016891Y0012081D01*
X0017001Y0012135D01*
X0017110Y0012191D01*
X0017217Y0012251D01*
X0017321Y0012315D01*
X0017424Y0012382D01*
X0017525Y0012452D01*
X0017623Y0012525D01*
X0017719Y0012601D01*
X0017812Y0012681D01*
X0017903Y0012763D01*
X0017991Y0012848D01*
X0018076Y0012936D01*
X0018158Y0013027D01*
X0018238Y0013120D01*
X0018314Y0013216D01*
X0018388Y0013314D01*
X0018458Y0013414D01*
X0018525Y0013517D01*
X0018588Y0013622D01*
X0018648Y0013728D01*
X0018705Y0013837D01*
X0018758Y0013947D01*
X0018808Y0014059D01*
X0018854Y0014173D01*
X0018896Y0014288D01*
X0018935Y0014404D01*
X0018970Y0014522D01*
X0019001Y0014640D01*
X0019028Y0014760D01*
X0019052Y0014880D01*
X0019071Y0015001D01*
X0019087Y0015122D01*
X0019099Y0015244D01*
X0019107Y0015367D01*
X0019110Y0015489D01*
X0019111Y0015612D01*
X0019107Y0015734D01*
X0019099Y0015856D01*
X0019087Y0015978D01*
X0019071Y0016100D01*
X0019052Y0016221D01*
X0019028Y0016341D01*
X0019001Y0016460D01*
X0018970Y0016579D01*
X0018935Y0016696D01*
X0018897Y0016813D01*
X0018854Y0016928D01*
X0018808Y0017041D01*
X0018759Y0017153D01*
X0018706Y0017264D01*
X0018649Y0017372D01*
X0018589Y0017479D01*
X0018525Y0017584D01*
X0018459Y0017686D01*
X0018389Y0017787D01*
X0018315Y0017885D01*
X0018239Y0017981D01*
X0018159Y0018074D01*
X0018077Y0018165D01*
X0017992Y0018253D01*
X0017904Y0018338D01*
X0017813Y0018420D01*
X0017720Y0018500D01*
X0017624Y0018576D01*
X0017526Y0018650D01*
X0017425Y0018720D01*
X0017323Y0018786D01*
X0017218Y0018850D01*
X0017111Y0018910D01*
X0017003Y0018967D01*
X0016892Y0019020D01*
X0016780Y0019069D01*
X0016667Y0019115D01*
X0016552Y0019158D01*
X0016435Y0019196D01*
X0016318Y0019231D01*
X0016199Y0019262D01*
X0016080Y0019289D01*
X0015960Y0019313D01*
X0015839Y0019332D01*
X0015717Y0019348D01*
X0015595Y0019360D01*
X0015473Y0019368D01*
X0015351Y0019372D01*
X0015228Y0019371D01*
X0015106Y0019368D01*
X0014983Y0019360D01*
X0014861Y0019348D01*
X0014740Y0019332D01*
X0014619Y0019313D01*
X0014499Y0019289D01*
X0014379Y0019262D01*
X0014261Y0019231D01*
X0014143Y0019196D01*
X0014027Y0019157D01*
X0013912Y0019115D01*
X0013798Y0019069D01*
X0013686Y0019019D01*
X0013576Y0018966D01*
X0013467Y0018909D01*
X0013361Y0018849D01*
X0013256Y0018786D01*
X0013153Y0018719D01*
X0013053Y0018649D01*
X0012955Y0018575D01*
X0012859Y0018499D01*
X0012766Y0018419D01*
X0012675Y0018337D01*
X0012587Y0018252D01*
X0012502Y0018164D01*
X0012420Y0018073D01*
X0012340Y0017980D01*
X0012264Y0017884D01*
X0012191Y0017786D01*
X0012121Y0017685D01*
X0012054Y0017582D01*
X0011990Y0017478D01*
X0011930Y0017371D01*
X0011874Y0017262D01*
X0011820Y0017152D01*
X0011771Y0017040D01*
X0011725Y0016926D01*
X0011683Y0016811D01*
X0011644Y0016695D01*
X0011609Y0016577D01*
X0011578Y0016459D01*
X0011551Y0016339D01*
X0011528Y0016219D01*
X0011508Y0016098D01*
X0011493Y0015977D01*
X0011481Y0015855D01*
X0011473Y0015732D01*
X0011469Y0015610D01*
X0011580Y0015610D01*
X0011584Y0015731D01*
X0011592Y0015851D01*
X0011604Y0015971D01*
X0011619Y0016090D01*
X0011639Y0016209D01*
X0011662Y0016328D01*
X0011689Y0016445D01*
X0011720Y0016562D01*
X0011755Y0016677D01*
X0011794Y0016792D01*
X0011836Y0016905D01*
X0011882Y0017016D01*
X0011931Y0017126D01*
X0011984Y0017234D01*
X0012040Y0017341D01*
X0012100Y0017446D01*
X0012163Y0017548D01*
X0012230Y0017649D01*
X0012300Y0017747D01*
X0012373Y0017843D01*
X0012449Y0017937D01*
X0012528Y0018028D01*
X0012610Y0018116D01*
X0012695Y0018202D01*
X0012782Y0018285D01*
X0012872Y0018365D01*
X0012965Y0018442D01*
X0013060Y0018516D01*
X0013158Y0018587D01*
X0013258Y0018655D01*
X0013359Y0018719D01*
X0013463Y0018780D01*
X0013569Y0018838D01*
X0013677Y0018892D01*
X0013787Y0018943D01*
X0013898Y0018990D01*
X0014010Y0019033D01*
X0014124Y0019073D01*
X0014239Y0019109D01*
X0014355Y0019141D01*
X0014472Y0019170D01*
X0014590Y0019194D01*
X0014709Y0019215D01*
X0014829Y0019232D01*
X0014948Y0019245D01*
X0015069Y0019254D01*
X0015189Y0019260D01*
X0015310Y0019261D01*
X0015430Y0019258D01*
X0015551Y0019252D01*
X0015671Y0019241D01*
X0015790Y0019227D01*
X0015910Y0019209D01*
X0016028Y0019187D01*
X0016146Y0019161D01*
X0016263Y0019131D01*
X0016379Y0019098D01*
X0016493Y0019060D01*
X0016607Y0019019D01*
X0016719Y0018975D01*
X0016829Y0018927D01*
X0016938Y0018875D01*
X0017045Y0018819D01*
X0017151Y0018761D01*
X0017254Y0018699D01*
X0017355Y0018633D01*
X0017454Y0018564D01*
X0017551Y0018492D01*
X0017645Y0018417D01*
X0017737Y0018339D01*
X0017827Y0018258D01*
X0017913Y0018174D01*
X0017997Y0018088D01*
X0018078Y0017998D01*
X0018156Y0017906D01*
X0018231Y0017812D01*
X0018303Y0017715D01*
X0018372Y0017616D01*
X0018438Y0017515D01*
X0018500Y0017412D01*
X0018558Y0017306D01*
X0018614Y0017199D01*
X0018666Y0017090D01*
X0018714Y0016980D01*
X0018758Y0016868D01*
X0018799Y0016754D01*
X0018837Y0016640D01*
X0018870Y0016524D01*
X0018900Y0016407D01*
X0018926Y0016289D01*
X0018948Y0016171D01*
X0018966Y0016051D01*
X0018980Y0015932D01*
X0018991Y0015812D01*
X0018997Y0015691D01*
X0019000Y0015571D01*
X0018999Y0015450D01*
X0018993Y0015330D01*
X0018984Y0015209D01*
X0018971Y0015090D01*
X0018954Y0014970D01*
X0018933Y0014851D01*
X0018909Y0014733D01*
X0018880Y0014616D01*
X0018848Y0014500D01*
X0018812Y0014385D01*
X0018772Y0014271D01*
X0018729Y0014159D01*
X0018682Y0014048D01*
X0018631Y0013938D01*
X0018577Y0013830D01*
X0018519Y0013724D01*
X0018458Y0013620D01*
X0018394Y0013519D01*
X0018326Y0013419D01*
X0018255Y0013321D01*
X0018181Y0013226D01*
X0018104Y0013133D01*
X0018024Y0013043D01*
X0017941Y0012956D01*
X0017855Y0012871D01*
X0017767Y0012789D01*
X0017676Y0012710D01*
X0017582Y0012634D01*
X0017486Y0012561D01*
X0017388Y0012491D01*
X0017287Y0012424D01*
X0017185Y0012361D01*
X0017080Y0012301D01*
X0016973Y0012245D01*
X0016865Y0012192D01*
X0016755Y0012143D01*
X0016644Y0012097D01*
X0016531Y0012055D01*
X0016416Y0012016D01*
X0016301Y0011981D01*
X0016184Y0011950D01*
X0016067Y0011923D01*
X0015948Y0011900D01*
X0015829Y0011880D01*
X0015710Y0011865D01*
X0015590Y0011853D01*
X0015470Y0011845D01*
X0015349Y0011841D01*
X0015349Y0011952D01*
X0015468Y0011956D01*
X0015588Y0011964D01*
X0015706Y0011976D01*
X0015825Y0011992D01*
X0015943Y0012012D01*
X0016060Y0012035D01*
X0016176Y0012063D01*
X0016291Y0012094D01*
X0016405Y0012129D01*
X0016518Y0012168D01*
X0016630Y0012211D01*
X0016740Y0012257D01*
X0016848Y0012307D01*
X0016955Y0012360D01*
X0017060Y0012417D01*
X0017163Y0012478D01*
X0017264Y0012542D01*
X0017363Y0012609D01*
X0017459Y0012679D01*
X0017553Y0012753D01*
X0017645Y0012830D01*
X0017734Y0012909D01*
X0017820Y0012992D01*
X0017904Y0013077D01*
X0017985Y0013165D01*
X0018062Y0013256D01*
X0018137Y0013349D01*
X0018208Y0013445D01*
X0018277Y0013543D01*
X0018342Y0013643D01*
X0018403Y0013745D01*
X0018462Y0013850D01*
X0018516Y0013956D01*
X0018567Y0014064D01*
X0018615Y0014173D01*
X0018659Y0014284D01*
X0018699Y0014397D01*
X0018735Y0014511D01*
X0018768Y0014626D01*
X0018797Y0014742D01*
X0018822Y0014858D01*
X0018843Y0014976D01*
X0018860Y0015094D01*
X0018873Y0015213D01*
X0018882Y0015332D01*
X0018888Y0015451D01*
X0018889Y0015571D01*
X0018886Y0015690D01*
X0018880Y0015809D01*
X0018869Y0015928D01*
X0018855Y0016047D01*
X0018836Y0016165D01*
X0018814Y0016282D01*
X0018788Y0016399D01*
X0018758Y0016514D01*
X0018724Y0016629D01*
X0018686Y0016742D01*
X0018645Y0016854D01*
X0018600Y0016965D01*
X0018551Y0017074D01*
X0018499Y0017181D01*
X0018443Y0017287D01*
X0018383Y0017391D01*
X0018321Y0017492D01*
X0018255Y0017592D01*
X0018185Y0017689D01*
X0018113Y0017784D01*
X0018037Y0017876D01*
X0017958Y0017966D01*
X0017877Y0018053D01*
X0017792Y0018138D01*
X0017705Y0018219D01*
X0017615Y0018298D01*
X0017523Y0018374D01*
X0017428Y0018446D01*
X0017331Y0018516D01*
X0017231Y0018582D01*
X0017130Y0018644D01*
X0017026Y0018704D01*
X0016920Y0018760D01*
X0016813Y0018812D01*
X0016704Y0018861D01*
X0016593Y0018906D01*
X0016481Y0018947D01*
X0016368Y0018985D01*
X0016253Y0019019D01*
X0016138Y0019049D01*
X0016021Y0019075D01*
X0015904Y0019097D01*
X0015786Y0019116D01*
X0015667Y0019130D01*
X0015548Y0019141D01*
X0015429Y0019147D01*
X0015310Y0019150D01*
X0015190Y0019149D01*
X0015071Y0019143D01*
X0014952Y0019134D01*
X0014833Y0019121D01*
X0014715Y0019104D01*
X0014597Y0019083D01*
X0014481Y0019058D01*
X0014365Y0019029D01*
X0014250Y0018996D01*
X0014136Y0018960D01*
X0014023Y0018920D01*
X0013912Y0018876D01*
X0013803Y0018828D01*
X0013695Y0018777D01*
X0013589Y0018723D01*
X0013484Y0018664D01*
X0013382Y0018603D01*
X0013282Y0018538D01*
X0013184Y0018469D01*
X0013088Y0018398D01*
X0012995Y0018323D01*
X0012904Y0018246D01*
X0012816Y0018165D01*
X0012731Y0018081D01*
X0012648Y0017995D01*
X0012569Y0017906D01*
X0012492Y0017814D01*
X0012418Y0017720D01*
X0012348Y0017624D01*
X0012281Y0017525D01*
X0012217Y0017424D01*
X0012156Y0017321D01*
X0012099Y0017216D01*
X0012046Y0017109D01*
X0011996Y0017001D01*
X0011950Y0016891D01*
X0011907Y0016779D01*
X0011868Y0016666D01*
X0011833Y0016552D01*
X0011802Y0016437D01*
X0011774Y0016321D01*
X0011751Y0016204D01*
X0011731Y0016086D01*
X0011715Y0015967D01*
X0011703Y0015849D01*
X0011695Y0015729D01*
X0011691Y0015610D01*
X0011802Y0015610D01*
X0011806Y0015727D01*
X0011814Y0015844D01*
X0011826Y0015961D01*
X0011842Y0016078D01*
X0011862Y0016193D01*
X0011885Y0016308D01*
X0011913Y0016422D01*
X0011944Y0016536D01*
X0011979Y0016648D01*
X0012018Y0016758D01*
X0012060Y0016868D01*
X0012106Y0016976D01*
X0012156Y0017082D01*
X0012209Y0017187D01*
X0012266Y0017290D01*
X0012326Y0017390D01*
X0012390Y0017489D01*
X0012457Y0017586D01*
X0012527Y0017680D01*
X0012600Y0017771D01*
X0012676Y0017861D01*
X0012756Y0017947D01*
X0012838Y0018031D01*
X0012922Y0018112D01*
X0013010Y0018191D01*
X0013100Y0018266D01*
X0013193Y0018338D01*
X0013288Y0018407D01*
X0013385Y0018473D01*
X0013484Y0018535D01*
X0013586Y0018594D01*
X0013689Y0018650D01*
X0013794Y0018702D01*
X0013901Y0018751D01*
X0014010Y0018796D01*
X0014120Y0018837D01*
X0014231Y0018874D01*
X0014343Y0018908D01*
X0014457Y0018938D01*
X0014571Y0018964D01*
X0014687Y0018986D01*
X0014803Y0019005D01*
X0014919Y0019019D01*
X0015036Y0019030D01*
X0015153Y0019036D01*
X0015271Y0019039D01*
X0015388Y0019038D01*
X0015505Y0019032D01*
X0015622Y0019023D01*
X0015739Y0019010D01*
X0015855Y0018993D01*
X0015971Y0018972D01*
X0016085Y0018947D01*
X0016199Y0018918D01*
X0016312Y0018886D01*
X0016424Y0018850D01*
X0016534Y0018810D01*
X0016643Y0018766D01*
X0016750Y0018719D01*
X0016856Y0018668D01*
X0016960Y0018613D01*
X0017062Y0018555D01*
X0017162Y0018494D01*
X0017260Y0018429D01*
X0017356Y0018361D01*
X0017449Y0018290D01*
X0017540Y0018216D01*
X0017629Y0018139D01*
X0017715Y0018059D01*
X0017798Y0017976D01*
X0017878Y0017890D01*
X0017955Y0017801D01*
X0018029Y0017710D01*
X0018100Y0017617D01*
X0018168Y0017521D01*
X0018233Y0017423D01*
X0018294Y0017323D01*
X0018352Y0017221D01*
X0018407Y0017117D01*
X0018458Y0017011D01*
X0018505Y0016904D01*
X0018549Y0016795D01*
X0018589Y0016685D01*
X0018625Y0016573D01*
X0018657Y0016460D01*
X0018686Y0016346D01*
X0018711Y0016232D01*
X0018732Y0016116D01*
X0018749Y0016000D01*
X0018762Y0015883D01*
X0018771Y0015766D01*
X0018777Y0015649D01*
X0018778Y0015532D01*
X0018775Y0015414D01*
X0018769Y0015297D01*
X0018758Y0015180D01*
X0018744Y0015064D01*
X0018725Y0014948D01*
X0018703Y0014832D01*
X0018677Y0014718D01*
X0018647Y0014604D01*
X0018613Y0014492D01*
X0018576Y0014381D01*
X0018535Y0014271D01*
X0018490Y0014162D01*
X0018441Y0014055D01*
X0018389Y0013950D01*
X0018333Y0013847D01*
X0018274Y0013745D01*
X0018212Y0013646D01*
X0018146Y0013549D01*
X0018077Y0013454D01*
X0018005Y0013361D01*
X0017930Y0013271D01*
X0017851Y0013183D01*
X0017770Y0013099D01*
X0017686Y0013017D01*
X0017600Y0012937D01*
X0017510Y0012861D01*
X0017419Y0012788D01*
X0017325Y0012718D01*
X0017228Y0012651D01*
X0017129Y0012587D01*
X0017029Y0012527D01*
X0016926Y0012470D01*
X0016821Y0012417D01*
X0016715Y0012367D01*
X0016607Y0012321D01*
X0016497Y0012279D01*
X0016387Y0012240D01*
X0016275Y0012205D01*
X0016161Y0012174D01*
X0016047Y0012146D01*
X0015932Y0012123D01*
X0015817Y0012103D01*
X0015700Y0012087D01*
X0015583Y0012075D01*
X0015466Y0012067D01*
X0015349Y0012063D01*
X0015349Y0012175D01*
X0015464Y0012178D01*
X0015579Y0012186D01*
X0015694Y0012198D01*
X0015808Y0012214D01*
X0015922Y0012234D01*
X0016035Y0012257D01*
X0016147Y0012284D01*
X0016258Y0012316D01*
X0016368Y0012351D01*
X0016476Y0012389D01*
X0016583Y0012431D01*
X0016689Y0012477D01*
X0016793Y0012527D01*
X0016896Y0012580D01*
X0016996Y0012637D01*
X0017095Y0012697D01*
X0017191Y0012760D01*
X0017285Y0012826D01*
X0017377Y0012896D01*
X0017466Y0012969D01*
X0017553Y0013045D01*
X0017637Y0013123D01*
X0017719Y0013205D01*
X0017798Y0013289D01*
X0017873Y0013376D01*
X0017946Y0013466D01*
X0018016Y0013557D01*
X0018082Y0013652D01*
X0018145Y0013748D01*
X0018205Y0013847D01*
X0018262Y0013947D01*
X0018315Y0014049D01*
X0018364Y0014154D01*
X0018410Y0014259D01*
X0018452Y0014367D01*
X0018491Y0014475D01*
X0018526Y0014585D01*
X0018557Y0014696D01*
X0018584Y0014808D01*
X0018608Y0014921D01*
X0018627Y0015035D01*
X0018643Y0015149D01*
X0018655Y0015264D01*
X0018663Y0015379D01*
X0018667Y0015494D01*
X0018667Y0015609D01*
X0018663Y0015724D01*
X0018655Y0015839D01*
X0018643Y0015954D01*
X0018627Y0016068D01*
X0018608Y0016182D01*
X0018584Y0016295D01*
X0018557Y0016407D01*
X0018526Y0016518D01*
X0018491Y0016628D01*
X0018452Y0016736D01*
X0018410Y0016844D01*
X0018364Y0016949D01*
X0018314Y0017053D01*
X0018261Y0017156D01*
X0018205Y0017256D01*
X0018145Y0017355D01*
X0018082Y0017451D01*
X0018015Y0017545D01*
X0017946Y0017637D01*
X0017873Y0017727D01*
X0017797Y0017814D01*
X0017718Y0017898D01*
X0017637Y0017979D01*
X0017553Y0018058D01*
X0017466Y0018134D01*
X0017376Y0018207D01*
X0017284Y0018276D01*
X0017190Y0018343D01*
X0017094Y0018406D01*
X0016995Y0018466D01*
X0016895Y0018522D01*
X0016792Y0018575D01*
X0016688Y0018625D01*
X0016583Y0018671D01*
X0016475Y0018713D01*
X0016367Y0018752D01*
X0016257Y0018787D01*
X0016146Y0018818D01*
X0016034Y0018845D01*
X0015921Y0018869D01*
X0015807Y0018888D01*
X0015693Y0018904D01*
X0015578Y0018916D01*
X0015463Y0018924D01*
X0015348Y0018928D01*
X0015233Y0018928D01*
X0015118Y0018924D01*
X0015003Y0018916D01*
X0014888Y0018904D01*
X0014774Y0018888D01*
X0014660Y0018869D01*
X0014547Y0018845D01*
X0014435Y0018818D01*
X0014324Y0018787D01*
X0014214Y0018752D01*
X0014106Y0018713D01*
X0013998Y0018671D01*
X0013893Y0018625D01*
X0013788Y0018576D01*
X0013686Y0018523D01*
X0013586Y0018466D01*
X0013487Y0018406D01*
X0013391Y0018343D01*
X0013296Y0018277D01*
X0013205Y0018207D01*
X0013115Y0018134D01*
X0013028Y0018059D01*
X0012944Y0017980D01*
X0012862Y0017898D01*
X0012784Y0017814D01*
X0012708Y0017727D01*
X0012635Y0017638D01*
X0012565Y0017546D01*
X0012499Y0017452D01*
X0012436Y0017356D01*
X0012376Y0017257D01*
X0012319Y0017157D01*
X0012266Y0017054D01*
X0012216Y0016950D01*
X0012170Y0016844D01*
X0012128Y0016737D01*
X0012090Y0016629D01*
X0012055Y0016519D01*
X0012023Y0016408D01*
X0011996Y0016296D01*
X0011973Y0016183D01*
X0011953Y0016069D01*
X0011937Y0015955D01*
X0011925Y0015840D01*
X0011917Y0015725D01*
X0011914Y0015610D01*
X0012025Y0015610D01*
X0012029Y0015724D01*
X0012037Y0015838D01*
X0012049Y0015951D01*
X0012065Y0016064D01*
X0012084Y0016176D01*
X0012108Y0016287D01*
X0012136Y0016398D01*
X0012167Y0016508D01*
X0012202Y0016616D01*
X0012242Y0016723D01*
X0012284Y0016829D01*
X0012331Y0016933D01*
X0012381Y0017035D01*
X0012434Y0017136D01*
X0012491Y0017234D01*
X0012552Y0017331D01*
X0012616Y0017426D01*
X0012683Y0017518D01*
X0012753Y0017607D01*
X0012826Y0017695D01*
X0012902Y0017779D01*
X0012982Y0017861D01*
X0013064Y0017940D01*
X0013148Y0018017D01*
X0013236Y0018090D01*
X0013325Y0018160D01*
X0013418Y0018227D01*
X0013512Y0018291D01*
X0013609Y0018351D01*
X0013708Y0018408D01*
X0013808Y0018462D01*
X0013911Y0018511D01*
X0014015Y0018558D01*
X0014120Y0018600D01*
X0014228Y0018639D01*
X0014336Y0018675D01*
X0014446Y0018706D01*
X0014556Y0018733D01*
X0014668Y0018757D01*
X0014780Y0018777D01*
X0014893Y0018793D01*
X0015006Y0018805D01*
X0015120Y0018813D01*
X0015234Y0018817D01*
X0015348Y0018816D01*
X0015462Y0018812D01*
X0015575Y0018805D01*
X0015689Y0018793D01*
X0015801Y0018777D01*
X0015914Y0018757D01*
X0016025Y0018733D01*
X0016136Y0018706D01*
X0016245Y0018674D01*
X0016354Y0018639D01*
X0016461Y0018600D01*
X0016566Y0018557D01*
X0016671Y0018511D01*
X0016773Y0018461D01*
X0016874Y0018407D01*
X0016972Y0018350D01*
X0017069Y0018290D01*
X0017163Y0018226D01*
X0017256Y0018159D01*
X0017345Y0018089D01*
X0017433Y0018016D01*
X0017517Y0017940D01*
X0017599Y0017860D01*
X0017679Y0017778D01*
X0017755Y0017694D01*
X0017828Y0017606D01*
X0017898Y0017517D01*
X0017965Y0017424D01*
X0018029Y0017330D01*
X0018089Y0017233D01*
X0018146Y0017135D01*
X0018200Y0017034D01*
X0018250Y0016932D01*
X0018296Y0016827D01*
X0018339Y0016722D01*
X0018378Y0016615D01*
X0018413Y0016506D01*
X0018445Y0016397D01*
X0018472Y0016286D01*
X0018496Y0016175D01*
X0018516Y0016062D01*
X0018532Y0015950D01*
X0018544Y0015836D01*
X0018551Y0015723D01*
X0018555Y0015609D01*
X0018556Y0015495D01*
X0018552Y0015381D01*
X0018544Y0015267D01*
X0018532Y0015154D01*
X0018516Y0015041D01*
X0018496Y0014929D01*
X0018472Y0014817D01*
X0018445Y0014707D01*
X0018414Y0014597D01*
X0018378Y0014489D01*
X0018339Y0014381D01*
X0018297Y0014276D01*
X0018250Y0014172D01*
X0018201Y0014069D01*
X0018147Y0013969D01*
X0018090Y0013870D01*
X0018030Y0013773D01*
X0017966Y0013679D01*
X0017899Y0013586D01*
X0017829Y0013497D01*
X0017756Y0013409D01*
X0017679Y0013325D01*
X0017600Y0013243D01*
X0017518Y0013163D01*
X0017434Y0013087D01*
X0017346Y0013014D01*
X0017257Y0012944D01*
X0017165Y0012877D01*
X0017070Y0012813D01*
X0016973Y0012752D01*
X0016875Y0012695D01*
X0016774Y0012642D01*
X0016672Y0012592D01*
X0016568Y0012545D01*
X0016462Y0012503D01*
X0016355Y0012463D01*
X0016247Y0012428D01*
X0016137Y0012397D01*
X0016026Y0012369D01*
X0015915Y0012345D01*
X0015803Y0012326D01*
X0015690Y0012310D01*
X0015577Y0012298D01*
X0015463Y0012290D01*
X0015349Y0012286D01*
X0015349Y0012397D01*
X0015461Y0012401D01*
X0015572Y0012409D01*
X0015683Y0012421D01*
X0015794Y0012436D01*
X0015904Y0012456D01*
X0016013Y0012480D01*
X0016121Y0012507D01*
X0016228Y0012539D01*
X0016335Y0012574D01*
X0016439Y0012613D01*
X0016543Y0012655D01*
X0016644Y0012701D01*
X0016744Y0012751D01*
X0016843Y0012805D01*
X0016939Y0012861D01*
X0017033Y0012921D01*
X0017125Y0012985D01*
X0017215Y0013051D01*
X0017302Y0013121D01*
X0017387Y0013194D01*
X0017469Y0013269D01*
X0017549Y0013348D01*
X0017625Y0013429D01*
X0017699Y0013513D01*
X0017769Y0013600D01*
X0017837Y0013689D01*
X0017901Y0013780D01*
X0017962Y0013874D01*
X0018020Y0013970D01*
X0018074Y0014067D01*
X0018125Y0014167D01*
X0018172Y0014268D01*
X0018216Y0014371D01*
X0018256Y0014475D01*
X0018292Y0014581D01*
X0018325Y0014688D01*
X0018353Y0014796D01*
X0018378Y0014905D01*
X0018399Y0015015D01*
X0018416Y0015125D01*
X0018429Y0015236D01*
X0018438Y0015347D01*
X0018444Y0015459D01*
X0018445Y0015571D01*
X0018442Y0015682D01*
X0018436Y0015794D01*
X0018425Y0015905D01*
X0018411Y0016016D01*
X0018392Y0016126D01*
X0018370Y0016236D01*
X0018344Y0016344D01*
X0018314Y0016452D01*
X0018280Y0016558D01*
X0018242Y0016664D01*
X0018201Y0016767D01*
X0018156Y0016870D01*
X0018108Y0016970D01*
X0018056Y0017069D01*
X0018000Y0017166D01*
X0017941Y0017261D01*
X0017879Y0017354D01*
X0017814Y0017445D01*
X0017745Y0017533D01*
X0017673Y0017618D01*
X0017599Y0017702D01*
X0017521Y0017782D01*
X0017441Y0017860D01*
X0017357Y0017934D01*
X0017272Y0018006D01*
X0017184Y0018075D01*
X0017093Y0018140D01*
X0017000Y0018202D01*
X0016905Y0018261D01*
X0016808Y0018317D01*
X0016709Y0018369D01*
X0016609Y0018417D01*
X0016506Y0018462D01*
X0016403Y0018503D01*
X0016297Y0018541D01*
X0016191Y0018575D01*
X0016083Y0018605D01*
X0015975Y0018631D01*
X0015865Y0018653D01*
X0015755Y0018672D01*
X0015644Y0018686D01*
X0015533Y0018697D01*
X0015421Y0018703D01*
X0015310Y0018706D01*
X0015198Y0018705D01*
X0015086Y0018699D01*
X0014975Y0018690D01*
X0014864Y0018677D01*
X0014754Y0018660D01*
X0014644Y0018639D01*
X0014535Y0018614D01*
X0014427Y0018586D01*
X0014320Y0018553D01*
X0014214Y0018517D01*
X0014110Y0018477D01*
X0014007Y0018433D01*
X0013906Y0018386D01*
X0013806Y0018335D01*
X0013709Y0018281D01*
X0013613Y0018223D01*
X0013519Y0018162D01*
X0013428Y0018098D01*
X0013339Y0018030D01*
X0013252Y0017960D01*
X0013168Y0017886D01*
X0013087Y0017810D01*
X0013008Y0017730D01*
X0012933Y0017648D01*
X0012860Y0017563D01*
X0012790Y0017476D01*
X0012724Y0017386D01*
X0012660Y0017294D01*
X0012600Y0017200D01*
X0012544Y0017104D01*
X0012490Y0017005D01*
X0012440Y0016905D01*
X0012394Y0016804D01*
X0012352Y0016700D01*
X0012313Y0016596D01*
X0012278Y0016489D01*
X0012246Y0016382D01*
X0012219Y0016274D01*
X0012195Y0016165D01*
X0012175Y0016055D01*
X0012160Y0015944D01*
X0012148Y0015833D01*
X0012140Y0015722D01*
X0012136Y0015610D01*
D14*
X0011129Y0015492D02*
X0012209Y0015492D01*
X0012209Y0015491D02*
X0012213Y0015381D01*
X0012221Y0015272D01*
X0012233Y0015163D01*
X0012248Y0015054D01*
X0012268Y0014946D01*
X0012291Y0014839D01*
X0012319Y0014732D01*
X0012350Y0014627D01*
X0012385Y0014523D01*
X0012423Y0014420D01*
X0012465Y0014319D01*
X0012511Y0014219D01*
X0012560Y0014121D01*
X0012613Y0014024D01*
X0012669Y0013930D01*
X0012728Y0013838D01*
X0012791Y0013748D01*
X0012857Y0013660D01*
X0012925Y0013574D01*
X0012997Y0013491D01*
X0013072Y0013411D01*
X0013150Y0013333D01*
X0013230Y0013258D01*
X0013313Y0013186D01*
X0013399Y0013118D01*
X0013487Y0013052D01*
X0013577Y0012989D01*
X0013669Y0012930D01*
X0013763Y0012874D01*
X0013860Y0012821D01*
X0013958Y0012772D01*
X0014058Y0012726D01*
X0014159Y0012684D01*
X0014262Y0012646D01*
X0014366Y0012611D01*
X0014471Y0012580D01*
X0014578Y0012552D01*
X0014685Y0012529D01*
X0014793Y0012509D01*
X0014902Y0012494D01*
X0015011Y0012482D01*
X0015120Y0012474D01*
X0015230Y0012470D01*
X0015231Y0011390D01*
X0015230Y0011389D01*
X0015102Y0011393D01*
X0014974Y0011401D01*
X0014846Y0011413D01*
X0014718Y0011428D01*
X0014592Y0011448D01*
X0014465Y0011472D01*
X0014340Y0011499D01*
X0014215Y0011530D01*
X0014092Y0011565D01*
X0013970Y0011604D01*
X0013849Y0011647D01*
X0013729Y0011693D01*
X0013611Y0011743D01*
X0013494Y0011796D01*
X0013379Y0011854D01*
X0013266Y0011914D01*
X0013155Y0011978D01*
X0013046Y0012046D01*
X0012939Y0012117D01*
X0012834Y0012191D01*
X0012732Y0012268D01*
X0012631Y0012349D01*
X0012534Y0012432D01*
X0012439Y0012519D01*
X0012347Y0012608D01*
X0012258Y0012700D01*
X0012171Y0012795D01*
X0012088Y0012892D01*
X0012007Y0012993D01*
X0011930Y0013095D01*
X0011856Y0013200D01*
X0011785Y0013307D01*
X0011717Y0013416D01*
X0011653Y0013527D01*
X0011593Y0013640D01*
X0011535Y0013755D01*
X0011482Y0013872D01*
X0011432Y0013990D01*
X0011386Y0014110D01*
X0011343Y0014231D01*
X0011304Y0014353D01*
X0011269Y0014476D01*
X0011238Y0014601D01*
X0011211Y0014726D01*
X0011187Y0014853D01*
X0011167Y0014979D01*
X0011152Y0015107D01*
X0011140Y0015235D01*
X0011132Y0015363D01*
X0011128Y0015491D01*
X0011241Y0015491D01*
X0011245Y0015366D01*
X0011253Y0015242D01*
X0011264Y0015117D01*
X0011280Y0014994D01*
X0011299Y0014870D01*
X0011322Y0014748D01*
X0011348Y0014626D01*
X0011379Y0014505D01*
X0011413Y0014385D01*
X0011450Y0014266D01*
X0011492Y0014148D01*
X0011537Y0014031D01*
X0011586Y0013917D01*
X0011638Y0013803D01*
X0011693Y0013691D01*
X0011752Y0013581D01*
X0011815Y0013473D01*
X0011880Y0013367D01*
X0011949Y0013263D01*
X0012021Y0013161D01*
X0012097Y0013062D01*
X0012175Y0012965D01*
X0012256Y0012870D01*
X0012340Y0012778D01*
X0012427Y0012688D01*
X0012517Y0012601D01*
X0012609Y0012517D01*
X0012704Y0012436D01*
X0012801Y0012358D01*
X0012900Y0012282D01*
X0013002Y0012210D01*
X0013106Y0012141D01*
X0013212Y0012076D01*
X0013320Y0012013D01*
X0013430Y0011954D01*
X0013542Y0011899D01*
X0013656Y0011847D01*
X0013770Y0011798D01*
X0013887Y0011753D01*
X0014005Y0011711D01*
X0014124Y0011674D01*
X0014244Y0011640D01*
X0014365Y0011609D01*
X0014487Y0011583D01*
X0014609Y0011560D01*
X0014733Y0011541D01*
X0014856Y0011525D01*
X0014981Y0011514D01*
X0015105Y0011506D01*
X0015230Y0011502D01*
X0015230Y0011615D01*
X0015106Y0011619D01*
X0014983Y0011627D01*
X0014860Y0011639D01*
X0014737Y0011654D01*
X0014615Y0011673D01*
X0014493Y0011696D01*
X0014372Y0011723D01*
X0014253Y0011754D01*
X0014134Y0011789D01*
X0014016Y0011827D01*
X0013900Y0011869D01*
X0013785Y0011914D01*
X0013671Y0011963D01*
X0013559Y0012016D01*
X0013449Y0012072D01*
X0013340Y0012132D01*
X0013234Y0012195D01*
X0013129Y0012261D01*
X0013027Y0012331D01*
X0012927Y0012403D01*
X0012829Y0012479D01*
X0012734Y0012558D01*
X0012641Y0012640D01*
X0012551Y0012724D01*
X0012463Y0012812D01*
X0012379Y0012902D01*
X0012297Y0012995D01*
X0012218Y0013090D01*
X0012142Y0013188D01*
X0012070Y0013288D01*
X0012000Y0013390D01*
X0011934Y0013495D01*
X0011871Y0013601D01*
X0011811Y0013710D01*
X0011755Y0013820D01*
X0011702Y0013932D01*
X0011653Y0014046D01*
X0011608Y0014161D01*
X0011566Y0014277D01*
X0011528Y0014395D01*
X0011493Y0014514D01*
X0011462Y0014633D01*
X0011435Y0014754D01*
X0011412Y0014876D01*
X0011393Y0014998D01*
X0011378Y0015121D01*
X0011366Y0015244D01*
X0011358Y0015367D01*
X0011354Y0015491D01*
X0011467Y0015491D01*
X0011471Y0015368D01*
X0011479Y0015246D01*
X0011491Y0015124D01*
X0011507Y0015002D01*
X0011526Y0014881D01*
X0011549Y0014761D01*
X0011577Y0014642D01*
X0011608Y0014523D01*
X0011643Y0014405D01*
X0011681Y0014289D01*
X0011724Y0014174D01*
X0011770Y0014060D01*
X0011819Y0013948D01*
X0011872Y0013838D01*
X0011929Y0013729D01*
X0011989Y0013622D01*
X0012053Y0013517D01*
X0012120Y0013415D01*
X0012190Y0013314D01*
X0012263Y0013216D01*
X0012340Y0013120D01*
X0012419Y0013027D01*
X0012501Y0012936D01*
X0012587Y0012848D01*
X0012675Y0012762D01*
X0012766Y0012680D01*
X0012859Y0012601D01*
X0012955Y0012524D01*
X0013053Y0012451D01*
X0013154Y0012381D01*
X0013256Y0012314D01*
X0013361Y0012250D01*
X0013468Y0012190D01*
X0013577Y0012133D01*
X0013687Y0012080D01*
X0013799Y0012031D01*
X0013913Y0011985D01*
X0014028Y0011942D01*
X0014144Y0011904D01*
X0014262Y0011869D01*
X0014381Y0011838D01*
X0014500Y0011810D01*
X0014620Y0011787D01*
X0014741Y0011768D01*
X0014863Y0011752D01*
X0014985Y0011740D01*
X0015107Y0011732D01*
X0015230Y0011728D01*
X0015230Y0011841D01*
X0015111Y0011845D01*
X0014993Y0011853D01*
X0014874Y0011864D01*
X0014756Y0011880D01*
X0014639Y0011899D01*
X0014522Y0011921D01*
X0014406Y0011948D01*
X0014291Y0011978D01*
X0014177Y0012012D01*
X0014064Y0012049D01*
X0013953Y0012090D01*
X0013843Y0012135D01*
X0013734Y0012183D01*
X0013627Y0012235D01*
X0013521Y0012290D01*
X0013418Y0012348D01*
X0013316Y0012410D01*
X0013216Y0012475D01*
X0013119Y0012543D01*
X0013024Y0012614D01*
X0012931Y0012688D01*
X0012840Y0012765D01*
X0012752Y0012845D01*
X0012667Y0012928D01*
X0012584Y0013013D01*
X0012504Y0013101D01*
X0012427Y0013192D01*
X0012353Y0013285D01*
X0012282Y0013380D01*
X0012214Y0013477D01*
X0012149Y0013577D01*
X0012087Y0013679D01*
X0012029Y0013782D01*
X0011974Y0013888D01*
X0011922Y0013995D01*
X0011874Y0014104D01*
X0011829Y0014214D01*
X0011788Y0014325D01*
X0011751Y0014438D01*
X0011717Y0014552D01*
X0011687Y0014667D01*
X0011660Y0014783D01*
X0011638Y0014900D01*
X0011619Y0015017D01*
X0011603Y0015135D01*
X0011592Y0015254D01*
X0011584Y0015372D01*
X0011580Y0015491D01*
X0011694Y0015491D01*
X0011697Y0015373D01*
X0011705Y0015256D01*
X0011717Y0015139D01*
X0011732Y0015022D01*
X0011751Y0014906D01*
X0011774Y0014791D01*
X0011801Y0014676D01*
X0011831Y0014563D01*
X0011866Y0014450D01*
X0011903Y0014339D01*
X0011945Y0014228D01*
X0011990Y0014120D01*
X0012039Y0014013D01*
X0012091Y0013907D01*
X0012146Y0013803D01*
X0012205Y0013701D01*
X0012267Y0013602D01*
X0012332Y0013504D01*
X0012401Y0013408D01*
X0012473Y0013315D01*
X0012547Y0013224D01*
X0012625Y0013135D01*
X0012705Y0013049D01*
X0012788Y0012966D01*
X0012874Y0012886D01*
X0012963Y0012808D01*
X0013054Y0012734D01*
X0013147Y0012662D01*
X0013243Y0012593D01*
X0013341Y0012528D01*
X0013440Y0012466D01*
X0013542Y0012407D01*
X0013646Y0012352D01*
X0013752Y0012300D01*
X0013859Y0012251D01*
X0013967Y0012206D01*
X0014078Y0012164D01*
X0014189Y0012127D01*
X0014302Y0012092D01*
X0014415Y0012062D01*
X0014530Y0012035D01*
X0014645Y0012012D01*
X0014761Y0011993D01*
X0014878Y0011978D01*
X0014995Y0011966D01*
X0015112Y0011958D01*
X0015230Y0011955D01*
X0015230Y0012068D01*
X0015114Y0012071D01*
X0014998Y0012079D01*
X0014882Y0012091D01*
X0014767Y0012107D01*
X0014652Y0012126D01*
X0014538Y0012149D01*
X0014425Y0012176D01*
X0014312Y0012207D01*
X0014201Y0012241D01*
X0014091Y0012280D01*
X0013983Y0012322D01*
X0013876Y0012367D01*
X0013770Y0012416D01*
X0013666Y0012468D01*
X0013564Y0012524D01*
X0013464Y0012584D01*
X0013366Y0012646D01*
X0013270Y0012712D01*
X0013177Y0012781D01*
X0013085Y0012853D01*
X0012996Y0012928D01*
X0012910Y0013007D01*
X0012826Y0013087D01*
X0012746Y0013171D01*
X0012667Y0013257D01*
X0012592Y0013346D01*
X0012520Y0013438D01*
X0012451Y0013531D01*
X0012385Y0013627D01*
X0012323Y0013725D01*
X0012263Y0013825D01*
X0012207Y0013927D01*
X0012155Y0014031D01*
X0012106Y0014137D01*
X0012061Y0014244D01*
X0012019Y0014352D01*
X0011980Y0014462D01*
X0011946Y0014573D01*
X0011915Y0014686D01*
X0011888Y0014799D01*
X0011865Y0014913D01*
X0011846Y0015028D01*
X0011830Y0015143D01*
X0011818Y0015259D01*
X0011810Y0015375D01*
X0011807Y0015491D01*
X0011920Y0015491D01*
X0011924Y0015376D01*
X0011931Y0015261D01*
X0011943Y0015147D01*
X0011959Y0015033D01*
X0011979Y0014920D01*
X0012002Y0014807D01*
X0012029Y0014695D01*
X0012060Y0014585D01*
X0012095Y0014475D01*
X0012134Y0014367D01*
X0012176Y0014260D01*
X0012222Y0014154D01*
X0012271Y0014051D01*
X0012324Y0013948D01*
X0012381Y0013848D01*
X0012440Y0013750D01*
X0012504Y0013654D01*
X0012570Y0013560D01*
X0012639Y0013468D01*
X0012712Y0013379D01*
X0012788Y0013292D01*
X0012866Y0013208D01*
X0012947Y0013127D01*
X0013031Y0013049D01*
X0013118Y0012973D01*
X0013207Y0012900D01*
X0013299Y0012831D01*
X0013393Y0012765D01*
X0013489Y0012701D01*
X0013587Y0012642D01*
X0013687Y0012585D01*
X0013790Y0012532D01*
X0013893Y0012483D01*
X0013999Y0012437D01*
X0014106Y0012395D01*
X0014214Y0012356D01*
X0014324Y0012321D01*
X0014434Y0012290D01*
X0014546Y0012263D01*
X0014659Y0012240D01*
X0014772Y0012220D01*
X0014886Y0012204D01*
X0015000Y0012192D01*
X0015115Y0012185D01*
X0015230Y0012181D01*
X0015230Y0012294D01*
X0015116Y0012298D01*
X0015003Y0012306D01*
X0014890Y0012318D01*
X0014778Y0012334D01*
X0014666Y0012353D01*
X0014555Y0012377D01*
X0014445Y0012405D01*
X0014336Y0012436D01*
X0014228Y0012471D01*
X0014121Y0012510D01*
X0014016Y0012553D01*
X0013912Y0012599D01*
X0013810Y0012649D01*
X0013709Y0012702D01*
X0013611Y0012759D01*
X0013515Y0012819D01*
X0013421Y0012883D01*
X0013329Y0012949D01*
X0013239Y0013019D01*
X0013152Y0013092D01*
X0013068Y0013168D01*
X0012986Y0013247D01*
X0012907Y0013329D01*
X0012831Y0013413D01*
X0012758Y0013500D01*
X0012688Y0013590D01*
X0012622Y0013682D01*
X0012558Y0013776D01*
X0012498Y0013872D01*
X0012441Y0013970D01*
X0012388Y0014071D01*
X0012338Y0014173D01*
X0012292Y0014277D01*
X0012249Y0014382D01*
X0012210Y0014489D01*
X0012175Y0014597D01*
X0012144Y0014706D01*
X0012116Y0014816D01*
X0012092Y0014927D01*
X0012073Y0015039D01*
X0012057Y0015151D01*
X0012045Y0015264D01*
X0012037Y0015377D01*
X0012033Y0015491D01*
X0012146Y0015491D01*
X0012150Y0015382D01*
X0012157Y0015272D01*
X0012169Y0015163D01*
X0012184Y0015055D01*
X0012204Y0014947D01*
X0012226Y0014840D01*
X0012253Y0014734D01*
X0012283Y0014628D01*
X0012317Y0014524D01*
X0012355Y0014421D01*
X0012396Y0014320D01*
X0012441Y0014220D01*
X0012489Y0014121D01*
X0012540Y0014025D01*
X0012595Y0013930D01*
X0012653Y0013837D01*
X0012714Y0013746D01*
X0012779Y0013658D01*
X0012846Y0013571D01*
X0012917Y0013487D01*
X0012990Y0013406D01*
X0013066Y0013327D01*
X0013145Y0013251D01*
X0013226Y0013178D01*
X0013310Y0013107D01*
X0013397Y0013040D01*
X0013485Y0012975D01*
X0013576Y0012914D01*
X0013669Y0012856D01*
X0013764Y0012801D01*
X0013860Y0012750D01*
X0013959Y0012702D01*
X0014059Y0012657D01*
X0014160Y0012616D01*
X0014263Y0012578D01*
X0014367Y0012544D01*
X0014473Y0012514D01*
X0014579Y0012487D01*
X0014686Y0012465D01*
X0014794Y0012445D01*
X0014902Y0012430D01*
X0015011Y0012418D01*
X0015121Y0012411D01*
X0015230Y0012407D01*
D15*
X0015290Y0015551D03*
D16*
X0015290Y0015551D03*
D17*
X0011845Y0007343D02*
X0010901Y0007343D01*
X0014897Y0009646D02*
X0015290Y0009646D01*
X0015298Y0009644D01*
X0015304Y0009640D01*
X0015308Y0009634D01*
X0015310Y0009626D01*
X0015310Y0007343D01*
X0010901Y0007342D02*
X0010769Y0007344D01*
X0010636Y0007350D01*
X0010504Y0007360D01*
X0010372Y0007373D01*
X0010241Y0007391D01*
X0010110Y0007412D01*
X0009980Y0007438D01*
X0009851Y0007467D01*
X0009723Y0007500D01*
X0009596Y0007537D01*
X0009470Y0007577D01*
X0009345Y0007622D01*
X0009221Y0007670D01*
X0009099Y0007721D01*
X0008979Y0007776D01*
X0008860Y0007835D01*
X0008743Y0007897D01*
X0008628Y0007963D01*
X0008515Y0008032D01*
X0008404Y0008104D01*
X0008296Y0008180D01*
X0008189Y0008259D01*
X0008085Y0008341D01*
X0007984Y0008426D01*
X0007885Y0008514D01*
X0007788Y0008604D01*
X0007694Y0008698D01*
X0007604Y0008795D01*
X0007516Y0008894D01*
X0007431Y0008995D01*
X0007349Y0009099D01*
X0007270Y0009206D01*
X0007194Y0009314D01*
X0007122Y0009425D01*
X0007053Y0009538D01*
X0006987Y0009653D01*
X0006925Y0009770D01*
X0006866Y0009889D01*
X0006811Y0010009D01*
X0006760Y0010131D01*
X0006712Y0010255D01*
X0006667Y0010380D01*
X0006627Y0010506D01*
X0006590Y0010633D01*
X0006557Y0010761D01*
X0006528Y0010890D01*
X0006502Y0011020D01*
X0006481Y0011151D01*
X0006463Y0011282D01*
X0006450Y0011414D01*
X0006440Y0011546D01*
X0006434Y0011679D01*
X0006432Y0011811D01*
X0009385Y0015157D02*
X0009383Y0015253D01*
X0009377Y0015350D01*
X0009368Y0015446D01*
X0009354Y0015541D01*
X0009337Y0015636D01*
X0009316Y0015730D01*
X0009292Y0015823D01*
X0009263Y0015915D01*
X0009231Y0016006D01*
X0009196Y0016096D01*
X0009156Y0016184D01*
X0009114Y0016270D01*
X0009068Y0016355D01*
X0009018Y0016438D01*
X0008966Y0016519D01*
X0008910Y0016597D01*
X0008851Y0016674D01*
X0008789Y0016748D01*
X0008724Y0016819D01*
X0008657Y0016888D01*
X0008587Y0016954D01*
X0008514Y0017017D01*
X0008438Y0017077D01*
X0008361Y0017134D01*
X0008281Y0017188D01*
X0008199Y0017239D01*
X0008115Y0017287D01*
X0008029Y0017331D01*
X0007942Y0017372D01*
X0007853Y0017409D01*
X0007763Y0017442D01*
X0007671Y0017472D01*
X0007578Y0017499D01*
X0007485Y0017521D01*
X0007390Y0017540D01*
X0007295Y0017555D01*
X0007199Y0017567D01*
X0007103Y0017574D01*
X0007007Y0017578D01*
X0006910Y0017577D01*
X0006814Y0017573D01*
X0006718Y0017565D01*
X0006622Y0017554D01*
X0006527Y0017538D01*
X0006433Y0017519D01*
X0009385Y0015157D02*
X0009387Y0015010D01*
X0009393Y0014864D01*
X0009403Y0014717D01*
X0009416Y0014571D01*
X0009434Y0014425D01*
X0009455Y0014280D01*
X0009480Y0014136D01*
X0009510Y0013992D01*
X0009542Y0013849D01*
X0009579Y0013707D01*
X0009620Y0013566D01*
X0009664Y0013426D01*
X0009712Y0013287D01*
X0009763Y0013150D01*
X0009819Y0013014D01*
X0009878Y0012879D01*
X0009940Y0012747D01*
X0010006Y0012615D01*
X0010075Y0012486D01*
X0010148Y0012359D01*
X0010224Y0012233D01*
X0010304Y0012110D01*
X0010387Y0011989D01*
X0010472Y0011870D01*
X0010562Y0011753D01*
X0010654Y0011639D01*
X0010749Y0011527D01*
X0010847Y0011418D01*
X0010948Y0011312D01*
X0011052Y0011208D01*
X0011158Y0011107D01*
X0011267Y0011009D01*
X0011379Y0010914D01*
X0011493Y0010822D01*
X0011610Y0010732D01*
X0011729Y0010647D01*
X0011850Y0010564D01*
X0011973Y0010484D01*
X0012099Y0010408D01*
X0012226Y0010335D01*
X0012355Y0010266D01*
X0012487Y0010200D01*
X0012619Y0010138D01*
X0012754Y0010079D01*
X0012890Y0010023D01*
X0013027Y0009972D01*
X0013166Y0009924D01*
X0013306Y0009880D01*
X0013447Y0009839D01*
X0013589Y0009802D01*
X0013732Y0009770D01*
X0013876Y0009740D01*
X0014020Y0009715D01*
X0014165Y0009694D01*
X0014311Y0009676D01*
X0014457Y0009663D01*
X0014604Y0009653D01*
X0014750Y0009647D01*
X0014897Y0009645D01*
X0020802Y0014370D02*
X0020802Y0021654D01*
X0020800Y0021746D01*
X0020794Y0021838D01*
X0020784Y0021929D01*
X0020771Y0022020D01*
X0020753Y0022110D01*
X0020732Y0022200D01*
X0020707Y0022288D01*
X0020678Y0022375D01*
X0020646Y0022461D01*
X0020610Y0022546D01*
X0020570Y0022629D01*
X0020527Y0022710D01*
X0020481Y0022789D01*
X0020431Y0022866D01*
X0020378Y0022941D01*
X0020321Y0023014D01*
X0020262Y0023084D01*
X0020200Y0023152D01*
X0020135Y0023217D01*
X0020067Y0023279D01*
X0019997Y0023338D01*
X0019924Y0023395D01*
X0019849Y0023448D01*
X0019772Y0023498D01*
X0019693Y0023544D01*
X0019612Y0023587D01*
X0019529Y0023627D01*
X0019444Y0023663D01*
X0019358Y0023695D01*
X0019271Y0023724D01*
X0019183Y0023749D01*
X0019093Y0023770D01*
X0019003Y0023788D01*
X0018912Y0023801D01*
X0018821Y0023811D01*
X0018729Y0023817D01*
X0018637Y0023819D01*
X0023952Y0020669D02*
X0023952Y0017835D01*
X0024030Y0017835D01*
X0020802Y0014370D02*
X0020804Y0014306D01*
X0020809Y0014242D01*
X0020819Y0014179D01*
X0020832Y0014116D01*
X0020848Y0014054D01*
X0020868Y0013993D01*
X0020892Y0013934D01*
X0020919Y0013875D01*
X0020950Y0013819D01*
X0020983Y0013764D01*
X0021020Y0013712D01*
X0021060Y0013662D01*
X0021102Y0013614D01*
X0021148Y0013568D01*
X0021196Y0013526D01*
X0021246Y0013486D01*
X0021298Y0013449D01*
X0021353Y0013416D01*
X0021409Y0013385D01*
X0021468Y0013358D01*
X0021527Y0013334D01*
X0021588Y0013314D01*
X0021650Y0013298D01*
X0021713Y0013285D01*
X0021776Y0013275D01*
X0021840Y0013270D01*
X0021904Y0013268D01*
X0024030Y0013268D01*
D18*
X0023952Y0020669D03*
D19*
X0024030Y0013268D02*
X0024030Y0012717D01*
X0024030Y0012716D02*
X0024029Y0012572D01*
X0024025Y0012428D01*
X0024017Y0012285D01*
X0024005Y0012141D01*
X0023989Y0011998D01*
X0023969Y0011855D01*
X0023946Y0011713D01*
X0023918Y0011572D01*
X0023887Y0011432D01*
X0023852Y0011292D01*
X0023813Y0011153D01*
X0023770Y0011016D01*
X0023724Y0010880D01*
X0023674Y0010745D01*
X0023620Y0010611D01*
X0023563Y0010479D01*
X0023503Y0010349D01*
X0023438Y0010220D01*
X0023371Y0010093D01*
X0023299Y0009968D01*
X0023225Y0009844D01*
X0023147Y0009723D01*
X0023066Y0009604D01*
X0022982Y0009488D01*
X0022894Y0009373D01*
X0022804Y0009261D01*
X0022710Y0009152D01*
X0022614Y0009045D01*
X0022515Y0008941D01*
X0022413Y0008839D01*
X0022308Y0008740D01*
X0022201Y0008645D01*
X0022091Y0008552D01*
X0021978Y0008462D01*
X0021864Y0008375D01*
X0021746Y0008291D01*
X0021627Y0008211D01*
X0021506Y0008134D01*
X0021382Y0008060D01*
X0021257Y0007989D01*
X0021129Y0007922D01*
X0021000Y0007858D01*
X0020869Y0007798D01*
X0020737Y0007742D01*
X0020603Y0007689D01*
X0020468Y0007639D01*
X0020331Y0007594D01*
X0020194Y0007552D01*
X0020055Y0007514D01*
X0019915Y0007479D01*
X0019775Y0007449D01*
X0019633Y0007422D01*
X0019491Y0007399D01*
X0019348Y0007380D01*
X0019205Y0007365D01*
X0019062Y0007353D01*
X0018918Y0007346D01*
X0018774Y0007342D01*
M02*
