G75*
%MOIN*%
%OFA0B0*%
%FSLAX25Y25*%
%IPPOS*%
%LPD*%
%AMOC8*
5,1,8,0,0,1.08239X$1,22.5*
%
%ADD10C,0.03937*%
%ADD11C,0.08563*%
%ADD12C,0.00600*%
%ADD13C,0.02187*%
%ADD14C,0.01200*%
D10*
X0006432Y0011811D03*
X0006432Y0017520D03*
X0012141Y0023819D03*
X0018637Y0023819D03*
D11*
X0015290Y0015551D03*
D12*
X0008021Y0007902D02*
X0022560Y0007902D01*
X0023158Y0008501D02*
X0007422Y0008501D01*
X0007146Y0008778D02*
X0008174Y0009204D01*
X0009039Y0010069D01*
X0009508Y0011199D01*
X0009508Y0012423D01*
X0009039Y0013553D01*
X0008174Y0014418D01*
X0007578Y0014665D01*
X0008174Y0014912D01*
X0009039Y0015777D01*
X0009508Y0016908D01*
X0009508Y0018131D01*
X0009039Y0019262D01*
X0008174Y0020127D01*
X0007044Y0020595D01*
X0006021Y0020595D01*
X0006650Y0021829D01*
X0008930Y0024109D01*
X0011850Y0024109D01*
X0011850Y0023528D01*
X0012431Y0023528D01*
X0012431Y0020550D01*
X0012463Y0020550D01*
X0013028Y0020663D01*
X0012365Y0020325D01*
X0011654Y0019809D01*
X0011033Y0019187D01*
X0010517Y0018477D01*
X0010118Y0017694D01*
X0009846Y0016858D01*
X0009709Y0015990D01*
X0009709Y0015851D01*
X0014990Y0015851D01*
X0014990Y0015251D01*
X0009709Y0015251D01*
X0009709Y0015112D01*
X0009846Y0014244D01*
X0010118Y0013409D01*
X0010517Y0012626D01*
X0011033Y0011915D01*
X0011654Y0011294D01*
X0012365Y0010777D01*
X0013148Y0010379D01*
X0013983Y0010107D01*
X0014851Y0009970D01*
X0014990Y0009970D01*
X0014990Y0015251D01*
X0015590Y0015251D01*
X0015590Y0009970D01*
X0015730Y0009970D01*
X0016597Y0010107D01*
X0017433Y0010379D01*
X0018216Y0010777D01*
X0018926Y0011294D01*
X0019548Y0011915D01*
X0020064Y0012626D01*
X0020463Y0013409D01*
X0020734Y0014244D01*
X0020872Y0015112D01*
X0020872Y0015251D01*
X0015590Y0015251D01*
X0015590Y0015851D01*
X0014990Y0015851D01*
X0014990Y0021133D01*
X0014851Y0021133D01*
X0013983Y0020995D01*
X0013433Y0020817D01*
X0013689Y0020922D01*
X0014224Y0021280D01*
X0014679Y0021735D01*
X0015037Y0022271D01*
X0015284Y0022866D01*
X0015409Y0023497D01*
X0015409Y0023528D01*
X0012431Y0023528D01*
X0012431Y0024109D01*
X0015409Y0024109D01*
X0015409Y0024141D01*
X0015284Y0024772D01*
X0015037Y0025367D01*
X0014679Y0025902D01*
X0014479Y0026103D01*
X0015290Y0026231D01*
X0016507Y0026039D01*
X0016029Y0025561D01*
X0015561Y0024431D01*
X0015561Y0023207D01*
X0016029Y0022077D01*
X0016895Y0021212D01*
X0018025Y0020743D01*
X0019249Y0020743D01*
X0020379Y0021212D01*
X0021244Y0022077D01*
X0021712Y0023207D01*
X0021712Y0024047D01*
X0023931Y0021829D01*
X0025448Y0018852D01*
X0025971Y0015551D01*
X0025448Y0012251D01*
X0023931Y0009273D01*
X0023931Y0009273D01*
X0021568Y0006911D01*
X0018591Y0005394D01*
X0015290Y0004871D01*
X0011990Y0005394D01*
X0009013Y0006911D01*
X0007146Y0008778D01*
X0007922Y0009099D02*
X0023757Y0009099D01*
X0024147Y0009698D02*
X0008668Y0009698D01*
X0009134Y0010296D02*
X0013401Y0010296D01*
X0012203Y0010895D02*
X0009381Y0010895D01*
X0009508Y0011493D02*
X0011455Y0011493D01*
X0010905Y0012092D02*
X0009508Y0012092D01*
X0009397Y0012690D02*
X0010484Y0012690D01*
X0010179Y0013289D02*
X0009149Y0013289D01*
X0008705Y0013887D02*
X0009962Y0013887D01*
X0009808Y0014486D02*
X0008011Y0014486D01*
X0008346Y0015084D02*
X0009713Y0015084D01*
X0008945Y0015683D02*
X0014990Y0015683D01*
X0014990Y0016281D02*
X0015590Y0016281D01*
X0015590Y0015851D02*
X0015590Y0021133D01*
X0015730Y0021133D01*
X0016597Y0020995D01*
X0017433Y0020724D01*
X0018216Y0020325D01*
X0018926Y0019809D01*
X0019548Y0019187D01*
X0020064Y0018477D01*
X0020463Y0017694D01*
X0020734Y0016858D01*
X0020872Y0015990D01*
X0020872Y0015851D01*
X0015590Y0015851D01*
X0015590Y0015683D02*
X0025950Y0015683D01*
X0025897Y0015084D02*
X0020867Y0015084D01*
X0020773Y0014486D02*
X0025802Y0014486D01*
X0025707Y0013887D02*
X0020618Y0013887D01*
X0020402Y0013289D02*
X0025612Y0013289D01*
X0025518Y0012690D02*
X0020097Y0012690D01*
X0019676Y0012092D02*
X0025367Y0012092D01*
X0025448Y0012251D02*
X0025448Y0012251D01*
X0025062Y0011493D02*
X0019126Y0011493D01*
X0018377Y0010895D02*
X0024757Y0010895D01*
X0024452Y0010296D02*
X0017179Y0010296D01*
X0015590Y0010296D02*
X0014990Y0010296D01*
X0014990Y0010895D02*
X0015590Y0010895D01*
X0015590Y0011493D02*
X0014990Y0011493D01*
X0014990Y0012092D02*
X0015590Y0012092D01*
X0015590Y0012690D02*
X0014990Y0012690D01*
X0014990Y0013289D02*
X0015590Y0013289D01*
X0015590Y0013887D02*
X0014990Y0013887D01*
X0014990Y0014486D02*
X0015590Y0014486D01*
X0015590Y0015084D02*
X0014990Y0015084D01*
X0014990Y0016880D02*
X0015590Y0016880D01*
X0015590Y0017478D02*
X0014990Y0017478D01*
X0014990Y0018077D02*
X0015590Y0018077D01*
X0015590Y0018675D02*
X0014990Y0018675D01*
X0014990Y0019274D02*
X0015590Y0019274D01*
X0015590Y0019872D02*
X0014990Y0019872D01*
X0014990Y0020471D02*
X0015590Y0020471D01*
X0015590Y0021069D02*
X0014990Y0021069D01*
X0014452Y0021069D02*
X0013909Y0021069D01*
X0014612Y0021668D02*
X0016438Y0021668D01*
X0016129Y0021069D02*
X0017238Y0021069D01*
X0017929Y0020471D02*
X0024623Y0020471D01*
X0024928Y0019872D02*
X0018838Y0019872D01*
X0019461Y0019274D02*
X0025233Y0019274D01*
X0025476Y0018675D02*
X0019920Y0018675D01*
X0020268Y0018077D02*
X0025571Y0018077D01*
X0025665Y0017478D02*
X0020533Y0017478D01*
X0020727Y0016880D02*
X0025760Y0016880D01*
X0025855Y0016281D02*
X0020826Y0016281D01*
X0020036Y0021069D02*
X0024318Y0021069D01*
X0024013Y0021668D02*
X0020835Y0021668D01*
X0021323Y0022266D02*
X0023493Y0022266D01*
X0022895Y0022865D02*
X0021571Y0022865D01*
X0021712Y0023463D02*
X0022296Y0023463D01*
X0016326Y0025858D02*
X0014709Y0025858D01*
X0015082Y0025259D02*
X0015904Y0025259D01*
X0015656Y0024661D02*
X0015306Y0024661D01*
X0015561Y0024062D02*
X0012431Y0024062D01*
X0011850Y0024062D02*
X0008883Y0024062D01*
X0008872Y0023528D02*
X0008872Y0023497D01*
X0008998Y0022866D01*
X0009244Y0022271D01*
X0009602Y0021735D01*
X0010057Y0021280D01*
X0010592Y0020922D01*
X0011187Y0020676D01*
X0011819Y0020550D01*
X0011850Y0020550D01*
X0011850Y0023528D01*
X0008872Y0023528D01*
X0008879Y0023463D02*
X0008284Y0023463D01*
X0007686Y0022865D02*
X0008998Y0022865D01*
X0009247Y0022266D02*
X0007087Y0022266D01*
X0006568Y0021668D02*
X0009669Y0021668D01*
X0010372Y0021069D02*
X0006263Y0021069D01*
X0007344Y0020471D02*
X0012652Y0020471D01*
X0012431Y0021069D02*
X0011850Y0021069D01*
X0011850Y0021668D02*
X0012431Y0021668D01*
X0012431Y0022266D02*
X0011850Y0022266D01*
X0011850Y0022865D02*
X0012431Y0022865D01*
X0012431Y0023463D02*
X0011850Y0023463D01*
X0015034Y0022266D02*
X0015951Y0022266D01*
X0015703Y0022865D02*
X0015283Y0022865D01*
X0015403Y0023463D02*
X0015561Y0023463D01*
X0011742Y0019872D02*
X0008429Y0019872D01*
X0009027Y0019274D02*
X0011120Y0019274D01*
X0010661Y0018675D02*
X0009282Y0018675D01*
X0009508Y0018077D02*
X0010313Y0018077D01*
X0010048Y0017478D02*
X0009508Y0017478D01*
X0009496Y0016880D02*
X0009853Y0016880D01*
X0009755Y0016281D02*
X0009248Y0016281D01*
X0008619Y0007304D02*
X0021961Y0007304D01*
X0021165Y0006705D02*
X0009416Y0006705D01*
X0010590Y0006107D02*
X0019990Y0006107D01*
X0018816Y0005508D02*
X0011765Y0005508D01*
X0015045Y0004910D02*
X0015535Y0004910D01*
D13*
X0023952Y0020669D03*
D14*
X0023952Y0015551D01*
X0015290Y0015551D01*
M02*
