G04 Layer: TopLayer*
G04 EasyEDA v6.5.22, 2023-02-08 15:23:14*
G04 b47096d6ad144cf6bac1a3a9f6be5821,c949cfa9a39643c6839ff0c3538172d0,10*
G04 Gerber Generator version 0.2*
G04 Scale: 100 percent, Rotated: No, Reflected: No *
G04 Dimensions in inches *
G04 leading zeros omitted , absolute positions ,3 integer and 6 decimal *
%FSLAX36Y36*%
%MOIN*%

%AMMACRO1*4,1,4,-0.0157,0.0236,0.0157,0.0236,0.0157,-0.0236,-0.0157,-0.0236,-0.0157,0.0236,0*%
%AMMACRO2*4,1,4,-0.0158,0.0236,0.0157,0.0236,0.0157,-0.0236,-0.0158,-0.0236,-0.0158,0.0236,0*%
%AMMACRO3*4,1,4,-0.025,-0.0125,-0.025,0.0125,0.025,0.0125,0.025,-0.0125,-0.025,-0.0125,0*%
%ADD10C,0.0120*%
%ADD11C,0.0100*%
%ADD12C,0.0000*%
%ADD13MACRO1*%
%ADD14MACRO2*%
%ADD15C,0.0163*%
%ADD16R,0.0394X0.0433*%
%ADD17R,0.0206X0.0285*%
%ADD18R,0.0079X0.0079*%
%ADD19MACRO3*%
%ADD20C,0.0740*%
%ADD21C,0.0298*%

%LPD*%
G36*
X36820Y8700D02*
G01*
X34700Y8980D01*
X29440Y11359D01*
X24940Y14120D01*
X20800Y17400D01*
X17080Y21160D01*
X15140Y23620D01*
X14400Y25160D01*
X14380Y26880D01*
X15080Y28460D01*
X16379Y29580D01*
X18020Y30080D01*
X19720Y29820D01*
X21160Y28880D01*
X24240Y25720D01*
X29360Y21500D01*
X34900Y17880D01*
X38120Y16240D01*
X39440Y15180D01*
X40199Y13660D01*
X40260Y11980D01*
X39620Y10420D01*
X38400Y9260D01*
G37*

%LPD*%
G36*
X88240Y6200D02*
G01*
X86720Y6500D01*
X85440Y7360D01*
X84560Y8640D01*
X84240Y10160D01*
X84540Y11680D01*
X85380Y12980D01*
X86640Y13859D01*
X92180Y16299D01*
X97920Y19600D01*
X103260Y23540D01*
X108140Y28020D01*
X112500Y33020D01*
X116280Y38480D01*
X119440Y44320D01*
X121940Y50460D01*
X123740Y56840D01*
X124820Y63380D01*
X125200Y70000D01*
X124820Y76620D01*
X123740Y83160D01*
X121940Y89540D01*
X119440Y95680D01*
X116280Y101519D01*
X112500Y106980D01*
X108140Y111980D01*
X103260Y116460D01*
X97920Y120399D01*
X92180Y123699D01*
X86100Y126380D01*
X79780Y128360D01*
X73260Y129620D01*
X66660Y130180D01*
X60020Y129980D01*
X53460Y129080D01*
X47040Y127440D01*
X40820Y125120D01*
X34900Y122120D01*
X29360Y118500D01*
X24240Y114280D01*
X19600Y109540D01*
X15540Y104300D01*
X13600Y101160D01*
X12420Y99940D01*
X10820Y99300D01*
X9120Y99420D01*
X7600Y100220D01*
X6560Y101580D01*
X6200Y103260D01*
X6200Y351740D01*
X6560Y353420D01*
X7600Y354780D01*
X9120Y355580D01*
X10820Y355700D01*
X12420Y355060D01*
X13600Y353840D01*
X15540Y350700D01*
X19600Y345460D01*
X24240Y340720D01*
X29360Y336500D01*
X34900Y332879D01*
X40820Y329880D01*
X47040Y327560D01*
X53460Y325920D01*
X60020Y325020D01*
X66660Y324820D01*
X73260Y325379D01*
X79780Y326640D01*
X86100Y328620D01*
X92180Y331300D01*
X97920Y334600D01*
X103260Y338540D01*
X108140Y343020D01*
X112500Y348020D01*
X116280Y353480D01*
X119440Y359320D01*
X121940Y365460D01*
X123740Y371840D01*
X124820Y378380D01*
X125200Y385000D01*
X124820Y391620D01*
X123740Y398160D01*
X121940Y404540D01*
X119440Y410680D01*
X116280Y416520D01*
X112500Y421980D01*
X108140Y426980D01*
X103260Y431460D01*
X97920Y435400D01*
X96280Y436340D01*
X95020Y437500D01*
X94340Y439099D01*
X94420Y440840D01*
X95220Y442380D01*
X96600Y443420D01*
X98280Y443800D01*
X549700Y443800D01*
X555520Y443420D01*
X560720Y442440D01*
X565740Y440840D01*
X570560Y438640D01*
X575060Y435880D01*
X579200Y432600D01*
X582920Y428840D01*
X586160Y424660D01*
X588880Y420120D01*
X591020Y415300D01*
X592560Y410240D01*
X593480Y405040D01*
X593800Y399700D01*
X593800Y50300D01*
X593420Y44480D01*
X592440Y39280D01*
X590840Y34260D01*
X588640Y29440D01*
X585880Y24940D01*
X582600Y20800D01*
X578840Y17080D01*
X574660Y13839D01*
X570120Y11120D01*
X565300Y8980D01*
X560240Y7440D01*
X555040Y6520D01*
X549700Y6200D01*
G37*

%LPC*%
G36*
X192100Y37900D02*
G01*
X197900Y37900D01*
X203680Y38620D01*
X209300Y40020D01*
X214720Y42120D01*
X219840Y44880D01*
X224579Y48240D01*
X228880Y52140D01*
X232659Y56560D01*
X235859Y61400D01*
X238460Y66600D01*
X240400Y72080D01*
X241100Y75280D01*
X241700Y76700D01*
X242800Y77780D01*
X244240Y78360D01*
X245760Y78360D01*
X247200Y77780D01*
X248299Y76700D01*
X248900Y75280D01*
X249600Y72080D01*
X251540Y66600D01*
X254140Y61400D01*
X257340Y56560D01*
X261119Y52140D01*
X265420Y48240D01*
X270160Y44880D01*
X275280Y42120D01*
X280700Y40020D01*
X286320Y38620D01*
X292100Y37900D01*
X297900Y37900D01*
X303680Y38620D01*
X309300Y40020D01*
X314720Y42120D01*
X319840Y44880D01*
X324580Y48240D01*
X328880Y52140D01*
X332660Y56560D01*
X335860Y61400D01*
X338459Y66600D01*
X340400Y72080D01*
X341640Y77760D01*
X342180Y83539D01*
X342000Y89360D01*
X341100Y95100D01*
X339500Y100680D01*
X337239Y106039D01*
X334340Y111060D01*
X330840Y115700D01*
X326800Y119880D01*
X322260Y123520D01*
X317320Y126580D01*
X314440Y127899D01*
X313080Y128920D01*
X312280Y130399D01*
X312140Y132080D01*
X312720Y133660D01*
X313860Y135480D01*
X314600Y137620D01*
X314880Y140100D01*
X314880Y141340D01*
X315180Y142880D01*
X316060Y144160D01*
X317360Y145040D01*
X318880Y145340D01*
X350900Y145340D01*
X354260Y145660D01*
X357299Y146600D01*
X360080Y148080D01*
X362700Y150220D01*
X377480Y165000D01*
X378780Y165880D01*
X380319Y166180D01*
X398820Y166180D01*
X400360Y165880D01*
X401659Y165000D01*
X453459Y113200D01*
X454400Y111740D01*
X454620Y110020D01*
X454099Y108360D01*
X452760Y106039D01*
X450500Y100680D01*
X448900Y95100D01*
X448000Y89360D01*
X447840Y83539D01*
X448360Y77760D01*
X449600Y72080D01*
X451540Y66600D01*
X454140Y61400D01*
X457340Y56560D01*
X461120Y52140D01*
X465420Y48240D01*
X470160Y44880D01*
X475280Y42120D01*
X480700Y40020D01*
X486320Y38620D01*
X492100Y37900D01*
X497900Y37900D01*
X503680Y38620D01*
X509300Y40020D01*
X514720Y42120D01*
X519840Y44880D01*
X524580Y48240D01*
X528880Y52140D01*
X532660Y56560D01*
X535860Y61400D01*
X538460Y66600D01*
X540400Y72080D01*
X541640Y77760D01*
X542180Y83539D01*
X542000Y89360D01*
X541100Y95100D01*
X539500Y100680D01*
X537240Y106039D01*
X534340Y111060D01*
X530840Y115700D01*
X526800Y119880D01*
X522260Y123520D01*
X517320Y126580D01*
X512040Y129000D01*
X506520Y130760D01*
X500800Y131840D01*
X495000Y132200D01*
X489200Y131840D01*
X484060Y130879D01*
X482780Y130840D01*
X481540Y131220D01*
X480500Y131980D01*
X416680Y195799D01*
X415820Y197100D01*
X415520Y198619D01*
X415520Y223400D01*
X415220Y225880D01*
X414480Y228039D01*
X413260Y229960D01*
X411659Y231580D01*
X409720Y232780D01*
X407580Y233540D01*
X405080Y233820D01*
X379340Y233820D01*
X377800Y234120D01*
X376500Y235000D01*
X351380Y260120D01*
X350500Y261420D01*
X350200Y262960D01*
X350200Y279800D01*
X349880Y282960D01*
X349020Y285800D01*
X347620Y288440D01*
X345600Y290880D01*
X336960Y299540D01*
X336260Y300480D01*
X335460Y301980D01*
X333440Y304440D01*
X330980Y306460D01*
X326740Y308640D01*
X325780Y309640D01*
X325240Y310920D01*
X325200Y337280D01*
X325360Y339020D01*
X326180Y340460D01*
X327540Y341460D01*
X329159Y341800D01*
X341760Y341800D01*
X343360Y341460D01*
X344700Y340520D01*
X345540Y339120D01*
X346140Y337400D01*
X347360Y335460D01*
X348980Y333860D01*
X350900Y332640D01*
X353060Y331880D01*
X355540Y331599D01*
X394460Y331599D01*
X396940Y331880D01*
X399099Y332640D01*
X401019Y333860D01*
X402640Y335460D01*
X403860Y337400D01*
X404600Y339540D01*
X404880Y342020D01*
X404880Y384900D01*
X404600Y387380D01*
X403860Y389520D01*
X402640Y391460D01*
X401019Y393060D01*
X399099Y394280D01*
X396940Y395040D01*
X394460Y395319D01*
X355540Y395319D01*
X353060Y395040D01*
X350900Y394280D01*
X348980Y393060D01*
X347360Y391460D01*
X346140Y389520D01*
X345400Y387380D01*
X345120Y384900D01*
X345120Y376200D01*
X344820Y374660D01*
X343940Y373380D01*
X342640Y372500D01*
X341120Y372200D01*
X327460Y372200D01*
X326140Y372420D01*
X324960Y373080D01*
X324060Y374080D01*
X322960Y375840D01*
X321340Y377460D01*
X319420Y378660D01*
X317260Y379420D01*
X314780Y379700D01*
X265220Y379700D01*
X262740Y379420D01*
X260580Y378660D01*
X258660Y377460D01*
X257040Y375840D01*
X255840Y373920D01*
X255080Y371760D01*
X254800Y369280D01*
X254800Y344720D01*
X254640Y342980D01*
X253820Y341540D01*
X252460Y340540D01*
X250840Y340200D01*
X155200Y340200D01*
X152040Y339880D01*
X149200Y339020D01*
X146560Y337620D01*
X144120Y335600D01*
X115620Y307100D01*
X113600Y304660D01*
X112200Y302020D01*
X111340Y299180D01*
X111020Y296020D01*
X111020Y283280D01*
X110719Y281740D01*
X109840Y280440D01*
X108000Y278580D01*
X106780Y276660D01*
X106020Y274500D01*
X105740Y272020D01*
X105740Y264420D01*
X105399Y262780D01*
X104400Y261439D01*
X102940Y260600D01*
X101260Y260460D01*
X99680Y261000D01*
X97520Y262300D01*
X93360Y264340D01*
X91519Y265020D01*
X88219Y266080D01*
X82899Y267140D01*
X77420Y267500D01*
X72700Y267240D01*
X70520Y266940D01*
X66020Y266040D01*
X62720Y264980D01*
X60800Y264260D01*
X58000Y262960D01*
X55839Y261840D01*
X51160Y258700D01*
X47000Y255060D01*
X43339Y250880D01*
X41660Y248460D01*
X40240Y246240D01*
X39100Y244060D01*
X37780Y241260D01*
X37080Y239380D01*
X36000Y236020D01*
X34920Y230539D01*
X34540Y225000D01*
X34900Y219140D01*
X35960Y213840D01*
X37720Y208660D01*
X39000Y205920D01*
X40119Y203780D01*
X43179Y199200D01*
X46740Y195120D01*
X50860Y191520D01*
X55400Y188480D01*
X60300Y186060D01*
X65439Y184320D01*
X70820Y183260D01*
X76300Y182900D01*
X81720Y183160D01*
X84060Y183480D01*
X88260Y184320D01*
X93400Y186060D01*
X98260Y188460D01*
X99540Y189300D01*
X101140Y189920D01*
X102840Y189820D01*
X104340Y189020D01*
X105380Y187640D01*
X105740Y185980D01*
X105740Y177979D01*
X106020Y175500D01*
X106780Y173340D01*
X108000Y171420D01*
X108840Y170560D01*
X109720Y169259D01*
X110020Y167719D01*
X110020Y153980D01*
X110360Y150620D01*
X111280Y147580D01*
X112760Y144800D01*
X114900Y142180D01*
X150340Y106740D01*
X151220Y105440D01*
X151520Y103900D01*
X151200Y102360D01*
X150500Y100680D01*
X148900Y95100D01*
X148000Y89360D01*
X147840Y83539D01*
X148360Y77760D01*
X149600Y72080D01*
X151540Y66600D01*
X154140Y61400D01*
X157340Y56560D01*
X161119Y52140D01*
X165420Y48240D01*
X170159Y44880D01*
X175280Y42120D01*
X180700Y40020D01*
X186320Y38620D01*
G37*

%LPD*%
G36*
X250840Y279360D02*
G01*
X249320Y279640D01*
X248020Y280480D01*
X244780Y285400D01*
X240940Y289500D01*
X240420Y290600D01*
X239940Y292140D01*
X238460Y294920D01*
X236320Y297540D01*
X230880Y302980D01*
X230020Y304260D01*
X229700Y305800D01*
X230020Y307340D01*
X230880Y308620D01*
X232180Y309500D01*
X233700Y309800D01*
X250840Y309800D01*
X252460Y309460D01*
X253820Y308460D01*
X254640Y307020D01*
X254800Y305280D01*
X254800Y283360D01*
X254500Y281840D01*
X253640Y280540D01*
X252360Y279680D01*
G37*

%LPD*%
G36*
X318880Y177740D02*
G01*
X317360Y178039D01*
X316060Y178920D01*
X315180Y180200D01*
X314880Y181740D01*
X314880Y182979D01*
X314600Y185460D01*
X313860Y187600D01*
X312640Y189540D01*
X311020Y191140D01*
X309100Y192360D01*
X306940Y193120D01*
X304460Y193400D01*
X277720Y193400D01*
X276180Y193700D01*
X274880Y194560D01*
X266100Y203340D01*
X263500Y205479D01*
X260700Y206980D01*
X257659Y207900D01*
X254320Y208220D01*
X181720Y208220D01*
X180380Y208460D01*
X179200Y209120D01*
X178299Y210159D01*
X176780Y212659D01*
X175200Y214259D01*
X173260Y215460D01*
X171119Y216220D01*
X168640Y216500D01*
X148520Y216500D01*
X146040Y216220D01*
X143720Y215400D01*
X142400Y215180D01*
X141080Y215400D01*
X138760Y216220D01*
X136280Y216500D01*
X122920Y216500D01*
X121340Y216820D01*
X120020Y217740D01*
X119160Y219100D01*
X118920Y220700D01*
X119160Y225380D01*
X118940Y229280D01*
X119179Y230880D01*
X120020Y232240D01*
X121340Y233180D01*
X122940Y233500D01*
X136280Y233500D01*
X138760Y233780D01*
X141080Y234600D01*
X142400Y234820D01*
X143720Y234600D01*
X146040Y233780D01*
X148520Y233500D01*
X168640Y233500D01*
X171119Y233780D01*
X173260Y234540D01*
X175200Y235740D01*
X176800Y237360D01*
X178020Y239280D01*
X178780Y241439D01*
X179060Y243920D01*
X179060Y272020D01*
X178780Y274500D01*
X178020Y276660D01*
X176800Y278580D01*
X175960Y279440D01*
X175080Y280740D01*
X174780Y282760D01*
X175080Y284300D01*
X175960Y285600D01*
X177240Y286460D01*
X178780Y286760D01*
X198939Y286760D01*
X200500Y286460D01*
X201800Y285580D01*
X202659Y284260D01*
X202940Y282700D01*
X202600Y281160D01*
X201280Y278140D01*
X200260Y274120D01*
X199920Y270000D01*
X200260Y265880D01*
X201280Y261860D01*
X202940Y258060D01*
X205219Y254600D01*
X208020Y251560D01*
X211280Y249000D01*
X214920Y247040D01*
X218840Y245700D01*
X222920Y245000D01*
X227079Y245000D01*
X231160Y245700D01*
X235080Y247040D01*
X238720Y249000D01*
X241980Y251560D01*
X244780Y254600D01*
X247060Y258060D01*
X248720Y261860D01*
X249740Y265880D01*
X250080Y270000D01*
X249980Y271260D01*
X250159Y272860D01*
X250980Y274260D01*
X252280Y275220D01*
X253840Y275580D01*
X255440Y275300D01*
X256780Y274420D01*
X258660Y272540D01*
X260580Y271340D01*
X262740Y270580D01*
X265220Y270300D01*
X314780Y270300D01*
X315360Y270360D01*
X317020Y270200D01*
X318460Y269380D01*
X319460Y268020D01*
X319800Y266400D01*
X319800Y255200D01*
X320120Y252040D01*
X320980Y249200D01*
X322380Y246560D01*
X324400Y244120D01*
X362440Y206060D01*
X363320Y204760D01*
X363620Y203220D01*
X363620Y198619D01*
X363320Y197100D01*
X362440Y195799D01*
X345560Y178920D01*
X344260Y178039D01*
X342740Y177740D01*
G37*

%LPD*%
G36*
X176140Y128520D02*
G01*
X174560Y128820D01*
X173220Y129700D01*
X143600Y159320D01*
X142720Y160620D01*
X142420Y162140D01*
X142420Y163780D01*
X142760Y165400D01*
X143760Y166759D01*
X145200Y167580D01*
X146860Y167740D01*
X148520Y167560D01*
X168640Y167560D01*
X171119Y167840D01*
X173260Y168600D01*
X175200Y169800D01*
X176780Y171400D01*
X178299Y173900D01*
X179200Y174940D01*
X180380Y175600D01*
X181720Y175820D01*
X206360Y175820D01*
X208039Y175460D01*
X209400Y174440D01*
X210200Y172940D01*
X210320Y171240D01*
X209720Y169640D01*
X207940Y166940D01*
X206280Y163140D01*
X205260Y159120D01*
X204920Y155000D01*
X205260Y150880D01*
X206280Y146860D01*
X207940Y143060D01*
X210219Y139600D01*
X213020Y136540D01*
X213900Y135040D01*
X214060Y133300D01*
X213460Y131680D01*
X212240Y130460D01*
X210600Y129860D01*
X208880Y130020D01*
X206520Y130760D01*
X200799Y131840D01*
X195000Y132200D01*
X189200Y131840D01*
X183480Y130760D01*
X177719Y128900D01*
G37*

%LPD*%
G36*
X245000Y92000D02*
G01*
X243320Y92380D01*
X241960Y93400D01*
X241160Y94920D01*
X239500Y100680D01*
X237240Y106039D01*
X234340Y111060D01*
X230840Y115700D01*
X226800Y119880D01*
X222500Y123320D01*
X221420Y124680D01*
X221020Y126380D01*
X221360Y128080D01*
X222399Y129480D01*
X223939Y130300D01*
X225680Y130380D01*
X227920Y130000D01*
X230420Y130000D01*
X231960Y129700D01*
X233260Y128840D01*
X251840Y110260D01*
X252700Y108960D01*
X253000Y107420D01*
X252680Y105879D01*
X250500Y100680D01*
X248840Y94920D01*
X248039Y93400D01*
X246680Y92380D01*
G37*

%LPD*%
G36*
X77060Y257280D02*
G01*
X73160Y257060D01*
X69320Y256340D01*
X65600Y255200D01*
X62040Y253600D01*
X58720Y251580D01*
X55640Y249160D01*
X52880Y246420D01*
X50480Y243340D01*
X48460Y240000D01*
X46860Y236460D01*
X45700Y232740D01*
X45000Y228900D01*
X44760Y224620D01*
X45000Y220820D01*
X45679Y217079D01*
X46820Y213440D01*
X48380Y209980D01*
X50340Y206720D01*
X52680Y203720D01*
X55380Y201040D01*
X58380Y198700D01*
X61620Y196720D01*
X65100Y195159D01*
X68720Y194040D01*
X72460Y193340D01*
X76260Y193120D01*
X77440Y193120D01*
X81240Y193340D01*
X84980Y194040D01*
X88620Y195159D01*
X92080Y196720D01*
X95340Y198700D01*
X98340Y201040D01*
X101020Y203720D01*
X103360Y206720D01*
X105340Y209980D01*
X106900Y213440D01*
X108020Y217079D01*
X108720Y220820D01*
X108940Y224620D01*
X97140Y224620D01*
X96980Y221840D01*
X96560Y219500D01*
X95860Y217240D01*
X94880Y215060D01*
X93640Y213039D01*
X92180Y211160D01*
X90500Y209480D01*
X88620Y208020D01*
X86600Y206780D01*
X84420Y205820D01*
X82160Y205100D01*
X79820Y204680D01*
X77440Y204540D01*
X74980Y204680D01*
X72540Y205120D01*
X70180Y205859D01*
X67940Y206880D01*
X65820Y208160D01*
X63880Y209680D01*
X62120Y211420D01*
X60599Y213380D01*
X59320Y215500D01*
X58300Y217740D01*
X57560Y220100D01*
X57120Y222540D01*
X56980Y225400D01*
X57120Y227780D01*
X57539Y230100D01*
X58259Y232380D01*
X59220Y234540D01*
X60460Y236580D01*
X61920Y238460D01*
X63600Y240140D01*
X65480Y241600D01*
X67520Y242820D01*
X69680Y243800D01*
X71940Y244520D01*
X74280Y244940D01*
X77440Y245080D01*
X79820Y244940D01*
X82160Y244520D01*
X84420Y243800D01*
X86600Y242820D01*
X88620Y241600D01*
X90500Y240140D01*
X92180Y238460D01*
X93640Y236580D01*
X94880Y234540D01*
X95860Y232380D01*
X96560Y230100D01*
X96980Y227780D01*
X97140Y225400D01*
X108940Y225400D01*
X108720Y229579D01*
X108020Y233320D01*
X106900Y236960D01*
X105340Y240420D01*
X103360Y243680D01*
X101020Y246680D01*
X98340Y249360D01*
X95340Y251720D01*
X92080Y253680D01*
X88620Y255240D01*
X84980Y256380D01*
X81240Y257060D01*
G37*
D10*
X290000Y293000D02*
G01*
X322000Y293000D01*
X495000Y85000D02*
G01*
X495000Y94570D01*
X389570Y200000D01*
X351100Y161540D01*
X285000Y161540D01*
X254510Y192030D01*
X158580Y192030D01*
D11*
X322000Y293000D02*
G01*
X335000Y280000D01*
X335000Y255000D01*
X389570Y200430D01*
X389570Y200000D01*
D10*
X158580Y257970D02*
G01*
X158580Y292970D01*
X168580Y302970D01*
X207970Y302970D01*
X225000Y285940D01*
X225000Y270000D01*
X230000Y155000D02*
G01*
X295000Y90000D01*
X295000Y85000D01*
X126220Y192030D02*
G01*
X126220Y153780D01*
X195000Y85000D01*
D11*
X290000Y357000D02*
G01*
X368530Y357000D01*
X375000Y363459D01*
X126220Y257970D02*
G01*
X126220Y296220D01*
X155000Y325000D01*
X290000Y325000D01*
D12*
X97129Y225390D02*
G01*
X108940Y225390D01*
X108940Y225790D01*
X77440Y257280D02*
G01*
X77050Y257280D01*
X44760Y225000D02*
G01*
X44760Y224609D01*
X76260Y193110D02*
G01*
X77440Y193110D01*
X108940Y224609D02*
G01*
X97129Y224609D01*
X97129Y224210D01*
X56970Y225000D02*
G01*
X56970Y225390D01*
X76650Y245080D02*
G01*
X77440Y245080D01*
D13*
G01*
X389565Y200000D03*
D14*
G01*
X460430Y200000D03*
D16*
G01*
X285000Y161540D03*
G01*
X285000Y228460D03*
D17*
G01*
X158580Y257970D03*
G01*
X126220Y257970D03*
D18*
G01*
X50550Y225610D03*
D17*
G01*
X126220Y192030D03*
G01*
X158580Y192030D03*
D16*
G01*
X375000Y296530D03*
G01*
X375000Y363459D03*
D19*
G01*
X290000Y293000D03*
G01*
X290000Y325000D03*
G01*
X290000Y357000D03*
D12*
G75*
G01*
X108940Y225790D02*
G03*
X77440Y257280I-31500J-10D01*
G75*
G01*
X77050Y257280D02*
G03*
X44760Y225000I-10J-32280D01*
G75*
G01*
X44760Y224610D02*
G03*
X76260Y193110I31500J0D01*
G75*
G01*
X77440Y193110D02*
G03*
X108940Y224610I0J31500D01*
G75*
G01*
X97130Y224210D02*
G02*
X77440Y204530I-19680J0D01*
G75*
G01*
X77440Y204530D02*
G02*
X56970Y225000I0J20470D01*
G75*
G01*
X56970Y225390D02*
G02*
X76650Y245080I19690J0D01*
G75*
G01*
X77440Y245080D02*
G02*
X97130Y225390I10J-19680D01*
D20*
G01*
X195000Y85000D03*
G01*
X295000Y85000D03*
G01*
X395000Y85000D03*
G01*
X495000Y85000D03*
D21*
G01*
X230000Y155000D03*
G01*
X225000Y270000D03*
M02*
