G04 Layer: BottomLayer*
G04 EasyEDA v6.5.22, 2023-02-08 15:23:14*
G04 b47096d6ad144cf6bac1a3a9f6be5821,c949cfa9a39643c6839ff0c3538172d0,10*
G04 Gerber Generator version 0.2*
G04 Scale: 100 percent, Rotated: No, Reflected: No *
G04 Dimensions in inches *
G04 leading zeros omitted , absolute positions ,3 integer and 6 decimal *
%FSLAX36Y36*%
%MOIN*%

%ADD10C,0.0120*%
%ADD11C,0.0740*%
%ADD12C,0.0298*%

%LPD*%
G36*
X36820Y8700D02*
G01*
X34700Y8980D01*
X29440Y11359D01*
X24940Y14120D01*
X20800Y17400D01*
X17080Y21160D01*
X15140Y23620D01*
X14400Y25160D01*
X14380Y26880D01*
X15080Y28460D01*
X16379Y29580D01*
X18020Y30080D01*
X19720Y29820D01*
X21160Y28880D01*
X24240Y25720D01*
X29360Y21500D01*
X34900Y17880D01*
X38120Y16240D01*
X39440Y15180D01*
X40199Y13660D01*
X40260Y11980D01*
X39620Y10420D01*
X38400Y9260D01*
G37*

%LPD*%
G36*
X88240Y6200D02*
G01*
X86720Y6500D01*
X85440Y7360D01*
X84560Y8640D01*
X84240Y10160D01*
X84540Y11680D01*
X85380Y12980D01*
X86640Y13859D01*
X92180Y16299D01*
X97920Y19600D01*
X103260Y23540D01*
X108140Y28020D01*
X112500Y33020D01*
X116280Y38480D01*
X119440Y44320D01*
X121940Y50460D01*
X123740Y56840D01*
X124820Y63380D01*
X125200Y70000D01*
X124820Y76620D01*
X123740Y83160D01*
X121940Y89540D01*
X119440Y95680D01*
X116280Y101519D01*
X112500Y106980D01*
X108140Y111980D01*
X103260Y116460D01*
X97920Y120399D01*
X92180Y123699D01*
X86100Y126380D01*
X79780Y128360D01*
X73260Y129620D01*
X66660Y130180D01*
X60020Y129980D01*
X53460Y129080D01*
X47040Y127440D01*
X40820Y125120D01*
X34900Y122120D01*
X29360Y118500D01*
X24240Y114280D01*
X19600Y109540D01*
X15540Y104300D01*
X13600Y101160D01*
X12420Y99940D01*
X10820Y99300D01*
X9120Y99420D01*
X7600Y100220D01*
X6560Y101580D01*
X6200Y103260D01*
X6200Y351740D01*
X6560Y353420D01*
X7600Y354780D01*
X9120Y355580D01*
X10820Y355700D01*
X12420Y355060D01*
X13600Y353840D01*
X15540Y350700D01*
X19600Y345460D01*
X24240Y340720D01*
X29360Y336500D01*
X34900Y332879D01*
X40820Y329880D01*
X47040Y327560D01*
X53460Y325920D01*
X60020Y325020D01*
X66660Y324820D01*
X73260Y325379D01*
X79780Y326640D01*
X86100Y328620D01*
X92180Y331300D01*
X97920Y334600D01*
X103260Y338540D01*
X108140Y343020D01*
X112500Y348020D01*
X116280Y353480D01*
X119440Y359320D01*
X121940Y365460D01*
X123740Y371840D01*
X124820Y378380D01*
X125200Y385000D01*
X124820Y391620D01*
X123740Y398160D01*
X121940Y404540D01*
X119440Y410680D01*
X116280Y416520D01*
X112500Y421980D01*
X108140Y426980D01*
X103260Y431460D01*
X97920Y435400D01*
X96280Y436340D01*
X95020Y437500D01*
X94340Y439099D01*
X94420Y440840D01*
X95220Y442380D01*
X96600Y443420D01*
X98280Y443800D01*
X549700Y443800D01*
X555520Y443420D01*
X560720Y442440D01*
X565740Y440840D01*
X570560Y438640D01*
X575060Y435880D01*
X579200Y432600D01*
X582920Y428840D01*
X586160Y424660D01*
X588880Y420120D01*
X591020Y415300D01*
X592560Y410240D01*
X593480Y405040D01*
X593800Y399700D01*
X593800Y50300D01*
X593420Y44480D01*
X592440Y39280D01*
X590840Y34260D01*
X588640Y29440D01*
X585880Y24940D01*
X582600Y20800D01*
X578840Y17080D01*
X574660Y13839D01*
X570120Y11120D01*
X565300Y8980D01*
X560240Y7440D01*
X555040Y6520D01*
X549700Y6200D01*
G37*

%LPC*%
G36*
X492100Y37900D02*
G01*
X497900Y37900D01*
X503680Y38620D01*
X509300Y40020D01*
X514720Y42120D01*
X519840Y44880D01*
X524580Y48240D01*
X528880Y52140D01*
X532660Y56560D01*
X535860Y61400D01*
X538460Y66600D01*
X540400Y72080D01*
X541640Y77760D01*
X542180Y83539D01*
X542000Y89360D01*
X541100Y95100D01*
X539500Y100680D01*
X537240Y106039D01*
X534340Y111060D01*
X530840Y115700D01*
X526800Y119880D01*
X522260Y123520D01*
X517320Y126580D01*
X512040Y129000D01*
X506520Y130760D01*
X500800Y131840D01*
X495000Y132200D01*
X489200Y131840D01*
X483480Y130760D01*
X477960Y129000D01*
X472680Y126580D01*
X467740Y123520D01*
X463200Y119880D01*
X459159Y115700D01*
X455660Y111060D01*
X452760Y106039D01*
X450500Y100680D01*
X448900Y95100D01*
X448000Y89360D01*
X447840Y83539D01*
X448360Y77760D01*
X449600Y72080D01*
X451540Y66600D01*
X454140Y61400D01*
X457340Y56560D01*
X461120Y52140D01*
X465420Y48240D01*
X470160Y44880D01*
X475280Y42120D01*
X480700Y40020D01*
X486320Y38620D01*
G37*
G36*
X192100Y37900D02*
G01*
X197900Y37900D01*
X203680Y38620D01*
X209300Y40020D01*
X214720Y42120D01*
X219840Y44880D01*
X224579Y48240D01*
X228880Y52140D01*
X232659Y56560D01*
X235859Y61400D01*
X238460Y66600D01*
X240400Y72080D01*
X241100Y75280D01*
X241700Y76700D01*
X242800Y77780D01*
X244240Y78360D01*
X245760Y78360D01*
X247200Y77780D01*
X248299Y76700D01*
X248900Y75280D01*
X249600Y72080D01*
X251540Y66600D01*
X254140Y61400D01*
X257340Y56560D01*
X261119Y52140D01*
X265420Y48240D01*
X270160Y44880D01*
X275280Y42120D01*
X280700Y40020D01*
X286320Y38620D01*
X292100Y37900D01*
X297900Y37900D01*
X303680Y38620D01*
X309300Y40020D01*
X314720Y42120D01*
X319840Y44880D01*
X324580Y48240D01*
X328880Y52140D01*
X332660Y56560D01*
X335860Y61400D01*
X338459Y66600D01*
X340400Y72080D01*
X341640Y77760D01*
X342180Y83539D01*
X342000Y89360D01*
X341100Y95100D01*
X339500Y100680D01*
X337239Y106039D01*
X334340Y111060D01*
X330840Y115700D01*
X326800Y119880D01*
X322260Y123520D01*
X317320Y126580D01*
X312040Y129000D01*
X306520Y130760D01*
X300800Y131840D01*
X295000Y132200D01*
X289200Y131840D01*
X283480Y130760D01*
X277960Y129000D01*
X272680Y126580D01*
X267740Y123520D01*
X263200Y119880D01*
X259160Y115700D01*
X255660Y111060D01*
X252760Y106039D01*
X250500Y100680D01*
X248840Y94920D01*
X248039Y93400D01*
X246680Y92380D01*
X245000Y92000D01*
X243320Y92380D01*
X241960Y93400D01*
X241160Y94920D01*
X239500Y100680D01*
X237240Y106039D01*
X234340Y111060D01*
X230840Y115700D01*
X226800Y119880D01*
X222500Y123320D01*
X221420Y124680D01*
X221020Y126380D01*
X221360Y128080D01*
X222399Y129480D01*
X223939Y130300D01*
X225680Y130380D01*
X227920Y130000D01*
X232079Y130000D01*
X236160Y130700D01*
X240080Y132040D01*
X243720Y134000D01*
X246980Y136560D01*
X249780Y139600D01*
X252060Y143060D01*
X253720Y146860D01*
X254740Y150880D01*
X255080Y155000D01*
X254740Y159120D01*
X253720Y163140D01*
X252060Y166940D01*
X249780Y170400D01*
X246980Y173440D01*
X242180Y177120D01*
X241460Y178340D01*
X241200Y179740D01*
X241200Y249140D01*
X241480Y250600D01*
X242260Y251840D01*
X244780Y254600D01*
X247060Y258060D01*
X248720Y261860D01*
X249740Y265880D01*
X250080Y270000D01*
X249740Y274120D01*
X248720Y278140D01*
X247060Y281940D01*
X244780Y285400D01*
X241980Y288440D01*
X238720Y291000D01*
X235080Y292960D01*
X231160Y294300D01*
X227079Y295000D01*
X222920Y295000D01*
X218840Y294300D01*
X214920Y292960D01*
X211280Y291000D01*
X208020Y288440D01*
X205219Y285400D01*
X202940Y281940D01*
X201280Y278140D01*
X200260Y274120D01*
X199920Y270000D01*
X200260Y265880D01*
X201280Y261860D01*
X202940Y258060D01*
X205219Y254600D01*
X207740Y251840D01*
X208520Y250600D01*
X208800Y249140D01*
X208800Y169440D01*
X208640Y168299D01*
X207940Y166940D01*
X206280Y163140D01*
X205260Y159120D01*
X204920Y155000D01*
X205260Y150880D01*
X206280Y146860D01*
X207940Y143060D01*
X210219Y139600D01*
X213020Y136540D01*
X213900Y135040D01*
X214060Y133300D01*
X213460Y131680D01*
X212240Y130460D01*
X210600Y129860D01*
X208880Y130020D01*
X206520Y130760D01*
X200799Y131840D01*
X195000Y132200D01*
X189200Y131840D01*
X183480Y130760D01*
X177960Y129000D01*
X172680Y126580D01*
X167740Y123520D01*
X163200Y119880D01*
X159160Y115700D01*
X155660Y111060D01*
X152760Y106039D01*
X150500Y100680D01*
X148900Y95100D01*
X148000Y89360D01*
X147840Y83539D01*
X148360Y77760D01*
X149600Y72080D01*
X151540Y66600D01*
X154140Y61400D01*
X157340Y56560D01*
X161119Y52140D01*
X165420Y48240D01*
X170159Y44880D01*
X175280Y42120D01*
X180700Y40020D01*
X186320Y38620D01*
G37*
G36*
X77900Y202040D02*
G01*
X81780Y202540D01*
X85500Y203680D01*
X88980Y205420D01*
X92120Y207740D01*
X94820Y210560D01*
X97000Y213800D01*
X98600Y217340D01*
X99580Y221119D01*
X99920Y225000D01*
X99580Y228880D01*
X98600Y232659D01*
X97000Y236200D01*
X94820Y239440D01*
X92120Y242260D01*
X88980Y244579D01*
X85500Y246320D01*
X81780Y247460D01*
X77900Y247960D01*
X74020Y247800D01*
X70200Y246980D01*
X66580Y245520D01*
X63259Y243480D01*
X60340Y240900D01*
X57880Y237880D01*
X55980Y234460D01*
X54680Y230799D01*
X54020Y226940D01*
X54020Y223060D01*
X54680Y219200D01*
X55980Y215539D01*
X57880Y212120D01*
X60340Y209100D01*
X63259Y206520D01*
X66580Y204480D01*
X70200Y203020D01*
X74020Y202200D01*
G37*

%LPD*%
D10*
X225000Y270000D02*
G01*
X225000Y160000D01*
X230000Y155000D01*
D11*
G01*
X195000Y85000D03*
G01*
X295000Y85000D03*
G01*
X395000Y85000D03*
G01*
X495000Y85000D03*
D12*
G01*
X230000Y155000D03*
G01*
X225000Y270000D03*
M02*
