G04 Layer: TopSilkscreenLayer*
G04 EasyEDA v6.5.22, 2023-02-08 15:23:14*
G04 b47096d6ad144cf6bac1a3a9f6be5821,c949cfa9a39643c6839ff0c3538172d0,10*
G04 Gerber Generator version 0.2*
G04 Scale: 100 percent, Rotated: No, Reflected: No *
G04 Dimensions in inches *
G04 leading zeros omitted , absolute positions ,3 integer and 6 decimal *
%FSLAX36Y36*%
%MOIN*%

%ADD10C,0.0010*%
%ADD11C,0.0013*%
%ADD12C,0.0019*%
%ADD13C,0.0058*%
%ADD14C,0.0050*%
%ADD15C,0.0060*%
%ADD16C,0.0079*%
%ADD17C,0.0105*%

%LPD*%
D10*
X103100Y424099D02*
G01*
X103100Y416500D01*
X103100Y413700D02*
G01*
X102600Y413200D01*
X103100Y412700D01*
X103699Y413200D01*
X103100Y413700D01*
X123900Y421400D02*
G01*
X123300Y422500D01*
X122200Y423600D01*
X121100Y424099D01*
X119000Y424099D01*
X117899Y423600D01*
X116800Y422500D01*
X116199Y421400D01*
X115700Y419700D01*
X115700Y417000D01*
X116199Y415400D01*
X116800Y414300D01*
X117899Y413200D01*
X119000Y412700D01*
X121100Y412700D01*
X122200Y413200D01*
X123300Y414300D01*
X123900Y415400D01*
X130700Y424099D02*
G01*
X129700Y423600D01*
X128600Y422500D01*
X128000Y421400D01*
X127500Y419700D01*
X127500Y417000D01*
X128000Y415400D01*
X128600Y414300D01*
X129700Y413200D01*
X130700Y412700D01*
X132900Y412700D01*
X134000Y413200D01*
X135100Y414300D01*
X135700Y415400D01*
X136200Y417000D01*
X136200Y419700D01*
X135700Y421400D01*
X135100Y422500D01*
X134000Y423600D01*
X132900Y424099D01*
X130700Y424099D01*
X139800Y424099D02*
G01*
X139800Y412700D01*
X139800Y424099D02*
G01*
X147400Y412700D01*
X147400Y424099D02*
G01*
X147400Y412700D01*
X151000Y424099D02*
G01*
X151000Y412700D01*
X151000Y424099D02*
G01*
X158700Y412700D01*
X158700Y424099D02*
G01*
X158700Y412700D01*
X162300Y424099D02*
G01*
X162300Y412700D01*
X162300Y424099D02*
G01*
X169400Y424099D01*
X162300Y418700D02*
G01*
X166600Y418700D01*
X162300Y412700D02*
G01*
X169400Y412700D01*
X181100Y421400D02*
G01*
X180600Y422500D01*
X179500Y423600D01*
X178400Y424099D01*
X176200Y424099D01*
X175100Y423600D01*
X174100Y422500D01*
X173500Y421400D01*
X173000Y419700D01*
X173000Y417000D01*
X173500Y415400D01*
X174100Y414300D01*
X175100Y413200D01*
X176200Y412700D01*
X178400Y412700D01*
X179500Y413200D01*
X180600Y414300D01*
X181100Y415400D01*
X188600Y424099D02*
G01*
X188600Y412700D01*
X184700Y424099D02*
G01*
X192399Y424099D01*
X209800Y424099D02*
G01*
X209800Y415400D01*
X209300Y413700D01*
X208700Y413200D01*
X207700Y412700D01*
X206600Y412700D01*
X205500Y413200D01*
X204899Y413700D01*
X204400Y415400D01*
X204400Y416500D01*
X213400Y424099D02*
G01*
X213400Y415900D01*
X214000Y414300D01*
X215100Y413200D01*
X216700Y412700D01*
X217800Y412700D01*
X219400Y413200D01*
X220500Y414300D01*
X221100Y415900D01*
X221100Y424099D01*
X224700Y424099D02*
G01*
X224700Y412700D01*
X224700Y424099D02*
G01*
X229000Y412700D01*
X233400Y424099D02*
G01*
X229000Y412700D01*
X233400Y424099D02*
G01*
X233400Y412700D01*
X237000Y424099D02*
G01*
X237000Y412700D01*
X237000Y424099D02*
G01*
X241900Y424099D01*
X243500Y423600D01*
X244100Y423000D01*
X244600Y421900D01*
X244600Y420300D01*
X244100Y419200D01*
X243500Y418700D01*
X241900Y418100D01*
X237000Y418100D01*
X248200Y424099D02*
G01*
X248200Y412700D01*
X248200Y424099D02*
G01*
X255300Y424099D01*
X248200Y418700D02*
G01*
X252600Y418700D01*
X248200Y412700D02*
G01*
X255300Y412700D01*
X258900Y424099D02*
G01*
X258900Y412700D01*
X258900Y424099D02*
G01*
X263800Y424099D01*
X265500Y423600D01*
X266000Y423000D01*
X266600Y421900D01*
X266600Y420800D01*
X266000Y419700D01*
X265500Y419200D01*
X263800Y418700D01*
X258900Y418700D01*
X262700Y418700D02*
G01*
X266600Y412700D01*
X278600Y424099D02*
G01*
X286200Y411000D01*
X289800Y420300D02*
G01*
X289800Y412700D01*
X289800Y418100D02*
G01*
X291400Y419700D01*
X292500Y420300D01*
X294200Y420300D01*
X295300Y419700D01*
X295800Y418100D01*
X295800Y412700D01*
X299400Y424099D02*
G01*
X299400Y412700D01*
X299400Y424099D02*
G01*
X304300Y424099D01*
X305900Y423600D01*
X306500Y423000D01*
X307000Y421900D01*
X307000Y420800D01*
X306500Y419700D01*
X305900Y419200D01*
X304300Y418700D01*
X299400Y418700D02*
G01*
X304300Y418700D01*
X305900Y418100D01*
X306500Y417600D01*
X307000Y416500D01*
X307000Y414799D01*
X306500Y413700D01*
X305900Y413200D01*
X304300Y412700D01*
X299400Y412700D01*
X310600Y424099D02*
G01*
X310600Y412700D01*
X310600Y424099D02*
G01*
X317700Y424099D01*
X310600Y418700D02*
G01*
X315000Y418700D01*
X310600Y412700D02*
G01*
X317700Y412700D01*
X321300Y424099D02*
G01*
X321300Y412700D01*
X321300Y424099D02*
G01*
X328400Y424099D01*
X321300Y418700D02*
G01*
X325700Y418700D01*
X335300Y424099D02*
G01*
X334200Y423600D01*
X333100Y422500D01*
X332600Y421400D01*
X332000Y419700D01*
X332000Y417000D01*
X332600Y415400D01*
X333100Y414300D01*
X334200Y413200D01*
X335300Y412700D01*
X337500Y412700D01*
X338600Y413200D01*
X339700Y414300D01*
X340200Y415400D01*
X340700Y417000D01*
X340700Y419700D01*
X340200Y421400D01*
X339700Y422500D01*
X338600Y423600D01*
X337500Y424099D01*
X335300Y424099D01*
X344300Y424099D02*
G01*
X344300Y412700D01*
X344300Y424099D02*
G01*
X349300Y424099D01*
X350900Y423600D01*
X351400Y423000D01*
X352000Y421900D01*
X352000Y420800D01*
X351400Y419700D01*
X350900Y419200D01*
X349300Y418700D01*
X344300Y418700D01*
X348200Y418700D02*
G01*
X352000Y412700D01*
X355600Y424099D02*
G01*
X355600Y412700D01*
X355600Y424099D02*
G01*
X362700Y424099D01*
X355600Y418700D02*
G01*
X359900Y418700D01*
X355600Y412700D02*
G01*
X362700Y412700D01*
X374700Y424099D02*
G01*
X374700Y415900D01*
X375200Y414300D01*
X376300Y413200D01*
X377900Y412700D01*
X379000Y412700D01*
X380700Y413200D01*
X381800Y414300D01*
X382299Y415900D01*
X382299Y424099D01*
X393500Y422500D02*
G01*
X392500Y423600D01*
X390800Y424099D01*
X388600Y424099D01*
X387000Y423600D01*
X385900Y422500D01*
X385900Y421400D01*
X386500Y420300D01*
X387000Y419700D01*
X388100Y419200D01*
X391400Y418100D01*
X392500Y417600D01*
X393000Y417000D01*
X393500Y415900D01*
X393500Y414300D01*
X392500Y413200D01*
X390800Y412700D01*
X388600Y412700D01*
X387000Y413200D01*
X385900Y414300D01*
X397100Y424099D02*
G01*
X397100Y412700D01*
X397100Y424099D02*
G01*
X404200Y424099D01*
X397100Y418700D02*
G01*
X401500Y418700D01*
X397100Y412700D02*
G01*
X404200Y412700D01*
X566900Y60000D02*
G01*
X578300Y60000D01*
X566900Y60000D02*
G01*
X566900Y64900D01*
X567400Y66500D01*
X568000Y67100D01*
X569100Y67600D01*
X570200Y67600D01*
X571300Y67100D01*
X571800Y66500D01*
X572300Y64900D01*
X572300Y60000D02*
G01*
X572300Y64900D01*
X572900Y66500D01*
X573400Y67100D01*
X574500Y67600D01*
X576200Y67600D01*
X577300Y67100D01*
X577800Y66500D01*
X578300Y64900D01*
X578300Y60000D01*
X570700Y74000D02*
G01*
X571300Y72900D01*
X572300Y71800D01*
X574000Y71200D01*
X575100Y71200D01*
X576700Y71800D01*
X577800Y72900D01*
X578300Y74000D01*
X578300Y75600D01*
X577800Y76700D01*
X576700Y77800D01*
X575100Y78300D01*
X574000Y78300D01*
X572300Y77800D01*
X571300Y76700D01*
X570700Y75600D01*
X570700Y74000D01*
X570700Y88500D02*
G01*
X578300Y88500D01*
X572300Y88500D02*
G01*
X571300Y87400D01*
X570700Y86300D01*
X570700Y84700D01*
X571300Y83600D01*
X572300Y82500D01*
X574000Y81900D01*
X575100Y81900D01*
X576700Y82500D01*
X577800Y83600D01*
X578300Y84700D01*
X578300Y86300D01*
X577800Y87400D01*
X576700Y88500D01*
X570700Y92100D02*
G01*
X578300Y92100D01*
X574000Y92100D02*
G01*
X572300Y92600D01*
X571300Y93699D01*
X570700Y94800D01*
X570700Y96400D01*
X566900Y106600D02*
G01*
X578300Y106600D01*
X572300Y106600D02*
G01*
X571300Y105500D01*
X570700Y104400D01*
X570700Y102800D01*
X571300Y101700D01*
X572300Y100600D01*
X574000Y100000D01*
X575100Y100000D01*
X576700Y100600D01*
X577800Y101700D01*
X578300Y102800D01*
X578300Y104400D01*
X577800Y105500D01*
X576700Y106600D01*
X566900Y118600D02*
G01*
X578300Y118600D01*
X566900Y118600D02*
G01*
X566900Y123500D01*
X567400Y125100D01*
X568000Y125700D01*
X569100Y126199D01*
X570200Y126199D01*
X571300Y125700D01*
X571800Y125100D01*
X572300Y123500D01*
X572300Y118600D01*
X572300Y122400D02*
G01*
X578300Y126199D01*
X574000Y129800D02*
G01*
X574000Y136400D01*
X572900Y136400D01*
X571800Y135800D01*
X571300Y135300D01*
X570700Y134200D01*
X570700Y132500D01*
X571300Y131500D01*
X572300Y130399D01*
X574000Y129800D01*
X575100Y129800D01*
X576700Y130399D01*
X577800Y131500D01*
X578300Y132500D01*
X578300Y134200D01*
X577800Y135300D01*
X576700Y136400D01*
X570700Y140000D02*
G01*
X578300Y143200D01*
X570700Y146500D02*
G01*
X578300Y143200D01*
X569100Y158500D02*
G01*
X568500Y159600D01*
X566900Y161200D01*
X578300Y161200D01*
D11*
X560900Y172200D02*
G01*
X573200Y172200D01*
X575400Y172900D01*
X576100Y174400D01*
X576100Y175799D01*
X565900Y170000D02*
G01*
X565900Y175100D01*
X560900Y180600D02*
G01*
X561600Y181300D01*
X560900Y182100D01*
X560100Y181300D01*
X560900Y180600D01*
X565900Y181300D02*
G01*
X576100Y181300D01*
X565900Y186900D02*
G01*
X576100Y186900D01*
X568900Y186900D02*
G01*
X566700Y189100D01*
X565900Y190500D01*
X565900Y192700D01*
X566700Y194100D01*
X568900Y194899D01*
X576100Y194899D01*
X568900Y194899D02*
G01*
X566700Y197100D01*
X565900Y198500D01*
X565900Y200700D01*
X566700Y202100D01*
X568900Y202900D01*
X576100Y202900D01*
X565900Y211300D02*
G01*
X566700Y209899D01*
X568100Y208400D01*
X570300Y207700D01*
X571800Y207700D01*
X573900Y208400D01*
X575400Y209899D01*
X576100Y211300D01*
X576100Y213500D01*
X575400Y214899D01*
X573900Y216400D01*
X571800Y217100D01*
X570300Y217100D01*
X568100Y216400D01*
X566700Y214899D01*
X565900Y213500D01*
X565900Y211300D01*
X560900Y224100D02*
G01*
X573200Y224100D01*
X575400Y224800D01*
X576100Y226300D01*
X576100Y227700D01*
X565900Y221900D02*
G01*
X565900Y227000D01*
X560900Y232500D02*
G01*
X576100Y232500D01*
X568900Y232500D02*
G01*
X566700Y234700D01*
X565900Y236200D01*
X565900Y238400D01*
X566700Y239800D01*
X568900Y240500D01*
X576100Y240500D01*
X565900Y246100D02*
G01*
X576100Y250400D01*
X565900Y254800D02*
G01*
X576100Y250400D01*
X579000Y249000D01*
X580500Y247500D01*
X581200Y246100D01*
X581200Y245300D01*
X565900Y268300D02*
G01*
X577600Y268300D01*
X579800Y267600D01*
X580500Y266900D01*
X581200Y265400D01*
X581200Y263200D01*
X580500Y261800D01*
X568100Y268300D02*
G01*
X566700Y266900D01*
X565900Y265400D01*
X565900Y263200D01*
X566700Y261800D01*
X568100Y260300D01*
X570300Y259600D01*
X571800Y259600D01*
X573900Y260300D01*
X575400Y261800D01*
X576100Y263200D01*
X576100Y265400D01*
X575400Y266900D01*
X573900Y268300D01*
X565900Y281900D02*
G01*
X576100Y281900D01*
X568100Y281900D02*
G01*
X566700Y280400D01*
X565900Y278900D01*
X565900Y276800D01*
X566700Y275300D01*
X568100Y273900D01*
X570300Y273100D01*
X571800Y273100D01*
X573900Y273900D01*
X575400Y275300D01*
X576100Y276800D01*
X576100Y278900D01*
X575400Y280400D01*
X573900Y281900D01*
X565900Y286700D02*
G01*
X576100Y286700D01*
X570300Y286700D02*
G01*
X568100Y287400D01*
X566700Y288800D01*
X565900Y290300D01*
X565900Y292500D01*
X568100Y306000D02*
G01*
X566700Y304500D01*
X565900Y303100D01*
X565900Y300900D01*
X566700Y299500D01*
X568100Y298000D01*
X570300Y297300D01*
X571800Y297300D01*
X573900Y298000D01*
X575400Y299500D01*
X576100Y300900D01*
X576100Y303100D01*
X575400Y304500D01*
X573900Y306000D01*
X560900Y310800D02*
G01*
X561600Y311500D01*
X560900Y312300D01*
X560100Y311500D01*
X560900Y310800D01*
X565900Y311500D02*
G01*
X576100Y311500D01*
X565900Y325800D02*
G01*
X576100Y325800D01*
X568100Y325800D02*
G01*
X566700Y324300D01*
X565900Y322900D01*
X565900Y320700D01*
X566700Y319200D01*
X568100Y317800D01*
X570300Y317100D01*
X571800Y317100D01*
X573900Y317800D01*
X575400Y319200D01*
X576100Y320700D01*
X576100Y322900D01*
X575400Y324300D01*
X573900Y325800D01*
X572500Y331300D02*
G01*
X573200Y330600D01*
X573900Y331300D01*
X573200Y332000D01*
X572500Y331300D01*
X568100Y345600D02*
G01*
X566700Y344099D01*
X565900Y342700D01*
X565900Y340500D01*
X566700Y339000D01*
X568100Y337600D01*
X570300Y336800D01*
X571800Y336800D01*
X573900Y337600D01*
X575400Y339000D01*
X576100Y340500D01*
X576100Y342700D01*
X575400Y344099D01*
X573900Y345600D01*
X565900Y359099D02*
G01*
X576100Y359099D01*
X568100Y359099D02*
G01*
X566700Y357600D01*
X565900Y356200D01*
X565900Y354000D01*
X566700Y352500D01*
X568100Y351100D01*
X570300Y350400D01*
X571800Y350400D01*
X573900Y351100D01*
X575400Y352500D01*
X576100Y354000D01*
X576100Y356200D01*
X575400Y357600D01*
X573900Y359099D01*
D12*
X533100Y35000D02*
G01*
X532100Y37200D01*
X528800Y40500D01*
X551700Y40500D01*
X528800Y54200D02*
G01*
X529900Y50900D01*
X533100Y48700D01*
X538600Y47699D01*
X541900Y47699D01*
X547300Y48700D01*
X550600Y50900D01*
X551700Y54200D01*
X551700Y56400D01*
X550600Y59700D01*
X547300Y61800D01*
X541900Y62900D01*
X538600Y62900D01*
X533100Y61800D01*
X529900Y59700D01*
X528800Y56400D01*
X528800Y54200D01*
X546200Y71200D02*
G01*
X547300Y70100D01*
X548400Y71200D01*
X547300Y72300D01*
X546200Y71200D01*
X528800Y85000D02*
G01*
X529900Y81700D01*
X532100Y80600D01*
X534200Y80600D01*
X536400Y81700D01*
X537500Y83900D01*
X538600Y88200D01*
X539700Y91500D01*
X541900Y93699D01*
X544100Y94800D01*
X547300Y94800D01*
X549500Y93699D01*
X550600Y92600D01*
X551700Y89300D01*
X551700Y85000D01*
X550600Y81700D01*
X549500Y80600D01*
X547300Y79500D01*
X544100Y79500D01*
X541900Y80600D01*
X539700Y82800D01*
X538600Y86100D01*
X537500Y90399D01*
X536400Y92600D01*
X534200Y93699D01*
X532100Y93699D01*
X529900Y92600D01*
X528800Y89300D01*
X528800Y85000D01*
X546200Y103100D02*
G01*
X547300Y102000D01*
X548400Y103100D01*
X547300Y104200D01*
X546200Y103100D01*
X533100Y111400D02*
G01*
X532100Y113500D01*
X528800Y116800D01*
X551700Y116800D01*
X528800Y129500D02*
G01*
X529900Y126199D01*
X532100Y125100D01*
X534200Y125100D01*
X536400Y126199D01*
X537500Y128400D01*
X538600Y132700D01*
X539700Y136000D01*
X541900Y138200D01*
X544100Y139300D01*
X547300Y139300D01*
X549500Y138200D01*
X550600Y137100D01*
X551700Y133800D01*
X551700Y129500D01*
X550600Y126199D01*
X549500Y125100D01*
X547300Y124000D01*
X544100Y124000D01*
X541900Y125100D01*
X539700Y127300D01*
X538600Y130600D01*
X537500Y134900D01*
X536400Y137100D01*
X534200Y138200D01*
X532100Y138200D01*
X529900Y137100D01*
X528800Y133800D01*
X528800Y129500D01*
D13*
X204200Y366400D02*
G01*
X202100Y365300D01*
X199899Y363100D01*
X198800Y360900D01*
X198800Y356500D01*
X199899Y354400D01*
X202100Y352200D01*
X204200Y351100D01*
X207500Y350000D01*
X213000Y350000D01*
X216200Y351100D01*
X218400Y352200D01*
X220600Y354400D01*
X221700Y356500D01*
X221700Y360900D01*
X220600Y363100D01*
X218400Y365300D01*
X216200Y366400D01*
X213000Y366400D01*
X213000Y360900D02*
G01*
X213000Y366400D01*
X198800Y295000D02*
G01*
X221700Y303700D01*
X198800Y312500D02*
G01*
X221700Y303700D01*
X202100Y335300D02*
G01*
X199899Y333100D01*
X198800Y329799D01*
X198800Y325500D01*
X199899Y322200D01*
X202100Y320000D01*
X204200Y320000D01*
X206400Y321100D01*
X207500Y322200D01*
X208600Y324400D01*
X210799Y330900D01*
X211900Y333100D01*
X213000Y334200D01*
X215100Y335300D01*
X218400Y335300D01*
X220600Y333100D01*
X221700Y329799D01*
X221700Y325500D01*
X220600Y322200D01*
X218400Y320000D01*
D14*
X173900Y217130D02*
G01*
X173900Y232870D01*
X105000Y277160D02*
G01*
X36100Y277160D01*
X36100Y172830D01*
X103030Y172830D01*
D15*
X330000Y375000D02*
G01*
X330000Y275000D01*
X320000Y385000D02*
G01*
X260000Y385000D01*
X320000Y265000D02*
G01*
X260000Y265000D01*
X250000Y275000D02*
G01*
X250000Y375000D01*
D16*
G75*
G01*
X158150Y289470D02*
G03*
X157970Y289470I-90J3939D01*
D15*
G75*
G01*
X250000Y375000D02*
G02*
X260000Y385000I10000J0D01*
G75*
G01*
X260000Y265000D02*
G02*
X250000Y275000I0J10000D01*
G75*
G01*
X320000Y265000D02*
G03*
X330000Y275000I0J10000D01*
G75*
G01*
X330000Y375000D02*
G03*
X320000Y385000I-10000J0D01*
M02*
