G04 Layer: BottomSilkscreenLayer*
G04 EasyEDA v6.5.22, 2023-02-08 15:23:14*
G04 b47096d6ad144cf6bac1a3a9f6be5821,c949cfa9a39643c6839ff0c3538172d0,10*
G04 Gerber Generator version 0.2*
G04 Scale: 100 percent, Rotated: No, Reflected: No *
G04 Dimensions in inches *
G04 leading zeros omitted , absolute positions ,3 integer and 6 decimal *
%FSLAX36Y36*%
%MOIN*%

%ADD10C,0.0077*%
%ADD11C,0.0038*%
%ADD12C,0.0060*%
%ADD13C,0.0030*%
%ADD14C,0.0080*%
%ADD15C,0.0102*%

%LPD*%
G36*
X448200Y388100D02*
G01*
X448000Y388000D01*
X448100Y386500D01*
X448100Y382600D01*
X446100Y384700D01*
X447000Y384799D01*
X447000Y385200D01*
X444500Y385200D01*
X444500Y384799D01*
X445500Y384700D01*
X446700Y383400D01*
X444900Y380400D01*
X444200Y380300D01*
X444200Y380000D01*
X445700Y380000D01*
X447400Y382800D01*
X448100Y382000D01*
X448100Y380500D01*
X447200Y380300D01*
X447200Y380000D01*
X449900Y380000D01*
X449900Y380300D01*
X449000Y380500D01*
X449000Y387200D01*
X449900Y387299D01*
X449900Y387600D01*
G37*
G36*
X342700Y388100D02*
G01*
X342500Y388000D01*
X342600Y386500D01*
X342600Y380500D01*
X341700Y380300D01*
X341700Y380000D01*
X344400Y380000D01*
X344400Y380300D01*
X343500Y380500D01*
X343500Y387200D01*
X344400Y387299D01*
X344400Y387600D01*
G37*
G36*
X189899Y388100D02*
G01*
X189700Y388000D01*
X189800Y386500D01*
X189800Y382600D01*
X187800Y384700D01*
X188700Y384799D01*
X188700Y385200D01*
X186100Y385200D01*
X186100Y384799D01*
X187200Y384700D01*
X188400Y383400D01*
X186600Y380400D01*
X185900Y380300D01*
X185900Y380000D01*
X187399Y380000D01*
X189100Y382800D01*
X189800Y382000D01*
X189800Y380500D01*
X188900Y380300D01*
X188900Y380000D01*
X191600Y380000D01*
X191600Y380300D01*
X190700Y380500D01*
X190700Y387200D01*
X191600Y387299D01*
X191600Y387600D01*
G37*
G36*
X152400Y388100D02*
G01*
X152300Y388000D01*
X152300Y380500D01*
X151400Y380300D01*
X151400Y380000D01*
X154100Y380000D01*
X154100Y380300D01*
X153200Y380500D01*
X153200Y387200D01*
X154100Y387299D01*
X154100Y387600D01*
G37*
G36*
X108600Y388100D02*
G01*
X108500Y388000D01*
X108500Y381000D01*
X109400Y381000D01*
X109400Y384200D01*
X110079Y384680D01*
X110700Y384799D01*
X111280Y384660D01*
X111760Y384260D01*
X112080Y383579D01*
X112200Y382600D01*
X112100Y381620D01*
X111780Y380940D01*
X111320Y380540D01*
X110700Y380400D01*
X110040Y380560D01*
X109400Y381000D01*
X108500Y381000D01*
X108500Y380400D01*
X107600Y380300D01*
X107600Y380000D01*
X109300Y379900D01*
X109400Y380600D01*
X110079Y380100D01*
X110900Y379900D01*
X111860Y380080D01*
X112579Y380620D01*
X113040Y381460D01*
X113200Y382600D01*
X113020Y383700D01*
X112540Y384560D01*
X111800Y385100D01*
X110900Y385300D01*
X110120Y385180D01*
X109760Y384960D01*
X109400Y384600D01*
X109400Y387200D01*
X110300Y387299D01*
X110300Y387600D01*
G37*
G36*
X61900Y388100D02*
G01*
X61800Y388000D01*
X61800Y382600D01*
X59900Y384700D01*
X60700Y384799D01*
X60700Y385200D01*
X58200Y385200D01*
X58200Y384799D01*
X59200Y384700D01*
X60500Y383400D01*
X58600Y380400D01*
X57900Y380300D01*
X57900Y380000D01*
X59400Y380000D01*
X61100Y382800D01*
X61800Y382000D01*
X61800Y380500D01*
X61000Y380300D01*
X61000Y380000D01*
X63600Y380000D01*
X63600Y380300D01*
X62800Y380500D01*
X62720Y381400D01*
X62699Y387200D01*
X63600Y387299D01*
X63600Y387600D01*
G37*
G36*
X482100Y387900D02*
G01*
X481599Y387760D01*
X481400Y387299D01*
X481599Y386800D01*
X482100Y386599D01*
X482600Y386800D01*
X482800Y387299D01*
X482600Y387760D01*
G37*
G36*
X427800Y387800D02*
G01*
X424900Y378300D01*
X425500Y378300D01*
X428400Y387800D01*
G37*
G36*
X352800Y387800D02*
G01*
X355800Y378300D01*
X356400Y378300D01*
X353400Y387800D01*
G37*
G36*
X288600Y387800D02*
G01*
X285600Y378300D01*
X286200Y378300D01*
X289100Y387800D01*
G37*
G36*
X171600Y387800D02*
G01*
X168700Y378300D01*
X169300Y378300D01*
X172200Y387800D01*
G37*
G36*
X383200Y387500D02*
G01*
X382460Y387380D01*
X381880Y387020D01*
X381520Y386480D01*
X381400Y385800D01*
X382100Y385800D01*
X382180Y386280D01*
X382400Y386659D01*
X382780Y386920D01*
X383300Y387000D01*
X383740Y386920D01*
X384120Y386719D01*
X384400Y386360D01*
X384500Y385900D01*
X384440Y385400D01*
X384200Y384960D01*
X383740Y384540D01*
X383000Y384099D01*
X382600Y384480D01*
X382320Y384880D01*
X382160Y385300D01*
X382100Y385800D01*
X381400Y385800D01*
X381460Y385340D01*
X381680Y384860D01*
X382080Y384360D01*
X382700Y383900D01*
X381920Y383500D01*
X381400Y383040D01*
X381100Y382480D01*
X381000Y381800D01*
X381045Y381599D01*
X381900Y381599D01*
X381980Y382100D01*
X382260Y382540D01*
X382780Y382960D01*
X383600Y383400D01*
X384060Y383080D01*
X384360Y382720D01*
X384540Y382280D01*
X384600Y381800D01*
X384500Y381180D01*
X384240Y380720D01*
X383800Y380400D01*
X383200Y380300D01*
X382660Y380400D01*
X382260Y380660D01*
X382000Y381060D01*
X381900Y381599D01*
X381045Y381599D01*
X381180Y381000D01*
X381659Y380400D01*
X382400Y380020D01*
X383300Y379900D01*
X384200Y380020D01*
X384880Y380360D01*
X385340Y380920D01*
X385500Y381700D01*
X385400Y382260D01*
X385120Y382760D01*
X384620Y383200D01*
X383900Y383600D01*
X384540Y384020D01*
X384980Y384500D01*
X385220Y385060D01*
X385300Y385700D01*
X385140Y386440D01*
X384700Y387020D01*
X384040Y387380D01*
G37*
G36*
X347200Y387500D02*
G01*
X346220Y387360D01*
X345400Y386900D01*
X345500Y385500D01*
X346000Y385500D01*
X346300Y386800D01*
X346760Y386980D01*
X347819Y386920D01*
X348280Y386680D01*
X348600Y386280D01*
X348700Y385700D01*
X348620Y385220D01*
X348400Y384860D01*
X348020Y384540D01*
X346160Y383700D01*
X345540Y383220D01*
X345200Y382640D01*
X345100Y381900D01*
X345280Y381019D01*
X345780Y380360D01*
X346580Y379940D01*
X347600Y379799D01*
X348860Y379980D01*
X349799Y380400D01*
X349700Y382000D01*
X349099Y382000D01*
X348900Y380600D01*
X348340Y380379D01*
X347700Y380300D01*
X346980Y380400D01*
X346440Y380660D01*
X346120Y381100D01*
X346000Y381700D01*
X346079Y382160D01*
X346320Y382520D01*
X346719Y382819D01*
X348500Y383700D01*
X349099Y384180D01*
X349480Y384760D01*
X349600Y385500D01*
X349420Y386360D01*
X348920Y386980D01*
X348160Y387380D01*
G37*
G36*
X307400Y387500D02*
G01*
X306500Y387360D01*
X305880Y386960D01*
X305520Y386320D01*
X305400Y385500D01*
X305500Y384840D01*
X305860Y384159D01*
X306540Y383300D01*
X308800Y380900D01*
X305000Y380900D01*
X305000Y380000D01*
X309500Y380000D01*
X309500Y380700D01*
X306680Y384159D01*
X306400Y384840D01*
X306300Y385500D01*
X306400Y386120D01*
X306660Y386580D01*
X307100Y386900D01*
X308200Y387000D01*
X308720Y385660D01*
X309100Y385500D01*
X309380Y385580D01*
X309600Y385800D01*
X309320Y386520D01*
X308840Y387060D01*
X308180Y387380D01*
G37*
G36*
X244899Y387500D02*
G01*
X244040Y387299D01*
X243299Y386659D01*
X242800Y385480D01*
X242600Y383700D01*
X243600Y383700D01*
X243700Y385319D01*
X243980Y386320D01*
X244400Y386860D01*
X244899Y387000D01*
X245400Y386860D01*
X245820Y386320D01*
X246100Y385319D01*
X246200Y383700D01*
X246100Y382020D01*
X245820Y380980D01*
X245400Y380460D01*
X244899Y380300D01*
X244400Y380460D01*
X243980Y380980D01*
X243700Y382020D01*
X243600Y383700D01*
X242600Y383700D01*
X242800Y381920D01*
X243299Y380760D01*
X244040Y380100D01*
X244899Y379900D01*
X245720Y380100D01*
X246460Y380760D01*
X247000Y381920D01*
X247200Y383700D01*
X247000Y385480D01*
X246460Y386659D01*
X245720Y387299D01*
G37*
G36*
X202700Y387500D02*
G01*
X201800Y387360D01*
X201180Y386960D01*
X200820Y386320D01*
X200700Y385500D01*
X200799Y384840D01*
X201160Y384159D01*
X201840Y383300D01*
X204200Y380900D01*
X200400Y380900D01*
X200400Y380000D01*
X204899Y380000D01*
X204899Y380700D01*
X203200Y382600D01*
X201980Y384159D01*
X201700Y384840D01*
X201600Y385500D01*
X201700Y386120D01*
X202000Y386580D01*
X202440Y386900D01*
X203000Y387000D01*
X203600Y387000D01*
X204020Y385660D01*
X204400Y385500D01*
X204680Y385580D01*
X204899Y385800D01*
X204660Y386520D01*
X204180Y387060D01*
X203500Y387380D01*
G37*
G36*
X197200Y387500D02*
G01*
X196340Y387299D01*
X195600Y386659D01*
X195100Y385480D01*
X194899Y383700D01*
X195900Y383700D01*
X196000Y385319D01*
X196280Y386320D01*
X196700Y386860D01*
X197200Y387000D01*
X197700Y386860D01*
X198120Y386320D01*
X198400Y385319D01*
X198500Y383700D01*
X198400Y382020D01*
X198120Y380980D01*
X197700Y380460D01*
X197200Y380300D01*
X196700Y380460D01*
X196280Y380980D01*
X196000Y382020D01*
X195900Y383700D01*
X194899Y383700D01*
X195100Y381920D01*
X195600Y380760D01*
X196340Y380100D01*
X197200Y379900D01*
X198020Y380100D01*
X198760Y380760D01*
X199300Y381920D01*
X199500Y383700D01*
X199300Y385480D01*
X198760Y386659D01*
X198020Y387299D01*
G37*
G36*
X69200Y387500D02*
G01*
X68380Y387299D01*
X67640Y386659D01*
X67100Y385480D01*
X66900Y383700D01*
X67900Y383700D01*
X68000Y385319D01*
X68280Y386320D01*
X68700Y386860D01*
X69200Y387000D01*
X69720Y386860D01*
X70160Y386320D01*
X70480Y385319D01*
X70600Y383700D01*
X70480Y382020D01*
X70160Y380980D01*
X69720Y380460D01*
X69200Y380300D01*
X68700Y380460D01*
X68280Y380980D01*
X68000Y382020D01*
X67900Y383700D01*
X66900Y383700D01*
X67100Y381920D01*
X67640Y380760D01*
X68380Y380100D01*
X69200Y379900D01*
X70060Y380100D01*
X70800Y380760D01*
X71300Y381920D01*
X71500Y383700D01*
X71300Y385480D01*
X70800Y386659D01*
X70060Y387299D01*
G37*
G36*
X388300Y387400D02*
G01*
X388200Y387299D01*
X388200Y380600D01*
X386599Y380300D01*
X386599Y380000D01*
X390700Y380000D01*
X390700Y380300D01*
X389099Y380600D01*
X389099Y386599D01*
X390600Y386500D01*
X390600Y386900D01*
G37*
G36*
X362299Y387400D02*
G01*
X360734Y382900D01*
X361700Y382900D01*
X362900Y386300D01*
X364000Y382900D01*
X360734Y382900D01*
X359900Y380500D01*
X359099Y380400D01*
X359099Y380000D01*
X362000Y380000D01*
X362000Y380400D01*
X361000Y380500D01*
X361599Y382400D01*
X364099Y382400D01*
X364799Y380500D01*
X363700Y380400D01*
X363700Y380000D01*
X366100Y380000D01*
X366100Y380400D01*
X365200Y380500D01*
X362900Y387400D01*
G37*
G36*
X312400Y387400D02*
G01*
X312200Y387299D01*
X312300Y385800D01*
X312300Y380600D01*
X310700Y380300D01*
X310700Y380000D01*
X314800Y380000D01*
X314800Y380300D01*
X313200Y380600D01*
X313200Y386599D01*
X314600Y386500D01*
X314600Y386900D01*
G37*
G36*
X291800Y387400D02*
G01*
X290300Y382900D01*
X291300Y382900D01*
X292400Y386300D01*
X293600Y382900D01*
X290300Y382900D01*
X289500Y380500D01*
X288600Y380400D01*
X288600Y380000D01*
X291600Y380000D01*
X291600Y380400D01*
X290500Y380500D01*
X291200Y382400D01*
X293700Y382400D01*
X294300Y380500D01*
X293300Y380400D01*
X293300Y380000D01*
X295700Y380000D01*
X295700Y380400D01*
X294800Y380500D01*
X292500Y387400D01*
G37*
G36*
X73300Y387400D02*
G01*
X73300Y386400D01*
X74200Y386400D01*
X76600Y382900D01*
X74200Y382900D01*
X74200Y386400D01*
X73300Y386400D01*
X73300Y382900D01*
X72200Y382900D01*
X72200Y382299D01*
X73300Y382299D01*
X73300Y380000D01*
X74200Y380000D01*
X74200Y382299D01*
X77200Y382299D01*
X77200Y382800D01*
X73900Y387400D01*
G37*
G36*
X516599Y387299D02*
G01*
X515360Y387160D01*
X514480Y386740D01*
X513980Y386079D01*
X513800Y385200D01*
X514799Y385200D01*
X514920Y385920D01*
X515260Y386460D01*
X515860Y386780D01*
X516700Y386900D01*
X517400Y386900D01*
X517500Y383400D01*
X516800Y383400D01*
X515900Y383519D01*
X515280Y383880D01*
X514920Y384460D01*
X514799Y385200D01*
X513800Y385200D01*
X513980Y384300D01*
X514520Y383560D01*
X515480Y383080D01*
X516900Y382900D01*
X517500Y382900D01*
X517400Y380500D01*
X516400Y380400D01*
X516400Y380000D01*
X519500Y380000D01*
X519500Y380400D01*
X518500Y380500D01*
X518500Y386800D01*
X519500Y387000D01*
X519500Y387299D01*
G37*
G36*
X510000Y387299D02*
G01*
X508500Y387060D01*
X507380Y386360D01*
X506659Y385240D01*
X506400Y383700D01*
X507500Y383700D01*
X507680Y385080D01*
X508200Y386079D01*
X509020Y386700D01*
X510100Y386900D01*
X511100Y386900D01*
X511100Y380400D01*
X510200Y380400D01*
X509060Y380620D01*
X508220Y381260D01*
X507680Y382299D01*
X507500Y383700D01*
X506400Y383700D01*
X506680Y382100D01*
X507480Y380959D01*
X508680Y380240D01*
X510200Y380000D01*
X513200Y380000D01*
X513200Y380400D01*
X512100Y380500D01*
X512100Y386800D01*
X513200Y387000D01*
X513200Y387299D01*
G37*
G36*
X496700Y387299D02*
G01*
X496700Y387000D01*
X497700Y386800D01*
X497800Y382660D01*
X497700Y380500D01*
X496700Y380400D01*
X496700Y380000D01*
X499700Y380000D01*
X499700Y380400D01*
X498800Y380500D01*
X498720Y381920D01*
X498700Y386300D01*
X501200Y380000D01*
X501700Y380000D01*
X504200Y386300D01*
X504200Y380500D01*
X503200Y380400D01*
X503200Y380000D01*
X505700Y380000D01*
X505700Y380400D01*
X504700Y380500D01*
X504700Y386800D01*
X505700Y387000D01*
X505700Y387299D01*
X503700Y387299D01*
X501200Y381300D01*
X498800Y387299D01*
G37*
G36*
X484300Y387299D02*
G01*
X484300Y387000D01*
X485300Y386800D01*
X485300Y380500D01*
X484300Y380400D01*
X484300Y380000D01*
X487299Y380000D01*
X487299Y380400D01*
X486300Y380500D01*
X486300Y386300D01*
X488800Y380000D01*
X489200Y380000D01*
X491800Y386300D01*
X491700Y384000D01*
X491700Y380500D01*
X490800Y380400D01*
X490800Y380000D01*
X493200Y380000D01*
X493200Y380400D01*
X492299Y380500D01*
X492200Y386800D01*
X493200Y387000D01*
X493200Y387299D01*
X491200Y387299D01*
X488800Y381300D01*
X486400Y387299D01*
G37*
G36*
X469000Y387299D02*
G01*
X467960Y387180D01*
X467200Y386820D01*
X466760Y386240D01*
X466599Y385500D01*
X467600Y385500D01*
X467700Y386140D01*
X468000Y386580D01*
X468519Y386820D01*
X470000Y386900D01*
X470100Y384000D01*
X468660Y384099D01*
X468060Y384380D01*
X467720Y384840D01*
X467600Y385500D01*
X466599Y385500D01*
X466700Y384980D01*
X467000Y384500D01*
X467520Y384099D01*
X468300Y383800D01*
X467340Y383560D01*
X466680Y383160D01*
X466320Y382640D01*
X466200Y382000D01*
X467299Y382000D01*
X467420Y382680D01*
X467780Y383180D01*
X468440Y383500D01*
X470100Y383600D01*
X470000Y380400D01*
X468440Y380500D01*
X467819Y380820D01*
X467420Y381320D01*
X467299Y382000D01*
X466200Y382000D01*
X466360Y381260D01*
X466860Y380620D01*
X467760Y380180D01*
X469099Y380000D01*
X472100Y380000D01*
X472100Y380400D01*
X471100Y380500D01*
X471100Y386800D01*
X472100Y387000D01*
X472100Y387299D01*
G37*
G36*
X414600Y387299D02*
G01*
X414600Y387000D01*
X415600Y386800D01*
X415700Y382560D01*
X415600Y380500D01*
X413100Y380500D01*
X412800Y382100D01*
X412200Y382100D01*
X412299Y380000D01*
X417700Y380000D01*
X417700Y380400D01*
X416700Y380500D01*
X416700Y386800D01*
X417700Y387000D01*
X417700Y387299D01*
G37*
G36*
X375700Y387299D02*
G01*
X375700Y386500D01*
X378900Y386500D01*
X379000Y384400D01*
X377900Y384600D01*
X376940Y384440D01*
X376180Y383980D01*
X375680Y383240D01*
X375500Y382299D01*
X375680Y381300D01*
X376200Y380540D01*
X377020Y380060D01*
X378100Y379900D01*
X378840Y380000D01*
X379440Y380280D01*
X379860Y380740D01*
X380100Y381400D01*
X379880Y381620D01*
X379600Y381700D01*
X379219Y381580D01*
X378800Y380400D01*
X378100Y380300D01*
X377380Y380420D01*
X376880Y380800D01*
X376599Y381400D01*
X376500Y382200D01*
X376620Y382939D01*
X376940Y383519D01*
X377480Y383880D01*
X378440Y383980D01*
X379200Y383800D01*
X379500Y383900D01*
X379300Y387299D01*
G37*
G36*
X273000Y387299D02*
G01*
X273000Y385400D01*
X273500Y385400D01*
X273800Y386900D01*
X276400Y386900D01*
X276400Y384000D01*
X274800Y384000D01*
X274600Y385000D01*
X274100Y385000D01*
X274100Y382400D01*
X274600Y382400D01*
X274700Y383500D01*
X276400Y383500D01*
X276400Y380500D01*
X273600Y380500D01*
X273300Y382000D01*
X272700Y382000D01*
X272800Y380000D01*
X278400Y380000D01*
X278400Y380400D01*
X277400Y380500D01*
X277400Y386800D01*
X278400Y387000D01*
X278400Y387299D01*
G37*
G36*
X266400Y387299D02*
G01*
X266300Y385400D01*
X266900Y385400D01*
X267200Y386900D01*
X269800Y386900D01*
X269800Y384000D01*
X268100Y384000D01*
X267900Y385000D01*
X267500Y385000D01*
X267500Y382400D01*
X267900Y382400D01*
X268100Y383500D01*
X269800Y383500D01*
X269800Y380500D01*
X268700Y380400D01*
X268700Y380000D01*
X271800Y380000D01*
X271800Y380400D01*
X270800Y380500D01*
X270800Y386800D01*
X271800Y387000D01*
X271800Y387299D01*
G37*
G36*
X262500Y387299D02*
G01*
X261420Y387180D01*
X260600Y386800D01*
X260080Y386200D01*
X259899Y385400D01*
X260900Y385400D01*
X261000Y386060D01*
X261300Y386520D01*
X261820Y386800D01*
X262600Y386900D01*
X263500Y386900D01*
X263600Y383800D01*
X262700Y383800D01*
X261920Y383920D01*
X261360Y384260D01*
X261020Y384780D01*
X260900Y385400D01*
X259899Y385400D01*
X260020Y384760D01*
X260360Y384240D01*
X260960Y383840D01*
X261800Y383600D01*
X261320Y383400D01*
X260960Y383120D01*
X260680Y382720D01*
X260000Y380500D01*
X259100Y380400D01*
X259100Y380000D01*
X259899Y379900D01*
X260360Y379940D01*
X260680Y380060D01*
X260880Y380280D01*
X261700Y382860D01*
X261980Y383180D01*
X262420Y383360D01*
X263600Y383400D01*
X263500Y380500D01*
X262500Y380400D01*
X262500Y380000D01*
X265600Y380000D01*
X265600Y380400D01*
X264600Y380500D01*
X264600Y386800D01*
X265600Y387000D01*
X265600Y387299D01*
G37*
G36*
X248299Y387299D02*
G01*
X248299Y386500D01*
X251400Y386500D01*
X251600Y384400D01*
X250500Y384600D01*
X249540Y384440D01*
X248780Y383980D01*
X248280Y383240D01*
X248100Y382299D01*
X248280Y381300D01*
X248780Y380540D01*
X249579Y380060D01*
X250600Y379900D01*
X251400Y380000D01*
X252020Y380280D01*
X252460Y380740D01*
X252700Y381400D01*
X252480Y381620D01*
X252200Y381700D01*
X251780Y381580D01*
X251400Y380400D01*
X250700Y380300D01*
X249980Y380420D01*
X249440Y380800D01*
X249120Y381400D01*
X249000Y382200D01*
X249120Y382939D01*
X249480Y383519D01*
X250060Y383880D01*
X251040Y383980D01*
X251800Y383800D01*
X252100Y383900D01*
X251900Y387299D01*
G37*
G36*
X231400Y387299D02*
G01*
X231400Y387000D01*
X232399Y386800D01*
X232500Y382660D01*
X232399Y380500D01*
X231400Y380400D01*
X231400Y380000D01*
X234500Y380000D01*
X234500Y380400D01*
X233500Y380500D01*
X233500Y383500D01*
X237000Y383500D01*
X237000Y380500D01*
X236000Y380400D01*
X236000Y380000D01*
X239100Y380000D01*
X239100Y380400D01*
X238100Y380500D01*
X238000Y384640D01*
X238100Y386800D01*
X239100Y387000D01*
X239100Y387299D01*
X236000Y387299D01*
X236000Y387000D01*
X237000Y386800D01*
X237000Y384000D01*
X233500Y384000D01*
X233500Y386800D01*
X234500Y387000D01*
X234500Y387299D01*
G37*
G36*
X177700Y387299D02*
G01*
X177700Y387000D01*
X178700Y386800D01*
X178800Y382660D01*
X178700Y380500D01*
X177700Y380400D01*
X177700Y380000D01*
X180799Y380000D01*
X180799Y380400D01*
X179800Y380500D01*
X179800Y383500D01*
X183299Y383500D01*
X183299Y380500D01*
X182300Y380400D01*
X182300Y380000D01*
X185400Y380000D01*
X185400Y380400D01*
X184400Y380500D01*
X184300Y384640D01*
X184400Y386800D01*
X185400Y387000D01*
X185400Y387299D01*
X182300Y387299D01*
X182300Y387000D01*
X183299Y386800D01*
X183299Y384000D01*
X179800Y384000D01*
X179800Y386800D01*
X180799Y387000D01*
X180799Y387299D01*
G37*
G36*
X154800Y387299D02*
G01*
X154800Y387000D01*
X155700Y386800D01*
X155700Y383000D01*
X155900Y381520D01*
X156440Y380540D01*
X157260Y379980D01*
X158300Y379799D01*
X159400Y379980D01*
X160260Y380520D01*
X160799Y381440D01*
X161000Y382800D01*
X161000Y386900D01*
X161900Y387000D01*
X161900Y387299D01*
X158900Y387299D01*
X158900Y387000D01*
X160000Y386800D01*
X160000Y383000D01*
X159880Y381860D01*
X159500Y381079D01*
X158900Y380640D01*
X158100Y380500D01*
X157300Y380660D01*
X156700Y381140D01*
X156320Y381980D01*
X156200Y383200D01*
X156200Y386800D01*
X157400Y387000D01*
X157400Y387299D01*
G37*
G36*
X49800Y387299D02*
G01*
X49800Y387000D01*
X50800Y386800D01*
X50800Y380500D01*
X49800Y380400D01*
X49800Y380000D01*
X52800Y380000D01*
X52800Y380400D01*
X51800Y380500D01*
X51800Y383500D01*
X55400Y383500D01*
X55400Y380500D01*
X54400Y380400D01*
X54400Y380000D01*
X57400Y380000D01*
X57400Y380400D01*
X56400Y380500D01*
X56400Y386800D01*
X57400Y387000D01*
X57400Y387299D01*
X54400Y387299D01*
X54400Y387000D01*
X55400Y386800D01*
X55400Y384000D01*
X51800Y384000D01*
X51800Y386800D01*
X52800Y387000D01*
X52800Y387299D01*
G37*
G36*
X430000Y386700D02*
G01*
X430100Y385200D01*
X428600Y385200D01*
X428600Y384700D01*
X430100Y384700D01*
X430100Y381200D01*
X429920Y380580D01*
X429500Y380400D01*
X429099Y380480D01*
X428700Y380700D01*
X428500Y380400D01*
X429040Y380040D01*
X429799Y379900D01*
X430280Y379980D01*
X430660Y380200D01*
X430920Y380580D01*
X431000Y381100D01*
X431000Y384700D01*
X431900Y384700D01*
X431900Y385100D01*
X430900Y385200D01*
X430600Y386700D01*
G37*
G36*
X221400Y386700D02*
G01*
X221400Y385200D01*
X220000Y385200D01*
X220000Y384700D01*
X221400Y384700D01*
X221360Y380820D01*
X221260Y380580D01*
X221060Y380439D01*
X220640Y380420D01*
X220100Y380700D01*
X219800Y380400D01*
X220380Y380040D01*
X221100Y379900D01*
X221640Y379980D01*
X222060Y380200D01*
X222300Y380580D01*
X222380Y381320D01*
X222320Y381740D01*
X222300Y384700D01*
X223299Y384700D01*
X223299Y385100D01*
X222300Y385200D01*
X222000Y386700D01*
G37*
G36*
X149100Y386700D02*
G01*
X149200Y385200D01*
X147700Y385200D01*
X147700Y384700D01*
X149200Y384700D01*
X149200Y381200D01*
X149140Y380820D01*
X149000Y380580D01*
X148780Y380439D01*
X148340Y380420D01*
X147800Y380700D01*
X147600Y380400D01*
X148120Y380040D01*
X148800Y379900D01*
X149340Y379980D01*
X149760Y380200D01*
X150000Y380580D01*
X150100Y381100D01*
X150100Y384700D01*
X151000Y384700D01*
X151000Y385100D01*
X150000Y385200D01*
X149700Y386700D01*
G37*
G36*
X87600Y386700D02*
G01*
X87700Y385200D01*
X86199Y385200D01*
X86199Y384700D01*
X87700Y384700D01*
X87700Y381200D01*
X87520Y380580D01*
X87100Y380400D01*
X86700Y380480D01*
X86300Y380700D01*
X86100Y380400D01*
X86640Y380040D01*
X87400Y379900D01*
X87880Y379980D01*
X88260Y380200D01*
X88520Y380580D01*
X88600Y381100D01*
X88600Y384700D01*
X89500Y384700D01*
X89500Y385100D01*
X88500Y385200D01*
X88200Y386700D01*
G37*
G36*
X210300Y386300D02*
G01*
X206000Y383800D01*
X206000Y383400D01*
X210300Y380900D01*
X210600Y381400D01*
X206700Y383600D01*
X210600Y385800D01*
G37*
G36*
X395700Y385400D02*
G01*
X395420Y385340D01*
X395200Y385180D01*
X395060Y384940D01*
X395000Y384600D01*
X395200Y384099D01*
X395700Y383900D01*
X396200Y384099D01*
X396400Y384600D01*
X396340Y384940D01*
X396200Y385180D01*
X395980Y385340D01*
G37*
G36*
X322299Y385400D02*
G01*
X322020Y385340D01*
X321800Y385180D01*
X321659Y384940D01*
X321599Y384600D01*
X321800Y384099D01*
X322299Y383900D01*
X322640Y383960D01*
X322879Y384099D01*
X323040Y384320D01*
X323100Y384600D01*
X323040Y384940D01*
X322879Y385180D01*
X322640Y385340D01*
G37*
G36*
X257300Y385400D02*
G01*
X257020Y385340D01*
X256800Y385180D01*
X256660Y384940D01*
X256600Y384600D01*
X256800Y384099D01*
X257300Y383900D01*
X257860Y384099D01*
X258039Y384320D01*
X258100Y384600D01*
X258039Y384940D01*
X257860Y385180D01*
X257600Y385340D01*
G37*
G36*
X481800Y385300D02*
G01*
X481599Y385200D01*
X481700Y383800D01*
X481599Y380500D01*
X480900Y380300D01*
X480900Y380000D01*
X483400Y380000D01*
X483400Y380300D01*
X482600Y380500D01*
X482500Y382299D01*
X482600Y384300D01*
X483500Y384400D01*
X483500Y384700D01*
G37*
G36*
X477500Y385300D02*
G01*
X476800Y385200D01*
X476220Y384940D01*
X475800Y384500D01*
X475600Y383900D01*
X475720Y383620D01*
X476000Y383500D01*
X476460Y383660D01*
X476800Y384799D01*
X477400Y384900D01*
X478080Y384760D01*
X478620Y384320D01*
X478980Y383640D01*
X479099Y382700D01*
X478960Y381760D01*
X478579Y381079D01*
X478000Y380640D01*
X477299Y380500D01*
X476860Y380560D01*
X476079Y380959D01*
X475800Y381300D01*
X475500Y381200D01*
X475860Y380620D01*
X476320Y380220D01*
X476900Y379980D01*
X477600Y379900D01*
X478600Y380080D01*
X479360Y380620D01*
X479840Y381460D01*
X480000Y382600D01*
X479799Y383740D01*
X479240Y384580D01*
X478440Y385120D01*
G37*
G36*
X462000Y385300D02*
G01*
X461480Y385220D01*
X461200Y384900D01*
X461360Y384400D01*
X461540Y384260D01*
X462000Y384219D01*
X462340Y384360D01*
X462600Y384600D01*
X463220Y384020D01*
X463600Y383200D01*
X463500Y380500D01*
X462600Y380300D01*
X462600Y380000D01*
X465300Y380000D01*
X465300Y380300D01*
X464500Y380500D01*
X464500Y384300D01*
X465400Y384400D01*
X465400Y384700D01*
X463800Y385300D01*
X463700Y385200D01*
X463600Y383900D01*
X463260Y384500D01*
X462879Y384940D01*
X462440Y385200D01*
G37*
G36*
X458200Y385300D02*
G01*
X457420Y385160D01*
X456780Y384739D01*
X456360Y384120D01*
X456278Y383700D01*
X457100Y383700D01*
X457180Y384140D01*
X457440Y384520D01*
X457819Y384799D01*
X458300Y384900D01*
X458820Y384799D01*
X459280Y384480D01*
X459620Y383920D01*
X459799Y383100D01*
X457700Y383000D01*
X457400Y383060D01*
X457220Y383200D01*
X457100Y383700D01*
X456278Y383700D01*
X456200Y383100D01*
X456300Y382600D01*
X459799Y382700D01*
X459660Y381719D01*
X459280Y381040D01*
X458700Y380640D01*
X458000Y380500D01*
X457520Y380560D01*
X457080Y380720D01*
X456719Y380959D01*
X456400Y381300D01*
X456200Y381100D01*
X456560Y380580D01*
X457020Y380200D01*
X457600Y379980D01*
X458300Y379900D01*
X459320Y380080D01*
X460120Y380620D01*
X460620Y381460D01*
X460800Y382600D01*
X460600Y383700D01*
X460020Y384560D01*
X459200Y385100D01*
G37*
G36*
X453000Y385300D02*
G01*
X452220Y385200D01*
X451700Y384880D01*
X451400Y384320D01*
X451300Y382900D01*
X452200Y382900D01*
X453200Y382600D01*
X453800Y382280D01*
X454120Y381960D01*
X454300Y381300D01*
X454240Y380959D01*
X454080Y380720D01*
X453800Y380560D01*
X453180Y380540D01*
X452200Y381100D01*
X452200Y382900D01*
X451300Y382900D01*
X451260Y380780D01*
X451180Y380560D01*
X450900Y380400D01*
X450660Y380460D01*
X450500Y380600D01*
X450300Y380400D01*
X450680Y380000D01*
X451200Y379900D01*
X451560Y379960D01*
X451860Y380120D01*
X452080Y380360D01*
X452200Y380700D01*
X453000Y380120D01*
X453380Y379960D01*
X453800Y379900D01*
X454380Y379980D01*
X454860Y380220D01*
X455180Y380620D01*
X455300Y381200D01*
X455220Y381680D01*
X454920Y382080D01*
X454380Y382480D01*
X453500Y382900D01*
X452200Y383200D01*
X452260Y384219D01*
X452440Y384620D01*
X452740Y384840D01*
X453700Y384860D01*
X453900Y384799D01*
X454180Y383860D01*
X454400Y383620D01*
X454799Y383620D01*
X455060Y383820D01*
X455100Y384000D01*
X454840Y384540D01*
X454380Y384960D01*
X453760Y385200D01*
G37*
G36*
X441400Y385300D02*
G01*
X440460Y385140D01*
X439660Y384620D01*
X439099Y383780D01*
X438900Y382600D01*
X439900Y382600D01*
X440000Y383600D01*
X440280Y384320D01*
X440740Y384760D01*
X441400Y384900D01*
X442020Y384760D01*
X442480Y384320D01*
X442800Y383600D01*
X442900Y382600D01*
X442800Y381599D01*
X442480Y380880D01*
X442020Y380439D01*
X441400Y380300D01*
X440740Y380439D01*
X440280Y380880D01*
X440000Y381599D01*
X439900Y382600D01*
X438900Y382600D01*
X439099Y381420D01*
X439660Y380580D01*
X440460Y380060D01*
X441400Y379900D01*
X442340Y380060D01*
X443140Y380580D01*
X443700Y381420D01*
X443900Y382600D01*
X443700Y383780D01*
X443140Y384620D01*
X442340Y385140D01*
G37*
G36*
X433200Y385300D02*
G01*
X433100Y385200D01*
X433200Y383600D01*
X433200Y380500D01*
X432400Y380300D01*
X432400Y380000D01*
X433900Y379900D01*
X434000Y380900D01*
X434460Y380439D01*
X434960Y380140D01*
X435480Y379960D01*
X436000Y379900D01*
X436599Y380000D01*
X437040Y380319D01*
X437299Y380920D01*
X437400Y381800D01*
X437400Y384600D01*
X438200Y384799D01*
X438200Y385100D01*
X436599Y385300D01*
X436400Y385200D01*
X436500Y383600D01*
X436440Y381280D01*
X436280Y380880D01*
X436000Y380660D01*
X435220Y380640D01*
X434440Y380980D01*
X434099Y381300D01*
X434000Y384600D01*
X434799Y384799D01*
X434799Y385100D01*
G37*
G36*
X420700Y385300D02*
G01*
X420100Y385200D01*
X419660Y384880D01*
X419400Y384280D01*
X419300Y383400D01*
X419300Y380500D01*
X418500Y380300D01*
X418500Y380000D01*
X421000Y380000D01*
X421000Y380300D01*
X420200Y380500D01*
X420260Y383940D01*
X420420Y384380D01*
X420700Y384620D01*
X421100Y384700D01*
X421860Y384480D01*
X422600Y383900D01*
X422600Y380500D01*
X421900Y380300D01*
X421900Y380000D01*
X424400Y380000D01*
X424400Y380300D01*
X423600Y380500D01*
X423600Y384300D01*
X424500Y384400D01*
X424500Y384700D01*
X422900Y385300D01*
X422800Y385200D01*
X422700Y384300D01*
X421740Y385020D01*
X421220Y385220D01*
G37*
G36*
X408700Y385300D02*
G01*
X407760Y385140D01*
X406960Y384620D01*
X406400Y383780D01*
X406200Y382600D01*
X407200Y382600D01*
X407299Y383600D01*
X407620Y384320D01*
X408080Y384760D01*
X408700Y384900D01*
X409360Y384760D01*
X409820Y384320D01*
X410100Y383600D01*
X410200Y382600D01*
X410100Y381599D01*
X409820Y380880D01*
X409360Y380439D01*
X408700Y380300D01*
X408080Y380439D01*
X407620Y380880D01*
X407299Y381599D01*
X407200Y382600D01*
X406200Y382600D01*
X406400Y381420D01*
X406960Y380580D01*
X407760Y380060D01*
X408700Y379900D01*
X409640Y380060D01*
X410439Y380580D01*
X411000Y381420D01*
X411200Y382600D01*
X411000Y383780D01*
X410439Y384620D01*
X409640Y385140D01*
G37*
G36*
X367299Y385300D02*
G01*
X367200Y385200D01*
X367380Y382780D01*
X367400Y381400D01*
X367299Y380680D01*
X367140Y380540D01*
X366800Y380520D01*
X366500Y380600D01*
X366400Y380400D01*
X366780Y380040D01*
X367299Y379900D01*
X367680Y379980D01*
X367920Y380220D01*
X368060Y380620D01*
X368100Y381200D01*
X368420Y380620D01*
X368780Y380220D01*
X369159Y379980D01*
X369600Y379900D01*
X370280Y380120D01*
X370580Y380360D01*
X370800Y380700D01*
X370600Y378100D01*
X371500Y377900D01*
X371599Y378000D01*
X371300Y381100D01*
X371500Y385100D01*
X370600Y385300D01*
X370500Y385200D01*
X370700Y381500D01*
X370439Y381079D01*
X370140Y380840D01*
X369500Y380700D01*
X369080Y380740D01*
X368720Y380920D01*
X368400Y381240D01*
X368100Y381800D01*
X368200Y385100D01*
G37*
G36*
X338400Y385300D02*
G01*
X337560Y385160D01*
X336900Y384739D01*
X336460Y384120D01*
X336378Y383700D01*
X337200Y383700D01*
X337280Y384140D01*
X337540Y384520D01*
X337920Y384799D01*
X338400Y384900D01*
X338920Y384799D01*
X339380Y384480D01*
X339720Y383920D01*
X339900Y383100D01*
X337800Y383000D01*
X337500Y383060D01*
X337320Y383200D01*
X337200Y383700D01*
X336378Y383700D01*
X336320Y383100D01*
X336400Y382600D01*
X339900Y382700D01*
X339780Y381719D01*
X339420Y381040D01*
X338840Y380640D01*
X338100Y380500D01*
X337620Y380560D01*
X336900Y380959D01*
X336599Y381300D01*
X336400Y381100D01*
X336760Y380580D01*
X337220Y380200D01*
X337760Y379980D01*
X338400Y379900D01*
X339420Y380080D01*
X340220Y380620D01*
X340720Y381460D01*
X340900Y382600D01*
X340700Y383700D01*
X340140Y384560D01*
X339340Y385100D01*
G37*
G36*
X332800Y385300D02*
G01*
X332020Y385160D01*
X331380Y384739D01*
X330959Y384120D01*
X330878Y383700D01*
X331700Y383700D01*
X331780Y384140D01*
X332040Y384520D01*
X332420Y384799D01*
X332900Y384900D01*
X333420Y384799D01*
X333880Y384480D01*
X334219Y383920D01*
X334400Y383100D01*
X332299Y383000D01*
X332000Y383060D01*
X331820Y383200D01*
X331700Y383700D01*
X330878Y383700D01*
X330800Y383100D01*
X330900Y382600D01*
X334400Y382700D01*
X334260Y381719D01*
X333880Y381040D01*
X333300Y380640D01*
X332600Y380500D01*
X332060Y380560D01*
X331300Y380959D01*
X331000Y381300D01*
X330800Y381100D01*
X331160Y380580D01*
X331620Y380200D01*
X332200Y379980D01*
X332900Y379900D01*
X333860Y380080D01*
X334620Y380620D01*
X335120Y381460D01*
X335300Y382600D01*
X335100Y383700D01*
X334580Y384560D01*
X333780Y385100D01*
G37*
G36*
X326599Y385300D02*
G01*
X325760Y385120D01*
X325100Y384580D01*
X324660Y383740D01*
X324500Y382600D01*
X325400Y382600D01*
X325500Y383540D01*
X325800Y384219D01*
X326240Y384660D01*
X326800Y384799D01*
X327420Y384680D01*
X328200Y384200D01*
X328200Y381000D01*
X327580Y380560D01*
X326900Y380400D01*
X326320Y380520D01*
X325860Y380900D01*
X325520Y381580D01*
X325400Y382600D01*
X324500Y382600D01*
X324660Y381460D01*
X325120Y380620D01*
X325800Y380080D01*
X326700Y379900D01*
X327440Y380020D01*
X327819Y380240D01*
X328200Y380600D01*
X328200Y377900D01*
X327200Y377700D01*
X327200Y377400D01*
X330000Y377400D01*
X330000Y377700D01*
X329099Y377800D01*
X329099Y384300D01*
X330000Y384400D01*
X330000Y384700D01*
X328400Y385300D01*
X328300Y385200D01*
X328200Y384500D01*
X327800Y384880D01*
X327000Y385260D01*
G37*
G36*
X296900Y385300D02*
G01*
X296800Y385200D01*
X297000Y381400D01*
X296860Y380680D01*
X296700Y380540D01*
X296000Y380600D01*
X296000Y380400D01*
X296280Y380040D01*
X296800Y379900D01*
X297180Y379980D01*
X297440Y380220D01*
X297600Y380620D01*
X297700Y381200D01*
X297960Y380620D01*
X298300Y380220D01*
X298720Y379980D01*
X299200Y379900D01*
X299840Y380120D01*
X300400Y380700D01*
X300100Y378100D01*
X301000Y377900D01*
X301100Y378000D01*
X300900Y381100D01*
X301100Y385100D01*
X300200Y385300D01*
X300100Y385200D01*
X300300Y381500D01*
X300000Y381079D01*
X299700Y380840D01*
X299100Y380700D01*
X298680Y380740D01*
X298320Y380920D01*
X298000Y381240D01*
X297700Y381800D01*
X297800Y385100D01*
G37*
G36*
X281500Y385300D02*
G01*
X280860Y385200D01*
X280420Y384880D01*
X280180Y384280D01*
X280000Y380500D01*
X279300Y380300D01*
X279300Y380000D01*
X281800Y380000D01*
X281800Y380300D01*
X281000Y380500D01*
X281040Y383940D01*
X281180Y384380D01*
X281460Y384620D01*
X281900Y384700D01*
X282620Y384480D01*
X283400Y383900D01*
X283400Y380500D01*
X282600Y380300D01*
X282600Y380000D01*
X285100Y380000D01*
X285100Y380300D01*
X284300Y380500D01*
X284300Y384300D01*
X285200Y384400D01*
X285200Y384700D01*
X283700Y385300D01*
X283500Y385200D01*
X283400Y384300D01*
X282980Y384700D01*
X282480Y385020D01*
X281980Y385220D01*
G37*
G36*
X216800Y385300D02*
G01*
X215859Y385140D01*
X215060Y384620D01*
X214500Y383780D01*
X214300Y382600D01*
X215300Y382600D01*
X215400Y383600D01*
X215680Y384320D01*
X216140Y384760D01*
X216800Y384900D01*
X217460Y384760D01*
X217920Y384320D01*
X218200Y383600D01*
X218299Y382600D01*
X218200Y381599D01*
X217920Y380880D01*
X217460Y380439D01*
X216800Y380300D01*
X216140Y380439D01*
X215680Y380880D01*
X215400Y381599D01*
X215300Y382600D01*
X214300Y382600D01*
X214500Y381420D01*
X215060Y380580D01*
X215859Y380060D01*
X216800Y379900D01*
X217740Y380060D01*
X218540Y380580D01*
X219100Y381420D01*
X219300Y382600D01*
X219100Y383780D01*
X218540Y384620D01*
X217740Y385140D01*
G37*
G36*
X164500Y385300D02*
G01*
X163900Y385200D01*
X163460Y384880D01*
X163200Y384280D01*
X163100Y383400D01*
X163100Y380500D01*
X162300Y380300D01*
X162300Y380000D01*
X164899Y380000D01*
X164899Y380300D01*
X164000Y380500D01*
X164060Y383940D01*
X164220Y384380D01*
X164500Y384620D01*
X164899Y384700D01*
X165660Y384480D01*
X166500Y383900D01*
X166400Y380500D01*
X165700Y380300D01*
X165700Y380000D01*
X168200Y380000D01*
X168200Y380300D01*
X167399Y380500D01*
X167399Y384300D01*
X168299Y384400D01*
X168299Y384700D01*
X166700Y385300D01*
X166600Y385200D01*
X166500Y384300D01*
X165539Y385020D01*
X165020Y385220D01*
G37*
G36*
X143800Y385300D02*
G01*
X143280Y385220D01*
X143000Y384900D01*
X143120Y384400D01*
X143300Y384260D01*
X143760Y384219D01*
X144140Y384360D01*
X144400Y384600D01*
X144920Y384020D01*
X145300Y383200D01*
X145300Y380500D01*
X144400Y380300D01*
X144400Y380000D01*
X147100Y380000D01*
X147100Y380300D01*
X146300Y380500D01*
X146300Y384300D01*
X147200Y384400D01*
X147200Y384700D01*
X145600Y385300D01*
X145500Y385200D01*
X145400Y383900D01*
X145060Y384500D01*
X144680Y384940D01*
X144240Y385200D01*
G37*
G36*
X140200Y385300D02*
G01*
X139480Y385200D01*
X138940Y384880D01*
X138620Y384320D01*
X138500Y383500D01*
X138500Y382900D01*
X139400Y382900D01*
X140500Y382600D01*
X141060Y382280D01*
X141380Y381960D01*
X141560Y381620D01*
X141600Y381300D01*
X141520Y380959D01*
X141340Y380720D01*
X141060Y380560D01*
X140420Y380540D01*
X139400Y381100D01*
X139400Y382900D01*
X138500Y382900D01*
X138480Y380780D01*
X138420Y380560D01*
X138100Y380400D01*
X137700Y380600D01*
X137500Y380400D01*
X137940Y380000D01*
X138400Y379900D01*
X138800Y379960D01*
X139080Y380120D01*
X139280Y380360D01*
X139400Y380700D01*
X140220Y380120D01*
X140620Y379960D01*
X141100Y379900D01*
X141660Y379980D01*
X142100Y380220D01*
X142400Y380620D01*
X142500Y381200D01*
X142420Y381680D01*
X142120Y382080D01*
X141580Y382480D01*
X140440Y382980D01*
X139400Y383200D01*
X139480Y384219D01*
X139680Y384620D01*
X140040Y384840D01*
X140660Y384900D01*
X141100Y384799D01*
X141400Y383860D01*
X141700Y383620D01*
X142100Y383620D01*
X142400Y384000D01*
X142140Y384540D01*
X141680Y384960D01*
X141020Y385200D01*
G37*
G36*
X134900Y385300D02*
G01*
X134120Y385220D01*
X133400Y384900D01*
X133400Y383800D01*
X133900Y383800D01*
X134100Y384700D01*
X134900Y384900D01*
X135360Y384840D01*
X135720Y384680D01*
X135920Y384440D01*
X136000Y384099D01*
X135940Y383780D01*
X135760Y383519D01*
X135000Y383100D01*
X133900Y382680D01*
X133440Y382320D01*
X133180Y381880D01*
X133100Y381400D01*
X133240Y380820D01*
X133620Y380360D01*
X134280Y380020D01*
X135200Y379900D01*
X136080Y379980D01*
X136900Y380300D01*
X136900Y381500D01*
X136400Y381500D01*
X136100Y380500D01*
X135720Y380319D01*
X134680Y380360D01*
X134300Y380520D01*
X134080Y380800D01*
X134000Y381200D01*
X134060Y381480D01*
X134240Y381740D01*
X135000Y382200D01*
X135500Y382299D01*
X136040Y382560D01*
X136460Y382900D01*
X136700Y383320D01*
X136800Y383800D01*
X136680Y384380D01*
X136340Y384860D01*
X135740Y385180D01*
G37*
G36*
X129700Y385300D02*
G01*
X128760Y385140D01*
X127960Y384620D01*
X127400Y383780D01*
X127200Y382600D01*
X128200Y382600D01*
X128300Y383600D01*
X128580Y384320D01*
X129040Y384760D01*
X129700Y384900D01*
X130320Y384760D01*
X130780Y384320D01*
X131100Y383600D01*
X131200Y382600D01*
X131100Y381599D01*
X130780Y380880D01*
X130320Y380439D01*
X129700Y380300D01*
X129040Y380439D01*
X128580Y380880D01*
X128300Y381599D01*
X128200Y382600D01*
X127200Y382600D01*
X127400Y381420D01*
X127960Y380580D01*
X128760Y380060D01*
X129700Y379900D01*
X130640Y380060D01*
X131440Y380580D01*
X132000Y381420D01*
X132200Y382600D01*
X132000Y383780D01*
X131440Y384620D01*
X130640Y385140D01*
G37*
G36*
X121500Y385300D02*
G01*
X121400Y385200D01*
X121500Y383600D01*
X121500Y380500D01*
X120700Y380300D01*
X120700Y380000D01*
X122200Y379900D01*
X122300Y380900D01*
X122760Y380439D01*
X123260Y380140D01*
X123780Y379960D01*
X124300Y379900D01*
X124900Y380000D01*
X125340Y380319D01*
X125600Y380920D01*
X125700Y381800D01*
X125700Y384600D01*
X126500Y384799D01*
X126500Y385100D01*
X124900Y385300D01*
X124800Y385200D01*
X124800Y381900D01*
X124740Y381280D01*
X124580Y380880D01*
X124300Y380660D01*
X123520Y380640D01*
X122739Y380980D01*
X122400Y381300D01*
X122300Y384600D01*
X123100Y384799D01*
X123100Y385100D01*
G37*
G36*
X116199Y385300D02*
G01*
X115600Y385200D01*
X115160Y384880D01*
X114900Y384280D01*
X114800Y383400D01*
X114800Y380500D01*
X114000Y380300D01*
X114000Y380000D01*
X116500Y380000D01*
X116500Y380300D01*
X115700Y380500D01*
X115760Y383940D01*
X115920Y384380D01*
X116199Y384620D01*
X116600Y384700D01*
X117360Y384480D01*
X118100Y383900D01*
X118100Y380500D01*
X117400Y380300D01*
X117400Y380000D01*
X119900Y380000D01*
X119900Y380300D01*
X119100Y380500D01*
X119100Y384300D01*
X120000Y384400D01*
X120000Y384700D01*
X118400Y385300D01*
X118300Y385200D01*
X118200Y384300D01*
X117240Y385020D01*
X116720Y385220D01*
G37*
G36*
X99700Y385300D02*
G01*
X99600Y385200D01*
X99600Y380500D01*
X98900Y380300D01*
X98900Y380000D01*
X100399Y379900D01*
X100500Y380900D01*
X100900Y380439D01*
X101380Y380140D01*
X101880Y379960D01*
X102400Y379900D01*
X103020Y380000D01*
X103480Y380319D01*
X103800Y380920D01*
X103900Y381800D01*
X103800Y384600D01*
X104600Y384799D01*
X104600Y385100D01*
X103000Y385300D01*
X102899Y385200D01*
X102899Y381900D01*
X102840Y381280D01*
X102680Y380880D01*
X102400Y380660D01*
X101620Y380640D01*
X100879Y380980D01*
X100500Y381300D01*
X100500Y384600D01*
X101300Y384799D01*
X101300Y385100D01*
G37*
G36*
X94800Y385300D02*
G01*
X93960Y385120D01*
X93300Y384580D01*
X92860Y383740D01*
X92700Y382600D01*
X93600Y382600D01*
X93699Y383540D01*
X94000Y384219D01*
X94440Y384660D01*
X95000Y384799D01*
X95620Y384680D01*
X96400Y384200D01*
X96400Y381000D01*
X95780Y380560D01*
X95100Y380400D01*
X94520Y380520D01*
X94060Y380900D01*
X93720Y381580D01*
X93600Y382600D01*
X92700Y382600D01*
X92860Y381460D01*
X93320Y380620D01*
X94000Y380080D01*
X94900Y379900D01*
X95660Y380020D01*
X96400Y380600D01*
X96400Y377900D01*
X95399Y377700D01*
X95399Y377400D01*
X98200Y377400D01*
X98200Y377700D01*
X97300Y377800D01*
X97300Y384300D01*
X98200Y384400D01*
X98200Y384700D01*
X96600Y385300D01*
X96500Y385200D01*
X96400Y384500D01*
X96000Y384880D01*
X95200Y385260D01*
G37*
G36*
X83000Y385300D02*
G01*
X82100Y385140D01*
X81300Y384620D01*
X80719Y383780D01*
X80500Y382600D01*
X81500Y382600D01*
X81600Y383600D01*
X81920Y384320D01*
X82380Y384760D01*
X83000Y384900D01*
X83660Y384760D01*
X84120Y384320D01*
X84400Y383600D01*
X84500Y382600D01*
X84400Y381599D01*
X84120Y380880D01*
X83660Y380439D01*
X83000Y380300D01*
X82380Y380439D01*
X81920Y380880D01*
X81600Y381599D01*
X81500Y382600D01*
X80500Y382600D01*
X80719Y381420D01*
X81300Y380580D01*
X82100Y380060D01*
X83000Y379900D01*
X83940Y380060D01*
X84740Y380580D01*
X85300Y381420D01*
X85500Y382600D01*
X85300Y383780D01*
X84740Y384620D01*
X83940Y385140D01*
G37*
G36*
X397400Y385200D02*
G01*
X397400Y384799D01*
X398000Y384700D01*
X399600Y379900D01*
X400000Y379900D01*
X401500Y383900D01*
X402900Y379900D01*
X403300Y379900D01*
X405100Y384700D01*
X405700Y384799D01*
X405700Y385200D01*
X403200Y385200D01*
X403200Y384799D01*
X404099Y384700D01*
X402900Y381100D01*
X401599Y384700D01*
X402500Y384799D01*
X402500Y385200D01*
X400100Y385200D01*
X400100Y384799D01*
X400900Y384700D01*
X399600Y381200D01*
X398500Y384700D01*
X399400Y384799D01*
X399400Y385200D01*
G37*
G36*
X226400Y385200D02*
G01*
X226400Y384799D01*
X229500Y380400D01*
X227100Y380400D01*
X226700Y381800D01*
X226200Y381800D01*
X226300Y380000D01*
X230600Y380000D01*
X230600Y380300D01*
X227399Y384799D01*
X229700Y384799D01*
X230000Y383500D01*
X230500Y383600D01*
X230400Y385200D01*
G37*
G36*
X172700Y385200D02*
G01*
X172700Y384799D01*
X175799Y380400D01*
X173400Y380400D01*
X173000Y381800D01*
X172500Y381800D01*
X172600Y380000D01*
X176900Y380000D01*
X176900Y380300D01*
X173700Y384799D01*
X176000Y384799D01*
X176300Y383500D01*
X176800Y383600D01*
X176700Y385200D01*
G37*
G36*
X44700Y385200D02*
G01*
X44700Y384799D01*
X47900Y380400D01*
X45400Y380400D01*
X45100Y381800D01*
X44600Y381800D01*
X44700Y380000D01*
X48900Y380000D01*
X48900Y380300D01*
X45800Y384799D01*
X48099Y384799D01*
X48400Y383500D01*
X48900Y383600D01*
X48800Y385200D01*
G37*
G36*
X395700Y381300D02*
G01*
X395200Y381100D01*
X395000Y380600D01*
X395200Y380100D01*
X395700Y379900D01*
X396200Y380100D01*
X396400Y380600D01*
X396200Y381100D01*
G37*
G36*
X322299Y381300D02*
G01*
X321800Y381100D01*
X321599Y380600D01*
X321800Y380100D01*
X322299Y379900D01*
X322640Y379960D01*
X322879Y380100D01*
X323040Y380319D01*
X323100Y380600D01*
X323040Y380880D01*
X322879Y381100D01*
X322640Y381240D01*
G37*
G36*
X257300Y381300D02*
G01*
X256800Y381100D01*
X256600Y380600D01*
X256800Y380100D01*
X257300Y379900D01*
X257860Y380100D01*
X258039Y380319D01*
X258100Y380600D01*
X258039Y380880D01*
X257860Y381100D01*
G37*
D10*
X511709Y415000D02*
G01*
X542255Y415000D01*
X511709Y415000D02*
G01*
X511709Y396091D01*
X526255Y415000D02*
G01*
X526255Y403364D01*
X511709Y386491D02*
G01*
X542255Y386491D01*
X511709Y386491D02*
G01*
X511709Y373400D01*
X513164Y369036D01*
X514617Y367582D01*
X517527Y366126D01*
X520436Y366126D01*
X523345Y367582D01*
X524800Y369036D01*
X526255Y373400D01*
X526255Y386491D01*
X526255Y376308D02*
G01*
X542255Y366126D01*
X511709Y347800D02*
G01*
X513164Y350709D01*
X516073Y353618D01*
X518982Y355073D01*
X523345Y356527D01*
X530618Y356527D01*
X534982Y355073D01*
X537891Y353618D01*
X540800Y350709D01*
X542255Y347800D01*
X542255Y341982D01*
X540800Y339073D01*
X537891Y336164D01*
X534982Y334709D01*
X530618Y333255D01*
X523345Y333255D01*
X518982Y334709D01*
X516073Y336164D01*
X513164Y339073D01*
X511709Y341982D01*
X511709Y347800D01*
X511709Y323655D02*
G01*
X542255Y323655D01*
X511709Y323655D02*
G01*
X542255Y303291D01*
X511709Y303291D02*
G01*
X542255Y303291D01*
X511709Y283509D02*
G01*
X542255Y283509D01*
X511709Y293691D02*
G01*
X511709Y273327D01*
D11*
X560000Y221218D02*
G01*
X560000Y198309D01*
X560000Y221218D02*
G01*
X551273Y198309D01*
X542545Y221218D02*
G01*
X551273Y198309D01*
X542545Y221218D02*
G01*
X542545Y198309D01*
X535345Y221218D02*
G01*
X535345Y198309D01*
X511781Y215764D02*
G01*
X512873Y217945D01*
X515055Y220127D01*
X517236Y221218D01*
X521599Y221218D01*
X523782Y220127D01*
X525964Y217945D01*
X527055Y215764D01*
X528145Y212491D01*
X528145Y207036D01*
X527055Y203764D01*
X525964Y201582D01*
X523782Y199400D01*
X521599Y198309D01*
X517236Y198309D01*
X515055Y199400D01*
X512873Y201582D01*
X511781Y203764D01*
X479055Y221218D02*
G01*
X487782Y198309D01*
X479055Y221218D02*
G01*
X470327Y198309D01*
X484509Y205945D02*
G01*
X473600Y205945D01*
X463127Y213582D02*
G01*
X463127Y190673D01*
X463127Y210309D02*
G01*
X460944Y212491D01*
X458763Y213582D01*
X455491Y213582D01*
X453309Y212491D01*
X451126Y210309D01*
X450036Y207036D01*
X450036Y204854D01*
X451126Y201582D01*
X453309Y199400D01*
X455491Y198309D01*
X458763Y198309D01*
X460944Y199400D01*
X463127Y201582D01*
X442836Y207036D02*
G01*
X429745Y207036D01*
X429745Y209218D01*
X430835Y211400D01*
X431927Y212491D01*
X434109Y213582D01*
X437382Y213582D01*
X439564Y212491D01*
X441745Y210309D01*
X442836Y207036D01*
X442836Y204854D01*
X441745Y201582D01*
X439564Y199400D01*
X437382Y198309D01*
X434109Y198309D01*
X431927Y199400D01*
X429745Y201582D01*
X422545Y213582D02*
G01*
X422545Y198309D01*
X422545Y207036D02*
G01*
X421455Y210309D01*
X419273Y212491D01*
X417091Y213582D01*
X413818Y213582D01*
X403345Y221218D02*
G01*
X403345Y202673D01*
X402254Y199400D01*
X400073Y198309D01*
X397891Y198309D01*
X406618Y213582D02*
G01*
X398982Y213582D01*
X390691Y213582D02*
G01*
X390691Y202673D01*
X389600Y199400D01*
X387418Y198309D01*
X384144Y198309D01*
X381963Y199400D01*
X378691Y202673D01*
X378691Y213582D02*
G01*
X378691Y198309D01*
X371491Y213582D02*
G01*
X371491Y198309D01*
X371491Y207036D02*
G01*
X370400Y210309D01*
X368218Y212491D01*
X366036Y213582D01*
X362764Y213582D01*
X355563Y207036D02*
G01*
X342473Y207036D01*
X342473Y209218D01*
X343564Y211400D01*
X344655Y212491D01*
X346836Y213582D01*
X350109Y213582D01*
X352291Y212491D01*
X354473Y210309D01*
X355563Y207036D01*
X355563Y204854D01*
X354473Y201582D01*
X352291Y199400D01*
X350109Y198309D01*
X346836Y198309D01*
X344655Y199400D01*
X342473Y201582D01*
D12*
X200000Y275000D02*
G01*
X150000Y225000D01*
X600000Y225000D01*
X150000Y225000D02*
G01*
X200000Y175000D01*
D13*
G75*
G01*
X130000Y225000D02*
G03*
X130000Y224740I-50000J-130D01*
D14*
G75*
G01*
X150710Y225000D02*
G03*
X150710Y224830I-70710J-85D01*
M02*
