G04 Layer: BoardOutlineLayer*
G04 EasyEDA v6.5.22, 2023-02-08 15:23:14*
G04 b47096d6ad144cf6bac1a3a9f6be5821,c949cfa9a39643c6839ff0c3538172d0,10*
G04 Gerber Generator version 0.2*
G04 Scale: 100 percent, Rotated: No, Reflected: No *
G04 Dimensions in inches *
G04 leading zeros omitted , absolute positions ,3 integer and 6 decimal *
%FSLAX36Y36*%
%MOIN*%

%ADD10C,0.0100*%
D10*
X550000Y0D02*
G01*
X50000Y0D01*
G75*
G01*
X50000Y0D02*
G02*
X0Y50000I0J50000D01*
X0Y50000D02*
G01*
X0Y400000D01*
G75*
G01*
X0Y400000D02*
G02*
X50000Y450000I50000J0D01*
X50000Y450000D02*
G01*
X550000Y450000D01*
G75*
G01*
X550000Y450000D02*
G02*
X600000Y400000I0J-50000D01*
X600000Y400000D02*
G01*
X600000Y50000D01*
G75*
G01*
X600000Y50000D02*
G02*
X550000Y0I-50000J0D01*
X1228740Y0D02*
G01*
X728740Y0D01*
G75*
G01*
X728740Y0D02*
G02*
X678740Y50000I0J50000D01*
X678740Y50000D02*
G01*
X678740Y400000D01*
G75*
G01*
X678740Y400000D02*
G02*
X728740Y450000I50000J0D01*
X728740Y450000D02*
G01*
X1228740Y450000D01*
G75*
G01*
X1228740Y450000D02*
G02*
X1278740Y400000I0J-50000D01*
X1278740Y400000D02*
G01*
X1278740Y50000D01*
G75*
G01*
X1278740Y50000D02*
G02*
X1228740Y0I-50000J0D01*
X1907480Y0D02*
G01*
X1407480Y0D01*
G75*
G01*
X1407480Y0D02*
G02*
X1357480Y50000I0J50000D01*
X1357480Y50000D02*
G01*
X1357480Y400000D01*
G75*
G01*
X1357480Y400000D02*
G02*
X1407480Y450000I50000J0D01*
X1407480Y450000D02*
G01*
X1907480Y450000D01*
G75*
G01*
X1907480Y450000D02*
G02*
X1957480Y400000I0J-50000D01*
X1957480Y400000D02*
G01*
X1957480Y50000D01*
G75*
G01*
X1957480Y50000D02*
G02*
X1907480Y0I-50000J0D01*
X2586219Y0D02*
G01*
X2086219Y0D01*
G75*
G01*
X2086220Y0D02*
G02*
X2036220Y50000I0J50000D01*
X2036219Y50000D02*
G01*
X2036219Y400000D01*
G75*
G01*
X2036220Y400000D02*
G02*
X2086220Y450000I50000J0D01*
X2086219Y450000D02*
G01*
X2586219Y450000D01*
G75*
G01*
X2586220Y450000D02*
G02*
X2636220Y400000I0J-50000D01*
X2636219Y400000D02*
G01*
X2636219Y50000D01*
G75*
G01*
X2636220Y50000D02*
G02*
X2586220Y0I-50000J0D01*
X3264960Y0D02*
G01*
X2764960Y0D01*
G75*
G01*
X2764960Y0D02*
G02*
X2714960Y50000I0J50000D01*
X2714960Y50000D02*
G01*
X2714960Y400000D01*
G75*
G01*
X2714960Y400000D02*
G02*
X2764960Y450000I50000J0D01*
X2764960Y450000D02*
G01*
X3264960Y450000D01*
G75*
G01*
X3264960Y450000D02*
G02*
X3314960Y400000I0J-50000D01*
X3314960Y400000D02*
G01*
X3314960Y50000D01*
G75*
G01*
X3314960Y50000D02*
G02*
X3264960Y0I-50000J0D01*
X550000Y-528740D02*
G01*
X50000Y-528740D01*
G75*
G01*
X50000Y-528740D02*
G02*
X0Y-478740I0J50000D01*
X0Y-478740D02*
G01*
X0Y-128740D01*
G75*
G01*
X0Y-128740D02*
G02*
X50000Y-78740I50000J0D01*
X50000Y-78740D02*
G01*
X550000Y-78740D01*
G75*
G01*
X550000Y-78740D02*
G02*
X600000Y-128740I0J-50000D01*
X600000Y-128740D02*
G01*
X600000Y-478740D01*
G75*
G01*
X600000Y-478740D02*
G02*
X550000Y-528740I-50000J0D01*
X1228740Y-528740D02*
G01*
X728740Y-528740D01*
G75*
G01*
X728740Y-528740D02*
G02*
X678740Y-478740I0J50000D01*
X678740Y-478740D02*
G01*
X678740Y-128740D01*
G75*
G01*
X678740Y-128740D02*
G02*
X728740Y-78740I50000J0D01*
X728740Y-78740D02*
G01*
X1228740Y-78740D01*
G75*
G01*
X1228740Y-78740D02*
G02*
X1278740Y-128740I0J-50000D01*
X1278740Y-128740D02*
G01*
X1278740Y-478740D01*
G75*
G01*
X1278740Y-478740D02*
G02*
X1228740Y-528740I-50000J0D01*
X1907480Y-528740D02*
G01*
X1407480Y-528740D01*
G75*
G01*
X1407480Y-528740D02*
G02*
X1357480Y-478740I0J50000D01*
X1357480Y-478740D02*
G01*
X1357480Y-128740D01*
G75*
G01*
X1357480Y-128740D02*
G02*
X1407480Y-78740I50000J0D01*
X1407480Y-78740D02*
G01*
X1907480Y-78740D01*
G75*
G01*
X1907480Y-78740D02*
G02*
X1957480Y-128740I0J-50000D01*
X1957480Y-128740D02*
G01*
X1957480Y-478740D01*
G75*
G01*
X1957480Y-478740D02*
G02*
X1907480Y-528740I-50000J0D01*
X2586219Y-528740D02*
G01*
X2086219Y-528740D01*
G75*
G01*
X2086220Y-528740D02*
G02*
X2036220Y-478740I0J50000D01*
X2036219Y-478740D02*
G01*
X2036219Y-128740D01*
G75*
G01*
X2036220Y-128740D02*
G02*
X2086220Y-78740I50000J0D01*
X2086219Y-78740D02*
G01*
X2586219Y-78740D01*
G75*
G01*
X2586220Y-78740D02*
G02*
X2636220Y-128740I0J-50000D01*
X2636219Y-128740D02*
G01*
X2636219Y-478740D01*
G75*
G01*
X2636220Y-478740D02*
G02*
X2586220Y-528740I-50000J0D01*
X3264960Y-528740D02*
G01*
X2764960Y-528740D01*
G75*
G01*
X2764960Y-528740D02*
G02*
X2714960Y-478740I0J50000D01*
X2714960Y-478740D02*
G01*
X2714960Y-128740D01*
G75*
G01*
X2714960Y-128740D02*
G02*
X2764960Y-78740I50000J0D01*
X2764960Y-78740D02*
G01*
X3264960Y-78740D01*
G75*
G01*
X3264960Y-78740D02*
G02*
X3314960Y-128740I0J-50000D01*
X3314960Y-128740D02*
G01*
X3314960Y-478740D01*
G75*
G01*
X3314960Y-478740D02*
G02*
X3264960Y-528740I-50000J0D01*
X550000Y-1057480D02*
G01*
X50000Y-1057480D01*
G75*
G01*
X50000Y-1057480D02*
G02*
X0Y-1007480I0J50000D01*
X0Y-1007480D02*
G01*
X0Y-657480D01*
G75*
G01*
X0Y-657480D02*
G02*
X50000Y-607480I50000J0D01*
X50000Y-607480D02*
G01*
X550000Y-607480D01*
G75*
G01*
X550000Y-607480D02*
G02*
X600000Y-657480I0J-50000D01*
X600000Y-657480D02*
G01*
X600000Y-1007480D01*
G75*
G01*
X600000Y-1007480D02*
G02*
X550000Y-1057480I-50000J0D01*
X1228740Y-1057480D02*
G01*
X728740Y-1057480D01*
G75*
G01*
X728740Y-1057480D02*
G02*
X678740Y-1007480I0J50000D01*
X678740Y-1007480D02*
G01*
X678740Y-657480D01*
G75*
G01*
X678740Y-657480D02*
G02*
X728740Y-607480I50000J0D01*
X728740Y-607480D02*
G01*
X1228740Y-607480D01*
G75*
G01*
X1228740Y-607480D02*
G02*
X1278740Y-657480I0J-50000D01*
X1278740Y-657480D02*
G01*
X1278740Y-1007480D01*
G75*
G01*
X1278740Y-1007480D02*
G02*
X1228740Y-1057480I-50000J0D01*
X1907480Y-1057480D02*
G01*
X1407480Y-1057480D01*
G75*
G01*
X1407480Y-1057480D02*
G02*
X1357480Y-1007480I0J50000D01*
X1357480Y-1007480D02*
G01*
X1357480Y-657480D01*
G75*
G01*
X1357480Y-657480D02*
G02*
X1407480Y-607480I50000J0D01*
X1407480Y-607480D02*
G01*
X1907480Y-607480D01*
G75*
G01*
X1907480Y-607480D02*
G02*
X1957480Y-657480I0J-50000D01*
X1957480Y-657480D02*
G01*
X1957480Y-1007480D01*
G75*
G01*
X1957480Y-1007480D02*
G02*
X1907480Y-1057480I-50000J0D01*
X2586219Y-1057480D02*
G01*
X2086219Y-1057480D01*
G75*
G01*
X2086220Y-1057480D02*
G02*
X2036220Y-1007480I0J50000D01*
X2036219Y-1007480D02*
G01*
X2036219Y-657480D01*
G75*
G01*
X2036220Y-657480D02*
G02*
X2086220Y-607480I50000J0D01*
X2086219Y-607480D02*
G01*
X2586219Y-607480D01*
G75*
G01*
X2586220Y-607480D02*
G02*
X2636220Y-657480I0J-50000D01*
X2636219Y-657480D02*
G01*
X2636219Y-1007480D01*
G75*
G01*
X2636220Y-1007480D02*
G02*
X2586220Y-1057480I-50000J0D01*
X3264960Y-1057480D02*
G01*
X2764960Y-1057480D01*
G75*
G01*
X2764960Y-1057480D02*
G02*
X2714960Y-1007480I0J50000D01*
X2714960Y-1007480D02*
G01*
X2714960Y-657480D01*
G75*
G01*
X2714960Y-657480D02*
G02*
X2764960Y-607480I50000J0D01*
X2764960Y-607480D02*
G01*
X3264960Y-607480D01*
G75*
G01*
X3264960Y-607480D02*
G02*
X3314960Y-657480I0J-50000D01*
X3314960Y-657480D02*
G01*
X3314960Y-1007480D01*
G75*
G01*
X3314960Y-1007480D02*
G02*
X3264960Y-1057480I-50000J0D01*
X550000Y-1586220D02*
G01*
X50000Y-1586220D01*
G75*
G01*
X50000Y-1586220D02*
G02*
X0Y-1536220I0J50000D01*
X0Y-1536220D02*
G01*
X0Y-1186220D01*
G75*
G01*
X0Y-1186220D02*
G02*
X50000Y-1136220I50000J0D01*
X50000Y-1136220D02*
G01*
X550000Y-1136220D01*
G75*
G01*
X550000Y-1136220D02*
G02*
X600000Y-1186220I0J-50000D01*
X600000Y-1186220D02*
G01*
X600000Y-1536220D01*
G75*
G01*
X600000Y-1536220D02*
G02*
X550000Y-1586220I-50000J0D01*
X1228740Y-1586220D02*
G01*
X728740Y-1586220D01*
G75*
G01*
X728740Y-1586220D02*
G02*
X678740Y-1536220I0J50000D01*
X678740Y-1536220D02*
G01*
X678740Y-1186220D01*
G75*
G01*
X678740Y-1186220D02*
G02*
X728740Y-1136220I50000J0D01*
X728740Y-1136220D02*
G01*
X1228740Y-1136220D01*
G75*
G01*
X1228740Y-1136220D02*
G02*
X1278740Y-1186220I0J-50000D01*
X1278740Y-1186220D02*
G01*
X1278740Y-1536220D01*
G75*
G01*
X1278740Y-1536220D02*
G02*
X1228740Y-1586220I-50000J0D01*
X1907480Y-1586220D02*
G01*
X1407480Y-1586220D01*
G75*
G01*
X1407480Y-1586220D02*
G02*
X1357480Y-1536220I0J50000D01*
X1357480Y-1536220D02*
G01*
X1357480Y-1186220D01*
G75*
G01*
X1357480Y-1186220D02*
G02*
X1407480Y-1136220I50000J0D01*
X1407480Y-1136220D02*
G01*
X1907480Y-1136220D01*
G75*
G01*
X1907480Y-1136220D02*
G02*
X1957480Y-1186220I0J-50000D01*
X1957480Y-1186220D02*
G01*
X1957480Y-1536220D01*
G75*
G01*
X1957480Y-1536220D02*
G02*
X1907480Y-1586220I-50000J0D01*
X2586219Y-1586220D02*
G01*
X2086219Y-1586220D01*
G75*
G01*
X2086220Y-1586220D02*
G02*
X2036220Y-1536220I0J50000D01*
X2036219Y-1536220D02*
G01*
X2036219Y-1186220D01*
G75*
G01*
X2036220Y-1186220D02*
G02*
X2086220Y-1136220I50000J0D01*
X2086219Y-1136220D02*
G01*
X2586219Y-1136220D01*
G75*
G01*
X2586220Y-1136220D02*
G02*
X2636220Y-1186220I0J-50000D01*
X2636219Y-1186220D02*
G01*
X2636219Y-1536220D01*
G75*
G01*
X2636220Y-1536220D02*
G02*
X2586220Y-1586220I-50000J0D01*
X3264960Y-1586220D02*
G01*
X2764960Y-1586220D01*
G75*
G01*
X2764960Y-1586220D02*
G02*
X2714960Y-1536220I0J50000D01*
X2714960Y-1536220D02*
G01*
X2714960Y-1186220D01*
G75*
G01*
X2714960Y-1186220D02*
G02*
X2764960Y-1136220I50000J0D01*
X2764960Y-1136220D02*
G01*
X3264960Y-1136220D01*
G75*
G01*
X3264960Y-1136220D02*
G02*
X3314960Y-1186220I0J-50000D01*
X3314960Y-1186220D02*
G01*
X3314960Y-1536220D01*
G75*
G01*
X3314960Y-1536220D02*
G02*
X3264960Y-1586220I-50000J0D01*
X550000Y-2114960D02*
G01*
X50000Y-2114960D01*
G75*
G01*
X50000Y-2114960D02*
G02*
X0Y-2064960I0J50000D01*
X0Y-2064960D02*
G01*
X0Y-1714960D01*
G75*
G01*
X0Y-1714960D02*
G02*
X50000Y-1664960I50000J0D01*
X50000Y-1664960D02*
G01*
X550000Y-1664960D01*
G75*
G01*
X550000Y-1664960D02*
G02*
X600000Y-1714960I0J-50000D01*
X600000Y-1714960D02*
G01*
X600000Y-2064960D01*
G75*
G01*
X600000Y-2064960D02*
G02*
X550000Y-2114960I-50000J0D01*
X1228740Y-2114960D02*
G01*
X728740Y-2114960D01*
G75*
G01*
X728740Y-2114960D02*
G02*
X678740Y-2064960I0J50000D01*
X678740Y-2064960D02*
G01*
X678740Y-1714960D01*
G75*
G01*
X678740Y-1714960D02*
G02*
X728740Y-1664960I50000J0D01*
X728740Y-1664960D02*
G01*
X1228740Y-1664960D01*
G75*
G01*
X1228740Y-1664960D02*
G02*
X1278740Y-1714960I0J-50000D01*
X1278740Y-1714960D02*
G01*
X1278740Y-2064960D01*
G75*
G01*
X1278740Y-2064960D02*
G02*
X1228740Y-2114960I-50000J0D01*
X1907480Y-2114960D02*
G01*
X1407480Y-2114960D01*
G75*
G01*
X1407480Y-2114960D02*
G02*
X1357480Y-2064960I0J50000D01*
X1357480Y-2064960D02*
G01*
X1357480Y-1714960D01*
G75*
G01*
X1357480Y-1714960D02*
G02*
X1407480Y-1664960I50000J0D01*
X1407480Y-1664960D02*
G01*
X1907480Y-1664960D01*
G75*
G01*
X1907480Y-1664960D02*
G02*
X1957480Y-1714960I0J-50000D01*
X1957480Y-1714960D02*
G01*
X1957480Y-2064960D01*
G75*
G01*
X1957480Y-2064960D02*
G02*
X1907480Y-2114960I-50000J0D01*
X2586219Y-2114960D02*
G01*
X2086219Y-2114960D01*
G75*
G01*
X2086220Y-2114960D02*
G02*
X2036220Y-2064960I0J50000D01*
X2036219Y-2064960D02*
G01*
X2036219Y-1714960D01*
G75*
G01*
X2036220Y-1714960D02*
G02*
X2086220Y-1664960I50000J0D01*
X2086219Y-1664960D02*
G01*
X2586219Y-1664960D01*
G75*
G01*
X2586220Y-1664960D02*
G02*
X2636220Y-1714960I0J-50000D01*
X2636219Y-1714960D02*
G01*
X2636219Y-2064960D01*
G75*
G01*
X2636220Y-2064960D02*
G02*
X2586220Y-2114960I-50000J0D01*
X3264960Y-2114960D02*
G01*
X2764960Y-2114960D01*
G75*
G01*
X2764960Y-2114960D02*
G02*
X2714960Y-2064960I0J50000D01*
X2714960Y-2064960D02*
G01*
X2714960Y-1714960D01*
G75*
G01*
X2714960Y-1714960D02*
G02*
X2764960Y-1664960I50000J0D01*
X2764960Y-1664960D02*
G01*
X3264960Y-1664960D01*
G75*
G01*
X3264960Y-1664960D02*
G02*
X3314960Y-1714960I0J-50000D01*
X3314960Y-1714960D02*
G01*
X3314960Y-2064960D01*
G75*
G01*
X3314960Y-2064960D02*
G02*
X3264960Y-2114960I-50000J0D01*
X0Y450000D02*
G01*
X3314960Y450000D01*
X3314960Y-2114960D01*
X0Y-2114960D01*
X0Y450000D01*
X0Y-78740D02*
G01*
X3314960Y-78740D01*
X0Y0D02*
G01*
X3314960Y0D01*
X0Y-607480D02*
G01*
X3314960Y-607480D01*
X0Y-528740D02*
G01*
X3314960Y-528740D01*
X0Y-1136220D02*
G01*
X3314960Y-1136220D01*
X0Y-1057480D02*
G01*
X3314960Y-1057480D01*
X0Y-1664960D02*
G01*
X3314960Y-1664960D01*
X0Y-1586220D02*
G01*
X3314960Y-1586220D01*
X678740Y450000D02*
G01*
X678740Y-2114960D01*
X600000Y450000D02*
G01*
X600000Y-2114960D01*
X1357480Y450000D02*
G01*
X1357480Y-2114960D01*
X1278740Y450000D02*
G01*
X1278740Y-2114960D01*
X2036220Y450000D02*
G01*
X2036220Y-2114960D01*
X1957480Y450000D02*
G01*
X1957480Y-2114960D01*
X2714960Y450000D02*
G01*
X2714960Y-2114960D01*
X2636220Y450000D02*
G01*
X2636220Y-2114960D01*

%LPD*%
M02*
