<?xml version="1.0" standalone="no"?>
<!DOCTYPE svg PUBLIC "-//W3C//DTD SVG 1.1//EN"
  "http://www.w3.org/Graphics/SVG/1.1/DTD/svg11.dtd">
<svg width="108.32199954986572mm" height="108.26584196090695mm" viewBox="-6.571000099182129 -8.311999797821043 108.32199954986572 108.26584196090695" xmlns="http://www.w3.org/2000/svg" version="1.1">
	<title>svgOutput</title>
	<desc>made with tinkercad</desc>
<path d="M 3.8289999961853027 72.40799713134764 L 3.813631296157837 72.37094879150389 L 3.812452793121338 72.37143707275389 L 1.4509999752044678 73.34899902343749 L 0.9940000176429749 72.24400329589842 L 3.355158805847168 71.2665557861328 L 3.371000051498413 71.26000213623045 L 3.384486675262451 71.29261016845702 L 3.9240000247955322 71.0699996948242 L 3.9102463722229004 71.03676605224608 L 3.9025771617889404 71.0182418823242 L 3.4649999141693115 69.96099853515624 L 2.9100000858306885 70.19100189208983 L 2.8951594829559326 70.15514373779295 L 0.5329999923706055 71.13300323486327 L 0.07599999755620956 70.02799987792967 L 1.032597541809082 69.63200378417967 L 2.453000068664551 69.0439987182617 L 2.4661197662353516 69.07572174072264 L 3.005000114440918 68.85199737548827 L 2.9920895099639893 68.82083129882811 L 2.9779934883117676 68.78680419921874 L 2.5460000038146973 67.74400329589842 L 1.9919999837875366 67.97299957275389 L 1.977501630783081 67.93800354003905 L 1.9763057231903076 67.93849945068358 L 0 68.75662231445311 L -0.38499999046325684 68.91600036621092 L -0.8429999947547913 67.80999755859374 L -3.031772492019698e-14 67.4613800048828 L 1.534000039100647 66.82700347900389 L 1.5472910404205322 66.85906982421874 L 2.086646556854248 66.63514709472655 L 2.0869998931884766 66.63500213623045 L 2.074033498764038 66.60366821289061 L 2.0598065853118896 66.56929779052733 L 1.6321388483047485 65.53600311279295 L 1.628000020980835 65.52600097656249 L 1.6038695573806763 65.53600311279295 L 1.0729999542236328 65.75599670410155 L 1.058510661125183 65.72099304199217 L 0 66.15873718261717 L -1.3040000200271606 66.69799804687499 L -1.7610000371932983 65.59300231933592 L -3.031772492019698e-14 64.86474609374999 L 0.6159999966621399 64.61000061035155 L 0.6287761926651001 64.64089202880858 L 1.1679999828338623 64.41799926757811 L 1.155179500579834 64.38702392578124 L 1.1464543342590332 64.36594390869139 L 0.7089999914169312 63.30899810791014 L 0.1550000011920929 63.539001464843736 L 0.140159472823143 63.50314331054686 L 0 63.56116485595702 L -2.2219998836517334 64.48100280761717 L -2.680000066757202 63.37599945068358 L -0.3177911043167114 62.398124694824205 L -0.31743746995925903 62.397975921630845 L -0.30300000309944153 62.39199829101561 L -0.29725000262260437 62.40587234497069 L -0.2896997928619385 62.42408752441405 L 0 62.304340362548814 L 0.25 62.20100021362303 L 0.24242296814918518 62.1826934814453 L 0.23659977316856384 62.16862487792967 L -3.3591435687050806e-15 61.59696960449217 L -0.20900000631809235 61.091999053955064 L -0.7636461853981018 61.320854187011705 L -0.7639999985694885 61.3209991455078 L -0.7784983515739441 61.286003112792955 L -3.007999897003174 62.208942413330064 L -3.1410000324249268 62.26399993896483 L -3.5980000495910645 61.1590003967285 L -3.007999897003174 60.914760589599595 L -1.2357910871505737 60.18112182617186 L -1.2209999561309814 60.17499923706053 L -1.207876205444336 60.20673370361327 L -0.6679999828338623 59.98300170898436 L -0.681081235408783 59.9514923095703 L -0.681325376033783 59.95090484619139 L -1.128000020980835 58.874999999999986 L -1.6820000410079956 59.10400009155272 L -1.6904605627059937 59.083576202392564 L -1.6964983940124512 59.06900024414061 L -3.007999897003174 59.61191940307616 L -4.059000015258789 60.04700088500975 L -4.517000198364258 58.94100189208983 L -3.007999897003174 58.3169593811035 L -2.140000104904175 57.958000183105455 L -2.126708984375 57.9900665283203 L -1.5870000123977661 57.76599884033202 L -1.5999666452407837 57.734672546386705 L -1.6079615354537964 57.71535491943358 L -1.761660099029541 57.34400177001952 L -2.0460000038146973 56.657001495361314 L -2.5999999046325684 56.88700103759764 L -3.007999897003174 55.90299987792967 L -3.007999897003174 54.83800125122069 L -2.7988593578338623 54.83800125122069 L -2.4079999923706055 54.83800125122069 L -2.4079999923706055 53.638000488281236 L -3.007999897003174 53.638000488281236 L -3.007999897003174 53.62699890136717 L -5.566999912261963 53.62699890136717 L -5.566999912261963 52.43099975585936 L -3.007999897003174 52.43099975585936 L -2.99399995803833 52.43099975585936 L -2.99399995803833 52.43799972534178 L -2.4079999923706055 52.43799972534178 L -2.4079999923706055 52.43099975585936 L -2.4079999923706055 51.23799896240233 L -3.007999897003174 51.23799896240233 L -3.007999897003174 51.228996276855455 L -5.567999839782715 51.228000640869126 L -5.567999839782715 50.032001495361314 L -3.007999897003174 50.032993316650376 L -2.994999885559082 50.03300094604491 L -2.994999885559082 50.037998199462876 L -2.4079999923706055 50.037998199462876 L -2.4079999923706055 50.033229827880845 L -2.4079999923706055 49.15200042724608 L -2.4079999923706055 48.83800125122069 L -3.007999897003174 48.83800125122069 L -3.007999897003174 48.82899475097655 L -5.567999839782715 48.82799911499022 L -5.567999839782715 47.631999969482415 L -3.007999897003174 47.63299560546874 L -2.996000051498413 47.63299942016601 L -2.996000051498413 47.63800048828124 L -2.4079999923706055 47.63800048828124 L -2.4079999923706055 47.633228302001946 L -2.4079999923706055 46.43799972534179 L -3.007999897003174 46.43799972534179 L -3.007999897003174 46.428997039794915 L -5.568999767303467 46.42800140380859 L -5.568999767303467 45.23199844360351 L -3.007999897003174 45.23299407958984 L -2.996000051498413 45.23300170898437 L -2.996000051498413 45.23799896240234 L -2.4079999923706055 45.23799896240234 L -2.4079999923706055 45.23322677612304 L -2.4079999923706055 44.03799819946288 L -3.007999897003174 44.03799819946288 L -3.007999897003174 44.02899551391601 L -5.570000171661377 44.02799987792968 L -5.570000171661377 42.83200073242187 L -3.007999897003174 42.832996368408196 L -2.996999979019165 42.83300018310546 L -2.996999979019165 42.838001251220696 L -2.4079999923706055 42.838001251220696 L -2.4079999923706055 42.8332290649414 L -2.4079999923706055 41.63800048828124 L -3.007999897003174 41.63800048828124 L -3.007999897003174 41.62899780273437 L -5.570000171661377 41.627998352050774 L -5.570000171661377 40.43199920654296 L -3.007999897003174 40.43299484252929 L -2.997999906539917 40.432998657226555 L -2.997999906539917 40.43799972534179 L -2.4079999923706055 40.43799972534179 L -2.4079999923706055 40.43322753906249 L -2.4079999923706055 39.23799896240234 L -3.007999897003174 39.23799896240234 L -3.007999897003174 39.22899627685546 L -5.571000099182129 39.22800064086913 L -5.571000099182129 38.03200149536132 L -3.007999897003174 38.03299713134765 L -2.997999906539917 38.033000946044915 L -2.997999906539917 38.03799819946288 L -2.4079999923706055 38.03799819946288 L -2.4079999923706055 38.03322982788085 L -2.4079999923706055 36.838001251220696 L -3.007999897003174 36.838001251220696 L -3.007999897003174 35.772998809814446 L -2.5999999046325684 34.78900146484374 L -2.4079999923706055 34.86870956420898 L -2.0460000038146973 35.01900100708007 L -1.5870000123977661 33.9099998474121 L -2.1402924060821533 33.68029403686523 L -2.1410000324249268 33.680000305175774 L -2.126350164413452 33.64463806152343 L -3.007999897003174 33.27913665771484 L -4.486999988555908 32.66600036621093 L -4.0289998054504395 31.561000823974602 L -3.007999897003174 31.984268188476555 L -1.6689109802246094 32.53940200805663 L -1.652999997138977 32.546001434326165 L -1.6664420366287231 32.57843017578124 L -1.207834005355835 32.76800155639648 L -1.128000020980835 32.80099868774413 L -1.1147688627243042 32.7691307067871 L -1.1142996549606323 32.76800155639648 L -0.6679999828338623 31.693000793457024 L -1.2230000495910645 31.462999343872063 L -1.2087048292160034 31.42849159240722 L -3.007999897003174 30.68288612365722 L -3.569999933242798 30.450000762939446 L -3.111999988555908 29.344999313354485 L -3.007999897003174 29.388095855712884 L -0.7350000143051147 30.329999923706048 L -0.7480839490890503 30.361566543579094 L -0.20900000631809235 30.583999633789055 L -0.196270152926445 30.553243637084954 L 0 30.07903099060058 L 0.25 29.47500038146972 L 0 29.371660232543938 L -0.30399999022483826 29.246000289916985 L -0.289861261844635 29.211839675903313 L -2.6510000228881836 28.232999801635735 L -2.193000078201294 27.128000259399407 L 0 28.03713417053222 L 0.16793246567249298 28.10675430297851 L 0.18299999833106995 28.11300086975097 L 0.1704021394252777 28.143394470214837 L 0.7089999914169312 28.367000579833977 L 0.721696674823761 28.33632278442382 L 1.1679999828338623 27.25799942016601 L 0.6141464114189148 27.029060363769524 L 0.6140000224113464 27.028999328613274 L 0.628140926361084 26.994832992553704 L 7.556369911027299e-15 26.734165191650384 L -1.7330000400543213 26.01499938964843 L -1.274999976158142 24.909999847412102 L 7.556369911027299e-15 25.439104080200188 L 1.0855815410614014 25.889600753784173 L 1.0860910415649414 25.889812469482415 L 1.1009999513626099 25.89599990844726 L 1.0884062051773071 25.92638397216796 L 1.628000020980835 26.149999618530266 L 1.640470027923584 26.11987113952636 L 2.0869998931884766 25.04100036621093 L 1.5329999923706055 24.811000823974602 L 1.5471487045288086 24.77684593200683 L 1.5462841987609863 24.77648735046386 L 1.0624680519104004 24.57600021362304 L -7.564041488430581e-15 24.13572692871093 L -0.8149999976158142 23.798000335693356 L -0.3569999933242798 22.693000793457028 L -7.564041488430581e-15 22.840936660766598 L 2.002749443054199 23.670850753784176 L 2.0049314498901367 23.671756744384762 L 2.004941463470459 23.671760559082028 L 2.007402181625366 23.67277908325195 L 2.0199999809265137 23.677999496459957 L 2.0070581436157227 23.70922470092773 L 2.5460000038146973 23.931999206542965 L 2.55873966217041 23.90124702453613 L 3.005000114440918 22.823999404907223 L 2.4532229900360107 22.594923019409176 L 2.4513535499572754 22.59414672851562 L 2.4509999752044678 22.593999862670895 L 2.4651386737823486 22.559839248657223 L 2.4638123512268066 22.559289932250973 L 0.23478250205516815 21.635217666625973 L 0.10400000214576721 21.580999374389645 L 0.5619999766349792 20.475999832153317 L 1.1501678228378296 20.7198314666748 L 2.9221031665802 21.454410552978512 L 2.924541473388672 21.455421447753903 L 2.937999963760376 21.46100044250488 L 2.9254062175750732 21.491384506225582 L 3.4649999141693115 21.715000152587887 L 3.4775502681732178 21.684677124023434 L 3.9240000247955322 20.60600090026855 L 3.3703629970550537 20.377561569213864 L 3.36899995803833 20.377000808715817 L 3.383518934249878 20.34199714660644 L 2.0717947483062744 19.798204421997067 L 1.0219999551773071 19.363000869750973 L 1.4800000190734863 18.257999420166012 L 2.98717999458313 18.882820129394528 L 3.8420331478118896 19.237209320068356 L 3.8559999465942383 19.243000030517575 L 3.8431954383850098 19.27389335632324 L 4.382999897003174 19.497999191284176 L 4.395903587341309 19.466823577880856 L 4.8420000076293945 18.38899993896484 L 4.288000106811523 18.159000396728512 L 4.695000171661377 17.174999237060543 L 5.447999954223633 16.422000885009762 L 5.873000144958496 16.84700012207031 L 6.33545446395874 16.38400077819824 L 6.7210001945495605 15.998000144958493 L 6.296999931335449 15.57400035858154 L 6.3039960861206055 15.566995620727536 L 4.494999885559082 13.758000373840328 L 5.341000080108643 12.91199970245361 L 7.159999847412109 14.730999946594235 L 7.1554999351501465 14.735500335693356 L 7.570000171661377 15.14999961853027 L 7.574497222900391 15.145497322082516 L 8.192000389099121 14.527266502380368 L 8.418000221252441 14.300999641418453 L 8.192000389099121 14.074999809265133 L 7.99399995803833 13.8769998550415 L 8.00000286102295 13.87099742889404 L 6.190999984741211 12.06099987030029 L 7.0370001792907715 11.215000152587889 L 8.192000389099121 12.370635032653805 L 8.855999946594238 13.034999847412106 L 8.852988243103027 13.038011550903317 L 9.267000198364258 13.453000068664547 L 9.270383834838867 13.449611663818356 L 10.114999771118164 12.60400009155273 L 9.798999786376953 12.28800010681152 L 9.690999984741211 12.180000305175778 L 9.697002410888672 12.173997879028317 L 8.192000389099121 10.66816711425781 L 7.888000011444092 10.364000320434569 L 8.732999801635742 9.51799964904785 L 10.543000221252441 11.328000068664549 L 10.552000045776367 11.336999893188475 L 10.548999786376953 11.340000152587889 L 10.96399974822998 11.755000114440916 L 10.967000007629395 11.751999855041502 L 11.812000274658203 10.906999588012694 L 11.387999534606934 10.48299980163574 L 11.394002914428711 10.47699737548828 L 9.583999633789062 8.666000366210936 L 10.430000305175781 7.820000171661375 L 10.801795959472656 8.19200038909912 L 12.240002632141113 9.630997657775877 L 12.24899959564209 9.640000343322752 L 12.246000289916992 9.64299964904785 L 12.66100025177002 10.057999610900877 L 12.663886070251465 10.055113792419432 L 13.508999824523926 9.21000003814697 L 13.085000038146973 8.786000251770018 L 13.091500282287598 8.779500007629393 L 12.503999710083008 8.19200038909912 L 11.281000137329102 6.968999862670897 L 12.126999855041504 6.123000144958494 L 13.937002182006836 7.933997631072996 L 13.944999694824219 7.941999912261961 L 13.942001342773438 7.94500160217285 L 14.189000129699707 8.19200038909912 L 14.357999801635742 8.361000061035154 L 14.36088752746582 8.358116149902342 L 14.527199745178223 8.19200038909912 L 15.206999778747559 7.51300001144409 L 14.781999588012695 7.089000225067137 L 14.788002014160156 7.082997798919676 L 12.97700023651123 5.270999908447265 L 13.822999954223633 4.425000190734862 L 15.642000198364258 6.24499988555908 L 15.638999938964844 6.248000144958494 L 16.05500030517578 6.664000034332274 L 16.05788803100586 6.661116123199461 L 16.384000778198242 6.33538770675659 L 16.90399932861328 5.81599998474121 L 16.479000091552734 5.390999794006347 L 16.485004425048828 5.3850035667419425 L 16.384000778198242 5.2839999198913565 L 14.673999786376953 3.573999881744384 L 15.520000457763672 2.727999925613403 L 16.384000778198242 3.5920000076293936 L 16.66775131225586 3.875750541687011 L 16.668134689331055 3.8761343955993643 L 16.671525955200195 3.8795251846313468 L 16.88800048828125 4.09600019454956 L 17.339000701904297 4.546999931335448 L 17.335500717163086 4.550499916076659 L 17.75200080871582 4.967000007629394 L 17.755502700805664 4.9635019302368155 L 18.60099983215332 4.118999958038329 L 18.577999114990234 4.09600019454956 L 18.322900772094727 3.8409004211425772 L 18.176000595092773 3.694000005722045 L 18.925323486328125 2.9446763992309566 L 18.929000854492188 2.9409999847412105 L 19.913000106811523 2.533999919891357 L 19.913354873657227 2.5348529815673824 L 20.142852783203125 3.087646722793578 L 20.14299964904785 3.0880000591278067 L 21.25200080871582 2.6289999485015865 L 21.251853942871094 2.628646850585937 L 21.02199935913086 2.0750000476837154 L 21.044218063354492 2.0657844543457027 L 21.043724060058594 2.064594507217407 L 20.189050674438477 1.1102230246251565e-16 L 20.069000244140625 -0.28999999165534956 L 21.174999237060547 -0.7469999790191648 L 21.483919143676758 1.1102230246251565e-16 L 22.148611068725586 1.6072970628738399 L 22.148752212524414 1.6076368093490596 L 22.158000946044922 1.629999995231628 L 22.140222549438477 1.6373522281646724 L 22.360000610351562 2.170000076293945 L 22.37820053100586 2.162467241287231 L 23.4689998626709 1.7109999656677242 L 23.23900032043457 1.156000018119812 L 23.26001739501953 1.147301197052002 L 22.785072326660156 1.1102230246251565e-16 L 22.28499984741211 -1.2079999446868892 L 23.391000747680664 -1.664999961853027 L 24.07955551147461 1.1102230246251565e-16 L 24.374000549316406 0.7120000123977661 L 24.35712432861328 0.7189791202545166 L 24.576000213623047 1.2461825609207153 L 24.577999114990234 1.2510000467300415 L 24.59413719177246 1.2443150281906128 L 25.68600082397461 0.7919999957084655 L 25.457000732421875 0.23800000548362737 L 25.477169036865234 0.229644924402237 L 25.382200241088867 1.1102230246251565e-16 L 24.503000259399414 -2.1259999275207515 L 25.607999801635742 -2.5840001106262203 L 26.582603454589844 -0.2296995818614958 L 26.58275032043457 -0.2293462306261061 L 26.583101272583008 -0.2284982800483702 L 26.591999053955078 -0.20700000226497633 L 26.57392120361328 -0.19951319694519026 L 26.65675163269043 1.1102230246251565e-16 L 26.795000076293945 0.3330000042915345 L 26.812538146972656 0.32574146986007696 L 27.59956932067871 1.1102230246251565e-16 L 27.90399932861328 -0.12600000202655778 L 27.67420768737793 -0.6805000901222227 L 27.673999786376953 -0.6809999942779539 L 27.695016860961914 -0.6896988153457639 L 27.69487190246582 -0.6900521516799925 L 26.719999313354492 -3.0450000762939444 L 27.825000762939453 -3.502000093460082 L 28.79974937438965 -1.1473462581634517 L 28.80900001525879 -1.1249999999999996 L 28.792091369628906 -1.118006825447082 L 29.011999130249023 -0.5860000252723692 L 29.029184341430664 -0.5931122303009031 L 30.121000289916992 -1.0449999570846553 L 29.891000747680664 -1.598999977111816 L 29.912017822265625 -1.607698798179626 L 28.937000274658203 -3.9630000591278067 L 30.04199981689453 -4.421000003814696 L 31.025999069213867 -2.043999910354614 L 31.008743286132812 -2.036847591400146 L 31.229000091552734 -1.5039999485015865 L 31.246538162231445 -1.511258482933044 L 32.3380012512207 -1.9630000591278072 L 32.10900115966797 -2.51799988746643 L 32.12916946411133 -2.5263550281524654 L 31.204626083374023 -4.762000083923339 L 31.155000686645508 -4.881999969482421 L 32.2599983215332 -5.339000225067138 L 32.49861526489258 -4.762000083923339 L 32.768001556396484 -4.1106014251708975 L 33.23390197753906 -2.9840016365051265 L 33.234046936035156 -2.98364782333374 L 33.2346305847168 -2.982237339019775 L 33.24300003051758 -2.961999893188476 L 33.226112365722656 -2.9550151824951167 L 33.446998596191406 -2.4219999313354488 L 33.46348571777344 -2.4288439750671382 L 34.55500030517578 -2.8819999694824214 L 34.326438903808594 -3.434938192367553 L 34.32600021362305 -3.436000108718871 L 34.346168518066406 -3.4443550109863272 L 34.34602355957031 -3.444708824157714 L 33.80126190185547 -4.762000083923339 L 33.37200164794922 -5.800000190734862 L 34.47700119018555 -6.257999897003172 L 35.09629440307617 -4.762000083923339 L 35.452392578125 -3.901796340942382 L 35.46099853515625 -3.881000041961669 L 35.44292068481445 -3.8735132217407218 L 35.66400146484375 -3.3410000801086417 L 35.68153762817383 -3.3482584953308097 L 36.77299880981445 -3.7999999523162833 L 36.542999267578125 -4.3540000915527335 L 37.527000427246094 -4.762000083923339 L 38.59199905395508 -4.762000083923339 L 38.59199905395508 -4.552859306335448 L 38.59199905395508 -4.162000179290771 L 39.79100036621094 -4.162000179290771 L 39.79199981689453 -4.162000179290771 L 39.79199981689453 -4.735000133514403 L 39.79100036621094 -4.735000133514403 L 39.79100036621094 -4.762000083923339 L 39.79100036621094 -7.308000087738035 L 40.987998962402344 -7.308000087738035 L 40.98701095581055 -4.762000083923339 L 40.992000579833984 -4.762000083923339 L 40.992000579833984 -4.162000179290771 L 42.189998626708984 -4.162000179290771 L 42.19200134277344 -4.162000179290771 L 42.19200134277344 -4.736000061035155 L 42.189998626708984 -4.736000061035155 L 42.189998626708984 -4.762000083923339 L 42.189998626708984 -7.308000087738035 L 43.38600158691406 -7.308000087738035 L 43.38600158691406 -4.762000083923339 L 43.391998291015625 -4.762000083923339 L 43.391998291015625 -4.162000179290771 L 44.59000015258789 -4.162000179290771 L 44.59199905395508 -4.162000179290771 L 44.59199905395508 -4.736999988555907 L 44.59000015258789 -4.736999988555907 L 44.59000015258789 -4.762000083923339 L 44.59000015258789 -7.309000015258787 L 45.7859992980957 -7.309000015258787 L 45.7859992980957 -4.762000083923339 L 45.79199981689453 -4.762000083923339 L 45.79199981689453 -4.162000179290771 L 46.9900016784668 -4.162000179290771 L 46.992000579833984 -4.162000179290771 L 46.992000579833984 -4.736999988555907 L 46.9900016784668 -4.736999988555907 L 46.9900016784668 -4.762000083923339 L 46.9900016784668 -7.309999942779539 L 48.18600082397461 -7.309999942779539 L 48.18600082397461 -4.762000083923339 L 48.19200134277344 -4.762000083923339 L 48.19200134277344 -4.162000179290771 L 49.152000427246094 -4.162000179290771 L 49.38999938964844 -4.162000179290771 L 49.391998291015625 -4.162000179290771 L 49.391998291015625 -4.737999916076659 L 49.38999938964844 -4.737999916076659 L 49.38999938964844 -4.762000083923339 L 49.38999938964844 -7.309999942779539 L 50.58599853515625 -7.309999942779539 L 50.58599853515625 -4.762000083923339 L 50.59199905395508 -4.762000083923339 L 50.59199905395508 -4.162000179290771 L 51.790000915527344 -4.162000179290771 L 51.79199981689453 -4.162000179290771 L 51.79199981689453 -4.737999916076659 L 51.790000915527344 -4.737999916076659 L 51.790000915527344 -4.762000083923339 L 51.790000915527344 -7.310999870300291 L 52.986000061035156 -7.310999870300291 L 52.986000061035156 -4.762000083923339 L 52.992000579833984 -4.762000083923339 L 52.992000579833984 -4.162000179290771 L 54.189998626708984 -4.162000179290771 L 54.19200134277344 -4.162000179290771 L 54.19200134277344 -4.738999843597411 L 54.189998626708984 -4.738999843597411 L 54.189998626708984 -4.762000083923339 L 54.189998626708984 -7.311999797821043 L 55.38600158691406 -7.311999797821043 L 55.38600158691406 -4.762000083923339 L 55.391998291015625 -4.762000083923339 L 55.391998291015625 -4.162000179290771 L 56.59199905395508 -4.162000179290771 L 56.59199905395508 -4.762000083923339 L 57.34400177001953 -4.762000083923339 L 57.65700149536133 -4.762000083923339 L 58.64099884033203 -4.3540000915527335 L 58.4109992980957 -3.7999999523162833 L 59.52000045776367 -3.3410000801086417 L 59.75 -3.894999980926513 L 59.779720306396484 -3.882687330245971 L 59.779869079589844 -3.8830409049987784 L 60.14425277709961 -4.762000083923339 L 60.75199890136719 -6.228000164031981 L 61.856998443603516 -5.769999980926513 L 61.43912124633789 -4.762000083923339 L 60.884952545166016 -3.425248146057128 L 60.88480758666992 -3.4248945713043204 L 60.87200164794922 -3.394000053405761 L 60.8452262878418 -3.405097246170043 L 60.62900161743164 -2.8819999694824214 L 60.65523147583008 -2.8711104393005367 L 61.73699951171875 -2.4219999313354488 L 61.966854095458984 -2.9766464233398433 L 61.96699905395508 -2.976999998092651 L 61.99586868286133 -2.9650409221649165 L 62.74081802368164 -4.762000083923339 L 62.96799850463867 -5.30999994277954 L 64.072998046875 -4.85200023651123 L 64.03569030761719 -4.762000083923339 L 63.10060501098633 -2.506402969360351 L 63.0880012512207 -2.476000070571899 L 63.06209945678711 -2.486735105514526 L 62.84600067138672 -1.9630000591278072 L 62.87103271484375 -1.952638745307922 L 63.95500183105469 -1.5039999485015865 L 64.18399810791016 -2.0580000877380367 L 64.21253204345703 -2.0461921691894527 L 65.18599700927734 -4.392000198364257 L 66.29100036621094 -3.934000015258788 L 65.53600311279297 -2.114649057388305 L 65.30500030517578 -1.5579999685287471 L 65.28023529052734 -1.568262934684753 L 65.06300354003906 -1.0449999570846553 L 65.08784484863281 -1.0347164869308467 L 65.53600311279297 -0.8492317199707028 L 66.1719970703125 -0.5860000252723692 L 66.40093994140625 -1.1398535966873165 L 66.4010009765625 -1.1399999856948848 L 66.43071746826172 -1.1276987791061397 L 67.40299987792969 -3.4739999771118155 L 68.50800323486328 -3.016000032424926 L 67.53594970703125 -0.6702583432197569 L 67.5357437133789 -0.6697501540184019 L 67.52300262451172 -0.6389999985694883 L 67.49705505371094 -0.6497550606727598 L 67.27999877929688 -0.12600000202655778 L 67.30596923828125 -0.1152531653642653 L 67.58443450927734 1.1102230246251565e-16 L 68.38899993896484 0.3330000042915345 L 68.52725219726562 1.1102230246251565e-16 L 68.61900329589844 -0.22100000083446486 L 68.64751434326172 -0.20918753743171675 L 68.64787292480469 -0.2100501805543898 L 69.62000274658203 -2.5550000667572017 L 70.7249984741211 -2.096999883651733 L 69.85565948486328 1.1102230246251565e-16 L 69.75260162353516 0.24859710037708288 L 69.75260162353516 0.2486052662134171 L 69.73999786376953 0.2790000140666962 L 69.71443176269531 0.2684029042720795 L 69.49800109863281 0.7919999957084655 L 69.52303314208984 0.8023692965507506 L 70.60600280761719 1.2510000467300415 L 70.83585357666016 0.6973534822463989 L 70.83599853515625 0.6970000267028809 L 70.86453247070312 0.7088078856468201 L 71.15867614746094 1.1102230246251565e-16 L 71.83799743652344 -1.6369999647140498 L 72.94300079345703 -1.1790000200271602 L 72.4537353515625 1.1102230246251565e-16 L 71.95700073242188 1.1970000267028809 L 71.93225860595703 1.186745285987854 L 71.71499633789062 1.7109999656677242 L 71.73949432373047 1.7211369276046748 L 72.8239974975586 2.170000076293945 L 73.0530014038086 1.6150000095367427 L 73.08271026611328 1.6273241043090816 L 73.72799682617188 0.07011573761701594 L 73.7570571899414 1.1102230246251565e-16 L 74.05500030517578 -0.7189999818801878 L 75.16000366210938 -0.2610000073909758 L 75.05184173583984 1.1102230246251565e-16 L 74.54269409179688 1.2286903858184814 L 74.1875 2.0858435630798335 L 74.17500305175781 2.1159999370574947 L 74.14938354492188 2.105383396148681 L 73.93199920654297 2.6289999485015865 L 73.95796203613281 2.6397469043731685 L 75.04100036621094 3.0880000591278067 L 75.27100372314453 2.533999919891357 L 76.25499725341797 2.9409999847412105 L 77.00800323486328 3.694000005722045 L 76.86080932617188 3.841193199157714 L 76.60600280761719 4.09600019454956 L 76.58300018310547 4.118999958038329 L 77.35073852539062 4.8858346939086905 L 77.43199920654297 4.967000007629394 L 77.85600280761719 4.5430002212524405 L 77.86400604248047 4.550995349884032 L 78.31900024414062 4.09600019454956 L 79.66000366210938 2.7550001144409175 L 80.50599670410156 3.6010000705718985 L 80.01072692871094 4.09600019454956 L 78.68699645996094 5.4190001487731925 L 78.68199920654297 5.414002895355224 L 78.28099822998047 5.815000057220458 L 78.27999877929688 5.81599998474121 L 78.2848892211914 5.820886611938476 L 79.04673767089844 6.581836223602293 L 79.12899780273438 6.664000034332274 L 79.12999725341797 6.663000106811522 L 79.5530014038086 6.239999771118162 L 79.55999755859375 6.247000217437742 L 81.35700225830078 4.449999809265136 L 82.2030029296875 5.296000003814696 L 81.91999816894531 5.578844547271728 L 80.38300323486328 7.114999771118162 L 80.37947845458984 7.111471652984617 L 79.97900390625 7.511002540588377 L 79.9780044555664 7.5120010375976545 L 79.97699737548828 7.51300001144409 L 79.98088836669922 7.516887187957762 L 80.65679931640625 8.19200038909912 L 80.74374389648438 8.27883720397949 L 80.82599639892578 8.361000061035154 L 80.99500274658203 8.19200038909912 L 81.25 7.936999797821043 L 81.25700378417969 7.943999767303465 L 81.91999816894531 7.2810001373291 L 83.05400085449219 6.146999835968016 L 83.9000015258789 6.993000030517576 L 82.70099639892578 8.19200038909912 L 82.10299682617188 8.789999961853026 L 82.08100128173828 8.812000274658201 L 82.0770034790039 8.807999610900877 L 81.91999816894531 8.965000152587889 L 81.67500305175781 9.21000003814697 L 81.67900085449219 9.213999748229979 L 81.91999816894531 9.454999923706053 L 82.44120788574219 9.976210594177244 L 82.46082305908203 9.995825767517088 L 82.52300262451172 10.057999610900877 L 82.9469985961914 9.633999824523924 L 82.9540023803711 9.641005516052244 L 84.40380859375 8.19200038909912 L 84.75199890136719 7.843999862670897 L 85.5979995727539 8.689000129699705 L 83.79950714111328 10.48650550842285 L 83.77799987792969 10.50800037384033 L 83.77450561523438 10.50449752807617 L 83.37200164794922 10.906999588012694 L 83.3753890991211 10.910388946533201 L 84.13821411132812 11.6732120513916 L 84.15782928466797 11.692827224731444 L 84.22000122070312 11.755000114440916 L 84.64399719238281 11.331000328063963 L 84.6510009765625 11.338000297546385 L 86.4489974975586 9.539999961853026 L 87.29499816894531 10.385999679565428 L 85.47599792480469 12.204999923706051 L 85.47200012207031 12.201000213623043 L 85.38500213623047 12.28800010681152 L 85.06900024414062 12.60400009155273 L 85.072998046875 12.608002662658688 L 85.83475494384766 13.370658874511715 L 85.83476257324219 13.370664596557614 L 85.91699981689453 13.453000068664547 L 85.91899871826172 13.450997352600094 L 86.34100341796875 13.027999877929684 L 86.34850311279297 13.035499572753903 L 87.09600067138672 12.28800010681152 L 88.14700317382812 11.237000465393065 L 88.99299621582031 12.083000183105465 L 88.78777313232422 12.28800010681152 L 87.1729965209961 13.90100002288818 L 87.16950225830078 13.897500038146969 L 86.76699829101562 14.30000019073486 L 86.76599884033203 14.300999641418453 L 86.76927947998047 14.304280281066891 L 87.5317611694336 15.067666053771969 L 87.61399841308594 15.14999961853027 L 87.61499786376953 15.149000167846676 L 88.03849792480469 14.72550010681152 L 88.03900146484375 14.725000381469723 L 88.04549407958984 14.731503486633297 L 89.84400177001953 12.932999610900875 L 90.69000244140625 13.779000282287594 L 90.11199951171875 14.357000350952145 L 88.87100219726562 15.597999572753903 L 88.86699676513672 15.593999862670895 L 88.46299743652344 15.998000144958493 L 88.46699523925781 16.00200271606445 L 88.84854888916016 16.38400077819824 L 89.31099700927734 16.84700012207031 L 89.73600006103516 16.422000885009762 L 90.48532104492188 17.171323776245114 L 90.48899841308594 17.174999237060543 L 90.89600372314453 18.159000396728512 L 90.89514923095703 18.159353256225582 L 90.7019271850586 18.239570617675778 L 90.34200286865234 18.38899993896484 L 90.8010025024414 19.497999191284176 L 91.3550033569336 19.267999649047848 L 91.36402130126953 19.289741516113278 L 91.36985778808594 19.303819656372067 L 91.37104034423828 19.303331375122067 L 93.74400329589844 18.32299995422363 L 94.18072509765625 19.37897682189941 L 94.20099639892578 19.427999496459957 L 91.82868194580078 20.409063339233395 L 91.82835388183594 20.409198760986325 L 91.8239974975586 20.4109992980957 L 91.81068420410156 20.37878036499023 L 91.26000213623047 20.60600090026855 L 91.27351379394531 20.638650894165036 L 91.7140121459961 21.702953338623043 L 91.71900177001953 21.715000152587887 L 92.27400207519531 21.48500061035156 L 92.28839111328125 21.51977157592773 L 94.66100311279297 20.538999557495114 L 95.09788513183594 21.596324920654293 L 95.11799621582031 21.64500045776367 L 92.74568939208984 22.62465095520019 L 92.73999786376953 22.627000808715817 L 92.72732543945312 22.59635543823242 L 92.17900085449219 22.823999404907223 L 92.1912612915039 22.853601455688473 L 92.63286590576172 23.919601440429684 L 92.63800048828125 23.931999206542965 L 93.19200134277344 23.70299911499023 L 93.20640563964844 23.737766265869137 L 95.5780029296875 22.75699996948242 L 96.01482391357422 23.81417655944824 L 96.03500366210938 23.863000869750973 L 94.30913543701172 24.57600021362304 L 93.6648941040039 24.842151641845696 L 93.65799713134766 24.844999313354485 L 93.64497375488281 24.81350135803222 L 93.09700012207031 25.04100036621093 L 93.1096420288086 25.071540832519524 L 93.55599975585938 26.149999618530266 L 94.11100006103516 25.920000076293938 L 94.12000274658203 25.9417495727539 L 94.1250991821289 25.954067230224602 L 96.49500274658203 24.97500038146972 L 96.94620513916016 26.066972732543938 L 96.9520034790039 26.08099937438964 L 94.58309936523438 27.059654235839837 L 94.58274841308594 27.05979919433593 L 94.57499694824219 27.06299972534179 L 94.5695571899414 27.049827575683587 L 94.56227111816406 27.032194137573235 L 94.01599884033203 27.25799942016601 L 94.02333068847656 27.275716781616204 L 94.02870178222656 27.288690567016594 L 94.4749984741211 28.367000579833977 L 95.02864837646484 28.137145996093743 L 95.02899932861328 28.136999130249016 L 95.03800201416016 28.158748626708977 L 95.04330444335938 28.171569824218743 L 97.41300201416016 27.193000793457024 L 97.85010528564453 28.249891281127923 L 97.87000274658203 28.298000335693352 L 96.96524810791016 28.67200088500976 L 95.49199676513672 29.281000137329094 L 95.47906494140625 29.24969291687011 L 94.93399810791016 29.47500038146972 L 94.94696044921875 29.50630569458007 L 95.38801574707031 30.57195281982421 L 95.39299774169922 30.583999633789055 L 95.947998046875 30.35499954223632 L 95.96202850341797 30.38885879516601 L 98.30400085449219 29.42173767089843 L 98.33000183105469 29.410999298095696 L 98.76689910888672 30.467390060424798 L 98.78700256347656 30.516000747680657 L 98.30400085449219 30.715456008911126 L 96.41967010498047 31.493593215942376 L 96.41931915283203 31.49373817443847 L 96.40899658203125 31.497999191284173 L 96.39634704589844 31.46741294860839 L 95.85199737548828 31.693000793457024 L 95.86441040039062 31.72289085388183 L 96.29830169677734 32.76800155639648 L 96.30650329589844 32.78775405883788 L 96.31199645996094 32.80099868774413 L 96.39183044433594 32.76800155639648 L 96.86599731445312 32.5719985961914 L 96.88037872314453 32.60671234130859 L 96.88072967529297 32.60656738281249 L 98.30400085449219 32.01857757568359 L 99.24700164794922 31.628999710083 L 99.68333435058594 32.684036254882805 L 99.7040023803711 32.73400115966796 L 99.62166595458984 32.76800155639648 L 98.30400085449219 33.31213378906249 L 97.3371810913086 33.71138381958007 L 97.32599639892578 33.71599960327148 L 97.31317138671875 33.68490982055663 L 96.77100372314453 33.9099998474121 L 96.78343963623047 33.940052032470696 L 97.2300033569336 35.01900100708007 L 97.78399658203125 34.78900146484374 L 98.19200134277344 35.772998809814446 L 98.19200134277344 36.838001251220696 L 97.59200286865234 36.838001251220696 L 97.59200286865234 38.03799819946288 L 98.19200134277344 38.03799819946288 L 98.19200134277344 38.047012329101555 L 98.30400085449219 38.0470962524414 L 100.7509994506836 38.048999786376946 L 100.75 39.24499893188476 L 98.30400085449219 39.24309921264648 L 98.19200134277344 39.24301147460937 L 98.1780014038086 39.24300003051757 L 98.1780014038086 39.23799896240234 L 97.59200286865234 39.23799896240234 L 97.59200286865234 39.24254608154296 L 97.59200286865234 40.43799972534179 L 98.19200134277344 40.43799972534179 L 98.19200134277344 40.4460105895996 L 98.30400085449219 40.44609832763671 L 100.75 40.44800186157226 L 100.7490005493164 41.64400100708007 L 98.30400085449219 41.642097473144524 L 98.19200134277344 41.64201354980468 L 98.177001953125 41.64199829101562 L 98.177001953125 41.63800048828124 L 97.59200286865234 41.63800048828124 L 97.59200286865234 41.64154434204101 L 97.59200286865234 42.838001251220696 L 98.19200134277344 42.838001251220696 L 98.19200134277344 42.84601211547851 L 98.30400085449219 42.84609985351562 L 100.7490005493164 42.8479995727539 L 100.7490005493164 44.04399871826171 L 98.30400085449219 44.04209899902343 L 98.19200134277344 44.04201126098632 L 98.1760025024414 44.041999816894524 L 98.1760025024414 44.03799819946288 L 97.59200286865234 44.03799819946288 L 97.59200286865234 44.041545867919915 L 97.59200286865234 45.23799896240234 L 98.19200134277344 45.23799896240234 L 98.19200134277344 45.246013641357415 L 98.30400085449219 45.246101379394524 L 100.7490005493164 45.248001098632805 L 100.74800109863281 46.44400024414062 L 98.30400085449219 46.44210052490234 L 98.19200134277344 46.44201278686523 L 98.17500305175781 46.44200134277343 L 98.17500305175781 46.43799972534179 L 97.59200286865234 46.43799972534179 L 97.59200286865234 46.44154739379882 L 97.59200286865234 47.63800048828124 L 98.19200134277344 47.63800048828124 L 98.19200134277344 47.646011352539055 L 98.30400085449219 47.646099090576165 L 100.74800109863281 47.647998809814446 L 100.74700164794922 48.84400177001952 L 98.30400085449219 48.842102050781236 L 98.19200134277344 48.842014312744126 L 98.17500305175781 48.841999053955064 L 98.17500305175781 48.83800125122069 L 97.59200286865234 48.83800125122069 L 97.59200286865234 48.841545104980455 L 97.59200286865234 49.15200042724608 L 97.59200286865234 50.037998199462876 L 98.19200134277344 50.037998199462876 L 98.19200134277344 50.046012878417955 L 98.30400085449219 50.046100616455064 L 100.74700164794922 50.048000335693345 L 100.74600219726562 51.24399948120116 L 98.30400085449219 51.242099761962876 L 98.19200134277344 51.24201583862303 L 98.17400360107422 51.24200057983397 L 98.17400360107422 51.23799896240233 L 97.59200286865234 51.23799896240233 L 97.59200286865234 51.24154663085936 L 97.59200286865234 52.43799972534178 L 98.19200134277344 52.43799972534178 L 98.19200134277344 52.44601440429686 L 98.30400085449219 52.44610214233397 L 100.74600219726562 52.44800186157225 L 100.74500274658203 53.644001007080064 L 98.30400085449219 53.64210128784178 L 98.19200134277344 53.64201354980467 L 98.1729965209961 53.64199829101561 L 98.17300415039062 53.638000488281236 L 97.59200286865234 53.638000488281236 L 97.59200286865234 53.64154815673827 L 97.59200286865234 54.83800125122069 L 98.19200134277344 54.83800125122069 L 98.19200134277344 55.90299987792967 L 97.78399658203125 56.88700103759764 L 97.2300033569336 56.657001495361314 L 96.94566345214844 57.34400177001952 L 96.77100372314453 57.76599884033202 L 97.32499694824219 57.995998382568345 L 97.30929565429688 58.03391265869139 L 98.30400085449219 58.44669723510741 L 99.65899658203125 59.008998870849595 L 99.19999694824219 60.11399841308592 L 98.30400085449219 59.74179840087889 L 96.85205841064453 59.13865661621092 L 96.8239974975586 59.12699890136717 L 96.83831787109375 59.09255981445311 L 96.31199645996094 58.874999999999986 L 96.29808044433594 58.90853118896483 L 95.85199737548828 59.98300170898436 L 96.40699768066406 60.21300125122069 L 96.39185333251953 60.24956893920897 L 98.30400085449219 61.043884277343736 L 98.73999786376953 61.22499847412108 L 98.28099822998047 62.33000183105467 L 96.13850402832031 61.43999862670897 L 95.93391418457031 61.35501098632811 L 95.90499877929688 61.34299850463866 L 95.9190902709961 61.309074401855455 L 95.39299774169922 61.091999053955064 L 95.37947082519531 61.12469100952147 L 95.24897003173828 61.43999862670897 L 94.93399810791016 62.20100021362303 L 95.4876480102539 62.42985534667967 L 95.48799896240234 62.43000030517577 L 95.47271728515625 62.46693038940428 L 97.81999969482422 63.44200134277342 L 97.36100006103516 64.54599761962889 L 95.01527404785156 63.57215499877928 L 95.01492309570312 63.57201004028319 L 94.98600006103516 63.560001373291 L 94.99974060058594 63.52685165405272 L 94.4749984741211 63.30899810791014 L 94.46127319335938 63.342155456542955 L 94.01599884033203 64.41799926757811 L 94.56999969482422 64.64700317382811 L 94.55457305908203 64.6842803955078 L 94.55492401123047 64.68442535400389 L 96.60613250732422 65.53600311279295 L 96.9000015258789 65.65799713134764 L 96.44200134277344 66.76300048828124 L 94.09733581542969 65.7890167236328 L 94.06600189208984 65.77600097656249 L 94.07970428466797 65.74303436279295 L 93.58013153076172 65.53600311279295 L 93.55599975585938 65.52600097656249 L 93.55186462402344 65.53600311279295 L 93.54252624511719 65.5585479736328 L 93.09700012207031 66.63500213623045 L 93.6510009765625 66.86499786376952 L 93.6357650756836 66.90177154541014 L 93.63663482666016 66.90213012695311 L 95.98100280761719 67.87499999999999 L 95.52200317382812 68.98000335693358 L 93.17939758300781 68.00687408447264 L 93.17818450927734 68.00637054443358 L 93.17817687988281 68.00636291503905 L 93.14600372314453 67.9929962158203 L 93.15984344482422 67.95970916748045 L 92.63800048828125 67.74400329589842 L 92.62458038330078 67.77639770507811 L 92.17900085449219 68.85199737548827 L 92.17935180664062 68.85214996337889 L 92.7326431274414 69.08185577392577 L 92.73300170898438 69.08200073242186 L 92.71783447265625 69.11863708496092 L 92.71903991699219 69.11914062499999 L 93.95364379882812 69.63200378417967 L 95.06099700927734 70.09200286865233 L 94.60199737548828 71.19699859619139 L 92.2608642578125 70.2240753173828 L 92.26039123535156 70.22387695312499 L 92.22699737548828 70.20999908447264 L 92.24060821533203 70.17716217041014 L 91.71900177001953 69.96099853515624 L 91.70561981201172 69.99332427978514 L 91.26000213623047 71.0699996948242 L 91.81500244140625 71.2990036010742 L 91.7996597290039 71.3359909057617 L 94.14099884033203 72.30899810791014 L 93.68299865722656 73.41400146484374 L 91.34122467041016 72.4412155151367 L 91.30699920654297 72.42700195312499 L 91.32079315185547 72.39379882812499 L 90.8010025024414 72.17800140380858 L 90.78729248046875 72.2111129760742 L 90.34200286865234 73.28700256347655 L 90.89514923095703 73.51664733886717 L 90.89600372314453 73.51699829101561 L 90.80872344970703 73.72799682617186 L 90.48899841308594 74.50099945068358 L 90.11199951171875 74.87799835205077 L 89.73600006103516 75.25399780273436 L 89.73500061035156 75.25299835205077 L 89.31099700927734 74.82900238037108 L 88.46299743652344 75.67800140380858 L 88.88700103759766 76.10199737548827 L 88.87199401855469 76.1170196533203 L 90.11199951171875 77.35839080810545 L 90.66500091552734 77.91200256347655 L 89.81900024414062 78.75700378417967 L 88.88702392578125 77.82399749755858 L 88.02699279785156 76.96302032470702 L 88.0264892578125 76.96251678466795 L 88.0009994506836 76.93699645996092 L 88.01300811767578 76.92501068115233 L 87.61499786376953 76.52700042724608 L 87.61399841308594 76.52600097656249 L 87.60222625732422 76.53778839111327 L 86.76599884033203 77.37499999999999 L 86.76699829101562 77.37599945068358 L 87.19000244140625 77.7990036010742 L 87.17647552490234 77.81253051757811 L 87.17748260498047 77.81353759765624 L 87.18791961669922 77.82399749755858 L 88.96800231933594 79.60800170898436 L 88.12200164794922 80.45300292968749 L 86.32998657226562 78.6590118408203 L 86.30400085449219 78.63300323486327 L 86.3150405883789 78.62197875976561 L 85.91699981689453 78.22299957275389 L 85.90572357177734 78.23429107666014 L 85.06900024414062 79.07199859619139 L 85.49299621582031 79.49600219726561 L 85.47898864746094 79.51001739501952 L 87.27100372314453 81.30400085449217 L 86.42400360107422 82.1490020751953 L 86.19538116455078 81.9199981689453 L 84.63347625732422 80.3555221557617 L 84.60700225830078 80.32900238037108 L 84.61750793457031 80.31850433349608 L 84.22000122070312 79.92099761962889 L 84.20983123779297 79.93117523193358 L 83.37200164794922 80.7689971923828 L 83.7959976196289 81.19300079345702 L 83.78197479248047 81.20702362060545 L 84.49378204345703 81.9199981689453 L 85.572998046875 83.00099945068358 L 84.72699737548828 83.8460006713867 L 82.93598175048828 82.05301666259764 L 82.90899658203125 82.02600097656249 L 82.91999816894531 82.01499938964842 L 82.82499694824219 81.9199981689453 L 82.52300262451172 81.6179962158203 L 82.51221466064453 81.62878417968749 L 82.22100067138672 81.9199981689453 L 81.91999816894531 82.2210006713867 L 81.67500305175781 82.46600341796874 L 81.91999816894531 82.71099853515624 L 82.0989990234375 82.88999938964842 L 82.08497619628906 82.90402221679686 L 83.875 84.69699859619139 L 83.02899932861328 85.54199981689452 L 81.91999816894531 84.43177795410155 L 81.23898315429688 83.75001525878905 L 81.21099853515625 83.7220001220703 L 81.22201538085938 83.7110137939453 L 80.82599639892578 83.31500244140624 L 80.8152084350586 83.32577514648436 L 79.97699737548828 84.16300201416014 L 80.4020004272461 84.58699798583983 L 80.38797760009766 84.60102081298827 L 81.80062103271484 86.01599884033202 L 81.91999816894531 86.1355743408203 L 82.1780014038086 86.3939971923828 L 81.33100128173828 87.23899841308592 L 80.9045639038086 86.81185913085936 L 80.11001586914062 86.01599884033202 L 79.51399993896484 85.4189987182617 L 79.5250015258789 85.40799713134764 L 79.12899780273438 85.01200103759764 L 79.11831665039062 85.02266693115233 L 78.27999877929688 85.86000061035155 L 78.43599700927734 86.01599884033202 L 78.70500183105469 86.28500366210936 L 78.69097900390625 86.29901123046874 L 78.69098663330078 86.29901885986327 L 79.70066833496094 87.30980682373045 L 80.4800033569336 88.08999633789061 L 79.63400268554688 88.93499755859374 L 78.50471496582031 87.80447387695311 L 77.8454818725586 87.14451599121092 L 77.81600189208984 87.11499786376952 L 77.8270034790039 87.10400390624999 L 77.43199920654297 86.70899963378905 L 77.42121124267578 86.7197799682617 L 76.58300018310547 87.55699920654295 L 77.00800323486328 87.98200225830077 L 76.25499725341797 88.73500061035155 L 75.27100372314453 89.14199829101561 L 75.27064514160156 89.14114379882811 L 75.04100036621094 88.58799743652342 L 73.93199920654297 89.04699707031249 L 74.16200256347656 89.60099792480467 L 74.15985107421875 89.60189056396483 L 74.15853881835938 89.60243225097655 L 74.37000274658203 90.11199951171874 L 74.78577423095703 91.11391448974608 L 74.96065521240234 91.53532409667967 L 75.11399841308594 91.90484619140624 L 75.11331176757812 91.90512847900389 L 74.94214630126953 91.97622680664061 L 74.00984191894531 92.36299896240233 L 73.17660522460938 90.35714721679686 L 73.07487487792969 90.11199951171874 L 73.05360412597656 90.06075286865233 L 73.05349731445312 90.06079101562499 L 73.0530014038086 90.06099700927733 L 72.96666717529297 89.85176849365233 L 72.92963409423828 89.7620162963867 L 72.8239974975586 89.50599670410155 L 72.82347869873047 89.50621795654295 L 72.82317352294922 89.50634002685545 L 72.79109191894531 89.51962280273436 L 71.71499633789062 89.96499633789061 L 71.77591705322266 90.11199951171874 L 71.94499969482422 90.51999664306639 L 71.94148254394531 90.52145385742186 L 72.89700317382812 92.82399749755858 L 72.86111450195312 92.83887481689452 L 72.72515106201172 92.89522552490233 L 71.7928466796875 93.28199768066405 L 71.79271697998047 93.28170013427733 L 70.95960235595703 91.27614593505858 L 70.83625030517578 90.97889709472655 L 70.83614349365234 90.97894287109374 L 70.83599853515625 90.97899627685545 L 70.60600280761719 90.4250030517578 L 70.57430267333984 90.43813323974608 L 69.49800109863281 90.88400268554686 L 69.72699737548828 91.43800354003905 L 69.72484588623047 91.43888854980467 L 69.72398376464844 91.43924713134764 L 70.13871765136719 92.43864440917967 L 70.68000030517578 93.7429962158203 L 70.67887115478516 93.74346923828124 L 70.50814819335938 93.81423187255858 L 69.57584381103516 94.20184326171874 L 69.57542419433594 94.20082855224608 L 69.04967498779297 92.93519592285155 L 68.74260711669922 92.19599151611327 L 68.58905792236328 91.82597351074217 L 68.58899688720703 91.82584381103514 L 68.58939361572266 91.82568359374999 L 68.38899993896484 91.34300231933592 L 68.38867950439453 91.34313201904295 L 68.38837432861328 91.34326171874999 L 67.27999877929688 91.80200195312499 L 67.51000213623047 92.35700225830077 L 67.50785064697266 92.35788726806639 L 67.5069808959961 92.35824584960936 L 67.92171478271484 93.35764312744139 L 68.27459716796875 94.20800018310545 L 68.46299743652344 94.66200256347655 L 68.46186828613281 94.66246795654295 L 68.29115295410156 94.7332305908203 L 67.35884094238281 95.12084197998045 L 67.3584213256836 95.1198272705078 L 66.95234680175781 94.14228057861327 L 66.52560424804688 93.11499023437499 L 66.40145111083984 92.81581115722655 L 66.4013442993164 92.81585693359374 L 66.4010009765625 92.81600189208983 L 66.31969451904297 92.61930084228514 L 66.26663970947266 92.49095153808592 L 66.1719970703125 92.26200103759764 L 66.17168426513672 92.26213073730467 L 66.17137908935547 92.2622604370117 L 65.53600311279297 92.52523040771483 L 65.06300354003906 92.7210006713867 L 65.29299926757812 93.27500152587889 L 65.29084777832031 93.27588653564452 L 65.2893295288086 93.27651977539061 L 65.28939056396484 93.2766647338867 L 65.53600311279297 93.87093353271483 L 66.01658630371094 95.02902221679686 L 66.09265899658203 95.21232604980467 L 66.24600219726562 95.58184814453124 L 66.24552154541016 95.58204650878905 L 66.07415008544922 95.65322875976561 L 65.141845703125 96.04000091552732 L 64.38082122802734 94.20800018310545 L 64.30860900878906 94.03414916992186 L 64.18424987792969 93.73448181152342 L 64.18404388427734 93.73398590087889 L 64.18399810791016 93.73400115966795 L 64.17158508300781 93.70397186279295 L 64.15499877929688 93.66400146484374 L 64.1550521850586 93.66397857666014 L 64.15499877929688 93.66384124755858 L 63.95500183105469 93.18000030517577 L 63.95427322387695 93.18029785156249 L 63.9539680480957 93.18042755126952 L 63.92209243774414 93.19361877441405 L 62.84600067138672 93.63899993896483 L 63.07500076293945 94.19400024414061 L 63.072181701660156 94.19516754150389 L 63.07750701904297 94.20800018310545 L 63.87565612792969 96.13132476806638 L 64.02899932861328 96.50084686279294 L 63.99327850341797 96.51568603515622 L 63.85715103149414 96.57222747802732 L 62.924842834472656 96.95899963378903 L 62.36756134033203 95.61746215820311 L 62.09160614013672 94.95314788818358 L 61.967041015625 94.65298461914061 L 61.96699905395508 94.65299987792967 L 61.931427001953125 94.56716156005858 L 61.78258514404297 94.20800018310545 L 61.73699951171875 94.09799957275389 L 61.73677062988281 94.09809112548827 L 61.73646545410156 94.0982208251953 L 61.472042083740234 94.20800018310545 L 61.439998626708984 94.22130584716795 L 60.62900161743164 94.55799865722655 L 60.858001708984375 95.11199951171874 L 60.85600662231445 95.11282348632811 L 60.855716705322266 95.11294555664061 L 61.330745697021484 96.25599670410153 L 61.439998626708984 96.51889801025388 L 61.660499572753906 97.04948425292966 L 61.81399917602539 97.41899871826169 L 61.7774772644043 97.43417358398435 L 60.70899963378906 97.87799835205075 L 60.02715301513672 96.23492431640622 L 59.87660598754883 95.8721466064453 L 59.751285552978516 95.57046508789061 L 59.75 95.5709991455078 L 59.52000045776367 95.01699829101561 L 58.4109992980957 95.47599792480467 L 58.64099884033203 96.02999877929685 L 58.09593963623047 96.25599670410153 L 57.65700149536133 96.43800354003903 L 57.34400177001953 96.43800354003903 L 56.59199905395508 96.43800354003903 L 56.59199905395508 95.83799743652342 L 55.394378662109375 95.83799743652342 L 55.39437484741211 95.83799743652342 L 55.391998291015625 95.83799743652342 L 55.391998291015625 96.37200164794919 L 55.39500045776367 96.37200164794919 L 55.39500045776367 96.37200164794919 L 55.395076751708984 96.43800354003903 L 55.395774841308594 97.03800201416013 L 55.39725112915039 98.30400085449216 L 55.39753341674805 98.5432205200195 L 55.39799880981445 98.94484710693357 L 55.21114730834961 98.94499969482419 L 54.20184326171875 98.94584655761716 L 54.20184326171875 98.94584655761716 L 54.20109558105469 98.30400085449216 L 54.19961929321289 97.03800201416013 L 54.199310302734375 96.77449798583982 L 54.19905090332031 96.43800354003903 L 54.19892120361328 96.43800354003903 L 54.19200134277344 96.43800354003903 L 54.19200134277344 95.83799743652342 L 53.24800109863281 95.83799743652342 L 52.99437713623047 95.83799743652342 L 52.9943733215332 95.83799743652342 L 52.992000579833984 95.83799743652342 L 52.992000579833984 96.25599670410153 L 52.992000579833984 96.37384033203122 L 52.994998931884766 96.37384033203122 L 52.997249603271484 98.30400085449216 L 52.99753189086914 98.5442199707031 L 52.99800109863281 98.94599914550778 L 52.8111457824707 98.94615936279294 L 51.80184555053711 98.94699859619138 L 51.80184555053711 98.94699859619138 L 51.80109405517578 98.30400085449216 L 51.799312591552734 96.77565002441403 L 51.799049377441406 96.43800354003903 L 51.798919677734375 96.43800354003903 L 51.79199981689453 96.43800354003903 L 51.79199981689453 96.25599670410153 L 51.79199981689453 95.83799743652342 L 50.59437561035156 95.83799743652342 L 50.59437561035156 95.83799743652342 L 50.59199905395508 95.83799743652342 L 50.59199905395508 96.25599670410153 L 50.59199905395508 96.37484741210935 L 50.595001220703125 96.37484741210935 L 50.597251892089844 98.30400085449216 L 50.597530364990234 98.54521942138669 L 50.597999572753906 98.94699859619138 L 50.4111442565918 98.94715881347653 L 49.4018440246582 98.94799804687497 L 49.4018440246582 98.94799804687497 L 49.401092529296875 98.30400085449216 L 49.39931106567383 96.7774963378906 L 49.3990478515625 96.43800354003903 L 49.3989143371582 96.43800354003903 L 49.391998291015625 96.43800354003903 L 49.391998291015625 96.25599670410153 L 49.391998291015625 95.83799743652342 L 49.152000427246094 95.83799743652342 L 48.194374084472656 95.83799743652342 L 48.19437026977539 95.83799743652342 L 48.19200134277344 95.83799743652342 L 48.19200134277344 96.37599945068357 L 48.19499969482422 96.37599945068357 L 48.19499969482422 96.37599945068357 L 48.19724655151367 98.30400085449216 L 48.197532653808594 98.54722595214841 L 48.198001861572266 98.94884490966794 L 48.011085510253906 98.94899749755857 L 47.0018424987793 98.94984436035153 L 47.0018424987793 98.94984436035153 L 47.00109100341797 98.30400085449216 L 46.99931335449219 96.7793045043945 L 46.999046325683594 96.43800354003903 L 46.99891662597656 96.43800354003903 L 46.992000579833984 96.43800354003903 L 46.992000579833984 95.83799743652342 L 45.79437255859375 95.83799743652342 L 45.794368743896484 95.83799743652342 L 45.79199981689453 95.83799743652342 L 45.79199981689453 96.37784576416013 L 45.79499816894531 96.37784576416013 L 45.797245025634766 98.30400085449216 L 45.79753112792969 98.548225402832 L 45.79800033569336 98.94999694824216 L 45.611087799072266 98.95015716552732 L 44.601844787597656 98.95099639892575 L 44.601844787597656 98.95099639892575 L 44.60108947753906 98.30400085449216 L 44.59931182861328 96.78130340576169 L 44.59904479980469 96.43800354003903 L 44.59891128540039 96.43800354003903 L 44.59199905395508 96.43800354003903 L 44.59199905395508 95.83799743652342 L 43.39436721801758 95.83799743652342 L 43.391998291015625 95.83799743652342 L 43.391998291015625 96.37900543212888 L 43.39500045776367 96.37899780273435 L 43.39724349975586 98.30400085449216 L 43.39799880981445 98.95099639892575 L 43.21108627319336 98.95115661621091 L 42.20184326171875 98.95200347900388 L 42.20184326171875 98.95199584960935 L 42.201087951660156 98.30400085449216 L 42.19931411743164 96.78230285644528 L 42.19904327392578 96.43800354003903 L 42.198909759521484 96.43800354003903 L 42.19200134277344 96.43800354003903 L 42.19200134277344 95.83799743652342 L 40.996578216552734 95.83799743652342 L 40.996578216552734 95.83799743652342 L 40.992000579833984 95.83799743652342 L 40.992000579833984 96.38000488281247 L 40.99699783325195 96.37999725341794 L 40.99700164794922 96.37999725341794 L 40.998497009277344 98.30400085449216 L 40.998687744140625 98.55053710937497 L 40.999000549316406 98.95284271240232 L 39.803001403808594 98.95384216308591 L 39.802494049072266 98.30400085449216 L 39.80177688598633 97.38120269775388 L 39.801509857177734 97.03800201416013 L 39.80131149291992 96.78330230712888 L 39.80091094970703 96.43800354003903 L 39.79199981689453 96.43800354003903 L 39.79199981689453 95.83799743652342 L 38.59199905395508 95.83799743652342 L 38.59199905395508 96.43800354003903 L 37.527000427246094 96.43800354003903 L 36.86399841308594 96.16310119628903 L 36.542999267578125 96.02999877929685 L 36.77299880981445 95.47599792480467 L 35.66400146484375 95.01699829101561 L 35.433998107910156 95.5709991455078 L 35.400535583496094 95.55713653564452 L 35.400390625 95.55748748779295 L 34.78813171386719 97.03800201416013 L 34.43000030517578 97.90399932861325 L 33.32500076293945 97.44699859619138 L 33.49396896362305 97.03800201416013 L 34.29481506347656 95.09949493408202 L 34.30699920654297 95.0699996948242 L 34.33805465698242 95.08283233642577 L 34.55500030517578 94.55799865722655 L 34.523860931396484 94.54507446289061 L 33.71195602416992 94.20800018310545 L 33.446998596191406 94.09799957275389 L 33.40141296386719 94.20800018310545 L 33.21699905395508 94.65299987792967 L 33.182979583740234 94.63890838623045 L 33.18268585205078 94.63878631591795 L 32.768001556396484 95.64196777343749 L 32.365447998046875 96.61579132080075 L 32.21200180053711 96.9868469238281 L 31.10700035095215 96.52984619140622 L 31.936552047729492 94.52305603027342 L 32.06684112548828 94.20800018310545 L 32.07807159423828 94.18084716796874 L 32.07830047607422 94.18029022216795 L 32.09000015258789 94.15200042724608 L 32.12103271484375 94.16483306884764 L 32.3380012512207 93.63899993896483 L 32.30738830566406 93.62632751464842 L 32.307254791259766 93.6262741088867 L 31.229000091552734 93.18000030517577 L 31 93.73400115966795 L 30.966196060180664 93.72000885009764 L 30.966114044189453 93.72020721435545 L 30.764389038085938 94.20800018310545 L 30.148340225219727 95.69766998291014 L 29.9950008392334 96.0690002441406 L 28.888999938964844 95.61199951171874 L 29.469619750976562 94.20800018310545 L 29.718503952026367 93.60617065429686 L 29.860666275024414 93.2622604370117 L 29.871999740600586 93.23484039306639 L 29.872055053710938 93.23486328124999 L 29.90244483947754 93.24743652343749 L 30.121000289916992 92.7210006713867 L 30.089887619018555 92.70812225341795 L 30.089754104614258 92.70806884765624 L 29.011999130249023 92.26200103759764 L 28.78306007385254 92.81585693359374 L 28.783000946044922 92.81600189208983 L 28.748531341552734 92.80173492431639 L 28.166975021362305 94.20800018310545 L 27.777000427246094 95.15100097656249 L 26.672000885009766 94.69400024414061 L 26.872983932495117 94.20800018310545 L 27.50124168395996 92.68880462646483 L 27.643739700317383 92.34387969970702 L 27.654844284057617 92.31700134277342 L 27.654977798461914 92.31705474853514 L 27.685352325439453 92.32960510253905 L 27.68537139892578 92.32955932617186 L 27.90399932861328 91.80200195312499 L 27.873241424560547 91.78926849365233 L 27.87291717529297 91.7891387939453 L 26.795000076293945 91.34300231933592 L 26.565000534057617 91.89700317382811 L 26.531906127929688 91.88329315185545 L 26.530902862548828 91.88287353515624 L 25.71360206604004 93.86203765869139 L 25.570531845092773 94.20800018310545 L 25.559843063354492 94.2338409423828 L 25.38700294494629 94.16236114501952 L 24.45400047302246 93.77684020996092 L 24.45412254333496 93.7765426635742 L 24.576000213623047 93.48171234130858 L 25.283241271972656 91.7708053588867 L 25.437000274658203 91.3990020751953 L 25.46784782409668 91.41175842285155 L 25.68600082397461 90.88400268554686 L 25.655244827270508 90.87126159667967 L 25.65511131286621 90.87120056152342 L 24.577999114990234 90.4250030517578 L 24.576000213623047 90.42981719970702 L 24.347999572753906 90.97899627685545 L 24.314048767089844 90.96495056152342 L 23.495601654052734 92.94403839111327 L 23.341999053955078 93.31600189208983 L 23.169002532958984 93.24451446533202 L 22.23684310913086 92.85900115966795 L 23.06524085998535 90.85380554199217 L 23.218976974487305 90.48189544677733 L 23.2189998626709 90.48184204101561 L 23.24957275390625 90.49448394775389 L 23.4080810546875 90.11199951171874 L 23.4689998626709 89.96499633789061 L 23.437959671020508 89.95215606689452 L 23.437768936157227 89.95207214355467 L 22.360000610351562 89.50599670410155 L 22.131000518798828 90.06099700927733 L 22.097970962524414 90.04730224609374 L 22.09755516052246 90.04712677001952 L 22.07075309753418 90.11199951171874 L 21.27964973449707 92.02692413330077 L 21.125843048095703 92.3990020751953 L 20.9530029296875 92.32751464843749 L 20.020000457763672 91.94200134277342 L 20.020122528076172 91.9417037963867 L 20.776472091674805 90.11199951171874 L 20.888261795043945 89.84156799316405 L 20.888845443725586 89.84014892578124 L 20.992725372314453 89.58885955810545 L 21.003000259399414 89.56400299072264 L 21.032325744628906 89.5761260986328 L 21.032371520996094 89.57601928710936 L 21.251853942871094 89.04735565185545 L 21.25200080871582 89.04699707031249 L 21.22186851501465 89.03453063964842 L 20.14299964904785 88.58799743652342 L 20.142852783203125 88.58835601806639 L 19.994157791137695 88.94651794433592 L 19.99357032775879 88.9479293823242 L 19.913000106811523 89.14199829101561 L 18.929000854492188 88.73500061035155 L 18.176000595092773 87.98200225830077 L 18.60099983215332 87.55699920654295 L 17.75200080871582 86.70899963378905 L 17.327999114990234 87.13300323486327 L 17.32192039489746 87.12693023681639 L 17.321500778198242 87.12651062011717 L 16.384000778198242 88.06555938720702 L 15.795514106750488 88.65501403808592 L 15.510000228881836 88.94084167480467 L 15.377095222473145 88.80809783935545 L 14.663999557495117 88.09584045410155 L 14.664000511169434 88.09584045410155 L 16.384000778198242 86.37205505371092 L 16.480920791625977 86.27492523193358 L 16.481000900268555 86.27484130859374 L 16.48508071899414 86.27891540527342 L 16.902999877929688 85.86100006103514 L 16.90399932861328 85.86000061035155 L 16.899457931518555 85.85546112060545 L 16.384000778198242 85.34061431884764 L 16.05500030517578 85.01200103759764 L 15.630999565124512 85.43599700927733 L 15.624425888061523 85.42942810058592 L 13.812000274658203 87.24484252929686 L 12.965999603271484 86.39984130859374 L 14.4970703125 84.86540222167967 L 14.778426170349121 84.5834274291992 L 14.782999992370605 84.57884216308592 L 14.786588668823242 84.58242034912108 L 15.205998420715332 84.16400146484374 L 15.206999778747559 84.16300201416014 L 15.2024564743042 84.15846252441405 L 14.357999801635742 83.31500244140624 L 13.934000015258789 83.73899841308592 L 13.927425384521484 83.73242187499999 L 12.11400032043457 85.54884338378905 L 11.980870246887207 85.41587066650389 L 11.267999649047852 84.70300292968749 L 12.799070358276367 83.16940307617186 L 13.081425666809082 82.8864288330078 L 13.085000038146973 82.88284301757811 L 13.085078239440918 82.88291931152342 L 13.088582992553711 82.88641357421874 L 13.508999824523926 82.46600341796874 L 13.505152702331543 82.46215057373045 L 13.504959106445312 82.46195983886717 L 12.963000297546387 81.9199981689453 L 12.66100025177002 81.6179962158203 L 12.359000205993652 81.9199981689453 L 12.237000465393066 82.04199981689452 L 12.230422973632812 82.03542327880858 L 10.70208740234375 83.56543731689452 L 10.416000366210938 83.85199737548827 L 9.569999694824219 83.00700378417967 L 10.655208587646484 81.9199981689453 L 11.101070404052734 81.47340393066405 L 11.384424209594727 81.18942260742186 L 11.38700008392334 81.1868438720703 L 11.387078285217285 81.18692016601561 L 11.390583038330078 81.19041442871092 L 11.812000274658203 80.7689971923828 L 11.808152198791504 80.76515197753905 L 11.807957649230957 80.76496124267577 L 10.96399974822998 79.92099761962889 L 10.539999961853027 80.34500122070311 L 10.533422470092773 80.33842468261717 L 9.00417709350586 81.86935424804686 L 8.953611373901367 81.9199981689453 L 8.718000411987305 82.15599822998045 L 7.872000217437744 81.31099700927733 L 8.192000389099121 80.99029541015624 L 9.687002182006836 79.49200439453124 L 9.689000129699707 79.48999786376952 L 9.693004608154297 79.49399566650389 L 9.69308090209961 79.49391937255858 L 10.114999771118164 79.07199859619139 L 10.110538482666016 79.06753540039061 L 9.267000198364258 78.22299957275389 L 8.843000411987305 78.6480026245117 L 8.8360013961792 78.64099884033202 L 8.192000389099121 79.2860641479492 L 7.019999980926514 80.45999908447264 L 6.173999786376953 79.61499786376952 L 6.623790740966797 79.16422271728514 L 7.989501476287842 77.79550170898436 L 7.991000175476074 77.7939987182617 L 7.995004653930664 77.79799652099608 L 8.192000389099121 77.60099792480467 L 8.418000221252441 77.37499999999999 L 8.413537979125977 77.37052917480467 L 8.192000389099121 77.1487350463867 L 7.570000171661377 76.52600097656249 L 7.568999767303467 76.52700042724608 L 7.144999980926514 76.95099639892577 L 7.139425754547119 76.94541931152342 L 7.139422416687012 76.94541931152342 L 6.125942230224609 77.96057128906249 L 5.609502792358398 78.47786712646483 L 5.322999954223633 78.76499938964842 L 4.4770002365112305 77.9199981689453 L 5.63085412979126 76.7636032104492 L 6.2935004234313965 76.09950256347655 L 6.29392147064209 76.0990753173828 L 6.294000148773193 76.09899902343749 L 6.297001838684082 76.10199737548827 L 6.7210001945495605 75.67800140380858 L 6.717535972595215 75.67453002929686 L 5.873000144958496 74.82900238037108 L 5.447999954223633 75.25399780273436 L 4.695000171661377 74.50099945068358 L 4.37527322769165 73.72799682617186 L 4.288000106811523 73.51699829101561 L 4.8420000076293945 73.28700256347655 L 4.382999897003174 72.17800140380858 L 3.8289999961853027 72.40799713134764 M 50.714820861816406 56.46911239624022 L 51.25914001464844 56.33873367309569 L 51.2969970703125 56.32443237304686 L 51.60610580444336 56.207641601562486 L 51.6883544921875 56.17143630981444 L 51.75193786621094 56.14344406127928 L 51.767723083496094 56.13649749755858 L 51.90848159790039 56.07453155517577 L 51.924652099609375 56.06741333007811 L 51.98188018798828 56.04222106933592 L 52.398441314697266 55.858844757080064 L 52.43528366088867 55.842624664306626 L 52.68024826049805 55.725551605224595 L 52.70957946777344 55.71153259277342 L 52.94741439819336 55.57664489746092 L 52.94743347167969 55.576633453369126 L 53.20335388183594 55.431491851806626 L 53.32726287841797 55.34767150878905 L 53.454139709472656 55.261840820312486 L 53.641117095947266 55.13535690307616 L 54.09174728393555 54.85856628417967 L 54.150386810302734 54.813694000244126 L 54.16667175292969 54.801235198974595 L 54.31474685668945 54.68793487548827 L 54.46198654174805 54.569152832031236 L 54.50575637817383 54.53384399414061 L 54.86711502075195 54.24234008789061 L 55.143531799316406 53.99206161499022 L 55.34532165527344 53.781940460205064 L 55.345340728759766 53.781921386718736 L 55.3725700378418 53.753566741943345 L 55.38359832763672 53.74208068847655 L 55.39421463012695 53.73102951049803 L 55.4743766784668 53.647556304931626 L 55.511573791503906 53.608825683593736 L 55.865665435791016 53.24011611938475 L 56.1694450378418 52.90703201293944 L 56.27309799194336 52.76478576660155 L 56.282997131347656 52.75120162963866 L 56.476524353027344 52.48562622070311 L 56.527862548828125 52.41361618041991 L 56.97837448120117 51.781738281249986 L 57.077213287353516 51.60117721557616 L 57.08649444580078 51.58422470092772 L 57.09592056274414 51.56700134277342 L 57.252288818359375 51.281345367431626 L 57.29092025756836 51.21020889282225 L 57.34400177001953 51.11247253417967 L 57.65469741821289 50.540363311767564 L 57.74702835083008 50.34116744995116 L 57.75747299194336 50.31863403320311 L 57.80571365356445 50.19644165039061 L 57.80571746826172 50.19644165039061 L 57.82600784301758 50.14504241943358 L 57.877479553222656 50.01467895507811 L 57.88140869140625 50.004726409912095 L 57.88777542114258 49.98859405517577 L 57.88875198364258 49.985622406005845 L 57.993778228759766 49.66605758666991 L 58.181663513183594 49.15200042724608 L 58.24800109863281 48.97050857543944 L 58.357261657714844 48.521606445312486 L 58.36378860473633 48.49478912353514 L 58.411495208740234 48.29877853393553 L 58.5250358581543 47.7605972290039 L 58.56840896606445 47.51150131225585 L 58.576602935791016 47.4644546508789 L 58.60564422607422 47.1089744567871 L 58.60700988769531 47.092266082763665 L 58.660579681396484 46.436531066894524 L 58.69095230102539 46.08230590820312 L 58.6883544921875 45.78110122680663 L 58.688350677490234 45.78065109252929 L 58.688209533691406 45.76446914672851 L 58.68788146972656 45.72637557983398 L 58.68741989135742 45.715923309326165 L 58.686424255371094 45.69332885742187 L 58.65230941772461 44.92007446289062 L 58.61579513549805 44.56653213500976 L 58.608909606933594 44.52745819091796 L 58.603492736816406 44.49670028686523 L 58.555076599121094 44.22192382812499 L 58.53804016113281 44.12521743774413 L 58.420806884765625 43.45984268188476 L 58.39146041870117 43.313796997070305 L 58.390201568603516 43.307544708251946 L 58.34811782836914 43.0981101989746 L 58.25106430053711 42.791152954101555 L 58.23696517944336 42.74656677246093 L 58.218101501464844 42.686897277832024 L 58.04799270629883 42.153247833251946 L 58.047977447509766 42.15319824218749 L 58.045597076416016 42.14573669433593 L 57.97304916381836 41.91814422607421 L 57.87135314941406 41.67175674438476 L 57.82476806640625 41.57234573364257 L 57.78330993652344 41.48387145996093 L 57.78330612182617 41.483867645263665 L 57.5994987487793 41.091621398925774 L 57.58106994628906 41.052295684814446 L 57.58069610595703 41.051502227783196 L 57.537818908691406 40.95999908447265 L 57.39442443847656 40.65399551391601 L 57.34400177001953 40.556221008300774 L 57.23789978027344 40.350479125976555 L 57.23744583129883 40.34959411621093 L 57.114105224609375 40.162727355957024 L 56.99974822998047 39.9894676208496 L 56.98713684082031 39.97035980224609 L 56.69134521484375 39.52221298217773 L 56.56462860107422 39.331584930419915 L 56.55501937866211 39.317127227783196 L 56.417999267578125 39.11100006103515 L 56.32125473022461 38.99148941040038 L 56.29695510864258 38.961475372314446 L 56.289302825927734 38.95201873779296 L 56.27296447753906 38.931838989257805 L 55.8140754699707 38.403823852539055 L 55.802547454833984 38.39055633544921 L 55.6563835144043 38.22237396240234 L 55.46426773071289 38.02009201049804 L 55.452850341796875 38.00806808471679 L 55.41136169433594 37.96438217163085 L 55.40612030029297 37.95949172973632 L 55.38600158691406 37.94070816040038 L 54.974613189697266 37.556621551513665 L 54.958961486816406 37.543098449707024 L 54.94602966308594 37.53192138671874 L 54.678401947021484 37.30067825317382 L 54.481502532958984 37.14810180664062 L 54.45449447631836 37.1271743774414 L 54.189998626708984 36.9222183227539 L 54.09892654418945 36.85164642333984 L 54.023860931396484 36.80014038085937 L 54.00918960571289 36.79007339477538 L 53.845035552978516 36.67743301391601 L 53.760902404785156 36.61970138549804 L 53.560096740722656 36.503887176513665 L 53.297054290771484 36.34368133544921 L 53.25775146484375 36.319744110107415 L 53.24800109863281 36.31380462646484 L 52.986000061035156 36.15423583984374 L 52.950904846191406 36.13285827636718 L 52.74988555908203 36.01042938232421 L 52.518009185791016 35.89544296264648 L 52.012611389160156 35.66045761108398 L 51.896541595458984 35.611377716064446 L 51.89640426635742 35.61132049560546 L 51.824954986572266 35.58110809326171 L 51.79109191894531 35.56679153442382 L 51.655548095703125 35.50947952270507 L 51.14988708496094 35.32945251464843 L 50.92586898803711 35.25009155273437 L 50.54771423339844 35.14360046386718 L 50.537498474121094 35.1407241821289 L 50.50497817993164 35.13518905639648 L 50.49979019165039 35.134021759033196 L 50.27629470825195 35.071758270263665 L 50.286991119384766 35.070686340332024 L 50.29180145263672 35.07068252563476 L 50.29041290283203 35.07033920288085 L 50.27190399169922 35.06578826904296 L 50.224021911621094 35.054004669189446 L 50.14064407348633 35.0352439880371 L 50.0423469543457 35.01435470581054 L 49.920997619628906 34.9900779724121 L 49.744869232177734 34.95969009399413 L 49.68824768066406 34.95156478881835 L 49.504295349121094 34.92516326904296 L 49.15474319458008 34.860767364501946 L 49.152000427246094 34.86026000976562 L 49.13451385498047 34.85704040527343 L 48.884002685546875 34.8108901977539 L 48.86346435546875 34.80996704101562 L 47.85725021362305 34.76476287841796 L 47.54737854003906 34.755378723144524 L 47.54689407348633 34.75536346435546 L 47.54682540893555 34.755359649658196 L 47.17799758911133 34.744190216064446 L 46.28903579711914 34.826160430908196 L 46.277469635009766 34.82722854614257 L 45.95775604248047 34.85775756835937 L 45.86491012573242 34.86662292480468 L 45.22596740722656 34.99836349487304 L 45.135807037353516 35.01303100585937 L 45.07740783691406 35.02658462524413 L 44.984256744384766 35.048198699951165 L 44.707191467285156 35.11249160766601 L 44.540687561035156 35.15957260131835 L 44.36839294433594 35.20829010009765 L 43.92084503173828 35.37993621826171 L 43.45096206665039 35.56014251708984 L 43.326072692871094 35.60580444335937 L 42.956451416015625 35.7409324645996 L 42.845760345458984 35.792251586914055 L 42.8249397277832 35.80190277099609 L 42.805973052978516 35.8130874633789 L 42.34531784057617 36.084785461425774 L 41.916927337646484 36.3164939880371 L 41.74910354614258 36.407268524169915 L 41.61125946044922 36.481826782226555 L 41.586036682128906 36.49546813964843 L 41.297943115234375 36.70469665527343 L 40.959999084472656 36.94508743286132 L 40.72874069213867 37.10958862304687 L 40.71272659301758 37.120979309082024 L 40.561798095703125 37.22833633422851 L 40.365142822265625 37.39573669433593 L 39.939476013183594 37.79645156860351 L 39.777488708496094 37.95929336547851 L 39.729007720947266 38.0080337524414 L 39.68766784667969 38.04959106445312 L 39.26699447631836 38.472488403320305 L 38.94232177734375 38.86621475219726 L 38.897850036621094 38.922840118408196 L 38.73403549194336 39.13144302368163 L 38.644710540771484 39.245185852050774 L 38.56613540649414 39.34524154663085 L 38.35411071777344 39.659194946289055 L 38.16358947753906 39.997661590576165 L 38.07834243774414 40.12710571289062 L 37.92881774902344 40.35416030883788 L 37.87378692626953 40.44889068603515 L 37.75493621826172 40.653491973876946 L 37.61448669433594 40.95999908447265 L 37.43467330932617 41.35240173339843 L 37.369049072265625 41.50086593627929 L 37.308433532714844 41.637989044189446 L 37.30548095703125 41.644668579101555 L 37.3050537109375 41.645637512207024 L 37.1690788269043 41.95324325561523 L 36.99736404418945 42.494277954101555 L 36.81094741821289 43.10076522827148 L 36.80363464355469 43.13121032714843 L 36.794769287109375 43.16814422607421 L 36.762939453125 43.30071640014648 L 36.710838317871094 43.54104614257812 L 36.61445236206055 44.11156845092773 L 36.55419158935547 44.537307739257805 L 36.550968170166016 44.56009292602538 L 36.50563430786133 44.880378723144524 L 36.47731018066406 45.48049545288085 L 36.46773147583008 45.85884475708007 L 36.46757888793945 45.86481094360351 L 36.46751403808594 45.86737442016601 L 36.46638870239258 45.9118423461914 L 36.48219680786133 46.43620300292968 L 36.499603271484375 46.71364593505859 L 36.5604248046875 47.13175201416015 L 36.564781188964844 47.1617088317871 L 36.60194396972656 47.41719818115234 L 36.6041145324707 47.432109832763665 L 36.65704345703125 47.79595947265624 L 36.705501556396484 48.12356567382811 L 36.76097869873047 48.3433265686035 L 36.76264953613281 48.34993743896483 L 36.81094741821289 48.54126358032225 L 36.88801574707031 48.83337020874022 L 36.972076416015625 49.15200042724608 L 37.00264358520508 49.26786041259764 L 37.05863571166992 49.42990875244139 L 37.09370040893555 49.51520919799803 L 37.09706115722656 49.52338409423827 L 37.1121940612793 49.560199737548814 L 37.332672119140625 50.096557617187486 L 37.332889556884766 50.09709167480467 L 37.54533004760742 50.62342834472655 L 37.54829406738281 50.630771636962876 L 37.5515251159668 50.63877487182616 L 37.56063461303711 50.66133880615233 L 37.58148956298828 50.701847076416 L 37.81227493286133 51.15012359619139 L 37.8682975769043 51.24866867065428 L 38.013275146484375 51.50366592407225 L 38.12104034423828 51.67773818969725 L 38.13031768798828 51.692722320556626 L 38.3162956237793 51.99311447143553 L 38.53492736816406 52.28986740112303 L 38.54181671142578 52.29921722412108 L 38.586570739746094 52.35996627807616 L 38.82695770263672 52.683536529541 L 38.83903121948242 52.6997833251953 L 39.00157928466797 52.918579101562486 L 39.281856536865234 53.23057937622069 L 39.289188385009766 53.238742828369126 L 39.42646789550781 53.3915557861328 L 39.66446304321289 53.63705444335936 L 39.66627502441406 53.63892364501952 L 39.848602294921875 53.826999664306626 L 40.13418960571289 54.084770202636705 L 40.142696380615234 54.09244537353514 L 40.460140228271484 54.37896347045897 L 40.648704528808594 54.52433013916014 L 40.65046310424805 54.525688171386705 L 40.89946746826172 54.717643737792955 L 40.959999084472656 54.76235961914061 L 41.065757751464844 54.84048461914061 L 41.07469940185547 54.84708786010741 L 41.36627960205078 55.06248474121092 L 41.58452224731445 55.20809173583983 L 41.82158660888672 55.34272003173827 L 41.83198547363281 55.34862136840819 L 42.10798645019531 55.505363464355455 L 42.19304656982422 55.5536651611328 L 42.7669563293457 55.870719909667955 L 43.21468734741211 56.06020355224608 L 43.21609115600586 56.06079864501952 L 43.231773376464844 56.067436218261705 L 43.23177719116211 56.067436218261705 L 43.31584548950195 56.10301589965819 L 43.36467742919922 56.12120437622069 L 43.43069076538086 56.14368057250975 L 43.50151443481445 56.16779327392577 L 43.605045318603516 56.21073913574217 L 43.985599517822266 56.36860275268553 L 44.107669830322266 56.41053390502928 L 44.2277717590332 56.44269561767577 L 44.49259948730469 56.513614654541 L 44.72817611694336 56.57670211791991 L 44.901939392089844 56.627292633056626 L 45.0520133972168 56.67098999023436 L 45.3621940612793 56.73928070068358 L 45.8744010925293 56.81673431396483 L 46.095359802246094 56.85014343261717 L 46.33089828491211 56.8784828186035 L 46.670650482177734 56.91935729980467 L 47.46100616455078 56.93727111816405 L 47.47801971435547 56.937656402587876 L 47.47984313964844 56.9376983642578 L 47.627323150634766 56.941040039062486 L 47.676307678222656 56.94215011596678 L 47.808067321777344 56.94513702392577 L 48.258338928222656 56.94371414184569 L 48.69996643066406 56.903156280517564 L 48.7859001159668 56.892658233642564 L 48.793174743652344 56.89177322387694 L 48.903995513916016 56.8782386779785 L 49.149169921875 56.84829711914061 L 49.152000427246094 56.847690582275376 L 49.250885009765625 56.826530456542955 L 50.12461471557617 56.63956832885741 L 50.18932342529297 56.625724792480455 L 50.35559844970703 56.59014511108397 L 50.63775634765625 56.49507904052733 L 50.714820861816406 56.46911239624022 M 29.290000915527344 18.87594413757324 L 29.290000915527344 18.190000534057614 L 29.290000915527344 16.497999191284176 L 29.290000915527344 16.436000823974606 L 29.22800064086914 16.436000823974606 L 28.280969619750977 16.436000823974606 L 27.535999298095703 16.436000823974606 L 26.99301528930664 16.436000823974606 L 26.834999084472656 16.436000823974606 L 26.834999084472656 17.444152832031246 L 26.834999084472656 19.136617660522457 L 26.834999084472656 19.940999984741207 L 27.638938903808594 19.940999984741207 L 28.4439697265625 19.940999984741207 L 29.290000915527344 19.940999984741207 L 29.290000915527344 19.900503158569332 L 29.290000915527344 18.87594413757324 M 32.68461608886719 11.363430976867674 L 32.768001556396484 11.350213050842283 L 33.02799987792969 11.309000015258787 L 33.487998962402344 11.074000358581541 L 33.75037384033203 10.811627388000487 L 33.854000091552734 10.708000183105467 L 34.0890007019043 10.248000144958494 L 34.16999816894531 9.737000465393065 L 34.0890007019043 9.227000236511229 L 33.854000091552734 8.765999794006346 L 33.487998962402344 8.399999618530272 L 33.0791130065918 8.19200038909912 L 33.02799987792969 8.166000366210936 L 32.768001556396484 8.124786376953123 L 32.62898635864258 8.10275077819824 L 32.516998291015625 8.08500003814697 L 32.00600051879883 8.166000366210936 L 31.95488929748535 8.19200038909912 L 31.54599952697754 8.399999618530272 L 31.483661651611328 8.462339401245115 L 31.18000030517578 8.765999794006346 L 30.94499969482422 9.227000236511229 L 30.864999771118164 9.737000465393065 L 30.94499969482422 10.248000144958494 L 31.18000030517578 10.708000183105467 L 31.54599952697754 11.074000358581541 L 32.00600051879883 11.309000015258787 L 32.516998291015625 11.390000343322752 L 32.68461608886719 11.363430976867674 M 40.84000015258789 19.940999984741207 L 40.84000015258789 18.537374496459957 L 40.84000015258789 16.436000823974606 L 39.970985412597656 16.436000823974606 L 39.736000061035156 16.436000823974606 L 38.67611312866211 16.436000823974606 L 38.290000915527344 16.436000823974606 L 38.290000915527344 18.630578994750973 L 38.290000915527344 19.940999984741207 L 38.83246994018555 19.940999984741207 L 39.736000061035156 19.940999984741207 L 40.12706756591797 19.940999984741207 L 40.84000015258789 19.940999984741207 M 43.38600158691406 14.72900009155273 L 44.59000015258789 14.72900009155273 L 45.7859992980957 14.72900009155273 L 46.9900016784668 14.72900009155273 L 48.18600082397461 14.72900009155273 L 49.38999938964844 14.72900009155273 L 50.58599853515625 14.72900009155273 L 51.790000915527344 14.72900009155273 L 52.790000915527344 14.72900009155273 L 52.986000061035156 14.72900009155273 L 53.74100112915039 14.72900009155273 L 53.74100112915039 1.723999977111816 L 52.986000061035156 1.723999977111816 L 51.790000915527344 1.723999977111816 L 50.58599853515625 1.723999977111816 L 49.38999938964844 1.723999977111816 L 48.18600082397461 1.723999977111816 L 46.9900016784668 1.723999977111816 L 45.7859992980957 1.723999977111816 L 44.59000015258789 1.723999977111816 L 43.38600158691406 1.723999977111816 L 42.189998626708984 1.723999977111816 L 40.98448944091797 1.723999977111816 L 39.79100036621094 1.723999977111816 L 39.736000061035156 1.723999977111816 L 39.736000061035156 6.445905685424803 L 39.736000061035156 9.588838577270506 L 39.736000061035156 12.738774299621578 L 39.736000061035156 14.72900009155273 L 40.559051513671875 14.72900009155273 L 41.8616943359375 14.72900009155273 L 43.1649284362793 14.72900009155273 L 43.38600158691406 14.72900009155273 M 53.74100112915039 19.940999984741207 L 54.189998626708984 19.940999984741207 L 55.290000915527344 19.940999984741207 L 55.290000915527344 16.436000823974606 L 54.189998626708984 16.436000823974606 L 53.74100112915039 16.436000823974606 L 52.986000061035156 16.436000823974606 L 52.790000915527344 16.436000823974606 L 52.790000915527344 19.940999984741207 L 52.986000061035156 19.940999984741207 L 53.74100112915039 19.940999984741207 M 60.279998779296875 10.708000183105467 L 60.645999908447266 11.074000358581541 L 61.10599899291992 11.309000015258787 L 61.26655578613281 11.33445072174072 L 61.439998626708984 11.36194324493408 L 61.617000579833984 11.390000343322752 L 62.12799835205078 11.309000015258787 L 62.5880012512207 11.074000358581541 L 62.72678756713867 10.935214042663572 L 62.95399856567383 10.708000183105467 L 63.18899917602539 10.248000144958494 L 63.27000045776367 9.737000465393065 L 63.25706481933594 9.65554904937744 L 63.18899917602539 9.227000236511229 L 62.95399856567383 8.765999794006346 L 62.5880012512207 8.399999618530272 L 62.50091552734375 8.355700492858885 L 62.17911148071289 8.19200038909912 L 62.12799835205078 8.166000366210936 L 61.617000579833984 8.08500003814697 L 61.28123092651367 8.138223648071287 L 61.10599899291992 8.166000366210936 L 61.05488967895508 8.19200038909912 L 60.645999908447266 8.399999618530272 L 60.279998779296875 8.765999794006346 L 60.04499816894531 9.227000236511229 L 59.96500015258789 9.737000465393065 L 60.04499816894531 10.248000144958494 L 60.24403381347656 10.637596130371092 L 60.279998779296875 10.708000183105467 M 64.38500213623047 19.940999984741207 L 65.49374389648438 19.940999984741207 L 65.53600311279297 19.940999984741207 L 65.7169189453125 19.940999984741207 L 66.78853607177734 19.940999984741207 L 66.83999633789062 19.940999984741207 L 66.83999633789062 19.816806793212887 L 66.83999633789062 18.815448760986325 L 66.83999633789062 17.146327972412106 L 66.83999633789062 17.112573623657223 L 66.83999633789062 16.69222259521484 L 66.83999633789062 16.436000823974606 L 65.82594299316406 16.436000823974606 L 65.63307189941406 16.436000823974606 L 65.53600311279297 16.436000823974606 L 64.38500213623047 16.436000823974606 L 64.38500213623047 17.880117416381832 L 64.38500213623047 19.44352340698242 L 64.38500213623047 19.57297897338867 L 64.38500213623047 19.605379104614254 L 64.38500213623047 19.940999984741207 M 15.2024564743042 84.15846252441405 L 15.2024564743042 84.15846252441405 M 14.786588668823242 84.58242034912108 L 14.786588668823242 84.58242034912108 z" fill="none" stroke="rgb(255,0,0)" stroke-width="0.001mm" />
</svg>