<?xml version="1.0" standalone="no"?>
<!DOCTYPE svg PUBLIC "-//W3C//DTD SVG 1.1//EN"
  "http://www.w3.org/Graphics/SVG/1.1/DTD/svg11.dtd">
<svg width="25.027999877929688mm" height="28.288998603820794mm" viewBox="-96.88099670410156 9.498000144958494 25.027999877929688 28.288998603820794" xmlns="http://www.w3.org/2000/svg" version="1.1">
	<title>svgOutput</title>
	<desc>made with tinkercad</desc>
<path d="M -72.85299682617188 14.631999969482418 L -73.72799682617188 14.631999969482418 L -75.36815643310547 14.631999969482418 L -75.86900329589844 14.631999969482418 L -75.86900329589844 15.831999778747555 L -75.36815643310547 15.831999778747555 L -73.72799682617188 15.831999778747555 L -72.85299682617188 15.831999778747555 L -72.85299682617188 16.38400077819824 L -72.85299682617188 17.03199958801269 L -73.72799682617188 17.03199958801269 L -75.36815643310547 17.03199958801269 L -75.86900329589844 17.03199958801269 L -75.86900329589844 18.232000350952145 L -75.36815643310547 18.232000350952145 L -73.72799682617188 18.232000350952145 L -72.85299682617188 18.232000350952145 L -72.85299682617188 18.431999206542965 L -72.85299682617188 19.431999206542965 L -73.72799682617188 19.431999206542965 L -75.36815643310547 19.431999206542965 L -75.86900329589844 19.431999206542965 L -75.86900329589844 20.479999542236325 L -75.86900329589844 20.63199996948242 L -75.36815643310547 20.63199996948242 L -73.72799682617188 20.63199996948242 L -72.85299682617188 20.63199996948242 L -72.85299682617188 21.83200073242187 L -73.72799682617188 21.83200073242187 L -75.36815643310547 21.83200073242187 L -75.86900329589844 21.83200073242187 L -75.86900329589844 22.527999877929684 L -75.86900329589844 23.03199958801269 L -75.36815643310547 23.03199958801269 L -73.72799682617188 23.03199958801269 L -72.85299682617188 23.03199958801269 L -72.85299682617188 23.219842910766598 L -72.85384368896484 24.23200035095214 L -73.72799682617188 24.23200035095214 L -75.36815643310547 24.23200035095214 L -75.86984252929688 24.23200035095214 L -75.86984252929688 24.57600021362304 L -75.86984252929688 25.43199920654296 L -75.36815643310547 25.43199920654296 L -73.72799682617188 25.43199920654296 L -72.85384368896484 25.43199920654296 L -72.85384368896484 26.6240005493164 L -72.85384368896484 26.63164520263671 L -72.85384368896484 26.631999969482415 L -73.72799682617188 26.631999969482415 L -75.36815643310547 26.631999969482415 L -75.7760009765625 26.631999969482415 L -75.86984252929688 26.631999969482415 L -75.86984252929688 27.832000732421868 L -75.7760009765625 27.832000732421868 L -75.36815643310547 27.832000732421868 L -73.72799682617188 27.832000732421868 L -72.85399627685547 27.832000732421868 L -72.85384368896484 27.832000732421868 L -72.85399627685547 28.01984214782714 L -72.85399627685547 28.67200088500976 L -72.85399627685547 29.031644821166985 L -72.85399627685547 29.031999588012688 L -73.72799682617188 29.031999588012688 L -75.36815643310547 29.031999588012688 L -75.87000274658203 29.031999588012688 L -75.87000274658203 30.23200035095214 L -75.36815643310547 30.23200035095214 L -73.72799682617188 30.23200035095214 L -72.85399627685547 30.23200035095214 L -72.85399627685547 30.719999313354485 L -72.85399627685547 31.43199920654296 L -73.72799682617188 31.43199920654296 L -75.36815643310547 31.43199920654296 L -75.87000274658203 31.43199920654296 L -75.87000274658203 32.631999969482415 L -75.36815643310547 32.631999969482415 L -73.72799682617188 32.631999969482415 L -72.85399627685547 32.631999969482415 L -72.85399627685547 32.63284301757812 L -72.85399627685547 32.76800155639648 L -72.85399627685547 33.631999969482415 L -73.72799682617188 33.631999969482415 L -75.36799621582031 33.631999969482415 L -75.36799621582031 34.23199844360351 L -75.36815643310547 34.23199844360351 L -75.37000274658203 34.23199844360351 L -75.37000274658203 34.81600189208984 L -75.37000274658203 36.78699874877929 L -76.56515502929688 36.78699874877929 L -76.56700134277344 36.78699874877929 L -76.56700134277344 34.81600189208984 L -76.56700134277344 34.23199844360351 L -76.56800079345703 34.23199844360351 L -76.56800079345703 33.631999969482415 L -77.76799774169922 33.631999969482415 L -77.76799774169922 34.23199844360351 L -77.76815795898438 34.23199844360351 L -77.7699966430664 34.23199844360351 L -77.7699966430664 34.81600189208984 L -77.7699966430664 36.78699874877929 L -77.8239974975586 36.78699874877929 L -78.96515655517578 36.78699874877929 L -78.96700286865234 36.78699874877929 L -78.96700286865234 34.81600189208984 L -78.96700286865234 34.23199844360351 L -78.96800231933594 34.23199844360351 L -78.96800231933594 33.631999969482415 L -79.87200164794922 33.631999969482415 L -80.16799926757812 33.631999969482415 L -80.16799926757812 34.23199844360351 L -80.16999816894531 34.23199844360351 L -80.16999816894531 34.81600189208984 L -80.16999816894531 36.77700042724609 L -81.36699676513672 36.77700042724609 L -81.36699676513672 34.81600189208984 L -81.36699676513672 34.23199844360351 L -81.36799621582031 34.23199844360351 L -81.36799621582031 33.631999969482415 L -81.91999816894531 33.631999969482415 L -82.56800079345703 33.631999969482415 L -82.56800079345703 34.23199844360351 L -82.56999969482422 34.23199844360351 L -82.56999969482422 34.81600189208984 L -82.56999969482422 36.78699874877929 L -83.76699829101562 36.78699874877929 L -83.76699829101562 34.81600189208984 L -83.76699829101562 34.23199844360351 L -83.76799774169922 34.23199844360351 L -83.76799774169922 33.631999969482415 L -83.96800231933594 33.63183212280273 L -84.96800231933594 33.63100051879882 L -84.96800231933594 34.230998992919915 L -84.97000122070312 34.230998992919915 L -84.97000122070312 34.81600189208984 L -84.97000122070312 36.78699874877929 L -86.01599884033203 36.78699874877929 L -86.16699981689453 36.78699874877929 L -86.16699981689453 34.81600189208984 L -86.16699981689453 34.230998992919915 L -86.16799926757812 34.230998992919915 L -86.16799926757812 33.63100051879882 L -87.36799621582031 33.63100051879882 L -87.36799621582031 34.230998992919915 L -87.37000274658203 34.230998992919915 L -87.37000274658203 34.81600189208984 L -87.37000274658203 36.78699874877929 L -88.56700134277344 36.78699874877929 L -88.56700134277344 34.81600189208984 L -88.56700134277344 34.230998992919915 L -88.56800079345703 34.230998992919915 L -88.56800079345703 33.63100051879882 L -89.76799774169922 33.63100051879882 L -89.76799774169922 34.230998992919915 L -89.7699966430664 34.230998992919915 L -89.7699966430664 34.81600189208984 L -89.7699966430664 36.7868423461914 L -89.95789337158203 36.7868423461914 L -90.11199951171875 36.78671264648437 L -90.96700286865234 36.785999298095696 L -90.96700286865234 34.230998992919915 L -90.96800231933594 34.230998992919915 L -90.96800231933594 33.63100051879882 L -92.16799926757812 33.63100051879882 L -92.16799926757812 34.230998992919915 L -92.16999816894531 34.230998992919915 L -92.16999816894531 36.785999298095696 L -92.8641586303711 36.785999298095696 L -92.8641586303711 34.230998992919915 L -92.86499786376953 34.230998992919915 L -92.86499786376953 32.76800155639648 L -92.86499786376953 32.63100051879882 L -94.20800018310547 32.63100051879882 L -95.88099670410156 32.63100051879882 L -95.88099670410156 31.430999755859368 L -94.20800018310547 31.430999755859368 L -92.86499786376953 31.430999755859368 L -92.86499786376953 30.719999313354485 L -92.86499786376953 30.231000900268548 L -94.20800018310547 30.231000900268548 L -95.88099670410156 30.231000900268548 L -95.88099670410156 29.031000137329094 L -94.20800018310547 29.031000137329094 L -92.86499786376953 29.031000137329094 L -92.8648452758789 28.843914031982415 L -92.8648452758789 28.67200088500976 L -92.8648452758789 27.83099937438964 L -94.20800018310547 27.83099937438964 L -95.88084411621094 27.83099937438964 L -95.88084411621094 26.63100051879882 L -94.20800018310547 26.63100051879882 L -92.8648452758789 26.63100051879882 L -92.8648452758789 26.6240005493164 L -92.8648452758789 25.430999755859368 L -94.20800018310547 25.430999755859368 L -95.88084411621094 25.430999755859368 L -95.88084411621094 24.57600021362304 L -95.88084411621094 24.231000900268548 L -95.87999725341797 24.231000900268548 L -94.20800018310547 24.231000900268548 L -92.8648452758789 24.231000900268548 L -92.8648452758789 24.043912887573235 L -92.86399841308594 23.031000137329098 L -92.8648452758789 23.031000137329098 L -94.20800018310547 23.031000137329098 L -95.87999725341797 23.031000137329098 L -95.87999725341797 21.830999374389645 L -94.20800018310547 21.830999374389645 L -92.86399841308594 21.830999374389645 L -92.86399841308594 20.631000518798825 L -94.20800018310547 20.631000518798825 L -95.87999725341797 20.631000518798825 L -95.87999725341797 20.479999542236325 L -95.87999725341797 19.43099975585937 L -94.20800018310547 19.43099975585937 L -92.86399841308594 19.43099975585937 L -92.86399841308594 18.431999206542965 L -92.86399841308594 18.23100090026855 L -94.20800018310547 18.23100090026855 L -95.87999725341797 18.23100090026855 L -95.87999725341797 17.031000137329098 L -94.20800018310547 17.031000137329098 L -92.86399841308594 17.031000137329098 L -92.86399841308594 16.38400077819824 L -92.86399841308594 15.831000328063961 L -94.20800018310547 15.831000328063961 L -95.87999725341797 15.831000328063961 L -95.87999725341797 14.630999565124508 L -94.20800018310547 14.630999565124508 L -92.86399841308594 14.630999565124508 L -92.86384582519531 14.381550788879391 L -92.86384582519531 14.33600044250488 L -92.86384582519531 13.630999565124508 L -92.86384582519531 13.033389091491696 L -92.86299896240234 13.033389091491696 L -92.86299896240234 13.031000137329098 L -92.86299896240234 12.65127086639404 L -92.8629150390625 12.430999755859371 L -92.86286163330078 12.28800010681152 L -92.8621597290039 10.498000144958494 L -92.16815948486328 10.498000144958494 L -92.16815948486328 12.28800010681152 L -92.16815948486328 12.430999755859371 L -92.16815948486328 13.031000137329098 L -92.16815948486328 13.033433914184567 L -92.16699981689453 13.033433914184567 L -92.1668472290039 13.033433914184567 L -92.16699981689453 13.124543190002438 L -92.16699981689453 13.630999565124508 L -92.16000366210938 13.630999565124508 L -90.96784210205078 13.630999565124508 L -90.96700286865234 13.630999565124508 L -90.96700286865234 13.124543190002438 L -90.96685028076172 13.033512115478512 L -90.96515655517578 13.033512115478512 L -90.96515655517578 13.031000137329098 L -90.96515655517578 12.28800010681152 L -90.96515655517578 10.498000144958494 L -90.11199951171875 10.498000144958494 L -89.76815795898438 10.498000144958494 L -89.76815795898438 12.28800010681152 L -89.76815795898438 13.031000137329098 L -89.76815795898438 13.033589363098141 L -89.766845703125 13.033589363098141 L -89.766845703125 13.537456512451168 L -89.76699829101562 13.630999565124508 L -89.766845703125 13.630999565124508 L -88.56700134277344 13.630999565124508 L -88.56700134277344 13.124543190002438 L -88.56684875488281 13.033667564392086 L -88.56515502929688 13.033667564392086 L -88.56515502929688 13.031000137329098 L -88.56515502929688 12.430999755859371 L -88.56515502929688 12.28800010681152 L -88.56515502929688 10.498000144958494 L -87.36815643310547 10.498000144958494 L -87.36815643310547 12.28800010681152 L -87.36815643310547 12.430999755859371 L -87.36815643310547 13.031000137329098 L -87.36815643310547 13.033744812011715 L -87.36685180664062 13.033744812011715 L -87.36699676513672 13.124543190002438 L -87.36699676513672 13.630999565124508 L -86.16699981689453 13.630999565124508 L -86.1668472290039 13.53726768493652 L -86.1668472290039 13.033822059631344 L -86.16515350341797 13.033822059631344 L -86.16515350341797 13.031000137329098 L -86.16515350341797 12.28800010681152 L -86.16515350341797 10.498000144958494 L -84.96815490722656 10.498000144958494 L -84.96815490722656 12.28800010681152 L -84.96815490722656 13.031000137329098 L -84.96815490722656 13.03390026092529 L -84.96684265136719 13.03390026092529 L -84.96684265136719 13.53726768493652 L -84.96700286865234 13.630999565124508 L -84.96684265136719 13.631000518798825 L -83.96800231933594 13.63183212280273 L -83.76699829101562 13.631999969482418 L -83.766845703125 13.53826808929443 L -83.766845703125 13.033977508544918 L -83.7651596069336 13.033977508544918 L -83.7651596069336 13.031999588012692 L -83.7651596069336 12.28800010681152 L -83.7651596069336 10.498000144958494 L -82.56815338134766 10.498000144958494 L -82.56815338134766 12.28800010681152 L -82.56815338134766 13.031999588012692 L -82.56815338134766 13.034054756164547 L -82.56700134277344 13.034054756164547 L -82.56684875488281 13.034054756164547 L -82.56700134277344 13.125732421874996 L -82.56700134277344 13.631999969482418 L -81.91999816894531 13.631999969482418 L -81.36699676513672 13.631999969482418 L -81.36699676513672 13.125732421874996 L -81.3668441772461 13.034132957458493 L -81.36515808105469 13.034132957458493 L -81.36515808105469 13.031999588012692 L -81.36515808105469 12.432000160217282 L -81.36515808105469 12.28800010681152 L -81.36515808105469 10.498000144958494 L -80.16815948486328 10.498000144958494 L -80.16815948486328 12.28800010681152 L -80.16815948486328 12.432000160217282 L -80.16815948486328 13.031999588012692 L -80.16815948486328 13.034210205078121 L -80.16699981689453 13.034210205078121 L -80.1668472290039 13.034210205078121 L -80.16699981689453 13.125732421874996 L -80.16699981689453 13.631999969482418 L -79.87200164794922 13.631999969482418 L -78.96700286865234 13.631999969482418 L -78.96684265136719 13.53826808929443 L -78.96684265136719 13.034288406372067 L -78.96515655517578 13.034288406372067 L -78.96515655517578 13.031999588012692 L -78.96515655517578 12.28800010681152 L -78.96515655517578 10.498999595642088 L -77.76815795898438 10.498999595642088 L -77.76815795898438 12.28800010681152 L -77.76815795898438 13.031999588012692 L -77.76815795898438 13.034365653991696 L -77.766845703125 13.034365653991696 L -77.766845703125 13.53826808929443 L -77.76699829101562 13.631999969482418 L -76.56700134277344 13.631999969482418 L -76.56700134277344 13.125921249389645 L -76.56684875488281 13.034442901611325 L -76.56515502929688 13.034442901611325 L -76.56515502929688 13.031999588012692 L -76.56515502929688 12.28800010681152 L -76.56515502929688 10.498999595642088 L -75.36815643310547 10.498999595642088 L -75.36815643310547 12.28800010681152 L -75.36815643310547 13.031999588012692 L -75.36815643310547 13.03452110290527 L -75.36699676513672 13.03452110290527 L -75.3668441772461 13.03452110290527 L -75.36699676513672 13.125921249389645 L -75.36699676513672 13.631999969482418 L -73.72799682617188 13.631999969482418 L -72.85299682617188 13.631999969482418 L -72.85299682617188 14.631999969482418 M -79.77879333496094 25.828941345214837 L -79.87200164794922 25.84367370605468 L -79.91835021972656 25.850999832153313 L -80.07229614257812 25.929622650146477 L -80.1978988647461 25.993999481201165 L -80.31996154785156 26.115509033203118 L -80.4198989868164 26.215450286865227 L -80.49797058105469 26.369398117065423 L -80.56189727783203 26.49500083923339 L -80.56200408935547 26.495653152465813 L -80.61090087890625 26.805000305175774 L -80.5839614868164 26.97489166259765 L -80.56189727783203 27.114450454711907 L -80.56179809570312 27.114654541015618 L -80.48382568359375 27.268398284912102 L -80.4198989868164 27.393999099731438 L -80.1978988647461 27.61599922180175 L -79.91889953613281 27.75799942016601 L -79.87200164794922 27.76541328430175 L -79.60890197753906 27.80699920654296 L -79.29889678955078 27.75799942016601 L -79.14495086669922 27.679925918579094 L -79.01934814453125 27.61599922180175 L -78.96515655517578 27.56156158447265 L -78.89784240722656 27.49394226074218 L -78.79789733886719 27.393999099731438 L -78.79742431640625 27.393068313598626 L -78.65489959716797 27.114999771118157 L -78.60590362548828 26.805000305175774 L -78.65489959716797 26.49500083923339 L -78.7335205078125 26.341053009033196 L -78.79789733886719 26.215450286865227 L -78.96515655517578 26.0481948852539 L -79.01934814453125 25.993999481201165 L -79.17330169677734 25.915376663208 L -79.29889678955078 25.850999832153313 L -79.29955291748047 25.85089683532714 L -79.60890197753906 25.80200004577636 L -79.77879333496094 25.828941345214837 M -81.3978500366211 27.493951797485344 L -81.29789733886719 27.393999099731438 L -81.29742431640625 27.39307212829589 L -81.21928405761719 27.240066528320305 L -81.15489959716797 27.114450454711907 L -81.15480041503906 27.113798141479485 L -81.12796020507812 26.944574356079094 L -81.10590362548828 26.805000305175774 L -81.15489959716797 26.49500083923339 L -81.29789733886719 26.215000152587884 L -81.41939544677734 26.093502044677727 L -81.51934814453125 25.993999481201165 L -81.67328643798828 25.915384292602532 L -81.79889678955078 25.850999832153313 L -81.79955291748047 25.85089683532714 L -81.91999816894531 25.831857681274407 L -82.10890197753906 25.80200004577636 L -82.27877807617188 25.82893753051757 L -82.41835021972656 25.850999832153313 L -82.4185562133789 25.851104736328118 L -82.57228088378906 25.929065704345696 L -82.6978988647461 25.993450164794915 L -82.8199462890625 26.11549758911132 L -82.9198989868164 26.215000152587884 L -82.92036437988281 26.215913772583 L -83.06189727783203 26.49500083923339 L -83.08883666992188 26.664876937866204 L -83.11090087890625 26.804450988769524 L -83.0839614868164 26.974876403808587 L -83.06189727783203 27.114000320434563 L -82.9198989868164 27.393999099731438 L -82.6978988647461 27.61599922180175 L -82.41889953613281 27.75799942016601 L -82.10890197753906 27.80699920654296 L -81.91999816894531 27.777141571044915 L -81.79889678955078 27.75799942016601 L -81.64496612548828 27.679933547973626 L -81.51934814453125 27.61599922180175 L -81.3978500366211 27.493951797485344 M -90.08196258544922 19.01522827148437 L -90.0616683959961 19.14399909973144 L -90.0611801147461 19.144950866699215 L -89.8836669921875 19.493000030517575 L -89.6066665649414 19.77000045776367 L -89.37379455566406 19.888772964477536 L -89.25733184814453 19.94799995422363 L -88.87033081054688 20.00900077819824 L -88.48332977294922 19.94799995422363 L -88.13433074951172 19.77000045776367 L -87.85733032226562 19.493000030517575 L -87.67933654785156 19.14399909973144 L -87.61833190917969 18.75699996948242 L -87.66956329345703 18.431999206542965 L -87.67933654785156 18.370000839233395 L -87.85733032226562 18.020999908447262 L -88.13433074951172 17.74399948120117 L -88.48332977294922 17.565999984741207 L -88.87033081054688 17.503999710083004 L -89.25733184814453 17.565999984741207 L -89.49020385742188 17.68410491943359 L -89.60633087158203 17.743331909179684 L -89.7911605834961 17.928831100463864 L -89.8836669921875 18.020999908447262 L -89.88436126708984 18.022365570068356 L -90.00243377685547 18.25387382507324 L -90.06133270263672 18.370000839233395 L -90.0712661743164 18.431999206542965 L -90.11199951171875 18.6862621307373 L -90.12332916259766 18.75699996948242 L -90.11199951171875 18.827737808227536 L -90.08196258544922 19.01522827148437 M -85.58883666992188 26.664876937866204 L -85.61090087890625 26.80400085449218 L -85.6108627319336 26.804225921630852 L -85.56189727783203 27.114000320434563 L -85.4198989868164 27.393999099731438 L -85.2978515625 27.515497207641594 L -85.1978988647461 27.6154499053955 L -85.19696807861328 27.615928649902337 L -85.04451751708984 27.694067001342766 L -84.91889953613281 27.75799942016601 L -84.60890197753906 27.80699920654296 L -84.29889678955078 27.75799942016601 L -84.14496612548828 27.679384231567376 L -84.01934814453125 27.6154499053955 L -84.0188980102539 27.614999771118157 L -83.96800231933594 27.564100265502923 L -83.79789733886719 27.393999099731438 L -83.65489959716797 27.114000320434563 L -83.62796020507812 26.943572998046868 L -83.60590362548828 26.804450988769524 L -83.6059341430664 26.804225921630852 L -83.6328353881836 26.63457298278808 L -83.65489959716797 26.49500083923339 L -83.6550064086914 26.49479675292968 L -83.79789733886719 26.215000152587884 L -83.91939544677734 26.092952728271477 L -83.96800231933594 26.044569015502923 L -84.01934814453125 25.993450164794915 L -84.17328643798828 25.915384292602532 L -84.29889678955078 25.850999832153313 L -84.30084228515625 25.85069274902343 L -84.60890197753906 25.80200004577636 L -84.77877807617188 25.82893753051757 L -84.91835021972656 25.850999832153313 L -84.9185562133789 25.851104736328118 L -85.07228088378906 25.929065704345696 L -85.1978988647461 25.99300003051757 L -85.4198989868164 26.215000152587884 L -85.49796295166016 26.368383407592766 L -85.56189727783203 26.49444961547851 L -85.5823745727539 26.6240005493164 L -85.58883666992188 26.664876937866204 M -87.98383331298828 27.267383575439446 L -87.9198989868164 27.393449783325188 L -87.91943359375 27.393917083740227 L -87.7978515625 27.515497207641594 L -87.6978988647461 27.614999771118157 L -87.41889953613281 27.75799942016601 L -87.10890197753906 27.80699920654296 L -86.79889678955078 27.75799942016601 L -86.64496612548828 27.679384231567376 L -86.51934814453125 27.614999771118157 L -86.3978500366211 27.49295234680175 L -86.29789733886719 27.393449783325188 L -86.29694366455078 27.391590118408196 L -86.21928405761719 27.240066528320305 L -86.15489959716797 27.114000320434563 L -86.10590362548828 26.80400085449218 L -86.1328353881836 26.633573532104485 L -86.13435363769531 26.6240005493164 L -86.15489959716797 26.49444961547851 L -86.23351287841797 26.341066360473626 L -86.29789733886719 26.215000152587884 L -86.29837799072266 26.214521408081048 L -86.41939544677734 26.092952728271477 L -86.51934814453125 25.99300003051757 L -86.67328643798828 25.914934158325188 L -86.79889678955078 25.850999832153313 L -86.79955291748047 25.85089683532714 L -87.10890197753906 25.80200004577636 L -87.27877807617188 25.82893753051757 L -87.41835021972656 25.850999832153313 L -87.4185562133789 25.851104736328118 L -87.57228088378906 25.929065704345696 L -87.6978988647461 25.99300003051757 L -87.9198989868164 26.215000152587884 L -88.06189727783203 26.493999481201165 L -88.06400299072266 26.50728225708007 L -88.11090087890625 26.80400085449218 L -88.06400299072266 27.100717544555657 L -88.06189727783203 27.114000320434563 L -87.98383331298828 27.267383575439446 M -89.4384765625 27.7795124053955 L -89.29889678955078 27.75745010375976 L -89.29759979248047 27.756790161132805 L -89.14496612548828 27.679384231567376 L -89.01934814453125 27.614999771118157 L -88.8978500366211 27.49295234680175 L -88.79789733886719 27.392999649047844 L -88.79742431640625 27.3920669555664 L -88.65489959716797 27.114000320434563 L -88.60590362548828 26.80400085449218 L -88.65489959716797 26.493999481201165 L -88.79789733886719 26.215000152587884 L -88.91939544677734 26.092952728271477 L -89.01934814453125 25.99300003051757 L -89.17328643798828 25.914934158325188 L -89.29889678955078 25.850999832153313 L -89.29955291748047 25.85089683532714 L -89.60890197753906 25.80200004577636 L -89.77877807617188 25.82893753051757 L -89.91835021972656 25.850999832153313 L -89.9185562133789 25.851104736328118 L -90.07228088378906 25.929065704345696 L -90.11199951171875 25.949279785156243 L -90.1978988647461 25.99300003051757 L -90.4198989868164 26.215000152587884 L -90.56189727783203 26.493999481201165 L -90.58245086669922 26.6240005493164 L -90.58355712890625 26.63100051879882 L -90.61090087890625 26.80400085449218 L -90.56189727783203 27.114000320434563 L -90.4198989868164 27.392999649047844 L -90.1978988647461 27.614999771118157 L -90.11199951171875 27.658720016479485 L -90.04451751708984 27.69306564331054 L -89.91889953613281 27.75745010375976 L -89.9176025390625 27.757659912109368 L -89.74847412109375 27.784938812255852 L -89.60890197753906 27.80699920654296 L -89.4384765625 27.7795124053955 M -78.67926025390625 19.143850326538082 L -78.61833190917969 18.757331848144528 L -78.65904235839844 18.499069213867184 L -78.67932891845703 18.370000839233395 L -78.67940521240234 18.369852066040036 L -78.85733032226562 18.020999908447262 L -78.96515655517578 17.91317558288574 L -79.13433074951172 17.74399948120117 L -79.48332977294922 17.565999984741207 L -79.87033081054688 17.504999160766598 L -79.87200164794922 17.505262374877926 L -80.25733184814453 17.565999984741207 L -80.60633087158203 17.74399948120117 L -80.79119110107422 17.92885589599609 L -80.8836669921875 18.020999908447262 L -80.8840103149414 18.021678924560543 L -81.00245666503906 18.253904342651364 L -81.06133270263672 18.370000839233395 L -81.12332916259766 18.75699996948242 L -81.08195495605469 19.015262603759762 L -81.0616683959961 19.14399909973144 L -81.0611801147461 19.144950866699215 L -80.94287872314453 19.376903533935543 L -80.8836669921875 19.493331909179684 L -80.88331604003906 19.49368095397949 L -80.69880676269531 19.67885589599609 L -80.6066665649414 19.770999908447262 L -80.37376403808594 19.88978767395019 L -80.25733184814453 19.948999404907223 L -79.87200164794922 20.009737014770504 L -79.87033081054688 20.010000228881832 L -79.48332977294922 19.948999404907223 L -79.13433074951172 19.770999908447262 L -78.96515655517578 19.60182380676269 L -78.85733032226562 19.49399948120117 L -78.7385482788086 19.260429382324215 L -78.67932891845703 19.144332885742184 L -78.67926025390625 19.143850326538082 z" fill="none" stroke="rgb(255,0,0)" stroke-width="0.001mm" />
</svg>