<?xml version="1.0" standalone="no"?>
<!DOCTYPE svg PUBLIC "-//W3C//DTD SVG 1.1//EN"
  "http://www.w3.org/Graphics/SVG/1.1/DTD/svg11.dtd">
<svg width="28.22800064086914mm" height="25.027000427246094mm" viewBox="-56.873844146728516 66.85600280761717 28.22800064086914 25.027000427246094" xmlns="http://www.w3.org/2000/svg" version="1.1">
	<title>svgOutput</title>
	<desc>made with tinkercad</desc>
<path d="M -32.750999450683594 90.88300323486327 L -32.768001556396484 90.88300323486327 L -33.750999450683594 90.88300323486327 L -33.750999450683594 90.11199951171874 L -33.750999450683594 88.3669967651367 L -33.750999450683594 87.8669967651367 L -34.95100021362305 87.8669967651367 L -34.95100021362305 88.3669967651367 L -34.95100021362305 90.11199951171874 L -34.95100021362305 90.88300323486327 L -36.1510009765625 90.88300323486327 L -36.1510009765625 90.11199951171874 L -36.1510009765625 88.3669967651367 L -36.1510009765625 87.8669967651367 L -37.35100173950195 87.8669967651367 L -37.35100173950195 88.3669967651367 L -37.35100173950195 90.11199951171874 L -37.35100173950195 90.88300323486327 L -38.55099868774414 90.88300323486327 L -38.55099868774414 90.11199951171874 L -38.55099868774414 88.3669967651367 L -38.55099868774414 87.8669967651367 L -39.750999450683594 87.8669967651367 L -39.750999450683594 88.3669967651367 L -39.750999450683594 90.11199951171874 L -39.750999450683594 90.88300323486327 L -40.95100021362305 90.88300323486327 L -40.95100021362305 90.11199951171874 L -40.95100021362305 88.3669967651367 L -40.95100021362305 87.8669967651367 L -40.959999084472656 87.8669967651367 L -42.1510009765625 87.8669967651367 L -42.1510009765625 88.3669967651367 L -42.1510009765625 90.11199951171874 L -42.1510009765625 90.88300323486327 L -43.35100173950195 90.88300323486327 L -43.35100173950195 90.11199951171874 L -43.35100173950195 88.3669967651367 L -43.35100173950195 87.8669967651367 L -44.55099868774414 87.8669967651367 L -44.55099868774414 88.3669967651367 L -44.55099868774414 90.11199951171874 L -44.55099868774414 90.88300323486327 L -45.055999755859375 90.88300323486327 L -45.750999450683594 90.88300323486327 L -45.750999450683594 90.11199951171874 L -45.750999450683594 88.3669967651367 L -45.750999450683594 87.8669967651367 L -46.95100021362305 87.8669967651367 L -46.95100021362305 88.3669967651367 L -46.95100021362305 90.11199951171874 L -46.95100021362305 90.88300323486327 L -48.1510009765625 90.88300323486327 L -48.1510009765625 90.11199951171874 L -48.1510009765625 88.3669967651367 L -48.1510009765625 87.8669967651367 L -49.152000427246094 87.8669967651367 L -49.35100173950195 87.8669967651367 L -49.35100173950195 88.3669967651367 L -49.35100173950195 90.11199951171874 L -49.35100173950195 90.88300323486327 L -50.55099868774414 90.88300323486327 L -50.55099868774414 90.11199951171874 L -50.55099868774414 88.3669967651367 L -50.55099868774414 87.8669967651367 L -51.750999450683594 87.8669967651367 L -51.750999450683594 88.3669967651367 L -51.750999450683594 90.11199951171874 L -51.750999450683594 90.88300323486327 L -52.750999450683594 90.88300323486327 L -52.750999450683594 90.11199951171874 L -52.750999450683594 88.36900329589842 L -53.24800109863281 88.36900329589842 L -53.347999572753906 88.36900329589842 L -53.347999572753906 88.3669967651367 L -53.35100173950195 88.3669967651367 L -55.55099868774414 88.3669967651367 L -55.873844146728516 88.3669967651367 L -55.873844146728516 87.1699981689453 L -53.35100173950195 87.1699981689453 L -53.347999572753906 87.1699981689453 L -53.347999572753906 87.1689987182617 L -53.24800109863281 87.1689987182617 L -52.750999450683594 87.1689987182617 L -52.750999450683594 86.01599884033202 L -52.750999450683594 85.96900177001952 L -53.24800109863281 85.96900177001952 L -53.347999572753906 85.96900177001952 L -53.347999572753906 85.96700286865233 L -53.35100173950195 85.96700286865233 L -55.873844146728516 85.96700286865233 L -55.873844146728516 84.76999664306639 L -53.35100173950195 84.76999664306639 L -53.347999572753906 84.76999664306639 L -53.347999572753906 84.7689971923828 L -53.24800109863281 84.7689971923828 L -52.750999450683594 84.7689971923828 L -52.750999450683594 83.56900024414061 L -53.24800109863281 83.56900024414061 L -53.347999572753906 83.56900024414061 L -53.347999572753906 83.56700134277342 L -53.35100173950195 83.56700134277342 L -55.873844146728516 83.56700134277342 L -55.873844146728516 82.37000274658202 L -53.318843841552734 82.37000274658202 L -53.318843841552734 82.3990020751953 L -53.24800109863281 82.3990020751953 L -52.750999450683594 82.3990020751953 L -49.573001861572266 82.3990020751953 L -49.573001861572266 82.37000274658202 L -49.573001861572266 81.9199981689453 L -49.573001861572266 81.1689987182617 L -49.573001861572266 81.16699981689452 L -49.573001861572266 79.97000122070311 L -49.573001861572266 79.96900177001952 L -49.573001861572266 78.7689971923828 L -49.573001861572266 78.76699829101561 L -49.573001861572266 77.82399749755858 L -49.573001861572266 77.5699996948242 L -49.573001861572266 77.56900024414061 L -49.573001861572266 76.3939971923828 L -52.750999450683594 76.3939971923828 L -52.750999450683594 76.36900329589842 L -53.24800109863281 76.36900329589842 L -53.347999572753906 76.36900329589842 L -53.347999572753906 76.3669967651367 L -53.35100173950195 76.3669967651367 L -53.95100021362305 76.3669967651367 L -55.873844146728516 76.3669967651367 L -55.873844146728516 75.1699981689453 L -53.95100021362305 75.1699981689453 L -53.35100173950195 75.1699981689453 L -53.347999572753906 75.1699981689453 L -53.347999572753906 75.1689987182617 L -53.24800109863281 75.1689987182617 L -52.750999450683594 75.1689987182617 L -52.750999450683594 73.96900177001952 L -53.24800109863281 73.96900177001952 L -53.347999572753906 73.96900177001952 L -53.347999572753906 73.96700286865233 L -53.35100173950195 73.96700286865233 L -55.873844146728516 73.96700286865233 L -55.873844146728516 72.76999664306639 L -53.35100173950195 72.76999664306639 L -53.347999572753906 72.76999664306639 L -53.347999572753906 72.7689971923828 L -53.24800109863281 72.7689971923828 L -52.750999450683594 72.7689971923828 L -52.750999450683594 71.56900024414061 L -53.24800109863281 71.56900024414061 L -53.347999572753906 71.56900024414061 L -53.347999572753906 71.56700134277342 L -53.35100173950195 71.56700134277342 L -53.95100021362305 71.56700134277342 L -55.873844146728516 71.56700134277342 L -55.873844146728516 70.8730010986328 L -53.95100021362305 70.8730010986328 L -53.35100173950195 70.8730010986328 L -53.347999572753906 70.8730010986328 L -53.347999572753906 70.8720016479492 L -53.24800109863281 70.8720016479492 L -52.750999450683594 70.8720016479492 L -51.750999450683594 70.8720016479492 L -51.750999450683594 67.85600280761717 L -50.55099868774414 67.85600280761717 L -50.55099868774414 70.8720016479492 L -49.35100173950195 70.8720016479492 L -49.35100173950195 67.85600280761717 L -49.152000427246094 67.85600280761717 L -48.1510009765625 67.85600280761717 L -48.1510009765625 70.8720016479492 L -46.95100021362305 70.8720016479492 L -46.95100021362305 67.85600280761717 L -45.750999450683594 67.85600280761717 L -45.750999450683594 70.8720016479492 L -44.55099868774414 70.8720016479492 L -44.55099868774414 67.85600280761717 L -43.35100173950195 67.85600280761717 L -43.35100173950195 70.8720016479492 L -42.1510009765625 70.8720016479492 L -42.1510009765625 67.85600280761717 L -40.959999084472656 67.85600280761717 L -40.95100021362305 67.85600280761717 L -40.95100021362305 70.8720016479492 L -39.750999450683594 70.8720016479492 L -39.750999450683594 67.85600280761717 L -38.55099868774414 67.85600280761717 L -38.55099868774414 70.8720016479492 L -37.35100173950195 70.8720016479492 L -37.35100173950195 67.85600280761717 L -36.1510009765625 67.85600280761717 L -36.1510009765625 70.8720016479492 L -34.95100021362305 70.8720016479492 L -34.95100021362305 67.85600280761717 L -33.750999450683594 67.85600280761717 L -33.750999450683594 70.8720016479492 L -32.768001556396484 70.8720016479492 L -32.1510009765625 70.8720016479492 L -32.1510009765625 70.8730010986328 L -29.645843505859375 70.8730010986328 L -29.645843505859375 71.56700134277342 L -32.1510009765625 71.56700134277342 L -32.1510009765625 71.56900024414061 L -32.750999450683594 71.56900024414061 L -32.750999450683594 72.7689971923828 L -32.1510009765625 72.7689971923828 L -32.1510009765625 72.76999664306639 L -29.645843505859375 72.76999664306639 L -29.645843505859375 73.96700286865233 L -32.1510009765625 73.96700286865233 L -32.1510009765625 73.96900177001952 L -32.750999450683594 73.96900177001952 L -32.750999450683594 75.1689987182617 L -32.1510009765625 75.1689987182617 L -32.1510009765625 75.1699981689453 L -29.645843505859375 75.1699981689453 L -29.645843505859375 76.3669967651367 L -32.1510009765625 76.3669967651367 L -32.1510009765625 76.36900329589842 L -32.750999450683594 76.36900329589842 L -32.750999450683594 77.56900024414061 L -32.1510009765625 77.56900024414061 L -32.1510009765625 77.5699996948242 L -29.645843505859375 77.5699996948242 L -29.645843505859375 78.76699829101561 L -32.1510009765625 78.76699829101561 L -32.1510009765625 78.7689971923828 L -32.750999450683594 78.7689971923828 L -32.750999450683594 79.96900177001952 L -32.1510009765625 79.96900177001952 L -32.1510009765625 79.97000122070311 L -29.645843505859375 79.97000122070311 L -29.645843505859375 81.16699981689452 L -32.1510009765625 81.16699981689452 L -32.1510009765625 81.1689987182617 L -32.750999450683594 81.1689987182617 L -32.750999450683594 81.9199981689453 L -32.750999450683594 82.36900329589842 L -32.1510009765625 82.36900329589842 L -32.1510009765625 82.37000274658202 L -29.645843505859375 82.37000274658202 L -29.645843505859375 83.56700134277342 L -32.1510009765625 83.56700134277342 L -32.1510009765625 83.56900024414061 L -32.750999450683594 83.56900024414061 L -32.750999450683594 84.7689971923828 L -32.1510009765625 84.7689971923828 L -32.1510009765625 84.76999664306639 L -29.645843505859375 84.76999664306639 L -29.645843505859375 85.96700286865233 L -32.1510009765625 85.96700286865233 L -32.1510009765625 85.96900177001952 L -32.750999450683594 85.96900177001952 L -32.750999450683594 87.1689987182617 L -32.1510009765625 87.1689987182617 L -32.1510009765625 87.1699981689453 L -29.645843505859375 87.1699981689453 L -29.645843505859375 88.3669967651367 L -32.1510009765625 88.3669967651367 L -32.1510009765625 88.36900329589842 L -32.750999450683594 88.36900329589842 L -32.750999450683594 90.11199951171874 L -32.750999450683594 90.88300323486327 M -40.48220443725586 84.71954345703124 L -40.45661544799805 84.76999664306639 L -40.3886604309082 84.90399932861327 L -40.16666030883789 85.12599945068358 L -39.887657165527344 85.2679977416992 L -39.577659606933594 85.31700134277342 L -39.26765823364258 85.2679977416992 L -38.9886589050293 85.12599945068358 L -38.767356872558594 84.90469360351561 L -38.766658782958984 84.90399932861327 L -38.718204498291016 84.80845642089842 L -38.69856262207031 84.76999664306639 L -38.624000549316406 84.62400054931639 L -38.57500076293945 84.31500244140624 L -38.624000549316406 84.00499725341795 L -38.642765045166016 83.96800231933592 L -38.67245101928711 83.90946197509764 L -38.766658782958984 83.72499847412108 L -38.92537307739258 83.56700134277342 L -38.9886589050293 83.50399780273436 L -39.26765823364258 83.36100006103514 L -39.577659606933594 83.31199645996092 L -39.887657165527344 83.36100006103514 L -40.16666030883789 83.50399780273436 L -40.229942321777344 83.56700134277342 L -40.3886604309082 83.72499847412108 L -40.43745422363281 83.82054138183592 L -40.512237548828125 83.96800231933592 L -40.53099822998047 84.00499725341795 L -40.58000183105469 84.31500244140624 L -40.53115463256836 84.62302398681639 L -40.53099822998047 84.62400054931639 L -40.48220443725586 84.71954345703124 M -40.48220443725586 82.21954345703124 L -40.40590286254883 82.37000274658202 L -40.3886604309082 82.40399932861327 L -40.16666030883789 82.62599945068358 L -39.887657165527344 82.7679977416992 L -39.577659606933594 82.81700134277342 L -39.26765823364258 82.7679977416992 L -38.9886589050293 82.62599945068358 L -38.767356872558594 82.40469360351561 L -38.766658782958984 82.40399932861327 L -38.74941635131836 82.37000274658202 L -38.718204498291016 82.30845642089842 L -38.624000549316406 82.12400054931639 L -38.591651916503906 81.9199981689453 L -38.57500076293945 81.81500244140624 L -38.624000549316406 81.50499725341795 L -38.67245101928711 81.40946197509764 L -38.766658782958984 81.22499847412108 L -38.824920654296875 81.16699981689452 L -38.9886589050293 81.00399780273436 L -39.26765823364258 80.86100006103514 L -39.577659606933594 80.81199645996092 L -39.887657165527344 80.86100006103514 L -40.16666030883789 81.00399780273436 L -40.33039474487305 81.16699981689452 L -40.3886604309082 81.22499847412108 L -40.43745422363281 81.32054138183592 L -40.53099822998047 81.50499725341795 L -40.58000183105469 81.81500244140624 L -40.563350677490234 81.9199981689453 L -40.53115463256836 82.12302398681639 L -40.53099822998047 82.12400054931639 L -40.48220443725586 82.21954345703124 M -40.48220443725586 79.71954345703124 L -40.40488815307617 79.8720016479492 L -40.3886604309082 79.90399932861327 L -40.32265853881836 79.97000122070311 L -40.16666030883789 80.12599945068358 L -39.887657165527344 80.2679977416992 L -39.577659606933594 80.31700134277342 L -39.26765823364258 80.2679977416992 L -38.9886589050293 80.12599945068358 L -38.83266067504883 79.97000122070311 L -38.766658782958984 79.90399932861327 L -38.750431060791016 79.8720016479492 L -38.718204498291016 79.80845642089842 L -38.624000549316406 79.62400054931639 L -38.57500076293945 79.31500244140624 L -38.624000549316406 79.00499725341795 L -38.67245101928711 78.90946197509764 L -38.745208740234375 78.76699829101561 L -38.766658782958984 78.72499847412108 L -38.9886589050293 78.50399780273436 L -39.26765823364258 78.36100006103514 L -39.577659606933594 78.31199645996092 L -39.887657165527344 78.36100006103514 L -40.16666030883789 78.50399780273436 L -40.3886604309082 78.72499847412108 L -40.41011047363281 78.76699829101561 L -40.43745422363281 78.82054138183592 L -40.53099822998047 79.00499725341795 L -40.58000183105469 79.31500244140624 L -40.53115463256836 79.62302398681639 L -40.53099822998047 79.62400054931639 L -40.48220443725586 79.71954345703124 M -46.433998107910156 84.55899810791014 L -46.37300109863281 84.17199707031249 L -46.405155181884766 83.96800231933592 L -46.433998107910156 83.78500366210936 L -46.54518508911133 83.56700134277342 L -46.61199951171875 83.43599700927733 L -46.888999938964844 83.15799713134764 L -47.237998962402344 82.98100280761717 L -47.625 82.9189987182617 L -48.012001037597656 82.98100280761717 L -48.36199951171875 83.15799713134764 L -48.638999938964844 83.43599700927733 L -48.705814361572266 83.56700134277342 L -48.81700134277344 83.78500366210936 L -48.84584426879883 83.96800231933592 L -48.87799835205078 84.17199707031249 L -48.81700134277344 84.55899810791014 L -48.70938491821289 84.76999664306639 L -48.638999938964844 84.90799713134764 L -48.36199951171875 85.18499755859374 L -48.012001037597656 85.36299896240233 L -47.625 85.4240036010742 L -47.237998962402344 85.36299896240233 L -46.888999938964844 85.18499755859374 L -46.61199951171875 84.90799713134764 L -46.5416145324707 84.76999664306639 L -46.433998107910156 84.55899810791014 M -38.624000549316406 77.12400054931639 L -38.57500076293945 76.81500244140624 L -38.577369689941406 76.8000030517578 L -38.624000549316406 76.50499725341795 L -38.67245101928711 76.40946197509764 L -38.69413757324219 76.3669967651367 L -38.766658782958984 76.22499847412108 L -38.9886589050293 76.00399780273436 L -39.26765823364258 75.86100006103514 L -39.577659606933594 75.81199645996092 L -39.887657165527344 75.86100006103514 L -40.16666030883789 76.00399780273436 L -40.3886604309082 76.22499847412108 L -40.43745422363281 76.32054138183592 L -40.46101379394531 76.3669967651367 L -40.53099822998047 76.50499725341795 L -40.57762908935547 76.8000030517578 L -40.58000183105469 76.81500244140624 L -40.53115463256836 77.12302398681639 L -40.53099822998047 77.12400054931639 L -40.48220443725586 77.21954345703124 L -40.3886604309082 77.40399932861327 L -40.222660064697266 77.5699996948242 L -40.16666030883789 77.62599945068358 L -39.887657165527344 77.7679977416992 L -39.577659606933594 77.81700134277342 L -39.26765823364258 77.7679977416992 L -38.9886589050293 77.62599945068358 L -38.93265914916992 77.5699996948242 L -38.767356872558594 77.40469360351561 L -38.766658782958984 77.40399932861327 L -38.718204498291016 77.30845642089842 L -38.624000549316406 77.12400054931639 M -47.98662185668945 76.3669967651367 L -47.625 76.4240036010742 L -47.26337814331055 76.3669967651367 L -47.237998962402344 76.36299896240233 L -46.95100021362305 76.21662139892577 L -46.888999938964844 76.18499755859374 L -46.61199951171875 75.90799713134764 L -46.544677734375 75.77600097656249 L -46.433998107910156 75.55899810791014 L -46.37300109863281 75.17199707031249 L -46.373313903808594 75.1699981689453 L -46.433998107910156 74.78500366210936 L -46.61199951171875 74.43599700927733 L -46.888999938964844 74.15799713134764 L -46.95100021362305 74.12655639648436 L -47.237998962402344 73.98100280761717 L -47.32538604736328 73.96700286865233 L -47.625 73.9189987182617 L -47.92461395263672 73.96700286865233 L -48.012001037597656 73.98100280761717 L -48.1510009765625 74.05129241943358 L -48.36199951171875 74.15799713134764 L -48.638999938964844 74.43599700927733 L -48.81700134277344 74.78500366210936 L -48.877685546875 75.1699981689453 L -48.87799835205078 75.17199707031249 L -48.81700134277344 75.55899810791014 L -48.70632553100586 75.77600097656249 L -48.638999938964844 75.90799713134764 L -48.36199951171875 76.18499755859374 L -48.1510009765625 76.29230499267577 L -48.012001037597656 76.36299896240233 L -47.98662185668945 76.3669967651367 M -38.624000549316406 74.62400054931639 L -38.57500076293945 74.31500244140624 L -38.624000549316406 74.00499725341795 L -38.643272399902344 73.96700286865233 L -38.67245101928711 73.90946197509764 L -38.7651252746582 73.72799682617186 L -38.766658782958984 73.72499847412108 L -38.9886589050293 73.50399780273436 L -39.26765823364258 73.36100006103514 L -39.577659606933594 73.31199645996092 L -39.887657165527344 73.36100006103514 L -40.16666030883789 73.50399780273436 L -40.3886604309082 73.72499847412108 L -40.39019012451172 73.72799682617186 L -40.43745422363281 73.82054138183592 L -40.5117301940918 73.96700286865233 L -40.53099822998047 74.00499725341795 L -40.58000183105469 74.31500244140624 L -40.53115463256836 74.62302398681639 L -40.53099822998047 74.62400054931639 L -40.48220443725586 74.71954345703124 L -40.3886604309082 74.90399932861327 L -40.16666030883789 75.12599945068358 L -40.08020782470703 75.1699981689453 L -39.887657165527344 75.2679977416992 L -39.577659606933594 75.31700134277342 L -39.26765823364258 75.2679977416992 L -39.075111389160156 75.1699981689453 L -38.9886589050293 75.12599945068358 L -38.767356872558594 74.90469360351561 L -38.766658782958984 74.90399932861327 L -38.718204498291016 74.80845642089842 L -38.624000549316406 74.62400054931639 z" fill="none" stroke="rgb(255,0,0)" stroke-width="0.001mm" />
</svg>