<?xml version="1.0" standalone="no"?>
<!DOCTYPE svg PUBLIC "-//W3C//DTD SVG 1.1//EN"
  "http://www.w3.org/Graphics/SVG/1.1/DTD/svg11.dtd">
<svg width="108.31199932098389mm" height="108.2958445549011mm" viewBox="-98.69599914550781 -99.73400115966794 108.31199932098389 108.2958445549011" xmlns="http://www.w3.org/2000/svg" version="1.1">
	<title>svgOutput</title>
	<desc>made with tinkercad</desc>
<path d="M -88.302001953125 -18.99200057983398 L -88.31967163085938 -19.034612655639645 L -88.32084655761719 -19.034126281738278 L -90.11199951171875 -18.292650222778317 L -90.67400360107422 -18.05999946594238 L -91.13200378417969 -19.166000366210934 L -90.11199951171875 -19.58781814575195 L -88.77828979492188 -20.13936614990234 L -88.75499725341797 -20.149000167846676 L -88.7390365600586 -20.110477447509762 L -88.20700073242188 -20.32999992370605 L -88.2231216430664 -20.368955612182614 L -88.66600036621094 -21.438999176025387 L -89.22100067138672 -21.20899963378906 L -89.23814392089844 -21.250419616699215 L -90.11199951171875 -20.888671874999996 L -91.59200286865234 -20.275999069213864 L -92.05000305175781 -21.381000518798825 L -90.11199951171875 -22.183267593383786 L -89.6729965209961 -22.36499977111816 L -89.65740966796875 -22.327379226684567 L -89.1259994506836 -22.548000335693356 L -89.141357421875 -22.585081100463864 L -89.58499908447266 -23.656000137329098 L -90.11199951171875 -23.43815994262695 L -90.13899993896484 -23.427000045776364 L -90.15595245361328 -23.467922210693356 L -92.51100158691406 -22.49399948120117 L -92.96800231933594 -23.59900093078613 L -90.60550689697266 -24.57600021362304 L -90.59100341796875 -24.582000732421868 L -90.58851623535156 -24.57600021362304 L -90.575439453125 -24.544366836547844 L -90.4992446899414 -24.57600021362304 L -90.04399871826172 -24.76499938964843 L -90.05927276611328 -24.801895141601555 L -90.50299835205078 -25.8740005493164 L -91.05799865722656 -25.643999099731438 L -91.07479095458984 -25.68457412719726 L -93.42900085449219 -24.711000442504876 L -93.88700103759766 -25.815999984741204 L -91.51000213623047 -26.79999923706054 L -91.4944076538086 -26.76234054565429 L -90.96299743652344 -26.98200035095214 L -90.97870635986328 -27.019939422607415 L -91.4219970703125 -28.090999603271477 L -91.97579193115234 -27.861085891723626 L -91.97599792480469 -27.86100006103515 L -91.9932861328125 -27.902772903442376 L -91.99344635009766 -27.902706146240227 L -94.3479995727539 -26.927999496459954 L -94.80500030517578 -28.033000946044915 L -92.45109558105469 -29.00743865966796 L -92.45074462890625 -29.007585525512688 L -92.4280014038086 -29.01700019836425 L -92.41242218017578 -28.979331970214837 L -91.88099670410156 -29.19899940490722 L -91.8967056274414 -29.236940383911126 L -92.33999633789062 -30.308000564575188 L -92.89464569091797 -30.079145431518548 L -92.8949966430664 -30.079000473022454 L -92.91180419921875 -30.11956024169921 L -95.13899993896484 -29.19757461547851 L -95.26599884033203 -29.145000457763665 L -95.7239990234375 -30.250999450683587 L -95.13899993896484 -30.49292564392089 L -93.36924743652344 -31.224800109863274 L -93.34700012207031 -31.23399925231933 L -93.3313980102539 -31.196365356445305 L -92.79900360107422 -31.416999816894524 L -92.81446075439453 -31.454231262207024 L -93.25900268554688 -32.5250015258789 L -93.81300354003906 -32.296001434326165 L -93.82994842529297 -32.336921691894524 L -95.13899993896484 -31.79557037353515 L -96.18499755859375 -31.36300086975097 L -96.64199829101562 -32.467998504638665 L -95.13899993896484 -33.08956146240234 L -94.28690338134766 -33.44194030761718 L -94.26499938964844 -33.45100021362304 L -94.24943542480469 -33.41336822509765 L -93.71800231933594 -33.6339988708496 L -93.73326873779297 -33.67089462280273 L -94.177001953125 -34.74300003051757 L -94.73100280761719 -34.51300048828124 L -95.13899993896484 -35.49700164794921 L -95.13899993896484 -36.562000274658196 L -94.92986297607422 -36.562000274658196 L -94.53900146484375 -36.562000274658196 L -94.53900146484375 -37.76200103759765 L -95.13899993896484 -37.76200103759765 L -95.13899993896484 -37.78200149536132 L -97.69200134277344 -37.78200149536132 L -97.69200134277344 -38.97800064086913 L -95.13899993896484 -38.97800064086913 L -95.12000274658203 -38.97800064086913 L -95.12000274658203 -38.9620018005371 L -94.53900146484375 -38.9620018005371 L -94.53900146484375 -38.97800064086913 L -94.53900146484375 -40.16199874877929 L -95.13899993896484 -40.16199874877929 L -95.13899993896484 -40.180007934570305 L -97.69300079345703 -40.18099975585937 L -97.69300079345703 -41.37699890136718 L -95.13899993896484 -41.37699890136718 L -95.12100219726562 -41.37699890136718 L -95.12100219726562 -41.36199951171874 L -94.53900146484375 -41.36199951171874 L -94.53900146484375 -41.37699890136718 L -94.53900146484375 -42.562000274658196 L -95.13899993896484 -42.562000274658196 L -95.13899993896484 -42.580005645751946 L -97.69400024414062 -42.581001281738274 L -97.69400024414062 -43.77700042724609 L -95.13899993896484 -43.77700042724609 L -95.12100219726562 -43.77700042724609 L -95.12100219726562 -43.76200103759765 L -94.53900146484375 -43.76200103759765 L -94.53900146484375 -43.77700042724609 L -94.53900146484375 -44.9620018005371 L -95.13899993896484 -44.9620018005371 L -95.13899993896484 -44.98000717163085 L -97.69400024414062 -44.980998992919915 L -97.69400024414062 -46.17699813842773 L -95.13899993896484 -46.17699813842773 L -95.12200164794922 -46.17699813842773 L -95.12200164794922 -46.16199874877929 L -94.53900146484375 -46.16199874877929 L -94.53900146484375 -46.17699813842773 L -94.53900146484375 -47.36199951171874 L -95.13899993896484 -47.36199951171874 L -95.13899993896484 -47.38000488281249 L -97.69499969482422 -47.38100051879882 L -97.69499969482422 -48.576999664306626 L -95.13899993896484 -48.576999664306626 L -95.12200164794922 -48.576999664306626 L -95.12200164794922 -48.56200027465819 L -94.53900146484375 -48.56200027465819 L -94.53900146484375 -48.576999664306626 L -94.53900146484375 -49.15200042724608 L -94.53900146484375 -49.76200103759764 L -95.13899993896484 -49.76200103759764 L -95.13899993896484 -49.78000640869139 L -97.69599914550781 -49.780998229980455 L -97.69599914550781 -50.97700119018553 L -95.13899993896484 -50.97700119018553 L -95.12300109863281 -50.97700119018553 L -95.12300109863281 -50.962001800537095 L -94.53900146484375 -50.962001800537095 L -94.53900146484375 -50.97700119018553 L -94.53900146484375 -52.16199874877928 L -95.13899993896484 -52.16199874877928 L -95.13899993896484 -52.18000411987303 L -97.69599914550781 -52.18099975585936 L -97.69599914550781 -53.37699890136717 L -95.13899993896484 -53.37699890136717 L -95.1240005493164 -53.37699890136717 L -95.1240005493164 -53.361999511718736 L -94.53900146484375 -53.361999511718736 L -94.53900146484375 -53.37699890136717 L -94.53900146484375 -54.56200027465819 L -95.13899993896484 -54.56200027465819 L -95.13899993896484 -55.62699890136717 L -94.73100280761719 -56.61100006103514 L -94.53900146484375 -56.53128814697264 L -94.177001953125 -56.381000518798814 L -93.77842712402344 -57.34400177001952 L -93.71800231933594 -57.49000167846678 L -94.27200317382812 -57.72000122070311 L -94.25328826904297 -57.765163421630845 L -94.25364685058594 -57.765312194824205 L -95.13899993896484 -58.13219070434569 L -96.61299896240234 -58.743000030517564 L -96.15499877929688 -59.84799957275389 L -95.13899993896484 -59.42698287963866 L -93.79585266113281 -58.870395660400376 L -93.77799987792969 -58.86299896240233 L -93.79550170898438 -58.820766448974595 L -93.25900268554688 -58.598999023437486 L -93.24166870117188 -58.64075088500975 L -92.79900360107422 -59.70700073242186 L -93.35399627685547 -59.93700027465819 L -93.3357925415039 -59.98096084594725 L -95.13899993896484 -60.72850418090819 L -95.69499969482422 -60.95899963378905 L -95.23699951171875 -62.063999176025376 L -95.13899993896484 -62.02337265014647 L -93.73179626464844 -61.43999862670897 L -92.86100006103516 -61.078998565673814 L -92.87799835205078 -61.03798675537108 L -92.33999633789062 -60.81600189208983 L -92.32339477539062 -60.85612869262694 L -92.08173370361328 -61.43999862670897 L -91.88099670410156 -61.92499923706053 L -92.43464660644531 -62.15385437011717 L -92.43499755859375 -62.15399932861327 L -92.41680145263672 -62.197971343994126 L -94.7770004272461 -63.17699813842772 L -94.31900024414062 -64.28199768066405 L -91.9590072631836 -63.3030548095703 L -91.94200134277344 -63.29600143432616 L -91.95866394042969 -63.255802154541 L -91.4219970703125 -63.03300094604491 L -91.40528869628906 -63.07336807250975 L -90.96299743652344 -64.14199829101561 L -91.51699829101562 -64.37100219726561 L -91.49845123291016 -64.41581726074217 L -93.85800170898438 -65.3939971923828 L -93.4000015258789 -66.49900054931639 L -91.07706451416016 -65.53600311279295 L -91.04100799560547 -65.5210494995117 L -91.02400207519531 -65.51399993896483 L -91.04100799560547 -65.47296142578124 L -90.50299835205078 -65.24999999999999 L -90.48603820800781 -65.29098510742186 L -90.38462829589844 -65.53600311279295 L -90.04399871826172 -66.35900115966795 L -90.59491729736328 -66.5877227783203 L -90.5979995727539 -66.58899688720702 L -90.5799331665039 -66.63260650634764 L -90.5826187133789 -66.6337203979492 L -92.94000244140625 -67.61100006103514 L -92.48200225830078 -68.71600341796874 L -90.12432861328125 -67.7386016845703 L -90.12215423583984 -67.73769378662108 L -90.12214660644531 -67.73769378662108 L -90.11968994140625 -67.73667144775389 L -90.10600280761719 -67.73100280761717 L -90.12285614013672 -67.69033050537108 L -89.58499908447266 -67.46800231933592 L -89.5683822631836 -67.50812530517577 L -89.1259994506836 -68.57599639892577 L -89.67778015136719 -68.80507659912108 L -89.67964935302734 -68.80585479736327 L -89.68000030517578 -68.80599975585936 L -89.66180419921875 -68.84996795654295 L -89.66312408447266 -68.8505172729492 L -92.02200317382812 -69.82900238037108 L -91.56400299072266 -70.93399810791014 L -89.20482635498047 -69.9553985595703 L -89.20240020751953 -69.95439147949217 L -89.18699645996094 -69.94799804687499 L -89.20365905761719 -69.90781402587889 L -88.66600036621094 -69.68499755859374 L -88.6494369506836 -69.72501373291014 L -88.20700073242188 -70.7939987182617 L -88.76063537597656 -71.02243804931639 L -88.76200103759766 -71.0230026245117 L -88.74341583251953 -71.0678024291992 L -91.10299682617188 -72.04599761962889 L -90.6449966430664 -73.15100097656249 L -88.284912109375 -72.17259979248045 L -88.26899719238281 -72.16600036621092 L -88.2858657836914 -72.12530517578124 L -87.74800109863281 -71.90200042724608 L -87.73104095458984 -71.94297790527342 L -87.28900146484375 -73.01100158691405 L -87.84300231933594 -73.24099731445311 L -87.64157104492188 -73.72799682617186 L -87.43670654296875 -74.22329711914061 L -87.43599700927734 -74.22499847412108 L -86.68299865722656 -74.97799682617186 L -86.68250274658203 -74.97750091552733 L -86.25800323486328 -74.55300140380858 L -85.41000366210938 -75.40200042724608 L -85.83399963378906 -75.82599639892577 L -85.81951141357422 -75.8405075073242 L -85.81999969482422 -75.84100341796874 L -87.62999725341797 -77.65100097656249 L -86.78399658203125 -78.4970016479492 L -84.97350311279297 -76.68650054931639 L -84.96499633789062 -76.67800140380858 L -84.97699737548828 -76.66600036621092 L -84.56099700927734 -76.24999999999999 L -84.54900360107422 -76.26200866699217 L -83.71299743652344 -77.09899902343749 L -84.13700103759766 -77.5230026245117 L -84.12349700927734 -77.53649902343749 L -85.93399810791016 -79.34799957275389 L -85.08899688720703 -80.19400024414061 L -83.27799987792969 -78.38200378417967 L -83.2699966430664 -78.37400054931639 L -83.28001403808594 -78.36399841308592 L -82.86399841308594 -77.94699859619139 L -82.85362243652344 -77.95738983154295 L -82.01599884033203 -78.79599761962889 L -82.44000244140625 -79.22000122070311 L -82.42649841308594 -79.23349761962889 L -84.23799896240234 -81.0449981689453 L -83.39199829101562 -81.89099884033202 L -81.91999816894531 -80.4189987182617 L -81.58049774169922 -80.07949829101561 L -81.572998046875 -80.07199859619139 L -81.58350372314453 -80.06150054931639 L -81.16699981689453 -79.64499664306639 L -81.15650177001953 -79.65550231933592 L -80.31900024414062 -80.4929962158203 L -80.74299621582031 -80.91699981689452 L -80.72899627685547 -80.93099975585936 L -81.71800231933594 -81.9199981689453 L -82.54100036621094 -82.7429962158203 L -81.69499969482422 -83.58899688720702 L -80.02783203125 -81.9199981689453 L -79.87699890136719 -81.7689971923828 L -79.88700103759766 -81.75900268554686 L -79.47000122070312 -81.34200286865233 L -79.4602279663086 -81.35176849365233 L -78.89199829101562 -81.9199981689453 L -78.62200164794922 -82.19000244140624 L -79.0459976196289 -82.61399841308592 L -79.03250122070312 -82.62750244140624 L -79.03299713134766 -82.62799835205077 L -80.84500122070312 -84.44000244140624 L -79.9990005493164 -85.28600311279295 L -78.18699645996094 -83.47399902343749 L -78.1865005493164 -83.47350311279295 L -78.18000030517578 -83.46700286865233 L -78.19049835205078 -83.4564971923828 L -77.77300262451172 -83.03900146484374 L -77.76249694824219 -83.0494918823242 L -76.92400360107422 -83.88700103759764 L -77.3489990234375 -84.31099700927733 L -77.33499908447266 -84.32499694824217 L -77.33550262451172 -84.32550048828124 L -79.14800262451172 -86.13800048828124 L -78.302001953125 -86.98400115966795 L -76.48999786376953 -85.17100524902342 L -76.48300170898438 -85.16400146484374 L -76.4935073852539 -85.15350341796874 L -76.07599639892578 -84.73600006103514 L -76.06560516357422 -84.74637603759764 L -75.22699737548828 -85.58399963378905 L -75.6520004272461 -86.00900268554686 L -75.63899230957031 -86.02199554443358 L -75.63899993896484 -86.02200317382811 L -77.45099639892578 -87.83499908447264 L -76.60600280761719 -88.68099975585936 L -74.79299926757812 -86.8679962158203 L -74.78700256347656 -86.86199951171874 L -74.79750061035156 -86.85150146484374 L -74.37899780273438 -86.43299865722655 L -74.36849212646484 -86.44349670410155 L -73.72799682617188 -87.08323669433592 L -73.52999877929688 -87.28099822998045 L -73.72799682617188 -87.47899627685545 L -73.95500183105469 -87.70600128173827 L -73.72799682617188 -87.93299865722655 L -73.20567321777344 -88.45532226562499 L -73.2020034790039 -88.45899963378905 L -72.21800231933594 -88.86599731445311 L -72.21764373779297 -88.86515045166014 L -71.98814392089844 -88.31235504150389 L -71.98799896240234 -88.31199645996092 L -70.87899780273438 -88.77100372314452 L -70.879150390625 -88.77135467529295 L -71.10900115966797 -89.32499694824217 L -71.07132720947266 -89.34062194824217 L -71.39065551757812 -90.11199951171874 L -72.0530014038086 -91.71199798583983 L -70.947998046875 -92.1689987182617 L -70.09646606445312 -90.11199951171874 L -69.96680450439453 -89.79876708984374 L -69.96399688720703 -89.79199981689452 L -69.99722290039062 -89.77825927734374 L -69.77100372314453 -89.23000335693358 L -69.73715209960938 -89.24401092529295 L -68.66200256347656 -89.68900299072264 L -68.83729553222656 -90.11199951171874 L -68.89170837402344 -90.24329376220702 L -68.89199829101562 -90.24400329589842 L -68.85552215576172 -90.25909423828124 L -69.83699798583984 -92.62999725341795 L -68.73200225830078 -93.08699798583983 L -67.75050354003906 -90.71604919433592 L -67.74800109863281 -90.70999908447264 L -67.78034973144531 -90.69661712646483 L -67.5530014038086 -90.1490020751953 L -67.5212173461914 -90.16217041015624 L -66.44499969482422 -90.60800170898436 L -66.67400360107422 -91.16200256347655 L -66.63838195800781 -91.17675781249999 L -67.62000274658203 -93.54799652099608 L -66.51499938964844 -94.00599670410155 L -65.53600311279297 -91.64107513427733 L -65.5337905883789 -91.63574218749999 L -65.53364562988281 -91.63539123535155 L -65.53099822998047 -91.62899780273436 L -65.53600311279297 -91.62693023681639 L -65.5636978149414 -91.61544799804686 L -65.53600311279297 -91.54873657226561 L -65.33599853515625 -91.06700134277342 L -65.3038558959961 -91.08030700683592 L -64.22699737548828 -91.52600097656249 L -64.45700073242188 -92.08100128173827 L -64.42137908935547 -92.09574127197264 L -64.42152404785156 -92.09609985351561 L -65.40299987792969 -94.46700286865233 L -64.2969970703125 -94.9240036010742 L -63.31664276123047 -92.55339050292967 L -63.31399917602539 -92.54699707031249 L -63.34550857543945 -92.53396606445311 L -63.11899948120117 -91.98600006103514 L -63.087406158447266 -91.9990768432617 L -62.0099983215332 -92.4449996948242 L -62.2400016784668 -92.99900054931639 L -62.204376220703125 -93.0137481689453 L -63.185001373291016 -95.38500213623045 L -62.08000183105469 -95.84300231933592 L -61.09600067138672 -93.46600341796874 L -61.12870788574219 -93.45245361328124 L -60.902000427246094 -92.90399932861327 L -60.86900329589844 -92.9176559448242 L -59.792999267578125 -93.36299896240233 L -60.02199935913086 -93.91799926757811 L -59.98638153076172 -93.93275451660155 L -60.909217834472656 -96.16200256347653 L -60.96799850463867 -96.30400085449216 L -59.862998962402344 -96.76100158691403 L -59.61503219604492 -96.16200256347653 L -58.881649017333984 -94.39040374755858 L -58.88150405883789 -94.39004516601561 L -58.87900161743164 -94.38400268554686 L -58.911354064941406 -94.37062072753905 L -58.683998107910156 -93.82199859619139 L -58.65187072753906 -93.83533477783202 L -57.57600021362305 -94.28199768066405 L -57.80500030517578 -94.83599853515624 L -57.76938247680664 -94.85075378417967 L -57.769527435302734 -94.85111236572264 L -58.31219482421875 -96.16200256347653 L -58.750999450683594 -97.22200012207028 L -57.645999908447266 -97.68000030517575 L -57.01759719848633 -96.16200256347653 L -56.66400909423828 -95.30785369873045 L -56.6619987487793 -95.30300140380858 L -56.69469451904297 -95.28945159912108 L -56.46699905395508 -94.74099731445311 L -56.43485641479492 -94.75430297851561 L -55.358001708984375 -95.19999694824217 L -55.5880012512207 -95.75399780273436 L -54.604000091552734 -96.16200256347653 L -53.53900146484375 -96.16200256347653 L -53.53900146484375 -95.95285797119139 L -53.53900146484375 -95.56199645996092 L -52.3390007019043 -95.56199645996092 L -52.3390007019043 -96.16200256347653 L -52.33199691772461 -96.16200256347653 L -52.33100128173828 -98.73000335693357 L -51.1349983215332 -98.73000335693357 L -51.1349983215332 -96.16200256347653 L -51.1349983215332 -96.15699768066403 L -51.138999938964844 -96.15699768066403 L -51.138999938964844 -95.56199645996092 L -51.1349983215332 -95.56199645996092 L -49.93899917602539 -95.56199645996092 L -49.93899917602539 -96.16200256347653 L -49.93299865722656 -96.16200256347653 L -49.93299865722656 -98.73100280761716 L -48.736000061035156 -98.73100280761716 L -48.73699951171875 -96.16200256347653 L -48.73699951171875 -96.15799713134763 L -48.73899841308594 -96.15799713134763 L -48.73899841308594 -95.56199645996092 L -48.73723220825195 -95.56199645996092 L -47.53900146484375 -95.56199645996092 L -47.53900146484375 -96.16200256347653 L -47.53300094604492 -96.16200256347653 L -47.53300094604492 -98.73100280761716 L -46.33599853515625 -98.73100280761716 L -46.336997985839844 -96.16200256347653 L -46.33700180053711 -96.15899658203122 L -46.3390007019043 -96.15899658203122 L -46.3390007019043 -95.56199645996092 L -46.33723068237305 -95.56199645996092 L -45.138999938964844 -95.56199645996092 L -45.138999938964844 -96.16200256347653 L -45.132999420166016 -96.16200256347653 L -45.132999420166016 -98.73200225830075 L -43.93600082397461 -98.73200225830075 L -43.9370002746582 -96.16200256347653 L -43.9370002746582 -96.15899658203122 L -43.93899917602539 -96.15899658203122 L -43.93899917602539 -95.56199645996092 L -43.937232971191406 -95.56199645996092 L -42.73899841308594 -95.56199645996092 L -42.73899841308594 -96.16200256347653 L -42.733001708984375 -96.16200256347653 L -42.733001708984375 -98.73200225830075 L -41.5359992980957 -98.73200225830075 L -41.5369987487793 -96.16200256347653 L -41.5369987487793 -96.16000366210935 L -41.53900146484375 -96.16000366210935 L -41.53900146484375 -95.56199645996092 L -41.5372314453125 -95.56199645996092 L -40.959999084472656 -95.56199645996092 L -40.3390007019043 -95.56199645996092 L -40.3390007019043 -96.16200256347653 L -40.33300018310547 -96.16200256347653 L -40.33300018310547 -98.73300170898435 L -39.13600158691406 -98.73300170898435 L -39.137001037597656 -96.16200256347653 L -39.137001037597656 -96.16100311279294 L -39.138999938964844 -96.16100311279294 L -39.138999938964844 -95.56199645996092 L -39.13723373413086 -95.56199645996092 L -37.93899917602539 -95.56199645996092 L -37.93899917602539 -96.16200256347653 L -37.93299865722656 -96.16200256347653 L -37.93299865722656 -98.73400115966794 L -36.736000061035156 -98.73400115966794 L -36.73699951171875 -96.16200256347653 L -36.73699951171875 -96.16100311279294 L -36.73899841308594 -96.16100311279294 L -36.73899841308594 -95.56199645996092 L -36.73723220825195 -95.56199645996092 L -35.53900146484375 -95.56199645996092 L -35.53900146484375 -96.16200256347653 L -34.4739990234375 -96.16200256347653 L -33.4900016784668 -95.75399780273436 L -33.720001220703125 -95.19999694824217 L -32.768001556396484 -94.80597686767577 L -32.611000061035156 -94.74099731445311 L -32.38100051879883 -95.2949981689453 L -32.352230072021484 -95.28308105468749 L -32.35208511352539 -95.28343200683592 L -31.98749542236328 -96.16200256347653 L -31.3700008392334 -97.65000152587888 L -30.264999389648438 -97.19200134277341 L -30.692432403564453 -96.16200256347653 L -31.246997833251953 -94.82564544677733 L -31.24714469909668 -94.82528686523436 L -31.250999450683594 -94.81600189208983 L -31.276840209960938 -94.8267135620117 L -31.50200080871582 -94.28199768066405 L -31.47692108154297 -94.27159118652342 L -30.393999099731445 -93.82199859619139 L -30.164146423339844 -94.37664794921874 L -30.163999557495117 -94.37699890136717 L -30.135234832763672 -94.36508178710936 L -29.390300750732422 -96.16200256347653 L -29.15399932861328 -96.73200225830075 L -28.048999786376953 -96.27400207519528 L -28.095430374145508 -96.16200256347653 L -28.672000885009766 -94.77120971679686 L -29.034000396728516 -93.8980026245117 L -29.059833526611328 -93.90870666503905 L -29.28499984741211 -93.36299896240233 L -29.260068893432617 -93.35268402099608 L -28.672000885009766 -93.10929107666014 L -28.176000595092773 -92.90399932861327 L -27.947145462036133 -93.45764923095702 L -27.94700050354004 -93.45800018310545 L -27.9185848236084 -93.44623565673827 L -26.937000274658203 -95.81400299072264 L -25.855430603027344 -95.36571502685545 L -25.832000732421875 -95.35600280761717 L -26.813499450683594 -92.98844909667967 L -26.816999435424805 -92.98000335693358 L -26.841646194458008 -92.99021911621092 L -27.067853927612305 -92.44535064697264 L -27.06800079345703 -92.4449996948242 L -27.043067932128906 -92.43468475341795 L -25.958999633789062 -91.98600006103514 L -25.729999542236328 -92.54000091552733 L -25.701229095458984 -92.52809143066405 L -24.7189998626709 -94.89600372314452 L -24.576000213623047 -94.83673095703124 L -23.61400032043457 -94.43800354003905 L -24.576000213623047 -92.11885833740233 L -24.595996856689453 -92.07064819335936 L -24.600000381469727 -92.06099700927733 L -24.6249942779541 -92.07135772705077 L -24.85099983215332 -91.52600097656249 L -24.826183319091797 -91.51573181152342 L -24.576000213623047 -91.41217803955077 L -23.742000579833984 -91.06700134277342 L -23.511999130249023 -91.62100219726561 L -23.48358726501465 -91.60923004150389 L -22.50200080871582 -93.97699737548827 L -21.39699935913086 -93.5189971923828 L -22.378498077392578 -91.1514434814453 L -22.378501892089844 -91.15143585205077 L -22.381999969482422 -91.1429977416992 L -22.407487869262695 -91.15356445312499 L -22.632999420166016 -90.60800170898436 L -22.60807228088379 -90.59767150878905 L -21.524999618530273 -90.1490020751953 L -21.295146942138672 -90.70264434814452 L -21.295000076293945 -90.70300292968749 L -21.266584396362305 -90.6912384033203 L -20.28499984741211 -93.05899810791014 L -19.204940795898438 -92.61133575439452 L -19.18000030517578 -92.60099792480467 L -20.165000915527344 -90.22499847412108 L -20.18964195251465 -90.23521423339842 L -20.41579246520996 -89.68949890136717 L -20.416000366210938 -89.68900299072264 L -20.391422271728516 -89.67882537841795 L -19.30699920654297 -89.23000335693358 L -19.077999114990234 -89.78500366210936 L -19.049238204956055 -89.77307128906249 L -18.066999435424805 -92.14099884033202 L -16.985929489135742 -91.69291687011717 L -16.961999893188477 -91.68299865722655 L -17.944454193115234 -89.31455230712889 L -17.947999954223633 -89.30599975585936 L -17.972646713256836 -89.3162155151367 L -18.198999404907227 -88.77100372314452 L -18.174182891845703 -88.76072692871092 L -17.09000015258789 -88.31199645996092 L -16.860000610351562 -88.86599731445311 L -16.384000778198242 -88.6691207885742 L -15.87600040435791 -88.45899963378905 L -15.123000144958496 -87.70600128173827 L -15.54800033569336 -87.28099822998045 L -14.699000358581543 -86.43299865722655 L -14.274999618530273 -86.85700225830077 L -14.27399730682373 -86.85599517822264 L -12.461999893188477 -88.66699981689452 L -11.616000175476074 -87.82199859619139 L -13.427998542785645 -86.01099395751952 L -13.425999641418457 -86.00900268554686 L -13.42650032043457 -86.0084991455078 L -13.850000381469727 -85.58499908447264 L -13.85099983215332 -85.58399963378905 L -13.001999855041504 -84.73600006103514 L -13.00100040435791 -84.73699951171874 L -12.585000038146973 -85.15299987792967 L -12.57800006866455 -85.16000366210936 L -10.765999794006348 -86.9720001220703 L -9.920000076293945 -86.12599945068358 L -11.732000350952148 -84.31400299072264 L -11.729000091552734 -84.31099700927733 L -12.151997566223145 -83.88899993896483 L -12.152998924255371 -83.88800048828124 L -12.154000282287598 -83.88700103759764 L -11.305000305175781 -83.03900146484374 L -11.303999900817871 -83.04000091552733 L -11.303000450134277 -83.04100036621092 L -10.880999565124512 -83.46299743652342 L -10.880499839782715 -83.46250152587889 L -9.067999839782715 -85.27500152587889 L -8.222000122070312 -84.42900085449217 L -10.035496711730957 -82.61749267578124 L -10.031999588012695 -82.61399841308592 L -10.453499794006348 -82.19249725341795 L -10.456000328063965 -82.19000244140624 L -10.185999870300293 -81.9199981689453 L -9.607999801635742 -81.34200286865233 L -9.1899995803833 -81.76000213623045 L -9.184000015258789 -81.76599884033202 L -9.029999732971191 -81.9199981689453 L -7.370999813079834 -83.57900238037108 L -6.525000095367432 -82.73300170898436 L -7.3379998207092285 -81.9199981689453 L -8.192000389099121 -81.06600189208983 L -8.338000297546387 -80.9199981689453 L -8.335000038146973 -80.91699981689452 L -8.758999824523926 -80.4929962158203 L -8.192000389099121 -79.92600250244139 L -7.910999774932861 -79.64499664306639 L -7.486999988555908 -80.06900024414061 L -7.486499786376953 -80.06849670410155 L -5.672999858856201 -81.88200378417967 L -4.827000141143799 -81.03600311279295 L -6.640998363494873 -79.22299957275389 L -6.638000011444092 -79.22000122070311 L -7.061999797821045 -78.79599761962889 L -6.2146148681640625 -77.94761657714842 L -6.214000225067139 -77.94699859619139 L -5.794993877410889 -78.3669967651367 L -5.795000076293945 -78.3669967651367 L -5.790945053100586 -78.37105560302733 L -5.789999961853027 -78.3720016479492 L -5.789998531341553 -78.3720016479492 L -5.789498329162598 -78.37249755859374 L -4.06879997253418 -80.09225463867186 L -3.9760000705718994 -80.18499755859374 L -3.130000114440918 -79.33999633789061 L -3.5740065574645996 -78.89599609374999 L -4.94350004196167 -77.52649688720702 L -4.943999767303467 -77.52600097656249 L -4.940999984741211 -77.5230026245117 L -5.363999843597412 -77.09999847412108 L -5.364999771118164 -77.09899902343749 L -4.517000198364258 -76.24999999999999 L -4.515999794006348 -76.25099945068358 L -4.0970001220703125 -76.6699981689453 L -4.09250020980835 -76.67449951171874 L -4.0920000076293945 -76.6750030517578 L -3.075716733932495 -77.69128417968749 L -2.2780001163482666 -78.48899841308592 L -1.4320000410079956 -77.6429977416992 L -2.5808303356170654 -76.4948043823242 L -3.2464985847473145 -75.82949829101561 L -3.2469968795776367 -75.82900238037108 L -3.24399995803833 -75.82599639892577 L -3.6679999828338623 -75.40200042724608 L -2.819999933242798 -74.55300140380858 L -2.3954999446868896 -74.97750091552733 L -2.3949999809265137 -74.97799682617186 L -1.6419999599456787 -74.22499847412108 L -1.436431884765625 -73.72799682617186 L -1.2350000143051147 -73.24099731445311 L -1.2358530759811401 -73.24064636230467 L -1.7890000343322754 -73.01100158691405 L -1.3300000429153442 -71.90200042724608 L -0.7760000228881836 -72.13200378417967 L -0.757978081703186 -72.0885543823242 L 0 -72.40155792236327 L 1.6089999675750732 -73.06600189208983 L 2.065999984741211 -71.96099853515624 L 3.03485975770585e-14 -71.1078414916992 L -0.2998333275318146 -70.98402404785155 L -0.31200000643730164 -70.97899627685545 L -0.32812774181365967 -71.0179977416992 L -0.8709999918937683 -70.7939987182617 L -0.8547967672348022 -70.75485229492186 L -0.41200000047683716 -69.68499755859374 L 0 -69.85573577880858 L 0.14300000667572021 -69.91500091552733 L 0.16069462895393372 -69.8722457885742 L 2.5260000228881836 -70.84999847412108 L 2.9820001125335693 -69.74400329589842 L 0.6179898977279663 -68.76736450195311 L 0.6050000190734863 -68.76200103759764 L 0.5890297293663025 -68.8006134033203 L 0.04800000041723251 -68.57599639892577 L 0.06360311061143875 -68.53833770751952 L 0.5070000290870667 -67.46800231933592 L 1.0609999895095825 -67.69699859619139 L 1.0782103538513184 -67.65545654296874 L 3.443000078201294 -68.63200378417967 L 3.9000000953674316 -67.52600097656249 L 1.5219999551773071 -66.5439987182617 L 1.505835771560669 -66.58312225341795 L 0.9660000205039978 -66.35900115966795 L 0.9817653298377991 -66.32090759277342 L 1.3066284656524658 -65.53600311279295 L 1.4249999523162842 -65.24999999999999 L 1.9800000190734863 -65.48000335693358 L 1.9972586631774902 -65.43830108642577 L 2.2338452339172363 -65.53600311279295 L 4.360000133514404 -66.41400146484374 L 4.816999912261963 -65.30899810791014 L 2.4552574157714844 -64.3327178955078 L 2.4549038410186768 -64.3325729370117 L 2.438999891281128 -64.32599639892577 L 2.4231185913085938 -64.3644332885742 L 1.8849999904632568 -64.14199829101561 L 1.9009069204330444 -64.1035690307617 L 2.3440001010894775 -63.03300094604491 L 2.897646903991699 -63.262851715087876 L 2.8980000019073486 -63.263000488281236 L 2.9156110286712646 -63.22044754028319 L 5.2769999504089355 -64.1959991455078 L 5.734000205993652 -63.09099960327147 L 3.3724067211151123 -62.115776062011705 L 3.3559999465942383 -62.109001159667955 L 3.3402817249298096 -62.14709091186522 L 2.802999973297119 -61.92499923706053 L 2.818681001663208 -61.887111663818345 L 3.003734827041626 -61.43999862670897 L 3.26200008392334 -60.81600189208983 L 3.816999912261963 -61.0449981689453 L 3.8343324661254883 -61.00316238403319 L 4.891733169555664 -61.43999862670897 L 6.193999767303467 -61.978000640869126 L 6.651000022888184 -60.8730010986328 L 4.29197883605957 -59.89842605590819 L 4.291625499725342 -59.898281097412095 L 4.27400016784668 -59.89099884033202 L 4.258051872253418 -59.92956161499022 L 3.7209999561309814 -59.70700073242186 L 3.73675537109375 -59.66905212402342 L 4.181000232696533 -58.598999023437486 L 4.735000133514404 -58.82799911499022 L 4.752538204193115 -58.785663604736314 L 4.752892017364502 -58.78580856323241 L 7.111999988555908 -59.76100158691405 L 7.568999767303467 -58.65499877929686 L 5.190999984741211 -57.673000335693345 L 5.174849987030029 -57.71205139160155 L 4.639999866485596 -57.49000167846678 L 4.655742645263672 -57.451965332031236 L 4.700427532196045 -57.34400177001952 L 5.098999977111816 -56.381000518798814 L 5.6529998779296875 -56.61100006103514 L 6.060999870300293 -55.62699890136717 L 6.060999870300293 -54.56200027465819 L 5.460999965667725 -54.56200027465819 L 5.460999965667725 -53.361999511718736 L 6.060999870300293 -53.361999511718736 L 6.060999870300293 -53.34198760986327 L 7.0087504386901855 -53.341247558593736 L 8.192000389099121 -53.34032821655272 L 8.616000175476074 -53.340000152587876 L 8.614999771118164 -52.144001007080064 L 8.192000389099121 -52.14432907104491 L 6.060999870300293 -52.14598464965819 L 6.041999816894531 -52.14599990844725 L 6.042013168334961 -52.16199874877928 L 5.460999965667725 -52.16199874877928 L 5.460999965667725 -52.146450042724595 L 5.460999965667725 -50.962001800537095 L 6.060999870300293 -50.962001800537095 L 6.060999870300293 -50.942993164062486 L 8.192000389099121 -50.942165374755845 L 8.614999771118164 -50.94200134277342 L 8.61400032043457 -49.74499893188475 L 8.192000389099121 -49.745326995849595 L 6.060999870300293 -49.746982574462876 L 6.040999889373779 -49.747001647949205 L 6.041012763977051 -49.76200103759764 L 5.460999965667725 -49.76200103759764 L 5.460999965667725 -49.74745178222655 L 5.460999965667725 -49.15200042724608 L 5.460999965667725 -48.56200027465819 L 6.060999870300293 -48.56200027465819 L 6.060999870300293 -48.54299163818358 L 8.192000389099121 -48.54216384887694 L 8.61400032043457 -48.54199981689452 L 8.61299991607666 -47.34500122070312 L 8.192000389099121 -47.345325469970696 L 6.060999870300293 -47.34698486328124 L 6.040999889373779 -47.347000122070305 L 6.040999889373779 -47.36199951171874 L 5.460999965667725 -47.36199951171874 L 5.460999965667725 -47.34745025634765 L 5.460999965667725 -46.16199874877929 L 6.060999870300293 -46.16199874877929 L 6.060999870300293 -46.142993927001946 L 8.192000389099121 -46.14216232299804 L 8.61299991607666 -46.14199829101562 L 8.612000465393066 -44.94499969482421 L 8.192000389099121 -44.945327758789055 L 6.060999870300293 -44.94698333740234 L 6.039999961853027 -44.9469985961914 L 6.040012359619141 -44.9620018005371 L 5.460999965667725 -44.9620018005371 L 5.460999965667725 -44.94744873046874 L 5.460999965667725 -43.76200103759765 L 6.060999870300293 -43.76200103759765 L 6.060999870300293 -43.74299240112304 L 8.192000389099121 -43.7421646118164 L 8.612000465393066 -43.74200057983398 L 8.612000465393066 -42.544998168945305 L 8.192000389099121 -42.54532623291015 L 6.060999870300293 -42.54698181152343 L 6.039000034332275 -42.54700088500976 L 6.039012432098389 -42.562000274658196 L 5.460999965667725 -42.562000274658196 L 5.460999965667725 -42.5474510192871 L 5.460999965667725 -41.36199951171874 L 6.060999870300293 -41.36199951171874 L 6.060999870300293 -41.34299087524413 L 8.192000389099121 -41.34216308593749 L 8.612000465393066 -41.34199905395507 L 8.611000061035156 -40.145000457763665 L 8.192000389099121 -40.14532470703124 L 6.060999870300293 -40.146980285644524 L 6.038000106811523 -40.14699935913085 L 6.038012504577637 -40.16199874877929 L 5.460999965667725 -40.16199874877929 L 5.460999965667725 -40.147449493408196 L 5.460999965667725 -38.9620018005371 L 6.060999870300293 -38.9620018005371 L 6.060999870300293 -38.94298934936523 L 8.192000389099121 -38.94216156005859 L 8.611000061035156 -38.94200134277343 L 8.609999656677246 -37.74499893188476 L 8.192000389099121 -37.74532318115234 L 6.038000106811523 -37.74700164794921 L 6.038000106811523 -37.76200103759765 L 5.460999965667725 -37.76200103759765 L 5.460999965667725 -37.74744796752929 L 5.460999965667725 -36.86399841308593 L 5.460999965667725 -36.562000274658196 L 6.060999870300293 -36.562000274658196 L 6.060999870300293 -35.49700164794921 L 5.6529998779296875 -34.51300048828124 L 5.098999977111816 -34.74300003051757 L 4.639999866485596 -33.6339988708496 L 5.193292617797852 -33.40429306030273 L 5.193999767303467 -33.403999328613274 L 5.1869730949401855 -33.387039184570305 L 6.676551342010498 -32.76800155639648 L 7.538000106811523 -32.4099998474121 L 7.08767032623291 -31.32350540161132 L 7.079999923706055 -31.305000305175774 L 4.729388236999512 -32.28145217895507 L 4.727832794189453 -32.28210067749023 L 4.703999996185303 -32.291999816894524 L 4.7099609375 -32.306350708007805 L 4.181000232696533 -32.5250015258789 L 4.175425052642822 -32.5115737915039 L 3.7209999561309814 -31.416999816894524 L 4.2747931480407715 -31.187499999999993 L 4.276000022888184 -31.187000274658196 L 4.269183158874512 -31.170545578002923 L 6.61899995803833 -30.19499969482421 L 6.160999774932861 -29.090000152587884 L 3.8115949630737305 -30.065952301025384 L 3.8107457160949707 -30.066305160522454 L 3.7850000858306885 -30.076999664306634 L 3.790395498275757 -30.08997726440429 L 3.26200008392334 -30.308000564575188 L 3.257146120071411 -30.296272277832024 L 2.802999973297119 -29.19899940490722 L 3.3570001125335693 -28.969999313354485 L 3.3503928184509277 -28.954036712646477 L 3.3508875370025635 -28.953830718994134 L 4.029337406158447 -28.67200088500976 L 5.699999809265137 -27.978000640869134 L 5.241000175476074 -26.872999191284173 L 2.892805576324463 -27.848449707031243 L 2.8924522399902344 -27.84859657287597 L 2.865000009536743 -27.860000610351555 L 2.870208263397217 -27.872537612915032 L 2.3440001010894775 -28.090999603271477 L 2.338852882385254 -28.07856369018554 L 1.8849999904632568 -26.98200035095214 L 2.438999891281128 -26.753000259399407 L 2.4320993423461914 -26.736328124999993 L 2.43245267868042 -26.736181259155266 L 4.78000020980835 -25.760999679565423 L 4.321000099182129 -24.656000137329094 L 1.9750101566314697 -25.630943298339837 L 1.9746570587158203 -25.631090164184563 L 1.9459999799728394 -25.642999649047844 L 1.9513376951217651 -25.655878067016594 L 1.4249999523162842 -25.8740005493164 L 1.419885277748108 -25.861642837524407 L 0.9660000205039978 -24.76499938964843 L 1.42124342918396 -24.57600021362304 L 1.5199999809265137 -24.534999847412102 L 1.5134458541870117 -24.519178390502923 L 3.859999895095825 -23.544000625610348 L 3.4019999504089355 -22.438999176025387 L 1.0555120706558228 -23.41374015808105 L 1.0555078983306885 -23.413742065429684 L 1.0260000228881836 -23.42600059509277 L 1.0314834117889404 -23.439201354980465 L 0.5070000290870667 -23.656000137329098 L 0.5019086003303528 -23.643709182739254 L 0.04800000041723251 -22.548000335693356 L 0.6016465425491333 -22.318147659301754 L 0.6019999980926514 -22.318000793457028 L 0.5951591730117798 -22.301471710205075 L 2.940999984741211 -21.326999664306637 L 2.4820001125335693 -20.222999572753903 L 0.13757655024528503 -21.195896148681637 L 0.13686537742614746 -21.196191787719723 L 0.10599999874830246 -21.20899963378906 L 0.11143384128808975 -21.22208213806152 L 0 -21.268260955810543 L -0.41200000047683716 -21.438999176025387 L -0.8709999918937683 -20.32999992370605 L -0.3160000145435333 -20.100999832153317 L -0.32314273715019226 -20.083780288696286 L -7.556369911027299e-15 -19.949680328369137 L 2.0209999084472656 -19.111000061035153 L 1.562000036239624 -18.006000518798825 L 0 -18.6551342010498 L -0.7810863852500916 -18.97973823547363 L -0.8130000233650208 -18.993000030517575 L -0.807917594909668 -19.00525093078613 L -1.3296468257904053 -19.221853256225582 L -1.3300000429153442 -19.22200012207031 L -1.3349955081939697 -19.20993041992187 L -1.7890000343322754 -18.113000869750973 L -1.2358530759811401 -17.883354187011715 L -1.2350000143051147 -17.882999420166012 L -1.6419999599456787 -16.899000167846676 L -1.6456763744354248 -16.895322799682614 L -2.1570000648498535 -16.38400077819824 L -2.3949999809265137 -16.145999908447262 L -2.3959999084472656 -16.146999359130856 L -2.632999897003174 -16.38400077819824 L -2.819999933242798 -16.57099914550781 L -3.006779670715332 -16.38400077819824 L -3.667066812515259 -15.722934722900387 L -3.6679999828338623 -15.722000122070309 L -3.2735002040863037 -15.32750034332275 L -3.2730000019073486 -15.328000068664547 L -3.243532657623291 -15.298467636108395 L -1.4559999704360962 -13.506999969482418 L -2.302000045776367 -12.66199970245361 L -4.089518070220947 -14.451484680175778 L -4.0920000076293945 -14.44900035858154 L -4.09250020980835 -14.449500083923336 L -4.515999794006348 -14.873000144958493 L -4.517000198364258 -14.873999595642086 L -5.364999771118164 -14.02499961853027 L -5.363999843597412 -14.024000167846676 L -4.971000671386719 -13.631000518798825 L -4.96999979019165 -13.631999969482418 L -4.940016269683838 -13.601983070373532 L -4.9390177726745605 -13.600983619689938 L -3.1519999504089355 -11.812000274658201 L -3.997999906539917 -10.965999603271483 L -5.78402853012085 -12.754976272583004 L -5.785525321960449 -12.756474494934078 L -5.789999961853027 -12.7519998550415 L -6.212002277374268 -13.17499732971191 L -6.214000225067139 -13.177000045776364 L -7.061999797821045 -12.328000068664547 L -7.059999942779541 -12.326000213623043 L -6.668500900268555 -11.9345006942749 L -6.666999816894531 -11.935999870300291 L -6.636533737182617 -11.905466079711912 L -6.6345367431640625 -11.903465270996092 L -4.849999904632568 -10.114999771118162 L -5.696000099182129 -9.27000045776367 L -7.480520248413086 -11.056483268737791 L -7.4830169677734375 -11.058982849121092 L -7.486999988555908 -11.05500030517578 L -7.908499717712402 -11.476499557495115 L -7.910999774932861 -11.479000091552733 L -8.192000389099121 -11.197999954223631 L -8.757783889770508 -10.632216453552244 L -8.758999824523926 -10.63099956512451 L -8.366000175476074 -10.238000869750975 L -8.364999771118164 -10.239000320434569 L -8.334016799926758 -10.207983016967772 L -8.192000389099121 -10.065809249877928 L -6.546999931335449 -8.418999671936033 L -6.77426815032959 -8.19200038909912 L -7.394000053405762 -7.572999954223631 L -8.011640548706055 -8.19200038909912 L -8.192000389099121 -8.37275695800781 L -9.179534912109375 -9.362464904785154 L -9.184000015258789 -9.35799980163574 L -9.607999801635742 -9.781999588012694 L -10.454676628112793 -8.935322761535643 L -10.456000328063965 -8.934000015258787 L -10.064000129699707 -8.54199981689453 L -10.062999725341797 -8.54300022125244 L -10.031026840209961 -8.510973930358885 L -9.712577819824219 -8.19200038909912 L -8.244999885559082 -6.722000122070311 L -9.090999603271484 -5.876999855041503 L -10.877017974853516 -7.664982318878172 L -10.880999565124512 -7.6609997749328596 L -11.305000305175781 -8.08500003814697 L -12.152174949645996 -7.238822460174559 L -12.154000282287598 -7.236999988555906 L -11.761038780212402 -6.844963550567625 L -11.760000228881836 -6.846000194549559 L -11.728026390075684 -6.813973426818846 L -11.727526664733887 -6.813473224639891 L -10.008708000183105 -5.091816902160644 L -9.942999839782715 -5.026000022888183 L -10.788999557495117 -4.181000232696532 L -11.204683303833008 -4.597140312194823 L -12.573518753051758 -5.967481613159179 L -12.574018478393555 -5.967981815338134 L -12.57800006866455 -5.964000225067138 L -13.001999855041504 -6.38800001144409 L -13.849176406860352 -5.541821479797362 L -13.85099983215332 -5.5399999618530265 L -13.459500312805176 -5.148499965667724 L -13.458000183105469 -5.150000095367431 L -13.424527168273926 -5.116472244262694 L -12.408819198608398 -4.099088191986083 L -11.640000343322754 -3.328999996185302 L -12.487000465393066 -2.483999967575073 L -13.605339050292969 -3.6041858196258536 L -14.270527839660645 -4.270472526550292 L -14.271024703979492 -4.270970344543456 L -14.274999618530273 -4.267000198364257 L -14.699000358581543 -4.69099998474121 L -15.54800033569336 -3.8429999351501456 L -15.123000144958496 -3.4179999828338614 L -15.87600040435791 -2.664999961853027 L -16.384000778198242 -2.454882144927978 L -16.860000610351562 -2.2579998970031734 L -16.860353469848633 -2.258853197097778 L -17.09000015258789 -2.8120000362396236 L -18.197662353515625 -2.3535535335540767 L -18.198558807373047 -2.3531825542449947 L -18.198999404907227 -2.352999925613403 L -17.995418548583984 -1.8626326322555538 L -17.994876861572266 -1.8628572225570674 L -17.994155883789062 -1.8631558418273921 L -17.967748641967773 -1.7995194196701045 L -17.220977783203125 1.1102230246251565e-16 L -17.1614990234375 0.14332775771617898 L -17.007999420166016 0.5128445029258728 L -17.17984962463379 0.5842283964157104 L -18.113000869750977 0.9710000157356261 L -18.515949249267578 1.1102230246251565e-16 L -19.07254981994629 -1.3412609100341792 L -19.077999114990234 -1.3389999866485591 L -19.30699920654297 -1.8940000534057613 L -20.415071487426758 -1.4353841543197627 L -20.41596794128418 -1.4350129365921016 L -20.416000366210938 -1.4349999427795406 L -20.212322235107422 -0.9435165524482724 L -20.211875915527344 -0.9437015056610104 L -20.21115493774414 -0.9440000057220456 L -20.184803009033203 -0.8804956078529355 L -20.184595108032227 -0.8799972534179684 L -19.819412231445312 1.1102230246251565e-16 L -19.378498077392578 1.062483310699463 L -19.225000381469727 1.4320000410079956 L -20.329999923706055 1.8899999856948848 L -21.11431884765625 1.1102230246251565e-16 L -21.289342880249023 -0.4217616021633146 L -21.289901733398438 -0.42311009764671303 L -21.295000076293945 -0.42100000381469704 L -21.524999618530273 -0.9750000238418576 L -22.63207244873047 -0.5163843631744383 L -22.63296890258789 -0.5160129666328428 L -22.632999420166016 -0.5159999728202818 L -22.429765701293945 -0.024331482127308728 L -22.428874969482422 -0.02470093220472324 L -22.42815589904785 -0.025000000372528912 L -22.417781829833984 1.1102230246251565e-16 L -21.59549903869629 1.9814833402633663 L -21.441999435424805 2.351000070571899 L -21.613849639892578 2.422228336334228 L -22.547000885009766 2.8098444938659664 L -22.547298431396484 2.8091239929199214 L -23.37939453125 0.8039937019348143 L -23.50755500793457 0.4951588213443756 L -23.511999130249023 0.4970000088214874 L -23.71833610534668 1.1102230246251565e-16 L -23.742000579833984 -0.0570000000298022 L -23.879718780517578 1.1102230246251565e-16 L -24.576000213623047 0.2881812453269959 L -24.849573135375977 0.4014092683792114 L -24.8504695892334 0.4017806053161621 L -24.85099983215332 0.4020000100135803 L -24.646821975708008 0.8946918845176696 L -24.645875930786133 0.8942990899085997 L -24.64515495300293 0.8939999938011168 L -24.576000213623047 1.0606471300125122 L -23.812498092651367 2.90048336982727 L -23.659000396728516 3.269999980926513 L -23.83085060119629 3.341228485107421 L -24.763999938964844 3.72884440422058 L -24.764299392700195 3.7281239032745352 L -25.596393585205078 1.7229937314987178 L -25.724700927734375 1.4138070344924927 L -25.729999542236328 1.4160000085830688 L -25.958999633789062 0.8619999885559081 L -27.066871643066406 1.320533037185669 L -27.06777000427246 1.3209044933319092 L -27.06800079345703 1.3209999799728394 L -26.863208770751953 1.81428050994873 L -26.862876892089844 1.8141428232192989 L -26.86215591430664 1.8138442039489742 L -26.029499053955078 3.8203277587890616 L -25.91498374938965 4.09600019454956 L -25.875999450683594 4.189844608306884 L -26.047849655151367 4.261228561401366 L -26.981000900268555 4.647999763488769 L -27.210071563720703 4.09600019454956 L -27.942110061645508 2.331976413726806 L -27.94700050354004 2.3340001106262203 L -28.176000595092773 1.77999997138977 L -28.672000885009766 1.9852876663208003 L -29.284225463867188 2.2386796474456783 L -29.28499984741211 2.2390000820159908 L -29.284502029418945 2.24020767211914 L -29.263568878173828 2.290941953659057 L -29.080930709838867 2.7335796356201167 L -29.079875946044922 2.7331428527832027 L -29.07915496826172 2.7328441143035884 L -28.672000885009766 3.713982105255126 L -28.513469696044922 4.09600019454956 L -28.246498107910156 4.739327907562255 L -28.093000411987305 5.108844280242919 L -28.264850616455078 5.1802282333374015 L -29.197999954223633 5.566999912261962 L -29.808441162109375 4.09600019454956 L -30.15911102294922 3.2509748935699454 L -30.163999557495117 3.253000020980834 L -30.39349937438965 2.6992068290710445 L -30.393999099731445 2.6979999542236324 L -31.499940872192383 3.1571452617645255 L -31.50200080871582 3.1579999923706046 L -31.29774284362793 3.652139663696288 L -31.295000076293945 3.6510000228881827 L -31.110332489013672 4.09600019454956 L -30.30900001525879 6.026999950408934 L -30.480850219726562 6.098228454589842 L -31.413999557495117 6.48584461212158 L -31.41429901123047 6.485124111175535 L -32.172000885009766 4.659264087677001 L -32.246395111083984 4.479993820190429 L -32.37555694580078 4.168745040893554 L -32.38100051879883 4.171000003814696 L -32.41213607788086 4.09600019454956 L -32.611000061035156 3.6170001029968253 L -32.768001556396484 3.6819801330566397 L -33.720001220703125 4.076000213623046 L -33.71169662475586 4.09600019454956 L -33.56970977783203 4.438000202178954 L -33.4900016784668 4.630000114440917 L -34.4739990234375 5.0380001068115225 L -35.53900146484375 5.0380001068115225 L -35.53900146484375 4.438000202178954 L -36.727420806884766 4.438000202178954 L -36.727420806884766 4.438000202178954 L -36.73899841308594 4.438000202178954 L -36.73899841308594 4.980010032653808 L -36.72700119018555 4.980000019073485 L -36.72700119018555 4.980000019073485 L -36.72695541381836 5.0380001068115225 L -36.72623062133789 5.971850872039794 L -36.72602081298828 6.237999916076658 L -36.725311279296875 7.1513490676879865 L -36.724998474121094 7.552844047546385 L -37.92100143432617 7.553843975067137 L -37.922489166259766 5.638000011444091 L -37.92268753051758 5.382494926452636 L -37.92295455932617 5.0380001068115225 L -37.93899917602539 5.0380001068115225 L -37.93899917602539 4.438000202178954 L -39.12742233276367 4.438000202178954 L -39.138999938964844 4.438000202178954 L -39.138999938964844 4.98100996017456 L -39.12699890136719 4.980999946594237 L -39.125 7.553999900817869 L -40.32099914550781 7.554999828338621 L -40.32249069213867 5.638000011444091 L -40.32295608520508 5.0380001068115225 L -40.3390007019043 5.0380001068115225 L -40.3390007019043 4.438000202178954 L -40.959999084472656 4.438000202178954 L -41.52742385864258 4.438000202178954 L -41.52742385864258 4.438000202178954 L -41.53900146484375 4.438000202178954 L -41.53900146484375 4.982853889465331 L -41.527000427246094 4.982843875885009 L -41.52695846557617 5.0380001068115225 L -41.52531051635742 7.153222560882567 L -41.525001525878906 7.554999828338621 L -42.72100067138672 7.556000232696531 L -42.722686767578125 5.385494709014892 L -42.722957611083984 5.0380001068115225 L -42.73899841308594 5.0380001068115225 L -42.73899841308594 4.438000202178954 L -43.927425384521484 4.438000202178954 L -43.927425384521484 4.438000202178954 L -43.93899917602539 4.438000202178954 L -43.93899917602539 4.984010219573974 L -43.927001953125 4.9840002059936515 L -43.926998138427734 4.9840002059936515 L -43.92695617675781 5.0380001068115225 L -43.92531204223633 7.1552224159240705 L -43.92499923706055 7.556843757629393 L -45.12099838256836 7.557843685150145 L -45.12268829345703 5.387305736541747 L -45.12295913696289 5.0380001068115225 L -45.138999938964844 5.0380001068115225 L -45.138999938964844 4.438000202178954 L -46.32742691040039 4.438000202178954 L -46.3390007019043 4.438000202178954 L -46.3390007019043 4.985010147094726 L -46.32699966430664 4.985000133514403 L -46.32695770263672 5.0380001068115225 L -46.32500076293945 7.558000087738035 L -47.520999908447266 7.559000015258787 L -47.5229606628418 5.0380001068115225 L -47.53900146484375 5.0380001068115225 L -47.53900146484375 4.438000202178954 L -48.72742462158203 4.438000202178954 L -48.7274284362793 4.438000202178954 L -48.73899841308594 4.438000202178954 L -48.73899841308594 4.986853599548339 L -48.72700119018555 4.986843585968017 L -48.725311279296875 7.157222270965574 L -48.724998474121094 7.559000015258787 L -49.92100143432617 7.559999942779539 L -49.92124938964844 7.237999916076658 L -49.92268753051758 5.390305995941161 L -49.9229621887207 5.0380001068115225 L -49.93899917602539 5.0380001068115225 L -49.93899917602539 4.438000202178954 L -51.12664031982422 4.438000202178954 L -51.126644134521484 4.438000202178954 L -51.138999938964844 4.438000202178954 L -51.138999938964844 4.988010883331298 L -51.125999450683594 4.987999916076659 L -51.125999450683594 4.987999916076659 L -51.123470306396484 7.158537864685057 L -51.123374938964844 7.237999916076658 L -51.12300109863281 7.560843467712401 L -51.31023025512695 7.560999870300291 L -52.319156646728516 7.5618433952331525 L -52.319156646728516 7.561842918395994 L -52.31953430175781 7.237999916076658 L -52.3213996887207 5.638000011444091 L -52.321685791015625 5.391305923461913 L -52.32196044921875 5.0380001068115225 L -52.32209777832031 5.0380001068115225 L -52.3390007019043 5.0380001068115225 L -52.3390007019043 4.438000202178954 L -53.24800109863281 4.438000202178954 L -53.53900146484375 4.438000202178954 L -53.53900146484375 5.0380001068115225 L -54.604000091552734 5.0380001068115225 L -55.5880012512207 4.630000114440917 L -55.366302490234375 4.09600019454956 L -55.358001708984375 4.076000213623046 L -56.46699905395508 3.6170001029968253 L -56.665863037109375 4.09600019454956 L -56.696998596191406 4.171000003814696 L -56.720088958740234 4.161435604095458 L -56.72079849243164 4.161140918731689 L -57.34400177001953 5.669641494750976 L -57.5387077331543 6.1409449577331525 L -57.69215774536133 6.512000083923338 L -57.86465072631836 6.440661430358885 L -58.79800033569336 6.054999828338621 L -58.79787826538086 6.054701805114744 L -57.98786163330078 4.09600019454956 L -57.968448638916016 4.049055099487304 L -57.825740814208984 3.7038228511810294 L -57.814998626708984 3.6778438091278067 L -57.814945220947266 3.6778666973114005 L -57.794410705566406 3.6863784790039054 L -57.57600021362305 3.1579999923706046 L -57.5964469909668 3.1495118141174308 L -57.596580505371094 3.1494562625885 L -58.683998107910156 2.6979999542236324 L -58.91400146484375 3.253000020980834 L -58.93793869018555 3.2430832386016837 L -59.29051208496094 4.09600019454956 L -59.75670623779297 5.22378921508789 L -59.90999984741211 5.594843864440917 L -60.08264923095703 5.523505210876464 L -61.01515579223633 5.1378440856933585 L -60.584922790527344 4.09600019454956 L -60.18644714355469 3.1310548782348624 L -60.04304504394531 2.7842898368835445 L -60.033023834228516 2.760055065155029 L -60.03300094604492 2.7599999904632564 L -60.011619567871094 2.768842458724975 L -59.792999267578125 2.2390000820159908 L -59.81395721435547 2.230326890945434 L -59.81441116333008 2.2301375865936275 L -60.902000427246094 1.77999997138977 L -61.13100051879883 2.3340001106262203 L -61.15501403808594 2.324060678482055 L -61.887794494628906 4.09600019454956 L -61.97450256347656 4.30567169189453 L -62.12799835205078 4.677000045776366 L -63.233001708984375 4.2199997901916495 L -63.18172073364258 4.09600019454956 L -62.40349578857422 2.2141718864440914 L -62.25015640258789 1.842843890190124 L -62.249969482421875 1.8429217338562007 L -62.2300910949707 1.8511344194412227 L -62.230072021484375 1.8510856628417964 L -62.0099983215332 1.3209999799728394 L -62.030601501464844 1.312472939491272 L -62.03105926513672 1.3122835159301758 L -63.11899948120117 0.8619999885559081 L -63.347999572753906 1.4160000085830688 L -63.372806549072266 1.405733585357666 L -64.34500122070312 3.759000062942504 L -65.45099639892578 3.3020000457763663 L -64.62175750732422 1.296804428100586 L -64.46800231933594 0.9248436093330382 L -64.46794128417969 0.924866497516632 L -64.4472427368164 0.9334482550621032 L -64.22699737548828 0.4020000100135803 L -64.24810028076172 0.3932656943798065 L -64.24823760986328 0.39321017265319824 L -65.19828033447266 1.1102230246251565e-16 L -65.33599853515625 -0.0570000000298022 L -65.35966491699219 1.1102230246251565e-16 L -65.53600311279297 0.42473912239074707 L -65.56600189208984 0.4970000088214874 L -65.58930206298828 0.48734548687934875 L -65.589599609375 0.48722347617149353 L -66.40950012207031 2.4706718921661373 L -66.56300354003906 2.8418438434600826 L -66.73554992675781 2.770482540130615 L -67.66799926757812 2.3848435878753658 L -66.839599609375 0.378804475069046 L -66.68599700927734 0.007000000216066947 L -66.66480255126953 0.01575743034482013 L -66.65829467773438 1.1102230246251565e-16 L -66.44499969482422 -0.5159999728202818 L -66.46629333496094 -0.5248201489448545 L -66.46642303466797 -0.5248757004737852 L -67.5530014038086 -0.9750000238418576 L -67.78299713134766 -0.42100000381469704 L -67.80715942382812 -0.43100053071975686 L -67.98540496826172 1.1102230246251565e-16 L -68.62724304199219 1.5520391464233394 L -68.78099822998047 1.9240000247955318 L -69.88600158691406 1.4670000076293945 L -69.27957916259766 1.1102230246251565e-16 L -68.90299987792969 -0.9110000133514401 L -68.88264465332031 -0.9025805592536923 L -68.8825912475586 -0.9026983380317685 L -68.6622085571289 -1.4345000982284541 L -68.66200256347656 -1.4349999427795406 L -68.68283081054688 -1.443620920181274 L -69.77100372314453 -1.8940000534057613 L -69.77105712890625 -1.8938535451889034 L -70 -1.3389999866485591 L -70.02294921875 -1.3485187292098995 L -70.02323913574219 -1.3486407995223995 L -70.56793975830078 -0.030942874029278637 L -70.58073425292969 1.1102230246251565e-16 L -70.84319305419922 0.6349217891693115 L -70.99700164794922 1.0068435668945312 L -72.10199737548828 0.5498436093330383 L -71.87493896484375 1.1102230246251565e-16 L -71.4839096069336 -0.946911811828613 L -71.27360534667969 -1.456195473670959 L -71.12000274658203 -1.8279999494552608 L -71.10033416748047 -1.8198739290237422 L -70.87905883789062 -2.3528537750244136 L -70.87899780273438 -2.352999925613403 L -70.89958953857422 -2.361521244049072 L -70.89971923828125 -2.3615770339965816 L -71.33806610107422 -2.542999982833862 L -71.98799896240234 -2.8120000362396236 L -72.21764373779297 -2.258853197097778 L -72.21800231933594 -2.2579998970031734 L -73.2020034790039 -2.664999961853027 L -73.20567321777344 -2.668676376342773 L -73.72799682617188 -3.19099998474121 L -73.95500183105469 -3.4179999828338614 L -73.95449829101562 -3.4184999465942374 L -73.72799682617188 -3.644999980926513 L -73.52999877929688 -3.8429999351501456 L -73.72799682617188 -4.040766716003417 L -74.37803649902344 -4.690038204193114 L -74.37899780273438 -4.69099998474121 L -74.79642486572266 -4.273577690124511 L -74.79499816894531 -4.272157192230224 L -74.80157470703125 -4.265571117401122 L -76.61199951171875 -2.4511570930480953 L -76.63861083984375 -2.4777083396911617 L -77.45899963378906 -3.2961571216583243 L -75.926513671875 -4.831171989440917 L -75.64756774902344 -5.110575675964355 L -75.6520004272461 -5.114999771118163 L -75.65149688720703 -5.115499973297118 L -75.22799682617188 -5.5390000343322745 L -75.22699737548828 -5.5399999618530265 L -76.07503509521484 -6.387039184570311 L -76.07599639892578 -6.38800001144409 L -76.0770034790039 -6.387000083923338 L -76.49442291259766 -5.96957778930664 L -76.49299621582031 -5.968157291412353 L -76.49857330322266 -5.962572574615478 L -78.30999755859375 -4.147157192230224 L -78.3164291381836 -4.153571128845214 L -78.44306182861328 -4.279904842376708 L -79.15699768066406 -4.993000030517577 L -77.62508392333984 -6.526598453521727 L -77.34407806396484 -6.808074474334715 L -77.3489990234375 -6.813000202178953 L -76.9260025024414 -7.2350025177001935 L -76.92500305175781 -7.236001014709471 L -76.92400360107422 -7.236999988555906 L -76.9440689086914 -7.257045269012449 L -77.77192687988281 -8.083925247192381 L -77.7724609375 -8.084461212158201 L -77.77300262451172 -8.08500003814697 L -78.19242095947266 -7.665577888488768 L -78.19142150878906 -7.664577960968016 L -78.19100189208984 -7.664157390594481 L -78.19557189941406 -7.659574985504149 L -79.7220687866211 -6.13055896759033 L -80.00800323486328 -5.8439998626708975 L -80.03419494628906 -5.870130538940429 L -80.8550033569336 -6.689000129699705 L -79.35365295410156 -8.19200038909912 L -79.32308959960938 -8.222598075866697 L -79.04107666015625 -8.505075454711912 L -79.04550170898438 -8.50949954986572 L -79.0459976196289 -8.510000228881834 L -78.62200164794922 -8.934000015258787 L -79.46892547607422 -9.78092575073242 L -79.4694595336914 -9.78146171569824 L -79.47000122070312 -9.781999588012694 L -79.89041900634766 -9.361578941345213 L -79.88941955566406 -9.360578536987303 L -79.88899993896484 -9.360157012939451 L -79.892578125 -9.356575965881346 L -81.05522918701172 -8.19200038909912 L -81.4200668334961 -7.826559066772459 L -81.70600128173828 -7.539999961853026 L -81.71200561523438 -7.545992851257322 L -82.5530014038086 -8.385000228881834 L -81.91999816894531 -9.019044876098631 L -80.73849487304688 -10.202497482299803 L -80.74299621582031 -10.206999778747557 L -80.31900024414062 -10.63099956512451 L -81.16646575927734 -11.478463172912596 L -81.16699981689453 -11.479000091552733 L -81.58799743652344 -11.057999610900877 L -81.58699798583984 -11.057000160217283 L -81.58999633789062 -11.05399703979492 L -81.91999816894531 -10.723266601562498 L -83.40399932861328 -9.236000061035154 L -83.45088958740234 -9.282778739929197 L -84.2509994506836 -10.081000328063963 L -82.71917724609375 -11.6153507232666 L -82.43607330322266 -11.899075508117674 L -82.43557739257812 -11.899576187133787 L -82.43949890136719 -11.903499603271483 L -82.44000244140625 -11.904000282287596 L -82.01799774169922 -12.326000213623043 L -82.01599884033203 -12.328000068664547 L -82.86296844482422 -13.175964355468746 L -82.86399841308594 -13.177000045776364 L -82.86599731445312 -13.17499732971191 L -83.28600311279297 -12.754001617431637 L -83.28500366210938 -12.75300025939941 L -83.28699493408203 -12.750997543334957 L -83.2874984741211 -12.750496864318844 L -85.10199737548828 -10.932000160217283 L -85.1080093383789 -10.93799304962158 L -85.9489974975586 -11.777000427246092 L -84.41766357421875 -13.310866355895993 L -84.1330795288086 -13.596076965332028 L -84.13257598876953 -13.596577644348141 L -84.13700103759766 -13.600999832153317 L -83.71399688720703 -14.024000167846676 L -83.71299743652344 -14.02499961853027 L -84.55896759033203 -14.871964454650875 L -84.56099700927734 -14.873999595642086 L -84.56199645996094 -14.873000144958493 L -84.98450469970703 -14.450498580932614 L -84.98200225830078 -14.44799995422363 L -84.9834976196289 -14.44649791717529 L -86.79900360107422 -12.6269998550415 L -86.82569122314453 -12.653630256652828 L -87.64600372314453 -13.472000122070309 L -86.11466217041016 -15.005867004394528 L -85.8290786743164 -15.292078018188473 L -85.82858276367188 -15.29257488250732 L -85.83399963378906 -15.298000335693356 L -85.41000366210938 -15.722000122070309 L -85.42854309082031 -15.740568161010739 L -86.07122039794922 -16.38400077819824 L -86.25800323486328 -16.57099914550781 L -86.44499969482422 -16.38400077819824 L -86.68299865722656 -16.145999908447262 L -86.9209976196289 -16.38400077819824 L -87.43599700927734 -16.899000167846676 L -87.84300231933594 -17.882999420166012 L -87.64893341064453 -17.963569641113278 L -87.28900146484375 -18.113000869750973 L -87.74800109863281 -19.22200012207031 L -88.302001953125 -18.99200057983398 M -85.01599884033203 -42.12900161743163 L -85.43499755859375 -41.91500091552734 L -85.76699829101562 -41.58300018310546 L -85.87171936035156 -41.37699890136718 L -85.87934875488281 -41.36199951171874 L -85.9800033569336 -41.16400146484374 L -86.01253509521484 -40.95999908447265 L -86.05400085449219 -40.700000762939446 L -85.9800033569336 -40.23600006103515 L -85.94972229003906 -40.176433563232415 L -85.9423828125 -40.16199874877929 L -85.76699829101562 -39.81700134277343 L -85.43499755859375 -39.48400115966796 L -85.01599884033203 -39.27099990844726 L -84.5510025024414 -39.1969985961914 L -84.08699798583984 -39.27099990844726 L -83.66799926757812 -39.48400115966796 L -83.33599853515625 -39.81700134277343 L -83.1606216430664 -40.16199874877929 L -83.1538314819336 -40.17534637451171 L -83.12300109863281 -40.23600006103515 L -83.04900360107422 -40.700000762939446 L -83.09046173095703 -40.95999908447265 L -83.12300109863281 -41.16400146484374 L -83.2236557006836 -41.36199951171874 L -83.23127746582031 -41.37699890136718 L -83.33599853515625 -41.58300018310546 L -83.66799926757812 -41.91500091552734 L -84.08699798583984 -42.12900161743163 L -84.5510025024414 -42.20199966430663 L -85.01599884033203 -42.12900161743163 M -83.05943298339844 -51.76540374755858 L -83.12300109863281 -52.164001464843736 L -83.1287612915039 -52.17533493041991 L -83.33599853515625 -52.583000183105455 L -83.66799926757812 -52.91500091552733 L -84.08699798583984 -53.129001617431626 L -84.5510025024414 -53.201999664306626 L -85.01599884033203 -53.129001617431626 L -85.43499755859375 -52.91500091552733 L -85.55043029785156 -52.79957199096678 L -85.76699829101562 -52.583000183105455 L -85.97367858886719 -52.17644119262694 L -85.9800033569336 -52.164001464843736 L -85.98031616210938 -52.16199874877928 L -86.05400085449219 -51.70000076293944 L -85.9800033569336 -51.23600006103514 L -85.96170043945312 -51.20000076293944 L -85.84833526611328 -50.97700119018553 L -85.84071350097656 -50.962001800537095 L -85.76699829101562 -50.81700134277342 L -85.43499755859375 -50.484001159667955 L -85.01599884033203 -50.27099990844725 L -84.5510025024414 -50.19699859619139 L -84.08699798583984 -50.27099990844725 L -83.66799926757812 -50.484001159667955 L -83.33599853515625 -50.81700134277342 L -83.26229095458984 -50.962001800537095 L -83.2546615600586 -50.97700119018553 L -83.14130401611328 -51.20000076293944 L -83.12300109863281 -51.23600006103514 L -83.04900360107422 -51.70000076293944 L -83.05943298339844 -51.76540374755858 M -29.41294288635254 -75.77600097656249 L -29.45400047302246 -75.5179977416992 L -29.3799991607666 -75.05400085449217 L -29.16699981689453 -74.63500213623045 L -28.834999084472656 -74.30300140380858 L -28.416000366210938 -74.08899688720702 L -27.951000213623047 -74.01599884033202 L -27.48699951171875 -74.08899688720702 L -27.06800079345703 -74.30300140380858 L -26.736000061035156 -74.63500213623045 L -26.523000717163086 -75.05400085449217 L -26.448999404907227 -75.5179977416992 L -26.49005889892578 -75.77600097656249 L -26.523000717163086 -75.98300170898436 L -26.736000061035156 -76.40100097656249 L -27.06800079345703 -76.73400115966795 L -27.48699951171875 -76.94699859619139 L -27.951000213623047 -77.02100372314452 L -28.416000366210938 -76.94699859619139 L -28.834999084472656 -76.73400115966795 L -29.16699981689453 -76.40100097656249 L -29.3799991607666 -75.98300170898436 L -29.41294288635254 -75.77600097656249 M -62.06800079345703 -74.30300140380858 L -61.736000061035156 -74.63500213623045 L -61.52299880981445 -75.05400085449217 L -61.4517822265625 -75.5005416870117 L -61.44900131225586 -75.5179977416992 L -61.49005889892578 -75.77600097656249 L -61.52299880981445 -75.98300170898436 L -61.736000061035156 -76.40100097656249 L -61.887413024902344 -76.55287170410155 L -62.06800079345703 -76.73400115966795 L -62.48699951171875 -76.94699859619139 L -62.95100021362305 -77.02100372314452 L -63.34915542602539 -76.95763397216795 L -63.41600036621094 -76.94699859619139 L -63.834999084472656 -76.73400115966795 L -64.16699981689453 -76.40100097656249 L -64.22067260742188 -76.29566955566405 L -64.37999725341797 -75.98300170898436 L -64.4129409790039 -75.77600097656249 L -64.4540023803711 -75.5179977416992 L -64.37999725341797 -75.05400085449217 L -64.16699981689453 -74.63500213623045 L -63.834999084472656 -74.30300140380858 L -63.41600036621094 -74.08899688720702 L -62.95100021362305 -74.01599884033202 L -62.48699951171875 -74.08899688720702 L -62.17390823364258 -74.24890899658202 L -62.06800079345703 -74.30300140380858 M -64.44793701171875 -20.479999542236325 L -64.37999725341797 -20.054000854492184 L -64.2991714477539 -19.89499473571777 L -64.29226684570312 -19.88141822814941 L -64.289794921875 -19.876558303833004 L -64.16699981689453 -19.635000228881832 L -63.834999084472656 -19.302999496459957 L -63.41600036621094 -19.089000701904293 L -63.403011322021484 -19.086961746215817 L -63.38574981689453 -19.08425140380859 L -62.95100021362305 -19.01600074768066 L -62.48699951171875 -19.089000701904293 L -62.06800079345703 -19.302999496459957 L -61.736000061035156 -19.635000228881832 L -61.52299880981445 -20.054000854492184 L -61.45505905151367 -20.479999542236325 L -61.44900131225586 -20.517999649047848 L -61.51805877685547 -20.951942443847653 L -61.52136993408203 -20.97274780273437 L -61.52299880981445 -20.98299980163574 L -61.736000061035156 -21.400999069213864 L -62.06800079345703 -21.733999252319332 L -62.31100082397461 -21.857530593872067 L -62.31658172607422 -21.86036682128906 L -62.327274322509766 -21.865802764892575 L -62.48699951171875 -21.947000503540036 L -62.95100021362305 -22.020999908447262 L -63.41600036621094 -21.947000503540036 L -63.834999084472656 -21.733999252319332 L -64.16699981689453 -21.400999069213864 L -64.37999725341797 -20.98299980163574 L -64.4540023803711 -20.517999649047848 L -64.44793701171875 -20.479999542236325 M -3.4860000610351562 -51.241001129150376 L -3.6989998817443848 -51.659999847412095 L -4.031000137329102 -51.99200057983397 L -4.349828720092773 -52.154079437255845 L -4.449999809265137 -52.20500183105467 L -4.914000034332275 -52.27899932861327 L -5.379000186920166 -52.20500183105467 L -5.477447032928467 -52.15495300292967 L -5.797999858856201 -51.99200057983397 L -6.130000114440918 -51.659999847412095 L -6.3429999351501465 -51.241001129150376 L -6.34952449798584 -51.20000076293944 L -6.389654636383057 -50.9478302001953 L -6.416999816894531 -50.776000976562486 L -6.3429999351501465 -50.31200027465819 L -6.130000114440918 -49.89300155639647 L -5.993354320526123 -49.75635528564452 L -5.797999858856201 -49.561000823974595 L -5.379000186920166 -49.34799957275389 L -4.914000034332275 -49.27399826049803 L -4.449999809265137 -49.34799957275389 L -4.031000137329102 -49.561000823974595 L -3.8373215198516846 -49.75467681884764 L -3.6989998817443848 -49.89300155639647 L -3.4860000610351562 -50.31200027465819 L -3.4119999408721924 -50.776000976562486 L -3.4391627311706543 -50.94668579101561 L -3.479475259780884 -51.20000076293944 L -3.4860000610351562 -51.241001129150376 M -6.3429999351501465 -39.312000274658196 L -6.157827377319336 -38.94773864746093 L -6.130000114440918 -38.89300155639648 L -5.797999858856201 -38.5610008239746 L -5.379000186920166 -38.3479995727539 L -4.914000034332275 -38.27399826049804 L -4.449999809265137 -38.3479995727539 L -4.0960001945495605 -38.52795791625976 L -4.031000137329102 -38.5610008239746 L -3.6989998817443848 -38.89300155639648 L -3.671663999557495 -38.94677352905273 L -3.4860000610351562 -39.312000274658196 L -3.4119999408721924 -39.77600097656249 L -3.472217321395874 -40.15439224243163 L -3.4860000610351562 -40.24100112915038 L -3.6989998817443848 -40.6599998474121 L -3.999000072479248 -40.95999908447265 L -4.031000137329102 -40.99200057983398 L -4.449999809265137 -41.20500183105468 L -4.914000034332275 -41.278999328613274 L -5.379000186920166 -41.20500183105468 L -5.797999858856201 -40.99200057983398 L -5.829999923706055 -40.95999908447265 L -6.130000114440918 -40.6599998474121 L -6.3429999351501465 -40.24100112915038 L -6.356425762176514 -40.15663528442382 L -6.416999816894531 -39.77600097656249 L -6.3429999351501465 -39.312000274658196 M -28.416000366210938 -21.947000503540036 L -28.834999084472656 -21.733999252319332 L -28.837583541870117 -21.731409072875973 L -28.84435272216797 -21.72461891174316 L -29.16699981689453 -21.400999069213864 L -29.3799991607666 -20.98299980163574 L -29.45400047302246 -20.517999649047848 L -29.447938919067383 -20.479999542236325 L -29.3799991607666 -20.054000854492184 L -29.16699981689453 -19.635000228881832 L -28.834999084472656 -19.302999496459957 L -28.416000366210938 -19.089000701904293 L -27.951000213623047 -19.01600074768066 L -27.733402252197266 -19.05023384094238 L -27.725460052490234 -19.05148315429687 L -27.48699951171875 -19.089000701904293 L -27.06800079345703 -19.302999496459957 L -26.736000061035156 -19.635000228881832 L -26.69643783569336 -19.712823867797848 L -26.523000717163086 -20.054000854492184 L -26.455060958862305 -20.479999542236325 L -26.448999404907227 -20.517999649047848 L -26.523000717163086 -20.98299980163574 L -26.736000061035156 -21.400999069213864 L -27.06800079345703 -21.733999252319332 L -27.48699951171875 -21.947000503540036 L -27.633264541625977 -21.970327377319332 L -27.951000213623047 -22.020999908447262 L -28.416000366210938 -21.947000503540036 M -49.9229621887207 5.0380001068115225 L -49.9229621887207 5.0380001068115225 M -42.722957611083984 5.0380001068115225 L -42.722957611083984 5.0380001068115225 z" fill="none" stroke="rgb(255,0,0)" stroke-width="0.001mm" />
</svg>