<?xml version="1.0" standalone="no"?>
<!DOCTYPE svg PUBLIC "-//W3C//DTD SVG 1.1//EN"
  "http://www.w3.org/Graphics/SVG/1.1/DTD/svg11.dtd">
<svg width="50.66961669921875mm" height="172.9990539550781mm" viewBox="84.32794189453125 -93.99977874755858 50.66961669921875 172.9990539550781" xmlns="http://www.w3.org/2000/svg" version="1.1">
	<title>svgOutput</title>
	<desc>made with tinkercad</desc>
<path d="M 126.58004760742188 68.21608734130858 L 126.97599792480469 67.60682678222655 L 127.04330444335938 67.50326538085936 L 127.1224365234375 67.20812988281249 L 127.34259033203125 66.38426208496092 L 127.32686614990234 66.08105468749999 L 127.298583984375 65.53600311279295 L 127.28262329101562 65.22830200195311 L 127.28260803222656 65.22799682617186 L 127.17426300048828 64.94578552246092 L 126.97599792480469 64.42887115478514 L 126.86760711669922 64.14626312255858 L 126.1388931274414 63.24662399291991 L 126.13860321044922 63.24626159667967 L 125.88394165039062 63.08094406127928 L 125.16732025146484 62.61526489257811 L 124.9280014038086 62.551261901855455 L 124.87275695800781 62.53648757934569 L 124.04855346679688 62.31626510620116 L 122.89151763916016 62.37626647949217 L 122.87999725341797 62.38068771362303 L 121.81048583984375 62.79127120971678 L 120.91044616699219 63.52027511596678 L 120.73754119873047 63.7863311767578 L 120.2794189453125 64.49127197265624 L 119.99930572509766 65.53600311279295 L 119.9793930053711 65.61027526855467 L 119.99633026123047 65.93157958984374 L 120.04037475585938 66.76728057861327 L 120.45536804199219 67.84828186035155 L 121.18437957763672 68.74827575683592 L 122.15540313720703 69.37928009033202 L 122.46466827392578 69.46218872070311 L 122.87999725341797 69.57353210449217 L 123.09809112548828 69.63200378417967 L 123.27442932128906 69.6792755126953 L 124.1703109741211 69.63200378417967 L 124.43014526367188 69.61828613281249 L 124.43046569824219 69.61827087402342 L 124.72373962402344 69.50568389892577 L 125.5122299194336 69.20326995849608 L 125.75413513183594 69.00755310058592 L 126.41197204589844 68.47472381591795 L 126.41253662109375 68.47426605224608 L 126.58004760742188 68.21608734130858 M 133.99755859375 60.09999847412108 L 131.57562255859375 64.29449462890624 L 128.46583557128906 69.68000030517577 L 123.6619873046875 77.99927520751952 L 119.97000122070312 71.60424041748045 L 117.85977935791016 67.9490509033203 L 113.32794189453125 60.099277496337876 L 118.76731872558594 60.099262237548814 L 122.39218139648438 60.09943771362303 L 127.34600067138672 60.09967803955077 L 133.99755859375 60.09999847412108 M 121.45418548583984 48.82432556152342 L 121.95842742919922 49.15200042724608 L 122.15540313720703 49.27999877929686 L 122.46466827392578 49.36291122436522 L 122.87999725341797 49.47388458251952 L 123.27442932128906 49.57927322387694 L 124.43014526367188 49.519287109374986 L 124.43046569824219 49.51927185058592 L 124.72373962402344 49.40668487548827 L 125.38777923583984 49.15200042724608 L 125.5122299194336 49.10427093505858 L 125.75413513183594 48.90855407714842 L 126.41160583496094 48.37601852416991 L 126.41253662109375 48.37526702880858 L 126.58004760742188 48.11682510375975 L 126.97599792480469 47.50756072998046 L 127.04330444335938 47.403999328613274 L 127.1224365234375 47.10912704467773 L 127.34259033203125 46.28526306152343 L 127.28260803222656 45.1282615661621 L 127.25486755371094 45.05599975585937 L 126.86760711669922 44.04726028442382 L 126.1388931274414 43.14762115478515 L 126.13860321044922 43.14726257324218 L 125.88394165039062 42.98194503784179 L 125.16732025146484 42.51626205444335 L 124.87275695800781 42.4372215270996 L 124.04855346679688 42.21626663208007 L 122.89151763916016 42.27726745605468 L 122.87999725341797 42.28168869018554 L 121.81048583984375 42.69227218627929 L 120.91044616699219 43.421272277832024 L 120.73754119873047 43.687332153320305 L 120.2794189453125 44.39227676391601 L 120.1014633178711 45.05599975585937 L 119.9793930053711 45.511272430419915 L 119.9793930053711 45.51127624511718 L 119.99633026123047 45.83230209350585 L 120.04037475585938 46.667278289794915 L 120.45536804199219 47.74927902221679 L 121.18390655517578 48.64868927001952 L 121.18437957763672 48.64927673339842 L 121.45418548583984 48.82432556152342 M 133.99755859375 40.0002212524414 L 128.46615600585938 49.58000183105467 L 123.6619873046875 57.90027236938475 L 119.97000122070312 51.505241394042955 L 116.62614440917969 45.71321487426757 L 116.6258544921875 45.712722778320305 L 116.10173797607422 44.804878234863274 L 113.32794189453125 40.00027847290038 L 118.87609100341797 40.00026321411132 L 119.92427062988281 40.000259399414055 L 119.92501068115234 40.000259399414055 L 119.97000122070312 40.000259399414055 L 127.34600067138672 40.00024032592773 L 133.99755859375 40.0002212524414 M 97.98298645019531 77.99927520751952 L 97.45863342285156 77.0910186767578 L 94.29100036621094 71.60424041748045 L 92.18077850341797 67.9490509033203 L 91.65713500976562 67.04202270507811 L 87.64894104003906 60.099277496337876 L 93.08831787109375 60.099262237548814 L 95.66582489013672 60.09938812255858 L 96.71318054199219 60.09943771362303 L 101.66699981689453 60.09967803955077 L 107.26985168457031 60.099948883056626 L 108.31855773925781 60.09999847412108 L 105.8966293334961 64.29449462890624 L 97.98298645019531 77.99927520751952 M 101.4942626953125 64.94578552246092 L 101.1878433227539 64.14687347412108 L 101.18760681152344 64.14626312255858 L 100.99720001220703 63.911193847656236 L 100.45933532714844 63.24626159667967 L 100.20494079589844 63.08094406127928 L 99.48776245117188 62.615383148193345 L 99.48757934570312 62.61526489257811 L 99.19275665283203 62.53648757934569 L 98.36933135986328 62.316276550292955 L 98.3692855834961 62.31626510620116 L 98.30400085449219 62.31965255737303 L 98.06195068359375 62.332218170166 L 97.21251678466797 62.37626647949217 L 96.13148498535156 62.79127120971678 L 95.88704681396484 62.989040374755845 L 95.23175048828125 63.519809722900376 L 95.23117065429688 63.52027511596678 L 95.05854034423828 63.7863311767578 L 94.60041809082031 64.49127197265624 L 94.32030487060547 65.53600311279295 L 94.3003921508789 65.61027526855467 L 94.31705474853516 65.93157958984374 L 94.36109924316406 66.76728057861327 L 94.67463684082031 67.58399963378905 L 94.77609252929688 67.84828186035155 L 95.50479888916016 68.74789428710936 L 95.5051040649414 68.74827575683592 L 95.77518463134766 68.92360687255858 L 96.47640228271484 69.37928009033202 L 96.78539276123047 69.46218872070311 L 97.41881561279297 69.63200378417967 L 97.59515380859375 69.6792755126953 L 97.91217803955078 69.66255950927733 L 98.30400085449219 69.64188385009764 L 98.75146484375 69.61827087402342 L 99.8324966430664 69.20326995849608 L 100.07413482666016 69.00755310058592 L 100.73253631591797 68.47426605224608 L 101.36356353759766 67.50326538085936 L 101.66358947753906 66.38426208496092 L 101.6476058959961 66.08105468749999 L 101.61885070800781 65.53600311279295 L 101.60262298583984 65.22830200195311 L 101.60260772705078 65.22799682617186 L 101.4942626953125 64.94578552246092 M 97.98298645019531 57.90027236938475 L 97.4593276977539 56.99322128295897 L 94.29100036621094 51.505241394042955 L 90.43025970458984 44.81790542602538 L 90.4225845336914 44.804615020751946 L 87.64894104003906 40.00027847290038 L 93.19679260253906 40.00026321411132 L 93.21215057373047 40.00026321411132 L 94.29100036621094 40.000259399414055 L 101.66699981689453 40.00024032592773 L 107.27111053466797 40.000225067138665 L 108.31855773925781 40.0002212524414 L 97.98298645019531 57.90027236938475 M 118.8765640258789 20.800279617309567 L 118.78399658203125 21.145528793334957 L 118.65939331054688 21.61027145385742 L 118.65939331054688 21.610277175903317 L 118.6760482788086 21.931579589843746 L 118.71937561035156 22.767278671264645 L 118.78399658203125 22.935611724853512 L 119.13436889648438 23.848279953002926 L 119.72383880615234 24.57600021362304 L 119.8633804321289 24.748277664184563 L 120.83440399169922 25.37927627563476 L 121.14366912841797 25.462188720703118 L 121.95343017578125 25.679275512695305 L 122.87999725341797 25.63042259216308 L 123.11046600341797 25.618272781372063 L 124.19149780273438 25.203269958496087 L 124.4331283569336 25.007555007934563 L 124.96593475341797 24.57600021362304 L 125.09153747558594 24.474266052246087 L 125.72211456298828 23.50395584106445 L 125.72256469726562 23.50326347351074 L 125.80142974853516 23.20812606811523 L 126.02232360839844 22.384262084960934 L 126.00660705566406 22.081052780151364 L 125.96162414550781 21.22830200195312 L 125.96160888671875 21.228000640869137 L 125.85326385498047 20.945787429809567 L 125.67461395263672 20.479999542236325 L 125.5466079711914 20.146261215209957 L 124.8176040649414 19.246263504028317 L 124.8176040649414 19.246261596679684 L 124.56320190429688 19.080945968627926 L 123.8465805053711 18.61526298522949 L 123.5517578125 18.5364875793457 L 122.87999725341797 18.356998443603512 L 122.72755432128906 18.31626510620117 L 122.41995239257812 18.33221626281738 L 121.57156372070312 18.37625122070312 L 121.57125091552734 18.376268386840817 L 121.28091430664062 18.487724304199215 L 120.4894790649414 18.791271209716793 L 119.58944702148438 19.52027320861816 L 119.41654205322266 19.78633117675781 L 118.9664535522461 20.479999542236325 L 118.95960998535156 20.490550994873043 L 118.95914459228516 20.491275787353512 L 118.8765640258789 20.800279617309567 M 132.6765594482422 16.100000381469723 L 130.25486755371094 20.294492721557614 L 127.14508819580078 25.680000305175774 L 122.34126281738281 33.999275207519524 L 118.6500015258789 27.605495452880852 L 117.06277465820312 24.85620498657226 L 116.53907012939453 23.94907188415527 L 112.0072250366211 16.099277496337887 L 117.44631958007812 16.099262237548825 L 121.07145690917969 16.099437713623043 L 126.0260009765625 16.099678039550778 L 132.6765594482422 16.100000381469723 M 95.77518463134766 48.82432556152342 L 96.27942657470703 49.15200042724608 L 96.47640228271484 49.27999877929686 L 96.78539276123047 49.36291122436522 L 97.59515380859375 49.57927322387694 L 97.91217803955078 49.56283569335936 L 98.30400085449219 49.54249572753905 L 98.75146484375 49.51927185058592 L 99.70816802978516 49.15200042724608 L 99.8324966430664 49.10427093505858 L 100.07413482666016 48.90855407714842 L 100.73217010498047 48.37556076049803 L 100.73253631591797 48.37526702880858 L 100.90031433105469 48.11682510375975 L 101.36356353759766 47.403999328613274 L 101.44269561767578 47.10912704467773 L 101.4440689086914 47.10400009155273 L 101.66358947753906 46.28526306152343 L 101.60260772705078 45.1282615661621 L 101.57486724853516 45.05599975585937 L 101.1878433227539 44.04787445068359 L 101.18760681152344 44.04726028442382 L 100.99720001220703 43.81219482421874 L 100.45933532714844 43.14726257324218 L 100.20494079589844 42.98194503784179 L 99.48776245117188 42.51638412475585 L 99.48757934570312 42.51626205444335 L 99.19275665283203 42.4372215270996 L 98.36933135986328 42.21627807617187 L 98.3692855834961 42.21626663208007 L 98.30400085449219 42.21971130371093 L 98.06195068359375 42.23248291015624 L 97.21251678466797 42.27726745605468 L 96.13148498535156 42.69227218627929 L 95.88704681396484 42.89003753662109 L 95.23175048828125 43.42080688476562 L 95.23117065429688 43.421272277832024 L 95.05854034423828 43.687332153320305 L 94.60041809082031 44.39227676391601 L 94.4224624633789 45.05599975585937 L 94.3003921508789 45.51127624511718 L 94.31705474853516 45.83230209350585 L 94.36109924316406 46.667278289794915 L 94.52860260009766 47.10400009155273 L 94.77609252929688 47.74927902221679 L 95.50431823730469 48.648307800292955 L 95.5051040649414 48.64927673339842 L 95.77518463134766 48.82432556152342 M 118.8765640258789 0.7012802362442017 L 118.78399658203125 1.0465295314788818 L 118.65939331054688 1.5112723112106319 L 118.65939331054688 1.5112774372100826 L 118.6760482788086 1.8323016166687007 L 118.71937561035156 2.6672787666320796 L 118.78399658203125 2.8357677459716792 L 119.13436889648438 3.749279022216796 L 119.41522216796875 4.09600019454956 L 119.86290740966797 4.648690700531005 L 119.8633804321289 4.649278163909911 L 120.13318634033203 4.824325084686278 L 120.83440399169922 5.280000209808349 L 121.14366912841797 5.362912654876708 L 121.95343017578125 5.579274654388427 L 122.87999725341797 5.531223773956298 L 123.11046600341797 5.519271850585937 L 124.19149780273438 5.104269504547118 L 124.4331283569336 4.908555030822753 L 125.09117126464844 4.375562667846679 L 125.09153747558594 4.375266551971435 L 125.25931549072266 4.116825103759765 L 125.2728500366211 4.09600019454956 L 125.72223663330078 3.4045064449310294 L 125.72256469726562 3.4040000438690177 L 125.80142974853516 3.109126329421996 L 126.02232360839844 2.2852623462676998 L 126.00660705566406 1.982051849365234 L 125.96160888671875 1.1282610893249512 L 125.5466079711914 0.0472610667347909 L 125.5083236694336 1.1102230246251565e-16 L 124.8176040649414 -0.8527361154556271 L 124.8176040649414 -0.8527384996414181 L 124.56320190429688 -1.0180542469024654 L 123.8465805053711 -1.4837369918823238 L 123.5517578125 -1.5627768039703365 L 122.87999725341797 -1.7428658008575435 L 122.72755432128906 -1.7837349176406856 L 122.41995239257812 -1.767517209053039 L 121.57156372070312 -1.7227485179901119 L 121.57125091552734 -1.7227321863174434 L 121.28091430664062 -1.6112753152847286 L 120.4894790649414 -1.3077294826507564 L 119.58944702148438 -0.5787267684936521 L 119.41654205322266 -0.3126684725284575 L 119.21366882324219 1.1102230246251565e-16 L 118.95960998535156 0.3915516436100006 L 118.95914459228516 0.3922756314277649 L 118.8765640258789 0.7012802362442017 M 132.6765594482422 -3.9997777938842765 L 130.25486755371094 0.19472759962081915 L 127.14540100097656 5.579999923706054 L 122.34126281738281 13.900274276733395 L 118.6500015258789 7.506494998931883 L 115.31295776367188 1.7262674570083614 L 115.30528259277344 1.7129737138748165 L 115.30499267578125 1.7124814987182613 L 112.0072250366211 -3.999722242355346 L 117.44631958007812 -3.999736785888671 L 118.60326385498047 -3.9997398853301993 L 118.60401153564453 -3.9997398853301993 L 118.6193618774414 -3.9997398853301993 L 118.6500015258789 -3.9997401237487784 L 126.0260009765625 -3.999759912490844 L 132.6765594482422 -3.9997777938842765 M 97.72373962402344 25.505683898925774 L 98.30400085449219 25.28313255310058 L 98.5122299194336 25.203269958496087 L 98.75413513183594 25.007555007934563 L 99.28693389892578 24.57600021362304 L 99.41197204589844 24.47472190856933 L 99.41253662109375 24.474266052246087 L 99.58004760742188 24.216091156005852 L 100.04330444335938 23.50326347351074 L 100.1224365234375 23.20812606811523 L 100.34259033203125 22.384262084960934 L 100.32686614990234 22.081052780151364 L 100.28262329101562 21.22830200195312 L 100.28260803222656 21.228000640869137 L 100.17426300048828 20.945787429809567 L 99.86760711669922 20.146261215209957 L 99.1388931274414 19.246622085571286 L 99.13860321044922 19.246261596679684 L 98.88394165039062 19.080945968627926 L 98.30400085449219 18.70408248901367 L 98.16732025146484 18.61526298522949 L 97.87275695800781 18.5364875793457 L 97.04855346679688 18.31626510620117 L 95.89151763916016 18.376268386840817 L 94.81048583984375 18.791271209716793 L 93.91044616699219 19.52027320861816 L 93.73754119873047 19.78633117675781 L 93.2867431640625 20.479999542236325 L 93.2794189453125 20.491275787353512 L 92.9793930053711 21.61027145385742 L 92.9793930053711 21.610277175903317 L 92.99633026123047 21.931579589843746 L 93.04037475585938 22.767278671264645 L 93.45536804199219 23.848279953002926 L 94.04483795166016 24.57600021362304 L 94.18437957763672 24.748277664184563 L 95.15540313720703 25.37927627563476 L 95.46466827392578 25.462188720703118 L 96.27442932128906 25.679275512695305 L 97.43014526367188 25.618288040161126 L 97.43046569824219 25.618272781372063 L 97.72373962402344 25.505683898925774 M 106.99755859375 16.100000381469723 L 104.57563018798828 20.294492721557614 L 101.4658432006836 25.680000305175774 L 96.6619873046875 33.999275207519524 L 92.97000122070312 27.60424041748046 L 90.86817932128906 23.96359825134277 L 90.85977935791016 23.949047088623043 L 86.32794189453125 16.099277496337887 L 91.76731872558594 16.099262237548825 L 95.39218139648438 16.099437713623043 L 95.40898132324219 16.099439620971676 L 100.34600067138672 16.099678039550778 L 106.99755859375 16.100000381469723 M 118.99633026123047 -23.068420410156246 L 119.02481079101562 -22.527999877929684 L 119.04037475585938 -22.232721328735348 L 119.45536804199219 -21.151720046997067 L 119.99947357177734 -20.479999542236325 L 120.18437957763672 -20.251722335815426 L 121.15540313720703 -19.62072372436523 L 121.46466827392578 -19.53781127929687 L 122.27442932128906 -19.320724487304684 L 122.87999725341797 -19.352680206298825 L 123.43014526367188 -19.381711959838864 L 123.43046569824219 -19.381727218627926 L 123.72373962402344 -19.494316101074215 L 124.5122299194336 -19.796730041503903 L 124.75413513183594 -19.992444992065426 L 125.35607147216797 -20.479999542236325 L 125.41197204589844 -20.52527809143066 L 125.41253662109375 -20.525733947753903 L 125.58004760742188 -20.783908843994137 L 126.04330444335938 -21.496736526489254 L 126.1224365234375 -21.791873931884762 L 126.31914520263672 -22.527999877929684 L 126.34259033203125 -22.61573791503906 L 126.32686614990234 -22.91894721984863 L 126.28262329101562 -23.77169799804687 L 126.28260803222656 -23.771999359130856 L 126.17426300048828 -24.054212570190423 L 125.97413635253906 -24.57600021362304 L 125.86760711669922 -24.853738784790032 L 125.1388931274414 -25.753377914428704 L 125.13860321044922 -25.753738403320305 L 124.88394165039062 -25.919054031372063 L 124.16732025146484 -26.3847370147705 L 123.87275695800781 -26.46351242065429 L 123.04855346679688 -26.68373489379882 L 122.87999725341797 -26.67499351501464 L 121.89151763916016 -26.623731613159173 L 120.81048583984375 -26.208728790283196 L 119.91044616699219 -25.47972679138183 L 119.73754119873047 -25.21366882324218 L 119.32313537597656 -24.57600021362304 L 119.2794189453125 -24.508724212646477 L 118.9793930053711 -23.389728546142575 L 118.9793930053711 -23.389722824096676 L 118.99633026123047 -23.068420410156246 M 132.99755859375 -28.899999618530266 L 130.57562255859375 -24.705507278442376 L 127.4658432006836 -19.319999694824215 L 122.6619873046875 -11.000725746154783 L 122.65431213378906 -11.014019966125487 L 122.6538314819336 -11.01484966278076 L 118.97000122070312 -17.395759582519528 L 116.85977935791016 -21.05095291137695 L 116.85137939453125 -21.065504074096676 L 112.32794189453125 -28.900722503662102 L 117.76731872558594 -28.900737762451165 L 121.39218139648438 -28.900562286376946 L 126.34600067138672 -28.90032196044921 L 132.99755859375 -28.899999618530266 M 97.72373962402344 5.406684398651122 L 98.30400085449219 5.184133052825927 L 98.5122299194336 5.104269504547118 L 98.75413513183594 4.908555030822753 L 99.41160583496094 4.376018524169921 L 99.41253662109375 4.375266551971435 L 99.58004760742188 4.116825103759765 L 100.04330444335938 3.4040000438690177 L 100.1224365234375 3.109126329421996 L 100.34259033203125 2.2852623462676998 L 100.28260803222656 1.1282610893249512 L 99.86760711669922 0.0472610667347909 L 99.8293228149414 1.1102230246251565e-16 L 99.1388931274414 -0.8523771762847897 L 99.13860321044922 -0.8527384996414181 L 98.88394165039062 -1.0180542469024654 L 98.30400085449219 -1.3949167728424068 L 98.16732025146484 -1.4837369918823238 L 97.87275695800781 -1.5627768039703365 L 97.04855346679688 -1.7837349176406856 L 95.89151763916016 -1.7227321863174434 L 94.81048583984375 -1.3077294826507564 L 93.91044616699219 -0.5787267684936521 L 93.73754119873047 -0.3126684725284575 L 93.53434753417969 1.1102230246251565e-16 L 93.2794189453125 0.3922756314277649 L 92.9793930053711 1.5112723112106319 L 92.9793930053711 1.5112774372100826 L 92.99633026123047 1.8323016166687007 L 93.04037475585938 2.6672787666320796 L 93.45536804199219 3.749279022216796 L 93.73622131347656 4.09600019454956 L 94.18390655517578 4.648690700531005 L 94.18437957763672 4.649278163909911 L 94.45418548583984 4.824325084686278 L 95.15540313720703 5.280000209808349 L 95.46466827392578 5.362912654876708 L 96.27442932128906 5.579274654388427 L 97.43014526367188 5.519288539886474 L 97.43046569824219 5.519271850585937 L 97.72373962402344 5.406684398651122 M 106.99755859375 -3.9997777938842765 L 101.46614837646484 5.579999923706054 L 96.6619873046875 13.900274276733395 L 92.97000122070312 7.505239486694334 L 89.63381958007812 1.726506948471069 L 86.32794189453125 -3.999722242355346 L 92.94036102294922 -3.9997398853301993 L 92.97000122070312 -3.9997401237487784 L 100.34600067138672 -3.999759912490844 L 106.99755859375 -3.9997777938842765 M 125.58004760742188 -40.88317489624023 L 125.6299819946289 -40.95999908447265 L 126.04330444335938 -41.59600067138671 L 126.1224365234375 -41.89087295532226 L 126.34259033203125 -42.714736938476555 L 126.32738494873047 -43.00799942016601 L 126.28260803222656 -43.87173843383788 L 125.86760711669922 -44.952739715576165 L 125.78396606445312 -45.05599975585937 L 125.1388931274414 -45.85237884521484 L 125.13860321044922 -45.852737426757805 L 124.88394165039062 -46.018054962158196 L 124.16732025146484 -46.48373794555663 L 123.87275695800781 -46.56277847290038 L 123.04855346679688 -46.783733367919915 L 122.87999725341797 -46.774848937988274 L 121.89151763916016 -46.722732543945305 L 120.81048583984375 -46.307727813720696 L 119.91044616699219 -45.57872772216796 L 119.73754119873047 -45.31266784667968 L 119.57073974609375 -45.05599975585937 L 119.2794189453125 -44.60772323608398 L 118.9793930053711 -43.48872756958007 L 118.9793930053711 -43.488723754882805 L 118.99633026123047 -43.16769790649413 L 119.00475311279297 -43.00799942016601 L 119.04037475585938 -42.33272171020507 L 119.45536804199219 -41.250720977783196 L 119.69085693359375 -40.95999908447265 L 120.18390655517578 -40.35131072998046 L 120.18437957763672 -40.350723266601555 L 120.45418548583984 -40.175674438476555 L 121.15540313720703 -39.72000122070312 L 121.46466827392578 -39.63708877563476 L 122.27442932128906 -39.42072677612304 L 122.87999725341797 -39.452156066894524 L 123.43014526367188 -39.48071289062499 L 123.43046569824219 -39.480728149414055 L 123.72373962402344 -39.59331512451171 L 124.5122299194336 -39.8957290649414 L 124.75413513183594 -40.091445922851555 L 125.41160583496094 -40.62398147583007 L 125.41253662109375 -40.6247329711914 L 125.58004760742188 -40.88317489624023 M 132.99755859375 -48.99977874755858 L 127.46614837646484 -39.419998168945305 L 122.6619873046875 -31.099725723266594 L 118.97000122070312 -37.494758605957024 L 115.62614440917969 -43.286785125732415 L 115.6258544921875 -43.28727722167968 L 112.32794189453125 -48.999721527099595 L 117.77423095703125 -48.99973678588866 L 118.92427062988281 -48.99974060058592 L 118.92501068115234 -48.99974060058592 L 118.97000122070312 -48.99974060058592 L 126.34600067138672 -48.99975967407225 L 132.99755859375 -48.99977874755858 M 124.17426300048828 -67.05421447753905 L 123.86760711669922 -67.85373687744139 L 123.1388931274414 -68.75337982177733 L 123.13860321044922 -68.7537384033203 L 122.88394165039062 -68.91905212402342 L 122.87999725341797 -68.92161560058592 L 122.16732025146484 -69.38473510742186 L 121.87275695800781 -69.46351623535155 L 121.24217987060547 -69.63200378417967 L 121.04855346679688 -69.68373107910155 L 120.05094909667969 -69.63200378417967 L 119.89151763916016 -69.6237335205078 L 119.03764343261719 -69.29593658447264 L 118.81048583984375 -69.20873260498045 L 118.78399658203125 -69.18727874755858 L 117.91044616699219 -68.47972869873045 L 117.73754119873047 -68.21366882324217 L 117.2794189453125 -67.50872802734374 L 116.9793930053711 -66.3897247314453 L 116.99633026123047 -66.06842041015624 L 117.01119995117188 -65.78635406494139 L 117.0243911743164 -65.53600311279295 L 117.04037475585938 -65.2327194213867 L 117.45536804199219 -64.15171813964842 L 118.18437957763672 -63.25172042846678 L 118.78399658203125 -62.86207199096678 L 119.15540313720703 -62.62072372436522 L 119.46466827392578 -62.53781127929686 L 120.27442932128906 -62.32072448730467 L 121.43014526367188 -62.38171005249022 L 121.43046569824219 -62.38172912597655 L 121.72373962402344 -62.494316101074205 L 122.5122299194336 -62.79673004150389 L 122.75413513183594 -62.99244689941405 L 122.87999725341797 -63.094394683837876 L 123.41197204589844 -63.52527618408202 L 123.41253662109375 -63.52573394775389 L 123.58004760742188 -63.783908843994126 L 124.04330444335938 -64.49673461914061 L 124.1224365234375 -64.79187011718749 L 124.34259033203125 -65.61573791503905 L 124.32686614990234 -65.91894531249999 L 124.28262329101562 -66.77169799804686 L 124.28260803222656 -66.77200317382811 L 124.17426300048828 -67.05421447753905 M 130.99755859375 -71.90000152587889 L 128.57562255859375 -67.70550537109374 L 125.4658432006836 -62.319999694824205 L 120.6619873046875 -54.000724792480455 L 116.97000122070312 -60.39575958251952 L 115.43443298339844 -63.05557250976561 L 114.91072845458984 -63.96270370483397 L 110.32794189453125 -71.90071868896483 L 115.76731872558594 -71.90073394775389 L 119.49405670166016 -71.90055847167967 L 120.54153442382812 -71.90050506591795 L 124.34600067138672 -71.9003219604492 L 130.99755859375 -71.90000152587889 M 100.4942626953125 -24.054212570190423 L 100.29413604736328 -24.57600021362304 L 100.1878433227539 -24.853124618530266 L 100.18760681152344 -24.853738784790032 L 99.99720001220703 -25.08880424499511 L 99.45933532714844 -25.753738403320305 L 99.20494079589844 -25.919054031372063 L 98.48776245117188 -26.384618759155266 L 98.48757934570312 -26.3847370147705 L 98.30400085449219 -26.43378829956054 L 98.19275665283203 -26.46351242065429 L 97.36933135986328 -26.683723449707024 L 97.3692855834961 -26.68373489379882 L 97.06195068359375 -26.66778373718261 L 96.21251678466797 -26.623731613159173 L 95.13148498535156 -26.208728790283196 L 94.88704681396484 -26.010961532592766 L 94.23175048828125 -25.480192184448235 L 94.23117065429688 -25.47972679138183 L 94.05854034423828 -25.21366882324218 L 93.64413452148438 -24.57600021362304 L 93.60041809082031 -24.508724212646477 L 93.3003921508789 -23.389722824096676 L 93.31705474853516 -23.068420410156246 L 93.36109924316406 -22.232721328735348 L 93.77609252929688 -21.151720046997067 L 94.20800018310547 -20.61851119995117 L 94.32019805908203 -20.479999542236325 L 94.50479888916016 -20.25210380554199 L 94.5051040649414 -20.251722335815426 L 94.77518463134766 -20.07639694213867 L 95.47640228271484 -19.62072372436523 L 95.78539276123047 -19.53781127929687 L 96.59515380859375 -19.320724487304684 L 96.91217803955078 -19.337440490722653 L 97.75146484375 -19.381727218627926 L 98.30400085449219 -19.593843460083004 L 98.8324966430664 -19.796730041503903 L 99.07413482666016 -19.992444992065426 L 99.73253631591797 -20.525733947753903 L 100.36356353759766 -21.496736526489254 L 100.66358947753906 -22.61573791503906 L 100.6476058959961 -22.91894721984863 L 100.60262298583984 -23.77169799804687 L 100.60260772705078 -23.771999359130856 L 100.4942626953125 -24.054212570190423 M 107.31855773925781 -28.899999618530266 L 104.8966293334961 -24.705507278442376 L 101.7868423461914 -19.319999694824215 L 96.98298645019531 -11.000725746154783 L 93.29100036621094 -17.395759582519528 L 91.18077850341797 -21.05095291137695 L 90.65713500976562 -21.95797729492187 L 86.64894104003906 -28.900722503662102 L 92.08831787109375 -28.900737762451165 L 94.66582489013672 -28.9006118774414 L 95.71318054199219 -28.900562286376946 L 100.66699981689453 -28.90032196044921 L 107.31855773925781 -28.899999618530266 M 96.98298645019531 -31.099725723266594 L 96.4593276977539 -32.00677871704101 L 93.29100036621094 -37.494758605957024 L 89.4225845336914 -44.19538497924804 L 86.64894104003906 -48.999721527099595 L 92.19679260253906 -48.99973678588866 L 93.29100036621094 -48.99974060058592 L 100.66699981689453 -48.99975967407225 L 106.27111053466797 -48.999774932861314 L 107.31855773925781 -48.99977874755858 L 96.98298645019531 -31.099725723266594 M 94.05854034423828 -45.31266784667968 L 93.89173889160156 -45.05599975585937 L 93.60041809082031 -44.60772323608398 L 93.3003921508789 -43.488723754882805 L 93.31705474853516 -43.16769790649413 L 93.36109924316406 -42.33272171020507 L 93.77609252929688 -41.250720977783196 L 94.01158142089844 -40.95999908447265 L 94.50431823730469 -40.351692199707024 L 94.5051040649414 -40.350723266601555 L 94.77518463134766 -40.175674438476555 L 95.47640228271484 -39.72000122070312 L 95.78539276123047 -39.63708877563476 L 96.59515380859375 -39.42072677612304 L 96.91217803955078 -39.43716430664062 L 97.75146484375 -39.480728149414055 L 98.30400085449219 -39.69284439086913 L 98.8324966430664 -39.8957290649414 L 99.07413482666016 -40.091445922851555 L 99.73217010498047 -40.624439239501946 L 99.73253631591797 -40.6247329711914 L 99.90031433105469 -40.88317489624023 L 99.95024108886719 -40.95999908447265 L 100.36356353759766 -41.59600067138671 L 100.44269561767578 -41.89087295532226 L 100.66358947753906 -42.714736938476555 L 100.60260772705078 -43.87173843383788 L 100.1878433227539 -44.9521255493164 L 100.18760681152344 -44.952739715576165 L 99.99720001220703 -45.18780517578124 L 99.45933532714844 -45.852737426757805 L 99.20494079589844 -46.018054962158196 L 98.48776245117188 -46.48361587524413 L 98.48757934570312 -46.48373794555663 L 98.30400085449219 -46.53295135498046 L 98.19275665283203 -46.56277847290038 L 97.36933135986328 -46.78372192382812 L 97.3692855834961 -46.783733367919915 L 97.06195068359375 -46.76751708984374 L 96.21251678466797 -46.722732543945305 L 95.13148498535156 -46.307727813720696 L 94.88704681396484 -46.1099624633789 L 94.23175048828125 -45.57919311523437 L 94.23117065429688 -45.57872772216796 L 94.05854034423828 -45.31266784667968 M 124.80142974853516 -85.89087677001952 L 124.8349838256836 -86.01599884033202 L 125.02232360839844 -86.71473693847655 L 125.00660705566406 -87.01794433593749 L 124.96160888671875 -87.87174224853514 L 124.5466079711914 -88.95273590087889 L 123.8176040649414 -89.8527374267578 L 123.56320190429688 -90.01805114746092 L 123.41863250732422 -90.11199951171874 L 122.87999725341797 -90.46202087402342 L 122.8465805053711 -90.48373413085936 L 122.5517578125 -90.56277465820311 L 121.72755432128906 -90.78373718261717 L 121.41995239257812 -90.76751708984374 L 120.57156372070312 -90.72274780273436 L 120.57125091552734 -90.7227325439453 L 120.28091430664062 -90.61127471923827 L 119.4894790649414 -90.30773162841795 L 119.24783325195312 -90.11199951171874 L 118.78399658203125 -89.73630523681639 L 118.58944702148438 -89.57872772216795 L 118.41654205322266 -89.31266784667967 L 117.95960998535156 -88.6084518432617 L 117.95914459228516 -88.60772705078124 L 117.8765640258789 -88.29872131347655 L 117.65939331054688 -87.48873138427733 L 117.65939331054688 -87.4887237548828 L 117.6760482788086 -87.16770172119139 L 117.71937561035156 -86.3327178955078 L 117.84085083007812 -86.01599884033202 L 118.13436889648438 -85.25071716308592 L 118.86290740966797 -84.35131072998045 L 118.8633804321289 -84.35072326660155 L 119.13318634033203 -84.17567443847655 L 119.83440399169922 -83.72000122070311 L 120.14366912841797 -83.63708496093749 L 120.95343017578125 -83.42072296142577 L 122.11046600341797 -83.48072814941405 L 122.87999725341797 -83.77614593505858 L 123.19149780273438 -83.89572906494139 L 123.4331283569336 -84.09144592285155 L 124.09117126464844 -84.62443542480467 L 124.09153747558594 -84.62473297119139 L 124.25931549072266 -84.88317108154295 L 124.72223663330078 -85.59549713134764 L 124.72256469726562 -85.5960006713867 L 124.80142974853516 -85.89087677001952 M 131.6765594482422 -92.99977874755858 L 129.25486755371094 -88.80527496337889 L 126.14540100097656 -83.4199981689453 L 121.34126281738281 -75.09972381591795 L 117.6500015258789 -81.49350738525389 L 114.30528259277344 -87.28702545166014 L 114.30499267578125 -87.28752136230467 L 111.0072250366211 -92.99972534179686 L 116.44631958007812 -92.99974060058592 L 117.60326385498047 -92.99974060058592 L 117.60401153564453 -92.99974060058592 L 117.6500015258789 -92.99974060058592 L 125.0260009765625 -92.99976348876952 L 131.6765594482422 -92.99977874755858 M 99.17426300048828 -68.05421447753905 L 98.86760711669922 -68.85373687744139 L 98.30400085449219 -69.54954528808592 L 98.2372055053711 -69.63200378417967 L 98.1388931274414 -69.75337982177733 L 98.13860321044922 -69.7537384033203 L 97.88394165039062 -69.91905212402342 L 97.16732025146484 -70.38473510742186 L 96.87275695800781 -70.46351623535155 L 96.04855346679688 -70.68373107910155 L 94.89151763916016 -70.6237335205078 L 94.20800018310547 -70.36133575439452 L 93.81048583984375 -70.20873260498045 L 92.91044616699219 -69.47972869873045 L 92.73754119873047 -69.21366882324217 L 92.2794189453125 -68.50872802734374 L 91.9793930053711 -67.3897247314453 L 91.99633026123047 -67.06842041015624 L 92.04037475585938 -66.2327194213867 L 92.30784606933594 -65.53600311279295 L 92.45536804199219 -65.15171813964842 L 93.18437957763672 -64.25172424316405 L 94.15540313720703 -63.62072372436522 L 94.46466827392578 -63.53781127929686 L 95.27442932128906 -63.32072448730467 L 96.43014526367188 -63.38171005249022 L 96.43046569824219 -63.38172912597655 L 96.72373962402344 -63.494316101074205 L 97.5122299194336 -63.79673004150389 L 97.75413513183594 -63.99244689941405 L 98.30400085449219 -64.4378204345703 L 98.41197204589844 -64.52527618408202 L 98.41253662109375 -64.52573394775389 L 98.58004760742188 -64.78391265869139 L 99.04330444335938 -65.49673461914061 L 99.1224365234375 -65.79187011718749 L 99.34259033203125 -66.61573791503905 L 99.32686614990234 -66.91894531249999 L 99.28262329101562 -67.77169799804686 L 99.28260803222656 -67.77200317382811 L 99.17426300048828 -68.05421447753905 M 105.99755859375 -72.90000152587889 L 103.57563018798828 -68.70550537109374 L 100.4658432006836 -63.319999694824205 L 95.6619873046875 -55.000724792480455 L 91.97000122070312 -61.39575958251952 L 89.85977935791016 -65.05094909667967 L 85.32794189453125 -72.90071868896483 L 90.76731872558594 -72.90073394775389 L 94.39218139648438 -72.90055847167967 L 99.34600067138672 -72.9003219604492 L 105.99755859375 -72.90000152587889 M 97.88394165039062 -90.01805114746092 L 97.73937225341797 -90.11199951171874 L 97.16732025146484 -90.48373413085936 L 96.87275695800781 -90.56277465820311 L 96.04855346679688 -90.78373718261717 L 94.89151763916016 -90.7227325439453 L 93.81048583984375 -90.30773162841795 L 93.56883239746094 -90.11199951171874 L 92.91044616699219 -89.57872772216795 L 92.73754119873047 -89.31266784667967 L 92.2794189453125 -88.60772705078124 L 91.9793930053711 -87.48873138427733 L 91.9793930053711 -87.4887237548828 L 91.99633026123047 -87.16770172119139 L 92.04037475585938 -86.3327178955078 L 92.16184997558594 -86.01599884033202 L 92.45536804199219 -85.25071716308592 L 93.18390655517578 -84.35131072998045 L 93.18437957763672 -84.35072326660155 L 93.45418548583984 -84.17567443847655 L 94.15540313720703 -83.72000122070311 L 94.20800018310547 -83.70590209960936 L 94.46466827392578 -83.63708496093749 L 95.27442932128906 -83.42072296142577 L 96.43014526367188 -83.48071289062499 L 96.43046569824219 -83.48072814941405 L 96.72373962402344 -83.5933151245117 L 97.5122299194336 -83.89572906494139 L 97.75413513183594 -84.09144592285155 L 98.30400085449219 -84.5368194580078 L 98.41160583496094 -84.62398529052733 L 98.41253662109375 -84.62473297119139 L 98.58004760742188 -84.88317108154295 L 99.04330444335938 -85.5960006713867 L 99.1224365234375 -85.89087677001952 L 99.34259033203125 -86.71473693847655 L 99.28260803222656 -87.87174224853514 L 98.86760711669922 -88.95273590087889 L 98.30400085449219 -89.64854431152342 L 98.1388931274414 -89.85237884521483 L 98.13860321044922 -89.8527374267578 L 97.88394165039062 -90.01805114746092 M 95.6619873046875 -75.09972381591795 L 91.97000122070312 -81.49475860595702 L 85.32794189453125 -92.99972534179686 L 91.97000122070312 -92.99974060058592 L 99.34600067138672 -92.99976348876952 L 105.99755859375 -92.99977874755858 L 100.46614837646484 -83.4199981689453 L 95.6619873046875 -75.09972381591795 M 94.20800018310547 -83.68582153320311 L 94.20800018310547 -83.68582153320311 M 119.9793930053711 65.61027526855467 L 119.9793930053711 65.61027526855467 z" fill="none" stroke="rgb(255,0,0)" stroke-width="0.001mm" />
</svg>