<?xml version="1.0" standalone="no"?>
<!DOCTYPE svg PUBLIC "-//W3C//DTD SVG 1.1//EN"
  "http://www.w3.org/Graphics/SVG/1.1/DTD/svg11.dtd">
<svg width="22.66962432861328mm" height="24.031318664550767mm" viewBox="72.32949829101562 94.96090698242186 22.66962432861328 24.031318664550767" xmlns="http://www.w3.org/2000/svg" version="1.1">
	<title>svgOutput</title>
	<desc>made with tinkercad</desc>
<path d="M 73.32949829101562 113.90350341796872 L 74.10700225830078 112.54402923583982 L 75.223388671875 110.59200286865232 L 76.39466094970703 108.54399871826169 L 77.3700180053711 106.83857727050778 L 77.5659408569336 106.4960021972656 L 77.7354507446289 106.19960784912107 L 77.76666259765625 106.0954895019531 L 77.79376220703125 106.00523376464841 L 77.7937240600586 106.00521087646482 L 77.28900146484375 105.7048645019531 L 74.95829772949219 104.31791687011716 L 74.11392211914062 103.81507873535153 L 74.26500701904297 103.56127166748044 L 74.77072143554688 102.71228027343747 L 74.77072143554688 102.71227264404294 L 75.56704711914062 103.18624877929685 L 77.28900146484375 104.21115112304685 L 77.8239974975586 104.52957916259763 L 78.2938003540039 104.80920410156247 L 78.50888061523438 104.44799804687497 L 79.02684020996094 103.57816314697263 L 77.8239974975586 102.86189270019528 L 77.04833984375 102.40000152587888 L 75.50383758544922 101.48027038574216 L 75.50376892089844 101.4802322387695 L 75.64991760253906 101.2348709106445 L 76.15996551513672 100.37807464599607 L 76.16001892089844 100.37797546386716 L 77.05067443847656 100.90824890136716 L 77.8239974975586 101.36854553222653 L 79.55687713623047 102.40000152587888 L 79.68350982666016 102.4753723144531 L 79.81919860839844 102.55613708496091 L 79.87200164794922 102.46381378173825 L 79.90849304199219 102.40000152587888 L 81.06604766845703 100.37599945068357 L 83.5910873413086 95.96090698242186 L 86.1644515991211 100.37599945068357 L 87.34414672851562 102.40000152587888 L 87.93983459472656 103.42201995849607 L 87.93985748291016 103.42205047607419 L 88.06400299072266 103.63504791259763 L 88.12142181396484 103.73355865478513 L 89.64299774169922 102.88182830810544 L 90.11199951171875 102.6192932128906 L 91.01828002929688 102.11198425292966 L 91.68299102783203 101.7398986816406 L 91.68324279785156 101.7397537231445 L 92.2000961303711 102.66300201416013 L 92.31024169921875 102.85975646972653 L 92.31024169921875 102.85975646972653 L 92.30998992919922 102.8598937988281 L 91.67304229736328 103.21630096435544 L 90.11199951171875 104.08977508544919 L 89.64299774169922 104.3522033691406 L 89.4718017578125 104.44799804687497 L 88.76752471923828 104.8420715332031 L 88.76752471923828 104.84207916259763 L 89.48974609375 106.08119201660153 L 90.11199951171875 105.73291015624997 L 93.01024627685547 104.1107482910156 L 93.63724517822266 105.23075103759763 L 92.89894104003906 105.64379882812497 L 91.37633514404297 106.4960021972656 L 90.1361083984375 107.19014739990232 L 93.63899993896484 113.20002746582028 L 93.9991226196289 113.8178787231445 L 93.63899993896484 113.81937408447263 L 90.11199951171875 113.83398437499997 L 86.01599884033203 113.85095214843747 L 84.75189208984375 113.85618591308591 L 84.75019836425781 113.98300170898435 L 84.74080657958984 114.68800354003903 L 84.69677734375 117.9922180175781 L 84.69677734375 117.99222564697263 L 83.70206451416016 117.97908020019528 L 83.4127426147461 117.97525787353513 L 83.4127426147461 117.97524261474607 L 83.42510986328125 117.05417633056638 L 83.45690155029297 114.68800354003903 L 83.46636962890625 113.98300170898435 L 83.46781158447266 113.87597656249997 L 82.66709899902344 113.86482238769528 L 82.03461456298828 113.8674392700195 L 82.02359008789062 114.68800354003903 L 81.97969818115234 117.95629882812497 L 81.91999816894531 117.95551300048825 L 80.9959945678711 117.94329833984372 L 80.6966552734375 117.939338684082 L 80.71131896972656 116.83345794677732 L 80.73975372314453 114.68800354003903 L 80.74909973144531 113.98300170898435 L 80.75055694580078 113.87275695800778 L 79.87200164794922 113.87639617919919 L 77.8239974975586 113.88488006591794 L 74.10700225830078 113.900276184082 L 73.32949829101562 113.90350341796872 M 88.42141723632812 108.73768615722653 L 88.45211029052734 108.54399871826169 L 88.52363586425781 108.09263610839841 L 88.52381896972656 108.09149932861325 L 88.56993865966797 107.800422668457 L 88.47380828857422 107.19135284423825 L 88.36360931396484 106.4960021972656 L 88.32550048828125 106.25555419921872 L 88.32532501220703 106.2544250488281 L 88.06400299072266 105.742073059082 L 88.04512786865234 105.70507049560544 L 87.61492919921875 104.86042785644528 L 87.20250701904297 104.44799804687497 L 87.07424926757812 104.31974029541013 L 86.50794219970703 103.7534255981445 L 86.01599884033203 103.50251007080075 L 85.95894622802734 103.47340393066403 L 85.11334991455078 103.04241943359372 L 83.96800231933594 102.86164093017575 L 83.56737518310547 102.79840087890622 L 82.95976257324219 102.8942947387695 L 82.02140045166016 103.0423889160156 L 81.91999816894531 103.09407043457028 L 81.47378540039062 103.32149505615232 L 81.27519989013672 103.42278289794919 L 80.62783813476562 103.75296783447263 L 80.62703704833984 103.75337219238278 L 80.19345092773438 104.18735504150388 L 79.93280792236328 104.44799804687497 L 79.87200164794922 104.50881195068357 L 79.52045440673828 104.8603591918945 L 79.24203491210938 105.40624237060544 L 78.8100814819336 106.25434875488278 L 78.77178955078125 106.4960021972656 L 78.56529998779297 107.7991027832031 L 78.56510162353516 107.80033874511716 L 78.66089630126953 108.40477752685544 L 78.68286895751953 108.54399871826169 L 78.80950164794922 109.34633636474607 L 79.08702087402344 109.8916091918945 L 79.44400024414062 110.59200286865232 L 79.52011108398438 110.74133300781247 L 79.87200164794922 111.09291076660153 L 80.62669372558594 111.8469314575195 L 80.62710571289062 111.84734344482419 L 81.1727523803711 112.12545013427732 L 81.91999816894531 112.50659179687497 L 82.02147674560547 112.55834960937497 L 82.53668212890625 112.63999938964841 L 83.56745147705078 112.80335998535153 L 83.96800231933594 112.73988342285153 L 84.59832763671875 112.63999938964841 L 85.11286163330078 112.55846405029294 L 85.1134262084961 112.55837249755857 L 85.66041564941406 112.27938842773435 L 86.01599884033203 112.0981521606445 L 86.50801086425781 111.84738922119138 L 86.94293212890625 111.41246032714841 L 87.61437225341797 110.74040222167966 L 87.6900634765625 110.59200286865232 L 88.06400299072266 109.85883331298825 L 88.32477569580078 109.34753417968747 L 88.32534790039062 109.34641265869138 L 88.42141723632812 108.73768615722653 z" fill="none" stroke="rgb(255,0,0)" stroke-width="0.001mm" />
</svg>