<svg width="139mm" height="160mm" viewBox="0 0 139 160" xmlns="http://www.w3.org/2000/svg" version="1.1" preserveAspectRatio="xMidYMid meet"><g id="svgGroup" stroke-linecap="round" fill-rule="evenodd" font-size="9pt" stroke="#000" stroke-width="0.25mm" fill="none" style="stroke:#000;stroke-width:0.25mm;fill:none"><path d="M 3 117 L 3 123.5 L 0 123.5 L 0 129.5 L 3 129.5 L 3 135.5 L 0 135.5 L 0 141.5 L 3 141.5 L 3 147.5 L 0 147.5 L 0 153.5 L 3 153.5 L 3 157 L 7 157 L 7 160 L 13 160 L 13 157 L 19 157 L 19 160 L 25 160 L 25 157 L 31 157 L 31 160 L 37 160 L 37 157 L 43 157 L 43 160 L 49 160 L 49 157 L 55 157 L 55 160 L 61 160 L 61 157 L 68 157 L 68 153.5 L 65 153.5 L 65 147.5 L 68 147.5 L 68 141.5 L 65 141.5 L 65 135.5 L 68 135.5 L 68 129.5 L 65 129.5 L 65 123.5 L 68 123.5 L 68 117 L 3 117 Z" id="side1_outsideCutPath" stroke="#FF0000" stroke-width="0.1" style="stroke:#FF0000;stroke-width:0.1" vector-effect="non-scaling-stroke"/><path d="M 74 117 L 74 123.5 L 71 123.5 L 71 129.5 L 74 129.5 L 74 135.5 L 71 135.5 L 71 141.5 L 74 141.5 L 74 147.5 L 71 147.5 L 71 153.5 L 74 153.5 L 74 157 L 78 157 L 78 160 L 84 160 L 84 157 L 90 157 L 90 160 L 96 160 L 96 157 L 102 157 L 102 160 L 108 160 L 108 157 L 114 157 L 114 160 L 120 160 L 120 157 L 126 157 L 126 160 L 132 160 L 132 157 L 139 157 L 139 153.5 L 136 153.5 L 136 147.5 L 139 147.5 L 139 141.5 L 136 141.5 L 136 135.5 L 139 135.5 L 139 129.5 L 136 129.5 L 136 123.5 L 139 123.5 L 139 117 L 74 117 Z" id="side3_outsideCutPath" stroke="#FF0000" stroke-width="0.1" style="stroke:#FF0000;stroke-width:0.1" vector-effect="non-scaling-stroke"/><path d="M 3 71 L 3 77.5 L 0 77.5 L 0 83.5 L 3 83.5 L 3 89.5 L 0 89.5 L 0 95.5 L 3 95.5 L 3 101.5 L 0 101.5 L 0 107.5 L 3 107.5 L 3 111 L 7 111 L 7 114 L 13 114 L 13 111 L 19 111 L 19 114 L 25 114 L 25 111 L 31 111 L 31 114 L 37 114 L 37 111 L 43 111 L 43 114 L 49 114 L 49 111 L 55 111 L 55 114 L 61 114 L 61 111 L 68 111 L 68 107.5 L 65 107.5 L 65 101.5 L 68 101.5 L 68 95.5 L 65 95.5 L 65 89.5 L 68 89.5 L 68 83.5 L 65 83.5 L 65 77.5 L 68 77.5 L 68 71 L 3 71 Z" id="side0_outsideCutPath" stroke="#FF0000" stroke-width="0.1" style="stroke:#FF0000;stroke-width:0.1" vector-effect="non-scaling-stroke"/><path d="M 74 71 L 74 77.5 L 71 77.5 L 71 83.5 L 74 83.5 L 74 89.5 L 71 89.5 L 71 95.5 L 74 95.5 L 74 101.5 L 71 101.5 L 71 107.5 L 74 107.5 L 74 111 L 78 111 L 78 114 L 84 114 L 84 111 L 90 111 L 90 114 L 96 114 L 96 111 L 102 111 L 102 114 L 108 114 L 108 111 L 114 111 L 114 114 L 120 114 L 120 111 L 126 111 L 126 114 L 132 114 L 132 111 L 139 111 L 139 107.5 L 136 107.5 L 136 101.5 L 139 101.5 L 139 95.5 L 136 95.5 L 136 89.5 L 139 89.5 L 139 83.5 L 136 83.5 L 136 77.5 L 139 77.5 L 139 71 L 74 71 Z" id="side2_outsideCutPath" stroke="#FF0000" stroke-width="0.1" style="stroke:#FF0000;stroke-width:0.1" vector-effect="non-scaling-stroke"/><path d="M 68 0 L 68 7 L 65 7 L 65 13 L 68 13 L 68 19 L 65 19 L 65 25 L 68 25 L 68 31 L 65 31 L 65 37 L 68 37 L 68 43 L 65 43 L 65 49 L 68 49 L 68 55 L 65 55 L 65 61 L 68 61 L 68 68 L 61 68 L 61 65 L 55 65 L 55 68 L 49 68 L 49 65 L 43 65 L 43 68 L 37 68 L 37 65 L 31 65 L 31 68 L 25 68 L 25 65 L 19 65 L 19 68 L 13 68 L 13 65 L 7 65 L 7 68 L 0 68 L 0 61 L 3 61 L 3 55 L 0 55 L 0 49 L 3 49 L 3 43 L 0 43 L 0 37 L 3 37 L 3 31 L 0 31 L 0 25 L 3 25 L 3 19 L 0 19 L 0 13 L 3 13 L 3 7 L 0 7 L 0 0 L 7 0 L 7 3 L 13 3 L 13 0 L 19 0 L 19 3 L 25 3 L 25 0 L 31 0 L 31 3 L 37 3 L 37 0 L 43 0 L 43 3 L 49 3 L 49 0 L 55 0 L 55 3 L 61 3 L 61 0 L 68 0 Z" id="bottom_outsideCutPath" stroke="#FF0000" stroke-width="0.1" style="stroke:#FF0000;stroke-width:0.1" vector-effect="non-scaling-stroke"/></g></svg>