<svg width="68mm" height="68mm" viewBox="0 0 68 68" xmlns="http://www.w3.org/2000/svg" version="1.1" preserveAspectRatio="xMidYMid meet"><g id="svgGroup" stroke-linecap="round" fill-rule="evenodd" font-size="9pt" stroke="#000" stroke-width="0.25mm" fill="none" style="stroke:#000;stroke-width:0.25mm;fill:none"><path d="M 68 0 L 68 7 L 65 7 L 65 13 L 68 13 L 68 19 L 65 19 L 65 25 L 68 25 L 68 31 L 65 31 L 65 37 L 68 37 L 68 43 L 65 43 L 65 49 L 68 49 L 68 55 L 65 55 L 65 61 L 68 61 L 68 68 L 61 68 L 61 65 L 55 65 L 55 68 L 49 68 L 49 65 L 43 65 L 43 68 L 37 68 L 37 65 L 31 65 L 31 68 L 25 68 L 25 65 L 19 65 L 19 68 L 13 68 L 13 65 L 7 65 L 7 68 L 0 68 L 0 61 L 3 61 L 3 55 L 0 55 L 0 49 L 3 49 L 3 43 L 0 43 L 0 37 L 3 37 L 3 31 L 0 31 L 0 25 L 3 25 L 3 19 L 0 19 L 0 13 L 3 13 L 3 7 L 0 7 L 0 0 L 7 0 L 7 3 L 13 3 L 13 0 L 19 0 L 19 3 L 25 3 L 25 0 L 31 0 L 31 3 L 37 3 L 37 0 L 43 0 L 43 3 L 49 3 L 49 0 L 55 0 L 55 3 L 61 3 L 61 0 L 68 0 Z" id="bottom_outsideCutPath" stroke="#FF0000" stroke-width="0.1" style="stroke:#FF0000;stroke-width:0.1" vector-effect="non-scaling-stroke"/></g></svg>