<svg width="68mm" height="43mm" viewBox="0 0 68 43" xmlns="http://www.w3.org/2000/svg" version="1.1" preserveAspectRatio="xMidYMid meet"><g id="svgGroup" stroke-linecap="round" fill-rule="evenodd" font-size="9pt" stroke="#000" stroke-width="0.25mm" fill="none" style="stroke:#000;stroke-width:0.25mm;fill:none"><path d="M 3 0 L 3 6.5 L 0 6.5 L 0 12.5 L 3 12.5 L 3 18.5 L 0 18.5 L 0 24.5 L 3 24.5 L 3 30.5 L 0 30.5 L 0 36.5 L 3 36.5 L 3 40 L 7 40 L 7 43 L 13 43 L 13 40 L 19 40 L 19 43 L 25 43 L 25 40 L 31 40 L 31 43 L 37 43 L 37 40 L 43 40 L 43 43 L 49 43 L 49 40 L 55 40 L 55 43 L 61 43 L 61 40 L 68 40 L 68 36.5 L 65 36.5 L 65 30.5 L 68 30.5 L 68 24.5 L 65 24.5 L 65 18.5 L 68 18.5 L 68 12.5 L 65 12.5 L 65 6.5 L 68 6.5 L 68 0 L 3 0 Z" id="side0_outsideCutPath" stroke="#FF0000" stroke-width="0.1" style="stroke:#FF0000;stroke-width:0.1" vector-effect="non-scaling-stroke"/></g></svg>