G04 Layer: TopLayer*
G04 EasyEDA v6.5.22, 2023-04-06 12:27:52*
G04 5455c0b06e674740b9c4986da44813f5,c949cfa9a39643c6839ff0c3538172d0,10*
G04 Gerber Generator version 0.2*
G04 Scale: 100 percent, Rotated: No, Reflected: No *
G04 Dimensions in inches *
G04 leading zeros omitted , absolute positions ,3 integer and 6 decimal *
%FSLAX36Y36*%
%MOIN*%

%AMMACRO1*4,1,4,-0.0177,-0.0167,-0.0177,0.0167,0.0177,0.0167,0.0177,-0.0167,-0.0177,-0.0167,0*%
%ADD10C,0.0100*%
%ADD11C,0.0063*%
%ADD12MACRO1*%
%ADD13R,0.0236X0.0158*%
%ADD14C,0.0118*%
%ADD15C,0.0120*%
%ADD16C,0.0394*%
%ADD17C,0.0220*%
%ADD18C,0.0650*%
%ADD19C,0.0270*%

%LPD*%
G36*
X393459Y383340D02*
G01*
X391140Y383680D01*
X389920Y384080D01*
X388140Y384980D01*
X387120Y385720D01*
X385720Y387120D01*
X384980Y388140D01*
X384080Y389920D01*
X383680Y391140D01*
X383340Y393459D01*
X383360Y394720D01*
X383660Y396500D01*
X384099Y397780D01*
X385140Y399660D01*
X385980Y400720D01*
X387600Y402160D01*
X388720Y402860D01*
X390740Y403700D01*
X392040Y404000D01*
X394200Y404120D01*
X395540Y403960D01*
X397620Y403360D01*
X398820Y402780D01*
X400580Y401540D01*
X401540Y400580D01*
X402780Y398820D01*
X403360Y397620D01*
X403960Y395540D01*
X404120Y394200D01*
X404000Y392040D01*
X403700Y390740D01*
X402860Y388720D01*
X402160Y387600D01*
X400720Y385980D01*
X399660Y385140D01*
X397780Y384099D01*
X396500Y383660D01*
X394720Y383360D01*
G37*

%LPD*%
G36*
X509340Y357960D02*
G01*
X507740Y358180D01*
X506340Y359040D01*
X505420Y360360D01*
X505080Y361960D01*
X505080Y370840D01*
X504799Y373320D01*
X504040Y375480D01*
X502840Y377400D01*
X501220Y379020D01*
X499300Y380220D01*
X497140Y380980D01*
X494660Y381260D01*
X459680Y381260D01*
X457180Y380980D01*
X455040Y380220D01*
X453100Y379020D01*
X451500Y377400D01*
X450280Y375480D01*
X449540Y373320D01*
X449260Y370840D01*
X449260Y365180D01*
X448940Y363660D01*
X448080Y362360D01*
X446780Y361480D01*
X445260Y361180D01*
X430640Y361180D01*
X428960Y361560D01*
X427600Y362600D01*
X426780Y364099D01*
X426700Y365820D01*
X427320Y367420D01*
X430660Y372380D01*
X433120Y377380D01*
X434920Y382660D01*
X436000Y388140D01*
X436360Y393700D01*
X436000Y399260D01*
X434920Y404739D01*
X433120Y410020D01*
X430660Y415040D01*
X427540Y419680D01*
X423860Y423860D01*
X419680Y427540D01*
X415040Y430660D01*
X410020Y433120D01*
X404739Y434920D01*
X399260Y436000D01*
X393700Y436360D01*
X388140Y436000D01*
X382660Y434920D01*
X377380Y433120D01*
X372360Y430660D01*
X367720Y427540D01*
X363540Y423860D01*
X359860Y419680D01*
X356740Y415040D01*
X354280Y410020D01*
X352480Y404739D01*
X351400Y399260D01*
X350940Y393620D01*
X351240Y388540D01*
X352180Y383459D01*
X353720Y378540D01*
X355840Y373820D01*
X358500Y369400D01*
X359580Y368040D01*
X360340Y366440D01*
X360319Y364660D01*
X359540Y363080D01*
X358160Y361960D01*
X356420Y361580D01*
X339799Y361580D01*
X337299Y361300D01*
X335160Y360540D01*
X332920Y359140D01*
X331320Y358560D01*
X329640Y358700D01*
X328160Y359520D01*
X327140Y360880D01*
X325460Y364660D01*
X322960Y368500D01*
X319920Y371920D01*
X316400Y374820D01*
X312460Y377160D01*
X308220Y378880D01*
X303780Y379920D01*
X299220Y380260D01*
X294640Y379920D01*
X290200Y378880D01*
X285960Y377160D01*
X282020Y374820D01*
X278260Y371719D01*
X276960Y371000D01*
X275220Y370820D01*
X273880Y371140D01*
X272720Y371920D01*
X271880Y373020D01*
X271480Y374360D01*
X270360Y384000D01*
X270000Y393700D01*
X270340Y402700D01*
X270780Y404340D01*
X271840Y405680D01*
X273380Y406420D01*
X275080Y406480D01*
X276640Y405820D01*
X280000Y403459D01*
X284100Y401420D01*
X288460Y400040D01*
X292980Y399340D01*
X297560Y399340D01*
X302080Y400040D01*
X306440Y401420D01*
X310540Y403459D01*
X314280Y406079D01*
X317580Y409260D01*
X320340Y412900D01*
X322520Y416900D01*
X324080Y421220D01*
X324940Y425700D01*
X325120Y430280D01*
X324600Y434820D01*
X323380Y439219D01*
X321520Y443400D01*
X319020Y447239D01*
X315980Y450660D01*
X312460Y453560D01*
X308520Y455900D01*
X304280Y457620D01*
X299840Y458660D01*
X295900Y458960D01*
X294320Y459420D01*
X293040Y460480D01*
X292320Y461980D01*
X292260Y463620D01*
X292880Y465160D01*
X293700Y466360D01*
X299720Y473980D01*
X306300Y481100D01*
X307980Y482160D01*
X309660Y482340D01*
X311260Y481820D01*
X312500Y480680D01*
X313180Y479120D01*
X313720Y476340D01*
X315260Y472020D01*
X317440Y468020D01*
X320220Y464380D01*
X323519Y461200D01*
X327260Y458579D01*
X331360Y456540D01*
X335720Y455160D01*
X340240Y454460D01*
X344799Y454460D01*
X349320Y455160D01*
X353680Y456540D01*
X357780Y458579D01*
X361520Y461200D01*
X364820Y464380D01*
X367600Y468020D01*
X369780Y472020D01*
X371320Y476340D01*
X372200Y480820D01*
X372380Y485400D01*
X371840Y489940D01*
X370640Y494340D01*
X368760Y498519D01*
X366280Y502360D01*
X363240Y505780D01*
X362239Y506580D01*
X361180Y507960D01*
X360800Y509640D01*
X361140Y511320D01*
X362180Y512700D01*
X363700Y513519D01*
X364920Y513860D01*
X374440Y515740D01*
X384080Y516880D01*
X393780Y517239D01*
X403480Y516860D01*
X413120Y515720D01*
X422640Y513820D01*
X432000Y511180D01*
X441100Y507800D01*
X449920Y503740D01*
X458380Y499000D01*
X459540Y498220D01*
X460680Y497080D01*
X461260Y495580D01*
X461220Y493980D01*
X460560Y492520D01*
X459360Y491460D01*
X455260Y489000D01*
X451719Y486100D01*
X448680Y482680D01*
X446200Y478840D01*
X444320Y474660D01*
X443120Y470260D01*
X442580Y465720D01*
X442760Y461140D01*
X443640Y456659D01*
X445180Y452340D01*
X447360Y448340D01*
X450140Y444700D01*
X453440Y441520D01*
X457180Y438900D01*
X461280Y436860D01*
X465640Y435480D01*
X470160Y434780D01*
X474720Y434780D01*
X479240Y435480D01*
X483600Y436860D01*
X487700Y438900D01*
X491440Y441520D01*
X494739Y444700D01*
X497520Y448340D01*
X498680Y449660D01*
X500280Y450360D01*
X502040Y450300D01*
X503600Y449500D01*
X504660Y448100D01*
X508000Y440860D01*
X511360Y431740D01*
X514000Y422400D01*
X515880Y412879D01*
X517020Y403240D01*
X517400Y393220D01*
X517000Y383519D01*
X515840Y373880D01*
X513920Y364380D01*
X512920Y360860D01*
X512180Y359420D01*
X510920Y358400D01*
G37*

%LPD*%
G36*
X427200Y310400D02*
G01*
X425740Y310660D01*
X424480Y311440D01*
X423600Y312640D01*
X423200Y314060D01*
X422960Y317000D01*
X422160Y320020D01*
X422060Y321480D01*
X422480Y322860D01*
X423360Y324020D01*
X424600Y324780D01*
X426040Y325040D01*
X447600Y325040D01*
X448660Y325160D01*
X450120Y325040D01*
X451460Y324420D01*
X452480Y323340D01*
X453020Y321980D01*
X453040Y320500D01*
X452780Y318940D01*
X452780Y316480D01*
X452480Y314960D01*
X451599Y313660D01*
X449520Y311560D01*
X448220Y310700D01*
X446700Y310400D01*
G37*

%LPD*%
G36*
X324739Y291380D02*
G01*
X323140Y292000D01*
X320820Y293580D01*
X313200Y299600D01*
X306080Y306200D01*
X299500Y313340D01*
X298860Y314160D01*
X298120Y315640D01*
X298060Y317300D01*
X298660Y318840D01*
X299840Y320000D01*
X301400Y320580D01*
X306020Y321300D01*
X310380Y322680D01*
X314480Y324720D01*
X318220Y327340D01*
X321520Y330520D01*
X322860Y332299D01*
X324080Y333340D01*
X325600Y333840D01*
X327200Y333700D01*
X328620Y332939D01*
X329620Y331680D01*
X330040Y330140D01*
X329660Y328040D01*
X329380Y325560D01*
X329380Y310260D01*
X329660Y307780D01*
X330120Y306440D01*
X330340Y305120D01*
X330120Y303800D01*
X329660Y302460D01*
X329380Y299980D01*
X329380Y295340D01*
X329000Y293660D01*
X327960Y292280D01*
X326460Y291480D01*
G37*

%LPD*%
D10*
X476380Y316930D02*
G01*
X476380Y353540D01*
X436019Y292320D02*
G01*
X451770Y292320D01*
X476380Y316930D01*
X436019Y343110D02*
G01*
X465940Y343110D01*
D11*
X351380Y292320D02*
G01*
X380900Y292320D01*
X352360Y318900D02*
G01*
X352360Y318400D01*
X394200Y318400D01*
X352360Y342520D02*
G01*
X383860Y342520D01*
X436019Y317910D02*
G01*
X426180Y317910D01*
X425200Y318900D01*
X470870Y393700D02*
G01*
X393700Y393700D01*
X405510Y350390D01*
D12*
G01*
X477164Y354330D03*
G01*
X477164Y400000D03*
D13*
G01*
X351380Y292320D03*
G01*
X351380Y317910D03*
G01*
X351380Y343500D03*
G01*
X436019Y317910D03*
G01*
X436019Y292320D03*
G01*
X436019Y343110D03*
D10*
G75*
G01*
X476380Y353540D02*
G02*
X477160Y354330I790J0D01*
G75*
G01*
X465940Y343110D02*
G03*
X477160Y354330I0J11220D01*
D11*
G75*
G01*
X380900Y292320D02*
G02*
X387790Y281500I-1965J-8855D01*
G75*
G01*
X394200Y318400D02*
G02*
X399610Y312990I0J-5410D01*
D10*
G75*
G01*
X351380Y317910D02*
G02*
X352360Y318900I980J10D01*
G75*
G01*
X351380Y343500D02*
G03*
X352360Y342520I980J0D01*
D11*
G75*
G01*
X477160Y400000D02*
G02*
X470870Y393700I-6300J0D01*
G75*
G01*
X425200Y318900D02*
G02*
X405510Y350390I58389J58410D01*
D14*
G75*
G01*
X367130Y393700D02*
G02*
X393700Y367130I26570J0D01*
D15*
G75*
G01*
X367130Y393700D02*
G03*
X393700Y367130I26570J0D01*
D16*
G01*
X342520Y484250D03*
G01*
X295270Y429129D03*
G01*
X299210Y350390D03*
G01*
X472440Y464570D03*
G01*
X413380Y496060D03*
D18*
G01*
X393700Y393700D03*
D19*
G01*
X383860Y342520D03*
G01*
X399610Y312990D03*
G01*
X387790Y281500D03*
G01*
X476380Y316930D03*
M02*
