G04 Layer: BottomLayer*
G04 EasyEDA v6.5.22, 2023-04-06 12:27:52*
G04 5455c0b06e674740b9c4986da44813f5,c949cfa9a39643c6839ff0c3538172d0,10*
G04 Gerber Generator version 0.2*
G04 Scale: 100 percent, Rotated: No, Reflected: No *
G04 Dimensions in inches *
G04 leading zeros omitted , absolute positions ,3 integer and 6 decimal *
%FSLAX36Y36*%
%MOIN*%

%ADD10C,0.0100*%
%ADD11C,0.0118*%
%ADD12C,0.0063*%
%ADD13C,0.0394*%
%ADD14C,0.0650*%
%ADD15C,0.0270*%

%LPD*%
G36*
X325240Y441019D02*
G01*
X323720Y441300D01*
X322420Y442120D01*
X319020Y447239D01*
X315980Y450660D01*
X312460Y453560D01*
X308520Y455900D01*
X304280Y457620D01*
X299840Y458660D01*
X295900Y458960D01*
X294320Y459420D01*
X293040Y460480D01*
X292320Y461980D01*
X292260Y463620D01*
X292880Y465160D01*
X293700Y466360D01*
X299720Y473980D01*
X306300Y481100D01*
X307980Y482160D01*
X309660Y482340D01*
X311260Y481820D01*
X312500Y480680D01*
X313180Y479120D01*
X313720Y476340D01*
X315260Y472020D01*
X317440Y468020D01*
X320220Y464380D01*
X323519Y461200D01*
X327480Y458420D01*
X328380Y457540D01*
X328960Y456400D01*
X329180Y455140D01*
X329180Y445020D01*
X328880Y443500D01*
X328020Y442220D01*
X326740Y441340D01*
G37*

%LPD*%
G36*
X275820Y370580D02*
G01*
X274320Y370760D01*
X272980Y371480D01*
X272000Y372660D01*
X271540Y374099D01*
X270360Y384000D01*
X270000Y393700D01*
X270340Y402700D01*
X270780Y404340D01*
X271840Y405680D01*
X273380Y406420D01*
X275080Y406480D01*
X276640Y405820D01*
X280000Y403459D01*
X284100Y401420D01*
X288460Y400040D01*
X292980Y399340D01*
X297560Y399340D01*
X302080Y400040D01*
X306440Y401420D01*
X307560Y401980D01*
X309040Y402380D01*
X310540Y402200D01*
X311880Y401480D01*
X312860Y400300D01*
X313300Y398840D01*
X313420Y397640D01*
X313420Y382700D01*
X313160Y381280D01*
X312420Y380060D01*
X311300Y379180D01*
X309940Y378740D01*
X308500Y378800D01*
X303780Y379920D01*
X299220Y380260D01*
X294640Y379920D01*
X290200Y378880D01*
X285960Y377160D01*
X282020Y374820D01*
X277280Y371000D01*
G37*

%LPD*%
G36*
X497500Y330520D02*
G01*
X496060Y330900D01*
X494860Y331760D01*
X492020Y334720D01*
X489260Y336760D01*
X488400Y337640D01*
X487840Y338740D01*
X487640Y339980D01*
X487640Y436760D01*
X487840Y438020D01*
X488420Y439159D01*
X489340Y440040D01*
X491440Y441520D01*
X494739Y444700D01*
X497520Y448340D01*
X498680Y449660D01*
X500280Y450360D01*
X502040Y450300D01*
X503600Y449500D01*
X504660Y448100D01*
X508000Y440860D01*
X511360Y431740D01*
X514000Y422400D01*
X515880Y412879D01*
X517020Y403240D01*
X517400Y393220D01*
X517000Y383519D01*
X515840Y373880D01*
X513920Y364380D01*
X511260Y355040D01*
X507879Y345940D01*
X503800Y337120D01*
X501240Y332560D01*
X500280Y331420D01*
X498980Y330720D01*
G37*

%LPD*%
G36*
X414000Y271860D02*
G01*
X412520Y272500D01*
X411420Y273680D01*
X410860Y275180D01*
X410940Y276780D01*
X411140Y277500D01*
X411480Y281500D01*
X411140Y285500D01*
X410360Y288460D01*
X410280Y290040D01*
X410800Y291520D01*
X411860Y292700D01*
X415260Y295200D01*
X418040Y298120D01*
X420280Y301440D01*
X421940Y305100D01*
X422960Y308980D01*
X423300Y312980D01*
X422960Y317000D01*
X421940Y320880D01*
X420280Y324540D01*
X418040Y327860D01*
X415260Y330780D01*
X412020Y333160D01*
X409380Y334500D01*
X408140Y335460D01*
X407380Y336840D01*
X407200Y338400D01*
X407540Y342520D01*
X407200Y346520D01*
X406200Y350420D01*
X404540Y354080D01*
X402280Y357400D01*
X399500Y360300D01*
X396280Y362680D01*
X392700Y364500D01*
X388860Y365680D01*
X384860Y366180D01*
X380860Y366019D01*
X376920Y365160D01*
X373200Y363660D01*
X370240Y361840D01*
X368600Y361280D01*
X366860Y361460D01*
X365379Y362360D01*
X362400Y365280D01*
X359640Y369099D01*
X357600Y373340D01*
X356340Y377879D01*
X355880Y382260D01*
X355880Y455140D01*
X356079Y456400D01*
X356659Y457540D01*
X357560Y458420D01*
X361520Y461200D01*
X364820Y464380D01*
X367600Y468020D01*
X369780Y472020D01*
X371320Y476340D01*
X372200Y480820D01*
X372380Y485400D01*
X371840Y489940D01*
X370640Y494340D01*
X368760Y498519D01*
X366280Y502360D01*
X363240Y505780D01*
X362239Y506580D01*
X361180Y507960D01*
X360800Y509640D01*
X361140Y511320D01*
X362180Y512700D01*
X363700Y513519D01*
X364920Y513860D01*
X374440Y515740D01*
X384080Y516880D01*
X393780Y517239D01*
X403480Y516860D01*
X413120Y515720D01*
X422640Y513820D01*
X432000Y511180D01*
X441100Y507800D01*
X449920Y503740D01*
X458380Y499000D01*
X459540Y498220D01*
X460680Y497080D01*
X461260Y495580D01*
X461220Y493980D01*
X460560Y492520D01*
X459360Y491460D01*
X455260Y489000D01*
X451719Y486100D01*
X448680Y482680D01*
X446200Y478840D01*
X444320Y474660D01*
X443120Y470260D01*
X442580Y465720D01*
X442760Y461140D01*
X443640Y456659D01*
X445180Y452340D01*
X447360Y448340D01*
X450140Y444700D01*
X453440Y441520D01*
X455540Y440040D01*
X456460Y439159D01*
X457040Y438020D01*
X457239Y436760D01*
X457239Y332100D01*
X457120Y331100D01*
X456740Y330140D01*
X454799Y326680D01*
X453459Y322900D01*
X452780Y318940D01*
X452780Y314920D01*
X453459Y310960D01*
X454799Y307180D01*
X456760Y303660D01*
X459280Y300540D01*
X463740Y296620D01*
X464400Y295160D01*
X464420Y293580D01*
X463840Y292100D01*
X462700Y290980D01*
X458120Y287920D01*
X449640Y283200D01*
X440800Y279160D01*
X431700Y275800D01*
X422340Y273200D01*
X415600Y271860D01*
G37*

%LPD*%
D10*
X472440Y464570D02*
G01*
X472440Y318900D01*
D11*
X387790Y281500D02*
G01*
X358270Y291340D01*
D12*
X326770Y370080D02*
G01*
X326770Y397640D01*
X399610Y312990D02*
G01*
X377950Y318900D01*
X342520Y381890D02*
G01*
X342520Y484250D01*
D10*
G75*
G01*
X472440Y318900D02*
G03*
X476380Y316930I2952J979D01*
D11*
G75*
G01*
X358270Y291340D02*
G02*
X299210Y350390I-10J59050D01*
D12*
G75*
G01*
X326770Y397640D02*
G03*
X295270Y429130I-31500J-10D01*
G75*
G01*
X377950Y318900D02*
G02*
X326770Y370080I0J51180D01*
G75*
G01*
X383860Y342520D02*
G02*
X342520Y381890I-982J40358D01*
D13*
G01*
X342520Y484250D03*
G01*
X295270Y429129D03*
G01*
X299210Y350390D03*
G01*
X472440Y464570D03*
G01*
X413380Y496060D03*
D14*
G01*
X393700Y393700D03*
D15*
G01*
X383860Y342520D03*
G01*
X399610Y312990D03*
G01*
X387790Y281500D03*
G01*
X476380Y316930D03*
M02*
