<svg width="1015mm" height="724mm" viewBox="0 0 1015 724" xmlns="http://www.w3.org/2000/svg" version="1.1" preserveAspectRatio="xMidYMid meet"><g id="svgGroup" stroke-linecap="round" fill-rule="evenodd" font-size="9pt" stroke="#000" stroke-width="0.25mm" fill="none" style="stroke:#000;stroke-width:0.25mm;fill:none"><path d="M 15.082 618 L 15.082 626 L 0 626 L 0 632 L 15.082 632 L 15.082 638 L 0 638 L 0 644 L 15.082 644 L 15.082 650 L 0 650 L 0 656 L 15.082 656 L 15.082 662 L 0 662 L 0 668 L 15.082 668 L 15.082 674 L 0 674 L 0 680 L 15.082 680 L 15.082 686 L 0 686 L 0 692 L 15.082 692 L 15.082 698 L 0 698 L 0 704 L 15.082 704 L 15.082 710 L 0 710 L 0 716 L 15.082 716 L 15.082 724 L 18.567 724 L 18.567 721 L 24.567 721 L 24.567 724 L 30.567 724 L 30.567 721 L 36.567 721 L 36.567 724 L 42.567 724 L 42.567 721 L 48.567 721 L 48.567 724 L 54.567 724 L 54.567 721 L 60.567 721 L 60.567 724 L 66.567 724 L 66.567 721 L 72.567 721 L 72.567 724 L 78.567 724 L 78.567 721 L 84.567 721 L 84.567 724 L 90.567 724 L 90.567 721 L 96.567 721 L 96.567 724 L 102.567 724 L 102.567 721 L 115.135 721 L 115.135 716 L 100.053 716 L 100.053 710 L 115.135 710 L 115.135 704 L 100.053 704 L 100.053 698 L 115.135 698 L 115.135 692 L 100.053 692 L 100.053 686 L 115.135 686 L 115.135 680 L 100.053 680 L 100.053 674 L 115.135 674 L 115.135 668 L 100.053 668 L 100.053 662 L 115.135 662 L 115.135 656 L 100.053 656 L 100.053 650 L 115.135 650 L 115.135 644 L 100.053 644 L 100.053 638 L 115.135 638 L 115.135 632 L 100.053 632 L 100.053 626 L 115.135 626 L 115.135 621 L 102.567 621 L 102.567 618 L 96.567 618 L 96.567 621 L 90.567 621 L 90.567 618 L 84.567 618 L 84.567 621 L 78.567 621 L 78.567 618 L 72.567 618 L 72.567 621 L 66.567 621 L 66.567 618 L 60.567 618 L 60.567 621 L 54.567 621 L 54.567 618 L 48.567 618 L 48.567 621 L 42.567 621 L 42.567 618 L 36.567 618 L 36.567 621 L 30.567 621 L 30.567 618 L 24.567 618 L 24.567 621 L 18.567 621 L 18.567 618 L 15.082 618 Z" id="side1_outsideCutPath" stroke="#FF0000" stroke-width="0.1" style="stroke:#FF0000;stroke-width:0.1" vector-effect="non-scaling-stroke"/><path d="M 133.217 618 L 133.217 626 L 118.135 626 L 118.135 632 L 133.217 632 L 133.217 638 L 118.135 638 L 118.135 644 L 133.217 644 L 133.217 650 L 118.135 650 L 118.135 656 L 133.217 656 L 133.217 662 L 118.135 662 L 118.135 668 L 133.217 668 L 133.217 674 L 118.135 674 L 118.135 680 L 133.217 680 L 133.217 686 L 118.135 686 L 118.135 692 L 133.217 692 L 133.217 698 L 118.135 698 L 118.135 704 L 133.217 704 L 133.217 710 L 118.135 710 L 118.135 716 L 133.217 716 L 133.217 724 L 136.702 724 L 136.702 721 L 142.702 721 L 142.702 724 L 148.702 724 L 148.702 721 L 154.702 721 L 154.702 724 L 160.702 724 L 160.702 721 L 166.702 721 L 166.702 724 L 172.702 724 L 172.702 721 L 178.702 721 L 178.702 724 L 184.702 724 L 184.702 721 L 190.702 721 L 190.702 724 L 196.702 724 L 196.702 721 L 202.702 721 L 202.702 724 L 208.702 724 L 208.702 721 L 214.702 721 L 214.702 724 L 220.702 724 L 220.702 721 L 233.27 721 L 233.27 716 L 218.188 716 L 218.188 710 L 233.27 710 L 233.27 704 L 218.188 704 L 218.188 698 L 233.27 698 L 233.27 692 L 218.188 692 L 218.188 686 L 233.27 686 L 233.27 680 L 218.188 680 L 218.188 674 L 233.27 674 L 233.27 668 L 218.188 668 L 218.188 662 L 233.27 662 L 233.27 656 L 218.188 656 L 218.188 650 L 233.27 650 L 233.27 644 L 218.188 644 L 218.188 638 L 233.27 638 L 233.27 632 L 218.188 632 L 218.188 626 L 233.27 626 L 233.27 621 L 220.702 621 L 220.702 618 L 214.702 618 L 214.702 621 L 208.702 621 L 208.702 618 L 202.702 618 L 202.702 621 L 196.702 621 L 196.702 618 L 190.702 618 L 190.702 621 L 184.702 621 L 184.702 618 L 178.702 618 L 178.702 621 L 172.702 621 L 172.702 618 L 166.702 618 L 166.702 621 L 160.702 621 L 160.702 618 L 154.702 618 L 154.702 621 L 148.702 621 L 148.702 618 L 142.702 618 L 142.702 621 L 136.702 621 L 136.702 618 L 133.217 618 Z" id="side3_outsideCutPath" stroke="#FF0000" stroke-width="0.1" style="stroke:#FF0000;stroke-width:0.1" vector-effect="non-scaling-stroke"/><path d="M 251.352 618 L 251.352 626 L 236.27 626 L 236.27 632 L 251.352 632 L 251.352 638 L 236.27 638 L 236.27 644 L 251.352 644 L 251.352 650 L 236.27 650 L 236.27 656 L 251.352 656 L 251.352 662 L 236.27 662 L 236.27 668 L 251.352 668 L 251.352 674 L 236.27 674 L 236.27 680 L 251.352 680 L 251.352 686 L 236.27 686 L 236.27 692 L 251.352 692 L 251.352 698 L 236.27 698 L 236.27 704 L 251.352 704 L 251.352 710 L 236.27 710 L 236.27 716 L 251.352 716 L 251.352 724 L 254.837 724 L 254.837 721 L 260.837 721 L 260.837 724 L 266.837 724 L 266.837 721 L 272.837 721 L 272.837 724 L 278.837 724 L 278.837 721 L 284.837 721 L 284.837 724 L 290.837 724 L 290.837 721 L 296.837 721 L 296.837 724 L 302.837 724 L 302.837 721 L 308.837 721 L 308.837 724 L 314.837 724 L 314.837 721 L 320.837 721 L 320.837 724 L 326.837 724 L 326.837 721 L 332.837 721 L 332.837 724 L 338.837 724 L 338.837 721 L 351.405 721 L 351.405 716 L 336.323 716 L 336.323 710 L 351.405 710 L 351.405 704 L 336.323 704 L 336.323 698 L 351.405 698 L 351.405 692 L 336.323 692 L 336.323 686 L 351.405 686 L 351.405 680 L 336.323 680 L 336.323 674 L 351.405 674 L 351.405 668 L 336.323 668 L 336.323 662 L 351.405 662 L 351.405 656 L 336.323 656 L 336.323 650 L 351.405 650 L 351.405 644 L 336.323 644 L 336.323 638 L 351.405 638 L 351.405 632 L 336.323 632 L 336.323 626 L 351.405 626 L 351.405 621 L 338.837 621 L 338.837 618 L 332.837 618 L 332.837 621 L 326.837 621 L 326.837 618 L 320.837 618 L 320.837 621 L 314.837 621 L 314.837 618 L 308.837 618 L 308.837 621 L 302.837 621 L 302.837 618 L 296.837 618 L 296.837 621 L 290.837 621 L 290.837 618 L 284.837 618 L 284.837 621 L 278.837 621 L 278.837 618 L 272.837 618 L 272.837 621 L 266.837 621 L 266.837 618 L 260.837 618 L 260.837 621 L 254.837 621 L 254.837 618 L 251.352 618 Z" id="side5_outsideCutPath" stroke="#FF0000" stroke-width="0.1" style="stroke:#FF0000;stroke-width:0.1" vector-effect="non-scaling-stroke"/><path d="M 369.487 618 L 369.487 626 L 354.405 626 L 354.405 632 L 369.487 632 L 369.487 638 L 354.405 638 L 354.405 644 L 369.487 644 L 369.487 650 L 354.405 650 L 354.405 656 L 369.487 656 L 369.487 662 L 354.405 662 L 354.405 668 L 369.487 668 L 369.487 674 L 354.405 674 L 354.405 680 L 369.487 680 L 369.487 686 L 354.405 686 L 354.405 692 L 369.487 692 L 369.487 698 L 354.405 698 L 354.405 704 L 369.487 704 L 369.487 710 L 354.405 710 L 354.405 716 L 369.487 716 L 369.487 724 L 372.972 724 L 372.972 721 L 378.972 721 L 378.972 724 L 384.972 724 L 384.972 721 L 390.972 721 L 390.972 724 L 396.972 724 L 396.972 721 L 402.972 721 L 402.972 724 L 408.972 724 L 408.972 721 L 414.972 721 L 414.972 724 L 420.972 724 L 420.972 721 L 426.972 721 L 426.972 724 L 432.972 724 L 432.972 721 L 438.972 721 L 438.972 724 L 444.972 724 L 444.972 721 L 450.972 721 L 450.972 724 L 456.972 724 L 456.972 721 L 469.54 721 L 469.54 716 L 454.458 716 L 454.458 710 L 469.54 710 L 469.54 704 L 454.458 704 L 454.458 698 L 469.54 698 L 469.54 692 L 454.458 692 L 454.458 686 L 469.54 686 L 469.54 680 L 454.458 680 L 454.458 674 L 469.54 674 L 469.54 668 L 454.458 668 L 454.458 662 L 469.54 662 L 469.54 656 L 454.458 656 L 454.458 650 L 469.54 650 L 469.54 644 L 454.458 644 L 454.458 638 L 469.54 638 L 469.54 632 L 454.458 632 L 454.458 626 L 469.54 626 L 469.54 621 L 456.972 621 L 456.972 618 L 450.972 618 L 450.972 621 L 444.972 621 L 444.972 618 L 438.972 618 L 438.972 621 L 432.972 621 L 432.972 618 L 426.972 618 L 426.972 621 L 420.972 621 L 420.972 618 L 414.972 618 L 414.972 621 L 408.972 621 L 408.972 618 L 402.972 618 L 402.972 621 L 396.972 621 L 396.972 618 L 390.972 618 L 390.972 621 L 384.972 621 L 384.972 618 L 378.972 618 L 378.972 621 L 372.972 621 L 372.972 618 L 369.487 618 Z" id="side7_outsideCutPath" stroke="#FF0000" stroke-width="0.1" style="stroke:#FF0000;stroke-width:0.1" vector-effect="non-scaling-stroke"/><path d="M 487.622 618 L 487.622 626 L 472.54 626 L 472.54 632 L 487.622 632 L 487.622 638 L 472.54 638 L 472.54 644 L 487.622 644 L 487.622 650 L 472.54 650 L 472.54 656 L 487.622 656 L 487.622 662 L 472.54 662 L 472.54 668 L 487.622 668 L 487.622 674 L 472.54 674 L 472.54 680 L 487.622 680 L 487.622 686 L 472.54 686 L 472.54 692 L 487.622 692 L 487.622 698 L 472.54 698 L 472.54 704 L 487.622 704 L 487.622 710 L 472.54 710 L 472.54 716 L 487.622 716 L 487.622 724 L 491.107 724 L 491.107 721 L 497.107 721 L 497.107 724 L 503.107 724 L 503.107 721 L 509.107 721 L 509.107 724 L 515.107 724 L 515.107 721 L 521.107 721 L 521.107 724 L 527.107 724 L 527.107 721 L 533.107 721 L 533.107 724 L 539.107 724 L 539.107 721 L 545.107 721 L 545.107 724 L 551.107 724 L 551.107 721 L 557.107 721 L 557.107 724 L 563.107 724 L 563.107 721 L 569.107 721 L 569.107 724 L 575.107 724 L 575.107 721 L 587.675 721 L 587.675 716 L 572.593 716 L 572.593 710 L 587.675 710 L 587.675 704 L 572.593 704 L 572.593 698 L 587.675 698 L 587.675 692 L 572.593 692 L 572.593 686 L 587.675 686 L 587.675 680 L 572.593 680 L 572.593 674 L 587.675 674 L 587.675 668 L 572.593 668 L 572.593 662 L 587.675 662 L 587.675 656 L 572.593 656 L 572.593 650 L 587.675 650 L 587.675 644 L 572.593 644 L 572.593 638 L 587.675 638 L 587.675 632 L 572.593 632 L 572.593 626 L 587.675 626 L 587.675 621 L 575.107 621 L 575.107 618 L 569.107 618 L 569.107 621 L 563.107 621 L 563.107 618 L 557.107 618 L 557.107 621 L 551.107 621 L 551.107 618 L 545.107 618 L 545.107 621 L 539.107 621 L 539.107 618 L 533.107 618 L 533.107 621 L 527.107 621 L 527.107 618 L 521.107 618 L 521.107 621 L 515.107 621 L 515.107 618 L 509.107 618 L 509.107 621 L 503.107 621 L 503.107 618 L 497.107 618 L 497.107 621 L 491.107 621 L 491.107 618 L 487.622 618 Z" id="side9_outsideCutPath" stroke="#FF0000" stroke-width="0.1" style="stroke:#FF0000;stroke-width:0.1" vector-effect="non-scaling-stroke"/><path d="M 605.757 618 L 605.757 626 L 590.675 626 L 590.675 632 L 605.757 632 L 605.757 638 L 590.675 638 L 590.675 644 L 605.757 644 L 605.757 650 L 590.675 650 L 590.675 656 L 605.757 656 L 605.757 662 L 590.675 662 L 590.675 668 L 605.757 668 L 605.757 674 L 590.675 674 L 590.675 680 L 605.757 680 L 605.757 686 L 590.675 686 L 590.675 692 L 605.757 692 L 605.757 698 L 590.675 698 L 590.675 704 L 605.757 704 L 605.757 710 L 590.675 710 L 590.675 716 L 605.757 716 L 605.757 724 L 609.242 724 L 609.242 721 L 615.242 721 L 615.242 724 L 621.242 724 L 621.242 721 L 627.242 721 L 627.242 724 L 633.242 724 L 633.242 721 L 639.242 721 L 639.242 724 L 645.242 724 L 645.242 721 L 651.242 721 L 651.242 724 L 657.242 724 L 657.242 721 L 663.242 721 L 663.242 724 L 669.242 724 L 669.242 721 L 675.242 721 L 675.242 724 L 681.242 724 L 681.242 721 L 687.242 721 L 687.242 724 L 693.242 724 L 693.242 721 L 705.81 721 L 705.81 716 L 690.728 716 L 690.728 710 L 705.81 710 L 705.81 704 L 690.728 704 L 690.728 698 L 705.81 698 L 705.81 692 L 690.728 692 L 690.728 686 L 705.81 686 L 705.81 680 L 690.728 680 L 690.728 674 L 705.81 674 L 705.81 668 L 690.728 668 L 690.728 662 L 705.81 662 L 705.81 656 L 690.728 656 L 690.728 650 L 705.81 650 L 705.81 644 L 690.728 644 L 690.728 638 L 705.81 638 L 705.81 632 L 690.728 632 L 690.728 626 L 705.81 626 L 705.81 621 L 693.242 621 L 693.242 618 L 687.242 618 L 687.242 621 L 681.242 621 L 681.242 618 L 675.242 618 L 675.242 621 L 669.242 621 L 669.242 618 L 663.242 618 L 663.242 621 L 657.242 621 L 657.242 618 L 651.242 618 L 651.242 621 L 645.242 621 L 645.242 618 L 639.242 618 L 639.242 621 L 633.242 621 L 633.242 618 L 627.242 618 L 627.242 621 L 621.242 621 L 621.242 618 L 615.242 618 L 615.242 621 L 609.242 621 L 609.242 618 L 605.757 618 Z" id="side11_outsideCutPath" stroke="#FF0000" stroke-width="0.1" style="stroke:#FF0000;stroke-width:0.1" vector-effect="non-scaling-stroke"/><path d="M 723.892 618 L 723.892 626 L 708.81 626 L 708.81 632 L 723.892 632 L 723.892 638 L 708.81 638 L 708.81 644 L 723.892 644 L 723.892 650 L 708.81 650 L 708.81 656 L 723.892 656 L 723.892 662 L 708.81 662 L 708.81 668 L 723.892 668 L 723.892 674 L 708.81 674 L 708.81 680 L 723.892 680 L 723.892 686 L 708.81 686 L 708.81 692 L 723.892 692 L 723.892 698 L 708.81 698 L 708.81 704 L 723.892 704 L 723.892 710 L 708.81 710 L 708.81 716 L 723.892 716 L 723.892 724 L 727.377 724 L 727.377 721 L 733.377 721 L 733.377 724 L 739.377 724 L 739.377 721 L 745.377 721 L 745.377 724 L 751.377 724 L 751.377 721 L 757.377 721 L 757.377 724 L 763.377 724 L 763.377 721 L 769.377 721 L 769.377 724 L 775.377 724 L 775.377 721 L 781.377 721 L 781.377 724 L 787.377 724 L 787.377 721 L 793.377 721 L 793.377 724 L 799.377 724 L 799.377 721 L 805.377 721 L 805.377 724 L 811.377 724 L 811.377 721 L 823.945 721 L 823.945 716 L 808.863 716 L 808.863 710 L 823.945 710 L 823.945 704 L 808.863 704 L 808.863 698 L 823.945 698 L 823.945 692 L 808.863 692 L 808.863 686 L 823.945 686 L 823.945 680 L 808.863 680 L 808.863 674 L 823.945 674 L 823.945 668 L 808.863 668 L 808.863 662 L 823.945 662 L 823.945 656 L 808.863 656 L 808.863 650 L 823.945 650 L 823.945 644 L 808.863 644 L 808.863 638 L 823.945 638 L 823.945 632 L 808.863 632 L 808.863 626 L 823.945 626 L 823.945 621 L 811.377 621 L 811.377 618 L 805.377 618 L 805.377 621 L 799.377 621 L 799.377 618 L 793.377 618 L 793.377 621 L 787.377 621 L 787.377 618 L 781.377 618 L 781.377 621 L 775.377 621 L 775.377 618 L 769.377 618 L 769.377 621 L 763.377 621 L 763.377 618 L 757.377 618 L 757.377 621 L 751.377 621 L 751.377 618 L 745.377 618 L 745.377 621 L 739.377 621 L 739.377 618 L 733.377 618 L 733.377 621 L 727.377 621 L 727.377 618 L 723.892 618 Z" id="side13_outsideCutPath" stroke="#FF0000" stroke-width="0.1" style="stroke:#FF0000;stroke-width:0.1" vector-effect="non-scaling-stroke"/><path d="M 842.027 618 L 842.027 626 L 826.945 626 L 826.945 632 L 842.027 632 L 842.027 638 L 826.945 638 L 826.945 644 L 842.027 644 L 842.027 650 L 826.945 650 L 826.945 656 L 842.027 656 L 842.027 662 L 826.945 662 L 826.945 668 L 842.027 668 L 842.027 674 L 826.945 674 L 826.945 680 L 842.027 680 L 842.027 686 L 826.945 686 L 826.945 692 L 842.027 692 L 842.027 698 L 826.945 698 L 826.945 704 L 842.027 704 L 842.027 710 L 826.945 710 L 826.945 716 L 842.027 716 L 842.027 724 L 845.512 724 L 845.512 721 L 851.512 721 L 851.512 724 L 857.512 724 L 857.512 721 L 863.512 721 L 863.512 724 L 869.512 724 L 869.512 721 L 875.512 721 L 875.512 724 L 881.512 724 L 881.512 721 L 887.512 721 L 887.512 724 L 893.512 724 L 893.512 721 L 899.512 721 L 899.512 724 L 905.512 724 L 905.512 721 L 911.512 721 L 911.512 724 L 917.512 724 L 917.512 721 L 923.512 721 L 923.512 724 L 929.512 724 L 929.512 721 L 942.08 721 L 942.08 716 L 926.997 716 L 926.997 710 L 942.08 710 L 942.08 704 L 926.997 704 L 926.997 698 L 942.08 698 L 942.08 692 L 926.997 692 L 926.997 686 L 942.08 686 L 942.08 680 L 926.997 680 L 926.997 674 L 942.08 674 L 942.08 668 L 926.997 668 L 926.997 662 L 942.08 662 L 942.08 656 L 926.997 656 L 926.997 650 L 942.08 650 L 942.08 644 L 926.997 644 L 926.997 638 L 942.08 638 L 942.08 632 L 926.997 632 L 926.997 626 L 942.08 626 L 942.08 621 L 929.512 621 L 929.512 618 L 923.512 618 L 923.512 621 L 917.512 621 L 917.512 618 L 911.512 618 L 911.512 621 L 905.512 621 L 905.512 618 L 899.512 618 L 899.512 621 L 893.512 621 L 893.512 618 L 887.512 618 L 887.512 621 L 881.512 621 L 881.512 618 L 875.512 618 L 875.512 621 L 869.512 621 L 869.512 618 L 863.512 618 L 863.512 621 L 857.512 621 L 857.512 618 L 851.512 618 L 851.512 621 L 845.512 621 L 845.512 618 L 842.027 618 Z" id="side15_outsideCutPath" stroke="#FF0000" stroke-width="0.1" style="stroke:#FF0000;stroke-width:0.1" vector-effect="non-scaling-stroke"/><path d="M 15.082 509 L 15.082 517 L 0 517 L 0 523 L 15.082 523 L 15.082 529 L 0 529 L 0 535 L 15.082 535 L 15.082 541 L 0 541 L 0 547 L 15.082 547 L 15.082 553 L 0 553 L 0 559 L 15.082 559 L 15.082 565 L 0 565 L 0 571 L 15.082 571 L 15.082 577 L 0 577 L 0 583 L 15.082 583 L 15.082 589 L 0 589 L 0 595 L 15.082 595 L 15.082 601 L 0 601 L 0 607 L 15.082 607 L 15.082 615 L 18.567 615 L 18.567 612 L 24.567 612 L 24.567 615 L 30.567 615 L 30.567 612 L 36.567 612 L 36.567 615 L 42.567 615 L 42.567 612 L 48.567 612 L 48.567 615 L 54.567 615 L 54.567 612 L 60.567 612 L 60.567 615 L 66.567 615 L 66.567 612 L 72.567 612 L 72.567 615 L 78.567 615 L 78.567 612 L 84.567 612 L 84.567 615 L 90.567 615 L 90.567 612 L 96.567 612 L 96.567 615 L 102.567 615 L 102.567 612 L 115.135 612 L 115.135 607 L 100.053 607 L 100.053 601 L 115.135 601 L 115.135 595 L 100.053 595 L 100.053 589 L 115.135 589 L 115.135 583 L 100.053 583 L 100.053 577 L 115.135 577 L 115.135 571 L 100.053 571 L 100.053 565 L 115.135 565 L 115.135 559 L 100.053 559 L 100.053 553 L 115.135 553 L 115.135 547 L 100.053 547 L 100.053 541 L 115.135 541 L 115.135 535 L 100.053 535 L 100.053 529 L 115.135 529 L 115.135 523 L 100.053 523 L 100.053 517 L 115.135 517 L 115.135 512 L 102.567 512 L 102.567 509 L 96.567 509 L 96.567 512 L 90.567 512 L 90.567 509 L 84.567 509 L 84.567 512 L 78.567 512 L 78.567 509 L 72.567 509 L 72.567 512 L 66.567 512 L 66.567 509 L 60.567 509 L 60.567 512 L 54.567 512 L 54.567 509 L 48.567 509 L 48.567 512 L 42.567 512 L 42.567 509 L 36.567 509 L 36.567 512 L 30.567 512 L 30.567 509 L 24.567 509 L 24.567 512 L 18.567 512 L 18.567 509 L 15.082 509 Z" id="side0_outsideCutPath" stroke="#FF0000" stroke-width="0.1" style="stroke:#FF0000;stroke-width:0.1" vector-effect="non-scaling-stroke"/><path d="M 133.217 509 L 133.217 517 L 118.135 517 L 118.135 523 L 133.217 523 L 133.217 529 L 118.135 529 L 118.135 535 L 133.217 535 L 133.217 541 L 118.135 541 L 118.135 547 L 133.217 547 L 133.217 553 L 118.135 553 L 118.135 559 L 133.217 559 L 133.217 565 L 118.135 565 L 118.135 571 L 133.217 571 L 133.217 577 L 118.135 577 L 118.135 583 L 133.217 583 L 133.217 589 L 118.135 589 L 118.135 595 L 133.217 595 L 133.217 601 L 118.135 601 L 118.135 607 L 133.217 607 L 133.217 615 L 136.702 615 L 136.702 612 L 142.702 612 L 142.702 615 L 148.702 615 L 148.702 612 L 154.702 612 L 154.702 615 L 160.702 615 L 160.702 612 L 166.702 612 L 166.702 615 L 172.702 615 L 172.702 612 L 178.702 612 L 178.702 615 L 184.702 615 L 184.702 612 L 190.702 612 L 190.702 615 L 196.702 615 L 196.702 612 L 202.702 612 L 202.702 615 L 208.702 615 L 208.702 612 L 214.702 612 L 214.702 615 L 220.702 615 L 220.702 612 L 233.27 612 L 233.27 607 L 218.188 607 L 218.188 601 L 233.27 601 L 233.27 595 L 218.188 595 L 218.188 589 L 233.27 589 L 233.27 583 L 218.188 583 L 218.188 577 L 233.27 577 L 233.27 571 L 218.188 571 L 218.188 565 L 233.27 565 L 233.27 559 L 218.188 559 L 218.188 553 L 233.27 553 L 233.27 547 L 218.188 547 L 218.188 541 L 233.27 541 L 233.27 535 L 218.188 535 L 218.188 529 L 233.27 529 L 233.27 523 L 218.188 523 L 218.188 517 L 233.27 517 L 233.27 512 L 220.702 512 L 220.702 509 L 214.702 509 L 214.702 512 L 208.702 512 L 208.702 509 L 202.702 509 L 202.702 512 L 196.702 512 L 196.702 509 L 190.702 509 L 190.702 512 L 184.702 512 L 184.702 509 L 178.702 509 L 178.702 512 L 172.702 512 L 172.702 509 L 166.702 509 L 166.702 512 L 160.702 512 L 160.702 509 L 154.702 509 L 154.702 512 L 148.702 512 L 148.702 509 L 142.702 509 L 142.702 512 L 136.702 512 L 136.702 509 L 133.217 509 Z" id="side2_outsideCutPath" stroke="#FF0000" stroke-width="0.1" style="stroke:#FF0000;stroke-width:0.1" vector-effect="non-scaling-stroke"/><path d="M 251.352 509 L 251.352 517 L 236.27 517 L 236.27 523 L 251.352 523 L 251.352 529 L 236.27 529 L 236.27 535 L 251.352 535 L 251.352 541 L 236.27 541 L 236.27 547 L 251.352 547 L 251.352 553 L 236.27 553 L 236.27 559 L 251.352 559 L 251.352 565 L 236.27 565 L 236.27 571 L 251.352 571 L 251.352 577 L 236.27 577 L 236.27 583 L 251.352 583 L 251.352 589 L 236.27 589 L 236.27 595 L 251.352 595 L 251.352 601 L 236.27 601 L 236.27 607 L 251.352 607 L 251.352 615 L 254.837 615 L 254.837 612 L 260.837 612 L 260.837 615 L 266.837 615 L 266.837 612 L 272.837 612 L 272.837 615 L 278.837 615 L 278.837 612 L 284.837 612 L 284.837 615 L 290.837 615 L 290.837 612 L 296.837 612 L 296.837 615 L 302.837 615 L 302.837 612 L 308.837 612 L 308.837 615 L 314.837 615 L 314.837 612 L 320.837 612 L 320.837 615 L 326.837 615 L 326.837 612 L 332.837 612 L 332.837 615 L 338.837 615 L 338.837 612 L 351.405 612 L 351.405 607 L 336.323 607 L 336.323 601 L 351.405 601 L 351.405 595 L 336.323 595 L 336.323 589 L 351.405 589 L 351.405 583 L 336.323 583 L 336.323 577 L 351.405 577 L 351.405 571 L 336.323 571 L 336.323 565 L 351.405 565 L 351.405 559 L 336.323 559 L 336.323 553 L 351.405 553 L 351.405 547 L 336.323 547 L 336.323 541 L 351.405 541 L 351.405 535 L 336.323 535 L 336.323 529 L 351.405 529 L 351.405 523 L 336.323 523 L 336.323 517 L 351.405 517 L 351.405 512 L 338.837 512 L 338.837 509 L 332.837 509 L 332.837 512 L 326.837 512 L 326.837 509 L 320.837 509 L 320.837 512 L 314.837 512 L 314.837 509 L 308.837 509 L 308.837 512 L 302.837 512 L 302.837 509 L 296.837 509 L 296.837 512 L 290.837 512 L 290.837 509 L 284.837 509 L 284.837 512 L 278.837 512 L 278.837 509 L 272.837 509 L 272.837 512 L 266.837 512 L 266.837 509 L 260.837 509 L 260.837 512 L 254.837 512 L 254.837 509 L 251.352 509 Z" id="side4_outsideCutPath" stroke="#FF0000" stroke-width="0.1" style="stroke:#FF0000;stroke-width:0.1" vector-effect="non-scaling-stroke"/><path d="M 369.487 509 L 369.487 517 L 354.405 517 L 354.405 523 L 369.487 523 L 369.487 529 L 354.405 529 L 354.405 535 L 369.487 535 L 369.487 541 L 354.405 541 L 354.405 547 L 369.487 547 L 369.487 553 L 354.405 553 L 354.405 559 L 369.487 559 L 369.487 565 L 354.405 565 L 354.405 571 L 369.487 571 L 369.487 577 L 354.405 577 L 354.405 583 L 369.487 583 L 369.487 589 L 354.405 589 L 354.405 595 L 369.487 595 L 369.487 601 L 354.405 601 L 354.405 607 L 369.487 607 L 369.487 615 L 372.972 615 L 372.972 612 L 378.972 612 L 378.972 615 L 384.972 615 L 384.972 612 L 390.972 612 L 390.972 615 L 396.972 615 L 396.972 612 L 402.972 612 L 402.972 615 L 408.972 615 L 408.972 612 L 414.972 612 L 414.972 615 L 420.972 615 L 420.972 612 L 426.972 612 L 426.972 615 L 432.972 615 L 432.972 612 L 438.972 612 L 438.972 615 L 444.972 615 L 444.972 612 L 450.972 612 L 450.972 615 L 456.972 615 L 456.972 612 L 469.54 612 L 469.54 607 L 454.458 607 L 454.458 601 L 469.54 601 L 469.54 595 L 454.458 595 L 454.458 589 L 469.54 589 L 469.54 583 L 454.458 583 L 454.458 577 L 469.54 577 L 469.54 571 L 454.458 571 L 454.458 565 L 469.54 565 L 469.54 559 L 454.458 559 L 454.458 553 L 469.54 553 L 469.54 547 L 454.458 547 L 454.458 541 L 469.54 541 L 469.54 535 L 454.458 535 L 454.458 529 L 469.54 529 L 469.54 523 L 454.458 523 L 454.458 517 L 469.54 517 L 469.54 512 L 456.972 512 L 456.972 509 L 450.972 509 L 450.972 512 L 444.972 512 L 444.972 509 L 438.972 509 L 438.972 512 L 432.972 512 L 432.972 509 L 426.972 509 L 426.972 512 L 420.972 512 L 420.972 509 L 414.972 509 L 414.972 512 L 408.972 512 L 408.972 509 L 402.972 509 L 402.972 512 L 396.972 512 L 396.972 509 L 390.972 509 L 390.972 512 L 384.972 512 L 384.972 509 L 378.972 509 L 378.972 512 L 372.972 512 L 372.972 509 L 369.487 509 Z" id="side6_outsideCutPath" stroke="#FF0000" stroke-width="0.1" style="stroke:#FF0000;stroke-width:0.1" vector-effect="non-scaling-stroke"/><path d="M 487.622 509 L 487.622 517 L 472.54 517 L 472.54 523 L 487.622 523 L 487.622 529 L 472.54 529 L 472.54 535 L 487.622 535 L 487.622 541 L 472.54 541 L 472.54 547 L 487.622 547 L 487.622 553 L 472.54 553 L 472.54 559 L 487.622 559 L 487.622 565 L 472.54 565 L 472.54 571 L 487.622 571 L 487.622 577 L 472.54 577 L 472.54 583 L 487.622 583 L 487.622 589 L 472.54 589 L 472.54 595 L 487.622 595 L 487.622 601 L 472.54 601 L 472.54 607 L 487.622 607 L 487.622 615 L 491.107 615 L 491.107 612 L 497.107 612 L 497.107 615 L 503.107 615 L 503.107 612 L 509.107 612 L 509.107 615 L 515.107 615 L 515.107 612 L 521.107 612 L 521.107 615 L 527.107 615 L 527.107 612 L 533.107 612 L 533.107 615 L 539.107 615 L 539.107 612 L 545.107 612 L 545.107 615 L 551.107 615 L 551.107 612 L 557.107 612 L 557.107 615 L 563.107 615 L 563.107 612 L 569.107 612 L 569.107 615 L 575.107 615 L 575.107 612 L 587.675 612 L 587.675 607 L 572.593 607 L 572.593 601 L 587.675 601 L 587.675 595 L 572.593 595 L 572.593 589 L 587.675 589 L 587.675 583 L 572.593 583 L 572.593 577 L 587.675 577 L 587.675 571 L 572.593 571 L 572.593 565 L 587.675 565 L 587.675 559 L 572.593 559 L 572.593 553 L 587.675 553 L 587.675 547 L 572.593 547 L 572.593 541 L 587.675 541 L 587.675 535 L 572.593 535 L 572.593 529 L 587.675 529 L 587.675 523 L 572.593 523 L 572.593 517 L 587.675 517 L 587.675 512 L 575.107 512 L 575.107 509 L 569.107 509 L 569.107 512 L 563.107 512 L 563.107 509 L 557.107 509 L 557.107 512 L 551.107 512 L 551.107 509 L 545.107 509 L 545.107 512 L 539.107 512 L 539.107 509 L 533.107 509 L 533.107 512 L 527.107 512 L 527.107 509 L 521.107 509 L 521.107 512 L 515.107 512 L 515.107 509 L 509.107 509 L 509.107 512 L 503.107 512 L 503.107 509 L 497.107 509 L 497.107 512 L 491.107 512 L 491.107 509 L 487.622 509 Z" id="side8_outsideCutPath" stroke="#FF0000" stroke-width="0.1" style="stroke:#FF0000;stroke-width:0.1" vector-effect="non-scaling-stroke"/><path d="M 605.757 509 L 605.757 517 L 590.675 517 L 590.675 523 L 605.757 523 L 605.757 529 L 590.675 529 L 590.675 535 L 605.757 535 L 605.757 541 L 590.675 541 L 590.675 547 L 605.757 547 L 605.757 553 L 590.675 553 L 590.675 559 L 605.757 559 L 605.757 565 L 590.675 565 L 590.675 571 L 605.757 571 L 605.757 577 L 590.675 577 L 590.675 583 L 605.757 583 L 605.757 589 L 590.675 589 L 590.675 595 L 605.757 595 L 605.757 601 L 590.675 601 L 590.675 607 L 605.757 607 L 605.757 615 L 609.242 615 L 609.242 612 L 615.242 612 L 615.242 615 L 621.242 615 L 621.242 612 L 627.242 612 L 627.242 615 L 633.242 615 L 633.242 612 L 639.242 612 L 639.242 615 L 645.242 615 L 645.242 612 L 651.242 612 L 651.242 615 L 657.242 615 L 657.242 612 L 663.242 612 L 663.242 615 L 669.242 615 L 669.242 612 L 675.242 612 L 675.242 615 L 681.242 615 L 681.242 612 L 687.242 612 L 687.242 615 L 693.242 615 L 693.242 612 L 705.81 612 L 705.81 607 L 690.728 607 L 690.728 601 L 705.81 601 L 705.81 595 L 690.728 595 L 690.728 589 L 705.81 589 L 705.81 583 L 690.728 583 L 690.728 577 L 705.81 577 L 705.81 571 L 690.728 571 L 690.728 565 L 705.81 565 L 705.81 559 L 690.728 559 L 690.728 553 L 705.81 553 L 705.81 547 L 690.728 547 L 690.728 541 L 705.81 541 L 705.81 535 L 690.728 535 L 690.728 529 L 705.81 529 L 705.81 523 L 690.728 523 L 690.728 517 L 705.81 517 L 705.81 512 L 693.242 512 L 693.242 509 L 687.242 509 L 687.242 512 L 681.242 512 L 681.242 509 L 675.242 509 L 675.242 512 L 669.242 512 L 669.242 509 L 663.242 509 L 663.242 512 L 657.242 512 L 657.242 509 L 651.242 509 L 651.242 512 L 645.242 512 L 645.242 509 L 639.242 509 L 639.242 512 L 633.242 512 L 633.242 509 L 627.242 509 L 627.242 512 L 621.242 512 L 621.242 509 L 615.242 509 L 615.242 512 L 609.242 512 L 609.242 509 L 605.757 509 Z" id="side10_outsideCutPath" stroke="#FF0000" stroke-width="0.1" style="stroke:#FF0000;stroke-width:0.1" vector-effect="non-scaling-stroke"/><path d="M 723.892 509 L 723.892 517 L 708.81 517 L 708.81 523 L 723.892 523 L 723.892 529 L 708.81 529 L 708.81 535 L 723.892 535 L 723.892 541 L 708.81 541 L 708.81 547 L 723.892 547 L 723.892 553 L 708.81 553 L 708.81 559 L 723.892 559 L 723.892 565 L 708.81 565 L 708.81 571 L 723.892 571 L 723.892 577 L 708.81 577 L 708.81 583 L 723.892 583 L 723.892 589 L 708.81 589 L 708.81 595 L 723.892 595 L 723.892 601 L 708.81 601 L 708.81 607 L 723.892 607 L 723.892 615 L 727.377 615 L 727.377 612 L 733.377 612 L 733.377 615 L 739.377 615 L 739.377 612 L 745.377 612 L 745.377 615 L 751.377 615 L 751.377 612 L 757.377 612 L 757.377 615 L 763.377 615 L 763.377 612 L 769.377 612 L 769.377 615 L 775.377 615 L 775.377 612 L 781.377 612 L 781.377 615 L 787.377 615 L 787.377 612 L 793.377 612 L 793.377 615 L 799.377 615 L 799.377 612 L 805.377 612 L 805.377 615 L 811.377 615 L 811.377 612 L 823.945 612 L 823.945 607 L 808.863 607 L 808.863 601 L 823.945 601 L 823.945 595 L 808.863 595 L 808.863 589 L 823.945 589 L 823.945 583 L 808.863 583 L 808.863 577 L 823.945 577 L 823.945 571 L 808.863 571 L 808.863 565 L 823.945 565 L 823.945 559 L 808.863 559 L 808.863 553 L 823.945 553 L 823.945 547 L 808.863 547 L 808.863 541 L 823.945 541 L 823.945 535 L 808.863 535 L 808.863 529 L 823.945 529 L 823.945 523 L 808.863 523 L 808.863 517 L 823.945 517 L 823.945 512 L 811.377 512 L 811.377 509 L 805.377 509 L 805.377 512 L 799.377 512 L 799.377 509 L 793.377 509 L 793.377 512 L 787.377 512 L 787.377 509 L 781.377 509 L 781.377 512 L 775.377 512 L 775.377 509 L 769.377 509 L 769.377 512 L 763.377 512 L 763.377 509 L 757.377 509 L 757.377 512 L 751.377 512 L 751.377 509 L 745.377 509 L 745.377 512 L 739.377 512 L 739.377 509 L 733.377 509 L 733.377 512 L 727.377 512 L 727.377 509 L 723.892 509 Z" id="side12_outsideCutPath" stroke="#FF0000" stroke-width="0.1" style="stroke:#FF0000;stroke-width:0.1" vector-effect="non-scaling-stroke"/><path d="M 842.027 509 L 842.027 517 L 826.945 517 L 826.945 523 L 842.027 523 L 842.027 529 L 826.945 529 L 826.945 535 L 842.027 535 L 842.027 541 L 826.945 541 L 826.945 547 L 842.027 547 L 842.027 553 L 826.945 553 L 826.945 559 L 842.027 559 L 842.027 565 L 826.945 565 L 826.945 571 L 842.027 571 L 842.027 577 L 826.945 577 L 826.945 583 L 842.027 583 L 842.027 589 L 826.945 589 L 826.945 595 L 842.027 595 L 842.027 601 L 826.945 601 L 826.945 607 L 842.027 607 L 842.027 615 L 845.512 615 L 845.512 612 L 851.512 612 L 851.512 615 L 857.512 615 L 857.512 612 L 863.512 612 L 863.512 615 L 869.512 615 L 869.512 612 L 875.512 612 L 875.512 615 L 881.512 615 L 881.512 612 L 887.512 612 L 887.512 615 L 893.512 615 L 893.512 612 L 899.512 612 L 899.512 615 L 905.512 615 L 905.512 612 L 911.512 612 L 911.512 615 L 917.512 615 L 917.512 612 L 923.512 612 L 923.512 615 L 929.512 615 L 929.512 612 L 942.08 612 L 942.08 607 L 926.997 607 L 926.997 601 L 942.08 601 L 942.08 595 L 926.997 595 L 926.997 589 L 942.08 589 L 942.08 583 L 926.997 583 L 926.997 577 L 942.08 577 L 942.08 571 L 926.997 571 L 926.997 565 L 942.08 565 L 942.08 559 L 926.997 559 L 926.997 553 L 942.08 553 L 942.08 547 L 926.997 547 L 926.997 541 L 942.08 541 L 942.08 535 L 926.997 535 L 926.997 529 L 942.08 529 L 942.08 523 L 926.997 523 L 926.997 517 L 942.08 517 L 942.08 512 L 929.512 512 L 929.512 509 L 923.512 509 L 923.512 512 L 917.512 512 L 917.512 509 L 911.512 509 L 911.512 512 L 905.512 512 L 905.512 509 L 899.512 509 L 899.512 512 L 893.512 512 L 893.512 509 L 887.512 509 L 887.512 512 L 881.512 512 L 881.512 509 L 875.512 509 L 875.512 512 L 869.512 512 L 869.512 509 L 863.512 509 L 863.512 512 L 857.512 512 L 857.512 509 L 851.512 509 L 851.512 512 L 845.512 512 L 845.512 509 L 842.027 509 Z" id="side14_outsideCutPath" stroke="#FF0000" stroke-width="0.1" style="stroke:#FF0000;stroke-width:0.1" vector-effect="non-scaling-stroke"/><path d="M 303.325 0 L 308.244 2.038 L 307.096 4.809 L 312.64 7.105 L 313.788 4.334 L 319.331 6.63 L 318.183 9.402 L 323.726 11.698 L 324.874 8.926 L 330.417 11.222 L 329.269 13.994 L 334.813 16.29 L 335.961 13.518 L 341.504 15.814 L 340.356 18.586 L 345.899 20.882 L 347.047 18.11 L 352.591 20.407 L 351.442 23.178 L 356.986 25.474 L 358.134 22.703 L 363.677 24.999 L 362.529 27.77 L 368.072 30.066 L 369.22 27.295 L 374.764 29.591 L 373.616 32.363 L 379.159 34.659 L 380.307 31.887 L 385.85 34.183 L 384.702 36.955 L 390.245 39.251 L 391.393 36.479 L 396.313 38.517 L 400.078 42.282 L 397.957 44.403 L 402.2 48.646 L 404.321 46.525 L 408.563 50.767 L 406.442 52.889 L 410.685 57.131 L 412.806 55.01 L 417.049 59.253 L 414.927 61.374 L 419.17 65.617 L 421.291 63.495 L 425.534 67.738 L 423.413 69.859 L 427.655 74.102 L 429.777 71.981 L 434.019 76.223 L 431.898 78.345 L 436.141 82.587 L 438.262 80.466 L 442.505 84.709 L 440.383 86.83 L 444.626 91.073 L 446.747 88.951 L 450.99 93.194 L 448.869 95.315 L 453.111 99.558 L 455.233 97.437 L 459.475 101.679 L 457.354 103.8 L 461.597 108.043 L 463.718 105.922 L 467.483 109.687 L 469.521 114.607 L 466.749 115.755 L 469.045 121.298 L 471.817 120.15 L 474.113 125.693 L 471.341 126.841 L 473.637 132.384 L 476.409 131.236 L 478.705 136.78 L 475.934 137.928 L 478.23 143.471 L 481.001 142.323 L 483.297 147.866 L 480.526 149.014 L 482.822 154.558 L 485.593 153.409 L 487.89 158.953 L 485.118 160.101 L 487.414 165.644 L 490.186 164.496 L 492.482 170.039 L 489.71 171.187 L 492.006 176.731 L 494.778 175.583 L 497.074 181.126 L 494.302 182.274 L 496.598 187.817 L 499.37 186.669 L 501.666 192.212 L 498.895 193.36 L 501.191 198.904 L 503.962 197.756 L 506 202.675 L 506 208 L 503 208 L 503 214 L 506 214 L 506 220 L 503 220 L 503 226 L 506 226 L 506 232 L 503 232 L 503 238 L 506 238 L 506 244 L 503 244 L 503 250 L 506 250 L 506 256 L 503 256 L 503 262 L 506 262 L 506 268 L 503 268 L 503 274 L 506 274 L 506 280 L 503 280 L 503 286 L 506 286 L 506 292 L 503 292 L 503 298 L 506 298 L 506 303.325 L 503.962 308.244 L 501.191 307.096 L 498.895 312.64 L 501.666 313.788 L 499.37 319.331 L 496.598 318.183 L 494.302 323.726 L 497.074 324.874 L 494.778 330.417 L 492.006 329.269 L 489.71 334.813 L 492.482 335.961 L 490.186 341.504 L 487.414 340.356 L 485.118 345.899 L 487.89 347.047 L 485.593 352.591 L 482.822 351.442 L 480.526 356.986 L 483.297 358.134 L 481.001 363.677 L 478.23 362.529 L 475.934 368.072 L 478.705 369.22 L 476.409 374.764 L 473.637 373.616 L 471.341 379.159 L 474.113 380.307 L 471.817 385.85 L 469.045 384.702 L 466.749 390.245 L 469.521 391.393 L 467.483 396.313 L 463.718 400.078 L 461.597 397.957 L 457.354 402.2 L 459.475 404.321 L 455.233 408.563 L 453.111 406.442 L 448.869 410.685 L 450.99 412.806 L 446.747 417.049 L 444.626 414.927 L 440.383 419.17 L 442.505 421.291 L 438.262 425.534 L 436.141 423.413 L 431.898 427.655 L 434.019 429.777 L 429.777 434.019 L 427.655 431.898 L 423.413 436.141 L 425.534 438.262 L 421.291 442.505 L 419.17 440.383 L 414.927 444.626 L 417.049 446.747 L 412.806 450.99 L 410.685 448.869 L 406.442 453.111 L 408.563 455.233 L 404.321 459.475 L 402.2 457.354 L 397.957 461.597 L 400.078 463.718 L 396.313 467.483 L 391.393 469.521 L 390.245 466.749 L 384.702 469.045 L 385.85 471.817 L 380.307 474.113 L 379.159 471.341 L 373.616 473.637 L 374.764 476.409 L 369.22 478.705 L 368.072 475.934 L 362.529 478.23 L 363.677 481.001 L 358.134 483.297 L 356.986 480.526 L 351.442 482.822 L 352.591 485.593 L 347.047 487.89 L 345.899 485.118 L 340.356 487.414 L 341.504 490.186 L 335.961 492.482 L 334.813 489.71 L 329.269 492.006 L 330.417 494.778 L 324.874 497.074 L 323.726 494.302 L 318.183 496.598 L 319.331 499.37 L 313.788 501.666 L 312.64 498.895 L 307.096 501.191 L 308.244 503.962 L 303.325 506 L 298 506 L 298 503 L 292 503 L 292 506 L 286 506 L 286 503 L 280 503 L 280 506 L 274 506 L 274 503 L 268 503 L 268 506 L 262 506 L 262 503 L 256 503 L 256 506 L 250 506 L 250 503 L 244 503 L 244 506 L 238 506 L 238 503 L 232 503 L 232 506 L 226 506 L 226 503 L 220 503 L 220 506 L 214 506 L 214 503 L 208 503 L 208 506 L 202.675 506 L 197.756 503.962 L 198.904 501.191 L 193.36 498.895 L 192.212 501.666 L 186.669 499.37 L 187.817 496.598 L 182.274 494.302 L 181.126 497.074 L 175.583 494.778 L 176.731 492.006 L 171.187 489.71 L 170.039 492.482 L 164.496 490.186 L 165.644 487.414 L 160.101 485.118 L 158.953 487.89 L 153.409 485.593 L 154.558 482.822 L 149.014 480.526 L 147.866 483.297 L 142.323 481.001 L 143.471 478.23 L 137.928 475.934 L 136.78 478.705 L 131.236 476.409 L 132.384 473.637 L 126.841 471.341 L 125.693 474.113 L 120.15 471.817 L 121.298 469.045 L 115.755 466.749 L 114.607 469.521 L 109.687 467.483 L 105.922 463.718 L 108.043 461.597 L 103.8 457.354 L 101.679 459.475 L 97.437 455.233 L 99.558 453.111 L 95.315 448.869 L 93.194 450.99 L 88.951 446.747 L 91.073 444.626 L 86.83 440.383 L 84.709 442.505 L 80.466 438.262 L 82.587 436.141 L 78.345 431.898 L 76.223 434.019 L 71.981 429.777 L 74.102 427.655 L 69.859 423.413 L 67.738 425.534 L 63.495 421.291 L 65.617 419.17 L 61.374 414.927 L 59.253 417.049 L 55.01 412.806 L 57.131 410.685 L 52.889 406.442 L 50.767 408.563 L 46.525 404.321 L 48.646 402.2 L 44.403 397.957 L 42.282 400.078 L 38.517 396.313 L 36.479 391.393 L 39.251 390.245 L 36.955 384.702 L 34.183 385.85 L 31.887 380.307 L 34.659 379.159 L 32.363 373.616 L 29.591 374.764 L 27.295 369.22 L 30.066 368.072 L 27.77 362.529 L 24.999 363.677 L 22.703 358.134 L 25.474 356.986 L 23.178 351.442 L 20.407 352.591 L 18.11 347.047 L 20.882 345.899 L 18.586 340.356 L 15.814 341.504 L 13.518 335.961 L 16.29 334.813 L 13.994 329.269 L 11.222 330.417 L 8.926 324.874 L 11.698 323.726 L 9.402 318.183 L 6.63 319.331 L 4.334 313.788 L 7.105 312.64 L 4.809 307.096 L 2.038 308.244 L 0 303.325 L 0 298 L 3 298 L 3 292 L 0 292 L 0 286 L 3 286 L 3 280 L 0 280 L 0 274 L 3 274 L 3 268 L 0 268 L 0 262 L 3 262 L 3 256 L 0 256 L 0 250 L 3 250 L 3 244 L 0 244 L 0 238 L 3 238 L 3 232 L 0 232 L 0 226 L 3 226 L 3 220 L 0 220 L 0 214 L 3 214 L 3 208 L 0 208 L 0 202.675 L 2.038 197.756 L 4.809 198.904 L 7.105 193.36 L 4.334 192.212 L 6.63 186.669 L 9.402 187.817 L 11.698 182.274 L 8.926 181.126 L 11.222 175.583 L 13.994 176.731 L 16.29 171.187 L 13.518 170.039 L 15.814 164.496 L 18.586 165.644 L 20.882 160.101 L 18.11 158.953 L 20.407 153.409 L 23.178 154.558 L 25.474 149.014 L 22.703 147.866 L 24.999 142.323 L 27.77 143.471 L 30.066 137.928 L 27.295 136.78 L 29.591 131.236 L 32.363 132.384 L 34.659 126.841 L 31.887 125.693 L 34.183 120.15 L 36.955 121.298 L 39.251 115.755 L 36.479 114.607 L 38.517 109.687 L 42.282 105.922 L 44.403 108.043 L 48.646 103.8 L 46.525 101.679 L 50.767 97.437 L 52.889 99.558 L 57.131 95.315 L 55.01 93.194 L 59.253 88.951 L 61.374 91.073 L 65.617 86.83 L 63.495 84.709 L 67.738 80.466 L 69.859 82.587 L 74.102 78.345 L 71.981 76.223 L 76.223 71.981 L 78.345 74.102 L 82.587 69.859 L 80.466 67.738 L 84.709 63.495 L 86.83 65.617 L 91.073 61.374 L 88.951 59.253 L 93.194 55.01 L 95.315 57.131 L 99.558 52.889 L 97.437 50.767 L 101.679 46.525 L 103.8 48.646 L 108.043 44.403 L 105.922 42.282 L 109.687 38.517 L 114.607 36.479 L 115.755 39.251 L 121.298 36.955 L 120.15 34.183 L 125.693 31.887 L 126.841 34.659 L 132.384 32.363 L 131.236 29.591 L 136.78 27.295 L 137.928 30.066 L 143.471 27.77 L 142.323 24.999 L 147.866 22.703 L 149.014 25.474 L 154.558 23.178 L 153.409 20.407 L 158.953 18.11 L 160.101 20.882 L 165.644 18.586 L 164.496 15.814 L 170.039 13.518 L 171.187 16.29 L 176.731 13.994 L 175.583 11.222 L 181.126 8.926 L 182.274 11.698 L 187.817 9.402 L 186.669 6.63 L 192.212 4.334 L 193.36 7.105 L 198.904 4.809 L 197.756 2.038 L 202.675 0 L 208 0 L 208 3 L 214 3 L 214 0 L 220 0 L 220 3 L 226 3 L 226 0 L 232 0 L 232 3 L 238 3 L 238 0 L 244 0 L 244 3 L 250 3 L 250 0 L 256 0 L 256 3 L 262 3 L 262 0 L 268 0 L 268 3 L 274 3 L 274 0 L 280 0 L 280 3 L 286 3 L 286 0 L 292 0 L 292 3 L 298 3 L 298 0 L 303.325 0 Z" id="top_outsideCutPath" stroke="#FF0000" stroke-width="0.1" style="stroke:#FF0000;stroke-width:0.1" vector-effect="non-scaling-stroke"/><path d="M 812.325 0 L 817.244 2.038 L 816.096 4.809 L 821.64 7.105 L 822.788 4.334 L 828.331 6.63 L 827.183 9.402 L 832.726 11.698 L 833.874 8.926 L 839.417 11.222 L 838.269 13.994 L 843.813 16.29 L 844.961 13.518 L 850.504 15.814 L 849.356 18.586 L 854.899 20.882 L 856.047 18.11 L 861.591 20.407 L 860.442 23.178 L 865.986 25.474 L 867.134 22.703 L 872.677 24.999 L 871.529 27.77 L 877.072 30.066 L 878.22 27.295 L 883.764 29.591 L 882.616 32.363 L 888.159 34.659 L 889.307 31.887 L 894.85 34.183 L 893.702 36.955 L 899.245 39.251 L 900.393 36.479 L 905.313 38.517 L 909.078 42.282 L 906.957 44.403 L 911.2 48.646 L 913.321 46.525 L 917.563 50.767 L 915.442 52.889 L 919.685 57.131 L 921.806 55.01 L 926.049 59.253 L 923.927 61.374 L 928.17 65.617 L 930.291 63.495 L 934.534 67.738 L 932.413 69.859 L 936.655 74.102 L 938.777 71.981 L 943.019 76.223 L 940.898 78.345 L 945.141 82.587 L 947.262 80.466 L 951.505 84.709 L 949.383 86.83 L 953.626 91.073 L 955.747 88.951 L 959.99 93.194 L 957.869 95.315 L 962.111 99.558 L 964.233 97.437 L 968.475 101.679 L 966.354 103.8 L 970.597 108.043 L 972.718 105.922 L 976.483 109.687 L 978.521 114.607 L 975.749 115.755 L 978.045 121.298 L 980.817 120.15 L 983.113 125.693 L 980.341 126.841 L 982.637 132.384 L 985.409 131.236 L 987.705 136.78 L 984.934 137.928 L 987.23 143.471 L 990.001 142.323 L 992.297 147.866 L 989.526 149.014 L 991.822 154.558 L 994.593 153.409 L 996.89 158.953 L 994.118 160.101 L 996.414 165.644 L 999.186 164.496 L 1001.482 170.039 L 998.71 171.187 L 1001.006 176.731 L 1003.778 175.583 L 1006.074 181.126 L 1003.302 182.274 L 1005.598 187.817 L 1008.37 186.669 L 1010.666 192.212 L 1007.895 193.36 L 1010.191 198.904 L 1012.962 197.756 L 1015 202.675 L 1015 208 L 1012 208 L 1012 214 L 1015 214 L 1015 220 L 1012 220 L 1012 226 L 1015 226 L 1015 232 L 1012 232 L 1012 238 L 1015 238 L 1015 244 L 1012 244 L 1012 250 L 1015 250 L 1015 256 L 1012 256 L 1012 262 L 1015 262 L 1015 268 L 1012 268 L 1012 274 L 1015 274 L 1015 280 L 1012 280 L 1012 286 L 1015 286 L 1015 292 L 1012 292 L 1012 298 L 1015 298 L 1015 303.325 L 1012.962 308.244 L 1010.191 307.096 L 1007.895 312.64 L 1010.666 313.788 L 1008.37 319.331 L 1005.598 318.183 L 1003.302 323.726 L 1006.074 324.874 L 1003.778 330.417 L 1001.006 329.269 L 998.71 334.813 L 1001.482 335.961 L 999.186 341.504 L 996.414 340.356 L 994.118 345.899 L 996.89 347.047 L 994.593 352.591 L 991.822 351.442 L 989.526 356.986 L 992.297 358.134 L 990.001 363.677 L 987.23 362.529 L 984.934 368.072 L 987.705 369.22 L 985.409 374.764 L 982.637 373.616 L 980.341 379.159 L 983.113 380.307 L 980.817 385.85 L 978.045 384.702 L 975.749 390.245 L 978.521 391.393 L 976.483 396.313 L 972.718 400.078 L 970.597 397.957 L 966.354 402.2 L 968.475 404.321 L 964.233 408.563 L 962.111 406.442 L 957.869 410.685 L 959.99 412.806 L 955.747 417.049 L 953.626 414.927 L 949.383 419.17 L 951.505 421.291 L 947.262 425.534 L 945.141 423.413 L 940.898 427.655 L 943.019 429.777 L 938.777 434.019 L 936.655 431.898 L 932.413 436.141 L 934.534 438.262 L 930.291 442.505 L 928.17 440.383 L 923.927 444.626 L 926.049 446.747 L 921.806 450.99 L 919.685 448.869 L 915.442 453.111 L 917.563 455.233 L 913.321 459.475 L 911.2 457.354 L 906.957 461.597 L 909.078 463.718 L 905.313 467.483 L 900.393 469.521 L 899.245 466.749 L 893.702 469.045 L 894.85 471.817 L 889.307 474.113 L 888.159 471.341 L 882.616 473.637 L 883.764 476.409 L 878.22 478.705 L 877.072 475.934 L 871.529 478.23 L 872.677 481.001 L 867.134 483.297 L 865.986 480.526 L 860.442 482.822 L 861.591 485.593 L 856.047 487.89 L 854.899 485.118 L 849.356 487.414 L 850.504 490.186 L 844.961 492.482 L 843.813 489.71 L 838.269 492.006 L 839.417 494.778 L 833.874 497.074 L 832.726 494.302 L 827.183 496.598 L 828.331 499.37 L 822.788 501.666 L 821.64 498.895 L 816.096 501.191 L 817.244 503.962 L 812.325 506 L 807 506 L 807 503 L 801 503 L 801 506 L 795 506 L 795 503 L 789 503 L 789 506 L 783 506 L 783 503 L 777 503 L 777 506 L 771 506 L 771 503 L 765 503 L 765 506 L 759 506 L 759 503 L 753 503 L 753 506 L 747 506 L 747 503 L 741 503 L 741 506 L 735 506 L 735 503 L 729 503 L 729 506 L 723 506 L 723 503 L 717 503 L 717 506 L 711.675 506 L 706.756 503.962 L 707.904 501.191 L 702.36 498.895 L 701.212 501.666 L 695.669 499.37 L 696.817 496.598 L 691.274 494.302 L 690.126 497.074 L 684.583 494.778 L 685.731 492.006 L 680.187 489.71 L 679.039 492.482 L 673.496 490.186 L 674.644 487.414 L 669.101 485.118 L 667.953 487.89 L 662.409 485.593 L 663.558 482.822 L 658.014 480.526 L 656.866 483.297 L 651.323 481.001 L 652.471 478.23 L 646.928 475.934 L 645.78 478.705 L 640.236 476.409 L 641.384 473.637 L 635.841 471.341 L 634.693 474.113 L 629.15 471.817 L 630.298 469.045 L 624.755 466.749 L 623.607 469.521 L 618.687 467.483 L 614.922 463.718 L 617.043 461.597 L 612.8 457.354 L 610.679 459.475 L 606.437 455.233 L 608.558 453.111 L 604.315 448.869 L 602.194 450.99 L 597.951 446.747 L 600.073 444.626 L 595.83 440.383 L 593.709 442.505 L 589.466 438.262 L 591.587 436.141 L 587.345 431.898 L 585.223 434.019 L 580.981 429.777 L 583.102 427.655 L 578.859 423.413 L 576.738 425.534 L 572.495 421.291 L 574.617 419.17 L 570.374 414.927 L 568.253 417.049 L 564.01 412.806 L 566.131 410.685 L 561.889 406.442 L 559.767 408.563 L 555.525 404.321 L 557.646 402.2 L 553.403 397.957 L 551.282 400.078 L 547.517 396.313 L 545.479 391.393 L 548.251 390.245 L 545.955 384.702 L 543.183 385.85 L 540.887 380.307 L 543.659 379.159 L 541.363 373.616 L 538.591 374.764 L 536.295 369.22 L 539.066 368.072 L 536.77 362.529 L 533.999 363.677 L 531.703 358.134 L 534.474 356.986 L 532.178 351.442 L 529.407 352.591 L 527.11 347.047 L 529.882 345.899 L 527.586 340.356 L 524.814 341.504 L 522.518 335.961 L 525.29 334.813 L 522.994 329.269 L 520.222 330.417 L 517.926 324.874 L 520.698 323.726 L 518.402 318.183 L 515.63 319.331 L 513.334 313.788 L 516.105 312.64 L 513.809 307.096 L 511.038 308.244 L 509 303.325 L 509 298 L 512 298 L 512 292 L 509 292 L 509 286 L 512 286 L 512 280 L 509 280 L 509 274 L 512 274 L 512 268 L 509 268 L 509 262 L 512 262 L 512 256 L 509 256 L 509 250 L 512 250 L 512 244 L 509 244 L 509 238 L 512 238 L 512 232 L 509 232 L 509 226 L 512 226 L 512 220 L 509 220 L 509 214 L 512 214 L 512 208 L 509 208 L 509 202.675 L 511.038 197.756 L 513.809 198.904 L 516.105 193.36 L 513.334 192.212 L 515.63 186.669 L 518.402 187.817 L 520.698 182.274 L 517.926 181.126 L 520.222 175.583 L 522.994 176.731 L 525.29 171.187 L 522.518 170.039 L 524.814 164.496 L 527.586 165.644 L 529.882 160.101 L 527.11 158.953 L 529.407 153.409 L 532.178 154.558 L 534.474 149.014 L 531.703 147.866 L 533.999 142.323 L 536.77 143.471 L 539.066 137.928 L 536.295 136.78 L 538.591 131.236 L 541.363 132.384 L 543.659 126.841 L 540.887 125.693 L 543.183 120.15 L 545.955 121.298 L 548.251 115.755 L 545.479 114.607 L 547.517 109.687 L 551.282 105.922 L 553.403 108.043 L 557.646 103.8 L 555.525 101.679 L 559.767 97.437 L 561.889 99.558 L 566.131 95.315 L 564.01 93.194 L 568.253 88.951 L 570.374 91.073 L 574.617 86.83 L 572.495 84.709 L 576.738 80.466 L 578.859 82.587 L 583.102 78.345 L 580.981 76.223 L 585.223 71.981 L 587.345 74.102 L 591.587 69.859 L 589.466 67.738 L 593.709 63.495 L 595.83 65.617 L 600.073 61.374 L 597.951 59.253 L 602.194 55.01 L 604.315 57.131 L 608.558 52.889 L 606.437 50.767 L 610.679 46.525 L 612.8 48.646 L 617.043 44.403 L 614.922 42.282 L 618.687 38.517 L 623.607 36.479 L 624.755 39.251 L 630.298 36.955 L 629.15 34.183 L 634.693 31.887 L 635.841 34.659 L 641.384 32.363 L 640.236 29.591 L 645.78 27.295 L 646.928 30.066 L 652.471 27.77 L 651.323 24.999 L 656.866 22.703 L 658.014 25.474 L 663.558 23.178 L 662.409 20.407 L 667.953 18.11 L 669.101 20.882 L 674.644 18.586 L 673.496 15.814 L 679.039 13.518 L 680.187 16.29 L 685.731 13.994 L 684.583 11.222 L 690.126 8.926 L 691.274 11.698 L 696.817 9.402 L 695.669 6.63 L 701.212 4.334 L 702.36 7.105 L 707.904 4.809 L 706.756 2.038 L 711.675 0 L 717 0 L 717 3 L 723 3 L 723 0 L 729 0 L 729 3 L 735 3 L 735 0 L 741 0 L 741 3 L 747 3 L 747 0 L 753 0 L 753 3 L 759 3 L 759 0 L 765 0 L 765 3 L 771 3 L 771 0 L 777 0 L 777 3 L 783 3 L 783 0 L 789 0 L 789 3 L 795 3 L 795 0 L 801 0 L 801 3 L 807 3 L 807 0 L 812.325 0 Z" id="bottom_outsideCutPath" stroke="#FF0000" stroke-width="0.1" style="stroke:#FF0000;stroke-width:0.1" vector-effect="non-scaling-stroke"/></g></svg>